<?xml version="1.0" encoding="utf-8"?>
<!-- Generator: Adobe Illustrator 22.0.0, SVG Export Plug-In . SVG Version: 6.00 Build 0)  -->
<svg version="1.1" id="Calque_1" xmlns="http://www.w3.org/2000/svg" xmlns:xlink="http://www.w3.org/1999/xlink" x="0px" y="0px"
	 viewBox="0 0 1044.4 1080" style="enable-background:new 0 0 1044.4 1080;" xml:space="preserve">
<style type="text/css">
	.st0{fill:#484540;}
	.st1{fill:#FFFFFF;}
</style>
<g>
	<rect x="0.1" class="st0" width="1044.2" height="1080"/>
	<path class="st1" d="M453.6,413.4c-6.5,0-10.7,1.1-12.7,3.3c-2,2.3-3,7.1-3,14.5v117.1l-15.1,11.7l-156.4,0.6c-4,0-7.2-1.2-9.7-3.5
		c-2.6-2.4-3.8-5.1-3.8-8.3v-25.5c0-3,1.3-5.6,3.8-7.9c2.5-2.2,5.7-3.3,9.7-3.3h87.9v-67.8c0-15.2,1.7-27.8,5.1-37.8
		c3.4-10,8.9-18.1,16.4-24.2c7.6-6.2,17.4-10.5,29.7-13.1c12.2-2.5,27.1-3.9,44.7-3.9h113.8c4,0,7.2,1.1,9.7,3.3
		c2.5,2.2,3.8,4.9,3.8,7.8v25.6c0,3-1.2,5.6-3.8,7.8c-2.5,2.2-5.7,3.4-9.7,3.4H453.6z"/>
	<path class="st1" d="M610.8,559.6c-3.6,0-6.7-1-9.4-3c-2.6-2.1-4-4.5-4-7.2V332.2c0-6.2-1-10.3-3-12.3c-2-2.1-6-3.2-12.1-3.2H330.4
		c-3.9,0-7.2-1-9.7-3.1c-2.5-2.1-3.8-4.6-3.8-7.8v-23.6c0-2.7,1.3-5.1,4-7c2.7-1.9,5.9-2.8,9.4-2.8h255c17.7,0,32.6,1.2,44.8,3.6
		c12.2,2.4,22.1,6.4,29.6,12.1c7.6,5.7,12.9,13.1,16.2,22.4c3.3,9.3,4.8,21,4.8,35.1v170.7H778c3.9,0,7.2,1,9.7,3.1
		c2.5,2.1,3.8,4.4,3.8,7.2v23.7c0,2.8-1.3,5.1-3.8,7.3c-2.5,2-5.8,3.1-9.7,3.1L610.8,559.6z"/>
	<path class="st1" d="M209.7,793.3c0,0.4,0,0.7,0.1,1.1c0,0.2,0.1,0.4,0.4,0.7c0.2,0.1,0.5,0.2,0.9,0.3c0.4,0.2,1,0.2,1.7,0.2
		l-0.1,0.9h-2.3c-0.8-0.1-1.6-0.1-2.3-0.1h-1c-0.4,0-0.7,0.1-1.1,0.1H205h-0.8l0-0.9c0.6,0,1.1-0.1,1.5-0.2c0.4-0.1,0.6-0.2,0.9-0.4
		c0.2-0.3,0.3-0.5,0.3-1c0.1-0.4,0.1-0.9,0.1-1.5v-16.3c0-0.4,0-0.8,0-1c-0.1-0.2-0.2-0.5-0.4-0.6c-0.2-0.2-0.5-0.3-0.8-0.4
		c-0.4-0.1-0.9-0.2-1.6-0.2l0.1-0.9h0.8h1.1c0.4,0,0.7,0,1.2,0.1h1.1c0.6,0,1.3-0.1,1.9-0.2c0.6,0,1.3-0.2,1.9-0.2
		c1,0,1.9,0.1,2.8,0.2c0.9,0.2,1.8,0.5,2.5,0.9c0.7,0.4,1.4,1,1.9,1.7c0.4,0.7,0.7,1.7,0.7,2.8c0,0.7-0.1,1.4-0.3,2.1
		c-0.3,0.7-0.7,1.2-1,1.8c-0.4,0.6-0.9,1-1.4,1.5c-0.6,0.4-1.2,0.7-1.9,1c0.5,1,1.1,1.9,1.5,2.9c0.4,0.8,0.9,1.7,1.4,2.5
		c0.4,0.7,0.7,1.4,1.1,2c0.4,0.6,0.6,1,0.8,1.3c0.3,0.4,0.6,0.8,0.8,1c0.2,0.2,0.4,0.4,0.6,0.6c0.3,0.1,0.6,0.2,0.9,0.2
		c0.4,0.1,0.8,0.2,1.4,0.2l-0.1,0.9h-1.9c-0.8-0.1-1.5-0.1-2.2-0.1h-0.7c-0.3,0-0.5,0.1-0.7,0.1c-0.2-0.4-0.4-0.9-0.7-1.5
		c-0.4-0.7-0.8-1.4-1.2-2.3c-0.5-0.9-1-1.8-1.5-2.9c-0.6-0.9-1.1-2-1.7-3.1c-0.1-0.2-0.1-0.3-0.2-0.4l-0.4-0.3
		c-0.2-0.1-0.3-0.1-0.6-0.2c-0.2-0.1-0.5-0.1-0.9-0.1h-0.7h-0.5c-0.2,0-0.4,0-0.6-0.1V793.3z M209.7,784.5l0.4,0c0.2,0,0.2,0,0.4,0
		h0.8c1.8,0,3.3-0.4,4.3-1.4c1-0.8,1.5-2.2,1.5-4.2c0-1.6-0.5-2.8-1.4-3.6c-1-0.8-2.2-1.1-3.8-1.1c-0.5,0-0.9,0-1.1,0.1
		c-0.3,0.1-0.5,0.2-0.6,0.4c-0.1,0.2-0.2,0.4-0.2,0.7c-0.1,0.2-0.1,0.6-0.1,0.9V784.5z"/>
	<path class="st1" d="M253.5,793.7c-0.5,0.7-1,1.2-1.5,1.6c-0.5,0.4-1,0.7-1.5,1c-0.5,0.2-0.9,0.3-1.3,0.5c-0.5,0-0.7,0.1-0.9,0.1
		c-1,0-1.9-0.3-2.7-0.6c-0.8-0.4-1.4-0.8-2-1.5c-0.6-0.6-1-1.4-1.4-2.2c-0.3-0.9-0.4-1.8-0.4-2.8c0-1.1,0.2-2.1,0.5-3
		c0.4-0.9,0.9-1.8,1.5-2.4c0.6-0.7,1.4-1.2,2.2-1.6c0.8-0.4,1.7-0.6,2.6-0.6c0.7,0,1.4,0.1,2,0.4c0.6,0.2,1.2,0.6,1.6,1
		c0.5,0.4,0.9,1,1.2,1.5c0.3,0.7,0.5,1.4,0.5,2.1v0.4l0,0.3c0,0.4-0.3,0.7-0.6,0.7H244c0,1.1,0.2,2,0.5,2.8c0.3,0.8,0.7,1.4,1.2,2
		c0.5,0.5,1,0.8,1.6,1.1c0.6,0.2,1.3,0.3,1.8,0.3c0.7,0,1.3-0.1,1.8-0.3c0.6-0.3,1.2-0.7,1.8-1.4L253.5,793.7z M250,787.3
		c0.3,0,0.5-0.1,0.6-0.1c0.1-0.1,0.2-0.4,0.2-0.7c0-0.4-0.1-0.8-0.2-1.2c-0.1-0.4-0.4-0.7-0.6-1c-0.3-0.3-0.6-0.5-1-0.7
		c-0.4-0.1-0.8-0.2-1.3-0.2c-0.4,0-0.8,0.1-1.1,0.2c-0.4,0.2-0.8,0.5-1.1,0.9c-0.4,0.4-0.7,0.8-0.8,1.2c-0.3,0.5-0.4,1-0.5,1.7H250z
		"/>
	<path class="st1" d="M280.6,786.7c0-0.4-0.2-0.9-0.4-1.4c-0.2-0.4-0.5-0.8-0.7-1.1c-0.4-0.3-0.7-0.6-1.2-0.8
		c-0.4-0.1-0.9-0.3-1.4-0.3c-0.3,0-0.6,0.1-0.8,0.2c-0.3,0.1-0.6,0.2-0.8,0.4c-0.2,0.2-0.3,0.5-0.5,0.7c-0.1,0.2-0.2,0.5-0.2,0.9
		c0,0.4,0.1,0.8,0.3,1c0.2,0.3,0.5,0.6,0.8,0.8c0.4,0.3,0.7,0.5,1.2,0.6c0.4,0.2,0.8,0.4,1.2,0.6c0.4,0.1,1,0.4,1.5,0.7
		c0.5,0.2,0.9,0.5,1.3,0.8c0.4,0.4,0.6,0.7,0.9,1.2c0.2,0.4,0.3,0.9,0.3,1.5c0,0.7-0.1,1.4-0.5,1.9c-0.3,0.6-0.7,1-1.2,1.4
		c-0.5,0.4-1,0.6-1.6,0.8c-0.7,0.2-1.3,0.2-1.9,0.2c-0.4,0-0.8,0-1.3-0.1c-0.4-0.2-0.7-0.2-1.1-0.2c-0.3-0.1-0.6-0.1-0.9-0.2
		c-0.3,0-0.7-0.1-1-0.1c0-0.3,0-0.6-0.1-1.1c-0.1-0.4-0.1-0.8-0.1-1.3c0-0.4-0.1-0.8-0.2-1.2c-0.1-0.4-0.1-0.7-0.2-0.9l0.8-0.2
		c0.2,0.6,0.4,1.1,0.7,1.6c0.3,0.6,0.6,1,1,1.4c0.4,0.4,0.8,0.7,1.2,1c0.5,0.2,1,0.4,1.7,0.4c0.6,0,1.1-0.2,1.5-0.5
		c0.5-0.3,0.7-0.8,0.7-1.5c0-0.4,0-0.8-0.3-1.1c-0.2-0.3-0.4-0.5-0.8-0.8c-0.2-0.2-0.6-0.4-1-0.7c-0.4-0.2-0.7-0.4-1.2-0.5
		c-0.5-0.3-0.9-0.4-1.5-0.7c-0.5-0.2-0.9-0.5-1.3-0.8c-0.3-0.4-0.6-0.7-0.8-1.1c-0.3-0.4-0.3-1-0.3-1.6c0-0.8,0.1-1.4,0.4-1.9
		c0.3-0.6,0.7-1,1.2-1.4c0.4-0.3,1-0.6,1.6-0.7c0.6-0.2,1.3-0.2,1.9-0.2c0.6,0,1.2,0.1,1.8,0.2c0.6,0.1,1.3,0.3,2.1,0.3
		c-0.1,0.5-0.1,1-0.1,1.4c0,0.5-0.1,1-0.1,1.5v1.1H280.6z"/>
	<path class="st1" d="M304.7,777.5c0,0.4,0,0.8-0.1,1.3c0,0.5,0,1,0,1.5v1.4v1.1l4-0.1l0.2,0.2l-0.1,1.3h-4v7.7c0,0.6,0,1.1,0.1,1.5
		c0.1,0.4,0.3,0.8,0.5,1c0.2,0.3,0.4,0.4,0.7,0.6c0.2,0,0.6,0.1,0.9,0.1c0.3,0,0.7-0.1,1.1-0.1c0.3-0.2,0.7-0.2,1.1-0.3l0.2,0.9
		c-0.6,0.2-1.2,0.5-2,0.7c-0.7,0.2-1.3,0.4-2,0.4c-0.5,0-0.9-0.2-1.3-0.2c-0.4-0.1-0.7-0.3-1-0.6c-0.3-0.3-0.5-0.7-0.7-1.2
		c-0.2-0.5-0.2-1.1-0.2-1.7v-0.7v-1.3v-2.6v-4.2H300l-0.2-0.2l0.1-1l2.2-0.2v-2v-1.3v-1.1c0.2-0.2,0.4-0.3,0.7-0.3
		c0.2-0.2,0.5-0.2,0.7-0.4c0.2,0,0.4-0.1,0.6-0.2c0.2-0.1,0.3-0.3,0.4-0.3L304.7,777.5z"/>
	<path class="st1" d="M335,788.5v-0.4v-1.8c0-0.8-0.2-1.5-0.6-2c-0.4-0.5-1-0.7-1.8-0.7c-0.5,0-0.8,0-1.1,0.2
		c-0.3,0.2-0.6,0.4-0.8,0.7c-0.2,0.3-0.4,0.5-0.4,0.9c-0.1,0.4-0.2,0.8-0.2,1.1c-0.3,0.2-0.6,0.3-1,0.3c-0.4,0-0.7,0-1-0.2
		c-0.4-0.2-0.5-0.4-0.5-0.8c0-0.3,0.1-0.5,0.3-0.8c0.2-0.2,0.4-0.5,0.8-0.7c0.3-0.3,0.6-0.6,1-0.9c0.4-0.2,0.8-0.4,1.2-0.6
		c1-0.5,2-0.7,3-0.7c0.6,0,1,0.1,1.5,0.2c0.5,0.1,0.8,0.5,1.2,0.7c0.4,0.2,0.6,0.7,0.8,1.2c0.2,0.4,0.3,1,0.3,1.6c0,1,0,2.1,0,3.3
		c-0.1,1.3-0.1,2.7-0.1,4.2c0,0.6,0.1,1.1,0.4,1.5c0.2,0.4,0.6,0.6,0.9,0.6c0.4,0,0.8-0.1,1.3-0.3l0.4,0.6c-0.4,0.3-0.8,0.7-1.4,0.9
		c-0.5,0.2-1,0.4-1.5,0.4c-0.5,0-1.1-0.2-1.5-0.4c-0.5-0.4-0.8-0.9-0.9-1.6c-0.1,0.1-0.4,0.3-0.7,0.5c-0.3,0.2-0.7,0.4-1.1,0.7
		c-0.4,0.2-0.9,0.4-1.4,0.6c-0.4,0.2-0.9,0.3-1.3,0.3c-0.5,0-1-0.1-1.5-0.3c-0.4-0.2-0.8-0.5-1-0.8c-0.4-0.3-0.5-0.7-0.8-1.1
		c-0.2-0.4-0.2-0.9-0.2-1.4c0-0.8,0.2-1.6,0.7-2.1c0.4-0.5,1.1-1,1.8-1.4c0.6-0.2,1.2-0.4,2.2-0.7
		C332.7,788.9,333.8,788.7,335,788.5 M335,793.7c0-0.7,0-1.3,0-2c0-0.6,0-1.4,0-2c-0.4,0.1-0.9,0.1-1.3,0.2c-0.5,0-0.9,0.1-1.3,0.3
		c-0.5,0.1-0.8,0.2-1.2,0.4c-0.4,0.1-0.7,0.3-0.9,0.6c-0.4,0.4-0.6,0.8-0.6,1.4c0,0.7,0.1,1.3,0.5,1.8c0.3,0.5,0.8,0.7,1.5,0.7
		c0.5,0,1-0.1,1.5-0.4C334,794.4,334.5,794.1,335,793.7"/>
	<path class="st1" d="M368.6,796.5c0-0.3,0-0.6,0-1c0.1-0.4,0.1-0.7,0.1-1c-0.8,0.8-1.7,1.3-2.6,1.7c-0.9,0.4-1.8,0.6-2.7,0.6
		c-0.6,0-1.1-0.1-1.6-0.3c-0.5-0.2-0.9-0.5-1.3-0.9c-0.3-0.4-0.6-0.9-0.8-1.6c-0.2-0.6-0.4-1.4-0.4-2.4V786c0-0.4,0-0.8,0-1
		c-0.1-0.2-0.2-0.5-0.3-0.6c-0.2-0.1-0.3-0.3-0.7-0.3c-0.2-0.1-0.6-0.2-1.1-0.3v-0.6c0.5-0.1,1-0.2,1.5-0.3c0.5-0.1,1-0.1,1.4-0.3
		c0.4-0.1,0.8-0.2,1.1-0.2c0.3-0.1,0.6-0.2,0.8-0.2l0.2,0.2c0,0.4,0,0.8-0.1,1.3c0,0.5-0.1,0.9-0.1,1.4v1.2v1v3.7
		c0,0.8,0,1.4,0.2,1.9c0.2,0.5,0.4,0.9,0.6,1.3c0.2,0.3,0.5,0.5,0.9,0.6c0.4,0.2,0.7,0.2,1.1,0.2c0.6,0,1.3-0.1,2-0.4
		c0.7-0.3,1.3-0.7,1.9-1.1V786c0-0.4-0.1-0.8-0.1-1c0-0.2-0.1-0.5-0.3-0.6c-0.2-0.1-0.4-0.3-0.7-0.3c-0.4-0.1-0.8-0.2-1.3-0.3v-0.6
		c0.6-0.1,1.1-0.2,1.6-0.3c0.5-0.1,0.9-0.1,1.4-0.3c0.5-0.1,0.9-0.2,1.2-0.3c0.3-0.1,0.5-0.1,0.7-0.2l0.2,0.2c0,0.4,0,0.8,0,1.3
		c0,0.5-0.1,0.9-0.1,1.4c-0.1,0.4-0.1,0.8-0.1,1.2v1v5.7c0,0.4,0,0.8,0.1,1.1c0.1,0.2,0.1,0.4,0.4,0.6c0.1,0.2,0.4,0.3,0.6,0.4
		c0.4,0,0.8,0.2,1.3,0.2l0.1,0.7c-0.5,0-0.9,0.2-1.4,0.2c-0.5,0-1,0.1-1.4,0.2c-0.5,0.1-0.8,0.2-1.2,0.3c-0.4,0.1-0.7,0.2-0.8,0.2
		L368.6,796.5z"/>
	<path class="st1" d="M399.5,796.4h-0.9h-1.1c-0.4,0-0.8-0.1-1.3-0.1H395c-0.7,0-1.3,0-1.8,0.1h-1.5v-0.8c0.5-0.1,0.9-0.1,1.2-0.2
		c0.3-0.1,0.6-0.2,0.7-0.4c0.1-0.3,0.3-0.6,0.4-0.9c0.1-0.4,0.1-0.8,0.1-1.5v-6.2c0-0.4,0-0.8-0.1-1.1c0-0.3-0.2-0.4-0.3-0.6
		c-0.1-0.2-0.4-0.2-0.6-0.4c-0.4-0.1-0.7-0.2-1.2-0.2l-0.1-0.7c0.4,0,0.8-0.2,1.3-0.3c0.5-0.1,0.9-0.3,1.3-0.4
		c0.4,0,0.7-0.2,1.2-0.4c0.4-0.1,0.6-0.2,0.9-0.3l0.3,0.2c-0.1,0.5-0.1,1-0.1,1.5c0,0.5-0.1,1-0.1,1.5c0.5-0.7,1-1.2,1.4-1.5
		c0.4-0.4,0.8-0.7,1.1-1c0.3-0.3,0.6-0.4,0.9-0.5c0.3,0,0.6-0.1,0.9-0.1c0.4,0,0.8,0.1,1.1,0.3c0.3,0.3,0.6,0.6,0.6,1.1
		c0,0.3-0.2,0.7-0.5,1.1c-0.3,0.4-0.7,0.7-1.3,1.1c-0.3-0.3-0.5-0.5-0.8-0.6c-0.4-0.1-0.7-0.2-1-0.2c-0.4,0-0.8,0.2-1.1,0.4
		c-0.5,0.3-0.8,0.8-1,1.4c-0.1,0.2-0.1,0.3-0.1,0.5c0,0.2-0.1,0.3-0.1,0.5v6c0,0.3,0.1,0.7,0.1,0.9c0.1,0.2,0.1,0.5,0.4,0.6
		c0.2,0.2,0.5,0.2,0.9,0.3c0.4,0,0.9,0.1,1.5,0.1L399.5,796.4z"/>
	<path class="st1" d="M428.1,788.5v-0.4v-1.8c0-0.8-0.2-1.5-0.6-2c-0.4-0.5-1-0.7-1.8-0.7c-0.5,0-0.9,0-1.2,0.2
		c-0.3,0.2-0.6,0.4-0.8,0.7c-0.2,0.3-0.4,0.5-0.4,0.9c-0.1,0.4-0.1,0.8-0.1,1.1c-0.3,0.2-0.6,0.3-1,0.3c-0.3,0-0.7,0-1-0.2
		c-0.3-0.2-0.5-0.4-0.5-0.8c0-0.3,0.1-0.5,0.3-0.8c0.2-0.2,0.5-0.5,0.8-0.7c0.3-0.3,0.7-0.6,1.1-0.9c0.4-0.2,0.8-0.4,1.2-0.6
		c1-0.5,2.1-0.7,3.1-0.7c0.5,0,0.9,0.1,1.4,0.2c0.4,0.1,0.7,0.5,1,0.7c0.4,0.2,0.6,0.7,0.8,1.2c0.2,0.4,0.2,1,0.2,1.6
		c0,1,0,2.1,0,3.3v4.2c0,0.6,0.1,1.1,0.4,1.5c0.2,0.4,0.5,0.6,1,0.6c0.4,0,0.8-0.1,1.2-0.3l0.4,0.6c-0.4,0.3-0.8,0.7-1.4,0.9
		c-0.5,0.2-1,0.4-1.6,0.4c-0.5,0-1-0.2-1.4-0.4c-0.5-0.4-0.8-0.9-0.9-1.6c-0.2,0.1-0.4,0.3-0.8,0.5c-0.3,0.2-0.7,0.4-1.1,0.7
		c-0.4,0.2-0.9,0.4-1.4,0.6c-0.4,0.2-0.9,0.3-1.3,0.3c-0.5,0-0.9-0.1-1.4-0.3c-0.4-0.2-0.8-0.5-1.1-0.8c-0.3-0.3-0.5-0.7-0.7-1.1
		c-0.2-0.4-0.2-0.9-0.2-1.4c0-0.8,0.2-1.6,0.7-2.1c0.4-0.5,1.1-1,1.8-1.4c0.5-0.2,1.3-0.4,2.2-0.7
		C425.8,788.9,426.9,788.7,428.1,788.5 M428.1,793.7v-2c0-0.6,0-1.4,0-2c-0.4,0.1-0.9,0.1-1.2,0.2c-0.5,0-0.9,0.1-1.3,0.3
		c-0.4,0.1-0.8,0.2-1.1,0.4c-0.4,0.1-0.7,0.3-1,0.6c-0.4,0.4-0.6,0.8-0.6,1.4c0,0.7,0.1,1.3,0.5,1.8c0.4,0.5,0.9,0.7,1.6,0.7
		c0.4,0,1-0.1,1.6-0.4C427.1,794.4,427.6,794.1,428.1,793.7"/>
	<path class="st1" d="M457.8,796.4h-1.7c-0.6-0.1-1.3-0.1-2-0.1c-0.6,0-1.2,0-1.8,0.1h-1.6l0-0.8c0.5-0.1,0.9-0.1,1.3-0.2
		c0.3-0.1,0.6-0.3,0.8-0.5c0.1-0.1,0.3-0.4,0.4-0.8v-1.5v-6.2v-1.1c-0.1-0.3-0.2-0.4-0.3-0.6c-0.2-0.2-0.4-0.2-0.6-0.4
		c-0.4-0.1-0.7-0.2-1.2-0.2l0-0.7c0.4,0,0.8-0.2,1.3-0.3c0.4-0.1,0.9-0.3,1.3-0.4c0.4,0,0.8-0.2,1.2-0.4c0.4-0.1,0.7-0.2,0.9-0.3
		l0.3,0.2c0,0.4-0.1,0.7-0.1,1c0,0.3-0.1,0.7-0.1,1c0.9-0.7,1.8-1.2,2.7-1.6c0.9-0.4,1.9-0.6,2.7-0.6c0.6,0,1.1,0.1,1.5,0.2
		c0.6,0.2,1,0.5,1.3,0.9c0.4,0.5,0.6,1,0.8,1.6c0.2,0.6,0.4,1.4,0.4,2.3v6.6c0,0.3,0,0.7,0.1,0.9c0,0.2,0.1,0.5,0.3,0.6
		c0.1,0.2,0.3,0.2,0.7,0.3c0.3,0,0.7,0.1,1.2,0.1l0,0.9h-1.6c-0.6-0.1-1.3-0.1-2.1-0.1c-0.6,0-1.2,0-1.7,0.1h-1.5l-0.1-0.8
		c0.5-0.1,0.8-0.1,1.1-0.2c0.3-0.1,0.5-0.2,0.7-0.4c0.2-0.2,0.3-0.5,0.3-0.9c0.1-0.3,0.1-0.8,0.1-1.4v-5.1c0-1.3-0.3-2.2-0.8-2.8
		c-0.5-0.6-1.3-0.9-2.1-0.9c-0.6,0-1.3,0.2-1.9,0.4c-0.6,0.2-1.3,0.6-2,1v8.2c0,0.3,0.1,0.7,0.1,0.9c0,0.2,0.1,0.5,0.3,0.6
		c0.1,0.2,0.4,0.2,0.6,0.3c0.3,0,0.7,0.1,1.2,0.1L457.8,796.4z"/>
	<path class="st1" d="M489.7,777.5c0,0.4-0.1,0.8-0.1,1.3c-0.1,0.5-0.1,1-0.1,1.5v1.4c-0.1,0.5-0.1,0.9-0.1,1.1l4-0.1l0.2,0.2
		l-0.1,1.3h-4.1v7.7c0,0.6,0.1,1.1,0.2,1.5c0.1,0.4,0.3,0.8,0.5,1c0.2,0.3,0.5,0.4,0.8,0.6c0.3,0,0.6,0.1,0.9,0.1
		c0.3,0,0.7-0.1,1.1-0.1c0.4-0.2,0.7-0.2,1.1-0.3l0.1,0.9c-0.6,0.2-1.2,0.5-1.9,0.7c-0.7,0.2-1.4,0.4-2,0.4c-0.4,0-0.8-0.2-1.3-0.2
		c-0.4-0.1-0.7-0.3-1-0.6c-0.3-0.3-0.5-0.7-0.7-1.2c-0.2-0.5-0.3-1.1-0.3-1.7v-0.7v-1.3v-2.6v-4.2h-2.1l-0.1-0.2l0.1-1l2.1-0.2v-2
		v-1.3v-1.1c0.3-0.2,0.5-0.3,0.7-0.3c0.3-0.2,0.5-0.2,0.8-0.4c0.2,0,0.4-0.1,0.6-0.2c0.2-0.1,0.4-0.3,0.4-0.3L489.7,777.5z"/>
	<polygon class="st1" points="511.4,789.5 511.6,789.7 520.3,789 520.2,788 511.6,787.9 	"/>
	<path class="st1" d="M538.6,773.2h0.8h1.1c0.4,0,0.8,0,1.2,0.1h1.2c0.6,0,1.4-0.1,2.1-0.2c0.7-0.1,1.5-0.1,2.4-0.1
		c1,0,1.9,0.1,2.8,0.3c0.9,0.1,1.8,0.5,2.4,0.9c0.7,0.4,1.2,1,1.6,1.7c0.5,0.7,0.6,1.5,0.6,2.5c0,0.8-0.1,1.6-0.4,2.2
		c-0.3,0.6-0.6,1.1-1,1.5c-0.4,0.3-1,0.7-1.5,0.9c-0.5,0.2-0.9,0.5-1.4,0.7c1.8,0.2,3.1,0.9,4,2c1,1,1.5,2.4,1.5,4.1
		c0,1.3-0.3,2.3-0.8,3.2c-0.5,0.8-1.2,1.5-2.1,2.1c-0.8,0.5-1.7,1-2.8,1.3c-1.1,0.2-2.2,0.3-3.3,0.3c-0.7,0-1.5,0-2.3-0.2
		c-0.8-0.1-1.7-0.2-2.3-0.2h-1c-0.3,0-0.6,0.1-1,0.1h-1.1h-0.8l-0.1-0.9c0.7,0,1.2,0,1.6-0.2c0.4-0.1,0.8-0.2,1-0.4
		c0.2-0.3,0.4-0.5,0.4-1c0.1-0.4,0.1-0.9,0.1-1.5v-16.3c0-0.4,0-0.8-0.1-1c0-0.2-0.2-0.5-0.3-0.6c-0.3-0.1-0.6-0.3-1-0.4
		c-0.3-0.1-0.9-0.2-1.6-0.2L538.6,773.2z M544.3,783.4h1.9c1.9,0,3.4-0.4,4.2-1.1c0.9-0.8,1.4-1.9,1.4-3.4c0-0.6-0.1-1.1-0.3-1.6
		c-0.2-0.6-0.4-1-0.8-1.5c-0.4-0.5-1-0.8-1.6-1.1c-0.7-0.3-1.5-0.4-2.7-0.4c-0.5,0-1,0-1.3,0.1c-0.3,0.1-0.5,0.2-0.7,0.3
		c-0.2,0.2-0.2,0.3-0.3,0.6v0.7V783.4z M544.3,792.7c0,0.6,0,1,0.1,1.3c0,0.4,0.2,0.6,0.4,0.8c0.3,0.2,0.5,0.3,1,0.4
		c0.4,0.1,1,0.1,1.7,0.1c1.6,0,2.9-0.4,3.9-1.2c1-1,1.5-2.2,1.5-3.9c0-1-0.2-1.9-0.5-2.6c-0.3-0.7-0.8-1.3-1.3-1.7
		c-0.7-0.5-1.3-0.8-2.2-1.1c-0.8-0.2-1.8-0.3-2.8-0.3h-1.8V792.7z"/>
	<path class="st1" d="M582.5,788.5v-0.4v-1.8c0-0.8-0.2-1.5-0.6-2c-0.4-0.5-0.9-0.7-1.8-0.7c-0.5,0-0.9,0-1.2,0.2
		c-0.3,0.2-0.6,0.4-0.8,0.7c-0.3,0.3-0.4,0.5-0.5,0.9c-0.1,0.4-0.1,0.8-0.1,1.1c-0.3,0.2-0.6,0.3-1,0.3c-0.4,0-0.7,0-1-0.2
		c-0.4-0.2-0.5-0.4-0.5-0.8c0-0.3,0.1-0.5,0.3-0.8c0.2-0.2,0.4-0.5,0.8-0.7c0.3-0.3,0.6-0.6,1-0.9c0.4-0.2,0.8-0.4,1.2-0.6
		c1.1-0.5,2.1-0.7,3.1-0.7c0.5,0,0.9,0.1,1.3,0.2c0.5,0.1,0.8,0.5,1.2,0.7c0.3,0.2,0.5,0.7,0.7,1.2c0.2,0.4,0.3,1,0.3,1.6
		c0,1-0.1,2.1-0.1,3.3c0,1.3,0,2.7,0,4.2c0,0.6,0.2,1.1,0.3,1.5c0.3,0.4,0.6,0.6,1,0.6c0.4,0,0.8-0.1,1.2-0.3l0.5,0.6
		c-0.4,0.3-0.8,0.7-1.3,0.9c-0.6,0.2-1.1,0.4-1.6,0.4c-0.5,0-1-0.2-1.5-0.4c-0.4-0.4-0.8-0.9-0.9-1.6c-0.2,0.1-0.4,0.3-0.7,0.5
		c-0.3,0.2-0.8,0.4-1.1,0.7c-0.4,0.2-0.8,0.4-1.4,0.6c-0.5,0.2-1,0.3-1.4,0.3c-0.6,0-1-0.1-1.4-0.3c-0.4-0.2-0.8-0.5-1.1-0.8
		c-0.3-0.3-0.5-0.7-0.7-1.1c-0.2-0.4-0.3-0.9-0.3-1.4c0-0.8,0.3-1.6,0.7-2.1c0.5-0.5,1.1-1,1.8-1.4c0.6-0.2,1.3-0.4,2.2-0.7
		C580.2,788.9,581.3,788.7,582.5,788.5 M582.5,793.7c0-0.7,0-1.3,0-2v-2c-0.4,0.1-0.8,0.1-1.3,0.2c-0.4,0-0.9,0.1-1.3,0.3
		c-0.4,0.1-0.7,0.2-1.1,0.4c-0.3,0.1-0.6,0.3-0.9,0.6c-0.4,0.4-0.6,0.8-0.6,1.4c0,0.7,0.2,1.3,0.5,1.8c0.4,0.5,0.9,0.7,1.6,0.7
		c0.5,0,1.1-0.1,1.6-0.4C581.5,794.4,582,794.1,582.5,793.7"/>
	<path class="st1" d="M613,796.4h-0.9H611c-0.4,0-0.9-0.1-1.2-0.1h-1.2c-0.6,0-1.2,0-1.8,0.1h-1.5l-0.1-0.8c0.4-0.1,0.9-0.1,1.2-0.2
		c0.3-0.1,0.5-0.2,0.7-0.4c0.1-0.3,0.2-0.6,0.3-0.9c0.1-0.4,0.1-0.8,0.1-1.5v-6.2c0-0.4,0-0.8-0.1-1.1c-0.1-0.3-0.1-0.4-0.3-0.6
		c-0.2-0.2-0.4-0.2-0.7-0.4c-0.3-0.1-0.7-0.2-1.2-0.2l-0.1-0.7c0.4,0,0.8-0.2,1.3-0.3c0.4-0.1,0.9-0.3,1.3-0.4
		c0.4,0,0.8-0.2,1.2-0.4c0.4-0.1,0.7-0.2,0.9-0.3l0.3,0.2c-0.1,0.5-0.2,1-0.2,1.5v1.5c0.6-0.7,1-1.2,1.4-1.5c0.4-0.4,0.7-0.7,1.1-1
		c0.3-0.3,0.7-0.4,1-0.5c0.3,0,0.6-0.1,0.8-0.1c0.4,0,0.8,0.1,1.2,0.3c0.3,0.3,0.5,0.6,0.5,1.1c0,0.3-0.2,0.7-0.4,1.1
		c-0.4,0.4-0.8,0.7-1.3,1.1c-0.3-0.3-0.6-0.5-0.9-0.6c-0.3-0.1-0.6-0.2-1-0.2c-0.3,0-0.8,0.2-1.2,0.4c-0.5,0.3-0.8,0.8-1,1.4
		c-0.1,0.2-0.2,0.3-0.2,0.5v0.5v6c0,0.3,0,0.7,0.1,0.9c0,0.2,0.1,0.5,0.4,0.6c0.2,0.2,0.5,0.2,0.9,0.3c0.4,0,0.9,0.1,1.6,0.1
		L613,796.4z"/>
	<polygon class="st1" points="633.1,789.5 633.4,789.7 642,789 642,788 633.4,787.9 	"/>
	<path class="st1" d="M669,774c-0.6,0.1-1.2,0.2-1.5,0.3c-0.4,0-0.7,0.2-0.9,0.4c-0.2,0.2-0.4,0.5-0.4,0.9c-0.1,0.4-0.1,0.8-0.1,1.5
		v15.4c0,0.5,0,1,0.1,1.4c0.1,0.4,0.2,0.6,0.5,0.8c0.1,0.2,0.5,0.4,0.8,0.4c0.4,0.1,0.9,0.1,1.5,0.1h1.3c0.9,0,1.5-0.1,2.2-0.3
		c0.6-0.1,1.1-0.4,1.4-0.7c0.4-0.4,0.7-0.8,1.1-1.5c0.3-0.6,0.6-1.3,1-2.1l0.8,0.2c-0.1,0.4-0.2,0.9-0.3,1.5c-0.1,0.5-0.2,1-0.3,1.5
		c-0.1,0.6-0.2,1-0.2,1.5c-0.1,0.4-0.2,0.8-0.2,1.1h-3.5h-2.7h-2c-0.6,0-1-0.1-1.4-0.1h-1.1h-0.8h-1c-0.4,0-0.8,0.1-1.1,0.1h-1.1
		h-0.8l-0.1-0.9c0.7,0,1.2-0.1,1.6-0.2c0.4-0.1,0.7-0.3,0.9-0.4c0.2-0.3,0.4-0.5,0.4-0.9c0.1-0.4,0.1-0.9,0.1-1.5v-16.3
		c0-0.4-0.1-0.8-0.1-1c-0.1-0.2-0.2-0.5-0.4-0.6c-0.2-0.2-0.6-0.3-0.9-0.4c-0.4-0.1-0.9-0.2-1.6-0.2l0.1-0.9h0.9h1.2
		c0.5,0,0.9,0,1.3,0.1h1.2h1c0.4-0.1,0.7-0.1,1.1-0.1h1.1h0.8L669,774z"/>
	<path class="st1" d="M694.7,789.7c0-1.1,0.3-2,0.6-3c0.3-0.9,0.8-1.7,1.4-2.4c0.7-0.7,1.4-1.2,2.3-1.6c0.8-0.5,1.7-0.6,2.7-0.6
		c1.1,0,2.1,0.2,2.9,0.6c0.9,0.4,1.7,0.9,2.3,1.5c0.6,0.6,1,1.4,1.4,2.3c0.4,0.8,0.6,1.8,0.6,2.9c0,1.1-0.2,1.9-0.6,2.9
		c-0.3,0.8-0.8,1.7-1.4,2.4c-0.6,0.7-1.4,1.2-2.2,1.6c-0.9,0.3-1.8,0.6-2.8,0.6c-1,0-2-0.2-2.9-0.6c-0.9-0.4-1.6-0.9-2.2-1.5
		c-0.6-0.7-1.2-1.4-1.5-2.3C695,791.6,694.7,790.7,694.7,789.7 M702.1,795.7c0.7,0,1.2-0.2,1.7-0.5c0.5-0.4,0.9-0.8,1.2-1.4
		c0.3-0.5,0.6-1.1,0.7-1.8c0.2-0.7,0.3-1.3,0.3-1.9c0-0.9-0.1-1.6-0.3-2.4c-0.2-0.8-0.4-1.5-0.7-2.2c-0.4-0.7-0.9-1.2-1.4-1.6
		c-0.5-0.4-1.3-0.6-2.1-0.6c-0.8,0-1.3,0.2-1.8,0.5c-0.4,0.4-0.9,0.8-1.2,1.3c-0.3,0.5-0.5,1.2-0.7,1.8c-0.2,0.7-0.2,1.3-0.2,2
		c0,0.8,0,1.6,0.2,2.3c0.2,0.8,0.4,1.5,0.8,2.2c0.4,0.8,0.8,1.2,1.4,1.7C700.6,795.5,701.3,795.7,702.1,795.7"/>
	<path class="st1" d="M738.4,796.5c0-0.3,0-0.6,0-1v-1c-0.8,0.8-1.6,1.3-2.6,1.7c-0.9,0.4-1.8,0.6-2.7,0.6c-0.6,0-1-0.1-1.5-0.3
		c-0.5-0.2-0.9-0.5-1.3-0.9c-0.4-0.4-0.6-0.9-0.8-1.6c-0.2-0.6-0.3-1.4-0.3-2.4V786c0-0.4,0-0.8-0.1-1c0-0.2-0.1-0.5-0.3-0.6
		c-0.2-0.1-0.4-0.3-0.6-0.3c-0.3-0.1-0.6-0.2-1.1-0.3v-0.6c0.5-0.1,1-0.2,1.4-0.3c0.5-0.1,1-0.1,1.4-0.3c0.4-0.1,0.8-0.2,1.1-0.2
		c0.3-0.1,0.6-0.2,0.8-0.2l0.2,0.2c-0.1,0.4-0.1,0.8-0.1,1.3c0,0.5,0,0.9,0,1.4c0,0.4-0.1,0.8-0.1,1.2c0,0.4,0,0.7,0,1v3.7
		c0,0.8,0.1,1.4,0.2,1.9c0.1,0.5,0.4,0.9,0.5,1.3c0.3,0.3,0.6,0.5,1,0.6c0.3,0.2,0.7,0.2,1,0.2c0.7,0,1.4-0.1,2-0.4
		c0.7-0.3,1.4-0.7,1.9-1.1V786c0-0.4,0-0.8,0-1c-0.1-0.2-0.1-0.5-0.3-0.6c-0.2-0.1-0.4-0.3-0.7-0.3c-0.3-0.1-0.8-0.2-1.3-0.3v-0.6
		c0.5-0.1,1-0.2,1.6-0.3c0.5-0.1,0.9-0.1,1.5-0.3c0.4-0.1,0.8-0.2,1.1-0.3c0.3-0.1,0.6-0.1,0.7-0.2l0.3,0.2
		c-0.1,0.4-0.1,0.8-0.1,1.3c0,0.5,0,0.9-0.1,1.4c-0.1,0.4-0.1,0.8-0.1,1.2c0,0.4,0,0.7,0,1v5.7c0,0.4,0,0.8,0.1,1.1
		c0,0.2,0.2,0.4,0.3,0.6c0.2,0.2,0.4,0.3,0.8,0.4c0.3,0,0.7,0.2,1.3,0.2l0.1,0.7c-0.4,0-0.9,0.2-1.4,0.2c-0.4,0-0.9,0.1-1.4,0.2
		c-0.4,0.1-0.8,0.2-1.2,0.3c-0.3,0.1-0.6,0.2-0.8,0.2L738.4,796.5z"/>
	<path class="st1" d="M768.5,796.4h-1.6c-0.6-0.1-1.4-0.1-2.1-0.1c-0.6,0-1.2,0-1.8,0.1h-1.5l-0.1-0.8c0.5-0.1,1-0.1,1.3-0.2
		c0.3-0.1,0.6-0.3,0.7-0.5c0.2-0.1,0.3-0.4,0.3-0.8c0.1-0.4,0.1-0.8,0.1-1.5v-6.2c0-0.4,0-0.8-0.1-1.1c0-0.3-0.1-0.4-0.3-0.6
		c-0.2-0.2-0.4-0.2-0.6-0.4c-0.3-0.1-0.7-0.2-1.2-0.2l-0.1-0.7c0.4,0,0.8-0.2,1.3-0.3c0.4-0.1,0.8-0.3,1.3-0.4
		c0.4,0,0.8-0.2,1.2-0.4c0.4-0.1,0.6-0.2,0.9-0.3l0.2,0.2c0,0.4,0,0.7-0.1,1c0,0.3-0.1,0.7-0.1,1c0.9-0.7,1.8-1.2,2.7-1.6
		c1-0.4,1.9-0.6,2.7-0.6c0.6,0,1.1,0.1,1.5,0.2c0.5,0.2,1,0.5,1.3,0.9c0.3,0.5,0.6,1,0.9,1.6c0.2,0.6,0.3,1.4,0.3,2.3v6.6
		c0,0.3,0,0.7,0.1,0.9c0,0.2,0.2,0.5,0.3,0.6c0.2,0.2,0.3,0.2,0.7,0.3c0.3,0,0.7,0.1,1.2,0.1l-0.1,0.9h-1.6
		c-0.6-0.1-1.3-0.1-2.1-0.1c-0.6,0-1.2,0-1.7,0.1h-1.5l-0.1-0.8c0.6-0.1,0.9-0.1,1.2-0.2c0.3-0.1,0.5-0.2,0.7-0.4
		c0.1-0.2,0.2-0.5,0.2-0.9c0.1-0.3,0.1-0.8,0.1-1.4v-5.1c0-1.3-0.3-2.2-0.8-2.8c-0.5-0.6-1.2-0.9-2.1-0.9c-0.6,0-1.2,0.2-1.9,0.4
		c-0.7,0.2-1.4,0.6-2.1,1v8.2c0,0.3,0.1,0.7,0.1,0.9c0.1,0.2,0.2,0.5,0.3,0.6c0.2,0.2,0.4,0.2,0.7,0.3c0.3,0,0.7,0.1,1.2,0.1
		L768.5,796.4z"/>
	<path class="st1" d="M796.5,787.8c0-0.7,0.2-1.6,0.5-2.3c0.4-0.7,0.8-1.2,1.4-1.8c0.6-0.6,1.1-1,1.8-1.2c0.7-0.3,1.5-0.5,2.3-0.5
		c1.3,0,2.3,0.3,3.2,0.8c0.1,0.2,0.4,0.2,0.4,0.3c0.2,0,0.4,0,0.5,0c0.2,0,0.3,0,0.4,0l3.6-0.3l0.1,0.2l-0.1,1.4h-3.3
		c0.7,0.8,0.9,1.8,0.9,2.8c0,1-0.1,1.8-0.5,2.5c-0.3,0.8-0.8,1.3-1.4,1.8c-0.6,0.5-1.2,0.8-1.9,1.1c-0.7,0.2-1.4,0.3-2.1,0.3
		c-0.6,0-1.2,0-1.9-0.1c-0.4,0.1-0.7,0.4-0.9,0.8c-0.3,0.4-0.4,0.7-0.4,1c0,0.2,0.1,0.4,0.3,0.6c0.1,0.2,0.4,0.3,0.6,0.4
		c0.3,0.1,0.5,0.2,0.8,0.2c0.2,0.1,0.6,0.1,0.8,0.1h1.9c0.6,0,1.3-0.1,1.8-0.1c0.6,0,1.3,0.1,1.9,0.2c0.6,0.2,1.2,0.4,1.7,0.7
		c0.5,0.3,0.9,0.7,1.2,1.3c0.4,0.5,0.5,1.2,0.5,2.1c0,1-0.2,1.9-0.7,2.9c-0.5,0.9-1,1.7-1.8,2.3c-0.8,0.6-1.7,1.2-2.8,1.5
		c-1.1,0.5-2.3,0.6-3.6,0.6c-0.7,0-1.4-0.1-2-0.3c-0.7-0.1-1.4-0.4-1.9-0.8c-0.6-0.4-1.1-0.8-1.4-1.5c-0.4-0.5-0.6-1.2-0.6-2
		c0-0.6,0.2-1.1,0.4-1.5c0.2-0.5,0.5-0.9,0.8-1.2c0.3-0.4,0.7-0.7,1.1-1.1c0.4-0.3,0.8-0.6,1.2-0.9c-0.6-0.3-1.2-0.5-1.6-1
		c-0.5-0.3-0.7-0.8-0.7-1.5c0-0.3,0.1-0.6,0.2-0.9c0.3-0.3,0.5-0.6,0.8-0.9c0.2-0.2,0.5-0.5,0.7-0.8c0.3-0.2,0.5-0.5,0.7-0.6
		C797.4,791.6,796.5,790,796.5,787.8 M802.8,798.5h-1.2c-0.3,0-0.7,0-0.9,0.1c-0.2,0-0.4,0.1-0.6,0.2c-0.2,0.1-0.3,0.2-0.5,0.4
		c-0.5,0.4-0.8,0.9-1,1.4c-0.3,0.6-0.4,1.1-0.4,1.7c0,0.6,0.1,1.2,0.4,1.7c0.3,0.4,0.8,0.8,1.2,1c0.4,0.3,1,0.4,1.6,0.6
		c0.6,0.2,1.2,0.3,1.7,0.3c0.6,0,1.3-0.1,2-0.3c0.6-0.1,1.1-0.4,1.6-0.7c0.5-0.4,0.8-0.8,1.1-1.3c0.3-0.5,0.4-1.2,0.4-2
		c0-0.7-0.1-1.2-0.4-1.7c-0.3-0.4-0.8-0.7-1.2-1.1c-0.5-0.2-1-0.3-1.5-0.4c-0.5,0-1.2,0-1.9,0H802.8z M802.6,792.2
		c0.6,0,0.9-0.1,1.3-0.4c0.4-0.2,0.7-0.6,0.8-0.9c0.3-0.4,0.5-0.9,0.6-1.3c0.1-0.5,0.2-1,0.2-1.4c0-0.6,0-1.2-0.2-1.7
		c-0.2-0.6-0.4-1.1-0.6-1.6c-0.2-0.5-0.6-0.9-0.9-1.2c-0.4-0.3-1-0.4-1.6-0.4c-0.5,0-1,0.2-1.3,0.4c-0.4,0.2-0.7,0.6-0.9,0.9
		c-0.2,0.4-0.4,0.8-0.5,1.3c-0.1,0.5-0.1,0.9-0.1,1.4c0,0.6,0.1,1.2,0.2,1.7c0.2,0.6,0.3,1,0.5,1.5c0.3,0.5,0.6,0.9,1,1.2
		C801.5,792,802.1,792.2,802.6,792.2"/>
	<path class="st1" d="M840.4,793.7c-0.5,0.7-1.1,1.2-1.6,1.6c-0.6,0.4-1,0.7-1.5,1c-0.5,0.2-0.9,0.3-1.3,0.5c-0.4,0-0.7,0.1-0.9,0.1
		c-1.1,0-1.9-0.3-2.8-0.6c-0.8-0.4-1.5-0.8-2-1.5c-0.6-0.6-1.1-1.4-1.4-2.2c-0.3-0.9-0.5-1.8-0.5-2.8c0-1.1,0.2-2.1,0.6-3
		c0.4-0.9,0.9-1.8,1.5-2.4c0.7-0.7,1.4-1.2,2.2-1.6c0.8-0.4,1.7-0.6,2.5-0.6c0.7,0,1.4,0.1,2,0.4c0.6,0.2,1.2,0.6,1.7,1
		c0.4,0.4,0.8,1,1.1,1.5c0.2,0.7,0.4,1.4,0.4,2.1v0.4v0.3c-0.1,0.4-0.4,0.7-0.7,0.7h-8.8c0,1.1,0.2,2,0.5,2.8c0.3,0.8,0.7,1.4,1.2,2
		c0.5,0.5,1,0.8,1.7,1.1c0.6,0.2,1.2,0.3,1.8,0.3c0.6,0,1.2-0.1,1.8-0.3c0.6-0.3,1.2-0.7,1.8-1.4L840.4,793.7z M836.9,787.3
		c0.3,0,0.5-0.1,0.6-0.1c0.1-0.1,0.2-0.4,0.2-0.7c0-0.4-0.1-0.8-0.3-1.2c-0.2-0.4-0.4-0.7-0.6-1c-0.2-0.3-0.5-0.5-1-0.7
		c-0.4-0.1-0.8-0.2-1.3-0.2c-0.4,0-0.8,0.1-1.1,0.2c-0.4,0.2-0.7,0.5-1,0.9c-0.4,0.4-0.6,0.8-0.9,1.2c-0.2,0.5-0.4,1-0.4,1.7H836.9z
		"/>
	<path class="st1" d="M747.3,703.4h33.3c1.2,0,2.1-0.3,2.8-1c0.8-0.7,1.2-1.5,1.2-2.4v-7.7c0-0.9-0.4-1.7-1.2-2.4
		c-0.7-0.7-1.7-1-2.8-1h-34.3c-5.3,0-9.8,0.4-13.5,1.2c-3.7,0.8-6.6,2.1-8.9,3.9c-2.2,1.9-3.9,4.3-4.9,7.3c-1.1,3-1.6,6.9-1.6,11.3
		v20.5h-14.2v-87.9h-17.8v102.4h52.6l4.6-3.5v-35.3c0-2.2,0.3-3.7,0.8-4.3C744.1,703.7,745.4,703.4,747.3,703.4"/>
	<path class="st1" d="M859.4,732.8h-29.2v-55.7c0-4.6-0.5-8.4-1.5-11.4c-0.9-3.1-2.6-5.5-4.8-7.3c-2.3-1.9-5.2-3.2-8.9-4
		c-3.8-0.7-8.2-1.1-13.5-1.1h-76.8c-1.1,0-2,0.3-2.9,1c-0.8,0.5-1.2,1.3-1.2,2.2v7.7c0,1.1,0.5,1.9,1.2,2.5c0.6,0.7,1.7,1,2.9,1
		h75.8c1.8,0,3,0.4,3.6,1c0.5,0.7,0.9,2,0.9,4.1v71.5c0,0.9,0.4,1.7,1.2,2.4c0.8,0.7,1.8,1,2.9,1h50.3c1.2,0,2.2-0.4,2.9-1
		c0.8-0.7,1.2-1.5,1.2-2.4v-8.1c0-0.9-0.4-1.6-1.2-2.3C861.6,733.1,860.7,732.8,859.4,732.8"/>
	<rect x="482.8" y="644.7" class="st1" width="17.7" height="120.4"/>
	<path class="st1" d="M629.8,642.9c-4.4,0-8.9,1.1-13.5,3.2c-2.3,1.1-4.8,2.9-7.7,5.4c-2.7,2.6-5.8,5.9-9.2,9.8
		c-4-12.3-13.2-18.4-27.7-18.4c-10.2,0-19.4,5.1-27.6,15.3v-13.1h-17.7v102.4H544v-73.3c8.2-10.8,16.5-16.3,25-16.3
		c5.5,0,9.5,1.8,11.8,5.3c2.4,3.7,3.6,9.6,3.6,18.1v66.2H602v-73.3c8.2-10.8,16.5-16.3,25.1-16.3c5.6,0,9.5,1.8,11.9,5.3
		c2.4,3.7,3.5,9.6,3.5,18.1v66.2h17.6v-66.9C660.1,655.4,650,642.9,629.8,642.9"/>
	<rect x="685.5" y="605.7" class="st1" width="17.7" height="19.7"/>
	<polygon class="st1" points="427.9,683.3 465.3,645.1 443.2,645.1 405,686.2 405,625.3 405,625.3 405,606.2 405,606.2 400.2,606.2
		387.4,606.2 387.4,747.5 405,747.5 405,706.8 416,695.6 448.2,747.5 469.1,747.5 	"/>
	<rect x="500.5" y="605.7" class="st1" width="170.3" height="19.2"/>
	<path class="st1" d="M277.1,687.1h-35.2c-5.4,0-10,0.4-13.8,1.2c-3.8,0.8-6.9,2.1-9.2,4c-2.3,1.8-4,4.4-5,7.5
		c-1.1,3.1-1.6,6.9-1.6,11.6v21h-27.2c-1.2,0-2.2,0.3-2.9,1c-0.8,0.7-1.3,1.5-1.3,2.4v7.9c0,1,0.5,1.9,1.3,2.6
		c0.7,0.6,1.7,1.1,2.9,1.1h48.2l4.8-3.8v-36.2c0-2.3,0.3-3.7,0.8-4.4c0.6-0.7,1.9-1.1,3.9-1.1h34.2c1.2,0,2.2-0.4,3-1
		c0.8-0.8,1.1-1.5,1.1-2.4v-8c0-1-0.4-1.7-1.1-2.4C279.3,687.4,278.3,687.1,277.1,687.1"/>
	<path class="st1" d="M343.9,605.7v126.6H328v-56.8c0-4.8-0.5-8.6-1.5-11.7c-1-3.1-2.7-5.6-5-7.5c-2.3-1.8-5.3-3.2-9-4
		c-3.8-0.8-8.4-1.2-13.8-1.2h-78.3c-1.2,0-2.1,0.3-2.9,0.9c-0.9,0.6-1.2,1.4-1.2,2.3v7.9c0,1,0.4,1.8,1.2,2.5c0.7,0.7,1.7,1.1,3,1.1
		h77.3c1.8,0,3.1,0.3,3.7,1c0.6,0.6,1,2,1,4.1v73c0,0.9,0.3,1.7,1.1,2.4c0.8,0.7,1.8,1,2.9,1h55V605.7H343.9z"/>
</g>
</svg>
