<?xml version="1.0" encoding="utf-8"?>
<!-- Generator: Adobe Illustrator 22.0.0, SVG Export Plug-In . SVG Version: 6.00 Build 0)  -->
<svg version="1.1" id="Calque_1" xmlns="http://www.w3.org/2000/svg" xmlns:xlink="http://www.w3.org/1999/xlink" x="0px" y="0px"
	 viewBox="0 0 1044.4 1080" style="enable-background:new 0 0 1044.4 1080;" xml:space="preserve">
<style type="text/css">
	.st0{fill:#9e9f9e;}
	.st1{fill:#FFFFFF;}
</style>
<g>
	<rect x="1" class="st0" width="1042.5" height="1080"/>
	<path class="st1" d="M341.8,738.9c-69.7-62.5-86.9-144.3-86.9-212.6c0-48.1,16.5-132.1,80.4-196.1c43.1-43.1,108.4-76.8,219-76.8
		c28.7,0,68.9,2.2,104.1,8.6c27.3,5,50.3,9.3,73.3,10.8c7.9,0.7,9.3,3.6,9.3,7.9c0,5.8-2.2,14.4-3.6,40.2c-1.4,23.7-1.4,63.2-2.2,74
		c-0.7,10.8-2.2,15.1-6.5,15.1c-5,0-5.7-5-5.7-15.1c0-28-11.5-57.5-30.2-73.3c-25.1-21.5-80.4-40.9-143.6-40.9
		c-95.5,0-140,28-165.1,52.4c-52.4,50.3-64.6,114.2-64.6,187.4c0,137.2,105.6,262.8,259.2,262.8c53.9,0,96.2-6.5,125-35.9
		c15.1-15.8,24.4-47.4,26.6-60.3c1.4-7.9,2.9-10.8,7.2-10.8c3.6,0,5,5,5,10.8c0,5-8.6,67.5-15.8,91.9c-4.3,13.7-5.8,15.1-18.7,20.8
		c-28.7,11.5-83.3,16.5-129.3,16.5C471,816.5,398.5,789.9,341.8,738.9"/>
	<path class="st1" d="M626.4,409.9c0,17.1-13.9,30.9-31,30.9H509c-17.1,0-30.9-13.8-30.9-30.9c0-17.1,13.8-30.9,30.9-30.9h86.5
		C612.5,379,626.4,392.8,626.4,409.9"/>
	<path class="st1" d="M623.3,493.2c0,17.1-13.8,30.9-30.9,30.9h-86.5c-17,0-30.9-13.8-30.9-30.9c0-17,13.9-30.8,30.9-30.8h86.5
		C609.5,462.4,623.3,476.2,623.3,493.2"/>
	<path class="st1" d="M620.2,576.6c0,17.1-13.9,31-30.9,31h-86.5c-17.1,0-30.9-13.9-30.9-31c0-17,13.8-30.8,30.9-30.8h86.5
		C606.3,545.8,620.2,559.6,620.2,576.6"/>
	<path class="st1" d="M598.5,660c0,17-13.8,30.9-30.8,30.9h-86.5c-17.1,0-30.9-13.9-30.9-30.9c0-17.1,13.8-30.9,30.9-30.9h86.5
		C584.7,629.1,598.5,643,598.5,660"/>
</g>
</svg>
