<?xml version="1.0" encoding="utf-8"?>
<!-- Generator: Adobe Illustrator 22.0.0, SVG Export Plug-In . SVG Version: 6.00 Build 0)  -->
<svg version="1.1" id="Calque_1" xmlns="http://www.w3.org/2000/svg" xmlns:xlink="http://www.w3.org/1999/xlink" x="0px"
     y="0px"
     viewBox="0 0 397.9 67.9" style="enable-background:new 0 0 397.9 67.9;" xml:space="preserve">
<style type="text/css">
	.st0{fill:#6C7477;}
</style>
    <g>
	<path class="st0" d="M302.4,57.3h41.1V14.8h-41.1V57.3z M303.1,15.6h39.5v40.9h-39.5V15.6z"/>
        <path class="st0" d="M319.6,30.2c-0.3,0-0.5,0.1-0.6,0.2c-0.1,0.1-0.1,0.3-0.1,0.7v5.6l-0.7,0.6l-7.4,0c-0.2,0-0.3-0.1-0.5-0.2
		c-0.1-0.1-0.2-0.2-0.2-0.4v-1.2c0-0.1,0.1-0.3,0.2-0.4c0.1-0.1,0.3-0.2,0.5-0.2h4.2v-3.2c0-0.7,0.1-1.3,0.2-1.8
		c0.2-0.5,0.4-0.9,0.8-1.2c0.4-0.3,0.8-0.5,1.4-0.6c0.6-0.1,1.3-0.2,2.1-0.2h5.4c0.2,0,0.3,0.1,0.5,0.2c0.1,0.1,0.2,0.2,0.2,0.4v1.2
		c0,0.1-0.1,0.3-0.2,0.4c-0.1,0.1-0.3,0.2-0.5,0.2H319.6z"/>
        <path class="st0" d="M327.1,37.1c-0.2,0-0.3,0-0.4-0.1c-0.1-0.1-0.2-0.2-0.2-0.3V26.3c0-0.3-0.1-0.5-0.1-0.6
		c-0.1-0.1-0.3-0.2-0.6-0.2h-12c-0.2,0-0.3,0-0.5-0.1c-0.1-0.1-0.2-0.2-0.2-0.4V24c0-0.1,0.1-0.2,0.2-0.3c0.1-0.1,0.3-0.1,0.4-0.1
		h12.1c0.8,0,1.5,0.1,2.1,0.2c0.6,0.1,1.1,0.3,1.4,0.6c0.4,0.3,0.6,0.6,0.8,1.1s0.2,1,0.2,1.7v8.1h4.6c0.2,0,0.3,0,0.5,0.1
		c0.1,0.1,0.2,0.2,0.2,0.3v1.1c0,0.1-0.1,0.2-0.2,0.3c-0.1,0.1-0.3,0.1-0.5,0.1L327.1,37.1z"/>
        <path class="st0" d="M308,48.3C308,48.3,308,48.3,308,48.3C308.1,48.3,308.1,48.3,308,48.3C308.1,48.3,308.1,48.4,308,48.3
		c0.1,0.1,0.1,0.1,0.1,0.1l0,0h-0.1c0,0-0.1,0-0.1,0h0c0,0,0,0-0.1,0h0h0l0,0c0,0,0.1,0,0.1,0c0,0,0,0,0,0c0,0,0,0,0,0
		c0,0,0,0,0-0.1v-0.8c0,0,0,0,0,0c0,0,0,0,0,0c0,0,0,0,0,0c0,0,0,0-0.1,0l0,0h0h0.1c0,0,0,0,0.1,0h0.1c0,0,0.1,0,0.1,0
		c0,0,0.1,0,0.1,0c0,0,0.1,0,0.1,0c0,0,0.1,0,0.1,0c0,0,0.1,0,0.1,0.1c0,0,0,0.1,0,0.1c0,0,0,0.1,0,0.1c0,0,0,0.1,0,0.1
		c0,0,0,0-0.1,0.1c0,0-0.1,0-0.1,0c0,0,0.1,0.1,0.1,0.1c0,0,0,0.1,0.1,0.1c0,0,0,0.1,0.1,0.1c0,0,0,0,0,0.1c0,0,0,0,0,0c0,0,0,0,0,0
		c0,0,0,0,0,0c0,0,0,0,0.1,0l0,0h-0.1c0,0-0.1,0-0.1,0h0c0,0,0,0,0,0c0,0,0,0,0-0.1c0,0,0-0.1-0.1-0.1c0,0,0-0.1-0.1-0.1
		c0,0-0.1-0.1-0.1-0.1c0,0,0,0,0,0l0,0c0,0,0,0,0,0c0,0,0,0,0,0h0h0c0,0,0,0,0,0V48.3z M308,47.8L308,47.8
		C308.1,47.8,308.1,47.8,308,47.8L308,47.8c0.2,0,0.2,0,0.3-0.1c0,0,0.1-0.1,0.1-0.2c0-0.1,0-0.1-0.1-0.2c0,0-0.1-0.1-0.2-0.1
		c0,0,0,0-0.1,0c0,0,0,0,0,0c0,0,0,0,0,0c0,0,0,0,0,0V47.8z"/>
        <path class="st0" d="M310.1,48.3C310.1,48.3,310.1,48.3,310.1,48.3c-0.1,0.1-0.1,0.1-0.1,0.1c0,0,0,0-0.1,0c0,0,0,0,0,0
		c0,0-0.1,0-0.1,0c0,0-0.1,0-0.1-0.1c0,0,0-0.1-0.1-0.1c0,0,0-0.1,0-0.1c0-0.1,0-0.1,0-0.1c0,0,0-0.1,0.1-0.1c0,0,0.1-0.1,0.1-0.1
		c0,0,0.1,0,0.1,0c0,0,0.1,0,0.1,0c0,0,0.1,0,0.1,0c0,0,0,0,0.1,0.1c0,0,0,0.1,0,0.1v0l0,0c0,0,0,0,0,0h-0.4c0,0.1,0,0.1,0,0.1
		c0,0,0,0.1,0.1,0.1c0,0,0,0,0.1,0.1c0,0,0.1,0,0.1,0c0,0,0.1,0,0.1,0C310,48.3,310.1,48.3,310.1,48.3L310.1,48.3z M310,48
		C310,48,310,48,310,48C310,48,310,48,310,48C310,47.9,310,47.9,310,48c0-0.1,0-0.1,0-0.1c0,0,0,0,0,0c0,0,0,0-0.1,0c0,0,0,0-0.1,0
		c0,0,0,0-0.1,0c0,0,0,0,0,0.1c0,0,0,0,0,0.1H310z"/>
        <path class="st0" d="M311.4,47.9C311.4,47.9,311.4,47.9,311.4,47.9c0-0.1,0-0.1-0.1-0.1c0,0,0,0-0.1,0c0,0,0,0-0.1,0c0,0,0,0,0,0
		c0,0,0,0,0,0c0,0,0,0,0,0c0,0,0,0,0,0c0,0,0,0,0,0c0,0,0,0,0,0c0,0,0,0,0.1,0c0,0,0,0,0.1,0c0,0,0,0,0.1,0s0,0,0.1,0c0,0,0,0,0,0.1
		c0,0,0,0,0,0.1c0,0,0,0.1,0,0.1c0,0,0,0-0.1,0.1c0,0,0,0-0.1,0c0,0-0.1,0-0.1,0c0,0,0,0-0.1,0c0,0,0,0-0.1,0c0,0,0,0,0,0
		c0,0,0,0,0,0c0,0,0,0,0,0c0,0,0,0,0-0.1c0,0,0,0,0-0.1c0,0,0,0,0,0l0,0c0,0,0,0.1,0,0.1c0,0,0,0,0,0.1c0,0,0,0,0.1,0c0,0,0,0,0.1,0
		c0,0,0.1,0,0.1,0c0,0,0,0,0-0.1c0,0,0,0,0-0.1c0,0,0,0,0,0c0,0,0,0,0,0c0,0,0,0-0.1,0c0,0,0,0-0.1,0c0,0,0,0-0.1,0c0,0,0,0,0-0.1
		c0,0,0,0,0-0.1c0,0,0-0.1,0-0.1c0,0,0,0,0.1-0.1c0,0,0,0,0.1,0c0,0,0.1,0,0.1,0c0,0,0.1,0,0.1,0c0,0,0.1,0,0.1,0c0,0,0,0,0,0.1
		C311.5,47.8,311.5,47.9,311.4,47.9L311.4,47.9L311.4,47.9z"/>
        <path class="st0" d="M312.6,47.5C312.6,47.5,312.6,47.5,312.6,47.5c0,0.1,0,0.1,0,0.1v0.1v0.1l0.2,0l0,0l0,0.1h-0.2v0.4
		c0,0,0,0.1,0,0.1c0,0,0,0,0,0c0,0,0,0,0,0c0,0,0,0,0,0c0,0,0,0,0.1,0c0,0,0,0,0.1,0l0,0c0,0-0.1,0-0.1,0c0,0-0.1,0-0.1,0
		c0,0,0,0-0.1,0c0,0,0,0,0,0c0,0,0,0,0-0.1c0,0,0-0.1,0-0.1v0v-0.1V48v-0.2h-0.1l0,0l0,0l0.1,0v-0.1v-0.1v-0.1
		C312.4,47.6,312.5,47.5,312.6,47.5C312.5,47.5,312.5,47.5,312.6,47.5C312.5,47.5,312.5,47.5,312.6,47.5
		C312.5,47.5,312.6,47.5,312.6,47.5L312.6,47.5z"/>
        <path class="st0" d="M314,48L314,48v-0.1c0,0,0-0.1,0-0.1c0,0,0,0-0.1,0c0,0,0,0-0.1,0c0,0,0,0,0,0c0,0,0,0,0,0c0,0,0,0,0,0.1
		c0,0,0,0,0,0c0,0,0,0,0,0c0,0,0,0,0,0c0,0,0,0,0,0c0,0,0,0,0,0c0,0,0,0,0,0c0,0,0,0,0.1,0c0,0,0.1,0,0.1,0c0,0,0,0,0.1,0
		c0,0,0,0,0.1,0c0,0,0,0,0,0.1c0,0,0,0,0,0.1c0,0,0,0.1,0,0.2c0,0.1,0,0.1,0,0.2c0,0,0,0.1,0,0.1c0,0,0,0,0,0c0,0,0,0,0.1,0l0,0
		c0,0,0,0-0.1,0c0,0,0,0-0.1,0c0,0-0.1,0-0.1,0c0,0,0,0,0-0.1c0,0,0,0,0,0c0,0,0,0-0.1,0c0,0,0,0-0.1,0c0,0,0,0-0.1,0c0,0,0,0-0.1,0
		c0,0,0,0,0,0c0,0,0,0,0-0.1c0,0,0,0,0-0.1c0,0,0-0.1,0-0.1c0,0,0,0,0.1-0.1c0,0,0.1,0,0.1,0C313.9,48,313.9,48,314,48 M314,48.3
		C314,48.2,314,48.2,314,48.3c0-0.1,0-0.2,0-0.2c0,0,0,0-0.1,0c0,0,0,0-0.1,0c0,0,0,0-0.1,0c0,0,0,0,0,0c0,0,0,0,0,0.1
		c0,0,0,0.1,0,0.1c0,0,0,0,0.1,0C313.9,48.3,313.9,48.3,314,48.3C314,48.3,314,48.3,314,48.3"/>
        <path class="st0" d="M315.6,48.4C315.6,48.4,315.6,48.4,315.6,48.4C315.6,48.3,315.6,48.3,315.6,48.4c0-0.1-0.1,0-0.1,0
		c0,0-0.1,0-0.1,0c0,0,0,0-0.1,0c0,0,0,0-0.1,0c0,0,0,0,0-0.1c0,0,0-0.1,0-0.1v-0.3c0,0,0,0,0,0c0,0,0,0,0,0c0,0,0,0,0,0
		c0,0,0,0-0.1,0v0c0,0,0,0,0.1,0c0,0,0,0,0.1,0c0,0,0,0,0.1,0c0,0,0,0,0,0l0,0c0,0,0,0,0,0.1c0,0,0,0,0,0.1v0.1v0v0.2
		c0,0,0,0.1,0,0.1c0,0,0,0,0,0.1c0,0,0,0,0,0c0,0,0,0,0.1,0C315.5,48.3,315.5,48.3,315.6,48.4c-0.1-0.1,0-0.1,0-0.1v-0.4
		c0,0,0,0,0,0c0,0,0,0,0,0c0,0,0,0,0,0c0,0,0,0-0.1,0v0c0,0,0.1,0,0.1,0c0,0,0,0,0.1,0c0,0,0,0,0.1,0c0,0,0,0,0,0l0,0c0,0,0,0,0,0.1
		c0,0,0,0,0,0.1c0,0,0,0,0,0.1v0v0.3c0,0,0,0,0,0.1c0,0,0,0,0,0c0,0,0,0,0,0c0,0,0,0,0.1,0l0,0c0,0,0,0-0.1,0c0,0,0,0-0.1,0
		C315.7,48.4,315.7,48.4,315.6,48.4C315.6,48.4,315.6,48.4,315.6,48.4L315.6,48.4z"/>
        <path class="st0" d="M317.1,48.4L317.1,48.4L317.1,48.4c-0.1,0-0.1,0-0.2,0h-0.1c0,0-0.1,0-0.1,0h-0.1v0c0,0,0,0,0.1,0c0,0,0,0,0,0
		c0,0,0,0,0,0c0,0,0,0,0-0.1v-0.3c0,0,0,0,0-0.1c0,0,0,0,0,0c0,0,0,0,0,0c0,0,0,0-0.1,0l0,0c0,0,0,0,0.1,0c0,0,0,0,0.1,0
		c0,0,0,0,0.1,0c0,0,0,0,0,0l0,0c0,0,0,0,0,0.1c0,0,0,0,0,0.1c0,0,0-0.1,0.1-0.1c0,0,0,0,0.1,0c0,0,0,0,0,0c0,0,0,0,0,0
		c0,0,0,0,0.1,0c0,0,0,0,0,0.1c0,0,0,0,0,0.1c0,0,0,0-0.1,0c0,0,0,0,0,0c0,0,0,0,0,0c0,0,0,0-0.1,0c0,0,0,0,0,0.1c0,0,0,0,0,0
		c0,0,0,0,0,0v0.3c0,0,0,0,0,0c0,0,0,0,0,0C317,48.4,317,48.4,317.1,48.4C317,48.4,317,48.4,317.1,48.4L317.1,48.4z"/>
        <path class="st0" d="M318.4,48L318.4,48v-0.1c0,0,0-0.1,0-0.1c0,0,0,0-0.1,0c0,0,0,0-0.1,0c0,0,0,0,0,0c0,0,0,0,0,0c0,0,0,0,0,0.1
		c0,0,0,0,0,0c0,0,0,0,0,0c0,0,0,0,0,0c0,0,0,0,0,0c0,0,0,0,0,0c0,0,0,0,0.1,0c0,0,0,0,0.1,0c0,0,0.1,0,0.1,0c0,0,0,0,0.1,0
		c0,0,0,0,0,0c0,0,0,0,0,0.1c0,0,0,0,0,0.1c0,0,0,0.1,0,0.2v0.2c0,0,0,0.1,0,0.1c0,0,0,0,0,0c0,0,0,0,0.1,0l0,0c0,0,0,0-0.1,0
		c0,0,0,0-0.1,0c0,0,0,0-0.1,0c0,0,0,0,0-0.1c0,0,0,0,0,0c0,0,0,0-0.1,0c0,0,0,0-0.1,0c0,0,0,0-0.1,0c0,0,0,0-0.1,0c0,0,0,0-0.1,0
		c0,0,0,0,0-0.1c0,0,0,0,0-0.1c0,0,0-0.1,0-0.1c0,0,0.1,0,0.1-0.1c0,0,0.1,0,0.1,0C318.3,48,318.4,48,318.4,48 M318.4,48.3
		L318.4,48.3c0-0.1,0-0.2,0-0.2c0,0,0,0-0.1,0c0,0,0,0-0.1,0c0,0,0,0-0.1,0c0,0,0,0,0,0c0,0,0,0,0,0.1c0,0,0,0.1,0,0.1
		c0,0,0,0,0.1,0C318.3,48.3,318.3,48.3,318.4,48.3C318.4,48.3,318.4,48.3,318.4,48.3"/>
        <path class="st0" d="M319.8,48.4L319.8,48.4c-0.1,0-0.1,0-0.2,0c0,0-0.1,0-0.1,0h-0.1l0,0c0,0,0,0,0.1,0c0,0,0,0,0,0c0,0,0,0,0,0
		v-0.1v-0.3v-0.1c0,0,0,0,0,0c0,0,0,0,0,0c0,0,0,0-0.1,0l0,0c0,0,0,0,0.1,0c0,0,0,0,0.1,0c0,0,0,0,0.1,0c0,0,0,0,0,0l0,0
		c0,0,0,0,0,0c0,0,0,0,0,0c0,0,0.1-0.1,0.1-0.1c0,0,0.1,0,0.1,0c0,0,0.1,0,0.1,0c0,0,0,0,0.1,0c0,0,0,0,0,0.1c0,0,0,0.1,0,0.1v0.3
		c0,0,0,0,0,0c0,0,0,0,0,0c0,0,0,0,0,0c0,0,0,0,0.1,0l0,0h-0.1c0,0-0.1,0-0.1,0c0,0-0.1,0-0.1,0H320l0,0c0,0,0,0,0.1,0c0,0,0,0,0,0
		c0,0,0,0,0,0c0,0,0,0,0-0.1V48c0-0.1,0-0.1,0-0.1c0,0-0.1,0-0.1,0c0,0-0.1,0-0.1,0c0,0-0.1,0-0.1,0v0.4c0,0,0,0,0,0
		C319.7,48.3,319.8,48.3,319.8,48.4C319.8,48.4,319.8,48.4,319.8,48.4C319.8,48.4,319.8,48.4,319.8,48.4L319.8,48.4z"/>
        <path class="st0" d="M321.4,47.5C321.4,47.5,321.4,47.5,321.4,47.5c0,0.1,0,0.1,0,0.1v0.1c0,0,0,0,0,0.1l0.2,0l0,0l0,0.1h-0.2v0.4
		c0,0,0,0.1,0,0.1c0,0,0,0,0,0c0,0,0,0,0,0c0,0,0,0,0,0c0,0,0,0,0.1,0c0,0,0,0,0.1,0l0,0c0,0-0.1,0-0.1,0c0,0-0.1,0-0.1,0
		c0,0,0,0-0.1,0c0,0,0,0,0,0c0,0,0,0,0-0.1c0,0,0-0.1,0-0.1v0v-0.1V48v-0.2h-0.1l0,0l0,0l0.1,0v-0.1v-0.1v-0.1
		C321.2,47.6,321.3,47.5,321.4,47.5C321.3,47.5,321.3,47.5,321.4,47.5C321.3,47.5,321.3,47.5,321.4,47.5
		C321.3,47.5,321.3,47.5,321.4,47.5L321.4,47.5z"/>
        <polygon class="st0" points="322.4,48.1 322.4,48.1 322.8,48.1 322.8,48 322.4,48 	"/>
        <path class="st0" d="M323.7,47.3L323.7,47.3L323.7,47.3c0.1,0,0.1,0,0.1,0h0.1c0,0,0.1,0,0.1,0c0,0,0.1,0,0.1,0c0,0,0.1,0,0.1,0
		c0,0,0.1,0,0.1,0c0,0,0.1,0,0.1,0.1c0,0,0,0.1,0,0.1c0,0,0,0.1,0,0.1c0,0,0,0.1-0.1,0.1c0,0,0,0-0.1,0c0,0,0,0-0.1,0
		c0.1,0,0.1,0,0.2,0.1c0,0,0.1,0.1,0.1,0.2c0,0.1,0,0.1,0,0.2c0,0-0.1,0.1-0.1,0.1c0,0-0.1,0-0.1,0.1c0,0-0.1,0-0.2,0
		c0,0-0.1,0-0.1,0c0,0-0.1,0-0.1,0h0c0,0,0,0,0,0h-0.1h0l0,0c0,0,0.1,0,0.1,0c0,0,0,0,0,0c0,0,0,0,0,0c0,0,0,0,0-0.1v-0.8
		c0,0,0,0,0,0c0,0,0,0,0,0C323.8,47.4,323.8,47.4,323.7,47.3C323.7,47.3,323.7,47.3,323.7,47.3L323.7,47.3z M324,47.8L324,47.8
		c0.2,0,0.3,0,0.3-0.1c0,0,0.1-0.1,0.1-0.2c0,0,0-0.1,0-0.1c0,0,0,0,0-0.1c0,0,0,0-0.1-0.1c0,0-0.1,0-0.1,0c0,0,0,0-0.1,0
		c0,0,0,0,0,0c0,0,0,0,0,0v0V47.8z M324,48.2C324,48.3,324,48.3,324,48.2c0,0.1,0,0.1,0,0.1c0,0,0,0,0,0c0,0,0,0,0.1,0
		c0.1,0,0.1,0,0.2-0.1c0,0,0.1-0.1,0.1-0.2c0,0,0-0.1,0-0.1c0,0,0-0.1-0.1-0.1c0,0-0.1,0-0.1-0.1c0,0-0.1,0-0.1,0H324V48.2z"/>
        <path class="st0" d="M325.8,48L325.8,48v-0.1c0,0,0-0.1,0-0.1c0,0,0,0-0.1,0c0,0,0,0-0.1,0c0,0,0,0,0,0c0,0,0,0,0,0c0,0,0,0,0,0.1
		c0,0,0,0,0,0c0,0,0,0,0,0c0,0,0,0,0,0c0,0,0,0,0,0c0,0,0,0,0,0c0,0,0,0,0,0c0,0,0,0,0.1,0c0.1,0,0.1,0,0.1,0c0,0,0,0,0.1,0
		c0,0,0,0,0.1,0c0,0,0,0,0,0.1c0,0,0,0,0,0.1c0,0,0,0.1,0,0.2c0,0.1,0,0.1,0,0.2c0,0,0,0.1,0,0.1c0,0,0,0,0,0c0,0,0,0,0.1,0l0,0
		c0,0,0,0-0.1,0c0,0-0.1,0-0.1,0c0,0,0,0-0.1,0c0,0,0,0,0-0.1c0,0,0,0,0,0c0,0,0,0-0.1,0c0,0,0,0-0.1,0c0,0,0,0-0.1,0c0,0,0,0-0.1,0
		c0,0,0,0-0.1,0c0,0,0,0,0-0.1c0,0,0,0,0-0.1c0,0,0-0.1,0-0.1c0,0,0.1,0,0.1-0.1c0,0,0.1,0,0.1,0C325.7,48,325.7,48,325.8,48
		 M325.8,48.3C325.8,48.2,325.8,48.2,325.8,48.3l0-0.2c0,0,0,0-0.1,0c0,0,0,0-0.1,0c0,0,0,0-0.1,0c0,0,0,0,0,0c0,0,0,0,0,0.1
		c0,0,0,0.1,0,0.1c0,0,0,0,0.1,0C325.7,48.3,325.7,48.3,325.8,48.3C325.7,48.3,325.8,48.3,325.8,48.3"/>
        <path class="st0" d="M327.2,48.4L327.2,48.4L327.2,48.4c-0.1,0-0.1,0-0.2,0H327c0,0-0.1,0-0.1,0h-0.1l0,0c0,0,0,0,0.1,0
		c0,0,0,0,0,0c0,0,0,0,0,0c0,0,0,0,0-0.1v-0.3c0,0,0,0,0-0.1c0,0,0,0,0,0c0,0,0,0,0,0c0,0,0,0-0.1,0l0,0c0,0,0,0,0.1,0
		c0,0,0,0,0.1,0c0,0,0,0,0.1,0c0,0,0,0,0,0l0,0c0,0,0,0,0,0.1v0.1c0,0,0-0.1,0.1-0.1c0,0,0,0,0.1,0c0,0,0,0,0,0c0,0,0,0,0,0
		c0,0,0,0,0.1,0c0,0,0,0,0,0.1c0,0,0,0,0,0.1c0,0,0,0-0.1,0c0,0,0,0,0,0c0,0,0,0,0,0c0,0,0,0-0.1,0c0,0,0,0,0,0.1c0,0,0,0,0,0v0v0.3
		c0,0,0,0,0,0c0,0,0,0,0,0C327.1,48.4,327.1,48.4,327.2,48.4C327.2,48.4,327.2,48.4,327.2,48.4L327.2,48.4z"/>
        <polygon class="st0" points="328.2,48.1 328.2,48.1 328.6,48.1 328.6,48 328.2,48 	"/>
        <path class="st0" d="M329.9,47.3C329.9,47.3,329.8,47.3,329.9,47.3c-0.1,0-0.1,0-0.1,0c0,0,0,0,0,0c0,0,0,0,0,0.1v0.7
		c0,0,0,0,0,0.1c0,0,0,0,0,0c0,0,0,0,0,0c0,0,0,0,0.1,0h0.1c0,0,0.1,0,0.1,0c0,0,0.1,0,0.1,0c0,0,0,0,0.1-0.1c0,0,0-0.1,0-0.1l0,0
		c0,0,0,0,0,0.1c0,0,0,0,0,0.1c0,0,0,0,0,0.1c0,0,0,0,0,0.1H330h-0.1h-0.1c0,0,0,0-0.1,0h-0.1h0h0c0,0,0,0-0.1,0h-0.1h0l0,0
		c0,0,0.1,0,0.1,0c0,0,0,0,0,0c0,0,0,0,0,0c0,0,0,0,0-0.1v-0.8c0,0,0,0,0,0c0,0,0,0,0,0c0,0,0,0,0,0c0,0,0,0-0.1,0l0,0h0h0.1
		c0,0,0,0,0.1,0h0.1h0C329.8,47.3,329.8,47.3,329.9,47.3L329.9,47.3L329.9,47.3L329.9,47.3z"/>
        <path class="st0" d="M331.1,48.1c0-0.1,0-0.1,0-0.1c0,0,0-0.1,0.1-0.1c0,0,0.1-0.1,0.1-0.1c0,0,0.1,0,0.1,0c0.1,0,0.1,0,0.1,0
		c0,0,0.1,0,0.1,0.1c0,0,0,0.1,0.1,0.1c0,0,0,0.1,0,0.1c0,0.1,0,0.1,0,0.1c0,0,0,0.1-0.1,0.1c0,0-0.1,0.1-0.1,0.1c0,0-0.1,0-0.1,0
		c0,0-0.1,0-0.1,0c0,0-0.1,0-0.1-0.1c0,0-0.1-0.1-0.1-0.1C331.1,48.2,331.1,48.1,331.1,48.1 M331.5,48.4
		C331.5,48.4,331.5,48.4,331.5,48.4c0.1,0,0.1-0.1,0.1-0.1c0,0,0-0.1,0-0.1c0,0,0-0.1,0-0.1c0,0,0-0.1,0-0.1c0,0,0-0.1,0-0.1
		s0-0.1-0.1-0.1c0,0-0.1,0-0.1,0c0,0-0.1,0-0.1,0c0,0,0,0-0.1,0.1c0,0,0,0.1,0,0.1c0,0,0,0.1,0,0.1c0,0,0,0.1,0,0.1c0,0,0,0.1,0,0.1
		C331.3,48.3,331.3,48.3,331.5,48.4C331.4,48.4,331.4,48.4,331.5,48.4"/>
        <path class="st0" d="M333.2,48.4C333.2,48.4,333.2,48.4,333.2,48.4L333.2,48.4c0-0.1-0.1,0-0.1,0c0,0-0.1,0-0.1,0c0,0-0.1,0-0.1,0
		c0,0,0,0-0.1,0c0,0,0,0,0-0.1c0,0,0-0.1,0-0.1v-0.3c0,0,0,0,0,0c0,0,0,0,0,0c0,0,0,0,0,0c0,0,0,0-0.1,0v0c0,0,0,0,0.1,0
		c0,0,0,0,0.1,0c0,0,0,0,0.1,0c0,0,0,0,0,0l0,0c0,0,0,0,0,0.1c0,0,0,0,0,0.1c0,0,0,0,0,0.1c0,0,0,0,0,0v0.2c0,0,0,0.1,0,0.1
		c0,0,0,0,0,0.1c0,0,0,0,0,0c0,0,0,0,0,0C333,48.3,333.1,48.3,333.2,48.4c-0.1-0.1,0-0.1,0-0.1v-0.4c0,0,0,0,0,0c0,0,0,0,0,0
		c0,0,0,0,0,0c0,0,0,0-0.1,0v0c0,0,0,0,0.1,0c0,0,0,0,0.1,0c0,0,0,0,0.1,0c0,0,0,0,0,0l0,0c0,0,0,0,0,0.1c0,0,0,0,0,0.1
		c0,0,0,0,0,0.1c0,0,0,0,0,0v0.3c0,0,0,0,0,0.1c0,0,0,0,0,0c0,0,0,0,0,0c0,0,0,0,0.1,0l0,0c0,0,0,0-0.1,0c0,0,0,0-0.1,0
		C333.3,48.4,333.3,48.4,333.2,48.4C333.2,48.4,333.2,48.4,333.2,48.4L333.2,48.4z"/>
        <path class="st0" d="M334.6,48.4L334.6,48.4c-0.1,0-0.1,0-0.2,0c0,0-0.1,0-0.1,0h-0.1l0,0c0,0,0,0,0.1,0c0,0,0,0,0,0c0,0,0,0,0,0
		c0,0,0,0,0-0.1v-0.3c0,0,0,0,0-0.1c0,0,0,0,0,0c0,0,0,0,0,0c0,0,0,0-0.1,0l0,0c0,0,0,0,0.1,0c0,0,0,0,0.1,0c0,0,0,0,0.1,0
		c0,0,0,0,0,0l0,0c0,0,0,0,0,0c0,0,0,0,0,0c0,0,0.1-0.1,0.1-0.1c0,0,0.1,0,0.1,0c0,0,0.1,0,0.1,0c0,0,0,0,0.1,0c0,0,0,0,0,0.1
		c0,0,0,0.1,0,0.1v0.3c0,0,0,0,0,0c0,0,0,0,0,0c0,0,0,0,0,0c0,0,0,0,0.1,0l0,0H335c0,0-0.1,0-0.1,0c0,0-0.1,0-0.1,0h-0.1l0,0
		c0,0,0,0,0.1,0c0,0,0,0,0,0c0,0,0,0,0,0c0,0,0,0,0-0.1V48c0-0.1,0-0.1,0-0.1c0,0-0.1,0-0.1,0c0,0-0.1,0-0.1,0c0,0-0.1,0-0.1,0v0.4
		c0,0,0,0,0,0C334.5,48.3,334.5,48.3,334.6,48.4C334.5,48.4,334.6,48.4,334.6,48.4C334.6,48.4,334.6,48.4,334.6,48.4L334.6,48.4z"/>
        <path class="st0" d="M336,48c0,0,0-0.1,0-0.1c0,0,0-0.1,0.1-0.1c0,0,0.1,0,0.1-0.1c0,0,0.1,0,0.1,0c0.1,0,0.1,0,0.2,0c0,0,0,0,0,0
		c0,0,0,0,0,0c0,0,0,0,0,0l0.2,0l0,0l0,0.1h-0.2c0,0,0,0.1,0,0.1c0,0,0,0.1,0,0.1c0,0,0,0.1-0.1,0.1c0,0-0.1,0-0.1,0.1
		c0,0-0.1,0-0.1,0c0,0-0.1,0-0.1,0c0,0,0,0,0,0c0,0,0,0,0,0c0,0,0,0,0,0c0,0,0,0,0,0c0,0,0,0,0,0c0,0,0,0,0,0h0.1c0,0,0.1,0,0.1,0
		c0,0,0.1,0,0.1,0c0,0,0.1,0,0.1,0c0,0,0,0,0.1,0.1c0,0,0,0.1,0,0.1c0,0,0,0.1,0,0.1c0,0,0,0.1-0.1,0.1c0,0-0.1,0.1-0.1,0.1
		c-0.1,0-0.1,0-0.2,0c0,0-0.1,0-0.1,0c0,0-0.1,0-0.1,0c0,0-0.1,0-0.1-0.1c0,0,0-0.1,0-0.1c0,0,0-0.1,0-0.1c0,0,0,0,0-0.1
		c0,0,0,0,0.1-0.1c0,0,0,0,0.1,0c0,0-0.1,0-0.1,0c0,0,0,0,0-0.1c0,0,0,0,0,0c0,0,0,0,0,0c0,0,0,0,0,0c0,0,0,0,0,0
		C336,48.2,336,48.1,336,48 M336.3,48.5L336.3,48.5C336.2,48.5,336.2,48.5,336.3,48.5c-0.1,0-0.1,0-0.1,0c0,0,0,0,0,0c0,0,0,0,0,0.1
		c0,0,0,0.1,0,0.1c0,0,0,0.1,0,0.1c0,0,0,0,0.1,0.1c0,0,0,0,0.1,0c0,0,0.1,0,0.1,0c0,0,0.1,0,0.1,0c0,0,0.1,0,0.1,0c0,0,0,0,0.1-0.1
		c0,0,0-0.1,0-0.1c0,0,0-0.1,0-0.1c0,0,0,0-0.1-0.1c0,0,0,0-0.1,0C336.3,48.5,336.3,48.5,336.3,48.5L336.3,48.5z M336.2,48.2
		C336.3,48.2,336.3,48.2,336.2,48.2C336.3,48.2,336.3,48.2,336.2,48.2c0.1-0.1,0.1-0.1,0.1-0.1c0,0,0,0,0-0.1c0,0,0-0.1,0-0.1
		c0,0,0-0.1,0-0.1c0,0,0,0,0-0.1c0,0,0,0-0.1,0c0,0,0,0-0.1,0c0,0,0,0,0,0c0,0,0,0,0,0.1c0,0,0,0,0,0.1c0,0,0,0.1,0,0.1
		c0,0,0,0,0,0.1C336.1,48.2,336.2,48.2,336.2,48.2C336.2,48.2,336.2,48.2,336.2,48.2"/>
        <path class="st0" d="M338,48.3C338,48.3,338,48.3,338,48.3c-0.1,0.1-0.1,0.1-0.1,0.1c0,0,0,0-0.1,0c0,0,0,0,0,0c-0.1,0-0.1,0-0.1,0
		c0,0-0.1,0-0.1-0.1c0,0-0.1-0.1-0.1-0.1c0,0,0-0.1,0-0.1c0-0.1,0-0.1,0-0.1c0,0,0-0.1,0.1-0.1c0,0,0.1-0.1,0.1-0.1c0,0,0.1,0,0.1,0
		c0,0,0.1,0,0.1,0c0,0,0.1,0,0.1,0c0,0,0,0,0.1,0.1c0,0,0,0.1,0,0.1v0v0c0,0,0,0,0,0h-0.4c0,0.1,0,0.1,0,0.1c0,0,0,0.1,0.1,0.1
		c0,0,0,0,0.1,0.1c0,0,0.1,0,0.1,0c0,0,0.1,0,0.1,0C338,48.3,338,48.3,338,48.3L338,48.3z M337.9,48C337.9,48,337.9,48,337.9,48
		C337.9,48,337.9,48,337.9,48C337.9,47.9,337.9,47.9,337.9,48c0-0.1,0-0.1,0-0.1c0,0,0,0,0,0c0,0,0,0-0.1,0c0,0,0,0-0.1,0
		c0,0,0,0,0,0c0,0,0,0,0,0.1c0,0,0,0,0,0.1H337.9z"/>
        <path class="st0" d="M333.6,44h1.6c0.1,0,0.1,0,0.1,0c0,0,0.1-0.1,0.1-0.1v-0.4c0,0,0-0.1-0.1-0.1c0,0-0.1,0-0.1,0h-1.6
		c-0.2,0-0.5,0-0.6,0.1c-0.2,0-0.3,0.1-0.4,0.2c-0.1,0.1-0.2,0.2-0.2,0.3c0,0.1-0.1,0.3-0.1,0.5v1h-0.7v-4.2h-0.8v4.9h2.5l0.2-0.2
		v-1.7c0-0.1,0-0.2,0-0.2C333.5,44,333.5,44,333.6,44"/>
        <path class="st0" d="M338.9,45.4h-1.4v-2.6c0-0.2,0-0.4-0.1-0.5c0-0.1-0.1-0.3-0.2-0.3c-0.1-0.1-0.2-0.2-0.4-0.2
		c-0.2,0-0.4-0.1-0.6-0.1h-3.7c-0.1,0-0.1,0-0.1,0c0,0-0.1,0.1-0.1,0.1v0.4c0,0.1,0,0.1,0.1,0.1c0,0,0.1,0,0.1,0h3.6
		c0.1,0,0.1,0,0.2,0c0,0,0,0.1,0,0.2v3.4c0,0,0,0.1,0.1,0.1c0,0,0.1,0,0.1,0h2.4c0.1,0,0.1,0,0.1,0c0,0,0.1-0.1,0.1-0.1v-0.4
		c0,0,0-0.1-0.1-0.1C339.1,45.4,339,45.4,338.9,45.4"/>
        <rect x="321" y="41.2" class="st0" width="0.8" height="5.7"/>
        <path class="st0" d="M328,41.1c-0.2,0-0.4,0.1-0.6,0.2c-0.1,0.1-0.2,0.1-0.4,0.3c-0.1,0.1-0.3,0.3-0.4,0.5
		c-0.2-0.6-0.6-0.9-1.3-0.9c-0.5,0-0.9,0.2-1.3,0.7v-0.6h-0.8v4.9h0.8v-3.5c0.4-0.5,0.8-0.8,1.2-0.8c0.3,0,0.5,0.1,0.6,0.3
		c0.1,0.2,0.2,0.5,0.2,0.9v3.1h0.8v-3.5c0.4-0.5,0.8-0.8,1.2-0.8c0.3,0,0.5,0.1,0.6,0.3c0.1,0.2,0.2,0.5,0.2,0.9v3.1h0.8v-3.2
		C329.5,41.7,329,41.1,328,41.1"/>
        <rect x="330.7" y="39.3" class="st0" width="0.8" height="0.9"/>
        <polygon class="st0" points="318.4,43 320.2,41.2 319.2,41.2 317.3,43.2 317.3,40.3 317.3,40.3 317.3,39.4 317.3,39.4 317.1,39.4
		316.5,39.4 316.5,46.1 317.3,46.1 317.3,44.1 317.9,43.6 319.4,46.1 320.4,46.1 	"/>
        <rect x="321.9" y="39.3" class="st0" width="8.1" height="0.9"/>
        <path class="st0" d="M311.3,43.2h-1.7c-0.3,0-0.5,0-0.7,0.1c-0.2,0-0.3,0.1-0.4,0.2c-0.1,0.1-0.2,0.2-0.2,0.4
		c-0.1,0.1-0.1,0.3-0.1,0.6v1h-1.3c-0.1,0-0.1,0-0.1,0c0,0-0.1,0.1-0.1,0.1v0.4c0,0,0,0.1,0.1,0.1c0,0,0.1,0.1,0.1,0.1h2.3l0.2-0.2
		v-1.7c0-0.1,0-0.2,0-0.2c0,0,0.1-0.1,0.2-0.1h1.6c0.1,0,0.1,0,0.1,0c0,0,0.1-0.1,0.1-0.1v-0.4c0,0,0-0.1-0.1-0.1
		C311.4,43.2,311.3,43.2,311.3,43.2"/>
        <path class="st0" d="M314.4,39.3v6h-0.8v-2.7c0-0.2,0-0.4-0.1-0.6c0-0.1-0.1-0.3-0.2-0.4c-0.1-0.1-0.3-0.2-0.4-0.2
		c-0.2,0-0.4-0.1-0.7-0.1h-3.7c-0.1,0-0.1,0-0.1,0c0,0-0.1,0.1-0.1,0.1V42c0,0,0,0.1,0.1,0.1c0,0,0.1,0.1,0.1,0.1h3.7
		c0.1,0,0.1,0,0.2,0c0,0,0,0.1,0,0.2v3.5c0,0,0,0.1,0.1,0.1c0,0,0.1,0,0.1,0h2.6v-6.7H314.4z"/>
        <path class="st0" d="M349.7,57.3h41.1V14.7h-41.1V57.3z M350.4,15.5h39.7v41.1h-39.7V15.5z"/>
        <path class="st0" d="M255,57.3h41.1V14.7H255V57.3z M255.8,15.5h39.7v41.1h-39.7V15.5z"/>
        <path class="st0" d="M233.1,17.4c0,0-5.3,0.7-5.5,12c-0.2,11.3-3.9,17.8-7.7,17.7l-0.3,0.5c0,0,0.8,0.1,0.9,0.5c0,0,8.3-1.6,9-18.1
		C229.5,29.9,229,19.9,233.1,17.4"/>
        <path class="st0" d="M232.9,28.5c0,0.3-0.3,0.6-0.6,0.6h-1.6c-0.3,0-0.6-0.3-0.6-0.6c0-0.3,0.3-0.6,0.6-0.6h1.6
		C232.7,27.9,232.9,28.2,232.9,28.5"/>
        <path class="st0" d="M232.9,30c0,0.3-0.3,0.6-0.6,0.6h-1.6c-0.3,0-0.6-0.3-0.6-0.6c0-0.3,0.3-0.6,0.6-0.6h1.6
		C232.6,29.5,232.9,29.7,232.9,30"/>
        <path class="st0" d="M232.8,31.6c0,0.3-0.3,0.6-0.6,0.6h-1.6c-0.3,0-0.6-0.3-0.6-0.6c0-0.3,0.3-0.6,0.6-0.6h1.6
		C232.5,31,232.8,31.3,232.8,31.6"/>
        <path class="st0" d="M232.4,33.2c0,0.3-0.3,0.6-0.6,0.6h-1.6c-0.3,0-0.6-0.3-0.6-0.6c0-0.3,0.2-0.6,0.6-0.6h1.6
		C232.1,32.6,232.4,32.9,232.4,33.2"/>
        <polygon class="st0" points="211.5,52.9 211.3,52.9 211.3,54.7 212.4,54.7 212.4,54.4 211.5,54.4 	"/>
        <path class="st0" d="M215.1,54.6L215.1,54.6l-0.1,0c-0.1,0-0.2-0.1-0.2-0.2c-0.1,0.1-0.1,0.1-0.2,0.2c-0.1,0-0.1,0-0.2,0
		c-0.1,0-0.2,0-0.3-0.1c-0.1-0.1-0.1-0.2-0.1-0.3c0-0.1,0-0.2,0.1-0.2c0-0.1,0.1-0.1,0.2-0.1l0.1,0l0.1,0c0.2,0,0.3,0,0.3-0.1
		c0,0,0.1-0.1,0.1-0.1c0-0.1-0.1-0.2-0.3-0.2c-0.2,0-0.2,0.1-0.3,0.2H214c0-0.1,0-0.2,0.1-0.3c0.1-0.1,0.2-0.1,0.4-0.1
		c0.1,0,0.2,0,0.3,0.1c0.1,0.1,0.1,0.1,0.1,0.3v0.7c0,0.1,0,0.1,0.1,0.1l0.1,0V54.6z M214.7,54L214.7,54c0,0-0.1,0-0.1,0l-0.2,0
		c-0.2,0-0.2,0.1-0.2,0.2c0,0.1,0.1,0.2,0.2,0.2c0.1,0,0.1,0,0.2,0c0.1,0,0.1-0.1,0.1-0.1c0,0,0-0.1,0-0.1v0v0V54z"/>
        <polygon class="st0" points="220.2,53.2 219.3,53.2 219.3,53.6 220.1,53.6 220.1,53.9 219.3,53.9 219.3,54.7 219,54.7 219,52.9
		220.2,52.9 	"/>
        <path class="st0" d="M223.2,54c0,0.2-0.1,0.4-0.2,0.5c-0.1,0.1-0.3,0.2-0.5,0.2c-0.2,0-0.4-0.1-0.5-0.2c-0.1-0.1-0.2-0.3-0.2-0.5
		c0-0.2,0.1-0.4,0.2-0.5c0.1-0.1,0.3-0.2,0.5-0.2c0.2,0,0.4,0.1,0.5,0.2C223.1,53.6,223.2,53.7,223.2,54 M222.8,54
		c0-0.3-0.1-0.4-0.3-0.4h0c-0.1,0-0.2,0-0.2,0.1c0,0.1-0.1,0.2-0.1,0.3c0,0.1,0,0.2,0.1,0.3c0.1,0.1,0.1,0.1,0.2,0.1
		c0.1,0,0.2,0,0.2-0.1C222.8,54.2,222.8,54.1,222.8,54"/>
        <path class="st0" d="M223.2,54c0,0.2-0.1,0.4-0.2,0.5c-0.1,0.1-0.3,0.2-0.5,0.2c-0.2,0-0.4-0.1-0.5-0.2c-0.1-0.1-0.2-0.3-0.2-0.5
		c0-0.2,0.1-0.4,0.2-0.5c0.1-0.1,0.3-0.2,0.5-0.2c0.2,0,0.4,0.1,0.5,0.2C223.1,53.6,223.2,53.7,223.2,54 M222.8,54
		c0-0.3-0.1-0.4-0.3-0.4h0c-0.1,0-0.2,0-0.2,0.1c0,0.1-0.1,0.2-0.1,0.3c0,0.1,0,0.2,0.1,0.3c0.1,0.1,0.1,0.1,0.2,0.1
		c0.1,0,0.2,0,0.2-0.1C222.8,54.2,222.8,54.1,222.8,54"/>
        <path class="st0" d="M226.1,54.6h-0.3v-0.2c-0.1,0.2-0.2,0.2-0.4,0.2c-0.1,0-0.2,0-0.2-0.1c-0.1,0-0.1-0.1-0.1-0.2
		c0-0.1-0.1-0.2-0.1-0.3v0v-0.9h0.3v0.8c0,0.2,0.1,0.2,0.2,0.2c0.1,0,0.1,0,0.2-0.1c0.1,0,0.1-0.1,0.1-0.2v0v-0.8h0.3V54.6z"/>
        <path class="st0" d="M226.1,54.6h-0.3v-0.2c-0.1,0.2-0.2,0.2-0.4,0.2c-0.1,0-0.2,0-0.2-0.1c-0.1,0-0.1-0.1-0.1-0.2
		c0-0.1-0.1-0.2-0.1-0.3v0v-0.9h0.3v0.8c0,0.2,0.1,0.2,0.2,0.2c0.1,0,0.1,0,0.2-0.1c0.1,0,0.1-0.1,0.1-0.2v0v-0.8h0.3V54.6z"/>
        <path class="st0"
              d="M228.6,53.6L228.6,53.6c-0.3,0-0.4,0.1-0.4,0.3v0.7h-0.3v-1.4h0.3v0.2c0.1-0.2,0.2-0.3,0.3-0.3h0.1V53.6z"/>
        <path class="st0"
              d="M228.6,53.6L228.6,53.6c-0.3,0-0.4,0.1-0.4,0.3v0.7h-0.3v-1.4h0.3v0.2c0.1-0.2,0.2-0.3,0.3-0.3h0.1V53.6z"/>
        <path class="st0" d="M231.4,53.7H231c0-0.1-0.1-0.2-0.2-0.2c-0.1,0-0.2,0-0.2,0.1c0,0.1-0.1,0.2-0.1,0.3c0,0.3,0.1,0.4,0.3,0.4
		c0.1,0,0.1,0,0.2-0.1c0,0,0.1-0.1,0.1-0.2h0.3c0,0.2-0.1,0.3-0.2,0.4c-0.1,0.1-0.2,0.1-0.4,0.1c-0.2,0-0.3-0.1-0.5-0.2
		c-0.1-0.1-0.2-0.3-0.2-0.5c0-0.2,0.1-0.4,0.2-0.6c0.1-0.1,0.3-0.2,0.5-0.2c0.2,0,0.3,0,0.4,0.1C231.3,53.4,231.4,53.6,231.4,53.7"
        />
        <path class="st0" d="M234.1,54.6h-0.3v-0.8v0c0-0.1,0-0.1-0.1-0.1c0,0-0.1-0.1-0.2-0.1c-0.1,0-0.1,0-0.2,0.1
		c-0.1,0.1-0.1,0.1-0.1,0.2v0.8h-0.3v-1.8h0.3v0.6c0.1-0.1,0.2-0.2,0.4-0.2c0.1,0,0.2,0,0.3,0.1c0.1,0.1,0.1,0.2,0.1,0.3v0V54.6z"/>
        <path class="st0" d="M237.1,54h-0.9l0,0c0,0.2,0.1,0.3,0.3,0.3c0.1,0,0.2,0,0.2-0.1h0.4c0,0.1-0.1,0.2-0.2,0.3
		c-0.1,0.1-0.2,0.1-0.4,0.1c-0.2,0-0.4-0.1-0.5-0.2c-0.1-0.1-0.2-0.3-0.2-0.5c0-0.2,0.1-0.4,0.2-0.5c0.1-0.1,0.3-0.2,0.5-0.2
		c0.2,0,0.4,0.1,0.5,0.2C237,53.5,237.1,53.7,237.1,54L237.1,54z M236.7,53.8c0-0.2-0.1-0.3-0.3-0.3c-0.1,0-0.2,0.1-0.3,0.3H236.7z"
        />
        <path class="st0" d="M237.1,54h-0.9l0,0c0,0.2,0.1,0.3,0.3,0.3c0.1,0,0.2,0,0.2-0.1h0.4c0,0.1-0.1,0.2-0.2,0.3
		c-0.1,0.1-0.2,0.1-0.4,0.1c-0.2,0-0.4-0.1-0.5-0.2c-0.1-0.1-0.2-0.3-0.2-0.5c0-0.2,0.1-0.4,0.2-0.5c0.1-0.1,0.3-0.2,0.5-0.2
		c0.2,0,0.4,0.1,0.5,0.2C237,53.5,237.1,53.7,237.1,54L237.1,54z M236.7,53.8c0-0.2-0.1-0.3-0.3-0.3c-0.1,0-0.2,0.1-0.3,0.3H236.7z"
        />
        <path class="st0" d="M239.4,54.6l-0.2,0c-0.2,0-0.4-0.1-0.4-0.2v0v-0.8h-0.2v-0.3h0.2v-0.4h0.3v0.4h0.2v0.3h-0.2v0.8
		c0,0.1,0,0.1,0.1,0.1h0.1V54.6z"/>
        <path class="st0" d="M241.8,54.6l-0.2,0c-0.2,0-0.4-0.1-0.4-0.2v0v-0.8H241v-0.3h0.2v-0.4h0.3v0.4h0.2v0.3h-0.2v0.8
		c0,0.1,0,0.1,0.1,0.1h0.1V54.6z"/>
        <path class="st0" d="M244.7,54h-0.9l0,0c0,0.2,0.1,0.3,0.3,0.3c0.1,0,0.2,0,0.2-0.1h0.4c0,0.1-0.1,0.2-0.2,0.3
		c-0.1,0.1-0.2,0.1-0.4,0.1c-0.2,0-0.4-0.1-0.5-0.2c-0.1-0.1-0.2-0.3-0.2-0.5c0-0.2,0.1-0.4,0.2-0.5c0.1-0.1,0.3-0.2,0.5-0.2
		c0.2,0,0.4,0.1,0.5,0.2C244.6,53.5,244.7,53.7,244.7,54L244.7,54z M244.3,53.8c0-0.2-0.1-0.3-0.3-0.3c-0.1,0-0.2,0.1-0.3,0.3H244.3
		z"/>
        <path class="st0" d="M244.7,54h-0.9l0,0c0,0.2,0.1,0.3,0.3,0.3c0.1,0,0.2,0,0.2-0.1h0.4c0,0.1-0.1,0.2-0.2,0.3
		c-0.1,0.1-0.2,0.1-0.4,0.1c-0.2,0-0.4-0.1-0.5-0.2c-0.1-0.1-0.2-0.3-0.2-0.5c0-0.2,0.1-0.4,0.2-0.5c0.1-0.1,0.3-0.2,0.5-0.2
		c0.2,0,0.4,0.1,0.5,0.2C244.6,53.5,244.7,53.7,244.7,54L244.7,54z M244.3,53.8c0-0.2-0.1-0.3-0.3-0.3c-0.1,0-0.2,0.1-0.3,0.3H244.3
		z"/>
        <path class="st0" d="M207.6,57.3h41.2V14.7h-41.2V57.3z M208.3,15.5H248v41h-39.6V15.5z"/>
        <polygon class="st0" points="353.3,49.1 352.4,49.1 352.4,47.4 352.1,47.4 352.1,49.3 353.3,49.3 	"/>
        <path class="st0" d="M355.1,48.4h0.2c0-0.2,0.1-0.2,0.3-0.2c0.2,0,0.3,0.1,0.3,0.2c0,0.1,0,0.1-0.1,0.1c0,0-0.1,0-0.3,0.1l-0.1,0
		l-0.1,0c-0.1,0-0.2,0.1-0.2,0.1c0,0.1-0.1,0.1-0.1,0.2c0,0.1,0,0.2,0.1,0.3c0.1,0.1,0.2,0.1,0.3,0.1c0.1,0,0.2,0,0.2,0
		c0.1,0,0.1-0.1,0.2-0.2c0,0.1,0.1,0.2,0.2,0.2l0.1,0l0.1,0v-0.2l-0.1,0c0,0-0.1,0-0.1-0.1v-0.7c0-0.1,0-0.2-0.1-0.3
		c-0.1-0.1-0.2-0.1-0.4-0.1c-0.2,0-0.3,0-0.4,0.1C355.1,48.1,355.1,48.2,355.1,48.4 M355.9,48.8L355.9,48.8L355.9,48.8
		c0,0.1,0,0.1,0,0.2c0,0.1-0.1,0.1-0.2,0.1c-0.1,0-0.1,0.1-0.2,0.1c-0.2,0-0.2-0.1-0.2-0.2c0-0.1,0.1-0.2,0.3-0.2l0.2,0
		c0.1,0,0.1,0,0.1,0l0,0V48.8z"/>
        <polygon class="st0" points="360.5,49.3 360.9,49.3 360.9,48.5 361.7,48.5 361.7,48.2 360.9,48.2 360.9,47.8 361.8,47.8
		361.8,47.4 360.5,47.4 	"/>
        <path class="st0" d="M364.3,47.8c-0.2,0-0.4,0.1-0.5,0.2c-0.1,0.1-0.2,0.3-0.2,0.5c0,0.2,0.1,0.4,0.2,0.5c0.1,0.1,0.3,0.2,0.5,0.2
		c0.2,0,0.4-0.1,0.5-0.2c0.1-0.1,0.2-0.3,0.2-0.5c0-0.2-0.1-0.4-0.2-0.5C364.7,47.9,364.6,47.8,364.3,47.8 M364.6,48.9
		c-0.1,0.1-0.1,0.1-0.3,0.1c-0.1,0-0.2,0-0.2-0.1c-0.1-0.1-0.1-0.2-0.1-0.3c0-0.1,0-0.2,0.1-0.3c0.1-0.1,0.1-0.1,0.2-0.1h0
		c0.2,0,0.3,0.1,0.3,0.4C364.7,48.7,364.6,48.8,364.6,48.9"/>
        <path class="st0" d="M367.8,48.7L367.8,48.7c0,0.1,0,0.2-0.1,0.2c-0.1,0.1-0.1,0.1-0.2,0.1c-0.2,0-0.2-0.1-0.2-0.3v-0.9h-0.4v0.9v0
		c0,0.1,0,0.2,0.1,0.3c0,0.1,0.1,0.1,0.2,0.2c0.1,0,0.2,0.1,0.2,0.1c0.2,0,0.4-0.1,0.4-0.2v0.2h0.4v-1.4h-0.4V48.7z"/>
        <path class="st0"
              d="M370.5,48.1v-0.2h-0.4v1.4h0.4v-0.8c0-0.2,0.1-0.3,0.4-0.3l0.1,0v-0.4h-0.1C370.7,47.8,370.6,47.9,370.5,48.1"
        />
        <path class="st0" d="M373.3,48.1c0.1,0,0.2,0.1,0.2,0.2h0.4c0-0.2-0.1-0.3-0.2-0.4c-0.1-0.1-0.3-0.1-0.5-0.1
		c-0.2,0-0.4,0.1-0.5,0.2c-0.1,0.1-0.2,0.3-0.2,0.6c0,0.2,0.1,0.4,0.2,0.5c0.1,0.1,0.3,0.2,0.5,0.2c0.2,0,0.3-0.1,0.4-0.2
		c0.1-0.1,0.2-0.2,0.2-0.4h-0.4c0,0.1,0,0.1-0.1,0.2c0,0-0.1,0.1-0.2,0.1c-0.2,0-0.3-0.1-0.3-0.4c0-0.1,0-0.2,0.1-0.3
		C373.2,48.1,373.2,48.1,373.3,48.1"/>
        <path class="st0" d="M376.6,49.3h0.4v-1v0c0-0.1,0-0.2-0.1-0.3c-0.1-0.1-0.2-0.1-0.3-0.1c-0.2,0-0.3,0.1-0.4,0.2v-0.7h-0.4v1.9h0.4
		v-0.8c0-0.1,0-0.2,0.1-0.2c0.1-0.1,0.1-0.1,0.2-0.1c0.1,0,0.1,0,0.2,0.1c0,0,0.1,0.1,0.1,0.2v0V49.3z"/>
        <path class="st0" d="M379.5,47.8c-0.2,0-0.4,0.1-0.5,0.2c-0.1,0.1-0.2,0.3-0.2,0.5c0,0.2,0.1,0.4,0.2,0.6c0.1,0.1,0.3,0.2,0.5,0.2
		c0.2,0,0.3,0,0.4-0.1c0.1-0.1,0.2-0.2,0.2-0.3h-0.4c0,0.1-0.1,0.1-0.2,0.1c-0.2,0-0.3-0.1-0.3-0.3l0,0h1v-0.1
		c0-0.3-0.1-0.5-0.2-0.6C379.9,47.9,379.7,47.8,379.5,47.8 M379.2,48.4c0-0.2,0.1-0.3,0.3-0.3c0.2,0,0.3,0.1,0.3,0.3H379.2z"/>
        <path class="st0" d="M382.7,48.1v-0.3h-0.2v-0.4h-0.4v0.4h-0.2v0.3h0.2V49v0c0,0.2,0.1,0.3,0.4,0.3l0.2,0V49h-0.1
		c-0.1,0-0.1,0-0.1-0.1v-0.8H382.7z"/>
        <path class="st0" d="M385.3,49h-0.1c-0.1,0-0.1,0-0.1-0.1v-0.8h0.2v-0.3H385v-0.4h-0.4v0.4h-0.2v0.3h0.2V49v0
		c0,0.2,0.1,0.3,0.4,0.3l0.2,0V49z"/>
        <path class="st0" d="M387.8,49.3c0.2,0,0.3,0,0.4-0.1c0.1-0.1,0.2-0.2,0.2-0.3H388c0,0.1-0.1,0.1-0.2,0.1c-0.2,0-0.3-0.1-0.3-0.3
		l0,0h1v-0.1c0-0.3-0.1-0.5-0.2-0.6c-0.1-0.1-0.3-0.2-0.5-0.2c-0.2,0-0.4,0.1-0.5,0.2c-0.1,0.1-0.2,0.3-0.2,0.5
		c0,0.2,0.1,0.4,0.2,0.6C387.4,49.2,387.5,49.3,387.8,49.3 M387.7,48.1c0.2,0,0.3,0.1,0.3,0.3h-0.6
		C387.5,48.2,387.6,48.1,387.7,48.1"/>
        <path class="st0" d="M386,31.9h0.5c0.3,0,0.6-0.3,0.6-0.6c0-0.3-0.3-0.6-0.6-0.6H386c-0.3,0-0.6,0.3-0.6,0.6
		C385.5,31.7,385.7,31.9,386,31.9"/>
        <path class="st0" d="M353.8,31.9h1c0.3,0,0.6-0.3,0.6-0.6c0-0.3-0.3-0.6-0.6-0.6h-1c-0.3,0-0.6,0.3-0.6,0.6
		C353.2,31.7,353.5,31.9,353.8,31.9"/>
        <path class="st0" d="M357.2,31.9h2.1v0h21.3v0h3c0.3,0,0.6-0.3,0.6-0.6s-0.3-0.6-0.6-0.6h-3c-0.3-5.4-4.7-9.7-10.1-10v-0.9
		c0-0.3-0.3-0.6-0.6-0.6c-0.3,0-0.6,0.3-0.6,0.6v0.9c-5.4,0.3-9.8,4.6-10.1,10h-2.1c-0.3,0-0.6,0.3-0.6,0.6S356.9,31.9,357.2,31.9
		 M369.9,21.9c5,0,9.2,3.9,9.5,8.9h-19C360.8,25.9,364.9,21.9,369.9,21.9"/>
        <path class="st0" d="M372.7,38.3l2.9-2.6c0.8-0.7,2-0.7,2.7,0l7.3,6.9c0.1,0.1,0.3,0.2,0.4,0.2c0.2,0,0.3-0.1,0.4-0.2
		c0.2-0.2,0.2-0.6,0-0.8l-7.3-6.9c-0.7-0.6-1.6-0.9-2.4-0.9h-6.5c-0.3,0-0.6,0.3-0.6,0.6c0,0.3,0.3,0.6,0.6,0.6h4.3l-2.5,2.2
		c-0.7,0.6-1.6,0.7-2.4,0.2l-5.6-3.4c-0.3-0.2-0.6-0.1-0.8,0.2c-0.2,0.3-0.1,0.6,0.2,0.8l5.6,3.4C370.1,39.3,371.6,39.2,372.7,38.3"
        />
        <path class="st0" d="M376.3,50.6h-1.9c0,0,0,0,0,0c0,0,0,0,0,0v0.2c0,0,0,0,0,0c0,0,0,0,0,0h0.7c0,0,0,0,0,0c0,0,0,0,0,0v3.2
		c0,0,0,0,0,0c0,0,0,0,0,0h0.2c0,0,0,0,0,0c0,0,0,0,0,0V51c0,0,0,0,0,0c0,0,0,0,0,0h0.7c0,0,0,0,0,0c0,0,0,0,0,0L376.3,50.6
		C376.3,50.6,376.3,50.6,376.3,50.6C376.3,50.6,376.3,50.6,376.3,50.6"/>
        <path class="st0" d="M377.6,52.1L377.6,52.1c-0.3,0-0.5,0.1-0.7,0.3c-0.2,0.2-0.3,0.4-0.3,0.7v1c0,0,0,0,0,0c0,0,0,0,0,0h0.2
		c0,0,0,0,0,0c0,0,0,0,0,0v-0.3h0v-0.1v-0.3v-0.2v-0.2c0-0.2,0.1-0.4,0.2-0.5c0.1-0.1,0.3-0.2,0.5-0.3c0,0,0,0,0,0c0,0,0,0,0,0
		L377.6,52.1C377.7,52.2,377.7,52.2,377.6,52.1C377.7,52.1,377.6,52.1,377.6,52.1"/>
        <path class="st0" d="M379.1,52.1L379.1,52.1c-0.1,0-0.2,0-0.3,0c-0.1,0-0.2,0.1-0.3,0.1c-0.2,0.1-0.3,0.2-0.4,0.4
		c-0.1,0.2-0.1,0.3-0.1,0.5v0c0,0.3,0.1,0.5,0.3,0.7c0.2,0.2,0.5,0.3,0.7,0.3h1c0,0,0,0,0,0c0,0,0,0,0,0v-1c0-0.3-0.1-0.5-0.3-0.7
		C379.6,52.3,379.4,52.2,379.1,52.1 M379.8,53.9C379.8,53.9,379.8,53.9,379.8,53.9C379.8,54,379.8,54,379.8,53.9l-0.7,0
		c-0.2,0-0.4-0.1-0.5-0.2c-0.1-0.1-0.2-0.3-0.2-0.5v0c0-0.2,0.1-0.4,0.2-0.5c0.1-0.1,0.3-0.2,0.5-0.2h0c0.2,0,0.4,0.1,0.5,0.2
		c0.1,0.1,0.2,0.3,0.2,0.5V53.9z"/>
        <path class="st0" d="M380.8,51.4c-0.1,0-0.1,0-0.1,0.1c0,0-0.1,0.1-0.1,0.1v0.1v0.1h0.1h0.1c0.1,0,0.1,0,0.1-0.1
		c0,0,0.1-0.1,0.1-0.1s0-0.1-0.1-0.1C380.9,51.4,380.8,51.4,380.8,51.4"/>
        <path class="st0" d="M380.8,52.1h-0.2c0,0,0,0,0,0c0,0,0,0,0,0v1v1c0,0,0,0,0,0c0,0,0,0,0,0h0.2c0,0,0,0,0,0c0,0,0,0,0,0v-0.5v-1.1
		v0v-0.1L380.8,52.1C380.9,52.1,380.9,52.1,380.8,52.1C380.8,52.1,380.8,52.1,380.8,52.1"/>
        <path class="st0" d="M382.7,53.9c-0.2,0-0.4-0.1-0.5-0.2c-0.1-0.1-0.2-0.3-0.2-0.5v-0.5v0v-0.1v-0.5h0.4c0,0,0.1,0,0.1-0.1
		c0,0,0-0.1,0-0.1v-0.1v-0.1h-0.1h-0.1h0c0,0,0,0,0,0h-0.4v-1.1c0,0,0-0.1,0-0.1c0,0-0.1,0-0.1,0h-0.1v0.2v0v1h-0.3c0,0,0,0,0,0
		s0,0,0,0c0,0-0.1,0-0.1,0.1c0,0,0,0.1,0,0.1v0.2h0h0.1h0h0.4v1.1c0,0.3,0.1,0.5,0.3,0.7c0.2,0.2,0.4,0.3,0.7,0.3h0.1c0,0,0,0,0,0
		c0,0,0,0,0,0v-0.1c0,0,0-0.1,0-0.1C382.8,54,382.7,53.9,382.7,53.9"/>
        <path class="st0" d="M384.8,52.4C384.8,52.4,384.8,52.4,384.8,52.4c-0.1-0.1-0.1-0.1-0.1-0.1l0,0c-0.2-0.1-0.4-0.2-0.6-0.2
		c-0.1,0-0.1,0-0.2,0c-0.3,0-0.5,0.2-0.7,0.4c-0.2,0.2-0.2,0.4-0.2,0.7v0.1c0,0.3,0.1,0.5,0.4,0.7c0.2,0.2,0.4,0.3,0.7,0.3h0
		c0.2,0,0.5-0.1,0.7-0.2c0,0,0,0,0,0c0,0,0,0,0,0c0,0-0.1,0-0.1-0.1c0,0,0,0-0.1-0.1l0,0l0,0c0,0,0,0,0,0s0,0,0,0
		c-0.1,0.1-0.3,0.1-0.4,0.1c-0.2,0-0.3-0.1-0.5-0.2C384.2,53.2,384.6,52.8,384.8,52.4C384.8,52.5,384.9,52.5,384.8,52.4L384.8,52.4
		C384.9,52.5,384.8,52.5,384.8,52.4L384.8,52.4z M384.4,52.5C384.4,52.5,384.4,52.6,384.4,52.5c-0.4,0.5-0.8,0.8-1,1c0,0,0,0,0,0h0
		c0,0,0,0,0,0c0-0.1-0.1-0.2-0.1-0.3c0,0,0-0.1,0-0.1c0-0.2,0.1-0.3,0.2-0.4c0.1-0.1,0.3-0.2,0.4-0.2c0.1,0,0.1,0,0.2,0
		C384.2,52.4,384.3,52.4,384.4,52.5C384.4,52.5,384.4,52.5,384.4,52.5C384.4,52.5,384.4,52.5,384.4,52.5"/>
        <path class="st0" d="M387,52.1h-0.2c0,0,0,0,0,0c0,0,0,0,0,0v0.3v0.1v0.3V53v0.2c0,0.2-0.1,0.4-0.2,0.5c-0.1,0.2-0.3,0.2-0.5,0.2
		c-0.2,0-0.3-0.1-0.5-0.2c-0.1-0.2-0.2-0.3-0.2-0.5v0v0v0v0v-0.7v-0.3c0,0,0,0,0,0s0,0,0,0c-0.1,0-0.1,0-0.2,0c0,0,0,0,0,0
		c0,0,0,0,0,0v1c0,0.3,0.1,0.5,0.3,0.8c0.2,0.2,0.4,0.3,0.7,0.3c0.3,0,0.5-0.1,0.7-0.3c0.2-0.2,0.3-0.5,0.3-0.8L387,52.1
		C387.1,52.2,387.1,52.2,387,52.1C387,52.1,387,52.1,387,52.1"/>
        <path class="st0" d="M388.4,52.1L388.4,52.1c-0.3,0-0.5,0.1-0.7,0.3c-0.2,0.2-0.3,0.4-0.3,0.7v1c0,0,0,0,0,0c0,0,0,0,0,0h0.2
		c0,0,0,0,0,0c0,0,0,0,0,0v-0.3h0v-0.1v-0.3v-0.2v-0.2c0-0.2,0.1-0.4,0.2-0.5c0.1-0.1,0.3-0.2,0.5-0.3c0,0,0,0,0,0c0,0,0,0,0,0
		L388.4,52.1C388.4,52.2,388.4,52.2,388.4,52.1C388.4,52.1,388.4,52.1,388.4,52.1"/>
        <path class="st0" d="M11.5,10.6c1,0,1.9,0.3,2.6,0.8s1.1,1.3,1.3,2.3h-0.9c-0.1-0.6-0.4-1.2-0.9-1.6c-0.6-0.5-1.3-0.7-2.1-0.7
		c-0.7,0-1.3,0.2-1.9,0.5c-0.5,0.3-0.9,0.8-1.2,1.5C8.1,13.9,8,14.6,8,15.4c0,1.2,0.3,2.2,1,3c0.6,0.8,1.5,1.1,2.6,1.1
		c1,0,1.8-0.3,2.3-0.9c0.6-0.6,0.9-1.4,0.9-2.4v-0.1h-3.2v-0.8h4v4.7h-0.6l-0.1-1.7h0c-0.3,0.6-0.7,1.1-1.3,1.4
		c-0.6,0.3-1.2,0.5-2,0.5c-1.3,0-2.4-0.4-3.2-1.4c-0.8-0.9-1.2-2.1-1.2-3.5c0-0.9,0.2-1.8,0.5-2.5s0.9-1.3,1.5-1.7
		C9.8,10.8,10.6,10.6,11.5,10.6"/>
        <path class="st0" d="M31.9,15.2c0.5,0,1-0.2,1.4-0.5c0.4-0.3,0.6-0.8,0.6-1.3c0-0.6-0.2-1.1-0.5-1.4s-0.8-0.5-1.5-0.5h-3.3v3.7
		H31.9z M31.9,10.8c0.9,0,1.5,0.2,2.1,0.6c0.5,0.4,0.8,1,0.8,1.8c0,0.6-0.2,1.1-0.5,1.6c-0.3,0.4-0.8,0.7-1.3,0.8v0
		c0.5,0.1,0.9,0.3,1.2,0.6c0.3,0.3,0.4,0.9,0.4,1.7l0,0.5c0,0.8,0.2,1.3,0.4,1.6h-1c-0.1-0.2-0.2-0.8-0.3-1.7
		c-0.1-0.9-0.2-1.5-0.5-1.9c-0.3-0.4-0.7-0.5-1.2-0.5h-3.5v4.1h-0.9v-9.3H31.9z"/>
        <path class="st0" d="M47.2,15.4c0,1.2,0.3,2.2,1,3s1.5,1.1,2.6,1.1c1.1,0,1.9-0.4,2.5-1.1s1-1.7,1-3s-0.3-2.2-1-3
		c-0.6-0.8-1.5-1.1-2.6-1.1c-1.1,0-1.9,0.4-2.6,1.1C47.5,13.2,47.2,14.2,47.2,15.4 M50.7,10.6c0.9,0,1.6,0.2,2.3,0.6
		c0.7,0.4,1.2,1,1.5,1.7c0.4,0.7,0.5,1.6,0.5,2.5c0,1.4-0.4,2.6-1.2,3.5c-0.8,0.9-1.9,1.3-3.2,1.3c-1.3,0-2.4-0.5-3.2-1.4
		c-0.8-0.9-1.2-2.1-1.2-3.5c0-1.5,0.4-2.6,1.2-3.5C48.3,11,49.4,10.6,50.7,10.6"/>
        <path class="st0" d="M67.7,10.8v5.8c0,1,0.2,1.8,0.7,2.3c0.5,0.5,1.1,0.7,2,0.7c0.9,0,1.6-0.2,2.1-0.7c0.4-0.5,0.7-1.2,0.7-2.3
		v-5.8h0.9v5.9c0,1.1-0.3,2-1,2.7c-0.6,0.6-1.5,0.9-2.7,0.9c-1.1,0-2-0.3-2.7-0.9c-0.6-0.6-0.9-1.5-0.9-2.6v-5.9H67.7z"/>
        <path class="st0" d="M90.3,15.3c0.6,0,1.1-0.2,1.5-0.5s0.6-0.8,0.6-1.4c0-0.6-0.2-1-0.5-1.4c-0.3-0.3-0.9-0.5-1.6-0.5h-3v3.8H90.3z
		 M90.4,10.8c0.9,0,1.5,0.2,2,0.7c0.5,0.5,0.7,1.1,0.7,1.9c0,0.8-0.2,1.5-0.7,2c-0.5,0.5-1.2,0.7-2,0.7h-3.3v4h-0.9v-9.3H90.4z"/>
        <polygon class="st0" points="111.4,10.8 111.4,11.5 105.9,11.5 105.9,14.9 111,14.9 111,15.6 105.9,15.6 105.9,19.3 111.5,19.3
		111.5,20.1 105,20.1 105,10.8 	"/>
        <polygon class="st0" points="12.2,28 12.2,42.4 20.8,42.4 20.8,45.7 8.3,45.7 8.3,28 	"/>
        <path class="st0" d="M28.1,42c0,1.1,0.7,1.6,2.2,1.6c1.9,0,2.8-1,2.8-2.9v-1.4c-0.3,0.3-1,0.5-2.1,0.6c-1,0.1-1.7,0.3-2.2,0.6
		C28.3,40.9,28.1,41.4,28.1,42 M31,32.5c3.7,0,5.6,1.2,5.6,3.6v6.8c0,1.3,0.1,2.2,0.4,2.7h-3.6c-0.1-0.4-0.2-0.8-0.2-1.2
		c-1,1.1-2.5,1.6-4.3,1.6c-1.3,0-2.4-0.3-3.2-1c-0.8-0.7-1.2-1.6-1.2-2.8c0-1.2,0.4-2.1,1.1-2.7c0.8-0.7,2.1-1.1,4.1-1.3
		c1.4-0.1,2.3-0.3,2.7-0.6c0.4-0.2,0.6-0.6,0.6-1c0-0.6-0.2-1-0.5-1.3c-0.3-0.3-0.9-0.4-1.7-0.4c-0.7,0-1.3,0.2-1.7,0.5
		c-0.4,0.3-0.6,0.8-0.7,1.5h-3.5c0.1-1.4,0.7-2.5,1.7-3.2C27.7,32.9,29.2,32.5,31,32.5"/>
        <polygon class="st0" points="63.9,28 63.9,31.3 55.4,31.3 55.4,35.3 62.8,35.3 62.8,38.4 55.4,38.4 55.4,45.7 51.5,45.7 51.5,28
		"/>
        <path class="st0" d="M70.3,39.3c0,1.3,0.3,2.3,0.8,3c0.5,0.7,1.3,1.1,2.3,1.1c1,0,1.8-0.4,2.3-1.1c0.5-0.7,0.8-1.7,0.8-3
		c0-1.3-0.3-2.3-0.8-3c-0.5-0.7-1.3-1.1-2.3-1.1c-1,0-1.7,0.4-2.3,1.1C70.6,36.9,70.3,37.9,70.3,39.3 M73.4,32.5
		c2,0,3.7,0.6,4.8,1.9c1.2,1.2,1.8,2.9,1.8,4.9c0,2-0.6,3.7-1.8,4.9C77,45.4,75.4,46,73.4,46c-2,0-3.6-0.6-4.8-1.9
		c-1.2-1.2-1.8-2.9-1.8-4.9c0-2.1,0.6-3.7,1.8-4.9C69.8,33.1,71.4,32.5,73.4,32.5"/>
        <path class="st0" d="M88.3,32.9v7.2c0,1,0.2,1.8,0.5,2.3c0.3,0.5,0.9,0.8,1.8,0.8c1,0,1.7-0.3,2.1-0.9c0.4-0.6,0.6-1.5,0.6-2.8
		v-6.7h3.5v12.8h-3.3v-1.8h-0.1c-0.9,1.4-2.2,2.1-3.9,2.1c-1.7,0-2.9-0.4-3.6-1.3c-0.7-0.9-1.1-2.2-1.1-3.9v-7.9H88.3z"/>
        <path class="st0" d="M109.4,32.5c0.3,0,0.6,0,0.8,0.1v3.3c-0.4-0.1-0.8-0.1-1.3-0.1c-2.3,0-3.5,1.4-3.5,4.1v5.8h-3.5V32.9h3.3v2.4
		h0c0.3-0.8,0.9-1.5,1.6-2C107.7,32.8,108.5,32.5,109.4,32.5"/>
        <path class="st0" d="M120,32.5c1.7,0,3.1,0.4,4.2,1.3c1.1,0.9,1.7,2.1,1.8,3.5h-3.4c-0.2-1.5-1.1-2.2-2.6-2.2
		c-0.9,0-1.7,0.4-2.2,1.1c-0.5,0.8-0.8,1.8-0.8,3c0,1.2,0.3,2.2,0.8,2.9c0.5,0.7,1.2,1.1,2.2,1.1c1.6,0,2.5-0.9,2.8-2.6h3.4
		c-0.2,1.7-0.9,3-2,3.9c-1.1,0.9-2.5,1.3-4.2,1.3c-1.9,0-3.4-0.6-4.7-1.8c-1.2-1.2-1.8-2.8-1.8-4.7c0-2.1,0.6-3.8,1.8-5
		C116.4,33.1,118,32.5,120,32.5"/>
        <path class="st0" d="M134,28v6.7h0.1c0.4-0.7,0.9-1.2,1.6-1.6c0.7-0.4,1.4-0.6,2.2-0.6c1.6,0,2.8,0.4,3.5,1.2
		c0.7,0.8,1.1,2.1,1.1,3.9v8H139v-7.3c0-1-0.2-1.8-0.5-2.3c-0.3-0.5-0.9-0.8-1.7-0.8c-0.9,0-1.6,0.3-2.1,0.9
		c-0.4,0.6-0.7,1.5-0.7,2.8v6.7h-3.5V28H134z"/>
        <path class="st0" d="M156.3,37.9c-0.2-1-0.5-1.6-0.9-2.1c-0.4-0.4-1.1-0.6-1.9-0.6c-0.9,0-1.5,0.2-2,0.7c-0.5,0.5-0.8,1.1-0.9,2
		H156.3z M153.6,32.5c1.2,0,2.3,0.3,3.2,0.8c0.9,0.6,1.7,1.4,2.2,2.4c0.5,1.1,0.8,2.3,0.8,3.7c0,0.1,0,0.3,0,0.6h-9.2
		c0,1,0.3,1.8,0.8,2.4c0.5,0.6,1.3,0.9,2.3,0.9c0.6,0,1.2-0.2,1.8-0.5c0.5-0.3,0.9-0.7,1-1.2h3.1c-0.9,2.9-2.9,4.3-6,4.3
		c-1.2,0-2.3-0.3-3.3-0.8c-1-0.5-1.8-1.3-2.4-2.3c-0.6-1-0.9-2.3-0.9-3.6c0-1.3,0.3-2.5,0.9-3.6c0.6-1.1,1.4-1.9,2.4-2.4
		C151.3,32.8,152.4,32.5,153.6,32.5"/>
        <path class="st0" d="M168.8,29v3.8h2.6v2.4h-2.6v6.3c0,0.6,0.1,1,0.3,1.2s0.6,0.3,1.2,0.3c0.4,0,0.8,0,1.1-0.1v2.7
		c-0.5,0.1-1.2,0.1-2.1,0.1c-1.4,0-2.4-0.2-3-0.7c-0.7-0.5-1-1.3-1-2.4v-7.5h-2.1v-2.4h2.1V29H168.8z"/>
        <path class="st0" d="M179.9,29v3.8h2.6v2.4h-2.6v6.3c0,0.6,0.1,1,0.3,1.2s0.6,0.3,1.2,0.3c0.4,0,0.8,0,1.1-0.1v2.7
		c-0.5,0.1-1.2,0.1-2.1,0.1c-1.4,0-2.4-0.2-3-0.7c-0.7-0.5-1-1.3-1-2.4v-7.5h-2.1v-2.4h2.1V29H179.9z"/>
        <path class="st0" d="M195.2,37.9c-0.2-1-0.5-1.6-0.9-2.1c-0.4-0.4-1.1-0.6-1.9-0.6c-0.9,0-1.5,0.2-2,0.7c-0.5,0.5-0.8,1.1-0.9,2
		H195.2z M192.5,32.5c1.2,0,2.3,0.3,3.2,0.8c0.9,0.6,1.7,1.4,2.2,2.4c0.5,1.1,0.8,2.3,0.8,3.7c0,0.1,0,0.3,0,0.6h-9.2
		c0,1,0.3,1.8,0.8,2.4s1.3,0.9,2.3,0.9c0.6,0,1.2-0.2,1.8-0.5c0.5-0.3,0.9-0.7,1-1.2h3.1c-0.9,2.9-2.9,4.3-6,4.3
		c-1.2,0-2.3-0.3-3.3-0.8c-1-0.5-1.8-1.3-2.4-2.3c-0.6-1-0.9-2.3-0.9-3.6c0-1.3,0.3-2.5,0.9-3.6c0.6-1.1,1.4-1.9,2.4-2.4
		C190.2,32.8,191.3,32.5,192.5,32.5"/>
        <rect x="121" y="14.8" class="st0" width="77.7" height="0.8"/>
        <rect x="7.8" y="56.5" class="st0" width="191" height="0.8"/>
        <path class="st0" d="M268.9,40.5c-2.8-2.5-3.5-5.8-3.5-8.5c0-1.9,0.7-5.3,3.2-7.8c1.7-1.7,4.3-3.1,8.8-3.1c1.1,0,2.8,0.1,4.2,0.3
		c1.1,0.2,2,0.4,2.9,0.4c0.3,0,0.4,0.1,0.4,0.3c0,0.2-0.1,0.6-0.1,1.6c-0.1,0.9-0.1,2.5-0.1,3c0,0.4-0.1,0.6-0.3,0.6
		c-0.2,0-0.2-0.2-0.2-0.6c0-1.1-0.5-2.3-1.2-2.9c-1-0.9-3.2-1.6-5.7-1.6c-3.8,0-5.6,1.1-6.6,2.1c-2.1,2-2.6,4.6-2.6,7.5
		c0,5.5,4.2,10.5,10.4,10.5c2.2,0,3.9-0.3,5-1.4c0.6-0.6,1-1.9,1.1-2.4c0.1-0.3,0.1-0.4,0.3-0.4c0.1,0,0.2,0.2,0.2,0.4
		c0,0.2-0.3,2.7-0.6,3.7c-0.2,0.5-0.2,0.6-0.7,0.8c-1.1,0.5-3.3,0.7-5.2,0.7C274.1,43.6,271.2,42.5,268.9,40.5"/>
        <path class="st0" d="M280.3,27.3c0,0.7-0.6,1.2-1.2,1.2h-3.5c-0.7,0-1.2-0.5-1.2-1.2c0-0.7,0.6-1.2,1.2-1.2h3.5
		C279.8,26.1,280.3,26.6,280.3,27.3"/>
        <path class="st0" d="M280.2,30.6c0,0.7-0.6,1.2-1.2,1.2h-3.5c-0.7,0-1.2-0.6-1.2-1.2c0-0.7,0.6-1.2,1.2-1.2h3.5
		C279.6,29.4,280.2,29.9,280.2,30.6"/>
        <path class="st0" d="M280.1,34c0,0.7-0.6,1.2-1.2,1.2h-3.5c-0.7,0-1.2-0.6-1.2-1.2c0-0.7,0.6-1.2,1.2-1.2h3.5
		C279.5,32.7,280.1,33.3,280.1,34"/>
        <path class="st0" d="M279.2,37.3c0,0.7-0.6,1.2-1.2,1.2h-3.5c-0.7,0-1.2-0.6-1.2-1.2c0-0.7,0.6-1.2,1.2-1.2h3.5
		C278.7,36.1,279.2,36.6,279.2,37.3"/>
        <path class="st0" d="M262,53.3h-0.1v-0.1h0c-0.1,0.1-0.2,0.1-0.2,0.1c-0.3,0-0.4-0.3-0.4-0.5c0-0.2,0.1-0.4,0.4-0.4
		c0.2,0,0.2,0.1,0.3,0.1l0,0v-0.4h0.1V53.3z M261.7,53.2c0.1,0,0.2-0.1,0.2-0.3c0-0.1,0-0.4-0.2-0.4c-0.2,0-0.2,0.2-0.2,0.3
		C261.4,53.1,261.5,53.2,261.7,53.2"/>
        <path class="st0" d="M263.6,53.1c0,0,0,0.2-0.2,0.2c0,0-0.1,0.1-0.2,0.1c-0.2,0-0.4-0.2-0.4-0.4c0-0.3,0.1-0.5,0.4-0.5
		c0.2,0,0.4,0.2,0.4,0.5H263c0,0.2,0.1,0.3,0.3,0.3c0.1,0,0.2-0.1,0.2-0.2H263.6z M263.5,52.8c0-0.1-0.1-0.3-0.2-0.3
		c-0.1,0-0.2,0.1-0.2,0.3H263.5z"/>
        <polygon class="st0" points="266,52.1 266,53.3 266.7,53.3 266.7,53.2 266.1,53.2 266.1,52.1 	"/>
        <path class="st0" d="M267.8,52.7c0-0.2,0.1-0.3,0.4-0.3c0.1,0,0.3,0,0.3,0.2v0.5c0,0,0,0.1,0,0.1c0,0,0,0,0,0v0.1c0,0,0,0-0.1,0
		c-0.1,0-0.2-0.1-0.2-0.1c-0.1,0.1-0.1,0.1-0.3,0.1c-0.2,0-0.3-0.1-0.3-0.3c0-0.1,0-0.2,0.3-0.3l0.2,0c0,0,0.1,0,0.1-0.1
		c0-0.1-0.1-0.1-0.2-0.1c-0.2,0-0.2,0.1-0.2,0.2H267.8z M268.3,52.9c0,0-0.1,0-0.2,0.1c-0.1,0-0.2,0-0.2,0.1c0,0.1,0,0.2,0.2,0.2
		c0.1,0,0.3-0.1,0.3-0.2V52.9z"/>
        <polygon class="st0" points="271.4,52.1 271.4,53.3 271.6,53.3 271.6,52.8 272.2,52.8 272.2,52.6 271.6,52.6 271.6,52.4
		272.2,52.4 272.2,52.1 	"/>
        <path class="st0" d="M273.9,53.4c-0.2,0-0.5-0.1-0.5-0.5s0.2-0.5,0.5-0.5c0.2,0,0.5,0.1,0.5,0.5S274.1,53.4,273.9,53.4 M273.9,52.6
		c-0.2,0-0.2,0.2-0.2,0.3s0,0.3,0.2,0.3c0.2,0,0.2-0.2,0.2-0.3S274.1,52.6,273.9,52.6"/>
        <path class="st0" d="M276.4,53.3h-0.2v-0.1h0c-0.1,0.1-0.1,0.1-0.3,0.1c-0.2,0-0.3-0.1-0.3-0.3v-0.6h0.2V53c0,0.1,0.1,0.2,0.2,0.2
		c0.1,0,0.2,0,0.2-0.2v-0.5h0.2V53.3z"/>
        <path class="st0" d="M277.8,52.5h0.2v0.2h0c0-0.1,0.1-0.2,0.2-0.2c0,0,0,0,0,0v0.2c0,0,0,0-0.1,0c-0.2,0-0.2,0.1-0.2,0.2v0.5h-0.2
		V52.5z"/>
        <path class="st0" d="M280.3,53c0,0.1-0.1,0.3-0.4,0.3c-0.3,0-0.4-0.3-0.4-0.4c0-0.3,0.1-0.5,0.4-0.5c0.1,0,0.4,0.1,0.4,0.3h-0.2
		c0-0.1,0-0.1-0.1-0.1h0c-0.1,0-0.2,0.1-0.2,0.3c0,0.1,0,0.3,0.2,0.3c0.1,0,0.2-0.1,0.2-0.2H280.3z"/>
        <path class="st0" d="M282.4,53.3h-0.2v-0.5c0-0.1,0-0.2-0.2-0.2c-0.1,0-0.2,0.1-0.2,0.2v0.5h-0.2v-1.2h0.2v0.4h0
		c0-0.1,0.1-0.1,0.3-0.1c0.2,0,0.3,0.1,0.3,0.3V53.3z"/>
        <path class="st0" d="M284.5,53.1c-0.1,0.2-0.2,0.3-0.4,0.3c-0.2,0-0.4-0.1-0.4-0.5c0-0.1,0-0.4,0.4-0.4c0.2,0,0.4,0.1,0.4,0.5v0
		h-0.6c0,0.1,0,0.2,0.2,0.2c0.1,0,0.1,0,0.1-0.1H284.5z M284.3,52.8c0-0.1-0.1-0.2-0.2-0.2c-0.1,0-0.2,0.1-0.2,0.2H284.3z"/>
        <path class="st0" d="M286.1,52.5h0.1v0.2h-0.1v0.5c0,0.1,0,0.1,0.1,0.1c0,0,0,0,0,0v0.2c0,0-0.1,0-0.1,0h0c-0.2,0-0.2-0.1-0.2-0.2
		v-0.5h-0.1v-0.2h0.1v-0.2h0.2V52.5z"/>
        <path class="st0" d="M287.7,52.5h0.1v0.2h-0.1v0.5c0,0.1,0,0.1,0.1,0.1c0,0,0,0,0,0v0.2c0,0-0.1,0-0.1,0h0c-0.2,0-0.2-0.1-0.2-0.2
		v-0.5h-0.1v-0.2h0.1v-0.2h0.2V52.5z"/>
        <path class="st0" d="M289.9,53.1c-0.1,0.2-0.2,0.3-0.4,0.3c-0.2,0-0.4-0.1-0.4-0.5c0-0.1,0-0.4,0.4-0.4c0.2,0,0.4,0.1,0.4,0.5v0
		h-0.6c0,0.1,0,0.2,0.2,0.2c0.1,0,0.1,0,0.1-0.1H289.9z M289.6,52.8c0-0.1-0.1-0.2-0.2-0.2c-0.1,0-0.2,0.1-0.2,0.2H289.6z"/>
        <path class="st0"
              d="M261.1,50.9l1.4-3h0.2l1.4,3h-0.8l-0.2-0.5h-1l-0.2,0.5H261.1z M262.5,49.8h0.4l-0.2-0.4L262.5,49.8z"/>
        <path class="st0" d="M266.1,49.6v-1.8h0.7v1.8c0,0.3-0.1,0.6-0.4,0.9c-0.2,0.2-0.6,0.4-1,0.4c-0.4,0-0.7-0.1-1-0.4
		c-0.2-0.2-0.4-0.5-0.4-0.9v-1.8h0.7v1.8c0,0.1,0.1,0.3,0.2,0.4c0.1,0.1,0.3,0.1,0.4,0.1C265.8,50.1,266.1,49.9,266.1,49.6"/>
        <path class="st0" d="M270,47.8c0.5,0,0.8,0.2,1.1,0.5l0,0l-0.5,0.5l-0.1,0c-0.2-0.2-0.4-0.2-0.6-0.2c-0.3,0-0.5,0.1-0.6,0.2
		c-0.2,0.2-0.3,0.3-0.3,0.6c0,0.2,0.1,0.4,0.3,0.6c0.2,0.2,0.4,0.2,0.6,0.2c0.3,0,0.5-0.1,0.6-0.2l0,0l0.5,0.5l0,0
		c-0.1,0.1-0.3,0.3-0.5,0.3c-0.2,0.1-0.4,0.1-0.7,0.1c-0.5,0-0.9-0.1-1.2-0.4c-0.3-0.3-0.5-0.7-0.5-1.1c0-0.4,0.2-0.8,0.5-1.1
		C269.1,48,269.5,47.8,270,47.8L270,47.8L270,47.8z"/>
        <path class="st0" d="M272.7,47.8c0.5,0,0.8,0.2,1.1,0.4c0.3,0.3,0.5,0.7,0.5,1.1s-0.2,0.8-0.5,1.1c-0.3,0.3-0.7,0.4-1.1,0.4
		c-0.5,0-0.8-0.1-1.1-0.4c-0.3-0.3-0.5-0.7-0.5-1.1s0.2-0.8,0.5-1.1C271.9,48,272.2,47.8,272.7,47.8 M272.7,48.6
		c-0.3,0-0.4,0.1-0.6,0.2c-0.2,0.2-0.3,0.3-0.3,0.6c0,0.2,0.1,0.4,0.3,0.6c0.2,0.2,0.3,0.2,0.6,0.2c0.2,0,0.4-0.1,0.6-0.2
		c0.2-0.2,0.3-0.3,0.3-0.6c0-0.2-0.1-0.4-0.3-0.6C273.1,48.6,272.9,48.6,272.7,48.6"/>
        <polygon class="st0" points="274.7,47.8 276.1,49.8 277.6,47.8 277.7,47.8 277.7,50.9 277,50.9 277,49.7 276.1,50.9 275.3,49.7
		275.3,50.9 274.5,50.9 274.5,47.8 	"/>
        <path class="st0" d="M278.1,50.9v-3h1.2c0.3,0,0.6,0.1,0.9,0.3c0.2,0.2,0.3,0.5,0.3,0.8c0,0.3-0.1,0.6-0.3,0.8
		c-0.2,0.2-0.5,0.3-0.9,0.3h-0.4v0.8H278.1z M279.3,48.6h-0.4v0.7l0.4,0c0.2,0,0.4-0.1,0.4-0.4C279.7,48.7,279.5,48.6,279.3,48.6"/>
        <polygon class="st0"
                 points="280.6,47.9 283,47.9 283,48.6 282.2,48.6 282.2,50.9 281.4,50.9 281.4,48.6 280.6,48.6 	"/>
        <path class="st0" d="M284.4,47.8c0.5,0,0.8,0.2,1.1,0.4c0.3,0.3,0.5,0.7,0.5,1.1s-0.2,0.8-0.5,1.1c-0.3,0.3-0.7,0.4-1.1,0.4
		c-0.5,0-0.8-0.1-1.1-0.4c-0.3-0.3-0.5-0.7-0.5-1.1s0.2-0.8,0.5-1.1C283.6,48,283.9,47.8,284.4,47.8 M284.4,48.6
		c-0.3,0-0.4,0.1-0.6,0.2c-0.2,0.2-0.3,0.3-0.3,0.6c0,0.2,0.1,0.4,0.3,0.6c0.2,0.2,0.3,0.2,0.6,0.2c0.2,0,0.4-0.1,0.6-0.2
		c0.2-0.2,0.3-0.3,0.3-0.6c0-0.2-0.1-0.4-0.3-0.6C284.8,48.6,284.7,48.6,284.4,48.6"/>
        <rect x="286.3" y="47.9" class="st0" width="0.7" height="3"/>
        <path class="st0" d="M287.4,50.9l0-3h1.1c0.2,0,0.4,0,0.5,0.1c0.1,0.1,0.3,0.1,0.4,0.2c0.2,0.2,0.3,0.4,0.3,0.7v0.1
		c0,0.2-0.1,0.4-0.2,0.6c-0.1,0.1-0.2,0.2-0.3,0.3l0.7,1.1H289l-0.9-1.2v1.2H287.4z M288.9,48.9c0-0.1,0-0.2-0.1-0.2
		c-0.1-0.1-0.2-0.1-0.4-0.1h-0.3v0.7h0.3v0h0.2C288.7,49.3,288.9,49.1,288.9,48.9"/>
</g>
</svg>
