<?xml version="1.0" standalone="no"?>
<!DOCTYPE svg PUBLIC "-//W3C//DTD SVG 20010904//EN"
 "http://www.w3.org/TR/2001/REC-SVG-20010904/DTD/svg10.dtd">
<svg version="1.0" xmlns="http://www.w3.org/2000/svg"
 width="1000.000000pt" height="981.000000pt" viewBox="0 0 1000.000000 981.000000"
 preserveAspectRatio="xMidYMid meet">
<metadata>
Created by potrace 1.16, written by Peter Selinger 2001-2019
</metadata>
<g transform="translate(0.000000,981.000000) scale(0.100000,-0.100000)"
fill="#000000" stroke="none">
<path d="M5196 9663 c-10 -10 -7 -955 3 -948 11 6 75 -21 105 -45 43 -33 76
-68 76 -79 0 -6 3 -11 8 -11 4 0 18 -21 31 -47 12 -27 27 -56 32 -65 5 -10 9
-58 9 -108 0 -74 -5 -102 -26 -156 -33 -82 -103 -160 -178 -198 -30 -15 -60
-34 -66 -41 -17 -21 0 -1011 18 -1007 7 1 22 -3 34 -9 16 -9 19 -8 13 2 -5 8
-4 10 4 5 7 -5 22 -9 34 -10 12 -2 36 -6 52 -9 42 -9 107 -19 128 -18 10 0 15
-5 11 -11 -4 -6 -3 -8 3 -5 5 3 34 -1 64 -9 30 -8 63 -17 74 -19 11 -2 61 -20
110 -40 50 -21 104 -43 120 -49 88 -36 115 -49 115 -58 0 -5 5 -6 10 -3 6 3
10 1 10 -4 0 -6 8 -11 18 -11 11 0 27 -9 37 -20 10 -11 25 -20 34 -20 9 0 24
-9 34 -20 9 -11 24 -20 32 -20 8 0 15 -3 15 -8 0 -4 16 -16 36 -27 19 -10 45
-28 58 -39 12 -12 42 -38 67 -58 24 -20 56 -47 71 -60 53 -47 68 -58 76 -58 4
0 41 34 82 75 41 41 79 75 85 75 5 0 149 139 320 310 269 269 311 308 325 296
32 -28 114 -56 165 -56 76 0 113 16 177 77 67 66 94 134 85 213 -6 48 -40 129
-60 142 -6 3 150 170 354 378 200 204 365 375 367 380 4 11 -81 95 -215 213
-57 50 -103 94 -103 97 0 4 -27 27 -60 51 -33 24 -60 47 -60 52 0 4 -4 6 -8 3
-5 -3 -16 3 -25 12 -24 25 -45 42 -54 42 -5 0 -20 10 -33 23 -39 34 -117 87
-129 87 -6 0 -11 5 -11 10 0 6 -6 10 -14 10 -8 0 -16 7 -20 15 -3 8 -12 15
-20 15 -8 0 -21 6 -28 13 -31 28 -86 62 -198 123 -19 11 -40 24 -47 31 -7 6
-29 17 -48 23 -19 6 -35 15 -35 20 0 5 -10 12 -22 15 -25 7 -90 37 -98 45 -3
3 -16 10 -30 16 -14 6 -45 20 -70 32 -25 11 -55 23 -67 27 -13 3 -23 11 -23
16 0 5 -3 8 -7 7 -5 -1 -23 6 -42 16 -33 18 -102 45 -131 51 -22 5 -129 45
-178 67 -24 11 -54 21 -65 22 -12 1 -35 8 -52 15 -35 15 -116 39 -160 47 -16
3 -37 10 -46 15 -9 4 -19 6 -22 3 -3 -3 -15 0 -27 6 -24 13 -50 19 -97 25 -18
2 -37 6 -43 10 -12 7 -42 14 -90 20 -19 3 -46 8 -60 11 -14 4 -32 8 -40 9 -13
2 -185 29 -250 40 -66 11 -158 18 -356 29 -34 2 -66 6 -72 9 -5 4 -12 4 -16 0z
m911 -577 l27 -81 14 73 c12 60 18 72 34 72 16 0 19 -5 15 -22 -42 -183 -40
-179 -61 -176 -15 2 -26 22 -45 80 -14 42 -29 80 -33 83 -3 4 -9 -22 -13 -58
-8 -74 -18 -98 -35 -81 -13 13 5 171 21 190 23 28 48 2 76 -80z m283 9 c17 -9
30 -23 30 -31 0 -9 -3 -14 -7 -12 -5 2 -25 12 -45 22 -31 16 -41 17 -67 6 -39
-16 -57 -65 -40 -104 16 -34 68 -51 87 -28 18 23 15 42 -7 42 -21 0 -37 17
-27 27 7 7 86 -15 86 -24 0 -3 -5 -23 -12 -44 -10 -37 -14 -39 -50 -39 -21 0
-52 7 -68 15 -91 47 -53 185 50 185 22 0 54 -7 70 -15z m210 -65 c13 -7 21
-26 25 -58 15 -114 15 -114 46 -44 27 59 41 73 53 53 3 -5 -11 -48 -31 -95
-31 -73 -40 -86 -57 -84 -18 3 -22 14 -32 85 -5 46 -12 85 -15 87 -3 3 -15
-26 -28 -64 -22 -63 -37 -81 -54 -64 -3 3 6 38 20 78 48 133 41 123 73 106z
m533 -261 c38 -20 67 -52 67 -74 0 -25 -18 -45 -41 -45 -13 0 -18 -13 -24 -55
-5 -40 -11 -55 -22 -55 -13 0 -14 9 -9 53 6 44 4 56 -10 68 -15 12 -18 11 -28
-5 -27 -46 -44 -61 -56 -50 -9 9 -2 26 25 70 21 33 44 69 51 82 17 25 18 26
47 11z m247 -199 c0 -16 -5 -52 -11 -80 -6 -28 -9 -53 -7 -55 2 -2 21 18 43
45 22 27 45 49 52 50 31 1 19 -27 -43 -96 -59 -66 -69 -74 -82 -61 -12 13 -12
26 1 103 l15 88 -32 -39 c-70 -88 -74 -92 -81 -73 -5 12 11 41 50 92 49 66 59
74 76 66 12 -7 19 -21 19 -40z m227 -174 c33 -36 41 -60 24 -70 -5 -3 -18 10
-30 29 -28 48 -64 64 -99 44 -15 -8 -33 -27 -42 -42 -13 -24 -13 -30 0 -54 23
-40 46 -51 67 -31 16 16 16 19 0 36 -34 37 -8 46 30 10 30 -28 29 -38 -6 -72
-28 -27 -30 -27 -60 -11 -36 18 -71 69 -71 103 0 31 28 78 54 91 39 20 98 5
133 -33z m-1297 -283 l0 -58 54 -21 54 -21 41 41 41 41 77 -78 78 -77 -41 -41
-41 -41 21 -54 21 -54 57 0 57 0 3 -110 3 -110 -61 0 -60 0 -23 -56 -24 -55
42 -36 c22 -20 41 -40 41 -44 0 -12 -143 -149 -155 -149 -6 0 -28 17 -49 39
l-38 39 -49 -21 -49 -21 0 -63 0 -63 -110 0 -110 0 0 63 0 63 -52 22 -52 22
-41 -40 c-22 -22 -45 -40 -50 -40 -13 0 -145 132 -145 144 0 6 17 28 39 51
l38 40 -23 53 -24 52 -60 0 -61 0 3 108 3 107 58 5 59 5 20 48 21 48 -36 37
c-21 21 -37 42 -37 47 0 5 32 42 72 82 l72 72 39 -35 c42 -38 52 -39 124 -9
32 13 33 16 33 69 l0 56 110 0 110 0 0 -57z"/>
<path d="M6138 8069 c-3 -51 -4 -52 -43 -64 -22 -6 -60 -22 -84 -34 l-43 -23
-37 36 -37 36 -39 -40 -39 -40 32 -33 c18 -18 32 -38 32 -44 0 -6 -11 -35 -25
-65 -14 -29 -25 -63 -25 -75 0 -20 -6 -22 -57 -25 l-58 -3 -3 -57 -3 -58 56 0
c44 0 57 -4 61 -17 4 -10 19 -47 35 -82 l30 -65 -38 -38 -37 -38 42 -42 42
-42 39 38 39 38 38 -20 c22 -11 58 -25 82 -31 l42 -12 0 -60 0 -60 58 3 57 3
3 57 c3 56 4 57 40 68 20 7 56 22 80 33 l42 21 40 -39 40 -39 40 39 40 39 -35
36 c-19 20 -35 40 -35 44 0 5 11 32 24 60 13 28 28 63 34 79 10 24 16 27 62
27 l50 0 0 60 0 60 -54 0 c-53 0 -55 1 -61 33 -4 17 -19 54 -32 81 l-25 49 36
36 36 37 -43 42 -43 42 -36 -37 c-31 -31 -39 -35 -52 -23 -9 7 -44 23 -79 35
l-62 23 -3 51 -3 51 -59 0 -59 0 -3 -51z m164 -269 c70 -47 100 -126 84 -215
-14 -71 -107 -144 -187 -145 -57 0 -135 45 -165 95 -46 79 -41 150 14 224 54
72 180 93 254 41z"/>
<path d="M6130 7761 c-121 -65 -83 -250 56 -267 111 -14 193 117 134 214 -41
67 -121 90 -190 53z"/>
<path d="M4710 9640 c-1012 -65 -2026 -488 -2794 -1167 l-109 -96 325 -324
325 -325 44 23 c62 31 201 32 276 1 132 -54 217 -153 258 -300 17 -59 17 -67
1 -149 -10 -47 -21 -96 -26 -109 -8 -20 4 -35 103 -130 62 -59 193 -186 292
-283 99 -97 208 -202 241 -234 l61 -59 94 69 c343 253 695 379 1142 409 l87 6
0 552 0 553 54 12 c144 32 232 176 193 311 -29 98 -107 168 -206 185 l-44 7 5
529 5 529 -106 -1 c-58 -1 -158 -5 -221 -9z m-631 -542 c21 -114 23 -145 6
-151 -24 -10 -37 0 -94 64 -29 33 -55 58 -58 56 -2 -3 3 -35 12 -71 19 -82 19
-76 -5 -76 -20 0 -25 13 -49 120 -16 71 -15 80 16 80 20 0 44 -16 86 -57 l59
-58 -5 35 c-4 19 -9 52 -13 73 -5 33 -4 37 14 37 17 0 22 -10 31 -52z m-264
-95 c36 -42 65 -82 65 -90 0 -20 -36 -15 -51 7 -14 20 -16 20 -61 4 -40 -13
-48 -20 -48 -40 0 -24 -24 -43 -37 -30 -3 3 0 51 7 106 12 95 22 118 52 120 4
0 37 -34 73 -77z m-220 0 c15 -37 55 -157 55 -165 0 -4 -9 -8 -19 -8 -15 0
-25 16 -43 65 -25 72 -38 82 -38 33 0 -18 -3 -57 -6 -85 -9 -69 -28 -70 -101
-3 -31 28 -57 49 -60 47 -2 -2 10 -33 26 -67 17 -35 28 -67 25 -72 -16 -25
-38 -1 -75 79 -37 82 -39 88 -23 100 30 22 49 15 110 -39 l59 -51 7 39 c4 21
7 54 7 72 1 18 6 42 11 53 13 24 55 25 65 2z m-305 -173 c44 -88 39 -135 -20
-165 -35 -18 -80 -19 -102 -2 -25 19 -80 118 -74 133 11 28 32 13 64 -45 36
-67 61 -81 97 -57 32 21 31 44 -5 116 -28 55 -29 60 -12 69 9 6 18 11 19 11 2
0 16 -27 33 -60z m948 38 c-3 -7 -23 -16 -46 -19 -50 -6 -53 -9 -45 -37 4 -18
13 -22 45 -22 49 0 48 -23 -1 -28 -30 -3 -32 -6 -29 -35 3 -31 4 -31 51 -28
26 1 47 -2 47 -7 0 -10 -14 -14 -91 -28 l-37 -6 -12 73 c-21 126 -20 133 20
140 63 11 102 10 98 -3z m-380 -90 c15 -15 16 -50 2 -64 -7 -7 1 -22 25 -48
19 -21 35 -42 35 -47 0 -19 -40 -8 -56 16 -40 61 -85 54 -64 -10 9 -28 9 -40
1 -48 -9 -9 -14 -8 -21 3 -11 17 -60 164 -60 179 0 24 117 40 138 19z m-779
-103 c29 -46 50 -89 46 -95 -12 -19 -33 -10 -55 25 -22 36 -24 36 -73 2 l-28
-19 21 -33 c24 -38 25 -51 6 -58 -17 -7 -131 147 -121 163 11 18 33 11 53 -17
18 -25 22 -26 43 -15 60 33 62 37 40 73 -15 24 -17 36 -9 46 6 7 13 13 17 13
3 0 30 -38 60 -85z m610 -13 c24 -67 25 -74 11 -99 -20 -36 -76 -58 -113 -44
-21 8 -35 28 -57 77 -34 74 -37 94 -15 94 9 0 28 -28 47 -71 29 -66 33 -70 61
-67 49 5 55 28 29 100 -26 75 -27 91 -6 86 11 -2 27 -30 43 -76z m-246 -43
c54 -25 75 -114 37 -162 -24 -31 -82 -50 -113 -38 -85 33 -94 155 -16 194 40
20 60 21 92 6z m-473 -314 c7 -8 10 -26 8 -40 -4 -16 -1 -25 8 -25 17 0 84
-40 84 -50 0 -17 -26 -16 -60 2 -39 20 -49 22 -70 8 -12 -8 -10 -14 14 -39 26
-27 31 -61 9 -61 -11 0 -133 138 -133 150 0 5 17 22 37 39 41 34 83 40 103 16z
m1169 -86 c280 -45 485 -299 468 -579 -17 -290 -237 -512 -522 -527 -256 -14
-482 135 -566 372 -26 76 -35 205 -20 287 18 92 80 213 142 276 141 143 311
202 498 171z"/>
<path d="M3356 8579 c-30 -23 -33 -47 -11 -89 22 -43 48 -54 84 -35 16 8 32
23 36 34 8 26 -18 87 -43 100 -28 15 -35 14 -66 -10z"/>
<path d="M3930 8154 c-177 -47 -313 -179 -364 -353 -39 -133 -4 -330 76 -424
l23 -27 115 41 c63 22 119 44 124 49 11 11 -7 83 -42 170 -22 56 -26 82 -28
194 -4 178 16 222 119 266 104 45 245 9 299 -77 21 -34 23 -50 24 -163 1 -130
-2 -143 -55 -288 -16 -46 -27 -90 -25 -97 3 -7 51 -29 107 -48 56 -19 110 -38
119 -42 13 -5 25 5 51 47 54 85 69 134 75 239 8 157 -36 269 -147 380 -127
126 -306 177 -471 133z"/>
<path d="M3980 8022 c-37 -17 -69 -45 -79 -70 -16 -39 -11 -249 6 -292 50
-121 68 -245 41 -268 -7 -5 -64 -27 -125 -48 -62 -20 -113 -40 -113 -43 0 -15
132 -92 189 -110 108 -35 249 -26 363 22 39 17 127 78 128 89 0 3 -50 23 -110
43 -61 20 -117 43 -125 52 -30 29 -8 153 43 248 12 22 17 64 19 162 3 129 2
132 -23 163 -15 17 -39 37 -55 45 -28 15 -131 19 -159 7z"/>
<path d="M1598 8186 c-91 -97 -208 -231 -208 -239 0 -3 -10 -17 -22 -30 -32
-33 -60 -67 -81 -100 -10 -15 -22 -25 -27 -22 -6 4 -10 -3 -10 -13 0 -11 -7
-22 -15 -26 -8 -3 -15 -12 -15 -21 0 -8 -4 -15 -10 -15 -5 0 -10 -7 -10 -15 0
-9 -7 -18 -15 -21 -8 -4 -15 -13 -15 -20 0 -8 -7 -17 -15 -20 -8 -4 -15 -12
-15 -20 0 -8 -3 -14 -8 -14 -4 0 -16 -17 -27 -37 -11 -21 -26 -44 -32 -51 -7
-7 -13 -17 -13 -21 0 -4 -9 -18 -20 -31 -11 -13 -20 -29 -20 -37 0 -7 -5 -13
-11 -13 -5 0 -15 -13 -20 -30 -6 -16 -15 -30 -20 -30 -5 0 -9 -6 -9 -14 0 -7
-9 -25 -20 -39 -11 -14 -20 -31 -20 -39 0 -8 -8 -23 -17 -34 -21 -23 -103
-184 -103 -201 0 -6 -4 -13 -8 -15 -10 -4 -49 -86 -97 -203 -20 -49 -48 -117
-62 -150 -13 -33 -28 -69 -32 -80 -5 -11 -14 -33 -21 -50 -7 -16 -14 -41 -17
-54 -2 -14 -12 -45 -22 -70 -17 -41 -42 -123 -42 -136 0 -2 -7 -24 -15 -47 -9
-24 -17 -52 -19 -63 -2 -11 -9 -38 -15 -60 -5 -22 -12 -54 -15 -72 -3 -17 -11
-51 -19 -75 -8 -23 -18 -68 -21 -98 -4 -30 -9 -58 -10 -61 -3 -5 -37 -226 -50
-329 -5 -35 -9 -91 -21 -277 l-6 -103 466 0 c436 0 467 1 472 18 3 9 8 24 11
32 4 8 7 20 8 26 5 21 88 114 102 114 5 0 15 9 23 20 8 11 20 20 27 20 7 0 27
8 45 18 37 20 79 27 158 25 139 -4 179 -21 278 -120 45 -45 81 -86 80 -90 -1
-4 5 -21 12 -36 l14 -29 497 4 c274 1 500 5 502 8 3 3 8 25 11 50 13 100 38
240 51 280 3 10 7 27 9 37 2 10 11 43 21 73 15 50 24 74 73 190 26 63 106 221
114 226 4 3 8 13 8 22 0 10 8 25 17 34 23 21 34 36 57 78 11 19 30 44 43 56
13 12 23 26 23 31 0 5 20 31 45 57 25 27 45 51 45 53 0 2 18 22 40 44 l40 40
-143 144 c-78 78 -255 257 -394 396 l-252 254 29 34 c52 61 62 166 24 246 -30
65 -103 130 -166 150 -82 25 -173 7 -233 -46 -20 -18 -26 -13 -390 351 -204
204 -377 369 -385 369 -8 -1 -50 -38 -92 -83z m242 -751 c0 -8 -5 -15 -11 -15
-6 0 -24 -9 -40 -21 -21 -15 -29 -29 -29 -52 0 -65 76 -101 120 -57 24 24 25
33 5 50 -13 10 -19 9 -35 -5 -15 -14 -23 -16 -31 -8 -8 8 -3 20 20 42 18 17
35 31 39 31 18 0 69 -66 63 -80 -52 -127 -221 -113 -221 19 0 26 35 81 65 103
18 14 55 9 55 -7z m-476 -53 c3 -5 -9 -25 -26 -46 -29 -35 -29 -38 -13 -56 17
-19 18 -18 42 11 25 30 53 39 53 17 0 -7 -11 -24 -25 -38 l-26 -27 26 -17 c26
-17 27 -17 57 18 58 68 68 34 11 -38 -24 -31 -42 -46 -53 -43 -28 7 -149 101
-150 115 0 18 72 111 87 112 6 0 14 -4 17 -8z m366 -152 c70 -65 74 -71 58
-86 -15 -16 -23 -16 -95 -1 -43 8 -79 14 -81 12 -2 -2 22 -22 52 -45 59 -44
66 -57 41 -66 -18 -7 -165 101 -165 121 0 35 42 41 150 18 22 -4 20 0 -17 37
-41 39 -51 59 -36 73 11 12 16 8 93 -63z m-462 -17 c2 -7 -3 -13 -11 -13 -23
0 -57 -49 -57 -81 0 -32 40 -69 75 -69 26 0 61 36 70 73 8 31 35 37 35 6 0
-53 -60 -119 -107 -119 -41 0 -89 23 -103 49 -14 28 -12 77 5 111 26 50 81 76
93 43z m-82 -221 c83 -51 89 -58 74 -82 -7 -11 -34 -16 -100 -20 l-91 -5 65
-33 c69 -35 72 -38 56 -62 -8 -13 -23 -8 -95 30 -48 25 -89 49 -92 53 -2 4 3
19 11 32 15 23 22 25 98 25 l82 0 -57 36 c-53 33 -67 51 -50 67 11 12 19 8 99
-41z m228 -139 c78 -46 96 -62 96 -83 0 -24 -24 -29 -112 -23 -80 4 -80 1 5
-43 43 -22 59 -45 39 -58 -12 -7 -177 80 -179 95 -6 32 16 44 89 49 l73 5 -47
28 c-45 26 -57 44 -41 60 10 10 10 10 77 -30z m-259 -118 c0 -15 -8 -21 -32
-23 -25 -2 -35 -11 -48 -38 -16 -34 -13 -74 6 -74 14 0 10 -30 -5 -36 -13 -5
-41 21 -124 117 -22 26 -29 42 -25 58 6 22 9 22 117 19 103 -3 111 -4 111 -23z
m1311 -16 c194 -35 370 -200 430 -405 27 -93 23 -240 -9 -332 -116 -327 -470
-479 -783 -336 -145 66 -246 180 -299 338 -20 60 -25 94 -25 173 0 172 49 293
164 408 137 136 321 191 522 154z m-1156 -69 c83 -42 100 -82 60 -147 -25 -42
-64 -44 -154 -7 -51 22 -63 30 -59 45 7 24 4 24 81 -7 80 -32 112 -27 112 16
0 27 -7 33 -70 65 -50 25 -68 39 -64 50 9 22 27 19 94 -15z m-341 -85 c46 -19
86 -36 88 -39 3 -2 2 -14 -2 -25 -7 -22 -8 -23 -120 -42 l-69 -12 69 -26 c70
-27 90 -46 60 -57 -16 -6 -170 40 -188 56 -4 4 -3 19 4 33 9 20 23 28 61 36
27 6 60 11 73 11 39 0 29 13 -28 36 -37 15 -53 28 -55 43 -5 29 9 27 107 -14z
m267 -125 c48 -24 69 -63 60 -113 -14 -76 -68 -102 -144 -72 -49 20 -62 39
-62 90 0 46 26 92 60 104 36 13 39 13 86 -9z m-456 -173 c0 -6 -4 -28 -10 -47
-7 -25 -7 -36 3 -42 27 -17 44 -7 56 32 7 25 18 40 28 40 15 0 15 -28 -2 -72
-5 -13 2 -19 34 -29 40 -12 52 -31 30 -44 -13 -9 -199 34 -199 46 0 31 35 129
47 129 7 0 13 -6 13 -13z m320 -14 c0 -5 -9 -21 -20 -38 -26 -39 -25 -51 5
-80 54 -55 136 -17 121 56 -5 25 -3 30 12 27 12 -2 18 -15 20 -44 2 -33 -2
-48 -23 -73 -23 -27 -33 -31 -73 -31 -35 0 -55 7 -77 24 -26 21 -30 31 -30 74
0 35 6 56 19 71 19 20 46 29 46 14z m-55 -183 c3 -5 -1 -20 -9 -32 -37 -53 -6
-108 60 -108 41 0 66 29 63 72 -3 32 0 38 20 38 14 0 18 -50 7 -85 -20 -65
-73 -89 -139 -62 -64 27 -83 101 -42 164 17 25 30 29 40 13z m125 -229 c0 -13
-9 -21 -29 -26 -22 -5 -30 -13 -35 -37 -9 -47 -7 -56 14 -63 20 -6 29 -45 9
-45 -5 0 -36 14 -67 31 -114 63 -120 67 -115 92 4 21 16 26 91 44 116 27 132
28 132 4z"/>
<path d="M2235 6664 c-147 -32 -284 -141 -349 -277 -105 -218 -58 -447 127
-612 93 -84 201 -125 332 -125 141 0 245 43 354 145 117 111 169 243 158 407
-5 74 -12 100 -46 174 -65 137 -188 244 -324 280 -84 22 -175 25 -252 8z m145
-115 l0 -48 43 -12 c60 -16 105 -53 112 -93 12 -59 -25 -96 -81 -82 -22 6 -25
11 -19 37 8 34 -16 79 -40 79 -12 0 -15 -19 -15 -101 l0 -100 43 -19 c63 -28
113 -83 121 -131 17 -104 -33 -195 -120 -220 -43 -13 -43 -13 -46 -64 -3 -43
-6 -50 -25 -53 -22 -3 -23 0 -23 52 l0 56 -42 0 c-89 1 -158 56 -158 127 0 52
43 82 89 63 23 -9 26 -15 23 -46 -5 -42 28 -84 65 -84 23 0 23 1 22 113 l0
112 -61 30 c-33 16 -71 44 -84 61 -30 39 -42 120 -24 164 18 44 85 97 131 105
l39 7 0 48 c0 30 5 50 13 53 27 9 37 -6 37 -54z"/>
<path d="M8265 7957 c-116 -116 -261 -264 -324 -329 l-114 -116 21 -44 c28
-60 35 -127 21 -200 -18 -94 -44 -143 -108 -207 -60 -60 -111 -90 -196 -116
-67 -20 -94 -19 -203 7 l-93 22 -43 -44 c-512 -528 -637 -662 -632 -675 5 -13
82 -121 96 -135 14 -13 100 -151 100 -159 0 -5 6 -16 13 -23 13 -14 50 -87 93
-183 63 -144 120 -338 149 -510 3 -16 8 -90 12 -162 3 -73 7 -134 7 -135 1 -2
251 -5 556 -8 l555 -5 5 -46 c8 -70 63 -144 132 -180 52 -27 184 -27 236 0 72
37 141 136 142 204 l0 27 530 0 530 0 0 118 c0 249 -50 646 -121 952 -75 326
-228 753 -369 1030 -58 115 -141 267 -175 320 -12 19 -37 59 -56 89 -79 126
-228 342 -245 356 -7 6 -33 37 -57 70 -35 48 -176 213 -241 282 -9 10 -58 -35
-221 -200z m104 -626 c7 -13 1 -35 -25 -85 -20 -37 -34 -70 -31 -72 2 -2 36 3
76 12 74 17 101 11 101 -22 0 -15 -151 -125 -162 -118 -19 12 -4 33 47 69 31
21 58 41 60 45 2 4 -30 -1 -73 -11 -42 -11 -83 -19 -89 -19 -22 0 -15 29 22
94 19 35 35 66 35 70 0 4 -25 -14 -56 -39 -54 -44 -79 -52 -79 -27 0 16 145
133 156 126 5 -3 13 -13 18 -23z m521 -241 c24 -48 25 -78 3 -102 -25 -28 -61
-22 -95 17 -30 33 -32 34 -60 19 -28 -14 -48 -12 -48 6 0 12 163 110 172 103
5 -2 17 -22 28 -43z m-313 -50 c2 -8 -25 -52 -58 -98 -45 -61 -64 -81 -72 -73
-9 9 -8 17 1 31 16 27 15 37 -8 70 -14 20 -31 30 -53 32 -54 5 -32 22 50 40
93 19 137 19 140 -2z m410 -131 c12 -24 22 -52 23 -61 0 -28 -30 -50 -60 -44
-23 4 -32 -1 -56 -34 -16 -22 -35 -40 -41 -40 -21 0 -15 30 12 62 44 52 29 91
-24 63 -37 -19 -47 -19 -55 0 -4 10 18 27 77 58 45 25 87 44 92 43 6 -1 20
-22 32 -47z m-327 -14 c0 -12 -18 -50 -40 -83 -22 -34 -36 -62 -32 -62 4 0 31
14 61 30 29 16 57 27 62 24 23 -14 2 -33 -77 -72 -68 -34 -89 -40 -95 -30 -14
22 -11 30 36 101 25 37 43 67 39 67 -4 0 -33 -14 -65 -32 -49 -27 -61 -30 -71
-19 -8 8 -9 15 -3 17 6 3 44 24 85 48 78 46 100 48 100 11z m374 -145 c62 -23
88 -136 42 -179 -33 -31 -98 -39 -132 -17 -52 35 -70 127 -31 164 40 37 80 48
121 32z m-247 -96 c4 -11 -17 -39 -68 -90 -40 -41 -77 -74 -81 -74 -14 0 -9
33 7 50 14 16 14 21 -1 54 -14 28 -24 36 -45 36 -28 0 -47 25 -26 34 7 2 56 5
110 5 80 1 99 -2 104 -15z m-452 -149 c45 -44 35 -67 -77 -181 -56 -57 -96
-104 -90 -104 9 0 12 -88 12 -360 l0 -360 -420 0 -420 0 0 425 0 425 355 0
c327 0 355 -1 355 -17 0 -10 42 25 109 90 117 115 135 124 176 82z m497 -5
c31 -24 51 -69 46 -106 -5 -43 -28 -43 -28 1 0 70 -41 104 -100 84 -47 -17
-66 -72 -37 -110 18 -24 61 -7 52 21 -13 41 9 45 26 5 10 -22 15 -43 13 -47
-3 -4 -23 -13 -45 -20 -39 -11 -42 -10 -60 13 -42 54 -32 136 20 164 37 20 84
18 113 -5z m386 -286 c35 -24 55 -72 49 -116 -4 -26 -1 -38 7 -38 8 0 18 -28
25 -72 7 -40 15 -83 18 -95 4 -16 1 -23 -10 -23 -9 0 -17 14 -21 35 -8 39 -2
38 -133 15 -23 -4 -45 -5 -48 -2 -17 17 2 31 58 41 34 7 73 15 86 17 21 4 23
9 17 42 -3 20 -10 38 -16 40 -5 2 -10 24 -10 50 0 28 -6 52 -17 64 -22 25 -74
23 -108 -4 -23 -18 -26 -26 -21 -56 3 -19 12 -42 21 -52 10 -11 12 -20 6 -24
-15 -10 -50 34 -57 72 -17 87 84 156 154 106z m-250 -95 c3 -22 -7 -34 -57
-70 -33 -24 -61 -47 -61 -50 0 -3 36 -14 80 -23 78 -17 80 -18 80 -47 0 -16
-5 -29 -12 -29 -7 -1 -49 -7 -93 -15 -77 -14 -105 -9 -91 14 4 6 17 11 29 12
12 0 45 6 72 13 l50 13 -82 18 c-45 10 -84 24 -87 31 -3 8 24 34 65 64 38 29
69 53 69 55 0 1 -32 -6 -72 -16 -87 -23 -90 -23 -86 -2 2 11 28 23 83 39 98
27 109 26 113 -7z m82 -474 c0 -21 -13 -34 -66 -68 l-66 -42 71 -3 c138 -6 60
-42 -90 -42 -34 0 -39 3 -39 23 0 16 19 34 73 70 l72 49 -77 -7 c-66 -5 -78
-3 -78 9 0 20 49 31 153 35 44 1 47 -1 47 -24z"/>
<path d="M8953 6700 c-42 -25 -45 -69 -7 -106 27 -28 56 -27 102 2 46 30 16
124 -40 124 -13 0 -38 -9 -55 -20z"/>
<path d="M8012 6201 c-144 -148 -262 -274 -262 -280 0 -6 6 -11 14 -11 14 0
532 527 535 545 7 39 -57 -18 -287 -254z"/>
<path d="M7397 6293 c-4 -3 -7 -172 -7 -375 l0 -368 370 0 370 0 0 321 0 321
-167 -171 -168 -172 -47 1 -48 0 -1 43 c-1 23 0 49 1 57 1 8 76 86 166 174 90
87 164 162 164 167 0 10 -623 13 -633 2z"/>
<path d="M3600 4890 l0 -560 425 0 425 0 0 95 0 95 -310 0 -310 0 0 155 0 155
280 0 280 0 0 90 0 90 -280 0 -281 0 3 128 3 127 295 2 295 2 3 91 3 90 -416
0 -415 0 0 -560z"/>
<path d="M4650 4891 l0 -561 110 0 110 0 2 233 3 232 62 3 c80 4 138 -21 183
-76 18 -23 85 -119 150 -214 l117 -173 131 -3 c73 -1 132 0 132 4 0 14 -193
316 -235 368 -25 31 -67 70 -92 87 l-46 32 66 22 c93 30 145 70 185 144 31 56
34 69 34 145 0 138 -49 223 -159 278 l-68 33 -342 3 -343 3 0 -560z m613 354
c58 -27 84 -91 66 -159 -24 -92 -70 -108 -294 -104 l-160 3 -3 134 c-2 101 1
137 10 143 7 5 87 7 178 5 132 -3 173 -8 203 -22z"/>
<path d="M5780 4891 l0 -561 115 0 115 0 2 213 3 212 190 5 c182 5 192 6 246
32 71 36 125 89 158 158 23 48 26 68 26 160 0 95 -3 111 -28 162 -32 65 -89
121 -156 152 -43 20 -64 21 -358 24 l-313 3 0 -560z m533 355 c122 -52 128
-220 11 -277 -38 -18 -69 -22 -180 -27 l-134 -5 0 160 c0 88 3 163 7 167 12
12 261 -3 296 -18z"/>
<path d="M311 4813 c1 -117 14 -289 17 -235 1 12 6 22 10 22 5 0 4 -22 -1 -48
-9 -42 -8 -53 8 -73 16 -22 16 -16 -1 26 -3 8 -1 15 5 15 6 0 11 -8 11 -17 0
-12 6 -8 16 12 10 19 11 31 5 33 -6 2 -8 14 -5 27 4 18 1 24 -20 29 l-26 6 0
114 c0 82 4 116 13 119 10 4 10 6 0 6 -7 1 -13 7 -13 15 0 8 6 17 13 19 10 4
10 6 0 6 -7 1 -13 6 -13 11 0 7 160 10 500 8 395 -2 500 0 500 10 0 24 29 11
33 -15 l4 -28 2 28 c0 15 6 27 12 27 6 0 9 -9 6 -20 -3 -11 -1 -23 5 -26 6 -4
8 6 6 22 l-3 29 -542 3 -543 2 1 -127z"/>
<path d="M1870 4931 c0 -5 8 -11 17 -13 15 -3 15 -5 -3 -22 -13 -13 -14 -18
-4 -14 8 2 19 14 25 26 l10 22 490 -2 490 -3 -485 -5 -485 -6 526 -1 c290 0
532 -4 538 -7 6 -4 11 0 11 9 0 19 52 17 -592 21 -319 2 -538 0 -538 -5z"/>
<path d="M7358 4783 c-228 -3 -298 -6 -299 -16 -2 -63 -14 -147 -31 -222 -11
-49 -21 -99 -22 -110 -2 -11 -8 -30 -14 -42 -7 -12 -12 -31 -12 -42 0 -11 -21
-69 -46 -128 -26 -59 -52 -124 -59 -143 -7 -19 -30 -64 -50 -100 -21 -36 -46
-81 -57 -100 -31 -55 -94 -141 -135 -186 -13 -14 -23 -27 -23 -30 0 -3 -30
-39 -66 -81 l-66 -75 83 -84 c46 -46 79 -84 74 -84 -6 0 131 -141 303 -313
l312 -312 -27 -55 c-14 -30 -30 -62 -34 -71 -7 -15 -5 -79 5 -126 12 -57 77
-133 146 -169 55 -29 173 -26 225 5 22 14 43 30 47 35 8 13 20 2 252 -234 277
-281 317 -320 407 -407 47 -46 90 -83 95 -83 9 0 242 235 279 281 50 63 91
113 103 125 6 7 12 17 12 22 0 6 3 12 8 14 6 3 48 58 145 190 15 20 27 41 27
46 0 6 7 12 15 16 8 3 15 12 15 21 0 8 5 15 10 15 6 0 10 4 10 9 0 15 83 141
92 141 4 0 8 8 8 18 0 10 11 33 25 52 14 19 25 38 25 43 0 5 8 21 19 35 34 49
191 369 191 390 0 7 4 12 10 12 5 0 13 12 16 28 4 15 15 41 25 59 10 17 21 48
25 67 3 20 11 36 17 36 6 0 8 3 5 6 -3 3 3 29 14 57 11 29 27 73 36 100 9 26
19 47 24 47 4 0 5 6 2 13 -3 8 0 27 7 43 6 16 15 43 20 59 4 17 15 55 24 85
36 122 59 214 69 285 2 11 5 20 6 20 1 0 4 9 6 20 2 11 7 38 13 60 5 22 12 58
15 80 3 22 7 51 9 65 12 60 30 188 32 225 2 22 4 40 5 40 1 0 3 20 5 45 2 25
6 70 9 100 3 30 6 87 7 125 l3 70 -458 5 c-251 3 -462 3 -469 0 -7 -3 -13 -12
-15 -20 -2 -8 -9 -29 -17 -46 -24 -51 -132 -154 -162 -154 -7 0 -13 -4 -13 -9
0 -5 -15 -14 -32 -19 -94 -29 -232 -21 -319 18 -49 21 -149 107 -152 130 -2 8
-15 36 -31 63 l-28 47 -201 -2 c-111 -2 -336 -4 -499 -5z m567 -548 c137 -29
262 -112 284 -189 7 -26 10 -161 8 -380 -2 -396 1 -382 -105 -453 -78 -53
-166 -80 -307 -94 -171 -18 -363 16 -475 84 -29 18 -67 49 -84 70 l-31 39 -3
351 c-2 229 1 365 7 388 28 94 194 178 401 203 59 7 231 -4 305 -19z m1305
-336 c0 -6 -4 -19 -10 -29 -18 -34 7 -65 29 -37 6 6 22 27 37 45 29 36 63 42
89 15 22 -21 16 -107 -8 -131 -24 -24 -29 -10 -15 42 20 75 -16 88 -59 21 -55
-84 -143 -32 -101 60 11 25 38 35 38 14z m-47 -165 c-9 -81 -9 -79 18 -82 23
-3 27 1 33 32 4 23 13 36 22 36 12 0 14 -7 9 -32 -4 -18 -8 -37 -9 -42 -1 -11
52 -27 58 -18 2 4 9 26 15 50 7 23 17 42 23 42 14 0 6 -74 -13 -116 l-14 -31
-87 21 c-49 12 -92 26 -97 31 -13 13 18 137 33 132 6 -2 10 -13 9 -23z m-153
-144 c0 -14 -7 -20 -24 -20 -29 0 -44 -17 -52 -59 -5 -23 -2 -37 11 -51 10
-11 15 -26 11 -36 -7 -19 -10 -18 -107 65 -41 35 -64 62 -64 75 0 19 9 22 95
32 52 6 103 12 113 12 11 1 17 -5 17 -18z m130 -21 c0 -6 -9 -22 -20 -36 -26
-34 -25 -65 3 -91 36 -34 70 -37 102 -10 22 19 27 32 27 66 -1 30 3 42 14 42
22 0 18 -78 -6 -118 -28 -45 -60 -58 -108 -44 -21 7 -47 21 -58 33 -25 28 -26
105 -1 142 17 27 47 37 47 16z m-333 -279 c68 0 94 -3 91 -12 -2 -6 -19 -17
-37 -23 -25 -8 -38 -21 -49 -48 -13 -35 -13 -39 4 -58 14 -16 15 -22 5 -32
-10 -10 -28 4 -86 68 -62 66 -72 82 -64 98 6 11 17 16 26 13 8 -3 57 -6 110
-6z m282 -64 c59 -59 72 -78 66 -95 -6 -20 -13 -21 -121 -21 -105 0 -115 2
-112 18 3 14 17 17 97 20 l95 3 -63 63 c-55 55 -70 86 -43 86 4 0 40 -33 81
-74z m-350 -102 c25 -21 31 -33 31 -66 0 -45 -36 -118 -58 -118 -20 0 -152 79
-158 95 -7 17 19 68 48 95 32 30 98 27 137 -6z m239 -82 c3 -19 8 -20 57 -16
29 3 56 1 58 -4 12 -18 -11 -32 -56 -36 -45 -3 -77 -19 -77 -37 0 -5 16 -17
35 -26 35 -17 49 -53 21 -53 -17 0 -163 78 -172 91 -9 15 45 99 69 108 30 11
61 -2 65 -27z m-148 -133 c0 -5 -10 -28 -22 -50 -20 -34 -21 -41 -8 -49 25
-16 39 -11 55 20 9 17 22 30 30 30 20 0 19 -9 -6 -49 -19 -32 -19 -34 -2 -47
29 -21 40 -17 64 26 23 41 33 48 44 31 7 -13 -62 -121 -78 -121 -13 0 -167 96
-167 104 0 3 16 30 35 61 33 51 55 69 55 44z m-96 -178 c3 -5 -5 -16 -19 -25
-26 -17 -33 -40 -15 -51 5 -3 27 3 49 15 67 34 111 23 111 -28 0 -50 -68 -128
-91 -105 -5 5 3 21 21 38 32 30 41 75 15 75 -8 0 -29 -9 -47 -20 -59 -36 -98
-22 -98 35 0 47 55 97 74 66z"/>
<path d="M7605 4193 c-75 -9 -175 -38 -228 -66 -138 -73 -142 -158 -9 -230
174 -94 528 -96 687 -2 53 31 105 89 105 117 0 13 -22 43 -54 74 -43 42 -68
57 -122 74 -114 35 -260 48 -379 33z"/>
<path d="M8138 3881 c-33 -32 -144 -79 -220 -95 -46 -9 -127 -16 -198 -16
-174 0 -309 31 -410 95 l-40 25 0 -63 c0 -58 3 -67 31 -97 40 -41 136 -86 225
-105 95 -21 293 -20 385 1 91 20 145 45 197 90 44 37 56 70 50 140 -3 38 -4
40 -20 25z"/>
<path d="M7270 3608 c0 -60 1 -63 44 -104 84 -80 245 -120 446 -111 146 7 235
29 310 77 68 43 90 80 90 148 0 28 -3 52 -6 52 -3 0 -18 -8 -32 -19 -132 -92
-382 -126 -599 -82 -93 19 -203 62 -224 87 -22 26 -29 14 -29 -48z"/>
<path d="M8135 3443 c-41 -31 -137 -74 -197 -88 -103 -25 -269 -30 -375 -11
-100 17 -208 54 -253 86 -15 11 -31 20 -34 20 -3 0 -6 -27 -6 -60 0 -52 4 -64
30 -93 129 -147 609 -169 785 -35 59 45 77 80 73 145 -3 50 -4 51 -23 36z"/>
<path d="M2713 4153 c-10 -4 -13 -81 -13 -341 1 -241 4 -332 11 -319 6 10 8
25 5 33 -3 9 -2 12 5 9 12 -8 6 536 -6 556 -5 8 -4 10 3 5 7 -4 12 -1 12 8 0
9 -5 16 -10 16 -7 0 -7 6 0 20 6 11 9 20 8 19 -2 0 -9 -3 -15 -6z"/>
<path d="M1920 4101 c0 -6 8 -11 18 -12 9 0 12 -3 5 -5 -8 -4 -12 -82 -13
-282 0 -152 -4 -280 -8 -284 -4 -4 -6 117 -4 267 2 151 0 275 -5 275 -9 0 -9
-558 0 -566 3 -3 11 5 18 17 8 17 12 88 11 249 -1 124 2 245 6 269 6 41 10 45
47 57 34 10 36 12 14 13 -15 1 -41 4 -58 7 -20 4 -31 3 -31 -5z"/>
<path d="M1761 3550 c-1 -3 8 -23 18 -44 11 -21 17 -45 14 -53 -4 -11 -2 -14
8 -11 8 3 13 12 11 22 -5 26 15 19 34 -13 l17 -29 381 -2 c210 -2 418 -4 464
-5 84 -3 108 6 73 24 -23 13 -42 14 -22 2 9 -6 -3 -11 -35 -16 -33 -5 -50 -3
-52 4 -3 8 -119 11 -405 11 -370 -1 -403 1 -414 16 -7 10 -13 26 -13 35 0 12
-6 16 -20 12 -16 -4 -20 0 -20 17 0 15 -5 20 -14 17 -8 -3 -17 -1 -20 6 -2 7
-5 10 -5 7z"/>
</g>
</svg>
