<?xml version="1.0" encoding="utf-8"?>
<!-- Generator: Adobe Illustrator 22.0.0, SVG Export Plug-In . SVG Version: 6.00 Build 0)  -->
<svg version="1.1" id="Calque_1" xmlns="http://www.w3.org/2000/svg" xmlns:xlink="http://www.w3.org/1999/xlink" x="0px" y="0px"
	 viewBox="0 0 1044.4 1080" style="enable-background:new 0 0 1044.4 1080;" xml:space="preserve">
<style type="text/css">
	.st0{fill:#d4afb9;}
	.st1{fill:#FFFFFF;}
</style>
<g>
	<rect x="-1" y="-1.2" class="st0" width="1046.4" height="1082.3"/>
	<path class="st1" d="M627.1,147.4c0,0-111.6,14.7-116.4,252.9c-4.8,238.2-83.1,375.7-161.5,372l-5.9,9.8c0,0,16.6,2.5,19,9.8
		c0,0,174.5-34.4,188.8-380.6C551.1,411.4,539.2,200.2,627.1,147.4"/>
	<path class="st1" d="M622.3,380.7c0,6.8-5.3,12.3-11.9,12.3h-33.3c-6.5,0-11.9-5.5-11.9-12.3c0-6.8,5.3-12.3,11.9-12.3h33.3
		C617,368.4,622.3,373.9,622.3,380.7"/>
	<path class="st1" d="M621.1,413.9c0,6.8-5.3,12.3-11.9,12.3H576c-6.6,0-11.9-5.5-11.9-12.3c0-6.8,5.3-12.3,11.9-12.3h33.2
		C615.8,401.6,621.1,407,621.1,413.9"/>
	<path class="st1" d="M620,447c0,6.8-5.3,12.3-11.9,12.3h-33.3c-6.5,0-11.9-5.5-11.9-12.3c0-6.8,5.4-12.3,11.9-12.3h33.3
		C614.6,434.7,620,440.2,620,447"/>
	<path class="st1" d="M611.6,480.1c0,6.8-5.4,12.3-11.9,12.3h-33.2c-6.6,0-11.8-5.5-11.8-12.3c0-6.8,5.3-12.3,11.8-12.3h33.2
		C606.3,467.9,611.6,473.4,611.6,480.1"/>
	<polygon class="st1" points="171.5,894.7 166.6,894.7 166.6,932.5 189.6,932.5 189.6,927.9 171.5,927.9 	"/>
	<path class="st1" d="M246.4,931.8l-1.6,0.4l-1.2,0.1c-2.7,0-4-1.3-4-3.9c-1.4,1.5-2.9,2.6-4.2,3.3c-1.3,0.6-2.7,0.9-4.3,0.9
		c-2.6,0-4.6-0.7-6.1-2c-1.5-1.4-2.3-3.2-2.3-5.6c0-1.8,0.4-3.3,1.3-4.7c0.9-1.3,2.1-2.2,3.9-2.8l1.9-0.6l2.4-0.2
		c3.3-0.4,5.4-0.7,6.1-1.1c0.7-0.3,1.1-1.2,1.1-2.5c0-2.9-2-4.4-5.8-4.4c-3.3,0-5.3,1.6-5.7,5H224c0-2.8,0.9-4.9,2.6-6.3
		c1.8-1.5,4.3-2.2,7.5-2.2c2.9,0,5.2,0.7,6.9,1.9c1.7,1.3,2.6,3.1,2.6,5.4v14.9c0,1,0.5,1.5,1.4,1.5l1.4-0.3V931.8z M239.4,918.8
		L239,919c-0.3,0.3-1.1,0.6-2.5,0.8l-4.4,0.7c-3.3,0.5-4.9,1.9-4.9,4.2c0,2.9,1.5,4.3,4.5,4.3c1.5,0,3-0.3,4.4-1
		c1.3-0.7,2.4-1.7,3.1-2.9c0.2-0.5,0.3-1.2,0.3-2.1v-0.9v-0.3V918.8z"/>
	<polygon class="st1" points="354.6,901.5 336.3,901.5 336.3,909.9 352.3,909.9 352.3,916.6 336.3,916.6 336.3,932.4 328.7,932.4
		328.7,894.9 354.6,894.9 	"/>
	<path class="st1" d="M417.4,917.6c0,4.5-1.3,8.1-3.9,10.9c-2.5,2.7-6,4.1-10.2,4.1c-4.2,0-7.6-1.4-10.1-4
		c-2.5-2.7-3.8-6.3-3.8-10.8c0-4.6,1.2-8.2,3.8-10.9c2.5-2.7,6-4,10.3-4c4.2,0,7.6,1.3,10.1,4C416.2,909.5,417.4,913.1,417.4,917.6
		 M410,918c0-6-2.2-9-6.6-9h-0.5c-2,0-3.4,0.8-4.5,2.2c-1,1.5-1.5,3.6-1.5,6.2c0,2.8,0.6,5,1.7,6.5c1.1,1.5,2.7,2.3,4.8,2.3
		c2.1,0,3.8-0.7,4.9-2.1C409.4,922.7,410,920.7,410,918"/>
	<path class="st1" d="M417.4,917.6c0,4.5-1.3,8.1-3.9,10.9c-2.5,2.7-6,4.1-10.2,4.1c-4.2,0-7.6-1.4-10.1-4
		c-2.5-2.7-3.8-6.3-3.8-10.8c0-4.6,1.2-8.2,3.8-10.9c2.5-2.7,6-4,10.3-4c4.2,0,7.6,1.3,10.1,4C416.2,909.5,417.4,913.1,417.4,917.6
		 M410,918c0-6-2.2-9-6.6-9h-0.5c-2,0-3.4,0.8-4.5,2.2c-1,1.5-1.5,3.6-1.5,6.2c0,2.8,0.6,5,1.7,6.5c1.1,1.5,2.7,2.3,4.8,2.3
		c2.1,0,3.8-0.7,4.9-2.1C409.4,922.7,410,920.7,410,918"/>
	<path class="st1" d="M478.2,931.4h-7v-4.1c-1.8,3.2-4.6,4.9-8.6,4.9c-1.8,0-3.4-0.4-4.8-1.1c-1.4-0.7-2.4-1.8-3.1-3.2
		c-0.9-1.8-1.4-3.6-1.4-5.5V922v-19.1h7.4v17.7c0,3.5,1.5,5.3,4.5,5.3c1.6,0,2.9-0.5,4.1-1.5c1.1-1,1.7-2.3,1.7-3.8V920v-17.1h7.3
		V931.4z"/>
	<path class="st1" d="M478.2,931.4h-7v-4.1c-1.8,3.2-4.6,4.9-8.6,4.9c-1.8,0-3.4-0.4-4.8-1.1c-1.4-0.7-2.4-1.8-3.1-3.2
		c-0.9-1.8-1.4-3.6-1.4-5.5V922v-19.1h7.4v17.7c0,3.5,1.5,5.3,4.5,5.3c1.6,0,2.9-0.5,4.1-1.5c1.1-1,1.7-2.3,1.7-3.8V920v-17.1h7.3
		V931.4z"/>
	<path class="st1" d="M532.2,910.4l-2-0.1c-4.5,0-6.8,2.1-6.8,6.3v15.2h-7.4v-28.5h7.1v5c1.9-3.8,4.3-5.7,7.2-5.7h1.9V910.4z"/>
	<path class="st1" d="M532.2,910.4l-2-0.1c-4.5,0-6.8,2.1-6.8,6.3v15.2h-7.4v-28.5h7.1v5c1.9-3.8,4.3-5.7,7.2-5.7h1.9V910.4z"/>
	<path class="st1" d="M589.9,912.7h-7.4c-0.6-3.1-2.2-4.7-4.8-4.7c-1.8,0-3.2,0.7-4.2,2.2c-1,1.5-1.5,3.7-1.5,6.6
		c0,5.8,1.8,8.7,5.4,8.7c1.4,0,2.6-0.5,3.4-1.3c0.9-0.9,1.4-2.1,1.6-3.6h7.3c-0.2,3.4-1.6,6.1-3.8,8.1c-2.2,2-5.1,3-8.6,3
		c-4.1,0-7.2-1.2-9.5-3.7c-2.3-2.5-3.4-6-3.4-10.5c0-5.1,1.1-8.9,3.4-11.7c2.3-2.7,5.5-4,9.7-4c3.7,0,6.7,1,9,2.9
		C588.7,906.6,589.9,909.3,589.9,912.7"/>
	<path class="st1" d="M647.9,931.4h-7.3v-17.7v-0.9c0-1.3-0.4-2.3-1.2-3.1c-0.8-0.8-1.9-1.1-3.3-1.1c-1.7,0-3,0.6-4.1,1.7
		c-1.1,1.2-1.6,2.6-1.6,4.3v16.9H623V893h7.3v13.7c1.4-3,4.2-4.4,8.1-4.4c2.7,0,5,0.8,6.8,2.5c1.8,1.6,2.7,3.7,2.7,6.1v0.7V931.4z"
		/>
	<path class="st1" d="M709.9,918.8H691l0.3,0.7c0.5,4.1,2.5,6.2,6,6.2c2.6,0,4.1-1,4.7-3h7.5c-0.8,2.9-2.3,5.1-4.5,6.8
		c-2.2,1.6-4.9,2.4-8.1,2.4c-4.2,0-7.4-1.3-9.8-4c-2.3-2.6-3.5-6.4-3.5-11.2c0-4.8,1.2-8.5,3.4-11.1c2.3-2.6,5.6-3.9,9.8-3.9
		c4.2,0,7.5,1.3,9.6,4c2.3,2.7,3.3,6.7,3.3,11.9V918.8z M702.4,913.8c-0.5-4-2.4-5.9-5.6-5.9c-3.1,0-5,2-5.4,5.9H702.4z"/>
	<path class="st1" d="M709.9,918.8H691l0.3,0.7c0.5,4.1,2.5,6.2,6,6.2c2.6,0,4.1-1,4.7-3h7.5c-0.8,2.9-2.3,5.1-4.5,6.8
		c-2.2,1.6-4.9,2.4-8.1,2.4c-4.2,0-7.4-1.3-9.8-4c-2.3-2.6-3.5-6.4-3.5-11.2c0-4.8,1.2-8.5,3.4-11.1c2.3-2.6,5.6-3.9,9.8-3.9
		c4.2,0,7.5,1.3,9.6,4c2.3,2.7,3.3,6.7,3.3,11.9V918.8z M702.4,913.8c-0.5-4-2.4-5.9-5.6-5.9c-3.1,0-5,2-5.4,5.9H702.4z"/>
	<path class="st1" d="M759,931.2l-4,0.1c-5.2,0-7.8-1.7-7.8-5.1v-0.8v-17.6h-3.7v-5.4h3.7v-7.7h7.3v7.7h4.5v5.4h-4.5v15.8
		c0,1.3,0.8,2,2.4,2h2.1V931.2z"/>
	<path class="st1" d="M809.3,931.2l-4.1,0.1c-5.2,0-7.8-1.7-7.8-5.1v-0.8v-17.6h-3.7v-5.4h3.7v-7.7h7.3v7.7h4.6v5.4h-4.6v15.8
		c0,1.3,0.8,2,2.5,2h2.1V931.2z"/>
	<path class="st1" d="M870.6,918.8h-18.8l0.2,0.7c0.5,4.1,2.5,6.2,6,6.2c2.5,0,4.1-1,4.7-3h7.5c-0.8,2.9-2.2,5.1-4.4,6.8
		c-2.2,1.6-4.9,2.4-8.1,2.4c-4.2,0-7.4-1.3-9.8-4c-2.3-2.6-3.5-6.4-3.5-11.2c0-4.8,1.2-8.5,3.5-11.1c2.3-2.6,5.6-3.9,9.8-3.9
		c4.2,0,7.5,1.3,9.6,4c2.2,2.7,3.3,6.7,3.3,11.9V918.8z M863.1,913.8c-0.5-4-2.3-5.9-5.6-5.9c-3.1,0-5,2-5.5,5.9H863.1z"/>
	<path class="st1" d="M870.6,918.8h-18.8l0.2,0.7c0.5,4.1,2.5,6.2,6,6.2c2.5,0,4.1-1,4.7-3h7.5c-0.8,2.9-2.2,5.1-4.4,6.8
		c-2.2,1.6-4.9,2.4-8.1,2.4c-4.2,0-7.4-1.3-9.8-4c-2.3-2.6-3.5-6.4-3.5-11.2c0-4.8,1.2-8.5,3.5-11.1c2.3-2.6,5.6-3.9,9.8-3.9
		c4.2,0,7.5,1.3,9.6,4c2.2,2.7,3.3,6.7,3.3,11.9V918.8z M863.1,913.8c-0.5-4-2.3-5.9-5.6-5.9c-3.1,0-5,2-5.5,5.9H863.1z"/>
</g>
</svg>
