<?xml version="1.0" encoding="utf-8"?>
<!-- Generator: Adobe Illustrator 22.0.0, SVG Export Plug-In . SVG Version: 6.00 Build 0)  -->
<svg version="1.1" id="Calque_1" xmlns="http://www.w3.org/2000/svg" xmlns:xlink="http://www.w3.org/1999/xlink" x="0px" y="0px"
	 viewBox="0 0 8337.1 1080" style="enable-background:new 0 0 8337.1 1080;" xml:space="preserve">
<style type="text/css">
	.st0{fill:#000000;}
</style>
<g>
	<path class="st0" d="M6389.6,1042.1h882.6V129.3h-882.6V1042.1z M6406.4,146.6h849v878.1h-849V146.6z"/>
	<path class="st0" d="M6760.8,459c-4.6-0.6-9.2,0.6-13,3.3c-2.5,4.5-3.6,9.7-3,14.9v119.5l-15.4,11.9l-159.3,0.6
		c-3.6,0.1-7.2-1.2-9.9-3.6c-2.5-2.1-3.9-5.2-3.9-8.4v-26c0-3.1,1.5-6,3.9-8c2.7-2.3,6.3-3.6,9.9-3.4h89.6v-69.2
		c-0.4-13.1,1.4-26.1,5.3-38.6c3.1-9.7,8.9-18.3,16.8-24.7c8.9-6.8,19.3-11.4,30.3-13.4c15.1-2.9,30.4-4.2,45.7-4H6874
		c3.6-0.2,7.1,1,9.9,3.3c2.4,2,3.8,4.9,3.8,8v26.1c0,3.1-1.4,6-3.8,8c-2.7,2.3-6.3,3.6-9.9,3.4L6760.8,459z"/>
	<path class="st0" d="M6921.3,608.4c-3.5,0-6.8-1.1-9.6-3.2c-2.5-1.6-4-4.4-4.1-7.3V376.1c0.5-4.4-0.6-8.9-3-12.6
		c-3.6-2.7-8-3.8-12.4-3.3H6635c-3.6,0.2-7.1-0.9-9.9-3.1c-2.5-1.9-3.9-4.8-3.9-8v-23.9c0.1-2.9,1.6-5.6,4.1-7.2
		c2.8-1.9,6.2-2.9,9.6-2.9h260.5c15.3-0.2,30.7,1,45.8,3.7c10.9,1.7,21.3,6,30.3,12.3c7.7,5.8,13.5,13.7,16.6,22.9
		c3.6,11.6,5.3,23.7,4.9,35.8v173.9h99.1c3.6-0.1,7.1,1,10,3.1c2.3,1.8,3.7,4.5,3.8,7.4v23.9c-0.1,2.9-1.5,5.6-3.8,7.4
		c-2.9,2.2-6.4,3.3-10,3.2L6921.3,608.4z"/>
	<path class="st0" d="M6511.6,847.1c0,0.3,0,0.7,0,1c0,0.3,0.2,0.6,0.4,0.8h1c0.6,0.1,1.2,0.1,1.8,0v1.7h-8.7v-0.9
		c0.5,0.1,1,0.1,1.5,0c0.3-0.1,0.7-0.2,1-0.4c0-0.3,0-0.6,0-1c0.1-0.5,0.1-1.1,0-1.6v-16.6c0-0.5,0-0.8,0-1.1c0-0.2,0-0.4,0-0.6
		h-0.9h-1.7v-1.8h2.4c0.4-0.1,0.9-0.1,1.3,0h1.1h1.9h2h2.9c0.9,0.2,1.8,0.5,2.6,1c0.8,0.4,1.4,1,1.9,1.8c0.5,0.9,0.7,1.9,0.6,2.9
		c0.1,0.7,0.1,1.4,0,2.1c-0.3,0.6-0.6,1.2-1,1.8c-0.4,0.6-0.9,1.1-1.4,1.5c-0.6,0.4-1.2,0.8-1.9,1c0.5,1,1,1.9,1.5,2.9
		c0.5,1,1,1.8,1.4,2.5c0.3,0.7,0.7,1.3,1.1,2l0.8,1.4c0.2,0.4,0.5,0.7,0.9,1l0.6,0.6c0.3,0.1,0.6,0.1,1,0h1.4v1.4h-5.5l-0.7-1.5
		c-0.5-0.8-0.9-1.6-1.3-2.4l-1.5-2.9l-1.8-3.2v-0.4l0,0c-0.2-0.1-0.4-0.1-0.6,0c-0.3-0.1-0.6-0.1-0.9,0h-1.8L6511.6,847.1z
		 M6511.6,838.1h1.6c1.6,0.1,3.1-0.4,4.3-1.4c1.2-1.1,1.7-2.7,1.6-4.3c0.1-1.4-0.5-2.7-1.5-3.7c-1.1-0.8-2.5-1.3-3.9-1.2h-1.1
		c-0.2-0.1-0.4-0.1-0.6,0c0,0.2,0,0.5,0,0.7c0,0.3,0,0.6,0,0.9L6511.6,838.1z"/>
	<path class="st0" d="M6556.1,847.5c-0.4,0.6-0.9,1.2-1.5,1.7l-1.6,1l-1.4,0.5h-1c-0.8,0.1-1.7,0.1-2.5-0.1
		c-0.8-0.4-1.5-0.9-2.2-1.6c-0.6-0.7-1-1.5-1.4-2.3c-0.3-0.9-0.5-1.8-0.5-2.8c0-1.1,0.2-2.1,0.6-3.1c0.4-0.9,0.9-1.7,1.6-2.5
		c0.6-0.7,1.3-1.3,2.2-1.6c0.8-0.4,1.8-0.7,2.7-0.6c0.7-0.1,1.3-0.1,2,0c0.6,0.2,1.2,0.6,1.7,1c0.5,0.5,0.9,1,1.2,1.6
		c0.2,0.7,0.2,1.4,0,2.2v0.6c0,0.5,0,0.7-0.6,0.7h-9.1c0,1,0.1,1.9,0.5,2.9c0.3,0.8,0.7,1.5,1.3,2.1l1.6,1.1c1.2,0.4,2.6,0.4,3.8,0
		c0.7-0.4,1.3-0.9,1.8-1.4L6556.1,847.5z M6552.6,841h0.6c0.1-0.2,0.1-0.5,0-0.7c0.1-0.4,0.1-0.8,0-1.2c-0.1-0.4-0.4-0.7-0.6-1
		c-0.3-0.3-0.6-0.6-1-0.7c-0.8-0.4-1.7-0.4-2.5,0c-0.4,0.2-0.8,0.5-1.1,0.8c-0.3,0.4-0.6,0.8-0.8,1.3c-0.3,0.5-0.5,1.1-0.5,1.7
		L6552.6,841z"/>
	<path class="st0" d="M6584.1,840.3c0-0.5,0-0.9,0-1.4c-0.2-0.4-0.4-0.8-0.7-1.1l-1.2-0.8c-0.4-0.1-0.9-0.1-1.4,0
		c-0.3,0-0.6,0-0.9,0c-0.3,0.1-0.6,0.2-0.8,0.4l-0.5,0.7c-0.1,0.3-0.1,0.6,0,1c-0.1,0.3-0.1,0.7,0,1l0.8,0.8
		c0.4,0.3,0.8,0.5,1.2,0.6l1.3,0.6l1.4,0.7c0.5,0.2,1,0.4,1.4,0.8c0.4,0.3,0.7,0.7,0.9,1.2c0.3,0.5,0.4,1,0.4,1.5
		c0,0.7-0.1,1.4-0.6,2c-0.3,0.6-0.7,1.1-1.3,1.4c-0.5,0.4-1.1,0.6-1.7,0.8h-1.9h-1.4c-0.4,0-0.7,0-1.1,0h-1h-1c0-0.3,0-0.7,0-1
		c-0.1-0.4-0.1-0.9,0-1.4c0-0.4,0-0.9,0-1.3c0-0.3,0-0.6,0-0.9h0.9c0,0.6,0.5,1.1,0.6,1.7l1,1.4c0.4,0.4,0.8,0.7,1.3,1
		c0.6,0.1,1.2,0.1,1.8,0c0.6,0,1.1-0.2,1.6-0.6c0.5-0.4,0.7-1,0.7-1.6c0.1-0.4,0.1-0.8,0-1.2l-0.8-0.8l-1-0.7l-1.2-0.5l-1.5-0.7
		l-1.4-0.8c-0.3-0.4-0.6-0.8-0.9-1.2c-0.1-0.5-0.1-1.1,0-1.6c-0.2-0.6-0.2-1.3,0-1.9c0.3-0.6,0.7-1.1,1.3-1.4c0.5-0.3,1-0.6,1.6-0.7
		c0.6-0.1,1.3-0.1,1.9,0h1.9c0.7,0.1,1.4,0.1,2.2,0c-0.1,0.5-0.1,1,0,1.5c0,0.5,0,1,0,1.5v1.2L6584.1,840.3z"/>
	<path class="st0" d="M6608.8,831c0,0.4,0,0.8,0,1.4c0,0.5,0,1,0,1.5v2.5h4.1l0,0v1.3h-4.1v8c-0.1,0.5-0.1,1.1,0,1.6
		c0.1,0.4,0.2,0.7,0.5,1l0.8,0.6h0.9h1.2h1v1l-2.1,0.8c-0.7,0.1-1.4,0.1-2.1,0h-1.3c-0.4-0.1-0.8-0.3-1-0.6
		c-0.3-0.4-0.5-0.8-0.7-1.2c-0.1-0.6-0.1-1.2,0-1.8v-9.1h-2l0,0v-1h2.2v-4.5c0.3-0.1,0.5-0.1,0.8,0c0,0,0,0,0.7-0.5h0.6h0.5
		L6608.8,831z"/>
	<path class="st0" d="M6639.7,842.6v-2.2c0-0.7-0.2-1.4-0.6-2.1c-0.5-0.5-1.2-0.8-1.9-0.7c-0.4-0.1-0.8-0.1-1.2,0l-0.8,0.7
		c-0.1,0.3-0.1,0.6,0,0.9c-0.1,0.4-0.1,0.8,0,1.2c-0.3,0.1-0.6,0.1-1,0c-0.3,0.1-0.7,0.1-1,0c-0.3-0.2-0.5-0.5-0.5-0.8
		c-0.1-0.3-0.1-0.6,0-0.9l0.7-0.7l1.1-0.9c0.4-0.2,0.8-0.4,1.3-0.6c0.9-0.5,2-0.7,3-0.7h1.5c0.5,0.1,0.9,0.4,1.2,0.7
		c0.3,0.3,0.6,0.7,0.8,1.2c0.1,0.6,0.1,1.1,0,1.7c0,1,0,2.2,0,3.3c0,1.2,0,2.8,0,4.4c0,0.5,0.1,1.1,0.4,1.5c0.2,0.4,0.6,0.6,1,0.6
		c0.4,0.1,0.9,0.1,1.3,0v0.6c-0.4,0.4-0.8,0.7-1.4,0.9c-0.5,0.1-1.1,0.1-1.6,0c-0.5,0-1.1-0.2-1.5-0.5c-0.6-0.4-0.9-1-1-1.7
		l-0.7,0.6l-1.2,0.7c-0.5,0.2-0.9,0.5-1.4,0.6c-0.4,0.1-0.9,0.1-1.4,0c-0.5,0.1-1,0.1-1.4,0c-0.4-0.2-0.8-0.5-1.1-0.9
		c-0.3-0.3-0.5-0.7-0.7-1.1c-0.1-0.5-0.1-1,0-1.4c0-0.8,0.2-1.5,0.7-2.2c0.5-0.6,1.1-1.1,1.8-1.4l2.2-0.7l3.3-0.6 M6639.7,847.4
		c0-0.7,0-1.4,0-2.1v-2.1c-0.4,0-0.9,0-1.3,0c-0.4-0.1-0.9-0.1-1.3,0l-1.2,0.4c-0.4,0.1-0.7,0.3-1,0.6c-0.4,0.3-0.6,0.8-0.6,1.4
		c-0.1,0.6,0.1,1.3,0.5,1.8c0.4,0.5,1,0.8,1.6,0.8c0.6,0,1.1-0.2,1.6-0.5c0.5-0.2,1.1-0.6,1.5-1"/>
	<path class="st0" d="M6673.9,850.6c0-0.3,0-0.7,0-1c0-0.3,0-0.7,0-1c-0.8,0.7-1.7,1.4-2.7,1.8c-0.9,0.4-1.8,0.6-2.8,0.6
		c-0.5,0.1-1.1,0.1-1.6,0c-0.5-0.2-0.9-0.6-1.3-1c-0.4-0.5-0.6-1.1-0.8-1.7c-0.1-0.8-0.1-1.6,0-2.4v-6.9c0-0.2,0-0.4,0-0.6
		c-0.2-0.1-0.4-0.1-0.6,0h-1.2v-0.6h1.5h1.4h1.1h0.8l0,0c0,0.5,0,0.9,0,1.4c0,0.5,0,1,0,1.4v6.1c-0.1,0.6-0.1,1.3,0,1.9
		c0.2,0.5,0.4,0.9,0.6,1.4c0.2,0.3,0.5,0.5,0.9,0.6c0.4,0.1,0.8,0.1,1.2,0c0.7,0.1,1.3,0.1,2,0c0.7-0.3,1.4-0.7,2-1.2v-8
		c0,0,0-0.8,0-1c0-0.2,0-0.4,0-0.6c-0.2-0.1-0.5-0.1-0.7,0h-1.3V839h1.6h1.4h1.2h0.7l0,0c0,0.4,0,0.9,0,1.4s0,1,0,1.4
		c0,0.4,0,0.9,0,1.3v6.8c0,0.4,0,0.7,0,1.1c0,0.2,0,0.4,0,0.6c0.2,0.1,0.5,0.1,0.7,0h1.3v0.6h-1.4h-1.5h-1.2h-0.8L6673.9,850.6z"/>
	<path class="st0" d="M6705.5,850.6h-8v-0.8h1.2c0,0,0.6,0,0.7,0c0.1-0.3,0.1-0.7,0-1c0.1-0.5,0.1-1,0-1.5v-6.4
		c0.1-0.4,0.1-0.7,0-1.1c0-0.2,0-0.4,0-0.6c0,0,0,0-0.6-0.4h-1.3v-0.7c0.5,0,0.9,0,1.4,0h1.4c0.4,0,0.8-0.2,1.2-0.4h1l0,0
		c0,0.5,0,1,0,1.5c0,0.6,0,1,0,1.5c0.4-0.6,0.9-1.1,1.4-1.6l1.1-1l1-0.6h0.9c0.4-0.1,0.7-0.1,1.1,0c0.4,0.2,0.6,0.7,0.6,1.1
		c0,0.4-0.2,0.8-0.5,1.1c-0.3,0.4-0.8,0.8-1.3,1l-0.9-0.6h-1c-0.4,0-0.8,0.2-1.1,0.5c-0.5,0.4-0.9,0.9-1.1,1.4c0,0.2,0,0.3,0,0.5
		c0,0,0,0.4,0,0.6v6.1c0,0,0,0.7,0,0.9c0,0.2,0,0.6,0.4,0.6h1h1.6L6705.5,850.6z"/>
	<path class="st0" d="M6734.7,842.6v-2.2c0-0.7-0.1-1.5-0.6-2.1c-0.5-0.5-1.1-0.8-1.8-0.7c-0.4-0.1-0.9-0.1-1.3,0l-0.8,0.7l-0.5,0.9
		c0,0.4,0,0.8,0,1.2c-0.4,0.1-0.7,0.1-1.1,0c-0.3,0.1-0.7,0.1-1,0c-0.3-0.2-0.5-0.5-0.5-0.8c-0.1-0.3-0.1-0.6,0-0.9l0.8-0.7
		c0.3-0.3,0.7-0.6,1.1-0.9c0.4-0.2,0.8-0.4,1.2-0.6c1-0.4,2-0.7,3.1-0.7h1.5c0.4,0.1,0.8,0.4,1,0.7c0.4,0.3,0.7,0.7,0.9,1.2
		c0.1,0.6,0.1,1.1,0,1.7c0,1,0,2.2,0,3.3v4.4c-0.2,0.5-0.2,1,0,1.5c0.2,0.4,0.6,0.6,1,0.6c0.4,0.1,0.9,0.1,1.3,0v0.6
		c-0.4,0.4-0.8,0.7-1.4,0.9c-0.6,0.1-1.1,0.1-1.7,0c-0.5,0-1-0.2-1.4-0.5c-0.5-0.4-0.9-1-1-1.7l-0.8,0.6l-1,0.7l-0.5,0.8
		c-0.4,0.1-0.9,0.1-1.4,0c-0.5,0.1-1,0.1-1.4,0c-0.4-0.2-0.8-0.5-1.1-0.9c-0.3-0.3-0.6-0.7-0.7-1.1c-0.1-0.5-0.1-1,0-1.4
		c0-0.8,0.2-1.5,0.7-2.2c0.5-0.6,1.1-1.1,1.8-1.4l2.1-1l3.3-0.6 M6734.7,847.3v-4.1c-0.4,0-0.9,0-1.3,0c-0.4-0.1-0.9-0.1-1.3,0
		l-1.1,0.4c-0.4,0.1-0.8,0.3-1,0.6c-0.4,0.3-0.6,0.8-0.6,1.4c-0.1,0.6,0.1,1.3,0.5,1.8c0.4,0.5,1,0.8,1.6,0.8c0.6,0,1.1-0.2,1.6-0.5
		c0.6-0.2,1.1-0.6,1.6-1"/>
	<path class="st0" d="M6765.1,850.6h-7.2v-0.8h1.3c0.3-0.1,0.6-0.3,0.8-0.6c0.1-0.3,0.1-0.5,0-0.8v-9v-0.6l-0.7-0.4h-1.2v-0.7
		c0,0,0.8,0,1.3,0h1.3c0.4-0.1,0.8-0.2,1.2-0.4h1l0,0c0,0.5,0,0.7,0,1s0,0.7,0,1c0.8-0.7,1.8-1.2,2.8-1.6c0.8-0.4,1.8-0.6,2.7-0.6
		c0.5-0.1,1.1-0.1,1.6,0c0.5,0.2,1,0.5,1.4,0.9c0.4,0.5,0.7,1,0.9,1.6c0.1,0.8,0.1,1.5,0,2.3v6.8c0,0.3,0,0.6,0,0.9v0.6
		c0,0,0,0,0.6,0h1.2v0.4h-7v-0.8h1.1c0.2,0.1,0.5,0.1,0.7,0c0-0.3,0-0.6,0-0.9c0-0.5,0-1,0-1.5v-5.2c0.1-1-0.2-2.1-0.9-2.9
		c-0.5-0.6-1.3-0.9-2.1-0.9c-0.7-0.1-1.3-0.1-2,0c-0.7,0.3-1.4,0.6-2.1,1.1v8.4c0,0,0,0.7,0,0.9s0,0.6,0,0.6c0.2,0.1,0.5,0.1,0.7,0
		h1.3L6765.1,850.6z"/>
	<path class="st0" d="M6797.7,831c0,0.4,0,0.8,0,1.4v2.9c0,0.4,0,0.7,0,1.1h4.1l0,0v1.3h-4.2v8c-0.1,0.5-0.1,1.1,0,1.6
		c0.1,0.4,0.3,0.7,0.6,1c0.2,0.2,0.4,0.4,0.7,0.6h1h1.1h1.1v1l-1.9,0.8c-0.7,0.1-1.4,0.1-2.1,0h-1.4c-0.4-0.1-0.7-0.4-1-0.6
		c-0.3-0.3-0.6-0.7-0.7-1.2c-0.1-0.6-0.1-1.2,0-1.8v-9.1h-2.2v-1.2h2.2v-4.5h0.8l0.7-0.5h0.6h0.5L6797.7,831z"/>
	<polygon class="st0" points="6819.9,843.2 6820.1,843.4 6828.9,842.6 6828.9,841.7 6820.1,841.6 	"/>
	<path class="st0" d="M6847.6,826.7h2c0.4-0.1,0.8-0.1,1.2,0h1.3h2.2h2.5c1-0.1,1.9-0.1,2.9,0c0.9,0.1,1.7,0.4,2.5,1
		c0.7,0.4,1.3,1,1.7,1.7c0.5,0.8,0.7,1.7,0.6,2.6c0,0.8-0.1,1.5-0.4,2.2c-0.3,0.5-0.6,1.1-1,1.5l-1.5,1l-1.4,0.7
		c1.6,0.1,3,0.9,4.1,2c1,1.2,1.5,2.7,1.4,4.2c0,1.1-0.3,2.3-0.8,3.3c-0.5,0.9-1.2,1.6-2.1,2.2c-0.9,0.6-1.9,1-2.9,1.3
		c-1.1,0.1-2.2,0.1-3.3,0c-0.8,0.1-1.6,0.1-2.4,0h-2.4h-4.1v-0.9c0.5,0.1,1.1,0.1,1.6,0c0.3-0.1,0.7-0.2,1-0.4
		c0.3-0.3,0.4-0.6,0.5-1c0,0,0-1,0-1.6v-16.6c0,0,0-0.8,0-1s0-0.5,0-0.6c-0.4-0.1-0.7-0.1-1.1,0h-1.6L6847.6,826.7z M6853.4,837.2h2
		c1.5,0.2,3-0.2,4.3-1.1c1-0.9,1.6-2.2,1.5-3.5c0.1-0.6,0.1-1.1,0-1.7c-0.2-0.5-0.4-1-0.8-1.4c-0.5-0.5-1-0.9-1.7-1.2
		c-0.9-0.2-1.8-0.2-2.7,0h-1.4h-0.6v0.6v8L6853.4,837.2z M6853.4,846.7c-0.1,0.4-0.1,0.9,0,1.4c-0.1,0.3-0.1,0.6,0,0.9
		c0.3,0.1,0.6,0.1,1,0h1.8c1.4,0.1,2.9-0.4,4-1.3c1.1-1,1.7-2.4,1.6-3.9c0-0.9-0.2-1.8-0.6-2.6c-0.3-0.7-0.8-1.3-1.4-1.8
		c-0.7-0.5-1.4-0.9-2.2-1.1c-0.9-0.1-1.9-0.1-2.8,0h-1.9L6853.4,846.7z"/>
	<path class="st0" d="M6892.5,842.6v-2.2c0-0.7-0.1-1.5-0.6-2.1c-0.4-0.5-1.1-0.8-1.8-0.7c-0.4-0.1-0.9-0.1-1.3,0l-0.8,0.7
		c-0.2,0.3-0.4,0.6-0.5,0.9c0,0.4,0,0.8,0,1.2c-0.3,0.1-0.7,0.1-1,0h-1c-0.4,0-0.6-0.5-0.6-0.8c0-0.3,0.1-0.7,0.4-0.9
		c0.2-0.3,0.5-0.5,0.8-0.7c0.3-0.3,0.6-0.6,1-0.9l1.2-0.6c1-0.5,2.1-0.7,3.2-0.7h1.4c0.5,0.1,0.9,0.4,1.3,0.7
		c0.3,0.4,0.5,0.8,0.7,1.2c0.1,0.6,0.1,1.1,0,1.7c0,1,0,2.2,0,3.3v4.4c-0.1,0.5-0.1,1,0,1.5c0.2,0.3,0.6,0.6,1,0.6
		c0.4,0.1,0.8,0.1,1.2,0l0.6,0.6c-0.4,0.4-0.9,0.7-1.4,0.9c-0.6,0.1-1.1,0.1-1.7,0c-0.5,0-1.1-0.2-1.5-0.5c-0.5-0.4-0.9-1-1-1.7
		l-0.7,0.6l-1.2,0.7l-1.4,0.6h-1.4c-0.5,0.1-1,0.1-1.4,0c-0.4-0.2-0.8-0.5-1.1-0.9c-0.3-0.3-0.6-0.7-0.7-1.1c-0.1-0.5-0.1-1,0-1.4
		c0-0.8,0.2-1.5,0.6-2.2c0.6-0.6,1.2-1,1.9-1.4l2.2-0.7l3.3-0.6 M6892.4,847.4c0-0.7,0-1.4,0-2.1v-2.1c-0.4,0-0.9,0-1.3,0
		c-0.4-0.1-0.9-0.1-1.4,0l-1.2,0.4c-0.3,0.1-0.6,0.4-0.9,0.6c-0.4,0.3-0.6,0.8-0.6,1.4c0,0.6,0.1,1.3,0.5,1.8c0.4,0.5,1,0.8,1.6,0.8
		c0.6,0,1.2-0.2,1.7-0.5c0.5-0.3,1-0.6,1.4-1"/>
	<path class="st0" d="M6923.6,850.6h-8v-0.8h1.3h0.7c0.1-0.3,0.1-0.7,0-1v-9c0-0.2,0-0.4,0-0.6l-0.6-0.4h-1.3v-0.7
		c0.5,0,0.8,0,1.4,0h1.4c0.4-0.1,0.8-0.2,1.2-0.4h0.9l0,0c0,0.5,0,1,0,1.5v1.5c0.4-0.6,0.9-1.1,1.4-1.6c0.3-0.4,0.7-0.7,1.1-1l1-0.6
		h0.8h1.2c0.3,0.3,0.5,0.7,0.5,1.1c0.1,0.4,0.1,0.7,0,1.1c-0.4,0.4-0.9,0.8-1.4,1l-0.9-0.6h-1c-0.4,0-0.8,0.2-1.1,0.5
		c-0.5,0.3-0.9,0.8-1.1,1.4c0,0,0,0,0,0.5v6.7c0,0,0,0.7,0,0.9c0,0.2,0,0.6,0,0.6h1h1.6V850.6z"/>
	<polygon class="st0" points="6944.2,843.2 6944.4,843.4 6953.3,842.6 6953.3,841.7 6944.4,841.6 	"/>
	<path class="st0" d="M6980.8,827.4h-1.6c-0.4,0.1-0.7,0.2-1,0.5c-0.1,0.3-0.1,0.6,0,1c-0.1,0.5-0.1,1,0,1.5v15.9c0,0.5,0,1,0,1.4
		c0,0,0,0.6,0.5,0.8c0.2,0.3,0.5,0.5,0.9,0.5h1.6h1.3c0.7,0.1,1.5,0.1,2.2,0c0.6-0.1,1.1-0.4,1.5-0.7c0.4-0.5,0.8-1,1-1.6
		c0.4-0.7,0.7-1.4,1-2.2h0.9c0,0,0,1,0,1.5c0,0.5,0,1.1,0,1.6c-0.1,0.5-0.1,1,0,1.5c0,0.4,0,0.7,0,1.1h-15.9v-0.9
		c0.6,0.1,1.1,0.1,1.7,0c0.3-0.1,0.7-0.2,1-0.4c0.2-0.3,0.4-0.7,0.4-1c0.1-0.5,0.1-1,0-1.5v-16.6c0-0.4,0-0.7,0-1.1
		c0-0.2-0.2-0.5-0.4-0.6c-0.3-0.1-0.6-0.1-1,0h-1.7v-1h2.1c0.4-0.1,0.9-0.1,1.4,0h2.3c0.4-0.1,0.7-0.1,1.1,0h1.9L6980.8,827.4z"/>
	<path class="st0" d="M7007.1,843.4c0.1-1,0.3-2.1,0.6-3c0.4-0.9,0.8-1.7,1.4-2.4c0.7-0.7,1.5-1.3,2.4-1.7c0.9-0.4,1.8-0.6,2.8-0.6
		c1,0,2,0.2,2.9,0.6c0.9,0.4,1.7,0.9,2.3,1.6c0.6,0.7,1.1,1.5,1.4,2.3c0.8,1.9,0.8,4,0,5.9c-0.3,0.9-0.8,1.7-1.4,2.5
		c-0.7,0.6-1.5,1.2-2.3,1.7c-0.9,0.3-1.9,0.5-2.9,0.6c-1,0-2-0.2-2.9-0.6c-0.8-0.4-1.6-0.9-2.2-1.6c-0.6-0.7-1.2-1.4-1.5-2.3
		C7007.4,845.4,7007.2,844.4,7007.1,843.4 M7015.1,849.6c0.6,0,1.3-0.2,1.8-0.5c0.5-0.4,0.9-0.9,1.3-1.4c0.3-0.6,0.5-1.2,0.6-1.8
		c0.1-0.6,0.1-1.3,0-1.9c0.1-0.8,0.1-1.6,0-2.5c-0.1-0.8-0.4-1.6-0.8-2.3c-0.3-0.6-0.8-1.2-1.4-1.6c-0.6-0.5-1.3-0.7-2.1-0.6
		c-0.7,0-1.3,0.1-1.9,0.5c-0.5,0.4-0.9,0.9-1.2,1.4c-0.3,0.6-0.6,1.2-0.7,1.8c-0.1,0.7-0.1,1.3,0,2c-0.1,0.8-0.1,1.6,0,2.4
		c0.2,0.8,0.4,1.5,0.8,2.2c0.3,0.7,0.8,1.3,1.4,1.8C7013.6,849.4,7014.3,849.6,7015.1,849.6"/>
	<path class="st0" d="M7051.7,850.6c0,0,0-0.6,0-1v-1c-0.8,0.8-1.7,1.4-2.6,1.8c-0.9,0.4-1.8,0.6-2.8,0.6c-0.5,0.1-1.1,0.1-1.6,0
		c-0.5-0.2-0.9-0.6-1.3-1c-0.4-0.5-0.7-1-0.9-1.7c-0.1-0.8-0.1-1.6,0-2.4v-5.9c0-0.3,0-0.7,0-1v-0.6c0,0,0,0-0.6,0h-1.2v-0.6h1.4
		h1.5h1.1h0.7l0,0c0,0.4,0,0.9,0,1.4v1.4c0,0,0,0.9,0,1.3c0,0.3,0,0.7,0,1v3.7c-0.1,0.6-0.1,1.3,0,1.9c0.2,0.5,0.3,0.9,0.6,1.4
		c0.3,0.3,0.6,0.5,1,0.6c0.3,0.1,0.7,0.1,1,0c0.7,0.1,1.3,0.1,2,0c0.7-0.3,1.4-0.7,2-1.2v-8c0-0.3,0-0.7,0-1c0.1-0.2,0.1-0.4,0-0.6
		c-0.2-0.1-0.4-0.1-0.6,0h-1.4V839h1.7h1.4h1.2h0.6l0,0c0,0.5,0,0.9,0,1.4c0,0.5,0,0.9,0,1.4v1.3c0,0.4,0,0.7,0,1v5.8
		c0,0.4,0,0.7,0,1.1c0,0.2,0,0.4,0,0.6c0.3,0.1,0.5,0.1,0.8,0h1.3v0.6h-1.4h-1.4h-1.2c-0.3,0.1-0.6,0.1-0.9,0L7051.7,850.6z"/>
	<path class="st0" d="M7082.5,850.6h-7.2v-0.8h1.3c0.3-0.1,0.6-0.3,0.8-0.6c0,0,0,0,0-0.8c0.1-0.5,0.1-1,0-1.5v-6.4
		c0-0.4,0-0.7,0-1.1c0.1-0.2,0.1-0.4,0-0.6l-0.6-0.4h-1.2v-0.7c0,0,0.8,0,1.3,0h1.4c0.4-0.1,0.8-0.2,1.2-0.4h0.9l0,0
		c0,0.3,0,0.7,0,1c0,0,0,0.7,0,1c0.8-0.7,1.8-1.2,2.8-1.6c0.9-0.4,1.8-0.6,2.8-0.6c0.5-0.1,1-0.1,1.5,0c0.5,0.2,1,0.5,1.4,0.9
		c0.4,0.5,0.6,1,0.9,1.6c0.1,0.8,0.1,1.5,0,2.3v6.8c0,0,0,0.7,0,0.9s0,0.6,0,0.6c0.2,0.1,0.4,0.1,0.6,0h1.2v0.4h-7v-0.8h1.3h0.7
		c0-0.3,0-0.6,0-0.9c0.1-0.5,0.1-1,0-1.5v-5.2c0.1-1-0.2-2.1-0.9-2.9c-0.6-0.6-1.4-0.9-2.2-0.9c-0.6-0.1-1.2-0.1-1.8,0
		c-0.8,0.2-1.5,0.6-2.2,1.1v8.4c0,0,0,0.7,0,0.9s0,0.6,0,0.6h0.7h1.2L7082.5,850.6z"/>
	<path class="st0" d="M7111.1,841.5c0-0.8,0.2-1.6,0.5-2.3c0.3-0.7,0.8-1.3,1.4-1.8c0.5-0.5,1.1-1,1.8-1.3c0.8-0.1,1.5-0.1,2.3,0
		c1.2-0.1,2.3,0.2,3.3,0.8l0,0h1.1h3.7l0,0v1.4h-3.4c0.7,0.8,1,1.8,1,2.9c0,0.9-0.2,1.8-0.6,2.5c-0.3,0.7-0.8,1.4-1.4,1.9
		c-0.6,0.5-1.2,0.9-2,1.1c-0.7,0.1-1.4,0.1-2.2,0h-1.9c-0.4,0.1-0.8,0.4-1,0.8c-0.1,0.3-0.1,0.6,0,1c-0.1,0.2-0.1,0.4,0,0.6
		c0.2,0.2,0.3,0.4,0.6,0.5h0.8h4.5h2c0.6,0.1,1.2,0.4,1.8,0.7c0.5,0.3,0.9,0.7,1.2,1.3c0.4,0.6,0.6,1.4,0.5,2.2c0,1-0.2,2-0.6,2.9
		c-0.4,0.9-1.1,1.7-1.8,2.4c-0.9,0.7-1.9,1.3-2.9,1.6c-1.1,0.4-2.4,0.6-3.6,0.6c-0.7,0.1-1.4,0.1-2.1,0c-0.7-0.1-1.4-0.4-2-0.8
		c-0.6-0.4-1.1-0.9-1.4-1.5c-0.4-0.6-0.7-1.3-0.7-2c0-0.6,0.1-1.1,0.4-1.6c0.2-0.5,0.5-0.9,0.8-1.3c0.4-0.4,0.7-0.8,1.1-1.1l1.3-0.9
		c-0.6-0.2-1.2-0.6-1.7-1c-0.5-0.3-0.8-0.9-0.7-1.5c-0.1-0.3-0.1-0.6,0-1l0.8-0.9l0.7-0.9c0,0,0.5-0.5,0.7-0.6
		c-1.7-0.9-2.8-2.7-2.6-4.7 M7117,852.4h-1.3h-0.9h-0.6h-0.5c-0.5,0.4-0.9,0.9-1.1,1.4c-0.1,0.6-0.1,1.2,0,1.8
		c0,0.6,0.1,1.2,0.4,1.7c0.3,0.5,0.8,0.9,1.3,1.1c0.5,0.3,1.1,0.5,1.7,0.6h1.8c0.7,0.1,1.3,0.1,2,0c0.6,0,1.3-0.2,1.8-0.4
		c0.5-0.4,0.9-0.8,1.2-1.3c0.3-0.7,0.4-1.4,0.4-2.1c0-0.6-0.1-1.2-0.4-1.7c-0.3-0.5-0.8-0.8-1.3-1.1h-1.6h-2.4L7117,852.4z
		 M7117,845.9c0.4,0.1,0.9,0.1,1.3,0c0.4-0.2,0.7-0.5,0.9-0.9c0.3-0.4,0.5-0.9,0.6-1.4c0.1-0.5,0.1-1,0-1.4c0.1-0.6,0.1-1.2,0-1.8
		c-0.1-0.6-0.3-1.1-0.6-1.6c-0.2-0.5-0.6-0.9-1-1.3c-0.5-0.1-1.1-0.1-1.6,0c-0.4-0.1-0.9-0.1-1.3,0c-0.4,0.2-0.7,0.6-1,1
		c-0.2,0.4-0.4,0.8-0.5,1.3c0,0.5,0,1,0,1.5c-0.1,0.6-0.1,1.2,0,1.8l0.5,1.6c0.3,0.5,0.7,0.9,1.1,1.2c0.4,0.3,1,0.5,1.5,0.5"/>
	<path class="st0" d="M7155.9,847.5c-0.4,0.6-1,1.2-1.6,1.7l-1.6,1l-1.4,0.5h-0.9c-1,0-2-0.2-2.9-0.6c-0.8-0.4-1.5-0.9-2.1-1.6
		c-0.6-0.7-1.1-1.4-1.4-2.3c-0.4-0.9-0.6-1.8-0.6-2.8c0-1.1,0.2-2.1,0.6-3.1c0.4-0.9,0.9-1.7,1.6-2.5c0.6-0.7,1.4-1.2,2.2-1.6
		c0.8-0.4,1.7-0.7,2.6-0.6c0.7-0.1,1.4-0.1,2.1,0c0.6,0.3,1.1,0.6,1.7,1c0.5,0.5,0.8,1,1.1,1.6c0.3,0.7,0.5,1.4,0.5,2.2v0.6
		c0,0.4-0.4,0.7-0.8,0.7h-9c0,1,0.2,2,0.6,2.9c0.3,0.7,0.7,1.4,1.2,2.1c0.5,0.4,1.1,0.8,1.8,1.1c1.2,0.4,2.4,0.4,3.6,0
		c0.7-0.3,1.4-0.8,1.9-1.4L7155.9,847.5z M7152.3,841h0.6c0.1-0.2,0.1-0.5,0-0.7c0.1-0.4,0.1-0.8,0-1.2c-0.1-0.4-0.4-0.7-0.6-1
		c-0.2-0.3-0.6-0.6-1-0.7c-0.4-0.1-0.9-0.1-1.4,0c-0.4-0.1-0.7-0.1-1.1,0c-0.4,0.2-0.8,0.5-1.1,0.8l-0.9,1.3
		c-0.3,0.5-0.4,1.1-0.5,1.7L7152.3,841z"/>
	<path class="st0" d="M7060.9,755h34c1.1,0.1,2.1-0.3,2.9-1c0.8-0.6,1.2-1.4,1.3-2.4v-8c0-1-0.5-1.8-1.3-2.4
		c-0.8-0.7-1.8-1.2-2.9-1.1h-35c-4.6,0-9.2,0.4-13.8,1.3c-3.3,0.6-6.4,2-9.1,4c-2.4,1.9-4.1,4.5-5.1,7.4c-1.1,3.8-1.7,7.7-1.6,11.6
		v20.9h-14.5v-89.5h-18.2v104.6h53.8l4.7-3.6v-36.1c-0.1-1.5,0.2-3.1,0.9-4.5c1.1-0.9,2.5-1.2,3.9-1"/>
	<path class="st0" d="M7175.4,785.2h-29.9v-56.9c0.1-3.9-0.4-7.8-1.4-11.6c-0.8-3-2.6-5.6-5-7.5c-2.7-2.1-5.8-3.5-9.1-4.1
		c-4.5-0.8-9.2-1.2-13.8-1.2h-78.4c-1.1-0.1-2.1,0.3-2.9,1c-0.8,0.5-1.3,1.3-1.3,2.2v8c0,1,0.5,1.9,1.3,2.5c0.8,0.7,1.9,1.1,2.9,1
		h77.4c1.3-0.2,2.6,0.2,3.7,1c0.7,1.2,1.1,2.7,1,4.1v73c0,1,0.4,1.9,1.2,2.5c0.8,0.7,1.9,1.1,2.9,1h51.4c1.1,0.1,2.2-0.3,3-1
		c0.7-0.6,1.1-1.5,1.1-2.5v-8c0-0.9-0.4-1.8-1.1-2.3c-0.8-0.8-1.9-1.2-3-1.1"/>
	<rect x="6790.7" y="695.3" class="st0" width="18.1" height="123"/>
	<path class="st0" d="M6940.8,693.4c-4.8,0.1-9.5,1.2-13.8,3.3c-2.9,1.4-5.6,3.3-8,5.6c-3.3,3.2-6.4,6.5-9.4,10
		c-3.7-12.3-15.5-20.2-28.3-18.8c-11.4,0.6-21.9,6.5-28.3,15.9v-13.5h-18.2v104.6h18.1v-74.9c8.4-11.1,16.9-16.7,25.6-16.7
		c4.7-0.4,9.3,1.6,12.1,5.5c2.9,5.7,4.2,12.1,3.7,18.5v67.6h17.9v-74.9c8-11.1,17-16.7,25.6-16.7c4.7-0.4,9.4,1.6,12.2,5.5
		c2.8,5.7,4,12.1,3.5,18.5v67.6h18V732c0-25.7-10.3-38.6-31-38.5"/>
	<rect x="6997.6" y="655.5" class="st0" width="18.1" height="20.1"/>
	<polygon class="st0" points="6734.5,734.7 6772.7,695.6 6750.2,695.6 6711.2,737.8 6711.2,675.4 6711.2,675.4 6711.2,655.9
		6711.2,655.9 6706.2,655.9 6693.2,655.9 6693.2,800.3 6711.2,800.3 6711.2,758.8 6722.4,747.2 6755.2,800.3 6776.6,800.3 	"/>
	<rect x="6808.8" y="655.5" class="st0" width="173.9" height="19.6"/>
	<path class="st0" d="M6580.5,738.6h-35.9c-4.7-0.1-9.5,0.3-14.1,1.3c-3.4,0.6-6.6,2-9.4,4.1c-2.5,2.1-4.3,4.8-5.2,8
		c-1.2,3.8-1.8,7.8-1.7,11.9v21.4h-27.7c-1.1-0.1-2.2,0.3-3,1c-0.7,0.6-1.1,1.5-1.2,2.5v8c0,1,0.5,2,1.2,2.6c0.8,0.7,1.9,1.1,3,1.1
		h49.3l4.9-3.9v-37c-0.2-1.6,0.1-3.1,0.9-4.5c1.1-0.8,2.6-1.2,4-1h35c1.1,0,2.2-0.3,3.1-1c0.7-0.6,1.1-1.5,1.1-2.5v-8
		c0-0.9-0.4-1.8-1.1-2.4c-0.9-0.8-2-1.2-3.1-1.1"/>
	<path class="st0" d="M6648.7,655.5v129.3h-15.9v-58c0.1-4.1-0.4-8.1-1.5-12c-0.8-3.1-2.7-5.9-5.2-8c-2.7-2.1-5.8-3.5-9.2-4.1
		c-4.6-0.9-9.4-1.3-14.1-1.2h-79.6c-1.1,0-2.2,0.3-3,1c-0.8,0.5-1.3,1.4-1.2,2.4v8c-0.1,1,0.4,1.9,1.1,2.5c0.9,0.7,2,1.1,3.1,1.1
		h78.9c1.4-0.2,2.7,0.2,3.8,1c0.8,1.2,1.2,2.7,1,4.1v74.6c0,1,0.4,1.9,1.1,2.5c0.8,0.7,1.9,1.1,3,1h55.7V655.5H6648.7z"/>
	<path class="st0" d="M7406.8,1041.7h883.3V127h-883.3V1041.7z M7422.3,142.6h852.1v883.2h-852.1V142.6z"/>
	<path class="st0" d="M5373,1041.7h883.2V127H5373V1041.7z M5388.4,142.6h852.1v883.2h-852.1V142.6z"/>
	<path class="st0" d="M4902.6,184.3c0,0-113.8,15-118.7,257.8s-84.7,383.1-164.6,379.3l-6.1,10c0,0,17,2.5,19.4,10
		c0,0,177.9-35,192.4-388C4825.1,453.4,4813,238.4,4902.6,184.3"/>
	<path class="st0" d="M4897.7,422.1c0.1,6.8-5.2,12.4-12,12.5c0,0,0,0,0,0h-33.8c-6.9,0-12.5-5.6-12.5-12.5
		c0-6.9,5.6-12.5,12.5-12.5l0,0h33.9c6.8,0.1,12.2,5.7,12,12.5c0,0,0,0,0,0"/>
	<path class="st0" d="M4896.5,455.9c0.1,6.8-5.3,12.4-12.1,12.5h-33.8c-6.9-0.6-12.1-6.6-11.5-13.5c0.5-6.2,5.4-11.1,11.5-11.5h33.8
		C4891.2,443.5,4896.6,449.1,4896.5,455.9C4896.5,455.9,4896.5,455.9,4896.5,455.9"/>
	<path class="st0" d="M4895.3,489.7c0.1,6.8-5.3,12.3-12,12.5h-33.9c-6.9,0-12.5-5.6-12.5-12.5c0-6.9,5.6-12.5,12.5-12.5l0,0h33.9
		C4890.1,477.3,4895.4,482.9,4895.3,489.7C4895.3,489.7,4895.3,489.7,4895.3,489.7"/>
	<path class="st0" d="M4886.9,523.5c0.1,6.8-5.2,12.4-12,12.5c0,0-0.1,0-0.1,0h-33.9c-6.9,0-12.5-5.6-12.5-12.5
		c0-6.9,5.6-12.5,12.5-12.5l0,0h33.9C4881.5,511,4887,516.6,4886.9,523.5C4886.9,523.4,4886.9,523.4,4886.9,523.5"/>
	<polygon class="st0" points="4438.2,946.1 4433.3,946.1 4433.3,984.6 4456.7,984.6 4456.7,979.9 4438.2,979.9 	"/>
	<path class="st0" d="M4514.6,983.8h-1.6h-1.2c-2,0.3-3.9-1.1-4.1-3.1c0-0.3,0-0.6,0-0.8c-1.3,1.3-2.7,2.5-4.3,3.3
		c-1.4,0.7-2.9,1-4.4,1c-2.3,0.2-4.5-0.6-6.2-2.1c-1.6-1.5-2.4-3.5-2.3-5.7c-0.1-1.7,0.4-3.3,1.3-4.8c1-1.4,2.4-2.4,4-2.9l1.9-0.6
		h2.5c2.1,0,4.3-0.4,6.3-1.1c0.7,0,1.1-1.2,1.1-2.5c0-2.9-2-4.5-5.9-4.5c-2.9-0.3-5.6,1.8-5.9,4.7c0,0.1,0,0.2,0,0.4h-4
		c-0.1-2.5,0.9-4.8,2.7-6.5c2.3-1.7,5.1-2.5,8-2.2c2.5-0.1,5,0.5,7.1,1.9c1.7,1.3,2.7,3.3,2.6,5.5v15.1c0,1.1,0.5,1.6,1.4,1.6h1.4
		L4514.6,983.8z M4507.5,970.5L4507.5,970.5c-0.8,0.5-1.6,0.7-2.5,0.8l-4.5,0.6c-3.3,0.5-5,2-5,4.3c-0.3,2.2,1.2,4.2,3.4,4.5
		c0.4,0,0.7,0,1.1,0c1.5,0,3.1-0.3,4.5-1c1.3-0.7,2.4-1.7,3.1-2.9c0.2-0.7,0.2-1.4,0-2.2v-4.3V970.5z"/>
	<polygon class="st0" points="4624.9,953 4606.2,953 4606.2,961.5 4622.5,961.5 4622.5,968.4 4606.2,968.4 4606.2,984.5
		4598.4,984.5 4598.4,946.2 4624.9,946.2 	"/>
	<path class="st0" d="M4688.9,969.3c0.2,4.1-1.2,8-3.9,11.1c-2.7,2.8-6.5,4.3-10.4,4.1c-3.9,0.2-7.7-1.3-10.4-4.1
		c-2.7-3-4-6.9-3.8-10.9c-0.2-4.1,1.2-8.1,3.8-11.1c5.9-5.4,14.9-5.4,20.8,0C4687.7,961.4,4689.1,965.3,4688.9,969.3 M4681.3,969.8
		c0-6.1-2.3-9.2-6.8-9.2h-0.5c-1.8-0.1-3.5,0.8-4.6,2.2c-1.1,1.9-1.6,4.1-1.5,6.4c-0.2,2.3,0.4,4.6,1.8,6.5c1.1,1.6,2.9,2.5,4.9,2.4
		c1.9,0.1,3.7-0.7,4.9-2.2C4680.8,974.2,4681.4,972,4681.3,969.8"/>
	<path class="st0" d="M4688.9,969.3c0.2,4.1-1.2,8-3.9,11.1c-2.7,2.8-6.5,4.3-10.4,4.1c-3.9,0.2-7.7-1.3-10.4-4.1
		c-2.7-3-4-6.9-3.8-10.9c-0.2-4.1,1.2-8.1,3.8-11.1c5.9-5.4,14.9-5.4,20.8,0C4687.7,961.4,4689.1,965.3,4688.9,969.3 M4681.3,969.8
		c0-6.1-2.3-9.2-6.8-9.2h-0.5c-1.8-0.1-3.5,0.8-4.6,2.2c-1.1,1.9-1.6,4.1-1.5,6.4c-0.2,2.3,0.4,4.6,1.8,6.5c1.1,1.6,2.9,2.5,4.9,2.4
		c1.9,0.1,3.7-0.7,4.9-2.2C4680.8,974.2,4681.4,972,4681.3,969.8"/>
	<path class="st0" d="M4750.8,983.5h-7.2v-4.2c-1.7,3.2-5.1,5.1-8.8,4.9c-1.7,0.1-3.4-0.3-4.9-1.1c-1.4-0.7-2.5-1.9-3.2-3.3
		c-0.9-1.7-1.4-3.6-1.4-5.5v-20.2h7.5v18.1c0,3.6,1.6,5.3,4.6,5.3c1.5,0,3-0.5,4.1-1.6c1.1-1,1.8-2.4,1.8-3.9v-17.9h7.4V983.5z"/>
	<path class="st0" d="M4750.8,983.5h-7.2v-4.2c-1.7,3.2-5.1,5.1-8.8,4.9c-1.7,0.1-3.4-0.3-4.9-1.1c-1.4-0.7-2.5-1.9-3.2-3.3
		c-0.9-1.7-1.4-3.6-1.4-5.5v-20.2h7.5v18.1c0,3.6,1.6,5.3,4.6,5.3c1.5,0,3-0.5,4.1-1.6c1.1-1,1.8-2.4,1.8-3.9v-17.9h7.4V983.5z"/>
	<path class="st0" d="M4806,962.1h-1.8c-4.6,0-6.9,2.2-6.9,6.5v15.9h-7.5v-29.1h7.2v5.1c1.9-3.8,4.3-5.8,7.2-5.8h2L4806,962.1z"/>
	<path class="st0" d="M4806,962.1h-1.8c-4.6,0-6.9,2.2-6.9,6.5v15.9h-7.5v-29.1h7.2v5.1c1.9-3.8,4.3-5.8,7.2-5.8h2L4806,962.1z"/>
	<path class="st0" d="M4864.6,964.3h-7.5c-0.6-3.1-2.3-4.7-4.9-4.7c-1.8-0.1-3.4,0.8-4.4,2.2c-1.1,2-1.7,4.4-1.5,6.7
		c0,5.9,1.8,8.9,5.5,8.9c1.3,0.1,2.6-0.4,3.5-1.4c1-1,1.6-2.3,1.7-3.7h7.4c-0.2,3.1-1.6,5.9-3.9,8c-2.4,2.1-5.6,3.2-8.8,3
		c-3.6,0.2-7.2-1.2-9.7-3.8c-2.4-3-3.6-6.9-3.4-10.8c-0.2-4.2,1-8.4,3.4-11.9c2.5-2.8,6.2-4.3,10-4.1c3.3-0.2,6.5,0.9,9.1,2.9
		c2.3,2,3.6,4.9,3.5,8"/>
	<path class="st0" d="M4923.6,983.5h-7.5v-19c0.1-1.2-0.4-2.3-1.2-3.1c-0.9-0.8-2.2-1.3-3.4-1.2c-1.6-0.1-3.1,0.6-4.2,1.8
		c-1.1,1.2-1.6,2.8-1.6,4.4v17.2h-7.5v-39.3h7.5v13.9c1.4-3,4.6-4.9,8-4.5c2.5-0.1,5,0.9,6.8,2.5c1.8,1.6,2.9,3.9,2.8,6.3v21
		L4923.6,983.5z"/>
	<path class="st0" d="M4987.3,970.5H4968v0.7c0,4.2,2.5,6.4,6.1,6.4c2.2,0.3,4.2-1,4.9-3.1h8c-0.7,2.8-2.3,5.2-4.5,6.9
		c-2.5,1.7-5.4,2.5-8.4,2.5c-3.8,0.2-7.4-1.3-10-4.1c-4.6-6.9-4.6-15.8,0-22.7c2.6-2.7,6.3-4.1,10-3.9c3.7-0.2,7.3,1.3,9.8,4.1
		c2.5,3.5,3.7,7.8,3.4,12.2L4987.3,970.5z M4979.3,965.5c-0.5-4.1-2.4-6.1-5.7-6.1c-3.3,0-5.2,2-5.6,6.1H4979.3z"/>
	<path class="st0" d="M4987.3,970.5H4968v0.7c0,4.2,2.5,6.4,6.1,6.4c2.2,0.3,4.2-1,4.9-3.1h8c-0.7,2.8-2.3,5.2-4.5,6.9
		c-2.5,1.7-5.4,2.5-8.4,2.5c-3.8,0.2-7.4-1.3-10-4.1c-4.6-6.9-4.6-15.8,0-22.7c2.6-2.7,6.3-4.1,10-3.9c3.7-0.2,7.3,1.3,9.8,4.1
		c2.5,3.5,3.7,7.8,3.4,12.2L4987.3,970.5z M4979.3,965.5c-0.5-4.1-2.4-6.1-5.7-6.1c-3.3,0-5.2,2-5.6,6.1H4979.3z"/>
	<path class="st0" d="M5037.1,983.2h-4.1c-5.3,0-8-1.8-8-5.2v-18.7h-3.8v-5.2h3.8v-8h7.4v8h4.6v5.5h-4.6v15.9c0,1.4,0.8,2.1,2.5,2.1
		h2.2V983.2z"/>
	<path class="st0" d="M5088.3,983.2h-4.1c-5.3,0-8-1.8-8-5.2v-18.7h-3.7v-5.2h3.7v-8h7.4v8h4.7v5.5h-4.7v15.9c0,1.4,0.9,2.1,2.5,2.1
		h2.2L5088.3,983.2z"/>
	<path class="st0" d="M5150.9,970.5h-19.2v0.7c0.5,4.2,2.5,6.4,6.1,6.4c2.2,0.3,4.2-1,4.9-3.1h8c-0.6,2.8-2.2,5.2-4.5,6.9
		c-2.3,1.6-5.1,2.5-8,2.5c-3.8,0.2-7.5-1.3-10-4.1c-2.5-3.2-3.8-7.3-3.6-11.4c-0.2-4.1,1-8.1,3.6-11.3c2.6-2.7,6.2-4.1,10-3.9
		c3.7-0.3,7.4,1.2,9.9,4.1c2.5,3.6,3.6,7.9,3.3,12.2L5150.9,970.5z M5142.9,965.5c-0.5-4.1-2.4-6.1-5.7-6.1c-3.3,0-5.1,2-5.6,6.1
		H5142.9z"/>
	<path class="st0" d="M5150.9,970.5h-19.2v0.7c0.5,4.2,2.5,6.4,6.1,6.4c2.2,0.3,4.2-1,4.9-3.1h8c-0.6,2.8-2.2,5.2-4.5,6.9
		c-2.3,1.6-5.1,2.5-8,2.5c-3.8,0.2-7.5-1.3-10-4.1c-2.5-3.2-3.8-7.3-3.6-11.4c-0.2-4.1,1-8.1,3.6-11.3c2.6-2.7,6.2-4.1,10-3.9
		c3.7-0.3,7.4,1.2,9.9,4.1c2.5,3.6,3.6,7.9,3.3,12.2L5150.9,970.5z M5142.9,965.5c-0.5-4.1-2.4-6.1-5.7-6.1c-3.3,0-5.1,2-5.6,6.1
		H5142.9z"/>
	<path class="st0" d="M4353.4,1041.7h884.7V127h-884.7V1041.7z M4370.2,144h851.1v880.5h-851.1V144z"/>
	<polygon class="st0" points="7484,864.8 7463.9,864.8 7463.9,829.5 7458.4,829.5 7458.4,869.6 7484,869.6 	"/>
	<path class="st0" d="M7522,849.8h4.4c0.2-3.1,2.8-5.5,5.9-5.4c0.1,0,0.2,0,0.4,0c4.3,0,6.5,1.5,6.5,4.6c0,1.4,0,2.3-1.2,2.7
		c-2.2,0.7-4.5,1.1-6.8,1.2h-2.6l-2.1,0.6c-1.8,0.4-3.3,1.5-4.3,3c-1,1.4-1.6,3.1-1.5,4.9c-0.1,2.3,0.8,4.5,2.5,6
		c1.9,1.5,4.3,2.3,6.8,2.2c1.6,0,3.3-0.4,4.8-1c1.7-1,3.3-2.2,4.7-3.6c0,2.9,1.4,4.2,4.5,4.2h1.4h1.7v-3.4h-1.5
		c-1,0-1.5-0.6-1.5-1.6v-15.9c0.1-2.3-1-4.4-2.9-5.7c-2.4-1.5-5.2-2.3-8-2.1c-2.8-0.1-5.6,0.7-8,2.3c-2.1,1.7-3.2,4.2-2.9,6.8
		 M7539.2,858v1.4c0.2,0.7,0.2,1.5,0,2.2c-0.8,1.3-2,2.4-3.4,3c-1.5,0.8-3.2,1.2-4.9,1.1c-3.2,0-4.9-1.5-4.9-4.7s1.8-3.9,5.5-4.4
		l4.9-0.7c1,0,1.9-0.3,2.7-0.8h0.5L7539.2,858z"/>
	<polygon class="st0" points="7637.9,869.5 7646.3,869.5 7646.3,852.8 7664,852.8 7664,845.7 7646.3,845.7 7646.3,836.8
		7666.6,836.8 7666.6,829.6 7637.9,829.6 	"/>
	<path class="st0" d="M7720.7,838c-4.2-0.2-8.3,1.3-11.3,4.3c-5.6,6.7-5.6,16.4,0,23.1c3,2.9,7,4.4,11.1,4.2
		c4.2,0.2,8.3-1.4,11.4-4.3c2.9-3.1,4.4-7.3,4.2-11.5c0.2-4.2-1.3-8.4-4.2-11.5C7729,839.4,7724.9,837.9,7720.7,838 M7726,860.7
		c-1.4,1.6-3.4,2.4-5.4,2.3c-2.1,0.1-4-0.8-5.3-2.5c-1.3-2-2-4.4-1.8-6.8c-0.2-2.3,0.4-4.6,1.7-6.6c1.1-1.6,2.9-2.5,4.9-2.4h0.6
		c4.9,0,7.3,3.2,7.3,9.6C7728,856.6,7727.4,858.9,7726,860.7"/>
	<path class="st0" d="M7795.4,856.3v0.6c0,1.6-0.7,3.1-1.9,4.1c-1.2,1.1-2.8,1.7-4.5,1.7c-3.3,0-5-1.8-5-5.6v-18.9h-8V859
		c0,2,0.6,4,1.6,5.8c0.7,1.5,1.9,2.7,3.4,3.4c1.7,0.8,3.5,1.2,5.3,1.1c3.9,0.3,7.6-1.8,9.4-5.2v4.4h8v-30.4h-8L7795.4,856.3z"/>
	<path class="st0" d="M7853.3,844v-5.3h-8v30.4h8v-16.3c0-4.5,2.5-6.7,8-6.7h2.2v-8h-2.1c-3.6,0.2-6.8,2.6-8,6.1"/>
	<path class="st0" d="M7913.7,843.6c2.9,0,4.6,1.6,5.3,4.9h8c0.1-3.3-1.3-6.4-3.9-8.4c-2.8-2.2-6.3-3.4-9.9-3.2
		c-4-0.2-8,1.3-10.8,4.3c-2.7,3.6-4,8-3.7,12.4c-0.2,4.1,1.1,8.1,3.7,11.2c2.8,2.8,6.6,4.2,10.5,4c3.5,0.2,6.9-1,9.6-3.2
		c2.5-2.2,4.1-5.3,4.2-8.7h-8c-0.1,1.5-0.7,2.9-1.8,3.9c-1.1,0.9-2.4,1.4-3.8,1.3c-4,0-6-3-6-9.2c-0.2-2.4,0.4-4.8,1.7-6.9
		c1-1.6,2.8-2.5,4.7-2.4"/>
	<path class="st0" d="M7983.3,868.5h8v-22c0-2.5-1.1-4.9-3-6.5c-2.1-1.8-4.7-2.7-7.4-2.6c-3.7-0.4-7.2,1.5-9.1,4.7v-14.6h-8v41h8
		v-17.9c-0.1-1.7,0.6-3.3,1.8-4.5c1.2-1.3,2.9-1.9,4.6-1.8c1.3-0.1,2.6,0.3,3.7,1.2c0.9,0.8,1.4,2,1.3,3.3v19.8L7983.3,868.5z"/>
	<path class="st0" d="M8045.7,836.9c-4-0.2-8,1.3-10.8,4.1c-5.3,7.1-5.3,16.8,0,23.9c2.8,2.9,6.8,4.5,10.8,4.2
		c3.2,0.1,6.3-0.8,9-2.5c2.4-1.7,4.2-4.3,4.9-7.2h-8c-0.8,2.2-3,3.5-5.3,3.2c-4,0-6.2-2.2-6.7-6.5v-0.8h20.9v-1.1
		c0.3-4.5-1-9.1-3.7-12.7c-2.7-3-6.6-4.6-10.7-4.3 M8040.1,850.1c0.6-4.2,2.5-6.4,6.1-6.4s5.7,2.2,6.2,6.4H8040.1z"/>
	<path class="st0" d="M8114.5,843.4v-5.8h-5v-8h-8v8h-4.1v5.8h4.1V863c0,3.6,2.9,5.4,8.6,5.4h4.5v-5.9h-2.3c-1.8,0-2.7-0.7-2.7-2.1
		v-17H8114.5z"/>
	<path class="st0" d="M8170.1,862.4h-2.2c-1.8,0-2.7-0.7-2.7-2.1v-16.9h4.9v-5.8h-4.9v-8h-8v8h-4.1v5.8h4.1V863
		c0,3.6,2.9,5.4,8.6,5.4h4.5L8170.1,862.4z"/>
	<path class="st0" d="M8223.8,869c3.2,0.1,6.4-0.8,9-2.6c2.4-1.7,4.2-4.3,4.9-7.2h-8c-0.8,2.2-3,3.5-5.3,3.2c-3.9,0-6.1-2.2-6.7-6.5
		v-0.8h20.9V854c0.3-4.5-1-9-3.6-12.7c-2.7-3-6.7-4.6-10.8-4.3c-4-0.3-8,1.2-10.8,4.1c-2.7,3.3-4.1,7.5-3.8,11.8
		c-0.3,4.3,1.1,8.6,3.9,11.9c2.8,2.9,6.8,4.5,10.8,4.3 M8224.4,843.4c3.6,0,5.7,2.2,6.2,6.3h-12.3
		C8218.9,845.6,8220.8,843.4,8224.4,843.4"/>
	<path class="st0" d="M8186.8,496.4h9.9c6.6,1.3,13-2.9,14.3-9.5c1.3-6.6-2.9-13-9.5-14.3c-1.6-0.3-3.2-0.3-4.8,0h-9.9
		c-6.6-1.3-13,2.9-14.3,9.5c-1.3,6.6,2.9,13,9.5,14.3C8183.5,496.7,8185.2,496.7,8186.8,496.4"/>
	<path class="st0" d="M7494.7,496.4h21.8c6.6,1.3,13-2.9,14.3-9.5c1.3-6.6-2.9-13-9.5-14.3c-1.6-0.3-3.2-0.3-4.8,0h-21.8
		c-6.6-1.3-13,2.9-14.3,9.5c-1.3,6.6,2.9,13,9.5,14.3C7491.5,496.7,7493.1,496.7,7494.7,496.4"/>
	<path class="st0" d="M7566.9,496.4h45.3v0.6h457.8v-0.6h64.3c6.6,1.3,13-2.9,14.3-9.5c1.3-6.6-2.9-13-9.5-14.3
		c-1.6-0.3-3.2-0.3-4.8,0h-65.1c-6.7-116.3-99.9-209-216.3-215v-19c-0.5-6.8-6.5-11.8-13.2-11.2c-6,0.5-10.8,5.2-11.2,11.2v19
		c-116.3,6.1-209.5,98.7-216.2,215h-45.7c-6.6-1.3-13,2.9-14.3,9.5c-1.3,6.6,2.9,13,9.5,14.3c1.6,0.3,3.2,0.3,4.8,0 M7840.7,281.4
		c107.8-0.4,197.4,83.1,204.6,190.7H7637c7.1-107.4,96.4-190.8,204-190.6"/>
	<path class="st0" d="M7900.2,632.7l62.7-55.1c16.9-15,42.4-14.5,58.8,1l157.8,148.7c2.3,2.1,5.3,3.3,8.4,3.3
		c6.7-0.2,12-5.9,11.8-12.6c-0.1-3.2-1.5-6.2-3.8-8.4L8038.2,561c-13.9-13.1-32.7-19.8-51.8-18.5h-140.1
		c-6.7-0.5-12.6,4.5-13.1,11.2c-0.5,6.7,4.5,12.6,11.2,13.1c0.7,0.1,1.3,0.1,2,0h92l-54.2,47.8c-14.3,12.7-35.3,14.6-51.6,4.5
		L7713,545.4c-5.7-3.6-13.2-1.8-16.8,3.9c-3.6,5.7-1.8,13.2,3.9,16.8l119.5,73.7C7845,655.6,7877.8,652.7,7900.2,632.7"/>
	<path class="st0" d="M7976.8,897.1H7937c-0.3-0.1-0.7-0.1-1,0c-0.1,0.3-0.1,0.6,0,1v4.1c-0.1,0.3-0.1,0.6,0,1
		c0.2,0.3,0.6,0.5,1,0.5h15.3c0.3-0.1,0.6-0.1,1,0c0.3,0.2,0.4,0.6,0.4,1V974c-0.1,0.3-0.1,0.6,0,1c0.3,0.1,0.6,0.1,1,0h4.1
		c0.3,0.1,0.6,0.1,1,0c0.3-0.2,0.4-0.6,0.4-1v-69.4c0-0.4,0.1-0.8,0.5-1c0.3-0.2,0.7-0.2,1,0h15.2c0.4,0,0.8-0.2,1-0.5
		c0.3-0.3,0.4-0.6,0.4-1v-3.8c-0.1-0.3-0.3-0.7-0.5-1c-0.3-0.1-0.7-0.1-1,0"/>
	<path class="st0" d="M8006.3,930.2L8006.3,930.2c-11.5,1.2-20.2,10.9-20.2,22.5v21.8c-0.1,0.2-0.1,0.5,0,0.7c0.2,0.1,0.5,0.1,0.7,0
		h4.5c0.2,0.1,0.5,0.1,0.7,0c0.2-0.2,0.4-0.4,0.4-0.7v-5.4l0,0v-16.4c0-3.9,1.4-7.7,4.1-10.7c2.5-3,6.1-4.9,10-5.4
		c0.2,0.1,0.5,0.1,0.7,0c0.1-0.2,0.1-0.4,0-0.6v-4.5c0.1-0.3,0.1-0.5,0-0.8h-0.6"/>
	<path class="st0" d="M8038.2,930.2h-0.8c-1.9,0-3.9,0.2-5.7,0.7c-2.1,0.5-4.1,1.4-5.9,2.5c-6.9,4.1-11,11.5-11,19.4v0.8
		c0.2,5.9,2.8,11.5,7.2,15.4c4.3,4.1,10,6.4,15.9,6.4h21.3c0.3,0.1,0.5,0.1,0.8,0c0.1-0.2,0.1-0.5,0-0.8v-21.3
		c0.1-6-2.3-11.7-6.5-15.9c-3.9-4.4-9.4-7-15.3-7.2 M8053.5,968.3c0.1,0.2,0.1,0.5,0,0.7c-0.2,0.1-0.4,0.1-0.6,0h-15.4
		c-4.3,0-8.4-1.6-11.5-4.5c-3.1-2.9-4.8-6.9-4.9-11.1v-0.6c0-8.8,7.1-15.9,15.9-15.9h0.5c4.3,0.1,8.3,2,11.2,5.1
		c2.9,3.1,4.5,7.2,4.4,11.4L8053.5,968.3z"/>
	<path class="st0" d="M8073.4,914.9c-2.3-0.1-4.2,1.6-4.4,3.9c0,0.2,0,0.3,0,0.5v4.5h4.4c1.2,0.1,2.4-0.4,3.3-1.4
		c0.8-0.8,1.2-2,1.2-3.1c0-1.2-0.4-2.3-1.2-3.2C8075.8,915.3,8074.6,914.9,8073.4,914.9"/>
	<path class="st0" d="M8074.7,929.6h-4.3c-0.3-0.1-0.5-0.1-0.8,0c-0.1,0.2-0.1,0.5,0,0.7v43.9c-0.1,0.2-0.1,0.5,0,0.7
		c0.3,0.1,0.5,0.1,0.8,0h4.5c0.2,0.1,0.4,0.1,0.6,0c0.1-0.2,0.1-0.5,0-0.7v-32.7l0,0v-11.1c0.1-0.2,0.1-0.5,0-0.7
		C8075.3,929.6,8075,929.6,8074.7,929.6"/>
	<path class="st0" d="M8114.8,969.1c-4.2,0-8.3-1.7-11.2-4.7c-3-2.9-4.8-7-4.9-11.2v-22.9h8.8c0.9,0,1.8-0.4,2.5-1.1
		c0.6-0.6,1-1.5,1-2.4v-3.5h-12.2v-22.6c0-1.8-1.5-3.3-3.3-3.3h-3.3v25.9h-8c-0.3-0.1-0.7-0.1-1,0c-0.7,0.3-1.2,0.9-1.6,1.5
		c-0.4,0.6-0.6,1.3-0.6,2.1v3.4h11.2v23.3c0.1,6,2.5,11.7,6.8,15.9c4.2,4.3,9.9,6.7,15.9,6.7h2.2c0.3,0.1,0.5,0.1,0.8,0
		c0.1-0.3,0.1-0.5,0-0.8v-2.2c0-0.9-0.3-1.7-1-2.3c-0.6-0.6-1.5-1-2.4-1"/>
	<path class="st0" d="M8160.6,937c-0.4-0.5-0.8-0.9-1.3-1.3l-1.4-1.4l-0.6-0.6c-3.8-2.6-8.2-4-12.8-4.1h-3.3
		c-5.7,0.6-10.9,3.5-14.6,8c-3.4,4-5.2,9.2-5.2,14.4v1.9c1,11.7,10.5,20.9,22.3,21.3h0.6c5.1,0,10.1-1.6,14.1-4.8
		c0.3-0.2,0.5-0.5,0.5-0.9c0.1-0.2,0.1-0.5,0-0.7l-1.6-1.4c-0.6-0.5-1.1-1-1.8-1.4l0,0l0,0h-0.6c-0.2-0.1-0.4-0.1-0.6,0
		c-2.8,2-6.2,3.1-9.7,2.9c-3.5,0-6.9-1.2-9.6-3.3l26.8-26.8c0.1-0.2,0.1-0.4,0-0.6l0,0c0.1-0.3,0.1-0.5,0-0.8L8160.6,937z
		 M8151.7,938.8c0,0.3-0.2,0.5-0.4,0.7l-20.4,20.4c-0.2,0.1-0.4,0.1-0.6,0l0,0c-0.4-0.1-0.7-0.3-0.9-0.6c-1-2.2-1.4-4.5-1.4-6.8
		c0-0.7,0-1.5,0-2.2c0.4-3.2,1.8-6.3,3.9-8.8c2.4-2.7,5.6-4.5,9.1-5.2c1.2-0.1,2.3-0.1,3.5,0c2.3,0,4.6,0.5,6.7,1.5
		c0.3,0.1,0.5,0.4,0.6,0.7l0,0"/>
	<path class="st0" d="M8207.9,930.2h-3.8h-0.5h-0.4v22.1c0.2,4.3-1.4,8.4-4.3,11.5c-2.5,3.1-6.3,4.9-10.3,4.9
		c-4,0.1-7.9-1.7-10.4-4.8c-2.8-3.2-4.3-7.3-4.2-11.5v-1.3l0,0v-20.5c0.1-0.3,0.1-0.5,0-0.8c-0.3-0.1-0.5-0.1-0.8,0h-3.7
		c-0.3-0.1-0.6-0.1-0.9,0c0,0.3,0,0.5,0,0.8v21.7c0,5.9,2.1,11.5,6,15.9c6.8,8,18.8,9,26.8,2.2c0.8-0.7,1.5-1.4,2.2-2.2
		c3.9-4.4,6-10.1,6-15.9v-21.7c0.1-0.3,0.1-0.5,0-0.8c-0.3-0.1-0.5-0.1-0.8,0"/>
	<path class="st0" d="M8237.1,930.2L8237.1,930.2c-11.5,1.2-20.2,10.9-20.2,22.5v21.8c-0.1,0.2-0.1,0.5,0,0.7c0.2,0.1,0.5,0.1,0.7,0
		h4.5c0.2,0.1,0.5,0.1,0.7,0c0.1-0.2,0.1-0.5,0-0.7v-5.4l0,0v-16.4c0-3.9,1.4-7.7,4.1-10.7c2.5-3,6.1-4.9,10-5.4
		c0.3,0.1,0.5,0.1,0.8,0c0-0.2,0-0.4,0-0.6v-4.5c0.1-0.3,0.1-0.5,0-0.8h-0.6"/>
	<path class="st0" d="M141.6,37.5c20-0.7,39.7,5.5,55.7,17.5c15.1,12.2,25.1,29.7,27.9,49h-19.1c-1.6-13.9-8.9-26.6-20.2-34.9
		c-12.4-10.3-28.2-15.7-44.3-15.4c-14.2-0.4-28.2,3.5-40.2,11.1c-11.6,7.7-20.7,18.6-26.1,31.4c-6.2,14.4-9.3,29.9-9.1,45.6
		c-1.1,23,6.2,45.6,20.5,63.7c13.6,16.2,33.9,25.1,54.9,24.3c18.8,0.9,37.2-6.2,50.5-19.5c13.1-14.3,19.8-33.2,18.8-52.6v-1.7h-68.2
		v-15.9h85v101.8h-13.8l-2.5-36.4h-0.6c-5.7,12.7-15.3,23.4-27.4,30.3c-12.8,7.2-27.2,10.8-41.9,10.4c-26.1,1-51.3-9.6-68.7-29.1
		c-17.8-21-27-47.9-25.8-75.3c-0.3-18.6,3.7-37.1,11.6-54C66,72.5,77.5,59.6,91.9,50.7C106.9,41.8,124.1,37.2,141.6,37.5"/>
	<path class="st0" d="M579.3,136.8c11.1,0.3,21.8-3.5,30.3-10.7c8.4-7,13.1-17.4,12.7-28.4c0.7-11-3.4-21.8-11.2-29.5
		c-8.9-7.3-20.3-11-31.9-10.2h-71.7v78.8L579.3,136.8z M579.9,41.7c15.9-0.8,31.6,4,44.4,13.5c11.6,9.5,17.9,23.9,17,38.9
		c0.4,12-3.1,23.8-10.1,33.5c-7.1,9.1-17.4,15.3-28.7,17.4v0.6c10,1,19.2,5.8,25.6,13.5c6.9,10.9,10.3,23.8,9.6,36.7l0.6,11.8
		c0.8,17.2,3.6,28.7,8.4,34.5h-21.1c-2.6-3.9-4.5-15.9-5.6-36.7c-1.1-20.8-4.8-33.2-10.8-40.9c-6.4-7.6-15.9-11.8-25.8-11.3h-75.6
		v88.9h-19V41.7H579.9z"/>
	<path class="st0" d="M908.5,141.8c-1.1,23,6.2,45.6,20.5,63.7c27.3,30.2,74,32.6,104.3,5.2c1.8-1.7,3.6-3.4,5.2-5.2
		c27.3-38.1,27.3-89.3,0-127.4c-13.6-16.1-33.8-25.1-54.9-24.3c-21.1-0.8-41.3,8.2-54.8,24.4c-14.2,18.1-21.4,40.7-20.3,63.7
		 M984,37.7c17.4-0.4,34.6,4.3,49.5,13.4c14.4,9,25.9,21.9,33.1,37.3c7.9,16.8,11.9,35.1,11.6,53.7c1.3,27.5-8,54.4-25.8,75.4
		c-36.7,37.9-97.2,38.9-135.1,2.2c-0.8-0.7-1.5-1.5-2.2-2.2c-17.6-21-26.7-47.8-25.6-75.2c-1.3-27.6,8-54.6,26-75.6
		C932.9,47.4,958,36.9,984,37.9"/>
	<path class="st0" d="M1349.3,41.7v124c0,21.9,4.9,38,14.6,48.3c9.7,10.3,24.4,15.5,44,15.5c20.4,0,35.4-5.3,44.8-15.9
		c9.4-10.7,14.2-26.7,14.2-48.4V41.7h19v127.4c0,24.7-6.8,43.7-20.5,56.9c-15.7,14-36.4,21.2-57.4,19.9c-24.7,0-43.7-6.7-57.3-20.2
		c-14.2-15.3-21.6-35.8-20.3-56.6V41.7H1349.3z"/>
	<path class="st0" d="M1833.7,139.9c11.4,0.5,22.7-3,31.9-9.9c8.7-7.9,13.2-19.3,12.3-31c0.6-11.1-3.4-21.9-11.1-29.9
		c-9.3-8-21.5-12-33.8-11h-65.3v81.8L1833.7,139.9z M1837.9,41.7c16-0.9,31.7,4.7,43.5,15.4c10.9,11.1,16.7,26.3,15.9,41.8
		c0.9,15.6-4.9,30.9-15.9,42c-11.9,10.6-27.4,16.1-43.3,15.2H1768v85.8h-19V41.7H1837.9z"/>
	<polygon class="st0" points="2287.8,41.7 2287.8,58.1 2168.6,58.1 2168.6,130.4 2280.2,130.4 2280.2,146.6 2168.6,146.6
		2168.6,225.7 2289.2,225.7 2289.2,241.9 2149.5,241.9 2149.5,41.7 	"/>
	<polygon class="st0" points="157,411.7 157,720.9 341.9,720.9 341.9,791 73.6,791 73.6,411.7 	"/>
	<path class="st0" d="M497.6,712.9c0,23.4,15.4,35.1,46.2,35.1c40.3-0.4,60.7-21.1,61.1-62.2v-29.2c-6.1,6.1-21.3,10.4-45.6,13.3
		c-16.3,1-32.3,5.5-46.8,13C502.4,689.4,496.7,701,497.6,712.9 M560.3,509c80.1,0.3,120.1,26.3,120.1,78v145.6
		c0,26.9,3.2,46.4,9.5,58.5h-76.5c-2.9-8.6-4.7-17.5-5.3-26.6c-22.3,22.7-53.1,34-92.4,34c-28.7,0-51.5-7.2-68.3-21.7
		c-17.2-15.3-26.5-37.6-25.2-60.6c-1.3-22.1,7.5-43.5,23.9-58.4c15.9-14.6,45.9-23.9,88.8-27.7c30.4-3.1,49.8-7.2,57.9-11.9
		c8-4.5,12.7-13.1,12.2-22.3c0.9-10.5-3.3-20.7-11.1-27.6c-7.4-6.1-19.8-9.1-37.2-9.1c-12.8-0.9-25.6,2.6-36.2,9.9
		c-9,8.2-14.2,19.7-14.3,31.9h-75.4c0.4-27.5,14.3-53.1,37.2-68.5C490.9,516.7,521.7,508.9,560.3,509"/>
	<polygon class="st0" points="1267.4,411.7 1267.4,481.8 1084.1,481.8 1084.1,569.5 1242.9,569.5 1242.9,634.3 1084.1,634.3
		1084.1,791 1000.7,791 1000.7,411.7 	"/>
	<path class="st0" d="M1405.5,654c0,28,5.7,49.6,17,64.8c23.5,27.4,64.8,30.5,92.2,6.9c2.7-2.3,5.2-4.8,7.4-7.5
		c11.1-15.6,16.7-37,16.7-64.3c0-28.4-5.7-50.1-17.2-65.4c-12-15.4-30.8-24-50.3-22.9c-19.1-1-37.4,7.6-48.9,22.9
		C1411.2,603.8,1405.5,625.6,1405.5,654 M1472,509c43.9,0,78.5,13.3,104.1,39.8c25.5,26.5,38.3,61.5,38.3,105
		c0,43.6-13,78.5-39.1,104.9c-26.1,26.3-60.6,39.6-103.5,39.8c-43.6,0-78.1-13.3-103.5-39.8c-25.6-26.7-38.2-61.5-38.2-104.3
		c0-44.3,13-79.5,39-105.8c26-26.2,60.3-39.3,102.8-39.3"/>
	<path class="st0" d="M1791.8,516.1v155.7c-0.9,17.1,2.6,34.1,10.1,49.4c6.7,11.7,19.4,17.6,38.2,17.5c20.9,0,35.8-6.1,44.9-18.6
		s13.5-31.9,13.5-59.5V516.1h75.4v274.7h-71.7v-38.2h-1.6c-17.5,29.7-50,47.3-84.5,45.6c-35.8,0-61.4-9.1-76.8-27.3
		c-15.3-18.2-23-46.3-23.1-84.3V516.1H1791.8z"/>
	<path class="st0" d="M2244.9,509c5.6-0.1,11.2,0.8,16.5,2.6v70.1c-8.9-1.8-18-2.7-27.1-2.6c-49.4,0-74.1,29.5-74.1,88.4v123.8
		h-75.7V516.1h71.7v51h1c14.9-35.2,49.3-58.2,87.6-58.4"/>
	<path class="st0" d="M2471.8,509c37.2,0,67.5,9.5,90.9,28.4c23.1,18.5,37.1,46.1,38.2,75.7h-73.8c-4.9-31.5-23.5-47.3-55.7-47.3
		c-18.9-0.5-36.7,8.7-47.1,24.4c-12.4,19.3-18.4,41.9-17.3,64.8c-1,22.1,4.7,44,16.5,62.7c10.2,15.5,27.7,24.6,46.3,23.9
		c34.3,0,54.3-18.6,60-55.7h72.8c-4.9,36.5-19,64.4-42.2,83.7c-23.2,19.3-53.2,29-90.1,28.9c-37.3,1.4-73.4-12.7-99.9-39
		c-25.9-26-38.8-59.9-38.8-101.7c0-45.4,12.7-81.5,38.2-108.4C2395.4,522.3,2429.3,509,2471.8,509"/>
	<path class="st0" d="M2773.4,411.7v142.9h1.7c8.3-14,20.2-25.6,34.5-33.4c14.1-8,30-12.2,46.2-12.2c35.1,0,60.5,8.8,76.3,26.5
		c15.8,17.7,23.7,45.7,23.9,83.9V791h-75.5V634.9c0-22.4-3.6-39-10.8-50c-7.3-10.9-19.8-16.4-37.5-16.4c-20.1,0-35,6.1-44.4,18.3
		c-9.4,12.3-14.1,32.3-14.1,60.3v144h-75.4V411.7H2773.4z"/>
	<path class="st0" d="M3251.2,624.2c-1.7-16.6-8.6-32.2-19.7-44.6c-11.3-9.9-26-14.8-40.9-13.9c-16.1-0.8-31.8,5-43.6,15.9
		c-11.1,11.6-17.7,26.7-18.6,42.8L3251.2,624.2z M3193.3,509c24.2-0.4,48.1,5.8,69,18c20.6,12.5,37.2,30.6,47.8,52.3
		c11.9,24.6,17.8,51.6,17.3,78.9c0,2.9,0,7.5-0.6,13.8h-198.4c-0.5,18.6,5.6,36.8,17.3,51.3c10.8,12.3,27.3,18.3,49.6,18.3
		c13.4,0.2,26.5-3.4,38-10.4c10.3-5.4,18.1-14.4,22.1-25.2h66.4c-19.5,61.6-62.3,92.5-128.5,92.5c-24.2-0.1-48.2-5.7-69.9-16.4
		c-21.7-11-39.6-28.3-51.3-49.7c-13.1-24-19.7-51-19.1-78.4c-0.3-26.8,6.4-53.2,19.4-76.5c11.7-21.9,29.7-39.8,51.5-51.5
		C3145.3,514.6,3169.1,508.8,3193.3,509"/>
	<path class="st0" d="M3520,434v82.1h55.3v50.5H3520v136c0,12.7,2.2,21.2,6.5,25.5c4.3,4.3,12.7,6.4,25.5,6.4
		c7.8,0.1,15.7-0.6,23.3-2.2v59c-14.8,2-29.7,2.9-44.6,2.6c-29,0-50.6-5-64.8-14.9c-14.2-9.9-21.3-27.1-21.3-51.5V566.9h-45.7v-50.7
		h45.7V434H3520z"/>
	<path class="st0" d="M3760.2,434v82.1h55.3v50.5h-55.3v136c0,12.7,2.1,21.2,6.4,25.5c4.2,4.3,12.7,6.4,25.5,6.4
		c7.9,0.1,15.7-0.6,23.4-2.2v59c-14.8,2-29.7,2.9-44.7,2.6c-29,0-50.6-4.9-64.8-14.9c-14.2-10-21.3-27.1-21.3-51.5V566.9H3639v-50.7
		h45.6V434H3760.2z"/>
	<path class="st0" d="M4086.9,624.2c-1.7-16.6-8.6-32.2-19.7-44.6c-11.3-9.8-26-14.8-40.9-13.9c-16.1-0.8-31.8,5-43.6,15.9
		c-11.1,11.6-17.7,26.7-18.6,42.8L4086.9,624.2z M4029,509c24.2-0.4,48.1,5.8,69,18c20.6,12.5,37.2,30.6,47.8,52.3
		c11.9,24.6,17.8,51.6,17.3,78.9c0,2.9,0,7.5-0.6,13.8h-198.4c-0.5,18.6,5.6,36.8,17.2,51.3c10.8,12.3,27.4,18.3,49.7,18.3
		c13.4,0.2,26.5-3.4,38-10.4c10.3-5.4,18.1-14.4,22.1-25.2h66.4c-19.5,61.6-62.3,92.5-128.5,92.5c-24.2-0.1-48.2-5.7-69.9-16.4
		c-21.7-11-39.6-28.3-51.3-49.7c-13.1-24-19.7-51-19.1-78.4c-0.3-26.8,6.4-53.2,19.4-76.5c11.7-21.9,29.7-39.8,51.5-51.5
		C3981,514.6,4004.8,508.8,4029,509"/>
	<rect x="2494.8" y="128.7" class="st0" width="1668.5" height="17"/>
	<rect x="61.8" y="1025.1" class="st0" width="4101.5" height="17.4"/>
	<path class="st0" d="M5671.5,679.3c-59.9-53.7-74.7-124-74.7-182.6c0.7-62.9,25.4-123.2,69.1-168.5c37-37,93.2-66,188.2-66
		c30-0.1,59.9,2.4,89.5,7.4c20.8,4.3,41.8,7.4,62.9,9.3c6.8,0.6,8,3,8,6.8c0,3.7-1.8,12.3-3.1,34.6c-1.2,20.3-1.2,54.3-1.8,63.7
		s-1.8,12.9-5.6,12.9s-4.9-4.3-4.9-12.9c0.5-23.7-8.9-46.5-25.9-63c-21.6-18.5-69.1-35.1-123.4-35.1c-82,0-120.3,23.9-141.9,45
		c-45.1,43.2-55.7,98.1-55.7,161.1c0,117.9,90.8,225.8,223,225.8c46.3,0,82.7-5.6,107.3-30.9c13-13.5,21-40.7,22.9-51.8
		c1.2-6.8,2.5-9.3,6.1-9.3c3.7,0,4.4,4.4,4.4,9.3c-2.9,26.6-7.4,52.9-13.6,78.9c-3.7,11.8-4.9,13-15.9,17.9
		c-24.7,9.9-71.7,14.2-111.5,14.2c-92.6,0-154.9-22.8-203.6-66.7"/>
	<path class="st0" d="M5916.1,396.7c0,14.6-11.9,26.5-26.5,26.5c0,0-0.1,0-0.1,0h-74c-14.6,0-26.6-11.8-26.6-26.4
		s11.8-26.6,26.4-26.6c0,0,0.1,0,0.1,0h74.3c14.7,0,26.6,11.9,26.6,26.5"/>
	<path class="st0" d="M5913.4,468.4c0,14.6-11.8,26.6-26.4,26.6c0,0-0.1,0-0.1,0h-74.3c-14.6,0-26.6-11.8-26.6-26.4
		c0-14.6,11.8-26.6,26.4-26.6c0.1,0,0.1,0,0.2,0h74.6c14.6,0,26.5,11.8,26.5,26.4"/>
	<path class="st0" d="M5911.1,540c0,14.7-11.9,26.6-26.5,26.6h-74.4c-14.7-0.8-25.9-13.3-25.1-28c0.7-13.5,11.6-24.4,25.1-25.1h74.4
		C5899.2,513.6,5911,525.4,5911.1,540"/>
	<path class="st0" d="M5892.1,611.7c0,14.6-11.8,26.5-26.4,26.6h-74.1c-14.7,0-26.6-11.9-26.6-26.6c0-14.7,11.9-26.5,26.6-26.6h74.4
		c14.6,0.1,26.4,12,26.4,26.6"/>
	<path class="st0" d="M5523.5,956.2h-2.6v-2.5l0,0c-1,2-3.1,3.2-5.3,3.1c-6.4,0-8-6-8-10.4c0-4.5,2.9-9.3,8-9.3
		c2.3,0,4.4,1.2,5.6,3.2v-10h3.1L5523.5,956.2z M5515.5,954.1c2,0,5.1-1.4,5.1-6.3c0-3-0.5-8-5-8c-4.5,0-5.1,4.6-5.1,7
		C5510.5,951,5512.1,954.1,5515.5,954.1"/>
	<path class="st0" d="M5557.9,950.3c-0.4,2.1-1.5,3.9-3.3,5.1c-1.5,1-3.3,1.5-5.1,1.4c-4.7,0-8.4-3.8-8.4-8.5c0-0.3,0-0.6,0.1-0.9
		c0-5.7,2.8-10.4,9-10.4s8,4.3,8,10.8h-13.4c0,3.9,1.8,6.2,5.4,6.2c2.3,0.1,4.4-1.5,4.9-3.7L5557.9,950.3z M5554.9,945.4
		c0-2.9-1.4-5.6-5.3-5.6c-2.9,0.2-5.2,2.6-5.2,5.6H5554.9z"/>
	<polygon class="st0" points="5607.4,930.6 5607.4,956.2 5623.9,956.2 5623.9,953.1 5610.9,953.1 5610.9,930.6 	"/>
	<path class="st0" d="M5646.1,943.2c0-4.5,3.1-6.2,8-6.2c1.5,0,6.9,0,6.9,5.2v10.8c0,0.8,0,1.1,1,1.1h1v2.3c-0.6,0.1-1.2,0.1-1.8,0
		c-2.8,0-3.2-1.4-3.3-2.8c-1.7,2-4.2,3.1-6.8,3c-3,0.3-5.6-1.9-5.9-4.9c0-0.2,0-0.3,0-0.5c0-1.6,0.5-5.2,5.7-5.9l5.2-0.6
		c0.7,0,1.6,0,1.6-2.2c0-2.2-1.4-3-4.4-3c-2-0.3-4,1.1-4.3,3.1c0,0.1,0,0.3,0,0.4L5646.1,943.2z M5657.6,946.7
		c-0.5,0.4-1.3,0.7-5.2,1.2c-1.5,0-4,0.7-4,3c0,2.3,1,3.3,3.4,3.3s5.7-1.9,5.7-4.4L5657.6,946.7z"/>
	<polygon class="st0" points="5724.4,930.6 5724.4,956.2 5729.7,956.2 5729.7,945.5 5741,945.5 5741,940.9 5729.7,940.9
		5729.7,935.1 5742.6,935.1 5742.6,930.6 	"/>
	<path class="st0" d="M5777.8,956.7c-5.5,0.2-10.2-4.2-10.3-9.7c-0.2-5.5,4.2-10.2,9.7-10.3c5.5-0.2,10.2,4.2,10.3,9.7
		c0,0.1,0,0.3,0,0.4c0.4,5.1-3.4,9.5-8.5,9.9C5778.7,956.7,5778.2,956.7,5777.8,956.7 M5777.8,940.8c-3.9,0-4.6,3.3-4.6,5.8
		s0.7,5.7,4.6,5.7c3.9,0,4.5-3.3,4.5-5.7S5781.7,940.8,5777.8,940.8"/>
	<path class="st0" d="M5832.6,956.2h-4.8v-2.7l0,0c-1.2,2.1-3.4,3.3-5.8,3.2c-3.4,0.2-6.3-2.4-6.5-5.7c0-0.4,0-0.9,0.1-1.3v-12.5h5
		V949c0,2.9,1.8,3.5,3.3,3.5c2.1,0.1,3.8-1.6,3.9-3.6c0-0.2,0-0.5,0-0.7v-11h5L5832.6,956.2z"/>
	<path class="st0" d="M5861.7,937.2h4.9v3.3l0,0c0.8-2.3,2.9-3.8,5.3-3.8h1v5.1h-1.5c-2.2-0.3-4.3,1.2-4.6,3.4
		c-0.1,0.4-0.1,0.7,0,1.1v9.9h-5L5861.7,937.2z"/>
	<path class="st0" d="M5915.8,949.3c-0.3,4.4-4.1,7.7-8.5,7.4c-0.1,0-0.1,0-0.2,0c-4.6,0.3-8.6-3.3-8.8-7.9c0-0.5,0-1.1,0.1-1.6
		c0-6.1,2.6-10.5,9.1-10.5c4.3-0.2,8,3,8.4,7.3h-4.7c-0.1-1.7-1.4-3-3.1-3.1l0,0c-3.1,0-4,3.1-4,5.5s0,6.2,3.9,6.2
		c1.8-0.1,3.3-1.5,3.3-3.3H5915.8z"/>
	<path class="st0" d="M5960.5,956.2h-4.9v-11.5c0-1.4,0-3.7-3.3-3.7c-2.2-0.1-3.9,1.6-4,3.8c0,0.2,0,0.4,0,0.6v10.9h-4.9v-26h4.9
		v9.1l0,0c1.1-1.9,3.3-3.1,5.5-2.9c3.3-0.3,6.3,2.1,6.6,5.5c0,0.3,0,0.6,0,0.9L5960.5,956.2z"/>
	<path class="st0" d="M6005.9,950.6c-0.9,3.6-4.2,6.2-8,6.1c-5.4,0-9.5-2.5-9.5-10.4c-0.4-4.9,3.1-9.2,8-9.6c0.4,0,0.7,0,1.1,0
		c3.7,0,8.9,1.8,8.9,10.5v0.9h-13c0,1.4,0.4,4.6,4.5,4.6c1.4,0.1,2.7-0.8,3.2-2.1H6005.9z M6001.1,944.8c0-2.2-1.7-3.9-3.8-4
		c0,0-0.1,0-0.1,0c-2.3,0-3.6,1.5-3.8,4H6001.1z"/>
	<path class="st0" d="M6039.5,937.2h3.2v3.6h-3.2v10.4c0,1.1,0,1.5,2.1,1.5h1.1v3.8h-3c-4.3,0-5.1-1.7-5.1-4.1v-11.5h-2.5v-3.6h2.5
		v-5.1h4.9V937.2z"/>
	<path class="st0" d="M6074.9,937.2h3.4v3.6h-3.1v10.4c0,1.1,0,1.5,2.1,1.5h1v3.8h-3c-4.3,0-5.1-1.7-5.1-4.1v-11.5h-2.5v-3.6h2.5
		v-5.1h5L6074.9,937.2z"/>
	<path class="st0" d="M6121.4,950.6c-0.9,3.6-4.2,6.2-8,6.1c-5.3,0-9.4-2.5-9.4-10.4c-0.5-4.8,3-9.1,7.8-9.6c0.4,0,0.8-0.1,1.2,0
		c3.7,0,8.9,1.8,8.9,10.5v0.9h-13.5c0,1.4,0.5,4.6,4.5,4.6c1.4,0.1,2.7-0.7,3.2-2.1H6121.4z M6116.5,944.8c0.1-2.1-1.6-3.9-3.7-4
		c-0.1,0-0.1,0-0.2,0c-2.4,0-3.6,1.5-3.9,4H6116.5z"/>
	<path class="st0" d="M5504.3,902.8l31.1-64.3h3.7l31.1,64.3h-17l-4.8-9.8h-22.2l-4.8,9.8H5504.3z M5533,880.2h8l-4.1-8.7
		L5533,880.2z"/>
	<path class="st0" d="M5611.7,876.6v-38.2h15.9v38.8c0.1,7-2.8,13.8-8,18.6c-11.9,10.3-29.6,10.3-41.6,0c-5.2-4.8-8-11.5-8-18.6
		v-38.8h15.9v38.2c0,3.1,1.4,6.1,3.9,8c2.6,2.1,5.8,3.3,9.2,3.2c6.6,0.4,12.3-4.4,13.1-10.9"/>
	<path class="st0" d="M5694.7,838c8.7,0.4,17,3.9,23.3,10l1,1l-11.3,11.2l-1-1c-3.7-3.6-8.7-5.5-13.9-5.3c-5-0.1-9.9,1.6-13.7,4.9
		c-3.6,3-5.6,7.3-5.7,11.9c0,4.6,2.1,9,5.7,11.9c3.8,3.3,8.7,5,13.7,4.9c5.2,0.1,10.2-1.8,13.9-5.4l1.1-1l11.2,11.2l-1,1
		c-3.2,3.1-6.9,5.6-11.1,7.3c-13.5,5.1-28.8,2.4-39.8-6.9c-6.5-5.9-10.1-14.3-10-23.1c-0.1-8.8,3.5-17.1,10-23.1
		c7.1-6.4,16.3-9.8,25.8-9.6h1.9L5694.7,838z"/>
	<path class="st0" d="M5751.8,837.9c8.9-0.1,17.5,3.4,23.9,9.6c12.8,12.1,13.3,32.3,1.2,45c-0.4,0.4-0.8,0.8-1.2,1.2
		c-6.4,6.2-15,9.7-23.9,9.6c-8.9,0-17.5-3.4-23.9-9.6c-12.8-12.1-13.3-32.3-1.2-45c0.4-0.4,0.8-0.8,1.2-1.2
		C5734.3,841.2,5742.9,837.8,5751.8,837.9 M5751.8,853.8c-4.6-0.2-9.1,1.6-12.3,4.9c-6.6,5.2-7.7,14.8-2.5,21.4
		c0.7,0.9,1.6,1.8,2.5,2.5c7,6.5,17.8,6.5,24.8,0c3.6-2.9,5.8-7.2,5.7-11.9c0-4.6-2.1-9-5.7-11.9c-3.3-3.3-7.8-5.1-12.4-4.9"/>
	<polygon class="st0" points="5794.8,838.2 5825.9,879.1 5857.1,838.2 5860.3,838.2 5860.3,902.8 5844.6,902.8 5844.6,879
		5825.9,902.7 5807.4,879 5807.4,902.8 5791.6,902.8 5791.6,838.2 	"/>
	<path class="st0" d="M5868.3,902.8v-64.4h25.4c6.8-0.2,13.3,2.3,18.3,6.8c9.1,8.6,9.5,22.9,0.9,32c-0.3,0.3-0.6,0.6-0.9,0.9
		c-5.1,4.6-11.8,7-18.7,6.8h-9.3v17.9L5868.3,902.8z M5893.7,854h-9.1v15.3h9.1c4.2,1.2,8.6-1.2,9.9-5.4c1.2-4.2-1.2-8.6-5.4-9.9
		C5896.7,853.5,5895.2,853.5,5893.7,854"/>
	<polygon class="st0" points="5922.4,838.3 5972.6,838.3 5972.6,854 5956.2,854 5956.8,902.8 5939,902.8 5938.9,854 5922.4,854 	"/>
	<path class="st0" d="M6003.8,837.9c9.1-0.2,17.8,3.3,24.3,9.6c12.8,12.1,13.3,32.3,1.2,45c-0.4,0.4-0.8,0.8-1.2,1.2
		c-6.5,6.3-15.2,9.7-24.3,9.6c-8.9,0.1-17.5-3.4-23.9-9.6c-12.8-12.1-13.3-32.3-1.2-45c0.4-0.4,0.8-0.8,1.2-1.2
		C5986.3,841.2,5994.9,837.8,6003.8,837.9 M6003.8,853.8c-4.6-0.2-9.2,1.6-12.4,4.9c-6.6,5.3-7.6,15-2.3,21.6
		c0.7,0.8,1.4,1.6,2.3,2.3c3.3,3.2,7.8,5,12.4,4.9c4.6,0.1,9.1-1.7,12.4-4.9c3.6-2.9,5.7-7.2,5.7-11.9c0-4.6-2.1-9-5.7-11.9
		C6013,855.5,6008.5,853.8,6003.8,853.8"/>
	<rect x="6043.8" y="838.3" class="st0" width="15.8" height="64.4"/>
	<path class="st0" d="M6067.6,902.8v-64.4h23.9c3.8,0,7.6,0.5,11.2,1.7c3,1.1,5.7,2.8,8,5c4.5,3.7,6.9,9.2,6.7,15v1.6
		c-0.1,4.5-1.6,9-4.3,12.6c-1.7,2.4-4.1,4.3-6.8,5.5l15.9,23.1h-19.9l-19.1-25.2v25.2L6067.6,902.8z M6100.8,861.4
		c0-2-0.9-3.9-2.5-5.2c-2.4-1.5-5.2-2.2-8-2.2h-6.9v15h9.3c4.4,0,8-3.6,8-8"/>
</g>
</svg>
