<?xml version="1.0" encoding="utf-8"?>
<!-- Generator: Adobe Illustrator 22.0.0, SVG Export Plug-In . SVG Version: 6.00 Build 0)  -->
<svg version="1.1" id="Calque_1" xmlns="http://www.w3.org/2000/svg" xmlns:xlink="http://www.w3.org/1999/xlink" x="0px" y="0px"
	 viewBox="0 0 1080 271" style="enable-background:new 0 0 1080 271;" xml:space="preserve">
<g>
	<path style="fill:#ffffff" d="M38.8,7.3c5.7,0,10.4,1.5,14.2,4.5c3.8,3,6.2,7.1,7.1,12.5h-4.9c-0.3-3.3-2-6.3-5.2-8.9c-3.1-2.6-6.9-3.9-11.3-3.9
		c-4,0-7.4,0.9-10.3,2.8c-2.9,1.9-5.1,4.6-6.7,8c-1.5,3.5-2.3,7.3-2.3,11.6c0,6.7,1.8,12.2,5.2,16.3c3.5,4.1,8.2,6.2,14,6.2
		c5.4,0,9.7-1.7,12.9-5c3.2-3.3,4.8-7.8,4.8-13.4v-0.4H39.1v-4.2h21.7v26h-3.5l-0.6-9.3h-0.2c-1.6,3.4-3.9,6-7,7.7
		c-3.1,1.8-6.6,2.7-10.7,2.7c-7.3,0-13.2-2.5-17.5-7.4c-4.4-4.9-6.6-11.3-6.6-19.2c0-5.1,1-9.7,3-13.8c2-4.1,4.8-7.2,8.4-9.5
		C29.8,8.4,34,7.3,38.8,7.3"/>
	<path style="fill:#ffffff" d="M150.7,8.3c4.7,0,8.5,1.1,11.3,3.4c2.9,2.3,4.3,5.6,4.3,9.9c0,3.4-0.9,6.3-2.6,8.6c-1.7,2.3-4.2,3.8-7.3,4.4v0.1
		c2.9,0.4,5,1.6,6.6,3.4c1.5,1.9,2.3,5,2.5,9.4l0.1,3c0.2,4.4,0.9,7.3,2.2,8.8h-5.4c-0.7-1-1.1-4.1-1.4-9.4c-0.3-5-1.2-8.5-2.7-10.4
		c-1.6-1.9-3.8-2.9-6.7-2.9h-19.2v22.7h-4.9V8.3H150.7z M150.5,32.6c3,0,5.6-0.9,7.7-2.7c2.1-1.8,3.2-4.2,3.2-7.2
		c0-3.3-1-5.8-2.9-7.5c-1.9-1.8-4.6-2.6-8.1-2.6h-18.2v20.1H150.5z"/>
	<path style="fill:#ffffff" d="M253.8,7.3c4.8,0,9,1.1,12.6,3.4c3.6,2.3,6.5,5.5,8.4,9.5c2,4.1,3,8.6,3,13.7c0,7.9-2.2,14.3-6.6,19.3
		c-4.4,4.9-10.2,7.4-17.5,7.4c-7.4,0-13.3-2.5-17.6-7.5c-4.3-5-6.5-11.3-6.5-19.2c0-8,2.2-14.4,6.6-19.3
		C240.7,9.7,246.6,7.3,253.8,7.3 M234.6,33.9c0,6.7,1.7,12.2,5.2,16.3c3.5,4.1,8.2,6.2,14,6.2c5.8,0,10.4-2.1,13.9-6.2
		c3.5-4.1,5.3-9.6,5.3-16.3c0-6.7-1.8-12.2-5.3-16.3c-3.5-4.1-8.2-6.2-14-6.2c-5.9,0-10.5,2.1-14,6.2
		C236.3,21.8,234.6,27.2,234.6,33.9"/>
	<path style="fill:#ffffff" d="M347.1,8.3V40c0,5.6,1.2,9.7,3.7,12.3c2.5,2.6,6.2,4,11.2,4c5.2,0,9-1.3,11.4-4.1c2.4-2.7,3.6-6.8,3.6-12.3V8.3h4.9v32.6
		c0,6.3-1.8,11.1-5.2,14.5c-3.5,3.4-8.4,5.1-14.6,5.1c-6.3,0-11.2-1.7-14.6-5.2c-3.4-3.4-5.2-8.3-5.2-14.5V8.3H347.1z"/>
	<path style="fill:#ffffff" d="M471.7,8.3c4.7,0,8.4,1.3,11.1,3.9c2.7,2.6,4,6.2,4,10.7c0,4.6-1.3,8.2-4,10.7c-2.7,2.6-6.4,3.9-11.1,3.9h-17.9v21.9H449
		V8.3H471.7z M470.7,33.4c3.3,0,6.1-0.8,8.2-2.5c2.1-1.7,3.1-4.3,3.1-7.9c0-3.2-0.9-5.7-2.8-7.6c-1.9-1.9-4.8-2.8-8.6-2.8h-16.7
		v20.9H470.7z"/>
	<polygon style="fill:#ffffff" points="586.6,8.3 586.6,12.5 556.2,12.5 556.2,31 584.7,31 584.7,35.1 556.2,35.1 556.2,55.3 587,55.3 587,59.4
		551.3,59.4 551.3,8.3 	"/>
	<polygon style="fill:#ffffff" points="42.8,102.8 42.8,181.7 89.9,181.7 89.9,199.6 21.5,199.6 21.5,102.8 	"/>
	<path style="fill:#ffffff" d="M145.7,127.6c20.4,0.1,30.6,6.7,30.6,19.9v37.1c0,6.9,0.8,11.8,2.5,14.9h-19.5c-0.7-2.2-1.2-4.4-1.4-6.8
		c-5.7,5.8-13.6,8.7-23.6,8.7c-7.3,0-13.1-1.8-17.4-5.5c-4.3-3.7-6.4-8.9-6.4-15.5c0-6.4,2-11.4,6.1-14.9c4.2-3.7,11.7-6.1,22.6-7.1
		c7.8-0.8,12.7-1.8,14.8-3.1c2.1-1.2,3.1-3.1,3.1-5.6c0-3.2-1-5.5-2.9-7.1c-1.9-1.5-5.1-2.3-9.5-2.3c-4.1,0-7.1,0.8-9.2,2.5
		c-2.1,1.7-3.3,4.4-3.6,8.1h-19.3c0.5-7.7,3.6-13.5,9.5-17.5C128,129.6,135.8,127.6,145.7,127.6 M129.7,179.6c0,6,3.9,8.9,11.8,8.9
		c10.3-0.1,15.5-5.4,15.6-15.9v-7.5c-1.6,1.5-5.4,2.7-11.7,3.4c-5.4,0.6-9.4,1.7-11.9,3.3C131,173.6,129.7,176.1,129.7,179.6"/>
	<polygon style="fill:#ffffff" points="326.2,102.8 326.2,120.7 279.4,120.7 279.4,143 319.9,143 319.9,159.6 279.4,159.6 279.4,199.6 258.1,199.6
		258.1,102.8 	"/>
	<path style="fill:#ffffff" d="M378.4,127.6c11.2,0,20.1,3.4,26.6,10.2c6.5,6.8,9.8,15.8,9.8,26.8c0,11.1-3.3,20.1-10,26.8c-6.6,6.7-15.4,10.1-26.4,10.1
		c-11.1,0-19.9-3.4-26.4-10.2c-6.5-6.8-9.8-15.7-9.8-26.7c0-11.3,3.3-20.3,10-27C358.8,130.9,367.5,127.6,378.4,127.6 M361.4,164.6
		c0,7.1,1.4,12.7,4.3,16.5c2.9,3.9,7.1,5.8,12.6,5.8c5.7,0,10-2,12.8-5.9c2.8-4,4.3-9.5,4.3-16.4c0-7.2-1.5-12.8-4.4-16.7
		c-2.9-3.9-7.2-5.8-12.8-5.8c-5.4,0-9.6,2-12.5,5.8C362.9,151.8,361.4,157.4,361.4,164.6"/>
	<path style="fill:#ffffff" d="M460,129.5v39.7c0,5.4,0.9,9.6,2.6,12.6s5,4.5,9.8,4.5c5.3,0,9.1-1.6,11.4-4.7c2.3-3.2,3.5-8.2,3.5-15.2v-36.9h19.3v70.1
		h-18.3v-9.8h-0.4c-4.8,7.8-12,11.6-21.6,11.6c-9.1,0-15.7-2.3-19.6-7c-3.9-4.7-5.9-11.8-5.9-21.5v-43.5H460z"/>
	<path style="fill:#ffffff" d="M575.7,127.6c1.6,0,3,0.2,4.2,0.7v17.9c-2.1-0.5-4.4-0.7-6.9-0.7c-12.7,0-19,7.5-19,22.5v31.6h-19.3v-70.1H553v13h0.3
		c1.9-4.5,4.9-8.2,9-10.9C566.4,128.9,570.9,127.6,575.7,127.6"/>
	<path style="fill:#ffffff" d="M633.6,127.6c9.5,0,17.2,2.4,23.2,7.3c6,4.8,9.2,11.3,9.8,19.3h-18.9c-1.3-8-6-12.1-14.2-12.1c-5,0-9.1,2.1-12,6.2
		c-3,4.2-4.4,9.7-4.4,16.5c0,6.6,1.4,11.9,4.2,16c2.8,4.1,6.7,6.1,11.8,6.1c8.8,0,13.9-4.7,15.3-14.2h18.6
		c-1.3,9.3-4.9,16.4-10.8,21.4s-13.6,7.4-23,7.4c-10.4,0-18.9-3.3-25.5-10c-6.6-6.6-9.9-15.3-9.9-26c0-11.6,3.3-20.8,9.8-27.7
		C614,131,622.7,127.6,633.6,127.6"/>
	<path style="fill:#ffffff" d="M710.6,102.8v36.5h0.4c2.2-3.6,5.1-6.5,8.8-8.5c3.7-2.1,7.6-3.1,11.8-3.1c8.9,0,15.4,2.3,19.4,6.8c4,4.5,6,11.7,6,21.4
		v43.8h-19.3v-39.9c0-5.7-0.9-9.9-2.8-12.7c-1.8-2.8-5-4.2-9.6-4.2c-5.2,0-8.9,1.6-11.3,4.7c-2.4,3.1-3.6,8.2-3.6,15.4v36.8h-19.3
		v-96.8H710.6z"/>
	<path style="fill:#ffffff" d="M817.7,127.6c6.6,0,12.5,1.6,17.6,4.6c5.2,3.1,9.2,7.5,12.1,13.4c2.9,5.8,4.4,12.5,4.4,20.1c0,0.7,0,1.9-0.1,3.5h-50.6
		c0.2,5.6,1.6,10,4.4,13.1c2.8,3.1,7,4.7,12.7,4.7c3.5,0,6.8-0.9,9.7-2.7c3-1.8,4.8-3.9,5.6-6.4h16.9c-5,15.7-15.9,23.6-32.8,23.6
		c-6.4-0.1-12.4-1.5-17.8-4.2c-5.5-2.7-9.8-6.9-13.1-12.7c-3.3-5.7-4.9-12.4-4.9-20c0-7.1,1.7-13.7,5-19.5
		c3.3-5.9,7.7-10.3,13.2-13.2C805.5,129,811.4,127.6,817.7,127.6 M832.5,157c-0.9-5.2-2.6-9-5-11.4c-2.4-2.4-5.9-3.5-10.4-3.5
		c-4.7,0-8.4,1.3-11.1,4c-2.7,2.7-4.3,6.3-4.8,10.9H832.5z"/>
	<path style="fill:#ffffff" d="M901.1,108.4v21h14.1v12.9h-14.1v34.7c0,3.2,0.5,5.4,1.6,6.5c1.1,1.1,3.2,1.6,6.5,1.6c2.4,0,4.3-0.2,6-0.6v15.1
		c-2.7,0.5-6.5,0.7-11.4,0.7c-7.4,0-12.9-1.3-16.5-3.8c-3.6-2.5-5.4-6.9-5.4-13.2v-41.1h-11.7v-12.9h11.7v-21H901.1z"/>
	<path style="fill:#ffffff" d="M962.4,108.4v21h14.1v12.9h-14.1v34.7c0,3.2,0.5,5.4,1.6,6.5c1.1,1.1,3.2,1.6,6.5,1.6c2.4,0,4.3-0.2,6-0.6v15.1
		c-2.7,0.5-6.5,0.7-11.4,0.7c-7.4,0-12.9-1.3-16.5-3.8c-3.6-2.5-5.4-6.9-5.4-13.2v-41.1h-11.7v-12.9h11.7v-21H962.4z"/>
	<path style="fill:#ffffff" d="M1031,127.6c6.6,0,12.5,1.6,17.6,4.6c5.2,3.1,9.2,7.5,12.1,13.4c2.9,5.8,4.4,12.5,4.4,20.1c0,0.7,0,1.9-0.1,3.5h-50.6
		c0.2,5.6,1.6,10,4.4,13.1c2.8,3.1,7,4.7,12.7,4.7c3.5,0,6.8-0.9,9.7-2.7c3-1.8,4.8-3.9,5.6-6.4h16.9c-5,15.7-15.9,23.6-32.8,23.6
		c-6.4-0.1-12.4-1.5-17.8-4.2c-5.5-2.7-9.8-6.9-13.1-12.7c-3.3-5.7-4.9-12.4-4.9-20c0-7.1,1.7-13.7,5-19.5
		c3.3-5.9,7.7-10.3,13.2-13.2C1018.8,129,1024.7,127.6,1031,127.6 M1045.8,157c-0.9-5.2-2.6-9-5-11.4c-2.4-2.4-5.9-3.5-10.4-3.5
		c-4.7,0-8.4,1.3-11.1,4c-2.7,2.7-4.3,6.3-4.8,10.9H1045.8z"/>
	<rect style="fill:#ffffff" x="639.5" y="30.5" width="425.8" height="4.3"/>
	<rect style="fill:#ffffff" x="18.4" y="259.3" width="1046.8" height="4.5"/>
</g>
</svg>
