<?xml version="1.0" encoding="utf-8"?>
<!-- Generator: Adobe Illustrator 22.0.0, SVG Export Plug-In . SVG Version: 6.00 Build 0)  -->
<svg version="1.1" id="Calque_1" xmlns="http://www.w3.org/2000/svg" xmlns:xlink="http://www.w3.org/1999/xlink" x="0px" y="0px"
	 viewBox="0 0 1044.4 1080" style="enable-background:new 0 0 1044.4 1080;" xml:space="preserve">
<style type="text/css">
	.st0{fill:#3A1E30;}
	.st1{fill:#FFFFFF;}
</style>
<g>
	<rect y="-0.4" class="st0" width="1044.4" height="1080.8"/>
	<path class="st1" d="M838.6,434h9.2c6.3,0,11.5-5.1,11.5-11.4c0-6.3-5.1-11.4-11.5-11.4h-9.2c-6.3,0-11.4,5.1-11.4,11.4
		C827.2,428.9,832.3,434,838.6,434"/>
	<path class="st1" d="M191.4,434h20.4c6.3,0,11.5-5.1,11.5-11.4c0-6.3-5.1-11.4-11.5-11.4h-20.4c-6.3,0-11.4,5.1-11.4,11.4
		C180,428.9,185.1,434,191.4,434"/>
	<path class="st1" d="M258.8,434h42.4v0.5h428.1V434h60.2c6.3,0,11.4-5.1,11.4-11.4s-5.1-11.4-11.4-11.4H729
		c-6-108.2-93.5-195.1-202.3-200.8v-17.8c0-6.3-5.1-11.4-11.4-11.4c-6.3,0-11.4,5.1-11.4,11.4v17.8
		c-108.8,5.7-196.3,92.6-202.3,200.8h-42.7c-6.3,0-11.4,5.1-11.4,11.4S252.5,434,258.8,434 M515.3,232.9
		c101.4,0,184.6,78.9,190.8,178.3H324.5C330.6,311.9,413.8,232.9,515.3,232.9"/>
	<path class="st1" d="M570.7,561.5l58.6-51.5c15.9-14,39.6-13.6,55,1l147.5,139c2.2,2.1,5.1,3.1,7.9,3.1c3,0,6.1-1.2,8.3-3.5
		c4.3-4.6,4.2-11.8-0.5-16.1L700,494.4c-13.6-12.8-31.2-18.6-48.5-17.3H520.1c-6.3,0-11.4,5.1-11.4,11.4c0,6.3,5.1,11.4,11.4,11.4
		h86l-50.7,44.6c-13.6,12-33,13.7-48.2,4.2l-111.7-69c-5.4-3.3-12.4-1.7-15.8,3.7c-3.3,5.3-1.7,12.4,3.7,15.7L495.2,568
		C519.1,582.8,549.4,580.2,570.7,561.5"/>
	<polygon class="st1" points="198.3,774.9 198.3,728.9 205.3,728.9 205.3,768.6 227.5,768.6 227.5,774.9 	"/>
	<path class="st1" d="M268.9,760.4h-7.6c-4,0-6,1.7-6,4.7c0,3,1.9,4.6,6.2,4.6c2.3,0,4.2-0.2,5.9-1.9c1-1,1.4-2.5,1.4-4.8V760.4z
		 M269,774.9v-3c-2.4,2.4-4.7,3.4-8.7,3.4c-4.1,0-6.8-1-8.8-3c-1.7-1.7-2.6-4.3-2.6-7c0-5.5,3.8-9.4,11.4-9.4h8.6v-2.3
		c0-4.2-2-6.1-7.2-6.1c-3.5,0-5.3,0.9-7.2,3.2l-4.3-4.1c3-3.6,6.2-4.8,11.7-4.8c9,0,13.5,3.9,13.5,11.2v21.9H269z"/>
	<polygon class="st1" points="342.4,735.2 342.4,749.2 361.5,749.2 361.5,755.5 342.4,755.5 342.4,774.9 335.4,774.9 335.4,728.9
		364.8,728.9 364.8,735.2 	"/>
	<path class="st1" d="M404.1,749.5c-1.2-1.2-2.9-1.9-4.8-1.9c-1.9,0-3.6,0.7-4.8,1.9c-2,2-2.3,5.4-2.3,9c0,3.6,0.3,7,2.3,9
		c1.2,1.2,2.8,1.9,4.8,1.9c1.9,0,3.6-0.7,4.8-1.9c2-2,2.3-5.4,2.3-9C406.4,754.9,406.1,751.5,404.1,749.5 M409.1,771.4
		c-2.1,2.2-5.4,3.9-9.8,3.9s-7.6-1.7-9.8-3.9c-3.1-3.2-3.9-7.4-3.9-12.9c0-5.5,0.8-9.6,3.9-12.8c2.1-2.2,5.3-3.9,9.8-3.9
		s7.7,1.7,9.8,3.9c3.1,3.2,3.9,7.4,3.9,12.8C413,764,412.2,768.2,409.1,771.4"/>
	<path class="st1" d="M458.4,774.9v-3.3c-2.3,2.5-5.4,3.7-8.7,3.7c-3.4,0-6.1-1.1-8.1-3c-2.5-2.5-3.3-5.6-3.3-9.2v-20.9h6.6v19.9
		c0,5.1,2.9,7.3,6.6,7.3c3.7,0,6.8-2.2,6.8-7.3v-19.9h6.6v32.7H458.4z"/>
	<path class="st1" d="M510.1,749.8c-1.5-1.5-2.7-2.2-4.9-2.2c-3.6,0-6.5,2.8-6.5,7.4v19.9h-6.6v-32.7h6.5v3.6c1.7-2.3,5-3.9,8.7-3.9
		c3.2,0,5.6,0.8,7.8,3.1L510.1,749.8z"/>
	<path class="st1" d="M548.1,775.3c-7.4,0-14.6-4.5-14.6-16.8c0-12.3,7.2-16.7,14.6-16.7c4.5,0,7.7,1.3,10.8,4.6l-4.5,4.4
		c-2.1-2.3-3.7-3.1-6.3-3.1c-2.5,0-4.7,1-6.1,2.9c-1.4,1.8-1.9,4.1-1.9,7.9s0.5,6.2,1.9,8c1.4,1.9,3.6,2.9,6.1,2.9
		c2.6,0,4.2-0.8,6.3-3.1l4.5,4.3C555.8,773.9,552.6,775.3,548.1,775.3"/>
	<path class="st1" d="M603.2,774.9v-19.9c0-5.1-2.9-7.3-6.6-7.3c-3.7,0-6.8,2.3-6.8,7.3v19.9h-6.6v-45.9h6.6v16.5
		c2.2-2.5,5.2-3.7,8.6-3.7c3.4,0,6.1,1.1,8.1,3c2.5,2.5,3.3,5.6,3.3,9.2v20.9H603.2z"/>
	<path class="st1" d="M655.4,751.4c-1.1-2.5-3.4-4.1-6.5-4.1c-3.2,0-5.4,1.7-6.5,4.1c-0.7,1.4-0.8,2.5-0.8,4.5h14.7
		C656.1,753.8,656,752.8,655.4,751.4 M641.6,760.4c0,5.7,2.9,9.2,8.3,9.2c3.7,0,5.6-1,7.9-3.4l4.2,3.9c-3.4,3.4-6.5,5.1-12.3,5.1
		c-8.2,0-14.7-4.3-14.7-16.8c0-10.7,5.5-16.7,13.9-16.7c8.8,0,13.9,6.3,13.9,15.9v2.8H641.6z"/>
	<path class="st1" d="M698,774.9c-6.1,0-9-4.4-9-9.1v-18.6h-3.8v-5h3.8v-9.4h6.6v9.4h6.3v5h-6.3v18.3c0,2.4,1.2,3.8,3.6,3.8h2.7v5.6
		H698z"/>
	<path class="st1" d="M736.9,774.9c-6.1,0-9-4.4-9-9.1v-18.6h-3.8v-5h3.8v-9.4h6.6v9.4h6.3v5h-6.3v18.3c0,2.4,1.2,3.8,3.6,3.8h2.7
		v5.6H736.9z"/>
	<path class="st1" d="M784.3,751.4c-1.1-2.5-3.4-4.1-6.5-4.1c-3.2,0-5.4,1.7-6.5,4.1c-0.7,1.4-0.8,2.5-0.8,4.5h14.7
		C785.1,753.8,784.9,752.8,784.3,751.4 M770.5,760.4c0,5.7,2.9,9.2,8.3,9.2c3.7,0,5.6-1,7.9-3.4l4.2,3.9c-3.4,3.4-6.5,5.1-12.3,5.1
		c-8.2,0-14.7-4.3-14.7-16.8c0-10.7,5.5-16.7,13.9-16.7c8.8,0,13.9,6.3,13.9,15.9v2.8H770.5z"/>
	<path class="st1" d="M233.3,830.9v61.2c0,1.9-1.5,3.4-3.4,3.4h-9.3c-1.9,0-3.4-1.5-3.4-3.4v-61.2c0-1.9-1.5-3.4-3.4-3.4h-14.8
		c-1.9,0-3.4-1.5-3.4-3.4v-7.6c0-1.9,1.5-3.4,3.4-3.4h52.3c1.9,0,3.4,1.5,3.4,3.4v7.6c0,1.9-1.5,3.4-3.4,3.4h-14.8
		C234.8,827.6,233.3,829.1,233.3,830.9"/>
	<path class="st1" d="M310.6,827.6h-11.7c-1.9,0-3.4,1.5-3.4,3.4v14.9c0,1.9,1.5,3.4,3.4,3.4h11.7c7,0,11.7-4.5,11.7-10.9
		S317.6,827.6,310.6,827.6 M322.1,893.6l-14.2-29c-0.6-1.2-1.7-1.9-3-1.9h-6.1c-1.9,0-3.4,1.5-3.4,3.4v26c0,1.9-1.5,3.4-3.4,3.4
		h-9.3c-1.9,0-3.4-1.5-3.4-3.4v-75.4c0-1.9,1.5-3.4,3.4-3.4h28.8c16.7,0,26.7,11.4,26.7,25.2c0,10.1-5.4,16.8-12,20.3
		c-1.6,0.8-2.2,2.9-1.4,4.5l14.2,27.4c1.2,2.3-0.5,4.9-3,4.9h-10.9C323.8,895.5,322.7,894.7,322.1,893.6"/>
	<path class="st1" d="M390.8,846.7l-5.7,16.3c-0.7,2.2,0.8,4.4,3.1,4.4h11.2c2.3,0,3.9-2.2,3.2-4.4l-5.5-16.3
		C396.1,843.7,391.8,843.7,390.8,846.7 M412.4,893.2l-3.3-10c-0.5-1.3-1.7-2.3-3.2-2.3h-24.5c-1.4,0-2.7,0.9-3.1,2.3l-3.4,10.1
		c-0.5,1.3-1.7,2.2-3.1,2.2h-9.6c-2.3,0-3.9-2.3-3.1-4.5l27.5-75.6c0.5-1.3,1.7-2.2,3.1-2.2h7.9c1.4,0,2.6,0.9,3.1,2.2l27.6,75.6
		c0.8,2.2-0.8,4.5-3.1,4.5h-9.6C414.1,895.5,412.9,894.6,412.4,893.2"/>
	<path class="st1" d="M451.6,892.2v-75.6c0-1.8,1.5-3.3,3.3-3.3h9.4c1.8,0,3.3,1.5,3.3,3.3v75.6c0,1.8-1.5,3.3-3.3,3.3h-9.4
		C453.1,895.5,451.6,894,451.6,892.2"/>
	<path class="st1" d="M529.7,830.9v61.2c0,1.9-1.5,3.4-3.4,3.4h-9.3c-1.9,0-3.4-1.5-3.4-3.4v-61.2c0-1.9-1.5-3.4-3.4-3.4h-14.7
		c-1.9,0-3.4-1.5-3.4-3.4v-7.6c0-1.9,1.5-3.4,3.4-3.4h52.3c1.9,0,3.4,1.5,3.4,3.4v7.6c0,1.9-1.5,3.4-3.4,3.4h-14.7
		C531.2,827.6,529.7,829.1,529.7,830.9"/>
	<path class="st1" d="M575.8,892.1v-75.6c0-1.8,1.5-3.3,3.3-3.3h47.5c1.8,0,3.3,1.5,3.3,3.3v7.7c0,1.8-1.5,3.3-3.3,3.3h-31.4
		c-1.8,0-3.3,1.5-3.3,3.3v12.6c0,1.8,1.5,3.3,3.3,3.3h25.8c1.8,0,3.3,1.5,3.3,3.3v7.7c0,1.8-1.5,3.3-3.3,3.3h-25.8
		c-1.8,0-3.3,1.5-3.3,3.3v13.3c0,1.8,1.5,3.3,3.3,3.3h31.4c1.8,0,3.3,1.5,3.3,3.3v7.7c0,1.8-1.5,3.3-3.3,3.3h-47.5
		C577.3,895.5,575.8,894,575.8,892.1"/>
	<path class="st1" d="M686.1,896.2c-16.9,0-30.3-11.4-30.3-28.9v-50.9c0-1.7,1.4-3.1,3.1-3.1h9.9c1.7,0,3.1,1.4,3.1,3.1v50.4
		c0,9.5,5.5,15.1,14.2,15.1c8.7,0,14.3-5.7,14.3-15.1v-50.4c0-1.7,1.4-3.1,3.1-3.1h9.7c1.7,0,3.1,1.4,3.1,3.1v50.9
		C716.4,884.7,703,896.2,686.1,896.2"/>
	<path class="st1" d="M777,827.6h-11.9c-1.8,0-3.3,1.5-3.3,3.3V846c0,1.8,1.5,3.3,3.3,3.3H777c7,0,11.7-4.5,11.7-10.9
		C788.6,832.1,784,827.6,777,827.6 M788.5,893.6l-14.3-29.1c-0.5-1.1-1.7-1.8-2.9-1.8h-6.2c-1.8,0-3.3,1.5-3.3,3.3v26.3
		c0,1.8-1.5,3.3-3.3,3.3h-9.5c-1.8,0-3.3-1.5-3.3-3.3v-75.7c0-1.8,1.5-3.3,3.3-3.3h29c16.7,0,26.7,11.4,26.7,25.2
		c0,10.1-5.4,16.9-12.1,20.3c-1.6,0.8-2.1,2.8-1.3,4.3l14.3,27.6c1.1,2.2-0.5,4.8-2.9,4.8h-11.2
		C790.2,895.5,789.1,894.8,788.5,893.6"/>
</g>
</svg>
