<?xml version="1.0" standalone="no"?>
<!DOCTYPE svg PUBLIC "-//W3C//DTD SVG 20010904//EN"
 "http://www.w3.org/TR/2001/REC-SVG-20010904/DTD/svg10.dtd">
<svg version="1.0" xmlns="http://www.w3.org/2000/svg"
 width="1080.000000pt" height="285.000000pt" viewBox="0 0 1080.000000 285.000000"
 preserveAspectRatio="xMidYMid meet">
<metadata>
Created by potrace 1.16, written by Peter Selinger 2001-2019
</metadata>
<g transform="translate(0.000000,285.000000) scale(0.100000,-0.100000)"
fill="#000000" stroke="none">
<path d="M436 2742 c-5 -9 -9 -112 -7 -219 1 -74 3 -82 19 -77 15 5 15 4 -2
-10 -16 -13 -19 -31 -20 -136 -1 -67 2 -124 6 -127 5 -2 4 -11 -3 -19 -9 -11
-9 -17 1 -29 7 -8 8 -15 3 -15 -6 0 -10 -231 -10 -585 -1 -570 -1 -585 18
-585 17 0 19 8 19 65 0 44 -4 65 -12 65 -9 0 -9 3 0 12 17 17 16 155 0 161
-10 4 -10 7 0 14 6 5 12 20 12 34 0 13 2 255 4 537 3 329 1 512 -5 512 -6 0
-6 7 1 19 5 11 11 93 12 182 l3 162 463 -2 c409 -1 462 0 462 14 0 8 5 15 10
15 6 0 10 -7 10 -15 0 -8 6 -15 13 -15 6 0 223 0 482 0 259 0 479 0 490 0 11
1 79 -1 152 -4 116 -3 132 -2 136 13 4 14 5 14 6 -1 1 -16 16 -17 161 -16 88
0 163 -1 165 -4 6 -5 6 -410 1 -848 -3 -218 -1 -309 8 -319 8 -11 8 -15 -1
-18 -7 -3 -13 -20 -13 -39 0 -26 -7 -39 -31 -56 -17 -13 -34 -23 -39 -23 -5 0
-12 -3 -16 -8 -4 -4 -16 -7 -26 -7 -18 0 -58 -29 -58 -42 0 -5 8 -4 18 1 37
21 115 51 132 51 15 0 19 -10 22 -61 1 -34 -1 -63 -6 -66 -5 -3 -50 -17 -100
-30 -90 -24 -143 -37 -281 -67 -38 -9 -88 -20 -110 -26 -90 -25 -201 -50 -222
-50 -12 0 -29 7 -37 16 -9 8 -20 12 -26 9 -6 -4 -4 -12 6 -22 14 -15 12 -17
-26 -30 -46 -16 -75 -11 -67 11 4 9 -4 15 -24 18 -16 3 -29 1 -29 -4 0 -4 -7
-8 -15 -8 -31 0 -141 -43 -156 -61 -15 -16 -80 -38 -116 -39 -7 0 -13 12 -13
28 l-1 27 -13 -31 c-9 -20 -29 -39 -58 -53 -60 -28 -69 -27 -62 8 5 23 2 32
-16 41 -25 13 -42 4 -20 -10 9 -6 10 -10 3 -10 -7 0 -11 -12 -10 -27 2 -33
-29 -53 -84 -53 -30 0 -40 6 -60 34 -13 19 -27 32 -31 30 -11 -7 -10 -48 2
-60 17 -17 1 -41 -32 -48 -36 -7 -48 -1 -48 25 0 10 -6 19 -13 19 -20 0 -37
-21 -37 -46 0 -15 -12 -29 -36 -43 -19 -12 -37 -21 -40 -21 -2 0 -4 23 -4 50
0 28 -3 50 -7 50 -13 0 -35 -17 -35 -26 0 -5 -7 -18 -14 -29 -14 -19 -14 -19
-34 0 -11 11 -20 34 -21 50 -3 56 -8 66 -30 55 -13 -7 -19 -7 -19 0 0 5 -4 10
-10 10 -5 0 -10 -9 -10 -21 0 -15 4 -19 16 -15 18 7 43 -19 44 -44 0 -9 -9
-23 -20 -33 -19 -16 -20 -16 -20 3 0 11 7 20 15 20 8 0 15 5 15 10 0 6 -4 10
-9 10 -5 0 -16 3 -25 6 -13 5 -16 -2 -16 -40 l0 -46 80 0 c78 0 106 -13 55
-26 -16 -4 -25 -13 -25 -25 0 -24 10 -22 173 32 132 44 142 45 163 24 9 -8 24
-15 36 -15 17 0 19 4 13 30 -5 22 -3 30 7 30 7 0 23 3 35 6 21 6 22 2 25 -52
3 -51 6 -59 23 -59 16 0 21 8 23 36 2 23 -3 42 -12 52 -13 13 -13 16 2 30 26
22 58 37 82 37 18 0 21 -5 19 -43 -3 -48 5 -67 27 -67 15 0 16 3 18 75 1 48 2
50 38 62 20 7 49 13 65 15 l28 3 0 -74 c0 -55 4 -76 14 -79 10 -3 12 0 8 12
-4 9 -2 16 3 16 6 0 10 -4 10 -10 0 -5 5 -10 10 -10 6 0 9 31 8 80 l-3 81 37
10 c51 13 118 19 118 10 0 -4 -5 -12 -11 -18 -14 -14 -3 -67 12 -57 6 3 9 15
6 25 -3 11 -1 17 3 14 5 -3 8 7 7 22 -2 31 29 53 75 53 15 0 39 5 55 11 15 6
54 11 86 10 36 0 56 3 52 9 -3 6 3 10 14 10 12 0 21 -4 21 -10 0 -5 15 -10 33
-10 23 0 34 5 34 15 0 14 -16 20 -42 16 -5 -1 -1 6 9 14 11 8 30 15 42 15 12
0 50 9 85 19 55 16 90 25 159 38 8 1 64 14 124 28 60 14 111 24 113 21 3 -2 5
-142 5 -310 0 -168 4 -306 8 -306 20 0 23 38 27 319 2 163 6 301 8 308 2 6 28
16 57 22 29 7 100 23 158 36 481 113 490 114 490 93 0 -6 6 -4 13 5 7 10 39
24 72 32 76 18 75 18 76 -2 0 -14 2 -13 9 4 13 31 76 43 95 17 9 -13 10 -24 3
-37 -5 -10 -7 -21 -5 -24 10 -9 29 39 25 62 -4 19 2 24 49 38 30 10 63 17 75
17 l21 0 -22 -24 c-13 -14 -21 -31 -19 -38 3 -9 9 -5 17 10 14 25 46 29 55 6
3 -8 10 -12 16 -9 16 10 12 21 -15 35 -35 19 -17 34 60 49 33 7 105 21 160 32
55 11 129 27 164 35 58 14 65 14 73 0 11 -20 28 -21 28 -1 0 8 9 19 21 25 17
10 21 8 26 -9 7 -28 21 -26 33 4 12 33 40 33 40 1 0 -38 18 -41 22 -4 3 37 38
55 38 20 0 -24 31 -52 58 -52 21 0 52 24 52 41 0 14 -26 11 -40 -6 -15 -18
-53 -2 -48 22 2 13 74 40 111 43 4 0 7 -22 7 -50 0 -27 5 -50 10 -50 6 0 10
22 10 50 0 38 4 52 19 60 32 17 41 12 41 -25 0 -46 18 -45 22 2 5 59 28 54 28
-6 0 -40 4 -53 22 -65 30 -22 46 -20 21 2 -11 9 -24 32 -28 50 -8 40 15 72 52
72 24 0 25 -2 23 -62 -3 -91 3 -96 9 -8 5 68 8 75 29 78 19 3 22 -1 23 -30 l2
-33 4 30 c5 32 19 55 34 55 5 0 9 -6 9 -14 0 -11 10 -13 39 -9 30 4 39 2 45
-12 10 -27 -4 -38 -45 -32 -42 5 -54 -7 -16 -17 30 -7 64 3 71 21 8 20 -4 63
-17 63 -6 0 -8 3 -4 6 13 13 257 58 266 48 3 -3 5 -55 3 -115 -2 -92 0 -109
13 -109 11 0 15 12 15 50 l0 50 34 0 c61 0 88 58 65 140 -5 18 76 34 421 86
14 2 54 6 90 10 36 4 70 10 75 14 22 16 84 19 96 4 14 -17 34 -13 34 7 0 14
34 22 265 58 69 11 166 27 215 36 105 19 295 49 445 70 183 26 253 36 335 50
44 8 105 16 135 20 59 7 222 30 494 70 93 14 172 25 177 25 11 0 11 -21 1 -37
-9 -14 -183 -50 -602 -123 -169 -29 -295 -54 -480 -93 -91 -20 -241 -52 -335
-71 -93 -20 -196 -43 -228 -51 -32 -8 -69 -15 -82 -15 -12 0 -101 -20 -196
-44 -96 -24 -186 -46 -201 -50 -41 -9 -90 -55 -83 -77 4 -12 -1 -21 -14 -28
-29 -16 -32 -14 -21 14 11 28 -1 41 -26 27 -11 -6 -13 -11 -5 -16 19 -12 12
-24 -19 -28 -33 -5 -49 16 -23 30 13 8 13 10 -2 16 -10 3 -23 2 -29 -3 -6 -5
-22 -11 -36 -13 -14 -2 -24 -9 -22 -16 2 -10 -9 -12 -45 -6 -53 7 -69 16 -58
34 5 7 19 10 37 6 24 -5 29 -3 26 12 -2 10 -14 18 -29 20 -21 2 -29 -3 -39
-28 -10 -23 -10 -34 -1 -43 6 -6 11 -19 11 -29 0 -11 11 -23 25 -28 14 -5 25
-14 25 -20 0 -16 -31 -12 -52 7 -15 13 -18 14 -18 2 0 -44 59 -52 88 -12 21
29 42 24 42 -10 0 -17 2 -19 9 -8 5 8 7 20 4 28 -4 9 3 13 22 13 15 0 24 -4
20 -10 -11 -18 22 -40 59 -40 20 0 36 5 36 11 0 5 -8 9 -17 8 -45 -4 -64 1
-61 17 4 20 68 31 68 12 0 -9 3 -9 12 0 18 18 26 15 42 -17 20 -37 61 -46 81
-18 17 25 12 35 -10 17 -19 -15 -65 -5 -65 15 0 8 6 15 13 16 6 0 33 2 60 5
l47 4 0 -35 c0 -24 5 -35 15 -35 11 0 15 11 15 36 0 33 2 35 28 32 24 -3 27
-7 24 -35 -1 -25 2 -33 14 -33 13 0 15 7 11 34 -4 25 -1 36 10 40 19 8 33 -1
33 -20 0 -8 5 -12 10 -9 6 3 10 14 10 25 0 15 11 19 78 25 42 3 95 8 117 10
93 9 300 24 440 31 116 6 152 18 90 30 -27 5 -40 3 -46 -7 -8 -12 -10 -12 -18
0 -7 12 -17 12 -57 2 -27 -7 -119 -15 -204 -17 -85 -2 -207 -7 -270 -12 -111
-8 -152 -2 -120 18 13 8 13 13 2 30 -11 19 -10 22 20 34 18 8 134 35 258 60
124 26 250 53 280 61 59 14 331 71 415 86 82 14 107 19 175 34 68 15 210 40
420 75 69 11 163 27 209 35 46 8 86 13 88 11 2 -2 -1 -15 -7 -30 -5 -15 -10
-78 -10 -139 0 -90 4 -121 20 -156 11 -24 20 -44 20 -46 0 -8 -41 -12 -45 -4
-11 16 -512 -2 -556 -21 -17 -7 38 -9 191 -6 193 2 320 -3 418 -20 29 -4 32
-7 20 -21 -7 -9 -30 -27 -51 -40 -22 -13 -37 -27 -34 -29 3 -3 36 5 73 18 l69
24 75 -38 c75 -37 108 -42 243 -39 43 1 51 37 18 78 -14 18 -33 33 -42 33 -9
0 -22 7 -29 15 -7 8 -22 15 -33 15 -31 0 -10 14 58 38 98 35 143 41 321 43 93
1 175 4 182 6 23 9 12 18 -25 21 -91 6 -167 19 -153 25 8 3 33 11 55 16 154
37 178 83 49 94 -34 3 -68 1 -75 -4 -9 -6 0 -9 29 -9 23 0 42 -4 42 -10 0 -11
-3 -11 -95 -16 -67 -3 -91 -7 -101 -17 -4 -4 15 -5 42 -1 65 7 41 -8 -57 -36
-99 -29 -177 -42 -214 -37 -57 9 -140 35 -120 37 11 1 29 4 40 6 11 2 78 8
148 13 71 5 131 12 134 15 4 3 -39 6 -95 6 -59 0 -103 4 -107 10 -4 7 -11 8
-18 1 -7 -5 -46 -9 -87 -9 -82 1 -143 -9 -135 -22 3 -4 -3 -11 -13 -15 -16 -6
-16 -7 0 -16 19 -10 85 -24 168 -34 30 -4 59 -10 64 -15 10 -10 -186 -73 -228
-73 -32 0 -65 33 -93 93 -36 76 -15 299 29 315 25 9 284 54 373 65 50 6 126
17 170 25 44 8 139 24 210 35 72 11 157 25 190 31 33 6 83 13 110 15 56 5 263
38 370 58 39 8 99 19 135 24 78 12 140 37 140 56 0 19 -30 29 -46 15 -14 -11
-60 -8 -99 7 -17 7 -18 5 -8 -8 17 -20 6 -29 -22 -16 -16 7 -38 6 -81 -6 -32
-9 -99 -18 -147 -21 -58 -2 -96 -9 -112 -19 -14 -9 -37 -18 -52 -20 -16 -1
-46 -8 -68 -14 -22 -6 -107 -21 -190 -32 -82 -12 -184 -28 -225 -36 -41 -7
-151 -25 -245 -39 -93 -14 -219 -34 -280 -44 -60 -11 -111 -18 -113 -16 -2 2
-1 12 2 23 6 19 22 24 121 38 108 15 293 57 330 75 32 15 47 49 21 49 -9 0
-16 5 -16 11 0 5 -5 7 -10 4 -6 -4 -8 -11 -5 -16 4 -5 -5 -13 -18 -18 -48 -18
-356 -67 -377 -59 -13 4 56 142 90 178 17 18 38 30 53 30 27 0 52 23 42 40 -8
13 -68 13 -136 -1 -30 -5 -74 -12 -99 -15 -25 -3 -92 -13 -150 -24 -58 -10
-130 -21 -160 -25 -30 -3 -80 -10 -110 -16 -30 -5 -134 -23 -230 -39 -184 -31
-348 -59 -490 -85 -47 -8 -125 -22 -175 -30 -49 -9 -144 -26 -210 -39 -66 -13
-194 -38 -285 -56 -91 -17 -196 -38 -235 -46 -38 -8 -115 -22 -170 -30 -55 -8
-112 -19 -126 -23 -15 -5 -34 -4 -44 2 -14 7 -21 6 -30 -6 -6 -8 -28 -19 -49
-22 -32 -6 -40 -4 -53 14 -19 27 -37 22 -38 -10 0 -17 -6 -24 -20 -24 -12 0
-19 6 -17 14 2 8 0 21 -4 30 -5 11 -9 6 -13 -19 -5 -30 -11 -35 -44 -43 -47
-11 -55 -5 -28 24 22 24 28 49 11 49 -6 0 -16 -12 -22 -27 -16 -35 -56 -75
-69 -68 -5 4 -8 23 -7 43 2 20 -1 37 -7 37 -5 0 -10 -20 -10 -44 l0 -44 -49
-13 c-28 -7 -53 -11 -58 -8 -4 3 -8 32 -8 65 0 44 -3 60 -12 56 -9 -2 -13 -25
-13 -68 l0 -64 -35 -3 c-19 -2 -40 -8 -47 -14 -8 -6 -18 -6 -31 1 -15 8 -18
17 -13 47 7 42 29 57 38 25 6 -25 23 -19 18 7 -2 9 -4 18 -5 20 -4 3 -7 21 -9
38 0 9 -8 14 -17 12 -15 -3 -31 -45 -50 -128 -3 -14 -10 -29 -15 -35 -13 -13
-88 -35 -121 -35 l-28 0 0 74 c0 94 5 108 36 100 18 -5 24 -2 24 10 0 13 -12
16 -66 16 -48 0 -65 -3 -62 -12 3 -7 14 -14 26 -16 24 -4 29 -26 24 -119 -4
-61 -4 -62 -38 -73 -18 -6 -38 -9 -44 -5 -6 4 -10 52 -10 116 0 126 -16 150
-19 27 -1 -45 -4 -85 -7 -88 -3 -3 -12 4 -20 15 -14 19 -15 18 -8 -10 4 -16
11 -36 17 -43 14 -18 -2 -32 -39 -35 -24 -2 -29 2 -35 28 -6 32 -15 21 -21
-25 -3 -21 -10 -26 -48 -34 -25 -4 -90 -19 -145 -33 -163 -40 -267 -55 -279
-42 -8 8 -6 14 8 23 29 16 69 56 63 62 -3 3 -35 -15 -73 -40 -37 -25 -78 -46
-91 -46 -13 0 -26 -7 -29 -15 -4 -8 -12 -15 -19 -15 -7 0 -18 -6 -24 -14 -10
-11 -94 -39 -111 -37 -3 1 -5 24 -6 52 0 35 4 53 15 59 23 13 -53 13 -79 0
-11 -5 -29 -14 -40 -20 -11 -5 -26 -10 -34 -10 -20 0 -116 -44 -159 -74 -21
-14 -42 -26 -48 -26 -5 0 -21 -7 -34 -16 -13 -9 -29 -13 -34 -10 -6 4 -15 -2
-20 -13 -12 -21 -4 -54 10 -45 5 3 9 0 9 -5 0 -6 9 -11 19 -11 10 0 21 -7 25
-15 3 -8 12 -15 20 -15 10 0 13 6 9 16 -4 12 0 15 18 12 15 -2 25 -11 27 -23
2 -16 -9 -24 -55 -41 -89 -32 -163 -53 -213 -60 -53 -7 -51 -4 20 35 l54 30
-44 -6 c-25 -3 -61 -15 -81 -28 -19 -13 -44 -25 -55 -27 -10 -2 -18 -11 -18
-21 2 -19 1 -19 -38 -21 -16 -1 -28 1 -28 5 0 3 -22 4 -50 1 -34 -3 -50 -1
-50 7 0 12 101 80 153 103 15 7 27 19 27 25 0 18 21 16 48 -3 30 -20 61 -9 68
24 5 21 21 34 77 62 39 19 72 40 74 46 8 25 -24 41 -68 35 -44 -6 -62 -24 -34
-34 9 -4 15 -1 15 8 0 10 10 15 30 15 39 0 39 -19 0 -26 -16 -4 -35 -13 -41
-20 -20 -24 -42 -17 -37 11 3 13 0 26 -6 29 -7 3 -6 8 3 14 11 8 10 14 -6 31
-19 21 -22 21 -54 7 -19 -8 -43 -17 -54 -21 -16 -5 -17 -8 -5 -15 8 -6 11 -10
5 -10 -18 0 -31 15 -32 38 -1 15 9 30 35 47 20 14 40 25 45 25 5 0 40 16 78
35 39 19 76 35 83 35 8 0 19 7 26 15 8 10 9 15 2 15 -6 0 -9 7 -6 15 4 10 2
13 -8 10 -9 -4 -20 7 -30 29 -12 24 -26 36 -47 41 -17 4 -33 11 -36 16 -14 21
-25 6 -25 -31 0 -46 3 -47 30 -20 24 24 46 17 66 -23 12 -22 13 -31 4 -37 -6
-4 -11 -10 -11 -14 1 -6 -2 -7 -16 -5 -5 1 -17 2 -28 3 -13 0 -21 9 -23 24 -5
35 -22 26 -22 -12 0 -23 -7 -39 -19 -48 -10 -7 -19 -17 -19 -21 0 -5 -4 -12
-8 -15 -4 -4 -4 -1 0 6 11 19 -6 14 -65 -18 -36 -20 -68 -30 -96 -30 -42 0
-43 -1 -43 -35 0 -30 -8 -41 -66 -89 -37 -30 -81 -58 -98 -62 -17 -4 -45 -18
-63 -32 -18 -13 -33 -22 -33 -19 0 11 -88 -24 -109 -44 -12 -11 -26 -17 -31
-14 -6 3 -10 1 -10 -4 0 -6 -9 -11 -19 -11 -11 0 -21 -5 -23 -11 -2 -6 -16
-11 -30 -11 -15 0 -29 -7 -32 -14 -3 -8 -17 -14 -31 -14 -26 0 -29 7 -26 75 0
17 3 297 6 623 l6 592 -236 0 c-155 0 -234 -3 -230 -10 8 -13 -18 -13 -31 -1
-11 12 -889 18 -921 7 -14 -4 -23 -3 -23 3 0 7 -167 11 -512 11 -282 1 -550 3
-595 5 -45 3 -84 1 -87 -3z m8324 -248 c0 -9 -8 -28 -18 -42 -10 -15 -22 -34
-26 -42 -3 -8 -19 -37 -34 -65 l-27 -49 -100 -17 c-109 -18 -271 -42 -605 -89
-118 -17 -258 -37 -310 -45 -52 -8 -138 -22 -190 -29 -90 -14 -258 -40 -455
-72 -49 -8 -135 -21 -190 -29 -55 -8 -120 -19 -145 -25 -25 -5 -64 -12 -86
-15 -39 -6 -42 -5 -47 22 -3 15 -10 45 -15 65 -11 41 -8 44 58 58 221 48 405
84 640 126 52 9 146 27 208 41 62 13 152 30 200 38 48 7 179 29 292 48 113 20
273 45 355 56 83 12 155 23 161 26 10 3 74 14 284 48 46 8 50 7 50 -9z m-2317
-441 c-3 -37 -1 -35 20 17 l9 25 14 -30 c22 -49 18 -75 -11 -75 -16 0 -23 -4
-19 -14 6 -16 -76 -33 -86 -17 -3 6 -14 2 -24 -11 l-19 -22 -18 22 c-18 23
-35 31 -23 10 4 -6 -1 -17 -11 -25 -17 -11 -22 -10 -46 13 -24 23 -27 24 -23
7 3 -11 -1 -25 -10 -32 -21 -18 -46 2 -47 38 -1 23 -2 22 -9 -7 -16 -69 -50
-67 -50 3 0 58 8 75 34 75 11 0 41 6 66 13 25 8 62 13 82 12 20 -1 35 2 32 7
-3 4 6 8 20 8 25 0 31 -8 27 -37 -1 -7 3 -13 10 -13 7 0 9 10 6 26 -5 27 15
42 58 43 18 1 21 -4 18 -36z m-449 -112 l24 -50 -27 -9 c-28 -11 -251 -51
-316 -58 -22 -2 -56 -8 -75 -14 -19 -5 -84 -17 -144 -26 -101 -16 -109 -16
-118 0 -12 22 -28 20 -28 -4 0 -11 -7 -20 -15 -20 -9 0 -15 9 -15 21 0 27 -24
19 -28 -10 -5 -30 -41 -42 -130 -45 -41 -2 -77 -7 -80 -13 -4 -5 -23 -13 -42
-16 -19 -3 -46 -9 -60 -13 -22 -7 -24 -6 -11 9 7 9 23 17 34 17 16 0 18 3 9
12 -15 15 -62 -5 -62 -26 0 -13 -20 -26 -41 -26 -6 0 -9 19 -7 43 l3 42 50 6
c28 4 70 14 95 22 63 21 212 54 514 117 26 5 46 4 58 -4 16 -9 22 -8 33 7 7
10 30 23 50 27 32 7 38 6 42 -11 8 -27 35 -25 31 4 -2 14 2 22 12 22 9 0 15
-9 15 -22 1 -31 11 -38 60 -39 29 -1 46 3 49 13 6 14 -12 26 -35 22 -31 -4
-49 2 -49 16 0 19 28 33 76 37 39 3 39 3 39 -34 0 -21 5 -38 10 -38 11 0 12 4
14 55 1 28 5 35 21 35 14 0 27 -15 44 -49z m-2098 -277 c-3 -7 -8 -29 -12 -48
-8 -43 -21 -54 -41 -33 -14 13 -13 16 6 22 11 3 21 10 21 15 0 14 -64 -1 -73
-17 -4 -7 -18 -13 -30 -13 -12 0 -28 -9 -35 -20 -7 -11 -19 -20 -28 -20 -17 0
-54 -24 -121 -77 -37 -29 -41 -37 -33 -54 6 -10 17 -19 25 -19 37 0 8 -17 -58
-33 -187 -47 -366 -89 -409 -96 -54 -9 -51 -13 -48 74 2 61 7 67 68 90 26 10
70 28 97 40 181 81 282 115 342 115 53 0 61 -3 66 -21 7 -27 27 -15 27 16 0
28 39 41 71 24 17 -8 20 -8 14 1 -9 15 12 30 41 30 28 0 96 34 87 44 -4 4 1 4
10 0 10 -4 16 -12 13 -20z"/>
<path d="M1117 2203 c-12 -12 -8 -102 5 -109 19 -12 676 -16 683 -5 9 16 -15
24 -71 22 -29 0 -56 4 -59 9 -4 6 -12 7 -18 3 -19 -12 -81 -12 -90 1 -6 8 -10
8 -14 -1 -3 -9 -11 -8 -29 4 -21 13 -23 13 -19 1 4 -9 -1 -18 -9 -21 -9 -4
-16 -2 -16 3 0 5 -19 7 -43 4 -31 -3 -44 -1 -44 8 0 7 -2 19 -4 27 -3 10 9 17
36 23 69 15 104 17 110 8 4 -6 17 -7 30 -4 32 8 68 -4 61 -21 -3 -9 0 -12 10
-8 7 3 14 7 14 10 0 11 -30 33 -44 33 -9 0 -16 4 -16 8 0 5 -69 9 -154 10
-150 2 -154 1 -149 -18 4 -15 11 -19 25 -14 13 4 28 -2 44 -17 25 -24 34 -50
10 -30 -14 12 -46 5 -46 -9 0 -4 -9 -10 -20 -13 -11 -3 -20 -1 -20 4 0 5 -8 8
-17 7 -37 -3 -50 3 -61 27 -7 15 -20 25 -32 25 -18 0 -25 10 -21 33 1 9 -23 9
-32 0z"/>
<path d="M4831 1457 c-7 -7 -11 -53 -11 -126 0 -71 4 -111 9 -106 5 6 11 28
13 50 3 38 5 40 43 45 30 4 43 11 51 30 15 32 7 88 -15 99 -30 16 -78 20 -90
8z"/>
<path d="M800 950 c-15 -15 -18 -25 -12 -38 5 -9 7 -23 5 -29 -3 -7 2 -13 10
-13 8 0 20 -6 26 -14 10 -12 5 -14 -26 -15 -111 -4 -116 -5 -118 -28 -2 -22 1
-23 81 -23 91 0 102 8 88 64 -8 34 3 76 20 76 8 0 17 6 19 13 4 10 6 10 6 0 1
-8 14 -13 32 -13 19 0 28 4 23 11 -4 8 0 9 15 4 15 -5 21 -2 21 9 0 19 -40 22
-59 4 -11 -10 -13 -10 -7 0 5 9 -7 12 -48 12 -43 0 -61 -5 -76 -20z"/>
<path d="M427 923 c-2 -5 -5 -78 -6 -163 -3 -194 -3 -157 -1 -411 0 -119 -2
-223 -5 -231 -9 -23 22 -30 55 -13 35 18 67 19 72 3 4 -10 55 -13 173 -10 11
0 181 -1 378 -3 350 -4 357 -4 357 16 0 17 -6 19 -52 18 -29 -1 -56 -7 -60
-13 -5 -8 -13 -7 -28 2 -23 14 -170 15 -170 1 0 -5 5 -9 12 -9 6 0 8 -3 5 -6
-4 -4 -17 0 -31 9 -17 11 -47 16 -104 15 -44 0 -89 3 -100 7 -12 3 -31 1 -42
-5 -11 -6 -26 -8 -32 -4 -20 13 -98 15 -98 4 0 -6 -5 -8 -11 -4 -17 10 -188
13 -238 4 -44 -8 -81 -3 -63 9 13 8 23 149 11 156 -5 4 -6 12 -2 18 12 20 15
555 3 562 -8 5 -7 11 0 20 7 8 9 19 5 25 -7 12 -22 13 -28 3z"/>
</g>
</svg>
