<?xml version="1.0" encoding="utf-8"?>
<!-- Generator: Adobe Illustrator 22.0.0, SVG Export Plug-In . SVG Version: 6.00 Build 0)  -->
<svg version="1.1" id="Calque_1" xmlns="http://www.w3.org/2000/svg" xmlns:xlink="http://www.w3.org/1999/xlink" x="0px" y="0px"
	 viewBox="0 0 1080 1080" style="enable-background:new 0 0 1080 1080;" xml:space="preserve">
<style type="text/css">
	.st0{fill:#FFFFFF;}
</style>
<g>
	<g>
		<path class="st0" d="M550.9,286.1l-6-6c-5.4-5.4-12.6-8.4-20.3-8.4c-7.6,0-14.8,3-20.2,8.4l-71.1,71.1l-73.8-73.8
			c-5.4-5.4-12.6-8.4-20.2-8.4c-7.6,0-14.8,3-20.2,8.4l-6,6l120.3,120.3L550.9,286.1z"/>
		<path class="st0" d="M649.4,362L529.1,482.2l6,6c5.4,5.4,12.6,8.4,20.2,8.4s14.8-3,20.2-8.4l73.8-73.8l71.1,71.1
			c5.4,5.4,12.6,8.4,20.2,8.4c7.6,0,14.8-3,20.2-8.4l6-6L649.4,362z"/>
		<path class="st0" d="M720.4,372.2c5.4,5.4,12.6,8.4,20.2,8.4c7.6,0,14.8-3,20.2-8.4l0.8-0.8c2.9-2.9,2.9-7.6,0-10.5l-107-107
			c-2.8-2.8-7.7-2.8-10.5,0L433.3,464.6l-73-73c-11.6-11.6-30.4-11.6-42,0c-1.4,1.4-2.2,3.3-2.2,5.3c0,2,0.8,3.9,2.2,5.3
			l109.7,109.7c1.4,1.4,3.3,2.2,5.3,2.2c2,0,3.9-0.8,5.3-2.2l210.8-210.7L720.4,372.2z"/>
	</g>
	<g>
		<polygon class="st0" points="312.5,600.7 339.9,600.7 339.9,606.5 318.8,606.5 318.8,620.8 339.3,620.8 339.3,626.6 318.8,626.6
			318.8,645.8 339.9,645.8 339.9,651.7 312.5,651.7 		"/>
		<polygon class="st0" points="362.6,600.7 369.8,600.7 380.2,619.3 391.3,600.7 398.6,600.7 383.9,625 399.4,651.7 392.3,651.7
			380.2,630.8 367.8,651.7 360.7,651.7 376.7,625 		"/>
		<path class="st0" d="M459.2,610.5c-3.6-3.2-8.6-5-13.4-5c-11.4,0-20.1,9.5-20.1,20.8c0,11.1,8.6,20.7,20,20.7
			c5,0,9.8-1.9,13.6-5.3v7.5c-3.9,2.3-8.9,3.6-13.4,3.6c-14.5,0-26.5-11.6-26.5-26.3c0-15.1,12.1-26.8,27.1-26.8
			c4.5,0,9,1.1,12.8,3.4V610.5z"/>
		<polygon class="st0" points="491,645.8 506.4,645.8 506.4,651.7 484.6,651.7 484.6,600.7 491,600.7 		"/>
		<path class="st0" d="M533.9,600.7v30.1c0,8.3,2.5,16,12.3,16c9.8,0,12.3-7.7,12.3-16v-30.1h6.3v32.2c0,11.2-7,19.8-18.6,19.8
			c-11.7,0-18.6-8.6-18.6-19.8v-32.2H533.9z"/>
		<path class="st0" d="M614.1,610.4c-1.9-3.2-4.3-4.8-8.2-4.8c-4,0-8.5,2.8-8.5,7.2c0,4,3.9,6.1,7.1,7.3l3.6,1.4
			c7.2,2.8,12.6,6.8,12.6,15.3c0,9.3-7.2,15.9-16.3,15.9c-8.2,0-14.7-6.1-15.7-14.3l6.4-1.3c-0.1,5.6,4.4,9.7,9.9,9.7
			c5.5,0,9.4-4.6,9.4-9.9c0-5.5-4.4-7.8-8.8-9.7l-3.5-1.5c-5.8-2.4-11.1-5.8-11.1-12.9c0-8.2,7.3-13.2,15-13.2
			c5.7,0,10.3,2.8,13.1,7.7L614.1,610.4z"/>
		<rect x="645.4" y="600.7" class="st0" width="6.3" height="50.9"/>
		<polygon class="st0" points="695.9,638.4 711,600.7 718,600.7 695.9,654.4 673.7,600.7 680.7,600.7 		"/>
		<polygon class="st0" points="740.1,600.7 767.5,600.7 767.5,606.5 746.5,606.5 746.5,620.8 766.9,620.8 766.9,626.6 746.5,626.6
			746.5,645.8 767.5,645.8 767.5,651.7 740.1,651.7 		"/>
	</g>
	<g>
		<polygon class="st0" points="323.8,696.9 323.8,800.3 335.8,800.3 335.8,813.4 309.7,813.4 309.7,683.9 335.8,683.9 335.8,696.9
					"/>
		<polygon class="st0" points="383.5,732.2 413.7,692.9 444.3,692.9 406.5,738 447.8,788.1 415.7,788.1 383.5,746.8 383.5,788.1
			358.7,788.1 358.7,692.9 383.5,692.9 		"/>
		<polygon class="st0" points="473.8,800.3 473.8,696.9 461.8,696.9 461.8,683.9 487.9,683.9 487.9,813.4 461.8,813.4 461.8,800.3
					"/>
		<polygon class="st0" points="541.4,692.9 541.4,767.1 571.1,767.1 571.1,788.1 516.6,788.1 516.6,692.9 		"/>
		<path class="st0" d="M613.2,692.9v51.8c0,2.8,0.1,5.6,0.3,8.5c0.2,2.9,0.8,5.5,1.9,7.9c1.1,2.4,2.7,4.3,5,5.8
			c2.3,1.5,5.5,2.2,9.6,2.2c4.1,0,7.3-0.7,9.5-2.2c2.2-1.5,3.9-3.4,5-5.8c1.1-2.3,1.7-5,2-7.9c0.2-2.9,0.3-5.8,0.3-8.5v-51.8h24.6
			v55.2c0,14.8-3.4,25.7-10.2,32.5c-6.8,6.8-17.2,10.2-31.3,10.2c-14.1,0-24.5-3.4-31.3-10.2c-6.8-6.8-10.2-17.6-10.2-32.5v-55.2
			H613.2z"/>
		<path class="st0" d="M697.7,692.9h36.9c8.8,0,15.4,2.1,20,6.3c4.6,4.2,6.8,10.3,6.8,18.2c0,4.8-0.9,8.8-2.6,11.9
			c-1.7,3.2-4.4,5.8-7.9,8c3.6,0.7,6.6,1.7,9,3.1c2.5,1.4,4.5,3.1,6.1,5.1c1.5,2,2.7,4.3,3.4,6.8c0.7,2.5,1,5.2,1,8.1
			c0,4.5-0.8,8.4-2.3,11.9c-1.6,3.5-3.8,6.4-6.6,8.7c-2.8,2.3-6.3,4.1-10.3,5.3c-4,1.2-8.6,1.8-13.6,1.8h-39.8V692.9z M722.5,730.3
			h4.5c7.8,0,11.6-3.1,11.6-9.2c0-6.2-3.9-9.2-11.6-9.2h-4.5V730.3z M722.5,768.9h5.4c6.2,0,10.7-0.8,13.4-2.4c2.7-1.6,4-4.2,4-7.7
			s-1.3-6.1-4-7.7c-2.7-1.6-7.2-2.4-13.4-2.4h-5.4V768.9z"/>
		<polygon class="st0" points="353.7,805.6 359,800.1 361.7,800.1 355.6,806.3 361.7,813.7 359,813.7 354.1,807.7 353.7,808.1
			353.7,813.7 351.6,813.7 351.6,800.1 353.7,800.1 		"/>
		<rect x="369.9" y="800.1" class="st0" width="2.1" height="13.6"/>
		<polygon class="st0" points="381.5,813.7 381.5,799.2 391.4,809.6 391.4,800.1 393.4,800.1 393.4,814.6 383.5,804.2 383.5,813.7
					"/>
		<path class="st0" d="M410.1,806.6h5.6v0.5c0,1-0.1,1.9-0.3,2.7c-0.2,0.7-0.6,1.4-1.2,2c-1.3,1.4-2.9,2.1-4.8,2.1
			c-1.9,0-3.5-0.7-4.9-2.1c-1.4-1.4-2-3-2-5c0-2,0.7-3.6,2.1-5c1.4-1.4,3.1-2.1,5-2.1c1.1,0,2.1,0.2,3,0.7c0.9,0.4,1.7,1.1,2.6,2.1
			l-1.5,1.4c-1.1-1.5-2.5-2.2-4.1-2.2c-1.4,0-2.6,0.5-3.6,1.5c-1,1-1.5,2.2-1.5,3.7c0,1.5,0.5,2.8,1.6,3.7c1,0.9,2.1,1.4,3.3,1.4
			c1,0,1.9-0.3,2.7-1c0.8-0.7,1.3-1.5,1.3-2.5h-3.4V806.6z"/>
		<polygon class="st0" points="426.1,799.6 427.8,800.2 425.3,805.3 424,804.7 		"/>
		<path class="st0" d="M444.5,802.2l-1.7,1c-0.3-0.5-0.6-0.9-0.9-1.1c-0.3-0.2-0.7-0.3-1.1-0.3c-0.6,0-1,0.2-1.4,0.5
			c-0.4,0.3-0.6,0.7-0.6,1.2c0,0.7,0.5,1.2,1.5,1.6l1.4,0.5c1.1,0.4,1.9,1,2.4,1.6c0.5,0.6,0.8,1.4,0.8,2.4c0,1.3-0.4,2.3-1.2,3.1
			c-0.8,0.8-1.9,1.2-3.1,1.2c-1.2,0-2.1-0.3-2.9-1c-0.8-0.7-1.2-1.7-1.4-3l2.1-0.5c0.1,0.8,0.3,1.3,0.5,1.7c0.4,0.6,1,0.9,1.9,0.9
			c0.6,0,1.2-0.2,1.6-0.7c0.4-0.4,0.6-1,0.6-1.6c0-0.3,0-0.5-0.1-0.7c-0.1-0.2-0.2-0.4-0.3-0.6c-0.1-0.2-0.3-0.4-0.6-0.5
			c-0.2-0.2-0.5-0.3-0.9-0.5l-1.3-0.5c-1.9-0.8-2.8-1.9-2.8-3.4c0-1,0.4-1.9,1.2-2.5c0.8-0.7,1.7-1,2.9-1
			C442.4,799.9,443.6,800.6,444.5,802.2"/>
	</g>
	<path class="st0" d="M50,50v980h980V50H50z M1010.9,1010.9H69.1V69.1h941.8V1010.9z"/>
</g>
</svg>
