<?xml version="1.0" encoding="utf-8"?>
<!-- Generator: Adobe Illustrator 22.0.0, SVG Export Plug-In . SVG Version: 6.00 Build 0)  -->
<svg version="1.1" id="Calque_1" xmlns="http://www.w3.org/2000/svg" xmlns:xlink="http://www.w3.org/1999/xlink" x="0px" y="0px"
	 viewBox="0 0 1044.4 1080" style="enable-background:new 0 0 1044.4 1080;" xml:space="preserve">
<style type="text/css">
	.st0{fill:#000000;}
</style>
<title>Logo GLF</title>
<g>
	<g>
		<path class="st0" d="M308.6,39.7c0,0-62.7,8.3-65.3,142c-2.7,133.7-46.6,210.9-90.6,208.8l-3.3,5.5c0,0,9.3,1.4,10.7,5.5
			c0,0,98-19.3,105.9-213.7C266,187.9,259.3,69.3,308.6,39.7"/>
		<path class="st0" d="M306,170.6c0,3.8-3,6.9-6.6,6.9h-18.7c-3.7,0-6.6-3.1-6.6-6.9c0-3.8,3-6.9,6.6-6.9h18.7
			C303,163.8,306,166.8,306,170.6"/>
		<path class="st0" d="M305.3,189.3c0,3.8-3,6.9-6.7,6.9H280c-3.7,0-6.7-3.1-6.7-6.9c0-3.8,3-6.9,6.7-6.9h18.7
			C302.3,182.4,305.3,185.4,305.3,189.3"/>
		<path class="st0" d="M304.6,207.9c0,3.8-3,6.9-6.7,6.9h-18.7c-3.7,0-6.7-3.1-6.7-6.9c0-3.8,3-6.9,6.7-6.9H298
			C301.7,201,304.6,204.1,304.6,207.9"/>
		<path class="st0" d="M300,226.5c0,3.8-3,6.9-6.7,6.9h-18.7c-3.7,0-6.6-3.1-6.6-6.9c0-3.8,3-6.9,6.6-6.9h18.7
			C297,219.6,300,222.7,300,226.5"/>
		<polygon class="st0" points="52.9,459.2 50.2,459.2 50.2,480.4 63.1,480.4 63.1,477.8 52.9,477.8 		"/>
		<path class="st0" d="M95,480l-0.9,0.2l-0.7,0.1c-1.5,0-2.3-0.7-2.3-2.2c-0.8,0.8-1.6,1.4-2.4,1.9c-0.7,0.4-1.5,0.5-2.4,0.5
			c-1.5,0-2.6-0.4-3.4-1.1c-0.9-0.8-1.3-1.8-1.3-3.1c0-1,0.2-1.9,0.7-2.6c0.5-0.7,1.2-1.3,2.2-1.6l1.1-0.3l1.3-0.1
			c1.9-0.2,3-0.4,3.4-0.6c0.4-0.2,0.6-0.7,0.6-1.4c0-1.6-1.1-2.4-3.3-2.4c-1.9,0-2.9,0.9-3.2,2.8h-2.2c0-1.5,0.5-2.8,1.5-3.5
			c1-0.8,2.4-1.2,4.2-1.2c1.6,0,2.9,0.4,3.9,1.1c1,0.7,1.4,1.7,1.4,3v8.3c0,0.6,0.3,0.9,0.8,0.9l0.8-0.2V480z M91.1,472.7l-0.2,0.1
			c-0.2,0.2-0.6,0.3-1.4,0.4l-2.5,0.4c-1.8,0.3-2.8,1.1-2.8,2.4c0,1.6,0.9,2.4,2.5,2.4c0.9,0,1.7-0.2,2.4-0.6
			c0.8-0.4,1.3-0.9,1.7-1.6c0.1-0.3,0.2-0.7,0.2-1.2v-0.5v-0.2V472.7z"/>
		<polygon class="st0" points="155.7,463 145.4,463 145.4,467.7 154.4,467.7 154.4,471.5 145.4,471.5 145.4,480.3 141.1,480.3
			141.1,459.2 155.7,459.2 		"/>
		<path class="st0" d="M191,472c0,2.5-0.7,4.6-2.2,6.1c-1.4,1.5-3.3,2.3-5.7,2.3c-2.4,0-4.3-0.8-5.7-2.3c-1.4-1.5-2.1-3.5-2.1-6
			c0-2.6,0.7-4.6,2.1-6.1c1.4-1.5,3.3-2.2,5.8-2.2c2.3,0,4.2,0.7,5.7,2.2C190.2,467.5,191,469.5,191,472 M186.8,472.2
			c0-3.4-1.2-5-3.7-5h-0.3c-1.1,0-1.9,0.4-2.5,1.2c-0.6,0.9-0.9,2-0.9,3.5c0,1.6,0.3,2.8,0.9,3.6c0.6,0.9,1.5,1.3,2.7,1.3
			c1.2,0,2.1-0.4,2.8-1.2C186.4,474.8,186.8,473.7,186.8,472.2"/>
		<path class="st0" d="M191,472c0,2.5-0.7,4.6-2.2,6.1c-1.4,1.5-3.3,2.3-5.7,2.3c-2.4,0-4.3-0.8-5.7-2.3c-1.4-1.5-2.1-3.5-2.1-6
			c0-2.6,0.7-4.6,2.1-6.1c1.4-1.5,3.3-2.2,5.8-2.2c2.3,0,4.2,0.7,5.7,2.2C190.2,467.5,191,469.5,191,472 M186.8,472.2
			c0-3.4-1.2-5-3.7-5h-0.3c-1.1,0-1.9,0.4-2.5,1.2c-0.6,0.9-0.9,2-0.9,3.5c0,1.6,0.3,2.8,0.9,3.6c0.6,0.9,1.5,1.3,2.7,1.3
			c1.2,0,2.1-0.4,2.8-1.2C186.4,474.8,186.8,473.7,186.8,472.2"/>
		<path class="st0" d="M225.1,479.8h-3.9v-2.3c-1,1.8-2.6,2.7-4.8,2.7c-1,0-1.9-0.2-2.7-0.6c-0.8-0.4-1.3-1-1.8-1.8
			c-0.5-1-0.8-2-0.8-3.1v-0.3v-10.7h4.1v9.9c0,2,0.8,3,2.5,3c0.9,0,1.7-0.3,2.3-0.9c0.6-0.6,0.9-1.3,0.9-2.1v-0.3v-9.6h4.1V479.8z"
			/>
		<path class="st0" d="M225.1,479.8h-3.9v-2.3c-1,1.8-2.6,2.7-4.8,2.7c-1,0-1.9-0.2-2.7-0.6c-0.8-0.4-1.3-1-1.8-1.8
			c-0.5-1-0.8-2-0.8-3.1v-0.3v-10.7h4.1v9.9c0,2,0.8,3,2.5,3c0.9,0,1.7-0.3,2.3-0.9c0.6-0.6,0.9-1.3,0.9-2.1v-0.3v-9.6h4.1V479.8z"
			/>
		<path class="st0" d="M255.4,468l-1.1,0c-2.5,0-3.8,1.2-3.8,3.6v8.5h-4.1v-16h4v2.8c1.1-2.1,2.4-3.2,4-3.2h1.1V468z"/>
		<path class="st0" d="M255.4,468l-1.1,0c-2.5,0-3.8,1.2-3.8,3.6v8.5h-4.1v-16h4v2.8c1.1-2.1,2.4-3.2,4-3.2h1.1V468z"/>
		<path class="st0" d="M287.8,469.2h-4.2c-0.3-1.7-1.2-2.6-2.7-2.6c-1,0-1.8,0.4-2.4,1.2c-0.6,0.9-0.8,2.1-0.8,3.7
			c0,3.2,1,4.9,3,4.9c0.8,0,1.4-0.3,1.9-0.7c0.5-0.5,0.8-1.2,0.9-2h4.1c-0.1,1.9-0.9,3.4-2.1,4.5c-1.3,1.1-2.9,1.7-4.8,1.7
			c-2.3,0-4.1-0.7-5.3-2.1c-1.3-1.4-1.9-3.4-1.9-5.9c0-2.8,0.6-5,1.9-6.5c1.3-1.5,3.1-2.3,5.5-2.3c2.1,0,3.7,0.5,5,1.6
			C287.1,465.8,287.8,467.3,287.8,469.2"/>
		<path class="st0" d="M320.3,479.8h-4.1v-9.9v-0.5c0-0.8-0.2-1.3-0.7-1.7c-0.4-0.4-1.1-0.6-1.9-0.6c-0.9,0-1.7,0.3-2.3,0.9
			c-0.6,0.7-0.9,1.5-0.9,2.4v9.5h-4.1v-21.6h4.1v7.7c0.8-1.7,2.4-2.5,4.6-2.5c1.5,0,2.8,0.5,3.8,1.4c1,0.9,1.5,2.1,1.5,3.4v0.4
			V479.8z"/>
		<path class="st0" d="M355.1,472.7h-10.6l0.1,0.4c0.2,2.3,1.4,3.5,3.4,3.5c1.4,0,2.3-0.6,2.7-1.7h4.2c-0.4,1.6-1.3,2.9-2.5,3.8
			c-1.3,0.9-2.8,1.4-4.6,1.4c-2.3,0-4.2-0.7-5.5-2.2c-1.3-1.5-2-3.6-2-6.3c0-2.7,0.7-4.8,1.9-6.2c1.3-1.5,3.1-2.2,5.5-2.2
			c2.4,0,4.2,0.8,5.4,2.3c1.3,1.5,1.9,3.8,1.9,6.7V472.7z M350.9,469.9c-0.3-2.2-1.3-3.3-3.1-3.3c-1.8,0-2.8,1.1-3.1,3.3H350.9z"/>
		<path class="st0" d="M355.1,472.7h-10.6l0.1,0.4c0.2,2.3,1.4,3.5,3.4,3.5c1.4,0,2.3-0.6,2.7-1.7h4.2c-0.4,1.6-1.3,2.9-2.5,3.8
			c-1.3,0.9-2.8,1.4-4.6,1.4c-2.3,0-4.2-0.7-5.5-2.2c-1.3-1.5-2-3.6-2-6.3c0-2.7,0.7-4.8,1.9-6.2c1.3-1.5,3.1-2.2,5.5-2.2
			c2.4,0,4.2,0.8,5.4,2.3c1.3,1.5,1.9,3.8,1.9,6.7V472.7z M350.9,469.9c-0.3-2.2-1.3-3.3-3.1-3.3c-1.8,0-2.8,1.1-3.1,3.3H350.9z"/>
		<path class="st0" d="M382.7,479.6l-2.3,0.1c-2.9,0-4.4-0.9-4.4-2.8v-0.4v-9.9H374v-3.1h2.1v-4.3h4.1v4.3h2.5v3.1h-2.5v8.9
			c0,0.8,0.4,1.1,1.4,1.1h1.2V479.6z"/>
		<path class="st0" d="M410.9,479.6l-2.3,0.1c-2.9,0-4.4-0.9-4.4-2.8v-0.4v-9.9h-2.1v-3.1h2.1v-4.3h4.1v4.3h2.6v3.1h-2.6v8.9
			c0,0.8,0.5,1.1,1.4,1.1h1.2V479.6z"/>
		<path class="st0" d="M445.3,472.7h-10.6l0.1,0.4c0.3,2.3,1.4,3.5,3.4,3.5c1.4,0,2.3-0.6,2.7-1.7h4.2c-0.4,1.6-1.2,2.9-2.5,3.8
			c-1.2,0.9-2.8,1.4-4.6,1.4c-2.3,0-4.2-0.7-5.5-2.2c-1.3-1.5-2-3.6-2-6.3c0-2.7,0.7-4.8,1.9-6.2c1.3-1.5,3.1-2.2,5.5-2.2
			c2.4,0,4.2,0.8,5.4,2.3c1.2,1.5,1.8,3.8,1.8,6.7V472.7z M441.1,469.9c-0.3-2.2-1.3-3.3-3.1-3.3c-1.8,0-2.8,1.1-3.1,3.3H441.1z"/>
		<path class="st0" d="M445.3,472.7h-10.6l0.1,0.4c0.3,2.3,1.4,3.5,3.4,3.5c1.4,0,2.3-0.6,2.7-1.7h4.2c-0.4,1.6-1.2,2.9-2.5,3.8
			c-1.2,0.9-2.8,1.4-4.6,1.4c-2.3,0-4.2-0.7-5.5-2.2c-1.3-1.5-2-3.6-2-6.3c0-2.7,0.7-4.8,1.9-6.2c1.3-1.5,3.1-2.2,5.5-2.2
			c2.4,0,4.2,0.8,5.4,2.3c1.2,1.5,1.8,3.8,1.8,6.7V472.7z M441.1,469.9c-0.3-2.2-1.3-3.3-3.1-3.3c-1.8,0-2.8,1.1-3.1,3.3H441.1z"/>
		<path class="st0" d="M6.2,512h487.2V8.1H6.2V512z M15.5,17.7h468.7v484.7H15.5V17.7z"/>
	</g>
	<g>
		<path class="st0" d="M552,511.4h486V8.8H552V511.4z M561.3,18.3h467.5v483.5H561.3V18.3z"/>
		<path class="st0" d="M756.4,190.3c-3.6,0-6,0.6-7.1,1.9c-1.1,1.3-1.7,4-1.7,8.2v65.9l-8.5,6.6l-87.9,0.3c-2.2,0-4-0.7-5.4-2
			c-1.4-1.3-2.2-2.9-2.2-4.6v-14.3c0-1.7,0.7-3.2,2.2-4.4c1.4-1.2,3.2-1.9,5.4-1.9h49.4v-38.1c0-8.6,1-15.6,2.9-21.3
			c1.9-5.6,5-10.2,9.2-13.6c4.3-3.5,9.8-5.9,16.7-7.4c6.8-1.4,15.2-2.2,25.2-2.2h64c2.2,0,4.1,0.6,5.4,1.9c1.4,1.3,2.1,2.7,2.1,4.4
			V184c0,1.7-0.7,3.2-2.1,4.4c-1.4,1.3-3.2,1.9-5.4,1.9H756.4z"/>
		<path class="st0" d="M844.8,272.5c-2,0-3.8-0.6-5.3-1.7c-1.5-1.2-2.2-2.5-2.2-4V144.7c0-3.5-0.6-5.8-1.7-6.9
			c-1.1-1.2-3.4-1.8-6.8-1.8H687.1c-2.2,0-4-0.6-5.4-1.7c-1.4-1.2-2.1-2.6-2.1-4.4v-13.3c0-1.5,0.7-2.9,2.3-3.9
			c1.5-1.1,3.3-1.6,5.3-1.6h143.5c9.9,0,18.3,0.7,25.2,2c6.9,1.3,12.4,3.6,16.7,6.8c4.3,3.2,7.3,7.4,9.1,12.6
			c1.8,5.2,2.7,11.8,2.7,19.7v96h54.6c2.2,0,4,0.6,5.4,1.7c1.4,1.2,2.1,2.5,2.1,4.1v13.3c0,1.5-0.7,2.9-2.1,4.1
			c-1.4,1.1-3.3,1.7-5.4,1.7L844.8,272.5z"/>
		<path class="st0" d="M619.2,404c0,0.2,0,0.4,0,0.6c0,0.1,0.1,0.2,0.2,0.4c0.1,0,0.3,0.1,0.5,0.2c0.2,0.1,0.6,0.1,1,0.1l-0.1,0.5
			h-1.3c-0.5,0-0.9,0-1.3,0h-0.5c-0.2,0-0.4,0-0.6,0h-0.5h-0.4l0-0.5c0.4,0,0.6,0,0.8-0.1c0.2,0,0.4-0.1,0.5-0.2
			c0.1-0.2,0.2-0.3,0.2-0.5c0.1-0.2,0.1-0.5,0.1-0.9v-9.1c0-0.2,0-0.4,0-0.6c-0.1-0.1-0.1-0.3-0.2-0.3c-0.1-0.1-0.3-0.2-0.5-0.2
			c-0.2-0.1-0.5-0.1-0.9-0.1l0-0.5h0.5h0.6c0.2,0,0.4,0,0.7,0.1h0.6c0.3,0,0.7-0.1,1.1-0.1c0.3,0,0.7-0.1,1.1-0.1
			c0.6,0,1.1,0.1,1.6,0.1c0.5,0.1,1,0.3,1.4,0.5c0.4,0.2,0.8,0.6,1.1,1c0.2,0.4,0.4,0.9,0.4,1.6c0,0.4-0.1,0.8-0.2,1.2
			c-0.1,0.4-0.4,0.7-0.6,1c-0.2,0.4-0.5,0.6-0.8,0.9c-0.3,0.2-0.7,0.4-1.1,0.5c0.3,0.6,0.6,1.1,0.9,1.6c0.2,0.5,0.5,1,0.8,1.4
			c0.2,0.4,0.4,0.8,0.6,1.1c0.2,0.3,0.3,0.5,0.4,0.7c0.2,0.2,0.3,0.4,0.5,0.6c0.1,0.1,0.2,0.2,0.4,0.3c0.1,0.1,0.3,0.1,0.5,0.1
			c0.2,0.1,0.5,0.1,0.8,0.1l0,0.5h-1c-0.4,0-0.8,0-1.2,0h-0.4c-0.2,0-0.3,0-0.4,0c-0.1-0.2-0.2-0.5-0.4-0.9
			c-0.2-0.4-0.4-0.8-0.7-1.3c-0.3-0.5-0.5-1-0.8-1.6c-0.3-0.5-0.6-1.1-1-1.8c0-0.1-0.1-0.2-0.1-0.2l-0.2-0.2c-0.1,0-0.2-0.1-0.3-0.1
			c-0.1-0.1-0.3-0.1-0.5-0.1h-0.4h-0.3c-0.1,0-0.2,0-0.4-0.1V404z M619.2,399.1l0.2,0c0.1,0,0.1,0,0.2,0h0.5c1,0,1.8-0.2,2.4-0.8
			c0.6-0.5,0.9-1.3,0.9-2.4c0-0.9-0.3-1.6-0.8-2c-0.6-0.4-1.2-0.7-2.2-0.7c-0.3,0-0.5,0-0.6,0.1c-0.2,0.1-0.3,0.1-0.3,0.2
			c-0.1,0.1-0.1,0.2-0.1,0.4c0,0.1,0,0.3,0,0.5V399.1z"/>
		<path class="st0" d="M643.9,404.3c-0.3,0.4-0.6,0.7-0.9,0.9c-0.3,0.2-0.6,0.4-0.9,0.6c-0.3,0.1-0.5,0.2-0.8,0.3
			c-0.3,0-0.4,0.1-0.5,0.1c-0.6,0-1-0.1-1.5-0.3c-0.4-0.2-0.8-0.5-1.2-0.9c-0.3-0.4-0.6-0.8-0.8-1.3c-0.2-0.5-0.2-1-0.2-1.5
			c0-0.6,0.1-1.2,0.3-1.7c0.2-0.5,0.5-1,0.9-1.4c0.3-0.4,0.8-0.7,1.2-0.9c0.5-0.3,1-0.4,1.5-0.4c0.4,0,0.8,0.1,1.1,0.2
			c0.4,0.2,0.7,0.3,0.9,0.6c0.3,0.2,0.5,0.6,0.7,0.9c0.2,0.4,0.2,0.8,0.2,1.2v0.2l0,0.2c0,0.2-0.2,0.4-0.4,0.4h-5
			c0,0.6,0.1,1.2,0.3,1.6c0.2,0.4,0.4,0.8,0.7,1.1c0.3,0.3,0.6,0.5,0.9,0.6c0.4,0.1,0.7,0.2,1,0.2c0.4,0,0.7-0.1,1-0.2
			c0.3-0.2,0.7-0.4,1-0.8L643.9,404.3z M641.9,400.7c0.2,0,0.3,0,0.3-0.1c0,0,0.1-0.2,0.1-0.4c0-0.2,0-0.5-0.1-0.7
			c-0.1-0.2-0.2-0.4-0.4-0.6c-0.1-0.2-0.3-0.3-0.5-0.4c-0.2-0.1-0.5-0.1-0.7-0.1c-0.2,0-0.4,0.1-0.6,0.1c-0.2,0.1-0.4,0.3-0.6,0.5
			c-0.2,0.2-0.4,0.4-0.5,0.7c-0.2,0.3-0.2,0.5-0.3,0.9H641.9z"/>
		<path class="st0" d="M659.1,400.3c0-0.2-0.1-0.5-0.2-0.8c-0.1-0.2-0.2-0.4-0.4-0.6c-0.2-0.2-0.4-0.3-0.7-0.4
			c-0.2-0.1-0.5-0.2-0.8-0.2c-0.2,0-0.3,0.1-0.5,0.1c-0.2,0-0.3,0.1-0.4,0.2c-0.1,0.1-0.2,0.3-0.3,0.4c-0.1,0.1-0.1,0.3-0.1,0.5
			c0,0.2,0.1,0.4,0.1,0.6c0.1,0.2,0.3,0.3,0.4,0.5c0.2,0.1,0.4,0.3,0.7,0.3c0.2,0.1,0.4,0.2,0.7,0.3c0.2,0.1,0.5,0.3,0.8,0.4
			c0.3,0.1,0.5,0.3,0.7,0.4c0.2,0.2,0.4,0.4,0.5,0.7c0.1,0.2,0.2,0.5,0.2,0.9c0,0.4-0.1,0.8-0.3,1.1c-0.2,0.3-0.4,0.6-0.7,0.8
			c-0.3,0.2-0.6,0.4-0.9,0.5c-0.4,0.1-0.7,0.1-1.1,0.1c-0.2,0-0.5,0-0.7,0c-0.2-0.1-0.4-0.1-0.6-0.1c-0.2,0-0.4-0.1-0.5-0.1
			c-0.2,0-0.4-0.1-0.6-0.1c0-0.2,0-0.4,0-0.6c-0.1-0.2-0.1-0.4-0.1-0.7c0-0.2,0-0.5-0.1-0.7c-0.1-0.2-0.1-0.4-0.1-0.5l0.5-0.1
			c0.1,0.3,0.3,0.6,0.4,0.9c0.2,0.3,0.4,0.5,0.5,0.8c0.2,0.2,0.4,0.4,0.7,0.5c0.3,0.1,0.6,0.2,1,0.2c0.3,0,0.6-0.1,0.9-0.3
			c0.3-0.2,0.4-0.5,0.4-0.9c0-0.2,0-0.4-0.2-0.6c-0.1-0.2-0.2-0.3-0.4-0.5c-0.1-0.1-0.3-0.2-0.6-0.4c-0.2-0.1-0.4-0.2-0.7-0.3
			c-0.3-0.2-0.5-0.2-0.8-0.4c-0.3-0.1-0.5-0.3-0.7-0.4c-0.2-0.2-0.4-0.4-0.5-0.6c-0.1-0.2-0.2-0.6-0.2-0.9c0-0.4,0.1-0.8,0.2-1.1
			c0.2-0.3,0.4-0.6,0.7-0.8c0.2-0.2,0.6-0.3,0.9-0.4c0.3-0.1,0.7-0.1,1.1-0.1c0.4,0,0.7,0.1,1,0.1c0.3,0.1,0.7,0.1,1.2,0.2
			c-0.1,0.3-0.1,0.6-0.1,0.8c0,0.3,0,0.5,0,0.9v0.6H659.1z"/>
		<path class="st0" d="M672.7,395.1c0,0.2,0,0.4,0,0.8c0,0.3,0,0.6,0,0.8v0.8v0.6l2.2,0l0.1,0.1l-0.1,0.7h-2.3v4.3
			c0,0.4,0,0.7,0.1,0.9c0.1,0.2,0.2,0.4,0.3,0.5c0.1,0.2,0.3,0.2,0.4,0.3c0.1,0,0.3,0.1,0.5,0.1c0.2,0,0.4-0.1,0.6-0.1
			c0.2-0.1,0.4-0.1,0.6-0.2l0.1,0.5c-0.4,0.1-0.7,0.3-1.1,0.4c-0.4,0.1-0.8,0.2-1.1,0.2c-0.2,0-0.5-0.1-0.7-0.1
			c-0.2-0.1-0.4-0.2-0.6-0.3c-0.2-0.2-0.3-0.4-0.4-0.7c-0.1-0.2-0.1-0.6-0.1-1v-0.4v-0.7v-1.5v-2.4H670l-0.1-0.1l0-0.6l1.2-0.1v-1.1
			v-0.7v-0.6c0.1-0.1,0.2-0.1,0.4-0.2c0.1-0.1,0.3-0.1,0.4-0.2c0.1,0,0.2,0,0.3-0.1c0.1-0.1,0.2-0.1,0.2-0.2L672.7,395.1z"/>
		<path class="st0" d="M689.7,401.3v-0.2v-1c0-0.5-0.1-0.8-0.3-1.1c-0.2-0.3-0.6-0.4-1-0.4c-0.3,0-0.4,0-0.7,0.1
			c-0.2,0.1-0.3,0.2-0.4,0.4c-0.1,0.1-0.2,0.3-0.2,0.5c-0.1,0.2-0.1,0.4-0.1,0.6c-0.1,0.1-0.3,0.2-0.5,0.2c-0.2,0-0.4,0-0.6-0.1
			c-0.2-0.1-0.3-0.2-0.3-0.4c0-0.2,0-0.3,0.2-0.5c0.1-0.1,0.2-0.3,0.4-0.4c0.2-0.2,0.4-0.3,0.6-0.5c0.2-0.1,0.4-0.2,0.7-0.3
			c0.6-0.3,1.2-0.4,1.7-0.4c0.3,0,0.6,0,0.8,0.1c0.2,0.1,0.5,0.3,0.7,0.4c0.2,0.1,0.3,0.4,0.4,0.7c0.1,0.2,0.2,0.6,0.2,0.9
			c0,0.5,0,1.2,0,1.9c0,0.7,0,1.5,0,2.4c0,0.4,0.1,0.6,0.2,0.8c0.1,0.2,0.3,0.3,0.5,0.3c0.2,0,0.5,0,0.7-0.2l0.2,0.3
			c-0.2,0.2-0.5,0.4-0.8,0.5c-0.3,0.1-0.6,0.2-0.9,0.2c-0.3,0-0.6-0.1-0.8-0.2c-0.3-0.2-0.5-0.5-0.5-0.9c-0.1,0.1-0.2,0.2-0.4,0.3
			c-0.2,0.1-0.4,0.2-0.6,0.4c-0.2,0.1-0.5,0.2-0.8,0.3c-0.2,0.1-0.5,0.2-0.7,0.2c-0.3,0-0.6,0-0.8-0.2c-0.2-0.1-0.4-0.3-0.6-0.5
			c-0.2-0.2-0.3-0.4-0.4-0.6c-0.1-0.3-0.1-0.5-0.1-0.8c0-0.5,0.1-0.9,0.4-1.2c0.2-0.3,0.6-0.6,1-0.8c0.3-0.1,0.7-0.2,1.2-0.4
			C688.4,401.5,689,401.4,689.7,401.3 M689.7,404.2c0-0.4,0-0.7,0-1.1c0-0.4,0-0.8,0-1.1c-0.3,0-0.5,0-0.7,0.1c-0.2,0-0.5,0-0.7,0.2
			c-0.2,0-0.5,0.1-0.7,0.2c-0.2,0.1-0.4,0.2-0.5,0.3c-0.2,0.2-0.3,0.5-0.3,0.8c0,0.4,0.1,0.7,0.3,1c0.2,0.3,0.5,0.4,0.9,0.4
			c0.3,0,0.6-0.1,0.9-0.2C689.1,404.6,689.4,404.5,689.7,404.2"/>
		<path class="st0" d="M708.6,405.8c0-0.2,0-0.3,0-0.6c0-0.2,0-0.4,0-0.6c-0.5,0.4-1,0.7-1.5,1c-0.5,0.2-1,0.4-1.5,0.4
			c-0.3,0-0.6,0-0.9-0.2c-0.3-0.1-0.5-0.3-0.7-0.5c-0.2-0.2-0.3-0.5-0.4-0.9c-0.1-0.4-0.2-0.8-0.2-1.3v-3.3c0-0.2,0-0.4,0-0.6
			c0-0.1-0.1-0.3-0.2-0.4c-0.1-0.1-0.2-0.2-0.4-0.2c-0.1,0-0.4-0.1-0.6-0.2v-0.3c0.3-0.1,0.6-0.1,0.8-0.2c0.3-0.1,0.6-0.1,0.8-0.2
			c0.2,0,0.5-0.1,0.6-0.1c0.2,0,0.3-0.1,0.4-0.1l0.1,0.1c0,0.2,0,0.5,0,0.7c0,0.3,0,0.5,0,0.8v0.7v0.5v2.1c0,0.4,0,0.8,0.1,1.1
			c0.1,0.3,0.2,0.5,0.3,0.7c0.1,0.2,0.3,0.3,0.5,0.4c0.2,0.1,0.4,0.1,0.6,0.1c0.3,0,0.7-0.1,1.1-0.2c0.4-0.2,0.8-0.4,1.1-0.6v-4.2
			c0-0.2,0-0.4,0-0.6c0-0.1-0.1-0.3-0.2-0.4c-0.1-0.1-0.2-0.2-0.4-0.2c-0.2,0-0.4-0.1-0.7-0.2v-0.3c0.3-0.1,0.6-0.1,0.9-0.2
			c0.3-0.1,0.5-0.1,0.8-0.2c0.2,0,0.5-0.1,0.7-0.1c0.2,0,0.3-0.1,0.4-0.1l0.1,0.1c0,0.2,0,0.5,0,0.7c0,0.3,0,0.5,0,0.8
			c0,0.2,0,0.5,0,0.7v0.5v3.2c0,0.2,0,0.5,0,0.6c0,0.1,0.1,0.2,0.2,0.3c0.1,0.1,0.2,0.2,0.4,0.2c0.2,0,0.4,0.1,0.7,0.1l0.1,0.4
			c-0.3,0-0.5,0.1-0.8,0.2c-0.3,0-0.6,0-0.8,0.1c-0.3,0.1-0.5,0.1-0.7,0.2c-0.2,0.1-0.4,0.1-0.4,0.1L708.6,405.8z"/>
		<path class="st0" d="M726,405.8h-0.5h-0.6c-0.3,0-0.5-0.1-0.7-0.1h-0.6c-0.4,0-0.7,0-1,0.1h-0.9v-0.5c0.3,0,0.5-0.1,0.7-0.1
			c0.2,0,0.3-0.1,0.4-0.2c0.1-0.2,0.2-0.3,0.2-0.5c0-0.2,0-0.5,0-0.8v-3.5c0-0.2,0-0.5,0-0.6c0-0.2-0.1-0.2-0.1-0.3
			c-0.1-0.1-0.2-0.1-0.4-0.2c-0.2,0-0.4-0.1-0.7-0.1l-0.1-0.4c0.2,0,0.5-0.1,0.7-0.1c0.3,0,0.5-0.2,0.8-0.2c0.2,0,0.4-0.1,0.7-0.2
			c0.2-0.1,0.3-0.1,0.5-0.2l0.2,0.1c0,0.3-0.1,0.6-0.1,0.8c0,0.3,0,0.6,0,0.8c0.3-0.4,0.5-0.7,0.8-0.9c0.2-0.2,0.4-0.4,0.6-0.6
			c0.2-0.1,0.4-0.2,0.5-0.3c0.2,0,0.3,0,0.5,0c0.2,0,0.4,0,0.6,0.2c0.2,0.2,0.3,0.3,0.3,0.6c0,0.2-0.1,0.4-0.3,0.6
			c-0.2,0.2-0.4,0.4-0.7,0.6c-0.2-0.1-0.3-0.3-0.5-0.3c-0.2-0.1-0.4-0.1-0.6-0.1c-0.2,0-0.4,0.1-0.6,0.2c-0.3,0.2-0.4,0.5-0.6,0.8
			c0,0.1-0.1,0.2-0.1,0.3c0,0.1,0,0.2,0,0.3v3.4c0,0.2,0,0.4,0,0.5c0.1,0.1,0.1,0.3,0.2,0.3c0.1,0.1,0.3,0.1,0.5,0.2
			c0.2,0,0.5,0.1,0.9,0.1L726,405.8z"/>
		<path class="st0" d="M742.1,401.3v-0.2v-1c0-0.5-0.1-0.8-0.3-1.1c-0.2-0.3-0.5-0.4-1-0.4c-0.3,0-0.5,0-0.7,0.1
			c-0.2,0.1-0.3,0.2-0.4,0.4c-0.1,0.1-0.2,0.3-0.2,0.5c-0.1,0.2-0.1,0.4-0.1,0.6c-0.2,0.1-0.4,0.2-0.6,0.2c-0.2,0-0.4,0-0.6-0.1
			c-0.2-0.1-0.3-0.2-0.3-0.4c0-0.2,0-0.3,0.2-0.5c0.1-0.1,0.3-0.3,0.4-0.4c0.2-0.2,0.4-0.3,0.6-0.5c0.2-0.1,0.4-0.2,0.7-0.3
			c0.6-0.3,1.2-0.4,1.7-0.4c0.3,0,0.5,0,0.8,0.1c0.2,0.1,0.4,0.3,0.6,0.4c0.2,0.1,0.4,0.4,0.5,0.7c0.1,0.2,0.1,0.6,0.1,0.9
			c0,0.5,0,1.2,0,1.9v2.4c0,0.4,0,0.6,0.2,0.8c0.1,0.2,0.3,0.3,0.5,0.3c0.2,0,0.4,0,0.7-0.2l0.2,0.3c-0.2,0.2-0.5,0.4-0.8,0.5
			c-0.3,0.1-0.6,0.2-0.9,0.2c-0.3,0-0.6-0.1-0.8-0.2c-0.3-0.2-0.4-0.5-0.5-0.9c-0.1,0.1-0.2,0.2-0.4,0.3c-0.2,0.1-0.4,0.2-0.6,0.4
			c-0.2,0.1-0.5,0.2-0.8,0.3c-0.2,0.1-0.5,0.2-0.7,0.2c-0.3,0-0.5,0-0.8-0.2c-0.2-0.1-0.4-0.3-0.6-0.5c-0.2-0.2-0.3-0.4-0.4-0.6
			c-0.1-0.3-0.1-0.5-0.1-0.8c0-0.5,0.1-0.9,0.4-1.2c0.2-0.3,0.6-0.6,1-0.8c0.3-0.1,0.7-0.2,1.2-0.4
			C740.8,401.5,741.4,401.4,742.1,401.3 M742,404.2v-1.1c0-0.4,0-0.8,0-1.1c-0.2,0-0.5,0-0.7,0.1c-0.3,0-0.5,0-0.7,0.2
			c-0.2,0-0.4,0.1-0.6,0.2c-0.2,0.1-0.4,0.2-0.5,0.3c-0.2,0.2-0.3,0.5-0.3,0.8c0,0.4,0.1,0.7,0.3,1c0.2,0.3,0.5,0.4,0.9,0.4
			c0.3,0,0.6-0.1,0.9-0.2C741.5,404.6,741.8,404.5,742,404.2"/>
		<path class="st0" d="M758.8,405.8h-0.9c-0.3-0.1-0.7-0.1-1.1-0.1c-0.3,0-0.7,0-1,0.1h-0.9l0-0.5c0.3,0,0.5-0.1,0.7-0.1
			c0.2,0,0.3-0.1,0.4-0.3c0.1-0.1,0.2-0.2,0.2-0.4v-0.8v-3.5v-0.6c0-0.2-0.1-0.2-0.2-0.3c-0.1-0.1-0.2-0.1-0.4-0.2
			c-0.2,0-0.4-0.1-0.7-0.1l0-0.4c0.2,0,0.4-0.1,0.7-0.1c0.2-0.1,0.5-0.2,0.7-0.2c0.2,0,0.4-0.1,0.7-0.2c0.2-0.1,0.4-0.1,0.5-0.2
			l0.2,0.1c0,0.2-0.1,0.4-0.1,0.6c0,0.2-0.1,0.4-0.1,0.6c0.5-0.4,1-0.7,1.5-0.9c0.5-0.2,1.1-0.3,1.5-0.3c0.3,0,0.6,0,0.9,0.1
			c0.3,0.1,0.6,0.3,0.8,0.5c0.2,0.3,0.4,0.5,0.5,0.9c0.1,0.3,0.2,0.8,0.2,1.3v3.7c0,0.2,0,0.4,0,0.5c0,0.1,0.1,0.3,0.2,0.3
			c0.1,0.1,0.2,0.1,0.4,0.2c0.2,0,0.4,0.1,0.7,0.1l0,0.5h-0.9c-0.4-0.1-0.7-0.1-1.2-0.1c-0.3,0-0.7,0-0.9,0.1h-0.8l0-0.5
			c0.2,0,0.5-0.1,0.6-0.1c0.2,0,0.3-0.1,0.4-0.2c0.1-0.2,0.1-0.3,0.2-0.5c0-0.2,0-0.5,0-0.8v-2.9c0-0.7-0.2-1.2-0.5-1.6
			c-0.3-0.3-0.7-0.5-1.2-0.5c-0.4,0-0.7,0.1-1.1,0.2c-0.4,0.1-0.7,0.3-1.1,0.6v4.6c0,0.2,0,0.4,0.1,0.5c0,0.1,0.1,0.3,0.2,0.3
			c0.1,0.1,0.2,0.1,0.4,0.2c0.2,0,0.4,0.1,0.7,0.1L758.8,405.8z"/>
		<path class="st0" d="M776.7,395.1c0,0.2,0,0.4-0.1,0.8c0,0.3,0,0.6,0,0.8v0.8c0,0.3,0,0.5,0,0.6l2.3,0l0.1,0.1l0,0.7h-2.3v4.3
			c0,0.4,0,0.7,0.1,0.9c0.1,0.2,0.2,0.4,0.3,0.5c0.1,0.2,0.3,0.2,0.4,0.3c0.2,0,0.3,0.1,0.5,0.1c0.2,0,0.4-0.1,0.6-0.1
			c0.2-0.1,0.4-0.1,0.6-0.2l0,0.5c-0.3,0.1-0.7,0.3-1.1,0.4c-0.4,0.1-0.8,0.2-1.1,0.2c-0.3,0-0.5-0.1-0.7-0.1
			c-0.2-0.1-0.4-0.2-0.5-0.3c-0.2-0.2-0.3-0.4-0.4-0.7c-0.1-0.2-0.2-0.6-0.2-1v-0.4v-0.7v-1.5v-2.4h-1.2l0-0.1l0-0.6l1.2-0.1v-1.1
			v-0.7v-0.6c0.2-0.1,0.3-0.1,0.4-0.2c0.2-0.1,0.3-0.1,0.4-0.2c0.1,0,0.2,0,0.3-0.1c0.1-0.1,0.2-0.1,0.3-0.2L776.7,395.1z"/>
		<polygon class="st0" points="788.9,401.9 789.1,402 793.9,401.6 793.9,401 789.1,401 		"/>
		<path class="st0" d="M804.2,392.7h0.4h0.6c0.2,0,0.4,0,0.7,0.1h0.7c0.3,0,0.8-0.1,1.2-0.1c0.4,0,0.9-0.1,1.4-0.1
			c0.6,0,1.1,0.1,1.6,0.2c0.5,0.1,1,0.3,1.4,0.5c0.4,0.2,0.7,0.5,0.9,0.9c0.3,0.4,0.4,0.9,0.4,1.4c0,0.5-0.1,0.9-0.2,1.2
			c-0.2,0.3-0.4,0.6-0.6,0.9c-0.2,0.2-0.5,0.4-0.8,0.5c-0.3,0.1-0.5,0.3-0.8,0.4c1,0.1,1.7,0.5,2.3,1.1c0.6,0.6,0.8,1.3,0.8,2.3
			c0,0.7-0.2,1.3-0.4,1.8c-0.3,0.5-0.7,0.9-1.2,1.2c-0.4,0.3-1,0.6-1.6,0.7c-0.6,0.1-1.2,0.2-1.8,0.2c-0.4,0-0.9,0-1.3-0.1
			c-0.5,0-0.9-0.1-1.3-0.1h-0.6c-0.2,0-0.4,0.1-0.6,0.1h-0.6h-0.4l-0.1-0.5c0.4,0,0.7,0,0.9-0.1c0.2,0,0.4-0.1,0.5-0.2
			c0.1-0.1,0.2-0.3,0.2-0.5c0-0.2,0-0.5,0-0.8v-9.2c0-0.2,0-0.4,0-0.6c0-0.1-0.1-0.3-0.2-0.3c-0.2-0.1-0.3-0.2-0.6-0.2
			c-0.2-0.1-0.5-0.1-0.9-0.1L804.2,392.7z M807.4,398.4h1.1c1.1,0,1.9-0.2,2.4-0.6c0.5-0.4,0.8-1.1,0.8-1.9c0-0.3-0.1-0.6-0.2-0.9
			c-0.1-0.3-0.2-0.6-0.4-0.8c-0.2-0.3-0.5-0.4-0.9-0.6c-0.4-0.1-0.9-0.2-1.5-0.2c-0.3,0-0.5,0-0.7,0c-0.2,0.1-0.3,0.1-0.4,0.2
			c-0.1,0.1-0.1,0.2-0.2,0.3v0.4V398.4z M807.4,403.7c0,0.3,0,0.6,0.1,0.7c0,0.2,0.1,0.4,0.2,0.5c0.2,0.1,0.3,0.2,0.5,0.2
			c0.2,0,0.6,0,1,0c0.9,0,1.6-0.2,2.2-0.7c0.5-0.5,0.9-1.2,0.9-2.2c0-0.5-0.1-1-0.3-1.4c-0.2-0.4-0.4-0.8-0.7-1
			c-0.4-0.3-0.8-0.5-1.2-0.6c-0.5-0.1-1-0.2-1.5-0.2h-1V403.7z"/>
		<path class="st0" d="M828.9,401.3v-0.2v-1c0-0.5-0.1-0.8-0.3-1.1c-0.2-0.3-0.5-0.4-1-0.4c-0.3,0-0.5,0-0.7,0.1
			c-0.2,0.1-0.3,0.2-0.4,0.4c-0.1,0.1-0.2,0.3-0.3,0.5c0,0.2-0.1,0.4-0.1,0.6c-0.2,0.1-0.3,0.2-0.6,0.2c-0.2,0-0.4,0-0.6-0.1
			c-0.2-0.1-0.3-0.2-0.3-0.4c0-0.2,0-0.3,0.2-0.5c0.1-0.1,0.2-0.3,0.5-0.4c0.1-0.2,0.3-0.3,0.6-0.5c0.2-0.1,0.4-0.2,0.7-0.3
			c0.6-0.3,1.2-0.4,1.8-0.4c0.3,0,0.5,0,0.8,0.1c0.3,0.1,0.4,0.3,0.7,0.4c0.1,0.1,0.3,0.4,0.4,0.7c0.1,0.2,0.2,0.6,0.2,0.9
			c0,0.5,0,1.2-0.1,1.9c0,0.7,0,1.5,0,2.4c0,0.4,0.1,0.6,0.2,0.8c0.2,0.2,0.4,0.3,0.6,0.3c0.2,0,0.5,0,0.7-0.2l0.3,0.3
			c-0.2,0.2-0.4,0.4-0.7,0.5c-0.3,0.1-0.6,0.2-0.9,0.2c-0.3,0-0.6-0.1-0.8-0.2c-0.2-0.2-0.5-0.5-0.5-0.9c-0.1,0.1-0.2,0.2-0.4,0.3
			c-0.2,0.1-0.4,0.2-0.6,0.4c-0.3,0.1-0.5,0.2-0.8,0.3c-0.3,0.1-0.6,0.2-0.8,0.2c-0.3,0-0.5,0-0.8-0.2c-0.2-0.1-0.4-0.3-0.6-0.5
			c-0.2-0.2-0.3-0.4-0.4-0.6c-0.1-0.3-0.2-0.5-0.2-0.8c0-0.5,0.2-0.9,0.4-1.2c0.3-0.3,0.6-0.6,1-0.8c0.3-0.1,0.7-0.2,1.3-0.4
			C827.6,401.5,828.2,401.4,828.9,401.3 M828.9,404.2c0-0.4,0-0.7,0-1.1V402c-0.2,0-0.5,0-0.7,0.1c-0.2,0-0.5,0-0.7,0.2
			c-0.2,0-0.4,0.1-0.6,0.2c-0.2,0.1-0.3,0.2-0.5,0.3c-0.2,0.2-0.3,0.5-0.3,0.8c0,0.4,0.1,0.7,0.3,1c0.2,0.3,0.5,0.4,0.9,0.4
			c0.3,0,0.6-0.1,0.9-0.2C828.3,404.6,828.6,404.5,828.9,404.2"/>
		<path class="st0" d="M846.1,405.8h-0.5h-0.6c-0.2,0-0.5-0.1-0.7-0.1h-0.7c-0.4,0-0.7,0-1,0.1h-0.8l0-0.5c0.3,0,0.5-0.1,0.7-0.1
			c0.2,0,0.3-0.1,0.4-0.2c0.1-0.2,0.1-0.3,0.2-0.5c0-0.2,0-0.5,0-0.8v-3.5c0-0.2,0-0.5,0-0.6c0-0.2-0.1-0.2-0.2-0.3
			c-0.1-0.1-0.2-0.1-0.4-0.2c-0.2,0-0.4-0.1-0.7-0.1l0-0.4c0.2,0,0.4-0.1,0.7-0.1c0.2,0,0.5-0.2,0.7-0.2c0.2,0,0.5-0.1,0.7-0.2
			c0.2-0.1,0.4-0.1,0.5-0.2l0.2,0.1c0,0.3-0.1,0.6-0.1,0.8v0.8c0.3-0.4,0.6-0.7,0.8-0.9c0.2-0.2,0.4-0.4,0.6-0.6
			c0.2-0.1,0.4-0.2,0.6-0.3c0.2,0,0.3,0,0.5,0c0.2,0,0.4,0,0.7,0.2c0.2,0.2,0.3,0.3,0.3,0.6c0,0.2-0.1,0.4-0.2,0.6
			c-0.2,0.2-0.4,0.4-0.7,0.6c-0.2-0.1-0.3-0.3-0.5-0.3c-0.2-0.1-0.4-0.1-0.6-0.1c-0.2,0-0.4,0.1-0.7,0.2c-0.3,0.2-0.4,0.5-0.6,0.8
			c0,0.1-0.1,0.2-0.1,0.3v0.3v3.4c0,0.2,0,0.4,0.1,0.5c0,0.1,0.1,0.3,0.2,0.3c0.1,0.1,0.3,0.1,0.5,0.2c0.2,0,0.5,0.1,0.9,0.1
			L846.1,405.8z"/>
		<polygon class="st0" points="857.4,401.9 857.5,402 862.4,401.6 862.4,401 857.5,401 		"/>
		<path class="st0" d="M877.6,393.1c-0.3,0-0.7,0.1-0.9,0.2c-0.2,0-0.4,0.1-0.5,0.2c-0.1,0.1-0.2,0.3-0.2,0.5
			c-0.1,0.2-0.1,0.5-0.1,0.8v8.6c0,0.3,0,0.6,0,0.8c0.1,0.2,0.1,0.3,0.3,0.5c0.1,0.1,0.3,0.2,0.5,0.2c0.2,0,0.5,0.1,0.9,0.1h0.7
			c0.5,0,0.9-0.1,1.2-0.2c0.4-0.1,0.6-0.2,0.8-0.4c0.2-0.2,0.4-0.5,0.6-0.9c0.2-0.3,0.3-0.7,0.6-1.2l0.5,0.1c0,0.2-0.1,0.5-0.2,0.8
			c-0.1,0.3-0.1,0.6-0.2,0.9c-0.1,0.3-0.1,0.6-0.1,0.8c-0.1,0.2-0.1,0.4-0.1,0.6h-2h-1.5h-1.1c-0.3,0-0.5,0-0.8,0h-0.6H875h-0.6
			c-0.2,0-0.4,0-0.6,0h-0.7h-0.4l-0.1-0.5c0.4,0,0.7,0,0.9-0.1c0.2,0,0.4-0.2,0.5-0.2c0.1-0.1,0.2-0.3,0.2-0.5
			c0-0.2,0.1-0.5,0.1-0.8v-9.2c0-0.2,0-0.4-0.1-0.6c0-0.1-0.1-0.3-0.2-0.3c-0.1-0.1-0.3-0.2-0.5-0.2c-0.2-0.1-0.5-0.1-0.9-0.1
			l0.1-0.5h0.5h0.7c0.3,0,0.5,0,0.8,0.1h0.7h0.6c0.2-0.1,0.4-0.1,0.6-0.1h0.6h0.5L877.6,393.1z"/>
		<path class="st0" d="M892,402c0-0.6,0.2-1.1,0.4-1.7c0.2-0.5,0.4-0.9,0.8-1.3c0.4-0.4,0.8-0.7,1.3-0.9c0.5-0.2,1-0.3,1.5-0.3
			c0.6,0,1.2,0.1,1.6,0.3c0.5,0.2,1,0.5,1.3,0.9c0.4,0.3,0.6,0.8,0.8,1.3c0.2,0.5,0.3,1,0.3,1.6c0,0.6-0.1,1.1-0.3,1.6
			c-0.2,0.5-0.5,1-0.8,1.3c-0.4,0.4-0.8,0.7-1.3,0.9c-0.5,0.2-1,0.3-1.6,0.3c-0.6,0-1.1-0.1-1.6-0.3c-0.5-0.2-0.9-0.5-1.2-0.9
			c-0.3-0.4-0.7-0.8-0.8-1.3C892.2,403,892,402.5,892,402 M896.2,405.4c0.4,0,0.7-0.1,1-0.3c0.3-0.2,0.5-0.5,0.7-0.8
			c0.2-0.3,0.3-0.6,0.4-1c0.1-0.4,0.1-0.7,0.1-1.1c0-0.5,0-0.9-0.2-1.4c-0.1-0.5-0.2-0.9-0.4-1.3c-0.2-0.4-0.5-0.7-0.8-0.9
			c-0.3-0.2-0.7-0.3-1.2-0.3c-0.4,0-0.8,0.1-1,0.3c-0.2,0.2-0.5,0.4-0.7,0.7c-0.2,0.3-0.3,0.7-0.4,1c-0.1,0.4-0.1,0.7-0.1,1.1
			c0,0.4,0,0.9,0.1,1.3c0.1,0.5,0.3,0.9,0.4,1.2c0.2,0.4,0.5,0.7,0.8,1C895.4,405.3,895.8,405.4,896.2,405.4"/>
		<path class="st0" d="M916.6,405.8c0-0.2,0-0.3,0-0.6v-0.6c-0.4,0.4-0.9,0.7-1.5,1c-0.5,0.2-1,0.4-1.5,0.4c-0.3,0-0.6,0-0.9-0.2
			c-0.3-0.1-0.5-0.3-0.7-0.5c-0.2-0.2-0.4-0.5-0.5-0.9c-0.1-0.4-0.2-0.8-0.2-1.3v-3.3c0-0.2,0-0.4,0-0.6c0-0.1-0.1-0.3-0.1-0.4
			c-0.1-0.1-0.2-0.2-0.4-0.2c-0.2,0-0.4-0.1-0.6-0.2v-0.3c0.3-0.1,0.5-0.1,0.8-0.2c0.3-0.1,0.5-0.1,0.8-0.2c0.2,0,0.4-0.1,0.6-0.1
			c0.2,0,0.3-0.1,0.4-0.1l0.1,0.1c0,0.2,0,0.5-0.1,0.7c0,0.3,0,0.5,0,0.8c0,0.2,0,0.5,0,0.7c0,0.2,0,0.4,0,0.5v2.1
			c0,0.4,0,0.8,0.1,1.1c0.1,0.3,0.2,0.5,0.3,0.7c0.2,0.2,0.3,0.3,0.5,0.4c0.2,0.1,0.4,0.1,0.6,0.1c0.4,0,0.8-0.1,1.1-0.2
			c0.4-0.2,0.8-0.4,1.1-0.6v-4.2c0-0.2,0-0.4,0-0.6c0-0.1-0.1-0.3-0.2-0.4c-0.1-0.1-0.2-0.2-0.4-0.2c-0.2,0-0.4-0.1-0.7-0.2v-0.3
			c0.3-0.1,0.6-0.1,0.9-0.2c0.3-0.1,0.5-0.1,0.8-0.2c0.2,0,0.4-0.1,0.6-0.1c0.2,0,0.4-0.1,0.4-0.1l0.2,0.1c0,0.2-0.1,0.5-0.1,0.7
			c0,0.3,0,0.5,0,0.8c0,0.2,0,0.5,0,0.7c0,0.2,0,0.4,0,0.5v3.2c0,0.2,0,0.5,0.1,0.6c0,0.1,0.1,0.2,0.1,0.3c0.1,0.1,0.2,0.2,0.4,0.2
			c0.2,0,0.4,0.1,0.7,0.1l0,0.4c-0.2,0-0.5,0.1-0.8,0.2c-0.2,0-0.5,0-0.8,0.1c-0.2,0.1-0.5,0.1-0.7,0.2c-0.2,0.1-0.3,0.1-0.5,0.1
			L916.6,405.8z"/>
		<path class="st0" d="M933.6,405.8h-0.9c-0.4-0.1-0.8-0.1-1.2-0.1c-0.3,0-0.7,0-1,0.1h-0.8l-0.1-0.5c0.3,0,0.5-0.1,0.7-0.1
			c0.2,0,0.3-0.1,0.4-0.3c0.1-0.1,0.1-0.2,0.2-0.4c0-0.2,0.1-0.5,0.1-0.8v-3.5c0-0.2,0-0.5,0-0.6c0-0.2-0.1-0.2-0.2-0.3
			c-0.1-0.1-0.2-0.1-0.4-0.2c-0.2,0-0.4-0.1-0.7-0.1l0-0.4c0.2,0,0.4-0.1,0.7-0.1c0.2-0.1,0.5-0.2,0.7-0.2c0.2,0,0.5-0.1,0.7-0.2
			c0.2-0.1,0.3-0.1,0.5-0.2l0.1,0.1c0,0.2,0,0.4-0.1,0.6c0,0.2,0,0.4,0,0.6c0.5-0.4,1-0.7,1.5-0.9c0.6-0.2,1.1-0.3,1.5-0.3
			c0.3,0,0.7,0,0.9,0.1c0.3,0.1,0.6,0.3,0.8,0.5c0.2,0.3,0.4,0.5,0.5,0.9c0.1,0.3,0.2,0.8,0.2,1.3v3.7c0,0.2,0,0.4,0.1,0.5
			c0,0.1,0.1,0.3,0.2,0.3c0.1,0.1,0.2,0.1,0.4,0.2c0.2,0,0.4,0.1,0.7,0.1l0,0.5h-0.9c-0.4-0.1-0.7-0.1-1.2-0.1c-0.3,0-0.7,0-0.9,0.1
			H935l-0.1-0.5c0.3,0,0.5-0.1,0.7-0.1c0.2,0,0.3-0.1,0.4-0.2c0.1-0.2,0.1-0.3,0.1-0.5c0.1-0.2,0.1-0.5,0.1-0.8v-2.9
			c0-0.7-0.2-1.2-0.5-1.6c-0.3-0.3-0.7-0.5-1.2-0.5c-0.3,0-0.7,0.1-1,0.2c-0.4,0.1-0.8,0.3-1.2,0.6v4.6c0,0.2,0,0.4,0,0.5
			c0,0.1,0.1,0.3,0.2,0.3c0.1,0.1,0.2,0.1,0.4,0.2c0.2,0,0.4,0.1,0.7,0.1L933.6,405.8z"/>
		<path class="st0" d="M949.3,400.9c0-0.4,0.1-0.9,0.3-1.3c0.2-0.4,0.4-0.7,0.8-1c0.3-0.3,0.6-0.5,1-0.7c0.4-0.2,0.8-0.3,1.3-0.3
			c0.7,0,1.3,0.1,1.8,0.4c0.1,0.1,0.2,0.1,0.2,0.2c0.1,0,0.2,0,0.3,0c0.1,0,0.2,0,0.2,0l2-0.2l0.1,0.1l-0.1,0.8h-1.9
			c0.4,0.5,0.5,1,0.5,1.6c0,0.5-0.1,1-0.3,1.4c-0.2,0.4-0.4,0.7-0.8,1c-0.3,0.3-0.7,0.5-1.1,0.6c-0.4,0.1-0.8,0.2-1.2,0.2
			c-0.3,0-0.7,0-1.1-0.1c-0.2,0-0.4,0.2-0.5,0.4c-0.2,0.2-0.2,0.4-0.2,0.5c0,0.1,0,0.2,0.2,0.3c0.1,0.1,0.2,0.2,0.3,0.2
			c0.1,0,0.3,0.1,0.4,0.1c0.1,0,0.3,0,0.4,0h1.1c0.3,0,0.7,0,1,0c0.4,0,0.7,0,1.1,0.1c0.4,0.1,0.7,0.2,1,0.4
			c0.3,0.2,0.5,0.4,0.7,0.7c0.2,0.3,0.3,0.7,0.3,1.2c0,0.6-0.1,1.1-0.4,1.6c-0.3,0.5-0.6,0.9-1,1.3c-0.5,0.4-1,0.7-1.6,0.8
			c-0.6,0.3-1.3,0.4-2,0.4c-0.4,0-0.8-0.1-1.1-0.2c-0.4-0.1-0.8-0.2-1.1-0.5c-0.4-0.2-0.6-0.5-0.8-0.8c-0.2-0.3-0.4-0.7-0.4-1.1
			c0-0.3,0.1-0.6,0.2-0.9c0.1-0.3,0.3-0.5,0.4-0.7c0.2-0.2,0.4-0.4,0.6-0.6c0.2-0.2,0.4-0.4,0.7-0.5c-0.4-0.2-0.7-0.3-0.9-0.6
			c-0.3-0.2-0.4-0.5-0.4-0.8c0-0.2,0.1-0.4,0.1-0.5c0.2-0.2,0.3-0.3,0.4-0.5c0.1-0.1,0.3-0.3,0.4-0.5c0.2-0.1,0.3-0.3,0.4-0.3
			C949.8,403,949.3,402.2,949.3,400.9 M952.8,406.9h-0.7c-0.2,0-0.4,0-0.5,0.1c-0.1,0-0.2,0-0.3,0.1c-0.1,0-0.2,0.2-0.3,0.2
			c-0.3,0.2-0.5,0.5-0.6,0.8c-0.2,0.3-0.2,0.6-0.2,0.9c0,0.4,0.1,0.7,0.2,1c0.2,0.2,0.4,0.4,0.7,0.6c0.2,0.1,0.6,0.3,0.9,0.3
			c0.4,0.1,0.7,0.1,1,0.1c0.4,0,0.7-0.1,1.1-0.2c0.4-0.1,0.6-0.2,0.9-0.4c0.3-0.2,0.5-0.5,0.6-0.7c0.2-0.3,0.2-0.7,0.2-1.1
			c0-0.4-0.1-0.7-0.2-0.9c-0.2-0.2-0.4-0.4-0.7-0.6c-0.3-0.1-0.6-0.2-0.9-0.2c-0.3,0-0.7,0-1.1,0H952.8z M952.7,403.4
			c0.3,0,0.5-0.1,0.7-0.2c0.2-0.1,0.4-0.3,0.5-0.5c0.2-0.2,0.3-0.5,0.3-0.8c0.1-0.3,0.1-0.6,0.1-0.8c0-0.3,0-0.7-0.1-1
			c-0.1-0.3-0.2-0.6-0.3-0.9c-0.1-0.3-0.3-0.5-0.5-0.7c-0.2-0.1-0.6-0.2-0.9-0.2c-0.3,0-0.5,0.1-0.7,0.2c-0.2,0.1-0.4,0.3-0.5,0.5
			c-0.1,0.2-0.2,0.4-0.3,0.7c0,0.3-0.1,0.5-0.1,0.8c0,0.3,0,0.7,0.1,1c0.1,0.3,0.2,0.6,0.3,0.9c0.2,0.3,0.3,0.5,0.6,0.7
			C952.1,403.3,952.4,403.4,952.7,403.4"/>
		<path class="st0" d="M973.9,404.3c-0.3,0.4-0.6,0.7-0.9,0.9c-0.3,0.2-0.6,0.4-0.9,0.6c-0.3,0.1-0.5,0.2-0.8,0.3
			c-0.2,0-0.4,0.1-0.5,0.1c-0.6,0-1.1-0.1-1.6-0.3c-0.5-0.2-0.8-0.5-1.1-0.9c-0.3-0.4-0.6-0.8-0.8-1.3c-0.2-0.5-0.3-1-0.3-1.5
			c0-0.6,0.1-1.2,0.3-1.7c0.2-0.5,0.5-1,0.9-1.4c0.4-0.4,0.8-0.7,1.2-0.9c0.5-0.3,0.9-0.4,1.4-0.4c0.4,0,0.8,0.1,1.1,0.2
			c0.3,0.2,0.7,0.3,0.9,0.6c0.2,0.2,0.4,0.6,0.6,0.9c0.1,0.4,0.2,0.8,0.2,1.2v0.2v0.2c0,0.2-0.2,0.4-0.4,0.4h-5
			c0,0.6,0.1,1.2,0.3,1.6c0.2,0.4,0.4,0.8,0.7,1.1c0.3,0.3,0.5,0.5,0.9,0.6c0.3,0.1,0.7,0.2,1,0.2c0.3,0,0.7-0.1,1-0.2
			c0.4-0.2,0.7-0.4,1-0.8L973.9,404.3z M972,400.7c0.2,0,0.3,0,0.3-0.1c0.1,0,0.1-0.2,0.1-0.4c0-0.2,0-0.5-0.1-0.7
			c-0.1-0.2-0.2-0.4-0.4-0.6c-0.1-0.2-0.3-0.3-0.5-0.4c-0.2-0.1-0.4-0.1-0.7-0.1c-0.2,0-0.4,0.1-0.6,0.1c-0.2,0.1-0.4,0.3-0.6,0.5
			c-0.2,0.2-0.3,0.4-0.5,0.7c-0.1,0.3-0.2,0.5-0.2,0.9H972z"/>
		<path class="st0" d="M921.6,353.4h18.7c0.7,0,1.2-0.2,1.6-0.5c0.4-0.4,0.7-0.8,0.7-1.3v-4.3c0-0.5-0.2-1-0.7-1.3
			c-0.4-0.4-0.9-0.6-1.6-0.6H921c-3,0-5.5,0.2-7.6,0.7c-2.1,0.4-3.7,1.2-5,2.2c-1.3,1.1-2.2,2.4-2.8,4.1c-0.6,1.7-0.9,3.9-0.9,6.4
			v11.5h-8v-49.4h-10v57.6h29.6l2.6-2v-19.9c0-1.3,0.2-2.1,0.5-2.4C919.8,353.6,920.5,353.4,921.6,353.4"/>
		<path class="st0" d="M984.7,370h-16.4v-31.3c0-2.6-0.3-4.8-0.8-6.4c-0.5-1.7-1.4-3.1-2.7-4.1c-1.3-1.1-2.9-1.8-5-2.2
			c-2.1-0.4-4.6-0.6-7.6-0.6h-43.2c-0.6,0-1.1,0.1-1.6,0.5c-0.4,0.3-0.7,0.7-0.7,1.3v4.3c0,0.6,0.3,1.1,0.7,1.4
			c0.4,0.4,1,0.6,1.6,0.6h42.6c1,0,1.7,0.2,2,0.6c0.3,0.4,0.5,1.2,0.5,2.3v40.2c0,0.5,0.2,0.9,0.7,1.3c0.5,0.4,1,0.6,1.6,0.6h28.3
			c0.7,0,1.2-0.2,1.6-0.6c0.4-0.4,0.7-0.8,0.7-1.3v-4.6c0-0.5-0.2-0.9-0.7-1.3C985.9,370.1,985.4,370,984.7,370"/>
		<rect x="772.8" y="320.4" class="st0" width="10" height="67.7"/>
		<path class="st0" d="M855.5,319.4c-2.5,0-5,0.6-7.6,1.8c-1.3,0.6-2.7,1.6-4.3,3.1c-1.5,1.4-3.3,3.3-5.2,5.5
			c-2.3-6.9-7.4-10.3-15.6-10.3c-5.7,0-10.9,2.9-15.5,8.6v-7.4h-9.9v57.6h9.9V337c4.6-6.1,9.3-9.2,14.1-9.2c3.1,0,5.3,1,6.7,3
			c1.3,2.1,2,5.4,2,10.2v37.2h9.9V337c4.6-6.1,9.3-9.2,14.1-9.2c3.1,0,5.3,1,6.7,3c1.3,2.1,2,5.4,2,10.2v37.2h9.9v-37.6
			C872.5,326.5,866.9,319.4,855.5,319.4"/>
		<rect x="886.8" y="298.5" class="st0" width="10" height="11.1"/>
		<polygon class="st0" points="741.9,342.1 763,320.6 750.6,320.6 729.1,343.8 729.1,309.5 729.1,309.5 729.1,298.8 729.1,298.8
			726.4,298.8 719.1,298.8 719.1,378.2 729.1,378.2 729.1,355.4 735.3,349 753.4,378.2 765.1,378.2 		"/>
		<rect x="782.8" y="298.5" class="st0" width="95.8" height="10.8"/>
		<path class="st0" d="M657.1,344.3h-19.8c-3.1,0-5.6,0.2-7.8,0.7c-2.1,0.4-3.9,1.2-5.2,2.3c-1.3,1.1-2.3,2.5-2.8,4.2
			c-0.6,1.7-0.9,3.9-0.9,6.5v11.8h-15.3c-0.7,0-1.2,0.2-1.6,0.6c-0.4,0.4-0.7,0.8-0.7,1.3v4.4c0,0.6,0.3,1,0.7,1.5
			c0.4,0.4,1,0.6,1.6,0.6h27.1l2.7-2.2v-20.4c0-1.3,0.1-2.1,0.5-2.5c0.4-0.4,1.1-0.6,2.2-0.6h19.2c0.7,0,1.2-0.2,1.7-0.6
			c0.4-0.4,0.6-0.8,0.6-1.3v-4.5c0-0.5-0.2-0.9-0.6-1.3C658.4,344.5,657.8,344.3,657.1,344.3"/>
		<path class="st0" d="M694.7,298.5v71.2h-8.9v-31.9c0-2.7-0.3-4.8-0.8-6.6c-0.6-1.7-1.5-3.1-2.8-4.2c-1.3-1-3-1.8-5.1-2.3
			c-2.1-0.4-4.7-0.7-7.8-0.7h-44c-0.7,0-1.2,0.2-1.6,0.5c-0.5,0.3-0.7,0.8-0.7,1.3v4.4c0,0.5,0.2,1,0.7,1.4c0.4,0.4,1,0.6,1.7,0.6
			h43.5c1,0,1.7,0.2,2.1,0.6c0.3,0.4,0.6,1.1,0.6,2.3v41.1c0,0.5,0.2,1,0.6,1.3c0.5,0.4,1,0.6,1.7,0.6h30.9v-79.7H694.7z"/>
	</g>
	<g>
		<path class="st0" d="M551.8,1071.9h486.4V568H551.8V1071.9z M560.4,576.8h469.3v486.3H560.4V576.8z"/>
		<polygon class="st0" points="594.3,974.3 583.2,974.3 583.2,954.8 580.3,954.8 580.3,977 594.3,977 		"/>
		<path class="st0" d="M615.2,966h2.4c0.3-2,1.5-2.9,3.5-2.9c2.4,0,3.5,0.9,3.5,2.6c0,0.8-0.2,1.3-0.7,1.5c-0.4,0.2-1.7,0.4-3.8,0.7
			l-1.4,0.1l-1.2,0.3c-1.1,0.3-1.9,0.9-2.4,1.7c-0.5,0.7-0.8,1.6-0.8,2.7c0,1.4,0.4,2.5,1.4,3.3c0.9,0.8,2.2,1.2,3.7,1.2
			c1,0,1.8-0.2,2.6-0.6c0.8-0.5,1.7-1.1,2.6-2c0,1.5,0.8,2.3,2.5,2.3l0.7-0.1l0.9-0.2v-1.9l-0.8,0.2c-0.6,0-0.9-0.3-0.9-0.9v-8.7
			c0-1.4-0.5-2.4-1.6-3.2c-1.1-0.8-2.5-1.1-4.2-1.1c-2,0-3.5,0.4-4.6,1.3C615.8,963.1,615.2,964.3,615.2,966 M624.7,970.6v0.2v0.5
			c0,0.5-0.1,0.9-0.2,1.2c-0.4,0.7-1.1,1.3-1.9,1.7c-0.8,0.4-1.7,0.6-2.7,0.6c-1.8,0-2.7-0.8-2.7-2.6c0-1.3,1-2.2,3-2.4l2.7-0.4
			c0.8-0.1,1.3-0.3,1.5-0.4l0.2-0.1V970.6z"/>
		<polygon class="st0" points="679.1,976.9 683.7,976.9 683.7,967.6 693.5,967.6 693.5,963.7 683.7,963.7 683.7,958.8 694.9,958.8
			694.9,954.9 679.1,954.9 		"/>
		<path class="st0" d="M724.7,959.5c-2.6,0-4.7,0.8-6.3,2.4c-1.5,1.5-2.3,3.7-2.3,6.3c0,2.7,0.8,4.8,2.3,6.4
			c1.5,1.6,3.6,2.4,6.2,2.4c2.6,0,4.7-0.8,6.3-2.4c1.6-1.6,2.3-3.7,2.3-6.4c0-2.6-0.8-4.7-2.3-6.3
			C729.3,960.3,727.2,959.5,724.7,959.5 M727.6,972c-0.7,0.8-1.7,1.2-3,1.2c-1.3,0-2.2-0.5-2.9-1.3c-0.7-0.9-1-2.1-1-3.8
			c0-1.6,0.3-2.8,0.9-3.6c0.6-0.9,1.5-1.3,2.7-1.3h0.3c2.7,0,4,1.8,4,5.3C728.6,970,728.3,971.2,727.6,972"/>
		<path class="st0" d="M765.8,969.6v0.3c0,0.9-0.3,1.6-1,2.2c-0.7,0.6-1.5,0.9-2.5,0.9c-1.8,0-2.8-1-2.8-3.1v-10.4h-4.5v11.2v0.3
			c0,1.1,0.3,2.2,0.9,3.2c0.4,0.8,1,1.4,1.9,1.9c0.8,0.4,1.8,0.7,2.9,0.7c2.4,0,4.1-1,5.2-2.9v2.4h4.3v-16.8h-4.4V969.6z"/>
		<path class="st0" d="M797.7,962.8v-2.9h-4.3v16.7h4.5v-9c0-2.5,1.4-3.7,4.2-3.7l1.2,0v-4.5h-1.1
			C800.3,959.5,798.8,960.6,797.7,962.8"/>
		<path class="st0" d="M830.9,962.6c1.6,0,2.6,0.9,2.9,2.7h4.6c0-2-0.7-3.5-2.1-4.7c-1.4-1.2-3.2-1.8-5.4-1.8
			c-2.6,0-4.5,0.8-5.9,2.4c-1.4,1.6-2.1,3.9-2.1,6.8c0,2.6,0.7,4.7,2.1,6.2c1.4,1.5,3.3,2.2,5.8,2.2c2.1,0,3.9-0.6,5.3-1.8
			c1.4-1.2,2.2-2.8,2.3-4.7h-4.4c-0.1,0.9-0.4,1.6-1,2.1c-0.5,0.5-1.2,0.7-2.1,0.7c-2.2,0-3.3-1.7-3.3-5.1c0-1.7,0.3-2.9,0.9-3.8
			C828.9,963,829.8,962.6,830.9,962.6"/>
		<path class="st0" d="M869.3,976.3h4.4v-11.7v-0.4c0-1.4-0.6-2.6-1.6-3.6c-1.1-1-2.5-1.5-4.1-1.5c-2.4,0-4.1,0.9-5,2.6v-8h-4.5
			v22.6h4.5v-9.9c0-1,0.3-1.8,1-2.5c0.7-0.7,1.5-1,2.5-1c0.9,0,1.5,0.2,2,0.7c0.5,0.4,0.7,1,0.7,1.8v0.6V976.3z"/>
		<path class="st0" d="M903.6,958.9c-2.6,0-4.6,0.8-6,2.3c-1.4,1.5-2.1,3.7-2.1,6.5c0,2.8,0.7,5,2.1,6.5c1.4,1.5,3.4,2.3,6,2.3
			c2,0,3.6-0.5,5-1.4c1.3-0.9,2.2-2.2,2.7-3.9h-4.5c-0.4,1.2-1.3,1.8-2.9,1.8c-2.2,0-3.4-1.2-3.7-3.6l-0.2-0.4h11.5v-0.6
			c0-3.1-0.7-5.4-2-7C908.2,959.7,906.2,958.9,903.6,958.9 M900.2,966c0.3-2.3,1.4-3.5,3.3-3.5c2,0,3.1,1.2,3.4,3.5H900.2z"/>
		<path class="st0" d="M941.5,962.5v-3.2h-2.8v-4.5h-4.4v4.5H932v3.2h2.3v10.3v0.5c0,2,1.6,3,4.7,3l2.5-0.1V973h-1.3
			c-1,0-1.5-0.4-1.5-1.2v-9.3H941.5z"/>
		<path class="st0" d="M972.2,973h-1.3c-1,0-1.5-0.4-1.5-1.2v-9.3h2.8v-3.2h-2.8v-4.5h-4.4v4.5h-2.3v3.2h2.3v10.3v0.5
			c0,2,1.6,3,4.7,3l2.5-0.1V973z"/>
		<path class="st0" d="M1001.7,976.6c2,0,3.6-0.5,5-1.4c1.3-0.9,2.2-2.2,2.7-3.9h-4.6c-0.4,1.2-1.3,1.8-2.9,1.8
			c-2.2,0-3.4-1.2-3.7-3.6l-0.1-0.4h11.5v-0.6c0-3.1-0.7-5.4-2-7c-1.4-1.6-3.3-2.4-5.9-2.4c-2.6,0-4.5,0.8-5.9,2.3
			c-1.4,1.5-2.1,3.7-2.1,6.5c0,2.8,0.7,5,2.1,6.5C997.1,975.8,999.1,976.6,1001.7,976.6 M1001.5,962.5c2,0,3.1,1.1,3.4,3.5h-6.8
			C998.5,963.7,999.6,962.5,1001.5,962.5"/>
		<path class="st0" d="M981.3,771.4h5.4c3.7,0,6.7-3,6.7-6.7c0-3.7-3-6.7-6.7-6.7h-5.4c-3.7,0-6.7,3-6.7,6.7
			C974.6,768.4,977.6,771.4,981.3,771.4"/>
		<path class="st0" d="M600.3,771.4h12c3.7,0,6.7-3,6.7-6.7c0-3.7-3-6.7-6.7-6.7h-12c-3.7,0-6.7,3-6.7,6.7
			C593.5,768.4,596.5,771.4,600.3,771.4"/>
		<path class="st0" d="M640,771.4h24.9v0.3h252v-0.3h35.4c3.7,0,6.7-3,6.7-6.7s-3-6.7-6.7-6.7h-35.6c-3.5-63.7-55-114.8-119.1-118.2
			v-10.4c0-3.7-3-6.7-6.7-6.7c-3.7,0-6.7,3-6.7,6.7v10.4c-64.1,3.4-115.6,54.5-119.1,118.2H640c-3.7,0-6.7,3-6.7,6.7
			S636.2,771.4,640,771.4 M790.9,653c59.7,0,108.7,46.5,112.3,105H678.6C682.2,699.5,731.2,653,790.9,653"/>
		<path class="st0" d="M823.5,846.5l34.5-30.3c9.4-8.2,23.3-8,32.4,0.6l86.9,81.9c1.3,1.2,3,1.8,4.6,1.8c1.8,0,3.6-0.7,4.9-2.1
			c2.6-2.7,2.4-6.9-0.3-9.5L899.7,807c-8-7.5-18.4-10.9-28.6-10.2h-77.3c-3.7,0-6.7,3-6.7,6.7c0,3.7,3,6.7,6.7,6.7h50.6l-29.8,26.2
			c-8,7-19.4,8-28.4,2.5l-65.7-40.6c-3.2-2-7.3-1-9.3,2.2c-2,3.1-1,7.3,2.2,9.2l65.7,40.6C793.2,859,811.1,857.5,823.5,846.5"/>
		<path class="st0" d="M865.7,992.1h-22c-0.2,0-0.4,0.1-0.5,0.2c-0.2,0.2-0.2,0.3-0.2,0.5v2.3c0,0.2,0.1,0.4,0.2,0.5
			c0.1,0.2,0.3,0.2,0.5,0.2h8.4c0.2,0,0.4,0.1,0.5,0.2c0.2,0.1,0.2,0.3,0.2,0.5v38.2c0,0.2,0.1,0.4,0.2,0.5c0.2,0.2,0.3,0.2,0.5,0.2
			h2.3c0.2,0,0.4-0.1,0.5-0.2c0.2-0.1,0.2-0.3,0.2-0.5v-38.2c0-0.2,0.1-0.4,0.2-0.5c0.2-0.2,0.3-0.2,0.5-0.2h8.4
			c0.2,0,0.4-0.1,0.5-0.2c0.2-0.1,0.2-0.3,0.2-0.5v-2.3c0-0.2-0.1-0.4-0.3-0.5C866.1,992.1,866,992.1,865.7,992.1"/>
		<path class="st0" d="M881.9,1010.3h-0.1c-3.1,0.3-5.8,1.7-7.9,4c-2.2,2.3-3.2,5.1-3.2,8.4v12c0,0.2,0,0.3,0.2,0.4
			c0.1,0.1,0.2,0.2,0.4,0.2h2.5c0.2,0,0.3,0,0.4-0.2c0.1-0.1,0.2-0.2,0.2-0.4v-3h-0.1v-1.5v-3.3v-2.3v-1.9c0-2.2,0.7-4.2,2.2-5.9
			c1.5-1.7,3.3-2.7,5.5-3c0.2,0,0.3,0,0.4-0.2c0.1-0.1,0.1-0.2,0.1-0.4v-2.4c0-0.2-0.1-0.3-0.2-0.4
			C882.2,1010.3,882.1,1010.3,881.9,1010.3"/>
		<path class="st0" d="M899.5,1010.4H899c-1.1,0-2.1,0.1-3.1,0.4c-1.2,0.3-2.3,0.8-3.3,1.4c-1.9,1.1-3.4,2.7-4.5,4.7
			c-1,1.8-1.5,3.9-1.5,6v0.5c0.1,3.3,1.4,6.1,3.9,8.5c2.5,2.3,5.4,3.5,8.7,3.5h11.8c0.2,0,0.3-0.1,0.4-0.2c0.1-0.1,0.2-0.2,0.2-0.4
			V1023c0-3.3-1.2-6.2-3.6-8.7C905.6,1011.9,902.8,1010.6,899.5,1010.4 M907.9,1031.3c0,0.2-0.1,0.3-0.2,0.4
			c-0.1,0.1-0.2,0.2-0.4,0.2h-8.2c-2.4,0-4.5-0.8-6.3-2.5c-1.8-1.7-2.7-3.7-2.7-6.1v-0.3c0-2.5,0.9-4.6,2.6-6.3
			c1.8-1.8,3.9-2.6,6.3-2.6h0.3c2.4,0.1,4.5,1,6.2,2.8c1.6,1.8,2.4,3.8,2.4,6.3V1031.3z"/>
		<path class="st0" d="M918.9,1001.8c-0.7,0-1.3,0.2-1.8,0.7c-0.5,0.5-0.7,1.1-0.7,1.8v1.2v1.2h1h1.5c0.7,0,1.3-0.2,1.8-0.8
			c0.5-0.5,0.7-1,0.7-1.7c0-0.7-0.2-1.2-0.7-1.8C920.2,1002.1,919.6,1001.8,918.9,1001.8"/>
		<path class="st0" d="M919.6,1009.9h-2.4c-0.2,0-0.3,0.1-0.4,0.2c-0.1,0.1-0.2,0.2-0.2,0.4v12.2v12c0,0.2,0,0.3,0.1,0.4
			c0.1,0.1,0.2,0.1,0.4,0.1h2.5c0.2,0,0.3,0,0.4-0.1c0.1-0.1,0.2-0.2,0.2-0.4v-5.3v-12.7v0v-0.6v-5.5c0-0.2-0.1-0.3-0.2-0.4
			C919.9,1010,919.8,1009.9,919.6,1009.9"/>
		<path class="st0" d="M941.7,1031.7c-2.4,0-4.5-0.9-6.2-2.6c-1.7-1.7-2.6-3.8-2.7-6.2v-6.2v-0.1v-0.6v-5.9h4.8c0.5,0,1-0.2,1.3-0.6
			c0.3-0.4,0.5-0.8,0.5-1.3v-1v-0.9h-0.8h-1.1h-0.2c-0.1,0-0.1,0-0.2,0h-4.4v-12.5c0-0.5-0.2-0.9-0.5-1.3c-0.3-0.4-0.8-0.5-1.3-0.5
			h-1.8v1.8v0.2v12.3h-3.9c-0.2,0-0.3,0-0.5,0s-0.4,0-0.6,0.1c-0.3,0.2-0.7,0.4-0.9,0.8c-0.2,0.4-0.3,0.7-0.3,1.1v1.8h0.5h1h0.4h4.3
			v12.9c0.1,3.4,1.3,6.3,3.7,8.7c2.4,2.4,5.3,3.6,8.7,3.7h1.2c0.2,0,0.3-0.1,0.4-0.2c0.1-0.1,0.2-0.2,0.2-0.4v-1.2
			c0-0.5-0.2-0.9-0.5-1.3C942.6,1031.9,942.2,1031.7,941.7,1031.7"/>
		<path class="st0" d="M966.9,1014c-0.2-0.2-0.4-0.5-0.7-0.7c-0.3-0.3-0.5-0.5-0.8-0.8l-0.3-0.3c-2.2-1.5-4.5-2.2-7.1-2.2
			c-0.6,0-1.2,0-1.8,0.1c-3.2,0.4-5.9,1.9-8,4.5c-1.9,2.3-2.9,5-2.9,8v1.1c0.3,3.4,1.7,6.3,4.2,8.5c2.3,2.1,5,3.1,8.1,3.2h0.3
			c2.9,0,5.5-0.9,7.8-2.6c0.2-0.1,0.2-0.3,0.2-0.5c0-0.2-0.1-0.3-0.2-0.4c-0.4-0.3-0.6-0.6-0.9-0.7c-0.3-0.2-0.6-0.5-0.9-0.8
			l-0.1-0.1l-0.1-0.1c-0.1-0.1-0.2-0.2-0.4-0.2c-0.1,0-0.2,0-0.4,0.1c-1.6,1.1-3.4,1.7-5.3,1.6c-2,0-3.8-0.7-5.3-1.9
			c6.6-6.6,11.5-11.5,14.7-14.7c0.1-0.1,0.1-0.2,0.1-0.3v-0.1c0-0.2,0-0.3-0.1-0.4L966.9,1014z M962,1015c0,0.2-0.1,0.3-0.2,0.4
			c-5,5-8.7,8.7-11.2,11.2c-0.1,0.1-0.2,0.2-0.4,0.2h-0.1c-0.2,0-0.3-0.1-0.5-0.3c-0.5-1.2-0.8-2.5-0.7-3.8c0-0.4,0-0.8,0-1.2
			c0.2-1.8,1-3.4,2.2-4.8c1.4-1.5,3-2.5,5-2.9c0.7-0.1,1.3-0.2,1.9-0.2c1.2,0,2.5,0.3,3.7,0.8c0.2,0.1,0.3,0.2,0.3,0.4
			C962,1015,962,1015,962,1015"/>
		<path class="st0" d="M993,1010.2h-2.1c-0.1,0-0.2,0-0.3,0.1c-0.1,0-0.2,0.1-0.2,0.2v3.2v1.5v3.3v2.4v1.8c0,2.5-0.7,4.6-2.4,6.4
			c-1.5,1.8-3.4,2.7-5.7,2.7c-2.2,0-4.1-0.9-5.7-2.6c-1.6-1.8-2.3-3.9-2.3-6.4v-0.3v-0.3v-0.1v-0.1v-8.1v-3.2c0-0.2-0.1-0.3-0.2-0.4
			c-0.1-0.1-0.3-0.2-0.4-0.2c-0.9,0-1.6,0.1-2,0.1c-0.2,0-0.4,0.1-0.5,0.2c-0.1,0.1-0.1,0.3-0.1,0.4v12c0,3.5,1.1,6.4,3.3,8.9
			c2.2,2.5,4.9,3.7,8,3.7c3.1,0,5.8-1.2,8-3.7c2.2-2.4,3.3-5.4,3.3-8.9v-12c0-0.2,0-0.3-0.2-0.4
			C993.3,1010.3,993.1,1010.2,993,1010.2"/>
		<path class="st0" d="M1009,1010.3h-0.1c-3.1,0.3-5.8,1.7-7.9,4c-2.2,2.3-3.2,5.1-3.2,8.4v12c0,0.2,0,0.3,0.2,0.4
			c0.1,0.1,0.2,0.2,0.4,0.2h2.5c0.2,0,0.3,0,0.4-0.2c0.1-0.1,0.2-0.2,0.2-0.4v-3h0v-1.5v-3.3v-2.3v-1.9c0-2.2,0.7-4.2,2.2-5.9
			c1.5-1.7,3.3-2.7,5.5-3c0.2,0,0.3,0,0.4-0.2c0.1-0.1,0.1-0.2,0.1-0.4v-2.4c0-0.2-0.1-0.3-0.2-0.4
			C1009.3,1010.3,1009.1,1010.3,1009,1010.3"/>
	</g>
	<g>
		<path class="st0" d="M6.6,1071.9H493V568H6.6V1071.9z M15.1,576.8h469.3v486.3H15.1V576.8z"/>
		<path class="st0" d="M171,872.1c-33-29.6-41.1-68.3-41.1-100.6c0-22.8,7.8-62.5,38-92.8c20.4-20.4,51.3-36.4,103.6-36.4
			c13.6,0,32.6,1,49.3,4.1c12.9,2.4,23.8,4.4,34.7,5.1c3.7,0.3,4.4,1.7,4.4,3.7c0,2.7-1,6.8-1.7,19c-0.7,11.2-0.7,29.9-1,35
			c-0.3,5.1-1,7.1-3.1,7.1c-2.4,0-2.7-2.4-2.7-7.1c0-13.3-5.4-27.2-14.3-34.7c-11.9-10.2-38.1-19.4-68-19.4
			c-45.2,0-66.3,13.2-78.2,24.8c-24.8,23.8-30.6,54-30.6,88.7c0,64.9,50,124.4,122.7,124.4c25.5,0,45.5-3.1,59.1-17
			c7.1-7.5,11.6-22.4,12.6-28.5c0.7-3.7,1.4-5.1,3.4-5.1c1.7,0,2.4,2.4,2.4,5.1c0,2.4-4.1,31.9-7.5,43.5c-2,6.5-2.7,7.1-8.8,9.9
			c-13.6,5.4-39.4,7.8-61.2,7.8C232.2,908.8,197.8,896.3,171,872.1"/>
		<path class="st0" d="M305.7,716.5c0,8.1-6.6,14.6-14.6,14.6h-40.9c-8.1,0-14.6-6.5-14.6-14.6c0-8.1,6.5-14.6,14.6-14.6H291
			C299.1,701.9,305.7,708.4,305.7,716.5"/>
		<path class="st0" d="M304.2,755.9c0,8.1-6.5,14.6-14.6,14.6h-40.9c-8.1,0-14.6-6.5-14.6-14.6c0-8,6.6-14.6,14.6-14.6h40.9
			C297.7,741.3,304.2,747.9,304.2,755.9"/>
		<path class="st0" d="M302.7,795.4c0,8.1-6.6,14.6-14.6,14.6h-41c-8.1,0-14.6-6.6-14.6-14.6c0-8.1,6.5-14.6,14.6-14.6h41
			C296.2,780.8,302.7,787.3,302.7,795.4"/>
		<path class="st0" d="M292.5,834.8c0,8.1-6.5,14.6-14.6,14.6H237c-8.1,0-14.6-6.6-14.6-14.6c0-8.1,6.5-14.6,14.6-14.6h40.9
			C285.9,820.2,292.5,826.8,292.5,834.8"/>
		<path class="st0" d="M89.5,1024.6h-1.6v-1.4h0c-0.7,1.4-1.9,1.7-2.9,1.7c-3.5,0-4.5-3.3-4.5-5.7c0-2.9,1.5-5.1,4.3-5.1
			c1.9,0,2.6,1.2,3.1,1.8l0-0.1v-5.1h1.7V1024.6z M84.9,1023.4c1.1,0,2.8-0.7,2.8-3.5c0-1.7-0.3-4.4-2.8-4.4c-2.7,0-2.8,2.5-2.8,3.8
			C82.2,1021.7,83,1023.4,84.9,1023.4"/>
		<path class="st0" d="M108.4,1021.4c0,0.5-0.5,1.9-1.8,2.8c-0.5,0.3-1.1,0.7-2.8,0.7c-2.9,0-4.6-2.2-4.6-5.1c0-3.2,1.5-5.7,4.9-5.7
			c3,0,4.4,2.4,4.4,6h-7.5c0,2.1,1,3.4,3,3.4c1.6,0,2.6-1.3,2.6-2H108.4z M106.8,1018.6c-0.1-1.6-0.8-3.1-2.9-3.1
			c-1.6,0-2.9,1.5-2.9,3.1H106.8z"/>
		<polygon class="st0" points="135.7,1010.5 135.7,1024.6 144.8,1024.6 144.8,1022.9 137.6,1022.9 137.6,1010.5 		"/>
		<path class="st0" d="M157,1017.5c0.1-2.5,1.7-3.4,4.2-3.4c0.8,0,3.8,0.2,3.8,2.9v5.9c0,0.4,0.2,0.6,0.6,0.6c0.2,0,0.4,0,0.6-0.1
			v1.3c-0.3,0.1-0.6,0.2-0.9,0.2c-1.5,0-1.8-0.8-1.8-1.6c-0.7,0.7-1.7,1.7-3.7,1.7c-1.9,0-3.2-1.2-3.2-3c0-0.9,0.3-2.9,3.1-3.2
			l2.9-0.4c0.4,0,0.9-0.2,0.9-1.2c0-1.1-0.8-1.7-2.4-1.7c-2,0-2.2,1.2-2.4,2H157z M163.4,1019.4c-0.3,0.2-0.7,0.4-2.9,0.7
			c-0.8,0.1-2.2,0.4-2.2,1.7c0,1.1,0.6,1.8,1.9,1.8c1.6,0,3.2-1,3.2-2.4V1019.4z"/>
		<polygon class="st0" points="200.1,1010.5 200.1,1024.6 203.1,1024.6 203.1,1018.7 209.3,1018.7 209.3,1016.2 203.1,1016.2
			203.1,1013 210.2,1013 210.2,1010.5 		"/>
		<path class="st0" d="M229.5,1024.9c-2.8,0-5.3-1.7-5.3-5.5s2.5-5.5,5.3-5.5c2.8,0,5.3,1.7,5.3,5.5S232.3,1024.9,229.5,1024.9
			 M229.5,1016.2c-2.1,0-2.5,1.8-2.5,3.2s0.4,3.2,2.5,3.2c2.1,0,2.5-1.8,2.5-3.2S231.7,1016.2,229.5,1016.2"/>
		<path class="st0" d="M259.7,1024.6h-2.6v-1.5h0c-0.6,1.1-1.7,1.7-3.2,1.7c-2.1,0-3.5-1.2-3.5-3.8v-6.9h2.7v6.5
			c0,1.6,0.9,1.9,1.8,1.9c0.9,0,2.1-0.5,2.1-2.4v-6h2.7V1024.6z"/>
		<path class="st0" d="M275.7,1014.1h2.6v1.8h0c0.6-1.1,1.2-2.1,2.9-2.1c0.2,0,0.4,0,0.5,0v2.8c-0.2,0-0.5,0-0.8,0
			c-2.1,0-2.5,1.3-2.5,2.5v5.4h-2.8V1014.1z"/>
		<path class="st0" d="M305.5,1020.8c-0.1,1.1-0.9,4.1-4.8,4.1c-3.9,0-4.8-3-4.8-5.2c0-3.4,1.5-5.8,5-5.8c1.7,0,4.4,0.7,4.6,4h-2.8
			c-0.1-0.7-0.5-1.7-1.7-1.7h-0.1c-1.7,0-2.2,1.7-2.2,3c0,1.1,0,3.4,2.1,3.4c1.4,0,1.9-1.3,1.9-1.8H305.5z"/>
		<path class="st0" d="M330.1,1024.6h-2.7v-6.3c0-0.8,0-2.1-1.8-2.1c-1.2,0-2.2,0.8-2.2,2.4v6h-2.8v-14.1h2.8v5h0
			c0.4-0.9,1.5-1.6,3-1.6c2,0,3.6,1.2,3.6,3.5V1024.6z"/>
		<path class="st0" d="M355.2,1021.5c-0.7,2.5-2.8,3.3-4.6,3.3c-3,0-5.2-1.4-5.2-5.7c0-1.3,0.4-5.3,5-5.3c2.1,0,4.9,1,4.9,5.8v0.5
			h-7.2c0.1,0.8,0.2,2.6,2.5,2.6c0.8,0,1.5-0.4,1.8-1.1H355.2z M352.4,1018.3c-0.2-1.7-1.2-2.2-2.1-2.2c-1.3,0-2,0.8-2.1,2.2H352.4z
			"/>
		<path class="st0" d="M373.7,1014.1h1.7v2h-1.7v5.7c0,0.6,0,0.9,1.1,0.9c0.2,0,0.4,0,0.6,0v2.1c-0.4,0-0.9,0-1.3,0h-0.4
			c-2.4,0-2.8-0.9-2.8-2.3v-6.4h-1.4v-2h1.4v-2.8h2.7V1014.1z"/>
		<path class="st0" d="M393.1,1014.1h1.7v2h-1.7v5.7c0,0.6,0,0.9,1.1,0.9c0.2,0,0.4,0,0.6,0v2.1c-0.4,0-0.9,0-1.3,0h-0.4
			c-2.4,0-2.8-0.9-2.8-2.3v-6.4h-1.4v-2h1.4v-2.8h2.7V1014.1z"/>
		<path class="st0" d="M418.7,1021.5c-0.7,2.5-2.8,3.3-4.6,3.3c-3,0-5.2-1.4-5.2-5.7c0-1.3,0.4-5.3,5-5.3c2.1,0,4.9,1,4.9,5.8v0.5
			h-7.2c0.1,0.8,0.2,2.6,2.5,2.6c0.8,0,1.5-0.4,1.8-1.1H418.7z M416,1018.3c-0.2-1.7-1.2-2.2-2.1-2.2c-1.3,0-2,0.8-2.1,2.2H416z"/>
		<path class="st0" d="M78.9,995.2L96,959.8h2l17.1,35.4h-9.4l-2.6-5.4H90.9l-2.6,5.4H78.9z M94.8,982.7h4.6l-2.3-4.8L94.8,982.7z"
			/>
		<path class="st0" d="M138.1,980.7v-21h8.7V981c0,4-1.5,7.4-4.4,10.2c-2.9,2.8-6.8,4.2-11.4,4.2c-4.7,0-8.6-1.4-11.5-4.2
			c-2.9-2.8-4.4-6.3-4.4-10.2v-21.3h8.7v21c0,1.6,0.7,3,2.1,4.2c1.4,1.2,3.1,1.8,5.1,1.8C134.5,986.8,138.1,984.2,138.1,980.7"/>
		<path class="st0" d="M183.8,959.5c5.5,0.2,9.8,2.6,12.8,5.5l0.6,0.5l-6.2,6.2l-0.6-0.5c-2.1-2-4.6-2.9-7.6-2.9
			c-3,0-5.5,0.9-7.6,2.7c-2.1,1.9-3.2,4-3.2,6.6c0,2.6,1,4.7,3.1,6.6c2.1,1.8,4.6,2.7,7.6,2.7c3,0,5.5-1,7.6-2.9l0.6-0.5l6.2,6.2
			l-0.5,0.5c-1.7,1.7-3.7,3-6.1,4c-2.4,1-5,1.4-7.8,1.4c-5.5,0-10.3-1.8-14.2-5.2c-3.7-3.5-5.5-7.8-5.5-12.7c0-4.9,1.8-9.2,5.5-12.7
			c3.9-3.5,8.7-5.3,14.2-5.3h1.1L183.8,959.5z"/>
		<path class="st0" d="M215.1,959.4c5.4,0,9.5,1.8,13.4,5.3c3.7,3.5,5.5,7.8,5.5,12.7c0,4.9-1.9,9.2-5.5,12.7
			c-3.9,3.5-7.9,5.2-13.4,5.2c-5.5,0-9.5-1.8-13.4-5.2c-3.7-3.5-5.5-7.8-5.5-12.7c0-4.9,1.8-9.2,5.5-12.7
			C205.7,961.2,209.7,959.4,215.1,959.4 M215.1,968.2c-3,0-4.8,0.9-6.8,2.7c-2.1,1.9-3.1,4-3.1,6.6c0,2.6,1,4.7,3.1,6.6
			c2.1,1.8,3.9,2.7,6.8,2.7c2.9,0,4.7-0.9,6.8-2.7c2.1-1.8,3.1-4,3.1-6.5c0-2.6-1-4.7-3.1-6.5C219.9,969.1,218.1,968.2,215.1,968.2"
			/>
		<polygon class="st0" points="238.9,959.6 256,982.2 273.2,959.6 275,959.6 275,995.2 266.3,995.2 266.3,982.1 256.1,995.2
			245.8,982.1 245.8,995.2 237.1,995.2 237.1,959.6 		"/>
		<path class="st0" d="M279.4,995.2v-35.5h14c4,0,7.5,1.3,10.1,3.7c2.6,2.5,3.9,5.6,3.9,9.1c0,3.5-1.3,6.6-3.9,9
			c-2.7,2.5-6.3,3.7-10.3,3.7H288v9.9H279.4z M293.3,968.3h-5v8.4l5,0c2.5,0,5-1.8,5-4.2C298.4,970.1,295.9,968.3,293.3,968.3"/>
		<polygon class="st0" points="309.1,959.7 336.8,959.7 336.8,968.3 327.8,968.3 328.1,995.2 318.3,995.2 318.2,968.3 309.1,968.3
					"/>
		<path class="st0" d="M354,959.4c5.4,0,9.5,1.8,13.4,5.3c3.7,3.5,5.5,7.8,5.5,12.7c0,4.9-1.9,9.2-5.5,12.7
			c-3.9,3.5-7.9,5.2-13.4,5.2c-5.5,0-9.5-1.8-13.4-5.2c-3.7-3.5-5.5-7.8-5.5-12.7c0-4.9,1.8-9.2,5.5-12.7
			C344.5,961.2,348.6,959.4,354,959.4 M354,968.2c-3,0-4.8,0.9-6.8,2.7c-2.1,1.9-3.1,4-3.1,6.6c0,2.6,1,4.7,3.1,6.6
			c2.1,1.8,3.9,2.7,6.8,2.7c2.9,0,4.7-0.9,6.8-2.7c2.1-1.8,3.1-4,3.1-6.5c0-2.6-1-4.7-3.1-6.5C358.7,969.1,356.9,968.2,354,968.2"/>
		<rect x="376" y="959.7" class="st0" width="8.7" height="35.5"/>
		<path class="st0" d="M389.1,995.2l0-35.5h13c2.1,0,4.2,0.3,6.2,0.9c1.7,0.6,3.3,1.5,4.6,2.8c2.2,2.1,3.7,4.3,3.7,8.2v0.9
			c0,2.4-0.8,4.8-2.4,6.9c-1.1,1.5-2.1,2.3-3.7,3.1l8.5,12.7h-10.5l-10.5-13.9v13.9H389.1z M407.4,972.4c0-1.1-0.4-2-1.4-2.9
			c-0.9-0.8-2.9-1.2-4.5-1.2h-3.8v8.2h3.2v0h1.9C405.2,976.6,407.4,974.8,407.4,972.4"/>
	</g>
</g>
</svg>
