<?xml version="1.0" encoding="utf-8"?>
<!-- Generator: Adobe Illustrator 22.0.0, SVG Export Plug-In . SVG Version: 6.00 Build 0)  -->
<svg version="1.1" id="Calque_1" xmlns="http://www.w3.org/2000/svg" xmlns:xlink="http://www.w3.org/1999/xlink" x="0px" y="0px"
	 viewBox="0 0 500 197.9" style="enable-background:new 0 0 500 197.9;" xml:space="preserve">
<g>
	<path style="fill:#ffffff" d="M187.6,178.6c-12.1,6.3-24.6,10.8-37.7,13.6c-13.1,2.8-26.5,4.2-40.1,4.2c-14.5,0-27.9-2.3-40.1-6.8
		c-12.2-4.5-22.8-11-31.7-19.5c-8.9-8.5-15.9-18.7-20.8-30.8c-5-12.1-7.5-25.5-7.5-40.4c0-14.8,2.5-28.3,7.5-40.4
		c5-12.1,11.9-22.3,20.8-30.8c8.9-8.5,19.5-15,31.7-19.5c12.2-4.5,25.6-6.8,40.1-6.8c14.8,0,28.5,1.8,41,5.4
		c12.5,3.6,23.5,9.7,32.9,18.5l-28.8,31.4C149.3,51,143,46.6,136,43.6c-7-3-15.7-4.5-26.2-4.5c-8.7,0-16.6,1.5-23.7,4.5
		c-7.1,3-13.1,7.1-18.2,12.4c-5.1,5.3-9,11.7-11.7,19c-2.7,7.3-4.1,15.3-4.1,23.8c0,8.7,1.4,16.7,4.1,24c2.7,7.3,6.6,13.5,11.7,18.9
		c5.1,5.3,11.1,9.5,18.2,12.4c7.1,3,15,4.5,23.7,4.5c8.9,0,16.6-1,23.1-3c6.5-2,11.6-4.1,15.5-6.2v-30.1H115V81.6h72.6V178.6z"/>
	<path style="fill:#ffffff" d="M225.1,6.2H266V154h75.7v37.7H225.1V6.2z"/>
	<path style="fill:#ffffff" d="M365.8,6.2h124.5v37.7h-83.6v37.7H484v37.7h-77.3v72.3h-40.9V6.2z"/>
</g>
</svg>
