<?xml version="1.0" encoding="utf-8"?>
<!-- Generator: Adobe Illustrator 22.0.0, SVG Export Plug-In . SVG Version: 6.00 Build 0)  -->
<svg version="1.1" id="Calque_1" xmlns="http://www.w3.org/2000/svg" xmlns:xlink="http://www.w3.org/1999/xlink" x="0px" y="0px"
	 viewBox="0 0 76.2 80.5" style="enable-background:new 0 0 76.2 80.5;" xml:space="preserve">
<style type="text/css">
	.st0{fill:url(#SVGID_1_);}
	.st1{fill:url(#SVGID_2_);}
	.st2{fill:url(#SVGID_3_);}
	.st3{fill:url(#SVGID_4_);}
	.st4{fill:url(#SVGID_5_);}
	.st5{fill:url(#SVGID_6_);}
</style>
<g>
	<linearGradient id="SVGID_1_" gradientUnits="userSpaceOnUse" x1="1.4323" y1="40.25" x2="74.7344" y2="40.25">
		<stop  offset="0" style="stop-color:#989494"/>
		<stop  offset="0.9988" style="stop-color:#989494"/>
	</linearGradient>
	<path class="st0" d="M43,1c0,0,0.1,0.1,0.1,0.1c3.7,1,5.4,3.2,5.4,7.1c0,1.5,0,3,0,4.6c0.4,0,0.7,0,1,0c4.3,0,8.7,0,13,0
		c4.2,0,7,2.8,7,7c0,15.3,0,30.6,0,45.8c0,0.3,0,0.5,0,0.9c0.9,0,1.6,0,2.4,0c1.8,0,2.8,1.1,2.8,2.8c0,1.6,0.1,3.2-0.1,4.8
		c-0.5,3.1-3.1,5.4-6.3,5.4c-8.8,0-17.6,0-26.4,0c-3.6,0-6.4-2.9-6.4-6.5c0-1.7,0-3.5,0-5.3c-0.3,0-0.6,0-0.9,0c-4.4,0-8.7,0-13.1,0
		c-4.2,0-6.9-2.7-7-7c0-2,0-4,0-6.1c-0.3,0-0.6,0-0.8,0c-3.4,0-6.8,0-10.3,0c-1.5,0-2.4-1.4-1.7-2.6c0.1-0.3,0.4-0.5,0.6-0.7
		c1.2-0.9,1.8-2.1,1.8-3.6c0-13.2,0-26.3,0-39.5c0-3.9,1.8-6.2,5.5-7.2c0,0,0.1-0.1,0.1-0.1C20.8,1,31.9,1,43,1z M36.8,15.4
		c0.9,1.3,1.3,2.7,1.3,4.1c0,7.4,0,14.8,0,22.2c0,10.4,0,20.8,0,31.1c0,2.2,1.7,4,3.9,4c2.2,0,3.9-1.7,3.9-4c0-1.1,0-2.2,0-3.4
		c0-2.2,1-3.1,3.1-3.1c5.6,0,11.3,0,16.9,0c0.3,0,0.5,0,0.9,0c0-0.5,0-1,0-1.4c0-15.1,0-30.1,0-45.2c0-2.8-1.6-4.4-4.4-4.4
		c-8.3,0-16.5,0-24.8,0C37.5,15.4,37.2,15.4,36.8,15.4z M15.8,3.6c1.4,1.8,1.4,3.8,1.3,5.8c0,16.5,0,33,0,49.5c0,0.9,0,1.8,0.1,2.8
		c0.2,2.3,2.5,3.9,4.8,3.3c1.9-0.5,3-2,3-4.3c0-13.6,0.1-27.3,0-40.9c0-4.2,3.2-7.1,7-7c4.3,0.1,8.7,0,13,0c0.3,0,0.5,0,0.9,0
		c0-1.7,0-3.3,0-5c0-2.6-1.6-4.2-4.2-4.2c-3.3,0-6.7,0-10,0C26.4,3.6,21.2,3.6,15.8,3.6z M26.3,65c3.1,0,6.1,0,9.1,0
		c0-0.3,0-0.5,0-0.7c0-11.3,0-22.5,0-33.8c0-3.7,0-7.5,0-11.2c0-2.8-2.6-4.6-5.2-3.8c-1.7,0.6-2.6,2-2.6,4.1c0,13.1,0,26.1,0,39.2
		C27.6,61,27.8,63.1,26.3,65z M14.5,52c0-0.3,0-0.6,0-0.9c0-10.2,0-20.4,0-30.6c0-4.2,0-8.5,0-12.7c0-1.3-0.4-2.4-1.4-3.2
		c-1.2-1-2.6-1.2-4-0.5C7.5,4.7,6.7,6.1,6.7,7.8c0,7,0,14.1,0,21.1c0,6.3,0,12.7,0,19c0,1.3-0.3,2.5-1,3.6c-0.1,0.1-0.1,0.3-0.2,0.4
		C8.5,52,11.5,52,14.5,52z M47.3,76.8c0.1,0.1,0.2,0.1,0.2,0.1c6.9,0,13.9,0,20.8,0c1.6,0,3.2-1.1,3.5-2.7c0.3-1.7,0.2-3.4,0.3-5
		c-8,0-15.8,0-23.6,0C48.4,71.8,49.1,74.5,47.3,76.8z"/>
	<linearGradient id="SVGID_2_" gradientUnits="userSpaceOnUse" x1="40.6849" y1="32.3928" x2="64.2125" y2="32.3928">
		<stop  offset="0" style="stop-color:#989494"/>
		<stop  offset="0.9988" style="stop-color:#989494"/>
	</linearGradient>
	<path class="st1" d="M62,28.5c0.5,0.6,1.1,1.2,1.5,1.9c1.1,1.4,0.8,3.3-0.9,4.1c-0.9,0.4-1.1,0.9-1,1.8c0.1,1,0,2.1,0,3.1
		c0,1.2-0.5,2.1-1.6,2.6c-2.1,1-4.1,2-6.2,3.1c-0.9,0.5-1.8,0.5-2.8,0c-2-1-4-2-6-3c-1.2-0.6-1.8-1.5-1.8-2.9c0-1.2,0-2.4,0-3.5
		c0-0.5-0.1-0.8-0.6-1c-0.5-0.2-1-0.5-1.4-0.9c-0.9-0.9-0.9-2.3,0-3.4c0.5-0.6,1-1.3,1.6-1.9c-0.5-0.6-1-1.2-1.5-1.8
		c-1.2-1.5-0.8-3.3,0.9-4.2c1.8-0.9,3.7-1.8,5.6-2.8c1.6-0.8,2.9-0.4,3.8,1.1c0.2,0.4,0.5,0.8,0.8,1.2c0.3-0.5,0.6-0.9,0.8-1.3
		c0.9-1.4,2.2-1.8,3.7-1.1c1.9,0.9,3.8,1.8,5.6,2.8c1.7,0.9,2.1,2.8,0.9,4.2C63,27.3,62.5,27.9,62,28.5z M59,36.4
		c-1.4,0.4-2.4,1.5-3.8,1.2c-1.5-0.2-2-1.6-2.8-2.7c-0.3,0.4-0.5,0.8-0.7,1.1c-1,1.6-2.3,2-4,1.2c-0.6-0.3-1.1-0.5-1.8-0.9
		c0,1.1,0,2,0,2.9c0,0.2,0.1,0.4,0.2,0.4c1.6,0.8,3.3,1.6,4.9,2.5c0.1-0.1,0.1-0.2,0.1-0.2c0-0.5,0-1,0-1.5c0-1,0.6-1.5,1.4-1.5
		c0.8,0,1.2,0.6,1.3,1.5c0,0.5,0,1.1,0,1.8c1.8-0.9,3.4-1.7,4.9-2.5c0.1-0.1,0.3-0.3,0.3-0.5C59,38.3,59,37.4,59,36.4z M47.6,28.5
		c1.6,0.8,3.1,1.5,4.5,2.3c0.2,0.1,0.5,0.1,0.6,0.1c1.5-0.7,3-1.5,4.7-2.3c-1.7-0.8-3.2-1.6-4.7-2.3c-0.1-0.1-0.3-0.1-0.4,0
		C50.7,26.9,49.2,27.6,47.6,28.5z M43.4,24.8c0.4,0.5,0.9,1,1.2,1.5c0.3,0.4,0.5,0.5,0.9,0.2c1-0.5,2-1,3-1.5c0.7-0.3,1.3-0.7,2.1-1
		c-0.5-0.8-0.9-1.4-1.3-2.1C47.3,22.9,45.4,23.8,43.4,24.8z M50.6,32.9c-1.9-1-3.8-1.9-5.6-2.8c-0.6,0.7-1.1,1.3-1.6,1.9
		c2,1,3.9,2,5.8,3C49.6,34.3,50.1,33.6,50.6,32.9z M61.5,32.1c-0.6-0.7-1.1-1.3-1.6-2c-1.9,0.9-3.7,1.9-5.6,2.8
		c0.5,0.7,0.9,1.4,1.3,2.1C57.6,34,59.5,33.1,61.5,32.1z M54.4,24c1.9,1,3.7,1.9,5.6,2.8c0.5-0.6,1.1-1.2,1.6-1.9c-2-1-3.9-2-5.8-3
		C55.3,22.6,54.8,23.3,54.4,24z"/>
	<linearGradient id="SVGID_3_" gradientUnits="userSpaceOnUse" x1="43.3162" y1="50.7268" x2="61.6301" y2="50.7268">
		<stop  offset="0" style="stop-color:#989494"/>
		<stop  offset="0.9988" style="stop-color:#989494"/>
	</linearGradient>
	<path class="st2" d="M52.5,49.4c2.5,0,5,0,7.5,0c1,0,1.6,0.5,1.6,1.3c0,0.8-0.6,1.3-1.6,1.3c-5,0-10.1,0-15.1,0
		c-1,0-1.6-0.5-1.6-1.4c0-0.8,0.6-1.3,1.6-1.3C47.4,49.4,50,49.4,52.5,49.4z"/>
	<linearGradient id="SVGID_4_" gradientUnits="userSpaceOnUse" x1="43.3156" y1="61.1802" x2="61.6326" y2="61.1802">
		<stop  offset="0" style="stop-color:#989494"/>
		<stop  offset="0.9988" style="stop-color:#989494"/>
	</linearGradient>
	<path class="st3" d="M52.4,62.5c-2.5,0-5,0-7.5,0c-1,0-1.6-0.5-1.6-1.3c0-0.8,0.6-1.3,1.6-1.3c5.1,0,10.1,0,15.2,0
		c1,0,1.6,0.5,1.6,1.3c0,0.8-0.6,1.3-1.6,1.3C57.5,62.5,55,62.5,52.4,62.5C52.4,62.5,52.4,62.5,52.4,62.5z"/>
	<linearGradient id="SVGID_5_" gradientUnits="userSpaceOnUse" x1="43.3164" y1="55.954" x2="53.7633" y2="55.954">
		<stop  offset="0" style="stop-color:#989494"/>
		<stop  offset="0.9988" style="stop-color:#989494"/>
	</linearGradient>
	<path class="st4" d="M48.6,54.6c1.2,0,2.4,0,3.7,0c1,0,1.5,0.5,1.5,1.3c0,0.8-0.6,1.3-1.5,1.3c-2.5,0-4.9,0-7.4,0
		c-0.9,0-1.6-0.6-1.5-1.3c0-0.8,0.6-1.3,1.5-1.3C46.1,54.6,47.3,54.6,48.6,54.6C48.6,54.6,48.6,54.6,48.6,54.6z"/>
	<linearGradient id="SVGID_6_" gradientUnits="userSpaceOnUse" x1="56.4165" y1="55.953" x2="61.6293" y2="55.953">
		<stop  offset="0" style="stop-color:#989494"/>
		<stop  offset="0.9988" style="stop-color:#989494"/>
	</linearGradient>
	<path class="st5" d="M59,57.3c-0.4,0-0.8,0-1.2,0c-0.8,0-1.3-0.6-1.3-1.3c0-0.7,0.5-1.3,1.3-1.3c0.9,0,1.7,0,2.6,0
		c0.7,0,1.3,0.6,1.3,1.3c0,0.7-0.5,1.2-1.2,1.3c-0.1,0-0.1,0-0.2,0C59.8,57.3,59.4,57.3,59,57.3z"/>
</g>
</svg>
