<?xml version="1.0" encoding="utf-8"?>
<!-- Generator: Adobe Illustrator 22.0.0, SVG Export Plug-In . SVG Version: 6.00 Build 0)  -->
<svg version="1.1" id="Calque_1" xmlns="http://www.w3.org/2000/svg" xmlns:xlink="http://www.w3.org/1999/xlink" x="0px" y="0px"
	 viewBox="0 0 76.2 100" style="enable-background:new 0 0 76.2 100;" xml:space="preserve">
<style type="text/css">
	.st0{fill:#989494;}
	.st1{fill:#989494;}
	.st2{fill:#989494;}
	.st3{fill:#989494;}
	.st4{fill:#989494;}
	.st5{fill:#989494;}
	.st6{fill:#989494;}
	.st7{fill:#989494;}
	.st8{fill:#989494;}
	.st9{fill:#989494;}
	.st10{fill:#989494;}
	.st11{fill:#989494;}
</style>
<g>
	<linearGradient id="SVGID_1_" gradientUnits="userSpaceOnUse" x1="0.9542" y1="55.9181" x2="75.2125" y2="55.9181">
		<stop  offset="0" style="stop-color:#989494"/>
		<stop  offset="0.9988" style="stop-color:#989494"/>
	</linearGradient>
	<path class="st0" d="M5.2,99c-3.1-1.3-4.3-3.6-4.3-7c0.1-24,0-48,0-72c0-5.2,1.8-7,7.1-7c2.5,0,5.1-0.1,7.6,0.1
		c0.7,0.1,1.4,1,2.1,1.5c-0.7,0.4-1.4,1.2-2.1,1.3c-2.7,0.2-5.5,0-8.3,0.1c-2.6,0-3.5,0.9-3.5,3.4c0,24.4,0,48.9,0,73.3
		c0,2.5,0.9,3.3,3.4,3.3c20.5,0,40.9,0,61.4,0c2.6,0,3.4-0.8,3.4-3.3c0-24.4,0-48.9,0-73.3c0-2.5-0.9-3.3-3.5-3.4
		c-2.8,0-5.5,0.1-8.3-0.1c-0.7,0-1.4-0.8-2.1-1.3C59,14,59.7,13,60.4,13c3-0.2,6.1-0.1,9.1-0.1c3.3,0.1,5.4,2.2,5.6,5.5
		c0,0.6,0,1.2,0,1.7c0,23.9,0,47.7,0,71.6c0,3.4-1,5.9-4.3,7.2C49,99,27.1,99,5.2,99z"/>
	<linearGradient id="SVGID_2_" gradientUnits="userSpaceOnUse" x1="33.6362" y1="5.4892" x2="42.5366" y2="5.4892">
		<stop  offset="0" style="stop-color:#989494"/>
		<stop  offset="0.9988" style="stop-color:#989494"/>
	</linearGradient>
	<path class="st1" d="M39.2,1c2.1,1,3.6,2.5,3.3,5c-0.2,2.2-1.9,3.7-4,3.9c-2.2,0.2-4-1-4.6-3.1c-0.7-2,0.1-4,2-5.2
		C36.2,1.4,36.6,1.2,37,1C37.7,1,38.4,1,39.2,1z M40.1,5.7c-0.9-0.7-1.4-1.6-1.8-1.5c-0.6,0.1-1.1,0.8-1.6,1.2
		c0.4,0.5,0.8,1.4,1.3,1.4C38.5,6.9,39.1,6.3,40.1,5.7z"/>
	<linearGradient id="SVGID_3_" gradientUnits="userSpaceOnUse" x1="10.8594" y1="55.8626" x2="65.3614" y2="55.8626">
		<stop  offset="0" style="stop-color:#989494"/>
		<stop  offset="0.9988" style="stop-color:#989494"/>
	</linearGradient>
	<path class="st2" d="M14.1,25.8c0,20.1,0,40,0,60.1c16,0,32,0,48,0c0-20,0-39.9,0-60c-0.8,0-1.6,0.1-2.3-0.2
		c-0.6-0.3-1.2-1-1.4-1.6c-0.1-0.4,0.8-1.2,1.4-1.3c1.3-0.2,2.6-0.2,3.9,0c0.6,0.1,1.2,0.9,1.5,1.5c0.2,0.4,0.1,1,0.1,1.5
		c0,20,0,40,0,60.1c0,3-0.1,3.1-3,3.1c-16.2,0-32.4,0-48.5,0c-2.7,0-2.9-0.2-2.9-2.8c0-20.2,0-40.3,0-60.5c0-2.7,0.2-2.9,2.8-2.9
		c0.7,0,1.5-0.2,2.2,0.1c0.7,0.3,1.3,1,2,1.5c-0.6,0.5-1.2,1.1-1.8,1.5C15.5,26,14.9,25.8,14.1,25.8z"/>
	<linearGradient id="SVGID_4_" gradientUnits="userSpaceOnUse" x1="22.7204" y1="16.4394" x2="53.4449" y2="16.4394">
		<stop  offset="0" style="stop-color:#989494"/>
		<stop  offset="0.9988" style="stop-color:#989494"/>
	</linearGradient>
	<path class="st3" d="M25.8,9.9c0,4.5,0,8.5,0,12.7c8.2,0,16.2,0,24.5,0c0-4.1,0-8.3,0-12.7c-1.4,0-2.7,0.2-4-0.1
		c-0.7-0.1-1.2-0.9-1.8-1.4c0.6-0.5,1.2-1.3,1.9-1.3c1.7-0.2,3.5,0,5.2-0.1c1.3,0,1.9,0.7,1.9,1.9c0,5,0,10,0,15
		c0,1.3-0.7,1.9-2.1,1.9c-8.8,0-17.7,0-26.5,0c-1.5,0-2.1-0.7-2.1-2.1c0-4.9,0-9.7,0-14.6c0-1.4,0.6-2.2,2.1-2.1
		c1.7,0.1,3.5-0.1,5.2,0.1c0.6,0.1,1.1,0.9,1.7,1.3c-0.5,0.5-1,1.3-1.6,1.4C28.7,10.1,27.4,9.9,25.8,9.9z"/>
	<linearGradient id="SVGID_5_" gradientUnits="userSpaceOnUse" x1="34.6865" y1="49.994" x2="57.3659" y2="49.994">
		<stop  offset="0" style="stop-color:#989494"/>
		<stop  offset="0.9988" style="stop-color:#989494"/>
	</linearGradient>
	<path class="st4" d="M46.1,48.5c3,0,6.1-0.1,9.1,0.1c0.7,0,1.4,1,2.1,1.5c-0.7,0.5-1.4,1.4-2.1,1.4c-6.2,0.1-12.4,0.1-18.6,0
		c-0.7,0-1.3-0.9-2-1.4c0.6-0.5,1.3-1.4,1.9-1.5C39.8,48.4,43,48.5,46.1,48.5z"/>
	<linearGradient id="SVGID_6_" gradientUnits="userSpaceOnUse" x1="34.7191" y1="38.1775" x2="57.3756" y2="38.1775">
		<stop  offset="0" style="stop-color:#989494"/>
		<stop  offset="0.9988" style="stop-color:#989494"/>
	</linearGradient>
	<path class="st5" d="M46,39.7c-3,0-5.9,0-8.9,0c-1.1,0-2.3,0-2.3-1.6c0-1.5,1.2-1.4,2.2-1.4c6.1,0,12.2,0,18.3,0.1
		c0.7,0,1.5,0.9,2.2,1.4c-0.8,0.5-1.5,1.3-2.3,1.4C52.1,39.7,49,39.7,46,39.7z"/>
	<linearGradient id="SVGID_7_" gradientUnits="userSpaceOnUse" x1="34.7552" y1="61.841" x2="57.3711" y2="61.841">
		<stop  offset="0" style="stop-color:#989494"/>
		<stop  offset="0.9988" style="stop-color:#989494"/>
	</linearGradient>
	<path class="st6" d="M45.9,63.3c-3,0-6.1,0.1-9.1-0.1c-0.7,0-1.8-0.8-2-1.3c-0.3-1.4,0.9-1.6,2-1.6c6.2,0,12.3,0,18.5,0.1
		c0.7,0,1.4,0.9,2.1,1.3c-0.7,0.5-1.4,1.4-2.1,1.5C52.1,63.4,49,63.3,45.9,63.3z"/>
	<linearGradient id="SVGID_8_" gradientUnits="userSpaceOnUse" x1="34.7615" y1="73.7281" x2="57.287" y2="73.7281">
		<stop  offset="0" style="stop-color:#989494"/>
		<stop  offset="0.9988" style="stop-color:#989494"/>
	</linearGradient>
	<path class="st7" d="M46.1,75.1c-3.1,0-6.2,0-9.3,0c-1.1,0-2.3-0.1-2-1.5c0.1-0.6,1.3-1.3,2-1.3c6.1-0.1,12.3-0.1,18.4-0.1
		c1.1,0,2.3,0.2,2.1,1.5c-0.1,0.5-1.3,1.3-2,1.3C52.2,75.2,49.2,75.1,46.1,75.1z"/>
	<linearGradient id="SVGID_9_" gradientUnits="userSpaceOnUse" x1="21.0596" y1="72.8911" x2="29.6822" y2="72.8911">
		<stop  offset="0" style="stop-color:#989494"/>
		<stop  offset="0.9988" style="stop-color:#989494"/>
	</linearGradient>
	<path class="st8" d="M24.3,73.1c1-1.3,1.8-2.6,2.9-3.7c0.5-0.5,1.5-0.6,2.3-0.8c0,0.8,0.4,1.8,0,2.4c-1.1,1.8-2.5,3.4-3.7,5.1
		c-1.1,1.5-2.2,1.4-3.2-0.1c-0.5-0.7-1.1-1.2-1.4-1.9c-0.3-0.8-0.1-1.6-0.2-2.5c0.8,0.2,1.6,0.3,2.4,0.6
		C23.8,72.3,24,72.7,24.3,73.1z"/>
	<linearGradient id="SVGID_10_" gradientUnits="userSpaceOnUse" x1="21.0483" y1="61.0278" x2="29.7729" y2="61.0278">
		<stop  offset="0" style="stop-color:#989494"/>
		<stop  offset="0.9988" style="stop-color:#989494"/>
	</linearGradient>
	<path class="st9" d="M24.3,61.2c1.1-1.4,2-2.8,3.1-3.9c0.5-0.5,1.4-0.4,2.2-0.6c0.1,0.8,0.4,1.7,0.1,2.3c-1.2,1.9-2.6,3.7-4,5.4
		c-0.9,1.2-1.9,1.1-2.9-0.1c-0.6-0.7-1.3-1.4-1.6-2.3c-0.3-0.7,0-1.6,0-2.4c0.7,0.2,1.5,0.3,2.2,0.6C23.7,60.4,23.9,60.8,24.3,61.2z
		"/>
	<linearGradient id="SVGID_11_" gradientUnits="userSpaceOnUse" x1="20.5681" y1="49.0207" x2="29.7242" y2="49.0207">
		<stop  offset="0" style="stop-color:#989494"/>
		<stop  offset="0.9988" style="stop-color:#989494"/>
	</linearGradient>
	<path class="st10" d="M24.3,49.4c1-1.3,1.9-2.7,3-3.8c0.5-0.5,1.4-0.5,2.2-0.8c0.1,0.8,0.5,1.9,0.2,2.4c-1.2,1.9-2.5,3.7-4,5.4
		c-0.4,0.5-1.8,0.8-2,0.5c-1.1-1.2-2.1-2.5-3-3.9c-0.2-0.2,0.3-1.2,0.7-1.4c0.4-0.2,1.1-0.2,1.6,0C23.4,48.2,23.8,48.8,24.3,49.4z"
		/>
	<linearGradient id="SVGID_12_" gradientUnits="userSpaceOnUse" x1="21.0394" y1="37.2812" x2="29.7932" y2="37.2812">
		<stop  offset="0" style="stop-color:#989494"/>
		<stop  offset="0.9988" style="stop-color:#989494"/>
	</linearGradient>
	<path class="st11" d="M24.3,37.6c1.1-1.4,1.9-2.8,3-3.9c0.5-0.5,1.5-0.5,2.2-0.7c0.1,0.8,0.5,1.8,0.1,2.3c-1.2,2-2.7,3.8-4.1,5.6
		c-0.8,1-1.7,1-2.6,0c-0.7-0.8-1.4-1.5-1.8-2.4c-0.3-0.7-0.1-1.6-0.1-2.4c0.8,0.2,1.6,0.4,2.4,0.7C23.8,36.8,23.9,37.1,24.3,37.6z"
		/>
</g>
</svg>
