<?xml version="1.0" encoding="utf-8"?>
<!-- Generator: Adobe Illustrator 22.0.0, SVG Export Plug-In . SVG Version: 6.00 Build 0)  -->
<svg version="1.1" id="Calque_1" xmlns="http://www.w3.org/2000/svg" xmlns:xlink="http://www.w3.org/1999/xlink" x="0px" y="0px"
	 viewBox="0 0 323 238" style="enable-background:new 0 0 323 238;" xml:space="preserve">
<style type="text/css">
	.st0{opacity:0.8;fill:#E6E7E7;enable-background:new    ;}
	.st1{fill:#FFFFFF;stroke:#263238;stroke-linecap:round;stroke-linejoin:round;stroke-miterlimit:10;}
	.st2{fill:#263238;}
	.st3{fill:#2C3B40;}
	.st4{fill:#FFFFFF;}
	.st5{fill:#492A4F;}
	.st6{fill:#324045;}
	.st7{fill:#989494;}
	.st8{fill:#989494;}
	.st9{fill:#989494;}
	.st10{fill:#989494;}
	.st11{fill:#989494;stroke:#273339;stroke-miterlimit:10;}
	.st12{fill:#989494;stroke:#273339;stroke-miterlimit:10;}
	.st13{fill:#989494;}
	.st14{opacity:0.3;fill:#492A4F;enable-background:new    ;}
	.st15{fill:#41516F;}
	.st16{fill:#989494;}
	.st17{fill:#989494;}
	.st18{fill:#989494;}
	.st19{fill:#989494;}
	.st20{fill:#989494;}
	.st21{fill:#989494;}
	.st22{fill:#989494;}
	.st23{fill:#989494;}
	.st24{fill:#989494;}
	.st25{fill:#989494;}
	.st26{fill:#989494;}
	.st27{fill:#989494;}
	.st28{fill:#989494;}
	.st29{fill:#989494;}
</style>
<g>
	<g>
		<ellipse class="st0" cx="133.8" cy="225.6" rx="127.9" ry="4.3"/>
		<g>
			<g>
				<g>
					<g>
						<path class="st1" d="M73.9,88.8h-8.1c-1.5,0-2.7,1.2-2.7,2.7v5.1c0,1.5,1.2,2.7,2.7,2.7h6.6v-2l0,0c2,0,3.9-0.8,5.3-2.2l1-1
							L73.9,88.8z"/>
						<polygon class="st1" points="73.9,88.8 78.6,94.1 98.8,89.4 96,81.9 						"/>
						<polygon class="st1" points="96,81.9 95,82.2 94.7,90.4 98.8,89.4 						"/>
						<path class="st2" d="M134.8,52.9L134.8,52.9c-2.7-2.1-6.5-1.7-8.7,0.9l-21,24.4l-3.8,1.3l3.5,9.4l2-0.4c3.2-0.7,6-2.3,8.3-4.6
							l20.4-21.6C138.1,59.6,137.8,55.2,134.8,52.9z"/>
						<path class="st3" d="M104.9,89.2l-0.1-0.3l-3.5-9.4l-0.3-0.9c-0.2-0.5-0.8-0.8-1.3-0.6l-3.5,1.3c-0.5,0.2-0.8,0.8-0.6,1.3
							l0.3,0.8l3.3,8.8l0.4,1.1c0.2,0.5,0.8,0.8,1.3,0.6l3.5-1.3C104.8,90.3,105.1,89.7,104.9,89.2z"/>
						<path class="st3" d="M127.4,54.8c2-2.3,5.2-2.9,7.9-1.5c-0.1-0.1-0.3-0.3-0.5-0.4l0,0c-2.7-2.1-6.5-1.7-8.7,0.9l-21,24.4
							l-3.8,1.3l0.6,1.5l4.3-1.4L127.4,54.8z"/>
					</g>
					<g>
						<path class="st2" d="M127.5,103.6l-43.8,11.7c-7.6,2-11.1,10.7-7.1,17.4l25.5,42.6l14.2-6.3l-20.4-38.9l41.6-8.7
							c8.1-1.7,12.8-10.1,10.1-17.8l0,0L127.5,103.6L127.5,103.6z"/>
						<g>
							<path class="st1" d="M114.6,171.9l-1.1-1.6l-8.1,3.6l1.9,3.5l9-2.5C115.8,173.9,115.2,172.9,114.6,171.9z"/>
							<path class="st4" d="M112.3,178.9l-0.8,1.9l1-0.7c0.4-0.3,0.9-0.4,1.4-0.4h4.7c-0.7-1.7-1.5-3.3-2.3-4.8l-9,2.5l0.5,1h4.1
								C112.2,178.4,112.4,178.7,112.3,178.9z"/>
							<path class="st5" d="M102,187.2h19.1l-0.3-1.3c-0.5-2.1-1.2-4.1-2.1-6.1H114c-0.5,0-1,0.2-1.4,0.4l-1,0.7l0.8-1.9
								c0.1-0.3-0.1-0.6-0.4-0.6h-4.1l-3,2.9c-1.4,1.3-3.2,2-5.1,2h-2.1c-2,0-3.8,1.1-4.7,2.8l3.9,0.7
								C98.6,187,100.3,187.2,102,187.2z"/>
							<path class="st4" d="M102,187.2c-1.7,0-3.4-0.1-5.1-0.4l-3.9-0.7c-0.4,0.7-0.6,1.5-0.7,2.4l6,0.5c1,0.1,1.9,0.1,2.9,0.1h20.4
								l-0.5-1.9L102,187.2L102,187.2z"/>
							<polygon class="st2" points="113.5,170.3 105.4,173.9 106.3,175.5 115.1,172.8 							"/>
						</g>
					</g>
				</g>
				<g>
					<g>
						<path class="st6" d="M59.9,99.7h-2.1l-5.3,18.8c-4.2,14.7-2.5,30.5,4.7,44l2.6,1L59.9,99.7z"/>
						<path class="st2" d="M52.5,118.6l5.3-18.8h-1.9L45,140.4c-1,3.7-4.3,6.2-8.1,6.2c-0.3,0-0.5,0.2-0.5,0.5v7.7l20.8,7.8
							C50,149.1,48.4,133.3,52.5,118.6z"/>
					</g>
					<g>
						<circle class="st5" cx="35" cy="195.5" r="29.1"/>
						<circle class="st7" cx="35" cy="195.5" r="20.9"/>
						<circle class="st8" cx="35" cy="195.5" r="17.1"/>
						<path class="st9" d="M35,178.4c-3.2,0-6.2,0.9-8.8,2.5c1.2-0.3,2.4-0.5,3.7-0.5c8.3,0,15.1,6.8,15.1,15.1s-6.8,15.1-15.1,15.1
							c-1.3,0-2.5-0.2-3.7-0.5c2.6,1.6,5.6,2.5,8.8,2.5c9.4,0,17.1-7.7,17.1-17.1C52.1,186,44.4,178.4,35,178.4z"/>
						<circle class="st9" cx="35" cy="195.5" r="7.5"/>
						<ellipse class="st2" cx="35" cy="195.5" rx="5.1" ry="5.1"/>
					</g>
					<g>
						<circle class="st5" cx="184.4" cy="195.5" r="29.1"/>
						<circle class="st7" cx="184.4" cy="195.5" r="20.9"/>
						<circle class="st8" cx="184.4" cy="195.5" r="17.1"/>
						<path class="st9" d="M184.4,178.4c-3.2,0-6.2,0.9-8.8,2.5c1.2-0.3,2.4-0.5,3.7-0.5c8.3,0,15.1,6.8,15.1,15.1
							s-6.8,15.1-15.1,15.1c-1.3,0-2.5-0.2-3.7-0.5c2.6,1.6,5.6,2.5,8.8,2.5c9.4,0,17.1-7.7,17.1-17.1
							C201.5,186,193.8,178.4,184.4,178.4z"/>
						<circle class="st9" cx="184.4" cy="195.5" r="7.5"/>
						<ellipse class="st2" cx="184.4" cy="195.5" rx="5.1" ry="5.1"/>
					</g>
					<g>
						<g>
							<path class="st4" d="M36.4,156.9c15,0.5,27.8,11,31.8,25.4l0.6,2.3l0.7,0.3l-1.4-4.9c-4-14.5-16.8-24.9-31.8-25.4
								c-0.4,0-0.8,0-1.2,0c-6.4,0-12.6,1.7-18.1,4.8l1,1.7c5.2-2.8,11-4.3,17.1-4.3C35.6,156.9,36,156.9,36.4,156.9z"/>
							<path class="st6" d="M39.1,170.1l29.7,14.6l-0.6-2.3c-4-14.5-16.8-24.9-31.8-25.4c-0.4,0-0.8,0-1.2,0
								c-6.1,0-11.9,1.5-17.1,4.3l5.3,8.9h15.7V170.1z"/>
						</g>
						<path class="st2" d="M70.9,187.2H57c-6.2,0-12.2-2.5-16.6-6.9l0,0c-4.4-4.4-10.4-6.9-16.6-6.9H7.3l5.2-5.2
							c6-6,14.2-9.4,22.7-9.4l0,0c11,0,21.2,5.6,27.1,14.8L70.9,187.2z"/>
					</g>
					<path class="st2" d="M59.9,99.7l-5.3,18.8c-4.3,15.1-2.4,31.3,5.2,45l2.7,4.8c7.5,13.6,21.8,22,37.3,22h131l-4.7-17
						c-4.6-16.8-15.4-31.2-30.3-40.4l-8.5-5.3h-72.8v3.2c0,2.1,1.3,4,3.4,4.7l0,0c7.8,2.6,13.4,9.5,14.4,17.7l0,0
						c1.6,12.7-8.4,24-21.2,24h-10.7c-10.2,0-19.7-5.2-25.2-13.9l-4.9-7.8c-5.4-8.6-7.3-19-5.2-28.9l5.7-26.9
						C70.8,99.7,59.9,99.7,59.9,99.7z"/>
					<path class="st5" d="M187.4,127.7h-78.8v-9.4h62.8c4.4,0,8.6,1.8,11.6,4.9L187.4,127.7z"/>
					<g>
						<path class="st6" d="M141.6,191.7h-35.4c-16,0-30.7-8.7-38.5-22.7l-2.7-4.8c-7.8-14.1-9.7-30.4-5.3-46c1.4-5,0.8-10.5-1.8-15
							c-0.4-0.6-0.1-1.4,0.5-1.8s1.4-0.1,1.8,0.5c2.9,5.1,3.6,11.3,2,17c-4.2,14.9-2.4,30.5,5.1,44l2.7,4.8
							c7.3,13.2,21.2,21.3,36.2,21.3h35.4c0.7,0,1.3,0.6,1.3,1.3C142.9,191.1,142.3,191.7,141.6,191.7z"/>
					</g>
					<path class="st6" d="M142.9,185.3h81l-1.2,1.2c-2,2-4.7,3.1-7.5,3.1h-63.8C148,189.6,144.9,188,142.9,185.3L142.9,185.3z"/>
					<g>
						<circle class="st9" cx="178.3" cy="181.1" r="17.5"/>
						<g>
							<path class="st7" d="M178.3,194.6c-7.4,0-13.5-6-13.5-13.5s6-13.5,13.5-13.5c7.4,0,13.5,6,13.5,13.5S185.7,194.6,178.3,194.6
								z M178.3,169c-6.6,0-12,5.4-12,12s5.4,12,12,12s12-5.4,12-12S184.9,169,178.3,169z"/>
						</g>
						<g>
							<g>
								<path class="st7" d="M187,181.8h-17.5c-0.4,0-0.7-0.3-0.7-0.7s0.3-0.7,0.7-0.7H187c0.4,0,0.7,0.3,0.7,0.7
									S187.4,181.8,187,181.8z"/>
							</g>
							<g>
								<path class="st7" d="M185.5,178.9H171c-0.4,0-0.7-0.3-0.7-0.7s0.3-0.7,0.7-0.7h14.5c0.4,0,0.7,0.3,0.7,0.7
									C186.2,178.6,185.9,178.9,185.5,178.9z"/>
							</g>
							<g>
								<path class="st7" d="M183.5,176.1h-10.4c-0.4,0-0.7-0.3-0.7-0.7s0.3-0.7,0.7-0.7h10.4c0.4,0,0.7,0.3,0.7,0.7
									C184.2,175.7,183.9,176.1,183.5,176.1z"/>
							</g>
							<g>
								<path class="st7" d="M181.1,173.2h-5.6c-0.4,0-0.7-0.3-0.7-0.7s0.3-0.7,0.7-0.7h5.6c0.4,0,0.7,0.3,0.7,0.7
									C181.8,172.9,181.5,173.2,181.1,173.2z"/>
							</g>
							<g>
								<path class="st7" d="M185.5,184.7H171c-0.4,0-0.7-0.3-0.7-0.7s0.3-0.7,0.7-0.7h14.5c0.4,0,0.7,0.3,0.7,0.7
									C186.2,184.3,185.9,184.7,185.5,184.7z"/>
							</g>
							<g>
								<path class="st7" d="M183.5,187.5h-10.4c-0.4,0-0.7-0.3-0.7-0.7s0.3-0.7,0.7-0.7h10.4c0.4,0,0.7,0.3,0.7,0.7
									S183.9,187.5,183.5,187.5z"/>
							</g>
							<g>
								<path class="st7" d="M181.1,190.4h-5.6c-0.4,0-0.7-0.3-0.7-0.7s0.3-0.7,0.7-0.7h5.6c0.4,0,0.7,0.3,0.7,0.7
									C181.8,190.1,181.5,190.4,181.1,190.4z"/>
							</g>
						</g>
					</g>
					<g>
						<path class="st6" d="M197.2,143.1L197.2,143.1c-8.3-5.1-17.9-7.7-27.7-7.7h-3.3c-16.6,0-30.7,13.6-30.7,30.2
							c0,7.5,2.8,14.4,7.3,19.7h22.9h22.9h35.3l-3.1-11.1C217.2,161.2,208.7,150.1,197.2,143.1z"/>
						<path class="st2" d="M192.5,154.4L192.5,154.4c-6.1-3.7-13.1-5.7-20.3-5.7h-2.4c-12.2,0-22.5,10-22.5,22.1
							c0,5.5,2,10.6,5.4,14.4h16.8h16.7h25.9l-2.3-8.1C207.1,167.7,201,159.5,192.5,154.4z"/>
					</g>
					<g>
						<g>
							<path class="st6" d="M192.9,180.8h-27.3c-0.4,0-0.8-0.3-0.8-0.8c0-0.4,0.3-0.8,0.8-0.8h27.3c0.4,0,0.8,0.3,0.8,0.8
								C193.7,180.5,193.3,180.8,192.9,180.8z"/>
						</g>
						<g>
							<path class="st6" d="M192,177.8h-27.3c-0.4,0-0.8-0.3-0.8-0.8c0-0.4,0.3-0.8,0.8-0.8H192c0.4,0,0.8,0.3,0.8,0.8
								C192.8,177.4,192.5,177.8,192,177.8z"/>
						</g>
						<g>
							<path class="st6" d="M191.2,174.7h-27.3c-0.4,0-0.8-0.3-0.8-0.8c0-0.4,0.3-0.8,0.8-0.8h27.3c0.4,0,0.8,0.3,0.8,0.8
								C192,174.3,191.6,174.7,191.2,174.7z"/>
						</g>
						<g>
							<path class="st6" d="M190.4,171.6h-27.3c-0.4,0-0.8-0.3-0.8-0.8s0.3-0.8,0.8-0.8h27.3c0.4,0,0.8,0.3,0.8,0.8
								S190.8,171.6,190.4,171.6z"/>
						</g>
						<g>
							<path class="st6" d="M189.5,168.5h-27.3c-0.4,0-0.8-0.3-0.8-0.8c0-0.4,0.3-0.8,0.8-0.8h27.3c0.4,0,0.8,0.3,0.8,0.8
								S190,168.5,189.5,168.5z"/>
						</g>
					</g>
					<path class="st6" d="M114.5,127.7h72.9l0,0c-1.6,1.6-3.8,2.5-6.1,2.5h-60.1C118.8,130.2,116.4,129.3,114.5,127.7L114.5,127.7z"
						/>
					<path class="st2" d="M70.8,99.7H55.9H49V85.8h4.7c4,0,8,0.9,11.7,2.6l3.5,1.6c2.2,1,3.4,3.5,2.8,5.9L70.8,99.7z"/>
					<g>
						<rect x="46.8" y="85.8" class="st10" width="2.3" height="13.9"/>
						<rect x="45.6" y="85.8" class="st4" width="1.2" height="13.9"/>
					</g>
					<g>
						<g>
							<path class="st8" d="M221.7,125.7c0.3-0.3,0.3-0.8,0-1.1s-0.8-0.3-1.1,0l-6.5,6.5h2.2L221.7,125.7z"/>
							<path class="st4" d="M214.1,131.1l-10.5,10.5c-0.3,0.3-0.3,0.8,0,1.1c0.2,0.2,0.3,0.2,0.5,0.2s0.4-0.1,0.5-0.2l11.6-11.6
								H214.1z"/>
						</g>
						<g>
							<path class="st4" d="M182.4,134h-43.7c-0.7,0-1.3-0.6-1.3-1.3s0.6-1.3,1.3-1.3h43.7c3.1,0,6.1-1.2,8.3-3.4
								c2.7-2.7,6.3-4.2,10.1-4.2h42.5c0.7,0,1.3,0.6,1.3,1.3s-0.6,1.3-1.3,1.3h-42.5c-3.1,0-6.1,1.2-8.3,3.4
								C189.8,132.5,186.2,134,182.4,134z"/>
						</g>
					</g>
				</g>
				<polygon class="st6" points="59.9,99.7 70.8,99.7 70.5,100.9 59.6,100.9 				"/>
				<g>
					<rect x="185.3" y="67.3" class="st11" width="76.4" height="56.5"/>
					<rect x="183.1" y="58" class="st11" width="80.8" height="9.2"/>
					<rect x="185.3" y="67.3" class="st12" width="76.4" height="4.5"/>
				</g>
				<g>
					<g>
						<path class="st3" d="M127.5,103.6L91,114.5c-8.1,2.4-11.7,11.8-7.4,19l25,41.7l14.2-6.3L102.4,130l41.6-8.7
							c8.1-1.7,12.8-10.1,10.1-17.8l0,0L127.5,103.6L127.5,103.6z"/>
						<g>
							<path class="st1" d="M121,171.9l-1.1-1.6l-8.1,3.6l1.9,3.5l9-2.5C122.2,173.9,121.6,172.9,121,171.9z"/>
							<path class="st4" d="M118.8,178.9l-0.8,1.9l1-0.7c0.4-0.3,0.9-0.4,1.4-0.4h4.7c-0.7-1.7-1.5-3.3-2.3-4.8l-9,2.5l0.5,1h4.1
								C118.7,178.4,118.9,178.7,118.8,178.9z"/>
							<path class="st5" d="M108.4,187.2h19.1l-0.3-1.3c-0.5-2.1-1.2-4.1-2.1-6.1h-4.7c-0.5,0-1,0.2-1.4,0.4l-1,0.7l0.8-1.9
								c0.1-0.3-0.1-0.6-0.4-0.6h-4.1l-3,2.9c-1.4,1.3-3.2,2-5.1,2h-2.1c-2,0-3.8,1.1-4.7,2.8l3.9,0.7
								C105,187,106.7,187.2,108.4,187.2z"/>
							<path class="st4" d="M108.4,187.2c-1.7,0-3.4-0.1-5.1-0.4l-3.9-0.7c-0.4,0.7-0.6,1.5-0.7,2.4l6,0.5c1,0.1,1.9,0.1,2.9,0.1
								H128l-0.5-1.9L108.4,187.2L108.4,187.2z"/>
							<polygon class="st2" points="119.9,170.3 111.9,173.9 112.7,175.5 121.5,172.8 							"/>
						</g>
					</g>
					<g>
						<path class="st1" d="M119.4,39l-1.1-6.3c-0.4-2.1-2.2-3.6-4.3-3.6h-6.3l0.6,3c0.4,2.2,0.4,4.4-0.1,6.5l-0.3,1.2
							c-0.1,0.5,0.3,1,0.8,1h1.3c1.6,5.9,8.8,8.4,13.7,4.6l7.8-6l-4.1,2.9C124.3,44.4,120.1,42.7,119.4,39z"/>
						<path class="st1" d="M107.3,26.9l0.4,2.2l0,0h6.3c2.1,0,4,1.5,4.3,3.6l1.1,6.3c0.6,3.7,4.9,5.4,7.9,3.3l4.1-2.9l0,0l0,0V26.9
							H107.3z"/>
						<g>
							<polygon class="st5" points="131.5,39.4 123.7,45.4 124.7,48.4 							"/>
							<polygon class="st1" points="137,47.7 131.5,39.4 124.7,48.4 126.5,53.5 							"/>
						</g>
						<path class="st2" d="M112.4,34c0.1,0.7-0.1,1.4-0.5,1.4c-0.4,0.1-0.8-0.5-0.9-1.2c-0.1-0.7,0.1-1.4,0.5-1.4
							S112.3,33.3,112.4,34z"/>
						<g>
							<path class="st2" d="M110.5,31.5c0.6-0.4,1.4-0.3,2,0.1c0.6,0.4,1.2-0.6,0.6-1c-0.9-0.6-2.1-0.6-3.1-0.1
								C109.3,30.9,109.9,31.9,110.5,31.5L110.5,31.5z"/>
						</g>
						<g>
							<g>
								<path class="st4" d="M112.1,38.4l1.3,0.4c1.8,0.6,3.8,0.7,5.7,0.2l3.1-0.9l-0.7-1.5l-2.4,0.7c-1.9,0.5-3.9,0.5-5.7-0.2
									l-1.3-0.4c-1.1-0.4-2.3-0.7-3.4-0.9l-0.5-0.1l-0.4,1.6l0.9,0.1C109.8,37.7,110.9,38,112.1,38.4z"/>
								<path class="st13" d="M122.2,38.1l-3.1,0.9c-1.9,0.5-3.9,0.5-5.7-0.2l-1.3-0.4c-1.1-0.4-2.3-0.7-3.4-0.9l-0.9-0.1l-0.1,0.5
									c-0.2,0.9-0.2,1.9,0.1,2.8l0.7,1.9c1.2,3.4,4.4,5.8,8,6l0,0c2.3,0.1,4.5-0.6,6.2-2l2.6-2.1L122.2,38.1z"/>
							</g>
							<path class="st14" d="M119.1,37.3l0.3,1.7c0.5,2.7,2.9,4.3,5.3,4.2l-3.3-6.5L119.1,37.3z"/>
						</g>
						<g>
							<path class="st15" d="M123.7,40.8l-2.4,6.8c-0.1,0.2,0.1,0.5,0.3,0.4l0,0c1.8-0.2,3.4-1.3,4.3-2.8l3-5.2L123.7,40.8z"/>
							<g>
								<path class="st11" d="M121.3,30.4l1.3,7.4c0.2,1.3,1.5,2,2.8,1.6l12.9-4.8v-9.3c0-9.5-7.7-17.2-17.2-17.2l0,0
									c-9.3,0-17,7.4-17.2,16.7h10.8C118,24.8,120.8,27.2,121.3,30.4z"/>
								<g>
									<g>
										<path class="st4" d="M131.8,22.1c-0.8,0-1.6-0.5-2.1-1.3c-1.7-3.2-5-5.3-8.6-5.3c-1.3,0-2.3-1-2.3-2.3s1-2.3,2.3-2.3
											c5.4,0,10.3,3,12.8,7.7c0.6,1.1,0.2,2.5-1,3.1C132.6,22,132.2,22.1,131.8,22.1z"/>
									</g>
									<g>
										<path class="st4" d="M114,17.9c-0.7,0-1.4-0.3-1.9-1c-0.8-1-0.5-2.5,0.5-3.3l0.1-0.1c1-0.7,2.5-0.5,3.2,0.5
											s0.5,2.5-0.5,3.2l-0.1,0.1C115,17.8,114.5,17.9,114,17.9z"/>
									</g>
								</g>
								<path class="st12" d="M125.4,39.4c-1.2,0.4-2.5-0.3-2.8-1.6l-1.3-7.4c-0.6-3.2-3.4-5.6-6.6-5.6h-10.8c0,0.2,0,0.3,0,0.5v1.6
									h10.3c2.5,0,4.7,1.8,5.1,4.3l1.3,7.4c0.5,2.6,3.3,4.1,5.7,3.1l10.8-4.8c0.8-0.3,1.2-1.1,1.2-1.9v-0.4L125.4,39.4z"/>
							</g>
						</g>
					</g>
					<g>
						<g>
							<path class="st2" d="M124.4,99.7l3.2-13.9L123,60.9c-0.5-3,0.9-6,3.5-7.4l10.5-5.8c1.4-0.8,3.1-0.6,4.3,0.4l0,0
								c8.6,7.4,14,17.9,15,29.2l2,21.9c0.2,2.4-1.7,4.5-4.1,4.5l0,0h-26.7l0,0C125.4,103.6,123.9,101.7,124.4,99.7z"/>
							<path class="st2" d="M140.1,58l0.1,0.3c1.1,4.2,0.3,8.7-2.2,12.3l-10.5,15.2l-2.1-11.7L140.1,58z"/>
						</g>
						<g>
							<g>
								<polygon class="st2" points="125.5,50.6 122.6,52.1 125.5,55.2 126.5,53.5 								"/>
								<polygon class="st3" points="122.6,52.1 122,57.4 124.9,54.6 								"/>
							</g>
							<polygon class="st3" points="138.6,47.2 135.6,44.5 124.7,50.5 126.2,56.8 							"/>
						</g>
					</g>
					<g>
						<g>
							<path class="st1" d="M77.2,91.4h-8.1c-1.5,0-2.7,1.2-2.7,2.7v5.1c0,1.5,1.2,2.7,2.7,2.7h6.6v-2l0,0c2,0,3.9-0.8,5.3-2.2l1-1
								L77.2,91.4z"/>
							<polygon class="st1" points="77.2,91.4 81.9,96.7 102.2,92 99.4,84.5 							"/>
							<polygon class="st1" points="99.4,84.5 98.4,84.8 98.1,93 102.2,92 							"/>
							<path class="st3" d="M138.2,55.5L138.2,55.5c-2.7-2.1-6.5-1.7-8.7,0.9l-21,24.4l-3.8,1.3l3.5,9.4l2-0.4
								c3.2-0.7,6-2.3,8.3-4.6L139,65C141.5,62.2,141.1,57.8,138.2,55.5z"/>
							<path class="st2" d="M108.3,91.8l-0.1-0.3l-3.5-9.4l-0.3-0.9c-0.2-0.5-0.8-0.8-1.3-0.6l-3.5,1.3c-0.5,0.2-0.8,0.8-0.6,1.3
								l0.3,0.8l3.3,8.8l0.4,1.1c0.2,0.5,0.8,0.8,1.3,0.6l3.5-1.3C108.2,92.9,108.5,92.3,108.3,91.8z"/>
							<path class="st2" d="M130.8,57.4c2-2.3,5.2-2.9,7.9-1.5c-0.1-0.1-0.3-0.3-0.5-0.4l0,0c-2.7-2.1-6.5-1.7-8.7,0.9l-21,24.4
								l-3.8,1.3l0.6,1.5l4.3-1.4L130.8,57.4z"/>
						</g>
						<g>
							<path class="st5" d="M78.3,99.9c0.6-1.1,2-1.5,3.2-0.9l0,0l-0.1-0.1L76.2,96c-1.1-0.6-2.5-0.2-3.2,0.9
								c-0.6,1.1-0.2,2.5,0.9,3.2l5.2,2.8C78.1,102.3,77.7,100.9,78.3,99.9z"/>
							<path class="st7" d="M80.2,103.2c0.8,0,1.6-0.4,2-1.2c0.6-1.1,0.2-2.4-0.8-3.1l0,0c-1.1-0.6-2.5-0.2-3.2,0.9
								c-0.6,1.1-0.2,2.4,0.8,3.1l0,0C79.5,103.1,79.9,103.2,80.2,103.2z"/>
						</g>
					</g>
				</g>
			</g>
			<g>
				<path class="st16" d="M226.1,214.3c1.1-3.5,1.6-4.9,8.8-5.5c2-0.2,3.9,0.5,5.9,0.3c1.9-0.2,4-1.6,4-3.5c0-2.1-2.3-4-1.6-5.9
					c0.5-1.5,2.3-2,3.9-1.9c1.5,0.1,3.1,0.5,4.6,0c1.8-0.6,2.9-2.5,3.1-4.4s-0.4-3.8-1.1-5.5c-0.7-1.8-1.4-3.6-1.6-5.4
					c-0.4-4,1.9-7.9,5-10.6c4.2-3.7,9.8-5.6,15.4-5.3c5.4,0.3,12.1,2.4,15.2,7.2c1.8,2.8,2.5,6.3,1.8,9.6c-0.3,1.4-0.8,2.8-0.4,4.2
					c0.6,2,2.7,3,4.7,3.7c1.9,0.8,4.1,1.8,4.5,3.9c0.4,1.8-0.9,3.6-2.6,4.6s-3.5,1.2-5.3,1.8s-3.6,1.5-4.4,3.2
					c-0.7,1.4-0.5,3.2-1.1,4.7c-1,2.5-4,3.7-6.7,3.4s-5.1-1.8-7.3-3.3c-1.1-0.7-2.2-1.5-3.5-1.9s-2.8-0.4-3.9,0.3
					c-1.4,0.9-2.2,2.9-3.8,3.2c-1.6,0.3-3-1-4.2-2.1s-3.2-2-4.3-0.9c-0.5,0.5-0.7,1.2-1,1.9c-1.3,2.5-4.5,3.3-7.3,3
					s-5.4-1.5-8.2-1.7C231.7,210.8,226.8,212.1,226.1,214.3z"/>
				<path class="st16" d="M294.8,207c2.4-0.8,5.2-0.1,7,1.8c1.1,1.2,1.7,3.1,0.8,4.4c-0.8,1.1-2.4,1.4-3.7,1.1
					c-1.3-0.3-2.5-1-3.8-1.4s-2.8-0.5-3.9,0.3c-0.3,0.2-0.5,0.5-0.8,0.6c-1.9,0.9,0.2-2.7,0.4-3.2C291.6,208.9,293,207.5,294.8,207z
					"/>
				<path class="st16" d="M313.5,187c1.2-0.3,2.7,0.1,3.3,1.1c0.8,1.3,0.1,3-1.1,3.8c-1.5,1.1-6.7,2.2-7.8-0.1
					C307,190,311.9,187.3,313.5,187z"/>
				<path class="st16" d="M295.7,183.8c0.3,0.5,0.8,0.8,1.4,0.9c0.6,0.1,1.1,0,1.7,0c1-0.1,2-0.2,2.9-0.7s1.5-1.5,1.3-2.5
					C302.3,177.7,293.9,180.5,295.7,183.8z"/>
				<path class="st16" d="M246.7,163.5c-0.9,0.4-1.7,1.3-1.6,2.2c0,0.7,0.6,1.4,1.2,1.7c0.6,0.4,1.4,0.5,2.1,0.5
					c0.9,0.1,1.9,0,2.6-0.7c0.4-0.4,0.7-1,1-1.4c0.6-0.9,1.5-1.5,2.5-1.8c0.6-0.2,1.5-0.3,1.5-1.1s-1-1.3-1.7-1.5
					c-0.6-0.1-1.2,0.1-1.7,0.3c-0.9,0.4-1.7,0.7-2.6,1C248.9,163,247.7,163.1,246.7,163.5z"/>
			</g>
		</g>
	</g>
	<g>

			<linearGradient id="SVGID_1_" gradientUnits="userSpaceOnUse" x1="116.379" y1="665.05" x2="201.279" y2="665.05" gradientTransform="matrix(1 0 0 1 0 -648)">
			<stop  offset="0" style="stop-color:#80CACF;stop-opacity:0"/>
			<stop  offset="0.5443" style="stop-color:#80CACF"/>
			<stop  offset="0.9884" style="stop-color:#80CACF;stop-opacity:0"/>
		</linearGradient>
		<rect x="116.4" y="16.2" class="st17" width="84.9" height="1.7"/>

			<linearGradient id="SVGID_2_" gradientUnits="userSpaceOnUse" x1="126.479" y1="668.45" x2="211.379" y2="668.45" gradientTransform="matrix(1 0 0 1 0 -648)">
			<stop  offset="0" style="stop-color:#80CACF;stop-opacity:0"/>
			<stop  offset="0.5443" style="stop-color:#80CACF"/>
			<stop  offset="0.9884" style="stop-color:#80CACF;stop-opacity:0"/>
		</linearGradient>
		<rect x="126.5" y="19.6" class="st18" width="84.9" height="1.7"/>

			<linearGradient id="SVGID_3_" gradientUnits="userSpaceOnUse" x1="57.179" y1="795.05" x2="142.079" y2="795.05" gradientTransform="matrix(1 0 0 1 0 -648)">
			<stop  offset="0" style="stop-color:#80CACF;stop-opacity:0"/>
			<stop  offset="0.5443" style="stop-color:#80CACF"/>
			<stop  offset="0.9884" style="stop-color:#80CACF;stop-opacity:0"/>
		</linearGradient>
		<rect x="57.2" y="146.2" class="st19" width="84.9" height="1.7"/>

			<linearGradient id="SVGID_4_" gradientUnits="userSpaceOnUse" x1="67.179" y1="798.45" x2="152.079" y2="798.45" gradientTransform="matrix(1 0 0 1 0 -648)">
			<stop  offset="0" style="stop-color:#80CACF;stop-opacity:0"/>
			<stop  offset="0.5443" style="stop-color:#80CACF"/>
			<stop  offset="0.9884" style="stop-color:#80CACF;stop-opacity:0"/>
		</linearGradient>
		<rect x="67.2" y="149.6" class="st20" width="84.9" height="1.7"/>

			<linearGradient id="SVGID_5_" gradientUnits="userSpaceOnUse" x1="127.579" y1="704.75" x2="212.479" y2="704.75" gradientTransform="matrix(1 0 0 1 0 -648)">
			<stop  offset="0" style="stop-color:#80CACF;stop-opacity:0"/>
			<stop  offset="0.5443" style="stop-color:#80CACF"/>
			<stop  offset="0.9884" style="stop-color:#80CACF;stop-opacity:0"/>
		</linearGradient>
		<rect x="127.6" y="55.9" class="st21" width="84.9" height="1.7"/>

			<linearGradient id="SVGID_6_" gradientUnits="userSpaceOnUse" x1="132.279" y1="701.45" x2="248.779" y2="701.45" gradientTransform="matrix(1 0 0 1 0 -648)">
			<stop  offset="0" style="stop-color:#80CACF;stop-opacity:0"/>
			<stop  offset="0.5443" style="stop-color:#80CACF"/>
			<stop  offset="0.9884" style="stop-color:#80CACF;stop-opacity:0"/>
		</linearGradient>
		<rect x="132.3" y="52.6" class="st22" width="116.5" height="1.7"/>

			<linearGradient id="SVGID_7_" gradientUnits="userSpaceOnUse" x1="119.279" y1="697.85" x2="235.779" y2="697.85" gradientTransform="matrix(1 0 0 1 0 -648)">
			<stop  offset="0" style="stop-color:#80CACF;stop-opacity:0"/>
			<stop  offset="0.5443" style="stop-color:#80CACF"/>
			<stop  offset="0.9884" style="stop-color:#80CACF;stop-opacity:0"/>
		</linearGradient>
		<rect x="119.3" y="49" class="st23" width="116.5" height="1.7"/>

			<linearGradient id="SVGID_8_" gradientUnits="userSpaceOnUse" x1="68.079" y1="744.25" x2="152.979" y2="744.25" gradientTransform="matrix(1 0 0 1 0 -648)">
			<stop  offset="0" style="stop-color:#80CACF;stop-opacity:0"/>
			<stop  offset="0.5443" style="stop-color:#80CACF"/>
			<stop  offset="0.9884" style="stop-color:#80CACF;stop-opacity:0"/>
		</linearGradient>
		<rect x="68.1" y="95.4" class="st24" width="84.9" height="1.7"/>

			<linearGradient id="SVGID_9_" gradientUnits="userSpaceOnUse" x1="72.779" y1="740.95" x2="189.279" y2="740.95" gradientTransform="matrix(1 0 0 1 0 -648)">
			<stop  offset="0" style="stop-color:#80CACF;stop-opacity:0"/>
			<stop  offset="0.5443" style="stop-color:#80CACF"/>
			<stop  offset="0.9884" style="stop-color:#80CACF;stop-opacity:0"/>
		</linearGradient>
		<rect x="72.8" y="92.1" class="st25" width="116.5" height="1.7"/>

			<linearGradient id="SVGID_10_" gradientUnits="userSpaceOnUse" x1="59.779" y1="737.35" x2="176.279" y2="737.35" gradientTransform="matrix(1 0 0 1 0 -648)">
			<stop  offset="0" style="stop-color:#80CACF;stop-opacity:0"/>
			<stop  offset="0.5443" style="stop-color:#80CACF"/>
			<stop  offset="0.9884" style="stop-color:#80CACF;stop-opacity:0"/>
		</linearGradient>
		<rect x="59.8" y="88.5" class="st26" width="116.5" height="1.7"/>

			<linearGradient id="SVGID_11_" gradientUnits="userSpaceOnUse" x1="202.079" y1="794.35" x2="286.979" y2="794.35" gradientTransform="matrix(1 0 0 1 0 -648)">
			<stop  offset="0" style="stop-color:#80CACF;stop-opacity:0"/>
			<stop  offset="0.5443" style="stop-color:#80CACF"/>
			<stop  offset="0.9884" style="stop-color:#80CACF;stop-opacity:0"/>
		</linearGradient>
		<rect x="202.1" y="145.5" class="st27" width="84.9" height="1.7"/>

			<linearGradient id="SVGID_12_" gradientUnits="userSpaceOnUse" x1="182.079" y1="791.05" x2="298.579" y2="791.05" gradientTransform="matrix(1 0 0 1 0 -648)">
			<stop  offset="0" style="stop-color:#80CACF;stop-opacity:0"/>
			<stop  offset="0.5443" style="stop-color:#80CACF"/>
			<stop  offset="0.9884" style="stop-color:#80CACF;stop-opacity:0"/>
		</linearGradient>
		<rect x="182.1" y="142.2" class="st28" width="116.5" height="1.7"/>

			<linearGradient id="SVGID_13_" gradientUnits="userSpaceOnUse" x1="169.079" y1="787.45" x2="285.579" y2="787.45" gradientTransform="matrix(1 0 0 1 0 -648)">
			<stop  offset="0" style="stop-color:#80CACF;stop-opacity:0"/>
			<stop  offset="0.5443" style="stop-color:#80CACF"/>
			<stop  offset="0.9884" style="stop-color:#80CACF;stop-opacity:0"/>
		</linearGradient>
		<rect x="169.1" y="138.6" class="st29" width="116.5" height="1.7"/>
	</g>
</g>
</svg>
