<svg id="Calque_1" data-name="Calque 1" xmlns="http://www.w3.org/2000/svg" xmlns:xlink="http://www.w3.org/1999/xlink" width="416" height="221" viewBox="0 0 416 221"><defs><style>.cls-1,.cls-8{fill:none;}.cls-2{fill:#989494;opacity:0.8;}.cls-2,.cls-7{isolation:isolate;}.cls-3,.cls-5{fill:#263238;}.cls-3,.cls-8,.cls-9{stroke:#263238;stroke-linecap:round;stroke-linejoin:round;}.cls-4,.cls-7{fill:#582119;}.cls-6{clip-path:url(#clip-path);}.cls-7{opacity:0.3;}.cls-9{fill:#fff;}.cls-10{fill:#989494;stroke:#273339;stroke-miterlimit:10;}</style><clipPath id="clip-path"><polygon class="cls-1" points="217.9 189.8 217.9 91 202.1 91 202.1 189.8 179.7 189.8 179.7 194.5 239.6 194.5 239.6 189.8 217.9 189.8"/></clipPath></defs><title>Image sur place</title><ellipse class="cls-2" cx="208" cy="192.9" rx="199.7" ry="21.5"/><rect class="cls-3" x="202.1" y="91" width="15.8" height="102.8"/><rect class="cls-4" x="179.7" y="189.8" width="59.9" height="4.9"/><polygon id="SVGID" class="cls-5" points="217.9 189.8 217.9 91 202.1 91 202.1 189.8 179.7 189.8 179.7 194.5 239.6 194.5 239.6 189.8 217.9 189.8"/><g class="cls-6"><path class="cls-7" d="M279.1,106.2c0,19.8-15.8,30.5-51.4,26.1-37.4-4.6-77.4-23-77.4-42.8s28-19.1,63.9-19.1S279.1,86.5,279.1,106.2Z"/></g><polygon id="SVGID-2" data-name="SVGID" class="cls-8" points="217.9 189.8 217.9 91 202.1 91 202.1 189.8 179.7 189.8 179.7 194.5 239.6 194.5 239.6 189.8 217.9 189.8"/><path class="cls-9" d="M107,52s.4,15.6-5.1,30.5c0,0,99.9,23.6,215.4-1.7-6.2-12.2-7.9-29.3-7.9-29.3S202.6,72.8,107,52Z"/><path class="cls-9" d="M309.6,51.7c0,5.6-45.4,10.1-101.3,10.1S107,57.3,107,51.7s45.4-10.1,101.3-10.1S309.6,46.1,309.6,51.7Z"/><polygon class="cls-3" points="21 7 21.2 32.1 75 27.8 75.3 6.5 21 7"/><polygon class="cls-3" points="30.2 54.8 31.5 66.1 69.9 59.9 69.2 50.4 30.2 54.8"/><polygon class="cls-3" points="33.9 187.5 25.5 186.8 25.5 29.9 33.7 29.9 33.9 187.5"/><polygon class="cls-3" points="71.3 183.8 64.4 182.9 64.4 26 71.4 26 71.3 183.8"/><polygon class="cls-3" points="91.9 195.6 83.9 194.5 83.9 113.2 92.1 113.2 91.9 195.6"/><polygon class="cls-3" points="135.6 184.5 128.5 184.2 128.5 103.3 135.9 103.3 135.6 184.5"/><polygon class="cls-3" points="28.2 105.8 68 98.1 139.2 103.6 91.7 115.2 28.2 105.8"/><polygon class="cls-3" points="91.7 115.2 139.2 103.6 138.8 115.8 91.8 126 91.7 115.2"/><polygon class="cls-3" points="32.6 106.3 32.6 119.8 85.1 126.5 84.4 114 32.6 106.3"/><polygon class="cls-3" points="32.8 133.8 32.5 141.5 84.8 147.4 84.4 140.3 32.8 133.8"/><polygon class="cls-3" points="70 125.3 69.6 132.9 135 139.8 134.5 132.8 70 125.3"/><polygon class="cls-10" points="23.6 8.7 23.9 30.8 76 26.8 76.1 8 23.6 8.7"/><polygon class="cls-10" points="26.3 8.7 26.4 30.6 76.1 26.8 76.2 8 26.3 8.7"/><polygon class="cls-10" points="92 114.5 92 112.6 139.6 102.8 139.6 104.7 92 114.5"/><polygon class="cls-10" points="32.2 105.1 68.4 98.2 139.6 102.8 92.1 112.5 32.2 105.1"/><polygon class="cls-10" points="32.2 105.2 32.3 107.5 92.1 114.5 92.2 112.5 32.2 105.2"/><polygon class="cls-3" points="389.2 7 389 32.1 335.2 27.8 334.8 6.5 389.2 7"/><polygon class="cls-3" points="380 54.8 378.7 66.1 340.2 59.9 341 50.4 380 54.8"/><polygon class="cls-3" points="376.5 187.2 384.7 186.8 384.7 29.9 376.5 29.9 376.5 187.2"/><polygon class="cls-3" points="339 183.1 345.8 182.9 345.8 26 338.8 26 339 183.1"/><polygon class="cls-3" points="318.1 194.1 326.2 194.5 326.2 113.2 318 113.2 318.1 194.1"/><polygon class="cls-3" points="274.8 184.1 281.3 184.2 281.3 103.3 274.3 103.3 274.8 184.1"/><polygon class="cls-3" points="382 105.8 342.2 98.1 271 103.6 318.5 115.2 382 105.8"/><polygon class="cls-3" points="318.5 115.2 271 103.6 271.3 115.8 318.4 126 318.5 115.2"/><polygon class="cls-3" points="377.6 106.3 377.6 119.8 325.1 126.5 325.8 114 377.6 106.3"/><polygon class="cls-3" points="377.3 133.8 377.7 141.5 325.4 147.4 325.7 140.3 377.3 133.8"/><polygon class="cls-3" points="340.2 125.3 340.5 132.9 275.2 139.8 275.6 132.8 340.2 125.3"/><polygon class="cls-10" points="386.6 8.7 386.3 30.8 334.1 26.8 334.1 8 386.6 8.7"/><polygon class="cls-10" points="383.9 8.7 383.7 30.6 334.1 26.8 334 8 383.9 8.7"/><polygon class="cls-10" points="318.2 114.5 318.2 112.6 270.6 102.8 270.6 104.7 318.2 114.5"/><polygon class="cls-10" points="377.9 105.1 341.8 98.2 270.6 102.8 318.1 112.5 377.9 105.1"/><polygon class="cls-10" points="377.9 105.2 377.9 107.5 318.1 114.5 318 112.5 377.9 105.2"/></svg>
