<?xml version="1.0" encoding="utf-8"?>
<!-- Generator: Adobe Illustrator 22.0.0, SVG Export Plug-In . SVG Version: 6.00 Build 0)  -->
<svg version="1.1" id="Calque_1" xmlns="http://www.w3.org/2000/svg" xmlns:xlink="http://www.w3.org/1999/xlink" x="0px" y="0px"
	 viewBox="0 0 500 430" style="enable-background:new 0 0 500 430;" xml:space="preserve">
<style type="text/css">
	.st0{fill:#F3F7FA;}
	.st1{fill:#7D8390;}
	.st2{font-family:'Avenir-Heavy';}
	.st3{font-size:33.5664px;}
	.st4{opacity:0.35;fill:#7D8390;}
	.st5{clip-path:url(#XMLID_2_);fill:none;stroke:#6C6969;stroke-linecap:round;stroke-linejoin:round;stroke-miterlimit:10;}
	.st6{fill:#FFFFFF;stroke:#263238;stroke-linecap:round;stroke-linejoin:round;stroke-miterlimit:10;}
	.st7{clip-path:url(#XMLID_3_);}
	.st8{fill:#383736;}
	.st9{fill:#263238;stroke:#263238;stroke-linecap:round;stroke-linejoin:round;stroke-miterlimit:10;}
	.st10{fill:none;stroke:#263238;stroke-linecap:round;stroke-linejoin:round;stroke-miterlimit:10;}
	.st11{fill:#263238;}
	.st12{clip-path:url(#XMLID_7_);fill:none;stroke:#6C6969;stroke-linecap:round;stroke-linejoin:round;stroke-miterlimit:10;}
	.st13{fill:#989494;stroke:#273339;stroke-miterlimit:10;}
	.st14{fill:#989494;stroke:#273339;stroke-miterlimit:10;}
</style>
<g>
	<g>
		<g>

				<image style="overflow:visible;opacity:8.000000e-02;" width="1958" height="374" xlink:href="6639276721B5E90E.png"  transform="matrix(0.24 0 0 0.24 33.24 309.32)">
			</image>
			<g>
				<path class="st0" d="M468.8,377H41.3l18-59.7h409.4c6.8,0,12.3,5.5,12.3,12.3v35.1C481.1,371.5,475.5,377,468.8,377z"/>
			</g>
		</g>
		<text transform="matrix(1 0 0 1 148.1807 359.6338)" class="st1 st2 st3">A EMPORTER</text>
		<polygon class="st1" points="43,387.4 18.9,387.4 74.7,283.6 98.8,283.6 		"/>
		<polygon class="st4" points="49.4,420.9 34.3,420.9 69.3,355.9 84.4,355.9 		"/>
	</g>
	<g>
		<g>
			<defs>
				<path id="XMLID_6_" d="M281.2,20c0,0,25.5,24.6,26.6,36.9c1.1,12.3-17.7,22.3-12.3,26.3c5.4,4,20.3,14.6,14.6,23.7
					c-5.7,9.2-8.6,11.4-6.6,13.4c2,2,6.9,3.7,6.6,8.6c-0.3,4.9-6,9.2-6,9.2h-90.4c0,0-4.9,0.3-4.3-6.6c0.6-6.9,10.3-10.6,8.6-15.7
					c-1.7-5.1-14.3-9.2-14.3-19.5c0-10.3,14.9-14.6,17.2-19.5c2.3-4.9-7.4-8-9.4-14.3c-2-6.3,8.3-17.2,14.6-22.9
					c6.3-5.7,31.5-22.3,41.5-22.9C277.5,16.2,281.2,20,281.2,20z"/>
			</defs>
			<use xlink:href="#XMLID_6_"  style="overflow:visible;fill:#263238;"/>
			<clipPath id="XMLID_2_">
				<use xlink:href="#XMLID_6_"  style="overflow:visible;"/>
			</clipPath>
			<path class="st5" d="M288,26.7c0,0,13.8,24.2,11.7,33.7c-2.2,9.5-16.8,20.3-11.2,27.6c5.6,7.3,13.8,10.4,10.4,19.4
				c-3.5,9.1-9.1,14.7-9.1,14.7"/>
			<path class="st5" d="M226.3,59.9c0,0,8.6,13.4,6.5,17.3c-2.2,3.9-14.7,8.6-13,18.6c1.7,9.9,19.9,25.5,19.9,27.2"/>

				<use xlink:href="#XMLID_6_"  style="overflow:visible;fill:none;stroke:#263238;stroke-linecap:round;stroke-linejoin:round;stroke-miterlimit:10;"/>
		</g>
		<path class="st6" d="M313.9,124.5c0,0,34.6,54,39.7,60.4c5.1,6.5-0.5,17.1-8.3,22.6c-7.8,5.5-21,0.7-27.8-6.3
			s-13.7-23.6-13.7-23.6L313.9,124.5z"/>
		<path class="st6" d="M255.8,106.5c0,0-32.3,9.7-42.4,13.4c-10.1,3.7-12.9,4.2-12.9,7.8c0,2.1,7.7,43.9,6.9,79.8
			c-0.6,25.9-9.7,49.4-9.7,49.4h117.6c0,0-9.6-22-9.7-48.4c-0.1-37,9.4-82.3,8.3-83.9C312,121.7,259.9,106.1,255.8,106.5z"/>
		<g>
			<defs>
				<path id="XMLID_5_" d="M305.9,217.1c-4.2-3.3-9.7-8.7-12.3-16.1c-4.1-11.4-7.1-72.9-7.7-86.7c-2.2-0.7-4.4-1.3-6.5-2l0.9,57.8
					h-41.1l-3.6-57.5c-2.2,0.7-4.4,1.4-6.5,2c0,11.7,0,66.1-3.2,81.7c-2.5,12-13,20.1-19.4,24c-2.5,20.3-8.7,36.4-8.7,36.4h117.6
					C315.3,256.9,307.7,239.5,305.9,217.1z"/>
			</defs>
			<use xlink:href="#XMLID_5_"  style="overflow:visible;fill:#263238;"/>
			<clipPath id="XMLID_3_">
				<use xlink:href="#XMLID_5_"  style="overflow:visible;"/>
			</clipPath>
			<g class="st7">
				<path class="st8" d="M230.4,114.3c-0.4,0.1-0.9,0.3-1.3,0.4c0,11.7,0,66.1-3.2,81.7c-0.2,0.9-0.4,1.7-0.7,2.5v57.9h5.3V114.3z"
					/>
				<rect x="247.3" y="170.2" class="st8" width="5.3" height="86.7"/>
				<path class="st8" d="M202.9,239.3v17.6h5.3v-37.6c-0.6,0.4-1.2,0.8-1.8,1.2C205.5,227.4,204.3,233.8,202.9,239.3z"/>
				<path class="st8" d="M219.3,209.5c-1.6,2-3.4,3.8-5.3,5.4v42h5.3V209.5z"/>
				<polygon class="st8" points="236.2,122.8 236.2,256.9 241.5,256.9 241.5,170.2 239.2,170.2 				"/>
				<path class="st8" d="M291.7,191.7v65.1h5.3v-49.3c-1.3-2-2.5-4.2-3.3-6.5C292.9,199.2,292.3,195.9,291.7,191.7z"/>
				<path class="st8" d="M302.8,214.4v42.4h5.3v-24.7c-0.9-4.6-1.7-9.7-2.1-15C304.9,216.4,303.8,215.5,302.8,214.4z"/>
				<path class="st8" d="M285.8,114.3c-1.8-0.5-3.5-1.1-5.3-1.6v144.1h5.3V114.3z"/>
				<rect x="269.5" y="170.2" class="st8" width="5.3" height="86.7"/>
				<rect x="258.4" y="170.2" class="st8" width="5.3" height="86.7"/>
			</g>

				<use xlink:href="#XMLID_5_"  style="overflow:visible;fill:none;stroke:#263238;stroke-linecap:round;stroke-linejoin:round;stroke-miterlimit:10;"/>
		</g>
		<path class="st6" d="M282.6,113.5c0-10-7.4-15.4-13.7-16.6c-6.3-1.1-16.9,1.1-16.9,1.1s-12,4.3-14.3,9.2c-2.3,4.9-1.1,24-3.1,29.8
			c-2,5.7-6.9,10-4.3,10.3c2.6,0.3,10.3-11.4,14.3-10c4,1.4,14.9,16.3,15.7,16.3s9.2-10,10.9-13.2c1.7-3.1,8,1.7,10.9,8.9
			c2.9,7.2,3.7,4.6,3.7,2s-3.4-13.7-2.9-15.7C283.5,133.5,282.6,123.5,282.6,113.5"/>
		<g>
			<path class="st6" d="M246.6,90.9v32.3c0,0,10.6,34.9,14.3,32.3c3.7-2.6,12.3-30.9,12.3-30.9V91.2C273.2,91.2,260,96.9,246.6,90.9
				z"/>
			<path class="st9" d="M246.6,90.9v6.7c5.3,3.1,11.6,5.1,17.3,5.1c3.3,0,6.4-0.9,9.3-2.3v-9.3C273.2,91.2,260,96.9,246.6,90.9z"/>
		</g>
		<g>
			<path class="st6" d="M235.7,55.7c0,0-6.3-8.3-10-2.3c-3.7,6,6,17.2,8.9,16.9C237.4,70,235.7,55.7,235.7,55.7z"/>
			<path class="st6" d="M286.3,55.7c0,0,6.3-8.3,10-2.3c3.7,6-6,17.2-8.9,16.9C284.6,70,286.3,55.7,286.3,55.7z"/>
			<g>
				<path class="st6" d="M234.9,44.1c0,0-3.2,28.6-0.4,36.9c2.8,8.3,17.5,17.5,29.4,17.5c11.9,0,21.8-11.5,23.4-18.3
					c1.6-6.7-2-50-4.4-54.8c-2.4-4.8-17.5-5.2-32.5,2.4C235.3,35.4,234.9,44.1,234.9,44.1z"/>
				<path class="st10" d="M264.6,48.6c0,0-2.6,6.9-0.3,10.9s0.9,6.9-1.7,6.9c-2.6,0-3.7-4.3-3.7-4.3"/>
				<path class="st10" d="M250,69.2c0,0,12,8.3,22.6,0"/>
				<path class="st10" d="M267.2,44.6c0,0,5.1-5.7,11.2,0.6"/>
				<path class="st10" d="M255.5,44c0,0-5.1-5.4-11.4-0.6"/>
				<ellipse class="st11" cx="272" cy="53.1" rx="1.7" ry="3.4"/>
				<ellipse class="st11" cx="250.6" cy="53.1" rx="1.7" ry="3.4"/>
				<path class="st10" d="M242.3,58c0,0,4.9-0.9,8.9,0"/>
				<path class="st10" d="M271.5,58.3c0,0,3.7-0.9,8.6,0"/>
			</g>
		</g>
		<g>
			<defs>
				<path id="XMLID_4_" d="M221.1,60.6c0,0,44.9-18.6,55.8-27.2c10.9-8.6,13.7-25.2-11.7-24.3c-25.5,0.9-52.4,30.6-54.6,44.3
					c-2.3,13.7,6.9,10.9,6.9,10.9"/>
			</defs>
			<use xlink:href="#XMLID_4_"  style="overflow:visible;fill:#263238;"/>
			<clipPath id="XMLID_7_">
				<use xlink:href="#XMLID_4_"  style="overflow:visible;"/>
			</clipPath>
			<path class="st12" d="M282.4,9.8c0,0-13.4,17.7-37.1,31.5s-38.9,16.4-38.9,16.4"/>
			<path class="st12" d="M265.6,5.5c0,0-21.2,33.2-60.4,46.2"/>

				<use xlink:href="#XMLID_4_"  style="overflow:visible;fill:none;stroke:#263238;stroke-linecap:round;stroke-linejoin:round;stroke-miterlimit:10;"/>
		</g>
		<g>
			<path class="st6" d="M316.7,163.5c0,0-5.3-2.3-11.5-4.4c-6.2-2.1-9.7,2.1-7.1,5.8c2.5,3.7,11.5,4.4,15.9,8.3s7.8,16.6,12.2,18.9
				c4.4,2.3,9.2,2.8,9.2,2.8v-31.4H316.7z"/>
			<g>
				<polygon class="st13" points="343.8,201.2 317.5,201.2 311.6,146.9 349.7,146.9 				"/>
				<g>
					<polygon class="st6" points="350.6,138.4 310.7,138.4 307.2,145.7 354.5,145.7 					"/>
					<polygon class="st6" points="312.2,148.1 349.9,148.1 353.2,145.7 308.5,145.7 					"/>
				</g>
				<polygon class="st6" points="345.4,186.3 348.8,155.2 312.5,155.2 315.9,186.3 				"/>
			</g>
			<g>
				<path class="st6" d="M354,164.6c0,0-12.2,0.2-14.5,2.5c-2.3,2.3-1.6,5.1,2.8,5.5s10.8,1.4,14.3,0.5
					C360,172.2,360,164.6,354,164.6z"/>
				<path class="st6" d="M351.2,189.3c0,0-9.7,0.2-11.5,2c-1.8,1.8-1.3,4,2.2,4.4c3.5,0.4,8.6,1.1,11.3,0.4
					C356,195.3,356,189.3,351.2,189.3z"/>
				<path class="st6" d="M356.3,174.1c0,0-15.9,0-19.8,0.7c-3.9,0.7-5.3,4.6,0.5,5.8c5.8,1.2,17.5,1.8,21.2,1.4
					S362.1,173.9,356.3,174.1z"/>
				<path class="st6" d="M355.4,182.4c0,0-12.7-0.5-17.1,1.2s-2.8,3.9,1.4,4.8c4.2,0.9,13.4,2.1,16.8,0.9
					C360,188.2,360,181.9,355.4,182.4z"/>
			</g>
		</g>
		<g>
			<path class="st6" d="M159.3,101c0,0-2.4,1.5-0.7,8.8c1.7,7.3,1.7,7.3,1.7,7.3l10.5-2c0,0-4.6-8.3-6.6-12
				C162.2,99.5,159.8,100,159.3,101z"/>
			<g>
				<path class="st13" d="M151,114.4c0,0,33.5-5.6,43.5-9.1c10-3.4,20.1-5.4,23-6.1c2.9-0.7,6.1-0.7,6.1-0.7s1,0,0.7,4.2
					c-0.2,4.2,5.4,58.2,10.5,74.9c5.1,16.6,8.3,24.5,8.3,24.5s-30.1,6.1-58,6.1s-45-3.9-46-3.9c-1,0,12-48.9,11.5-65.6
					C150.2,121.8,151,114.4,151,114.4z"/>
				<path class="st14" d="M234.9,177.5c-5.1-16.6-10.8-70.7-10.5-74.9c0.2-4.2-0.7-4.2-0.7-4.2s-1.5,0-3.4,0.2c-0.2,1.7,0,3.2,0,3.2
					s-0.2,26.7-1,58.2c-0.6,26.2-0.2,41.2-0.1,45.6c13.9-1.7,24-3.8,24-3.8S240,194.2,234.9,177.5z"/>
				<path class="st14" d="M223.1,99.8c0,0,0,8.3,0,12.2s0.7,5.9-0.7,5.9s-13.7,2.2-33.5,6.1c-19.8,3.9-36.7,4.9-38.2,4.9
					s0.2-14.4,0.2-14.4s37.2-5.9,49.2-9.8c12-3.9,21.8-5.6,21.8-5.6"/>
			</g>
			<path class="st6" d="M180.3,91c0,0,2.4-5.6,9.1-2c6.6,3.7,11,16.9,10,19.6c-1,2.7-4.2,3.4-6.8,0.7c-2.7-2.7-9.5-12.5-11.3-15.2
				C179.6,91.4,180.3,91,180.3,91z"/>
			<path class="st6" d="M173,94.4c0,0,12.4,18,14.7,19.6c2.2,1.5,6.6,2.4,5.4-2.9c-1.2-5.1-5.9-14.9-9.1-18.3
				c-3.2-3.4-5.4-3.9-8.1-2.4C173.2,91.7,172.5,92.4,173,94.4z"/>
			<path class="st6" d="M174,93.4c0,0,11.5,14.7,12.5,18.1c1,3.4-1,9.1-6.1,5.9c-5.1-3.2-9.8-13.7-12.7-17.4
				C164.7,96.3,169.8,90.7,174,93.4z"/>
			<path class="st6" d="M167.1,97.1c0,0-7.3,1-8.3,4.9c-1,3.9,5.4,12.5,10.5,13.9c5.1,1.5,6.6-2.7,5.1-6.1
				C173,106.4,169.6,97.8,167.1,97.1z"/>
		</g>
	</g>
</g>
</svg>
