<?xml version="1.0" encoding="utf-8"?>
<!-- Generator: Adobe Illustrator 22.0.0, SVG Export Plug-In . SVG Version: 6.00 Build 0)  -->
<svg version="1.1" id="Calque_1" xmlns="http://www.w3.org/2000/svg" xmlns:xlink="http://www.w3.org/1999/xlink" x="0px" y="0px"
	 viewBox="0 0 234 264" style="enable-background:new 0 0 234 264;" xml:space="preserve">
<style type="text/css">
	.st0{fill:#263238;}
	.st1{clip-path:url(#SVGID_2_);fill:none;stroke:#6C6969;stroke-linecap:round;stroke-linejoin:round;stroke-miterlimit:10;}
	.st2{clip-path:url(#SVGID_4_);fill:none;stroke:#6C6969;stroke-linecap:round;stroke-linejoin:round;stroke-miterlimit:10;}
	.st3{fill:none;stroke:#263238;stroke-linecap:round;stroke-linejoin:round;stroke-miterlimit:10;}
	.st4{fill:#FFFFFF;stroke:#263238;stroke-linecap:round;stroke-linejoin:round;stroke-miterlimit:10;}
	.st5{clip-path:url(#SVGID_6_);}
	.st6{fill:#383736;}
	.st7{fill:#263238;stroke:#263238;stroke-linecap:round;stroke-linejoin:round;stroke-miterlimit:10;}
	.st8{clip-path:url(#SVGID_8_);fill:none;stroke:#6C6969;stroke-linecap:round;stroke-linejoin:round;stroke-miterlimit:10;}
	.st9{clip-path:url(#SVGID_10_);fill:none;stroke:#6C6969;stroke-linecap:round;stroke-linejoin:round;stroke-miterlimit:10;}
	.st10{fill:#989494;stroke:#273339;stroke-miterlimit:10;}
	.st11{fill:#989494;stroke:#273339;stroke-miterlimit:10;}
</style>
<g>
	<g>
		<g>
			<path id="XMLID_6_" class="st0" d="M148.3,19c0,0,25.5,24.6,26.6,36.9s-17.7,22.3-12.3,26.3c5.4,4,20.3,14.6,14.6,23.7
				c-5.7,9.2-8.6,11.4-6.6,13.4s6.9,3.7,6.6,8.6c-0.3,4.9-6,9.2-6,9.2H80.8c0,0-4.9,0.3-4.3-6.6c0.6-6.9,10.3-10.6,8.6-15.7
				s-14.3-9.2-14.3-19.5S85.7,80.7,88,75.8s-7.4-8-9.4-14.3s8.3-17.2,14.6-22.9s31.5-22.3,41.5-22.9C144.6,15.2,148.3,19,148.3,19z"
				/>
		</g>
		<g>
			<g>
				<defs>
					<path id="SVGID_1_" d="M148.3,19c0,0,25.5,24.6,26.6,36.9s-17.7,22.3-12.3,26.3c5.4,4,20.3,14.6,14.6,23.7
						c-5.7,9.2-8.6,11.4-6.6,13.4s6.9,3.7,6.6,8.6c-0.3,4.9-6,9.2-6,9.2H80.8c0,0-4.9,0.3-4.3-6.6c0.6-6.9,10.3-10.6,8.6-15.7
						s-14.3-9.2-14.3-19.5S85.7,80.7,88,75.8s-7.4-8-9.4-14.3s8.3-17.2,14.6-22.9s31.5-22.3,41.5-22.9C144.6,15.2,148.3,19,148.3,19
						z"/>
				</defs>
				<clipPath id="SVGID_2_">
					<use xlink:href="#SVGID_1_"  style="overflow:visible;"/>
				</clipPath>
				<path class="st1" d="M155.1,25.7c0,0,13.8,24.2,11.7,33.7c-2.2,9.5-16.8,20.3-11.2,27.6c5.6,7.3,13.8,10.4,10.4,19.4
					c-3.5,9.1-9.1,14.7-9.1,14.7"/>
			</g>
		</g>
		<g>
			<g>
				<defs>
					<path id="SVGID_3_" d="M148.3,19c0,0,25.5,24.6,26.6,36.9s-17.7,22.3-12.3,26.3c5.4,4,20.3,14.6,14.6,23.7
						c-5.7,9.2-8.6,11.4-6.6,13.4s6.9,3.7,6.6,8.6c-0.3,4.9-6,9.2-6,9.2H80.8c0,0-4.9,0.3-4.3-6.6c0.6-6.9,10.3-10.6,8.6-15.7
						s-14.3-9.2-14.3-19.5S85.7,80.7,88,75.8s-7.4-8-9.4-14.3s8.3-17.2,14.6-22.9s31.5-22.3,41.5-22.9C144.6,15.2,148.3,19,148.3,19
						z"/>
				</defs>
				<clipPath id="SVGID_4_">
					<use xlink:href="#SVGID_3_"  style="overflow:visible;"/>
				</clipPath>
				<path class="st2" d="M93.4,58.9c0,0,8.6,13.4,6.5,17.3c-2.2,3.9-14.7,8.6-13,18.6c1.7,9.9,19.9,25.5,19.9,27.2"/>
			</g>
		</g>
		<g>
			<path id="XMLID_1_" class="st3" d="M148.3,19c0,0,25.5,24.6,26.6,36.9s-17.7,22.3-12.3,26.3c5.4,4,20.3,14.6,14.6,23.7
				c-5.7,9.2-8.6,11.4-6.6,13.4s6.9,3.7,6.6,8.6c-0.3,4.9-6,9.2-6,9.2H80.8c0,0-4.9,0.3-4.3-6.6c0.6-6.9,10.3-10.6,8.6-15.7
				s-14.3-9.2-14.3-19.5S85.7,80.7,88,75.8s-7.4-8-9.4-14.3s8.3-17.2,14.6-22.9s31.5-22.3,41.5-22.9C144.6,15.2,148.3,19,148.3,19z"
				/>
		</g>
	</g>
	<path class="st4" d="M181,123.5c0,0,34.6,54,39.7,60.4c5.1,6.5-0.5,17.1-8.3,22.6s-21,0.7-27.8-6.3s-13.7-23.6-13.7-23.6L181,123.5
		z"/>
	<path class="st4" d="M122.9,105.5c0,0-32.3,9.7-42.4,13.4c-10.1,3.7-12.9,4.2-12.9,7.8c0,2.1,7.7,43.9,6.9,79.8
		c-0.6,25.9-9.7,49.4-9.7,49.4h117.6c0,0-9.6-22-9.7-48.4c-0.1-37,9.4-82.3,8.3-83.9C179.1,120.7,127,105.1,122.9,105.5z"/>
	<g>
		<g>
			<path id="XMLID_5_" class="st0" d="M173,216.1c-4.2-3.3-9.7-8.7-12.3-16.1c-4.1-11.4-7.1-72.9-7.7-86.7c-2.2-0.7-4.4-1.3-6.5-2
				l0.9,57.8h-41.1l-3.6-57.5c-2.2,0.7-4.4,1.4-6.5,2c0,11.7,0,66.1-3.2,81.7c-2.5,12-13,20.1-19.4,24c-2.5,20.3-8.7,36.4-8.7,36.4
				h117.6C182.4,255.9,174.8,238.5,173,216.1z"/>
		</g>
		<g>
			<g>
				<defs>
					<path id="SVGID_5_" d="M173,216.1c-4.2-3.3-9.7-8.7-12.3-16.1c-4.1-11.4-7.1-72.9-7.7-86.7c-2.2-0.7-4.4-1.3-6.5-2l0.9,57.8
						h-41.1l-3.6-57.5c-2.2,0.7-4.4,1.4-6.5,2c0,11.7,0,66.1-3.2,81.7c-2.5,12-13,20.1-19.4,24c-2.5,20.3-8.7,36.4-8.7,36.4h117.6
						C182.4,255.9,174.8,238.5,173,216.1z"/>
				</defs>
				<clipPath id="SVGID_6_">
					<use xlink:href="#SVGID_5_"  style="overflow:visible;"/>
				</clipPath>
				<g class="st5">
					<path class="st6" d="M97.5,113.3c-0.4,0.1-0.9,0.3-1.3,0.4c0,11.7,0,66.1-3.2,81.7c-0.2,0.9-0.4,1.7-0.7,2.5v57.9h5.3V113.3
						H97.5z"/>
					<rect x="114.4" y="169.2" class="st6" width="5.3" height="86.7"/>
					<path class="st6" d="M70,238.3v17.6h5.3v-37.6c-0.6,0.4-1.2,0.8-1.8,1.2C72.6,226.4,71.4,232.8,70,238.3z"/>
					<path class="st6" d="M86.4,208.5c-1.6,2-3.4,3.8-5.3,5.4v42h5.3V208.5z"/>
					<polygon class="st6" points="103.3,121.8 103.3,255.9 108.6,255.9 108.6,169.2 106.3,169.2 					"/>
					<path class="st6" d="M158.8,190.7v65.1h5.3v-49.3c-1.3-2-2.5-4.2-3.3-6.5C160,198.2,159.4,194.9,158.8,190.7z"/>
					<path class="st6" d="M169.9,213.4v42.4h5.3v-24.7c-0.9-4.6-1.7-9.7-2.1-15C172,215.4,170.9,214.5,169.9,213.4z"/>
					<path class="st6" d="M152.9,113.3c-1.8-0.5-3.5-1.1-5.3-1.6v144.1h5.3V113.3z"/>
					<rect x="136.6" y="169.2" class="st6" width="5.3" height="86.7"/>
					<rect x="125.5" y="169.2" class="st6" width="5.3" height="86.7"/>
				</g>
			</g>
		</g>
		<g>
			<path id="XMLID_2_" class="st3" d="M173,216.1c-4.2-3.3-9.7-8.7-12.3-16.1c-4.1-11.4-7.1-72.9-7.7-86.7c-2.2-0.7-4.4-1.3-6.5-2
				l0.9,57.8h-41.1l-3.6-57.5c-2.2,0.7-4.4,1.4-6.5,2c0,11.7,0,66.1-3.2,81.7c-2.5,12-13,20.1-19.4,24c-2.5,20.3-8.7,36.4-8.7,36.4
				h117.6C182.4,255.9,174.8,238.5,173,216.1z"/>
		</g>
	</g>
	<path class="st4" d="M149.7,112.5c0-10-7.4-15.4-13.7-16.6c-6.3-1.1-16.9,1.1-16.9,1.1s-12,4.3-14.3,9.2c-2.3,4.9-1.1,24-3.1,29.8
		c-2,5.7-6.9,10-4.3,10.3c2.6,0.3,10.3-11.4,14.3-10s14.9,16.3,15.7,16.3c0.8,0,9.2-10,10.9-13.2c1.7-3.1,8,1.7,10.9,8.9
		s3.7,4.6,3.7,2s-3.4-13.7-2.9-15.7C150.6,132.5,149.7,122.5,149.7,112.5"/>
	<g>
		<path class="st4" d="M113.7,89.9v32.3c0,0,10.6,34.9,14.3,32.3c3.7-2.6,12.3-30.9,12.3-30.9V90.2
			C140.3,90.2,127.1,95.9,113.7,89.9z"/>
		<path class="st7" d="M113.7,89.9v6.7c5.3,3.1,11.6,5.1,17.3,5.1c3.3,0,6.4-0.9,9.3-2.3v-9.3C140.3,90.2,127.1,95.9,113.7,89.9z"/>
	</g>
	<g>
		<path class="st4" d="M102.8,54.7c0,0-6.3-8.3-10-2.3s6,17.2,8.9,16.9C104.5,69,102.8,54.7,102.8,54.7z"/>
		<path class="st4" d="M153.4,54.7c0,0,6.3-8.3,10-2.3s-6,17.2-8.9,16.9C151.7,69,153.4,54.7,153.4,54.7z"/>
		<g>
			<path class="st4" d="M102,43.1c0,0-3.2,28.6-0.4,36.9s17.5,17.5,29.4,17.5s21.8-11.5,23.4-18.3c1.6-6.7-2-50-4.4-54.8
				s-17.5-5.2-32.5,2.4C102.4,34.4,102,43.1,102,43.1z"/>
			<path class="st3" d="M131.7,47.6c0,0-2.6,6.9-0.3,10.9s0.9,6.9-1.7,6.9c-2.6,0-3.7-4.3-3.7-4.3"/>
			<path class="st3" d="M117.1,68.2c0,0,12,8.3,22.6,0"/>
			<path class="st3" d="M134.3,43.6c0,0,5.1-5.7,11.2,0.6"/>
			<path class="st3" d="M122.6,43c0,0-5.1-5.4-11.4-0.6"/>
			<ellipse class="st0" cx="139.1" cy="52.1" rx="1.7" ry="3.4"/>
			<ellipse class="st0" cx="117.7" cy="52.1" rx="1.7" ry="3.4"/>
			<path class="st3" d="M109.4,57c0,0,4.9-0.9,8.9,0"/>
			<path class="st3" d="M138.6,57.3c0,0,3.7-0.9,8.6,0"/>
		</g>
	</g>
	<g>
		<g>
			<path id="XMLID_4_" class="st0" d="M88.2,59.6c0,0,44.9-18.6,55.8-27.2s13.7-25.2-11.7-24.3C106.8,9,79.9,38.7,77.7,52.4
				c-2.3,13.7,6.9,10.9,6.9,10.9"/>
		</g>
		<g>
			<g>
				<defs>
					<path id="SVGID_7_" d="M88.2,59.6c0,0,44.9-18.6,55.8-27.2s13.7-25.2-11.7-24.3C106.8,9,79.9,38.7,77.7,52.4
						c-2.3,13.7,6.9,10.9,6.9,10.9"/>
				</defs>
				<clipPath id="SVGID_8_">
					<use xlink:href="#SVGID_7_"  style="overflow:visible;"/>
				</clipPath>
				<path class="st8" d="M149.5,8.8c0,0-13.4,17.7-37.1,31.5S73.5,56.7,73.5,56.7"/>
			</g>
		</g>
		<g>
			<g>
				<defs>
					<path id="SVGID_9_" d="M88.2,59.6c0,0,44.9-18.6,55.8-27.2s13.7-25.2-11.7-24.3C106.8,9,79.9,38.7,77.7,52.4
						c-2.3,13.7,6.9,10.9,6.9,10.9"/>
				</defs>
				<clipPath id="SVGID_10_">
					<use xlink:href="#SVGID_9_"  style="overflow:visible;"/>
				</clipPath>
				<path class="st9" d="M132.7,4.5c0,0-21.2,33.2-60.4,46.2"/>
			</g>
		</g>
		<g>
			<path id="XMLID_3_" class="st3" d="M88.2,59.6c0,0,44.9-18.6,55.8-27.2s13.7-25.2-11.7-24.3C106.8,9,79.9,38.7,77.7,52.4
				c-2.3,13.7,6.9,10.9,6.9,10.9"/>
		</g>
	</g>
	<g>
		<path class="st4" d="M183.8,162.5c0,0-5.3-2.3-11.5-4.4c-6.2-2.1-9.7,2.1-7.1,5.8c2.5,3.7,11.5,4.4,15.9,8.3s7.8,16.6,12.2,18.9
			c4.4,2.3,9.2,2.8,9.2,2.8v-31.4L183.8,162.5L183.8,162.5z"/>
		<g>
			<polygon class="st10" points="210.9,200.2 184.6,200.2 178.7,145.9 216.8,145.9 			"/>
			<g>
				<polygon class="st4" points="217.7,137.4 177.8,137.4 174.3,144.7 221.6,144.7 				"/>
				<polygon class="st4" points="179.3,147.1 217,147.1 220.3,144.7 175.6,144.7 				"/>
			</g>
			<polygon class="st4" points="212.5,185.3 215.9,154.2 179.6,154.2 183,185.3 			"/>
		</g>
		<g>
			<path class="st4" d="M221.1,163.6c0,0-12.2,0.2-14.5,2.5s-1.6,5.1,2.8,5.5s10.8,1.4,14.3,0.5
				C227.1,171.2,227.1,163.6,221.1,163.6z"/>
			<path class="st4" d="M218.3,188.3c0,0-9.7,0.2-11.5,2s-1.3,4,2.2,4.4s8.6,1.1,11.3,0.4C223.1,194.3,223.1,188.3,218.3,188.3z"/>
			<path class="st4" d="M223.4,173.1c0,0-15.9,0-19.8,0.7s-5.3,4.6,0.5,5.8s17.5,1.8,21.2,1.4S229.2,172.9,223.4,173.1z"/>
			<path class="st4" d="M222.5,181.4c0,0-12.7-0.5-17.1,1.2s-2.8,3.9,1.4,4.8c4.2,0.9,13.4,2.1,16.8,0.9
				C227.1,187.2,227.1,180.9,222.5,181.4z"/>
		</g>
	</g>
	<g>
		<path class="st4" d="M26.4,100c0,0-2.4,1.5-0.7,8.8s1.7,7.3,1.7,7.3l10.5-2c0,0-4.6-8.3-6.6-12C29.3,98.5,26.9,99,26.4,100z"/>
		<g>
			<path class="st10" d="M18.1,113.4c0,0,33.5-5.6,43.5-9.1c10-3.4,20.1-5.4,23-6.1s6.1-0.7,6.1-0.7s1,0,0.7,4.2
				c-0.2,4.2,5.4,58.2,10.5,74.9c5.1,16.6,8.3,24.5,8.3,24.5s-30.1,6.1-58,6.1s-45-3.9-46-3.9s12-48.9,11.5-65.6
				C17.3,120.8,18.1,113.4,18.1,113.4z"/>
			<path class="st11" d="M102,176.5c-5.1-16.6-10.8-70.7-10.5-74.9c0.2-4.2-0.7-4.2-0.7-4.2s-1.5,0-3.4,0.2c-0.2,1.7,0,3.2,0,3.2
				s-0.2,26.7-1,58.2c-0.6,26.2-0.2,41.2-0.1,45.6c13.9-1.7,24-3.8,24-3.8S107.1,193.2,102,176.5z"/>
			<path class="st11" d="M90.2,98.8c0,0,0,8.3,0,12.2s0.7,5.9-0.7,5.9S75.8,119.1,56,123s-36.7,4.9-38.2,4.9s0.2-14.4,0.2-14.4
				s37.2-5.9,49.2-9.8S89,98.1,89,98.1"/>
		</g>
		<path class="st4" d="M47.4,90c0,0,2.4-5.6,9.1-2c6.6,3.7,11,16.9,10,19.6s-4.2,3.4-6.8,0.7c-2.7-2.7-9.5-12.5-11.3-15.2
			C46.7,90.4,47.4,90,47.4,90z"/>
		<path class="st4" d="M40.1,93.4c0,0,12.4,18,14.7,19.6c2.2,1.5,6.6,2.4,5.4-2.9c-1.2-5.1-5.9-14.9-9.1-18.3
			c-3.2-3.4-5.4-3.9-8.1-2.4C40.3,90.7,39.6,91.4,40.1,93.4z"/>
		<path class="st4" d="M41.1,92.4c0,0,11.5,14.7,12.5,18.1s-1,9.1-6.1,5.9S37.7,102.7,34.8,99C31.8,95.3,36.9,89.7,41.1,92.4z"/>
		<path class="st4" d="M34.2,96.1c0,0-7.3,1-8.3,4.9s5.4,12.5,10.5,13.9c5.1,1.5,6.6-2.7,5.1-6.1C40.1,105.4,36.7,96.8,34.2,96.1z"
			/>
	</g>
</g>
</svg>
