<?xml version="1.0" encoding="utf-8"?>
<!-- Generator: Adobe Illustrator 22.0.0, SVG Export Plug-In . SVG Version: 6.00 Build 0)  -->
<svg version="1.1" id="Calque_1" xmlns="http://www.w3.org/2000/svg" xmlns:xlink="http://www.w3.org/1999/xlink" x="0px" y="0px"
	 viewBox="0 0 996.8 1080" style="enable-background:new 0 0 996.8 1080;" xml:space="preserve">
<style type="text/css">
	.st0{fill:#F4F4F4;}
	.st1{fill:#A5A7AA;}
	.st2{fill:#554B49;}
	.st3{fill:#0590B5;}
	.st4{fill:#6E6F71;}
	.st5{fill:#0487A5;}
</style>
<path class="st0" d="M990.4,0c-3.7,2.2-7.9,8.4-11.4,11c-139.7,101.6-94.2,444.4-94.2,444.4c-16.7,406.9-161.7,564.1-252.5,623
	c-0.8,0.5-1.5,1-2.3,1.5l-13.7,0.2h-80H143V0H990.4z"/>
<path class="st1" d="M995.9,0c-3.7,2.2-7.4,4.6-10.9,7.2C845.3,108.8,864.7,455.4,864.7,455.4c-16.7,406.9-161.7,564.1-252.5,623
	c-0.8,0.5-1.5,1-2.3,1.5l-13.7,0.2h-80H123V0H995.9z"/>
<path class="st2" d="M942.9,0c-3.7,2.2-7.4,4.6-10.9,7.2C792.3,108.8,811.7,455.4,811.7,455.4c-16.7,406.9-161.7,564.1-252.5,623
	c-0.8,0.5-1.5,1-2.3,1.5l-13.7,0.2h-80H70V0H942.9z"/>
<path class="st3" d="M872.9,0c-3.7,2.2-7.4,4.6-10.9,7.2C722.3,108.8,741.8,455.4,741.8,455.4c-16.7,406.9-161.7,564.1-252.5,623
	c-0.8,0.5-1.5,1-2.3,1.5l-13.7,0.2h-80H0V0H872.9z"/>
<path class="st4" d="M487,1079.8c0.8-0.5,1.5-1,2.3-1.5l-1.1,1.6L487,1079.8z"/>
<g>
	<g>
		<path class="st5" d="M246.7,285.2c0,0-30.5,4-31.8,69.2c-1.3,65.1-22.7,102.7-44.1,101.7l-1.6,2.7c0,0,4.5,0.7,5.2,2.7
			c0,0,47.7-9.4,51.6-104.1C225.9,357.3,222.7,299.6,246.7,285.2"/>
		<path class="st5" d="M245.4,348.9c0,1.9-1.4,3.4-3.2,3.4H233c-1.8,0-3.2-1.5-3.2-3.4c0-1.9,1.5-3.4,3.2-3.4h9.1
			C243.9,345.6,245.4,347.1,245.4,348.9"/>
		<path class="st5" d="M245,358c0,1.9-1.5,3.4-3.2,3.4h-9.1c-1.8,0-3.2-1.5-3.2-3.4c0-1.9,1.5-3.4,3.2-3.4h9.1
			C243.6,354.7,245,356.2,245,358"/>
		<path class="st5" d="M244.7,367.1c0,1.8-1.5,3.4-3.2,3.4h-9.1c-1.8,0-3.2-1.5-3.2-3.4c0-1.9,1.5-3.4,3.2-3.4h9.1
			C243.3,363.7,244.7,365.2,244.7,367.1"/>
		<path class="st5" d="M242.5,376.1c0,1.8-1.5,3.4-3.2,3.4h-9.1c-1.8,0-3.2-1.5-3.2-3.4c0-1.8,1.4-3.4,3.2-3.4h9.1
			C241,372.8,242.5,374.3,242.5,376.1"/>
		<polygon class="st5" points="122.1,489.5 120.8,489.5 120.8,499.8 127.1,499.8 127.1,498.6 122.1,498.6 		"/>
		<path class="st5" d="M142.6,499.6l-0.4,0.1l-0.3,0c-0.7,0-1.1-0.4-1.1-1.1c-0.4,0.4-0.8,0.7-1.1,0.9c-0.4,0.2-0.7,0.3-1.2,0.3
			c-0.7,0-1.3-0.2-1.7-0.6c-0.4-0.4-0.6-0.9-0.6-1.5c0-0.5,0.1-0.9,0.3-1.3c0.2-0.4,0.6-0.6,1.1-0.8l0.5-0.1l0.7-0.1
			c0.9-0.1,1.5-0.2,1.7-0.3c0.2-0.1,0.3-0.3,0.3-0.7c0-0.8-0.5-1.2-1.6-1.2c-0.9,0-1.4,0.4-1.6,1.4h-1.1c0-0.8,0.2-1.3,0.7-1.7
			c0.5-0.4,1.2-0.6,2.1-0.6c0.8,0,1.4,0.2,1.9,0.5c0.5,0.4,0.7,0.8,0.7,1.5v4.1c0,0.3,0.1,0.4,0.4,0.4l0.4-0.1V499.6z M140.7,496.1
			l-0.1,0.1c-0.1,0.1-0.3,0.2-0.7,0.2l-1.2,0.2c-0.9,0.1-1.3,0.5-1.3,1.2c0,0.8,0.4,1.2,1.2,1.2c0.4,0,0.8-0.1,1.2-0.3
			c0.4-0.2,0.7-0.4,0.8-0.8c0.1-0.1,0.1-0.3,0.1-0.6V497v-0.1V496.1z"/>
		<polygon class="st5" points="172.2,491.4 167.2,491.4 167.2,493.6 171.5,493.6 171.5,495.5 167.2,495.5 167.2,499.8 165.1,499.8 
			165.1,489.5 172.2,489.5 		"/>
		<path class="st5" d="M189.4,495.7c0,1.2-0.4,2.2-1.1,3c-0.7,0.7-1.6,1.1-2.8,1.1c-1.2,0-2.1-0.4-2.8-1.1c-0.7-0.7-1-1.7-1-2.9
			c0-1.3,0.3-2.2,1-3c0.7-0.7,1.6-1.1,2.8-1.1c1.1,0,2.1,0.4,2.8,1.1C189,493.5,189.4,494.5,189.4,495.7 M187.3,495.9
			c0-1.6-0.6-2.5-1.8-2.5h-0.1c-0.5,0-0.9,0.2-1.2,0.6c-0.3,0.4-0.4,1-0.4,1.7c0,0.8,0.2,1.4,0.5,1.8c0.3,0.4,0.7,0.6,1.3,0.6
			c0.6,0,1-0.2,1.3-0.6C187.1,497.1,187.3,496.6,187.3,495.9"/>
		<path class="st5" d="M189.4,495.7c0,1.2-0.4,2.2-1.1,3c-0.7,0.7-1.6,1.1-2.8,1.1c-1.2,0-2.1-0.4-2.8-1.1c-0.7-0.7-1-1.7-1-2.9
			c0-1.3,0.3-2.2,1-3c0.7-0.7,1.6-1.1,2.8-1.1c1.1,0,2.1,0.4,2.8,1.1C189,493.5,189.4,494.5,189.4,495.7 M187.3,495.9
			c0-1.6-0.6-2.5-1.8-2.5h-0.1c-0.5,0-0.9,0.2-1.2,0.6c-0.3,0.4-0.4,1-0.4,1.7c0,0.8,0.2,1.4,0.5,1.8c0.3,0.4,0.7,0.6,1.3,0.6
			c0.6,0,1-0.2,1.3-0.6C187.1,497.1,187.3,496.6,187.3,495.9"/>
		<path class="st5" d="M206,499.5H204v-1.1c-0.5,0.9-1.3,1.3-2.3,1.3c-0.5,0-0.9-0.1-1.3-0.3c-0.4-0.2-0.7-0.5-0.9-0.9
			c-0.3-0.5-0.4-1-0.4-1.5v-0.1v-5.2h2v4.8c0,1,0.4,1.4,1.2,1.4c0.4,0,0.8-0.1,1.1-0.4c0.3-0.3,0.5-0.6,0.5-1v-0.1v-4.7h2V499.5z"/>
		<path class="st5" d="M206,499.5H204v-1.1c-0.5,0.9-1.3,1.3-2.3,1.3c-0.5,0-0.9-0.1-1.3-0.3c-0.4-0.2-0.7-0.5-0.9-0.9
			c-0.3-0.5-0.4-1-0.4-1.5v-0.1v-5.2h2v4.8c0,1,0.4,1.4,1.2,1.4c0.4,0,0.8-0.1,1.1-0.4c0.3-0.3,0.5-0.6,0.5-1v-0.1v-4.7h2V499.5z"/>
		<path class="st5" d="M220.7,493.8l-0.5,0c-1.2,0-1.9,0.6-1.9,1.7v4.2h-2v-7.8h1.9v1.4c0.5-1,1.2-1.6,2-1.6h0.5V493.8z"/>
		<path class="st5" d="M220.7,493.8l-0.5,0c-1.2,0-1.9,0.6-1.9,1.7v4.2h-2v-7.8h1.9v1.4c0.5-1,1.2-1.6,2-1.6h0.5V493.8z"/>
		<path class="st5" d="M236.5,494.4h-2c-0.2-0.8-0.6-1.3-1.3-1.3c-0.5,0-0.9,0.2-1.2,0.6c-0.3,0.4-0.4,1-0.4,1.8
			c0,1.6,0.5,2.4,1.5,2.4c0.4,0,0.7-0.1,0.9-0.4c0.2-0.2,0.4-0.6,0.4-1h2c-0.1,0.9-0.4,1.7-1,2.2c-0.6,0.5-1.4,0.8-2.4,0.8
			c-1.1,0-2-0.3-2.6-1c-0.6-0.7-0.9-1.6-0.9-2.9c0-1.4,0.3-2.4,0.9-3.2c0.6-0.7,1.5-1.1,2.7-1.1c1,0,1.8,0.3,2.4,0.8
			C236.2,492.7,236.5,493.5,236.5,494.4"/>
		<path class="st5" d="M252.4,499.5h-2v-4.8v-0.3c0-0.4-0.1-0.6-0.3-0.8c-0.2-0.2-0.5-0.3-0.9-0.3c-0.4,0-0.8,0.2-1.1,0.5
			c-0.3,0.3-0.4,0.7-0.4,1.2v4.6h-2V489h2v3.7c0.4-0.8,1.2-1.2,2.2-1.2c0.7,0,1.4,0.2,1.8,0.7c0.5,0.4,0.7,1,0.7,1.7v0.2V499.5z"/>
		<path class="st5" d="M269.3,496.1h-5.2l0.1,0.2c0.1,1.1,0.7,1.7,1.6,1.7c0.7,0,1.1-0.3,1.3-0.8h2.1c-0.2,0.8-0.6,1.4-1.2,1.8
			c-0.6,0.4-1.3,0.7-2.2,0.7c-1.1,0-2-0.4-2.7-1.1c-0.6-0.7-1-1.7-1-3.1c0-1.3,0.3-2.3,0.9-3c0.6-0.7,1.5-1.1,2.7-1.1
			c1.2,0,2,0.4,2.6,1.1c0.6,0.7,0.9,1.8,0.9,3.3V496.1z M267.3,494.7c-0.1-1.1-0.7-1.6-1.5-1.6c-0.9,0-1.4,0.5-1.5,1.6H267.3z"/>
		<path class="st5" d="M269.3,496.1h-5.2l0.1,0.2c0.1,1.1,0.7,1.7,1.6,1.7c0.7,0,1.1-0.3,1.3-0.8h2.1c-0.2,0.8-0.6,1.4-1.2,1.8
			c-0.6,0.4-1.3,0.7-2.2,0.7c-1.1,0-2-0.4-2.7-1.1c-0.6-0.7-1-1.7-1-3.1c0-1.3,0.3-2.3,0.9-3c0.6-0.7,1.5-1.1,2.7-1.1
			c1.2,0,2,0.4,2.6,1.1c0.6,0.7,0.9,1.8,0.9,3.3V496.1z M267.3,494.7c-0.1-1.1-0.7-1.6-1.5-1.6c-0.9,0-1.4,0.5-1.5,1.6H267.3z"/>
		<path class="st5" d="M282.7,499.5l-1.1,0c-1.4,0-2.1-0.5-2.1-1.4v-0.2v-4.8h-1v-1.5h1v-2.1h2v2.1h1.2v1.5h-1.2v4.3
			c0,0.4,0.2,0.5,0.7,0.5h0.6V499.5z"/>
		<path class="st5" d="M296.5,499.5l-1.1,0c-1.4,0-2.1-0.5-2.1-1.4v-0.2v-4.8h-1v-1.5h1v-2.1h2v2.1h1.3v1.5h-1.3v4.3
			c0,0.4,0.2,0.5,0.7,0.5h0.6V499.5z"/>
		<path class="st5" d="M313.3,496.1h-5.2l0.1,0.2c0.1,1.1,0.7,1.7,1.7,1.7c0.7,0,1.1-0.3,1.3-0.8h2c-0.2,0.8-0.6,1.4-1.2,1.8
			c-0.6,0.4-1.3,0.7-2.2,0.7c-1.1,0-2-0.4-2.7-1.1c-0.6-0.7-1-1.7-1-3.1c0-1.3,0.3-2.3,0.9-3c0.6-0.7,1.5-1.1,2.7-1.1
			c1.2,0,2,0.4,2.6,1.1c0.6,0.7,0.9,1.8,0.9,3.3V496.1z M311.2,494.7c-0.1-1.1-0.6-1.6-1.5-1.6c-0.9,0-1.4,0.5-1.5,1.6H311.2z"/>
		<path class="st5" d="M313.3,496.1h-5.2l0.1,0.2c0.1,1.1,0.7,1.7,1.7,1.7c0.7,0,1.1-0.3,1.3-0.8h2c-0.2,0.8-0.6,1.4-1.2,1.8
			c-0.6,0.4-1.3,0.7-2.2,0.7c-1.1,0-2-0.4-2.7-1.1c-0.6-0.7-1-1.7-1-3.1c0-1.3,0.3-2.3,0.9-3c0.6-0.7,1.5-1.1,2.7-1.1
			c1.2,0,2,0.4,2.6,1.1c0.6,0.7,0.9,1.8,0.9,3.3V496.1z M311.2,494.7c-0.1-1.1-0.6-1.6-1.5-1.6c-0.9,0-1.4,0.5-1.5,1.6H311.2z"/>
		<path class="st5" d="M99.4,515.2h237.3V269.8H99.4V515.2z M103.9,274.5h228.3v236.1H103.9V274.5z"/>
	</g>
	<g>
		<path class="st5" d="M365.2,514.9h236.7V270.1H365.2V514.9z M369.7,274.7h227.7v235.5H369.7V274.7z"/>
		<path class="st5" d="M464.8,358.5c-1.8,0-2.9,0.3-3.5,0.9c-0.5,0.6-0.8,1.9-0.8,4v32.1l-4.1,3.2l-42.8,0.2c-1.1,0-2-0.3-2.6-1
			c-0.7-0.6-1.1-1.4-1.1-2.3v-7c0-0.8,0.4-1.5,1.1-2.2c0.7-0.6,1.6-0.9,2.6-0.9h24.1V367c0-4.2,0.5-7.6,1.4-10.4
			c0.9-2.7,2.4-5,4.5-6.6c2.1-1.7,4.8-2.9,8.1-3.6c3.3-0.7,7.4-1.1,12.3-1.1h31.2c1.1,0,2,0.3,2.6,0.9c0.7,0.6,1,1.3,1,2.1v7
			c0,0.8-0.3,1.5-1,2.1c-0.7,0.6-1.6,0.9-2.6,0.9H464.8z"/>
		<path class="st5" d="M507.8,398.6c-1,0-1.8-0.3-2.6-0.8c-0.7-0.6-1.1-1.2-1.1-2v-59.5c0-1.7-0.3-2.8-0.8-3.4
			c-0.5-0.6-1.6-0.9-3.3-0.9h-69c-1.1,0-2-0.3-2.7-0.8c-0.7-0.6-1-1.3-1-2.1v-6.5c0-0.7,0.4-1.4,1.1-1.9c0.7-0.5,1.6-0.8,2.6-0.8
			h69.9c4.8,0,8.9,0.3,12.3,1c3.4,0.6,6.1,1.8,8.1,3.3c2.1,1.6,3.5,3.6,4.4,6.1c0.9,2.6,1.3,5.8,1.3,9.6v46.8h26.6
			c1.1,0,2,0.3,2.7,0.8c0.7,0.6,1,1.2,1,2v6.5c0,0.8-0.4,1.4-1,2c-0.7,0.5-1.6,0.8-2.7,0.8L507.8,398.6z"/>
		<path class="st5" d="M397.9,462.6c0,0.1,0,0.2,0,0.3c0,0.1,0,0.1,0.1,0.2c0.1,0,0.1,0.1,0.2,0.1c0.1,0,0.3,0,0.5,0l0,0.3h-0.6
			c-0.2,0-0.4,0-0.6,0h-0.3c-0.1,0-0.2,0-0.3,0h-0.3h-0.2l0-0.2c0.2,0,0.3,0,0.4-0.1c0.1,0,0.2-0.1,0.2-0.1c0-0.1,0.1-0.1,0.1-0.3
			c0-0.1,0-0.2,0-0.4v-4.5c0-0.1,0-0.2,0-0.3c0-0.1-0.1-0.1-0.1-0.2c-0.1,0-0.1-0.1-0.2-0.1c-0.1,0-0.3-0.1-0.4-0.1l0-0.2h0.2h0.3
			c0.1,0,0.2,0,0.3,0h0.3c0.2,0,0.3,0,0.5-0.1c0.2,0,0.4,0,0.5,0c0.3,0,0.5,0,0.8,0.1c0.3,0.1,0.5,0.1,0.7,0.2
			c0.2,0.1,0.4,0.3,0.5,0.5c0.1,0.2,0.2,0.5,0.2,0.8c0,0.2,0,0.4-0.1,0.6c-0.1,0.2-0.2,0.3-0.3,0.5c-0.1,0.2-0.2,0.3-0.4,0.4
			c-0.1,0.1-0.3,0.2-0.5,0.3c0.1,0.3,0.3,0.5,0.4,0.8c0.1,0.2,0.2,0.5,0.4,0.7c0.1,0.2,0.2,0.4,0.3,0.5c0.1,0.2,0.2,0.3,0.2,0.4
			c0.1,0.1,0.2,0.2,0.2,0.3c0,0.1,0.1,0.1,0.2,0.2c0.1,0,0.2,0.1,0.2,0.1c0.1,0,0.2,0,0.4,0l0,0.3h-0.5c-0.2,0-0.4,0-0.6,0h-0.2
			c-0.1,0-0.1,0-0.2,0c0-0.1-0.1-0.2-0.2-0.4c-0.1-0.2-0.2-0.4-0.3-0.6c-0.1-0.2-0.3-0.5-0.4-0.8c-0.1-0.3-0.3-0.6-0.5-0.9
			c0,0,0-0.1-0.1-0.1l-0.1-0.1c0,0-0.1,0-0.1,0c-0.1,0-0.1,0-0.2,0h-0.2h-0.1c-0.1,0-0.1,0-0.2,0V462.6z M397.9,460.2L397.9,460.2
			c0.1,0,0.2,0,0.2,0h0.2c0.5,0,0.9-0.1,1.2-0.4c0.3-0.2,0.4-0.6,0.4-1.2c0-0.4-0.1-0.8-0.4-1c-0.3-0.2-0.6-0.3-1-0.3
			c-0.1,0-0.2,0-0.3,0c-0.1,0-0.1,0.1-0.2,0.1c0,0.1-0.1,0.1-0.1,0.2c0,0.1,0,0.2,0,0.2V460.2z"/>
		<path class="st5" d="M410,462.7c-0.1,0.2-0.3,0.3-0.4,0.4c-0.1,0.1-0.3,0.2-0.4,0.3c-0.1,0.1-0.3,0.1-0.4,0.1c-0.1,0-0.2,0-0.3,0
			c-0.3,0-0.5-0.1-0.7-0.2c-0.2-0.1-0.4-0.2-0.6-0.4c-0.2-0.2-0.3-0.4-0.4-0.6c-0.1-0.2-0.1-0.5-0.1-0.8c0-0.3,0.1-0.6,0.1-0.8
			c0.1-0.2,0.2-0.5,0.4-0.7c0.2-0.2,0.4-0.3,0.6-0.4c0.2-0.1,0.5-0.2,0.7-0.2c0.2,0,0.4,0,0.5,0.1c0.2,0.1,0.3,0.2,0.4,0.3
			c0.1,0.1,0.2,0.3,0.3,0.4c0.1,0.2,0.1,0.4,0.1,0.6v0.1l0,0.1c0,0.1-0.1,0.2-0.2,0.2h-2.4c0,0.3,0.1,0.6,0.1,0.8
			c0.1,0.2,0.2,0.4,0.3,0.5c0.1,0.1,0.3,0.2,0.4,0.3c0.2,0.1,0.3,0.1,0.5,0.1c0.2,0,0.3,0,0.5-0.1c0.1-0.1,0.3-0.2,0.5-0.4
			L410,462.7z M409,461c0.1,0,0.1,0,0.2,0c0,0,0-0.1,0-0.2c0-0.1,0-0.2-0.1-0.3c0-0.1-0.1-0.2-0.2-0.3c-0.1-0.1-0.2-0.1-0.3-0.2
			c-0.1,0-0.2-0.1-0.4-0.1c-0.1,0-0.2,0-0.3,0.1c-0.1,0.1-0.2,0.1-0.3,0.2c-0.1,0.1-0.2,0.2-0.2,0.3c-0.1,0.1-0.1,0.3-0.1,0.4H409z"
			/>
		<path class="st5" d="M417.4,460.8c0-0.1,0-0.2-0.1-0.4c0-0.1-0.1-0.2-0.2-0.3c-0.1-0.1-0.2-0.1-0.3-0.2c-0.1,0-0.2-0.1-0.4-0.1
			c-0.1,0-0.2,0-0.2,0.1c-0.1,0-0.2,0.1-0.2,0.1c0,0.1-0.1,0.1-0.1,0.2c0,0.1-0.1,0.1-0.1,0.2c0,0.1,0,0.2,0.1,0.3
			c0.1,0.1,0.1,0.1,0.2,0.2c0.1,0.1,0.2,0.1,0.3,0.2c0.1,0.1,0.2,0.1,0.3,0.2c0.1,0,0.3,0.1,0.4,0.2c0.1,0.1,0.2,0.1,0.4,0.2
			c0.1,0.1,0.2,0.2,0.2,0.3c0.1,0.1,0.1,0.3,0.1,0.4c0,0.2,0,0.4-0.1,0.5c-0.1,0.2-0.2,0.3-0.3,0.4c-0.1,0.1-0.3,0.2-0.4,0.2
			c-0.2,0-0.4,0.1-0.5,0.1c-0.1,0-0.2,0-0.3,0c-0.1,0-0.2,0-0.3-0.1c-0.1,0-0.2,0-0.3-0.1c-0.1,0-0.2,0-0.3,0c0-0.1,0-0.2,0-0.3
			c0-0.1,0-0.2,0-0.4c0-0.1,0-0.2,0-0.3c0-0.1,0-0.2-0.1-0.2l0.2-0.1c0.1,0.1,0.1,0.3,0.2,0.4c0.1,0.1,0.2,0.3,0.3,0.4
			c0.1,0.1,0.2,0.2,0.3,0.3c0.1,0.1,0.3,0.1,0.5,0.1c0.2,0,0.3-0.1,0.4-0.1c0.1-0.1,0.2-0.2,0.2-0.4c0-0.1,0-0.2-0.1-0.3
			c-0.1-0.1-0.1-0.1-0.2-0.2c-0.1-0.1-0.2-0.1-0.3-0.2c-0.1,0-0.2-0.1-0.3-0.1c-0.1-0.1-0.3-0.1-0.4-0.2c-0.1-0.1-0.2-0.1-0.4-0.2
			c-0.1-0.1-0.2-0.2-0.2-0.3c-0.1-0.1-0.1-0.3-0.1-0.4c0-0.2,0-0.4,0.1-0.5c0.1-0.2,0.2-0.3,0.3-0.4c0.1-0.1,0.3-0.1,0.4-0.2
			c0.2,0,0.3-0.1,0.5-0.1c0.2,0,0.3,0,0.5,0.1c0.2,0,0.4,0.1,0.6,0.1c0,0.1,0,0.3,0,0.4c0,0.1,0,0.3,0,0.4v0.3H417.4z"/>
		<path class="st5" d="M424,458.3c0,0.1,0,0.2,0,0.4c0,0.1,0,0.3,0,0.4v0.4v0.3l1.1,0l0.1,0.1l0,0.3H424v2.1c0,0.2,0,0.3,0,0.4
			c0,0.1,0.1,0.2,0.1,0.3c0.1,0.1,0.1,0.1,0.2,0.2c0.1,0,0.2,0,0.2,0c0.1,0,0.2,0,0.3,0c0.1,0,0.2,0,0.3-0.1l0,0.3
			c-0.2,0.1-0.3,0.1-0.5,0.2c-0.2,0-0.4,0.1-0.6,0.1c-0.1,0-0.2,0-0.3-0.1c-0.1,0-0.2-0.1-0.3-0.2c-0.1-0.1-0.1-0.2-0.2-0.3
			c0-0.1-0.1-0.3-0.1-0.5v-0.2V462v-0.7v-1.1h-0.6l-0.1,0l0-0.3l0.6-0.1v-0.5v-0.4v-0.3c0,0,0.1-0.1,0.2-0.1
			c0.1-0.1,0.1-0.1,0.2-0.1c0.1,0,0.1,0,0.2,0C423.9,458.3,423.9,458.3,424,458.3L424,458.3z"/>
		<path class="st5" d="M432.3,461.3L432.3,461.3v-0.6c0-0.2-0.1-0.4-0.2-0.6c-0.1-0.1-0.3-0.2-0.5-0.2c-0.1,0-0.2,0-0.3,0.1
			c-0.1,0.1-0.1,0.1-0.2,0.2c-0.1,0.1-0.1,0.1-0.1,0.2c0,0.1-0.1,0.2-0.1,0.3c-0.1,0.1-0.1,0.1-0.3,0.1c-0.1,0-0.2,0-0.3-0.1
			c-0.1-0.1-0.1-0.1-0.1-0.2c0-0.1,0-0.1,0.1-0.2c0.1-0.1,0.1-0.1,0.2-0.2c0.1-0.1,0.2-0.2,0.3-0.2c0.1-0.1,0.2-0.1,0.3-0.2
			c0.3-0.1,0.6-0.2,0.8-0.2c0.2,0,0.3,0,0.4,0c0.1,0,0.2,0.1,0.3,0.2c0.1,0.1,0.2,0.2,0.2,0.3c0.1,0.1,0.1,0.3,0.1,0.4
			c0,0.3,0,0.6,0,0.9c0,0.4,0,0.7,0,1.2c0,0.2,0,0.3,0.1,0.4c0.1,0.1,0.2,0.1,0.3,0.1c0.1,0,0.2,0,0.3-0.1l0.1,0.2
			c-0.1,0.1-0.2,0.2-0.4,0.2c-0.1,0.1-0.3,0.1-0.4,0.1c-0.1,0-0.3-0.1-0.4-0.1c-0.1-0.1-0.2-0.2-0.3-0.4c0,0-0.1,0.1-0.2,0.1
			c-0.1,0.1-0.2,0.1-0.3,0.2c-0.1,0-0.2,0.1-0.4,0.2c-0.1,0.1-0.3,0.1-0.4,0.1c-0.1,0-0.3,0-0.4-0.1c-0.1-0.1-0.2-0.1-0.3-0.2
			c-0.1-0.1-0.1-0.2-0.2-0.3c0-0.1-0.1-0.2-0.1-0.4c0-0.2,0.1-0.4,0.2-0.6c0.1-0.1,0.3-0.3,0.5-0.4c0.1-0.1,0.3-0.1,0.6-0.2
			C431.6,461.4,431.9,461.4,432.3,461.3 M432.3,462.7c0-0.2,0-0.4,0-0.5c0-0.2,0-0.4,0-0.6c-0.1,0-0.2,0-0.4,0.1
			c-0.1,0-0.2,0-0.3,0.1c-0.1,0-0.2,0.1-0.3,0.1c-0.1,0-0.2,0.1-0.3,0.2c-0.1,0.1-0.2,0.2-0.2,0.4c0,0.2,0,0.4,0.1,0.5
			c0.1,0.1,0.2,0.2,0.4,0.2c0.1,0,0.3,0,0.4-0.1C432,462.9,432.1,462.9,432.3,462.7"/>
		<path class="st5" d="M441.5,463.5c0-0.1,0-0.2,0-0.3c0-0.1,0-0.2,0-0.3c-0.2,0.2-0.5,0.4-0.7,0.5c-0.3,0.1-0.5,0.2-0.7,0.2
			c-0.2,0-0.3,0-0.4-0.1c-0.1-0.1-0.2-0.1-0.4-0.2c-0.1-0.1-0.2-0.3-0.2-0.4c-0.1-0.2-0.1-0.4-0.1-0.7v-1.6c0-0.1,0-0.2,0-0.3
			c0-0.1,0-0.1-0.1-0.2c0,0-0.1-0.1-0.2-0.1c-0.1,0-0.2-0.1-0.3-0.1v-0.2c0.1,0,0.3-0.1,0.4-0.1c0.1,0,0.3,0,0.4-0.1
			c0.1,0,0.2,0,0.3-0.1c0.1,0,0.1,0,0.2-0.1l0,0.1c0,0.1,0,0.2,0,0.4c0,0.1,0,0.3,0,0.4v0.3v0.3v1c0,0.2,0,0.4,0,0.5
			c0,0.1,0.1,0.3,0.2,0.4c0.1,0.1,0.1,0.1,0.2,0.2c0.1,0,0.2,0,0.3,0c0.2,0,0.4,0,0.5-0.1c0.2-0.1,0.4-0.2,0.5-0.3v-2
			c0-0.1,0-0.2,0-0.3c0-0.1,0-0.1-0.1-0.2c0,0-0.1-0.1-0.2-0.1c-0.1,0-0.2-0.1-0.4-0.1v-0.2c0.1,0,0.3-0.1,0.4-0.1
			c0.1,0,0.3,0,0.4-0.1c0.1,0,0.2-0.1,0.3-0.1c0.1,0,0.1,0,0.2-0.1l0.1,0.1c0,0.1,0,0.2,0,0.4c0,0.1,0,0.3,0,0.4c0,0.1,0,0.2,0,0.3
			v0.3v1.6c0,0.1,0,0.2,0,0.3c0,0.1,0,0.1,0.1,0.2c0,0,0.1,0.1,0.2,0.1c0.1,0,0.2,0.1,0.4,0.1l0,0.2c-0.1,0-0.3,0-0.4,0.1
			c-0.1,0-0.3,0-0.4,0c-0.1,0-0.2,0.1-0.3,0.1C441.7,463.5,441.6,463.6,441.5,463.5L441.5,463.5z"/>
		<path class="st5" d="M449.9,463.5h-0.3h-0.3c-0.1,0-0.2,0-0.4,0h-0.3c-0.2,0-0.4,0-0.5,0h-0.4v-0.2c0.1,0,0.3,0,0.3-0.1
			c0.1,0,0.2-0.1,0.2-0.1c0-0.1,0.1-0.1,0.1-0.3c0-0.1,0-0.2,0-0.4v-1.7c0-0.1,0-0.2,0-0.3c0-0.1,0-0.1-0.1-0.2c0,0-0.1-0.1-0.2-0.1
			c-0.1,0-0.2,0-0.3-0.1l0-0.2c0.1,0,0.2-0.1,0.4-0.1c0.1,0,0.2-0.1,0.4-0.1c0.1,0,0.2-0.1,0.3-0.1c0.1,0,0.2-0.1,0.2-0.1l0.1,0
			c0,0.1,0,0.3,0,0.4c0,0.1,0,0.3,0,0.4c0.1-0.2,0.3-0.3,0.4-0.4c0.1-0.1,0.2-0.2,0.3-0.3c0.1-0.1,0.2-0.1,0.3-0.1
			c0.1,0,0.2,0,0.2,0c0.1,0,0.2,0,0.3,0.1c0.1,0.1,0.1,0.2,0.1,0.3c0,0.1-0.1,0.2-0.1,0.3c-0.1,0.1-0.2,0.2-0.3,0.3
			c-0.1-0.1-0.1-0.1-0.2-0.2c-0.1,0-0.2,0-0.3,0c-0.1,0-0.2,0-0.3,0.1c-0.1,0.1-0.2,0.2-0.3,0.4c0,0,0,0.1,0,0.1c0,0,0,0.1,0,0.1
			v1.6c0,0.1,0,0.2,0,0.2c0,0.1,0,0.1,0.1,0.2c0.1,0,0.1,0.1,0.3,0.1c0.1,0,0.3,0,0.4,0L449.9,463.5z"/>
		<path class="st5" d="M457.8,461.3L457.8,461.3v-0.6c0-0.2-0.1-0.4-0.2-0.6c-0.1-0.1-0.3-0.2-0.5-0.2c-0.1,0-0.2,0-0.3,0.1
			c-0.1,0.1-0.2,0.1-0.2,0.2c0,0.1-0.1,0.1-0.1,0.2c0,0.1,0,0.2,0,0.3c-0.1,0.1-0.2,0.1-0.3,0.1c-0.1,0-0.2,0-0.3-0.1
			c-0.1-0.1-0.1-0.1-0.1-0.2c0-0.1,0-0.1,0.1-0.2c0.1-0.1,0.1-0.1,0.2-0.2c0.1-0.1,0.2-0.2,0.3-0.2c0.1-0.1,0.2-0.1,0.3-0.2
			c0.3-0.1,0.6-0.2,0.8-0.2c0.1,0,0.3,0,0.4,0c0.1,0,0.2,0.1,0.3,0.2c0.1,0.1,0.2,0.2,0.2,0.3c0.1,0.1,0.1,0.3,0.1,0.4
			c0,0.3,0,0.6,0,0.9v1.2c0,0.2,0,0.3,0.1,0.4c0.1,0.1,0.1,0.1,0.3,0.1c0.1,0,0.2,0,0.3-0.1l0.1,0.2c-0.1,0.1-0.2,0.2-0.4,0.2
			c-0.1,0.1-0.3,0.1-0.4,0.1c-0.1,0-0.3-0.1-0.4-0.1c-0.1-0.1-0.2-0.2-0.2-0.4c-0.1,0-0.1,0.1-0.2,0.1c-0.1,0.1-0.2,0.1-0.3,0.2
			c-0.1,0-0.2,0.1-0.4,0.2c-0.1,0.1-0.3,0.1-0.4,0.1c-0.1,0-0.3,0-0.4-0.1c-0.1-0.1-0.2-0.1-0.3-0.2c-0.1-0.1-0.1-0.2-0.2-0.3
			c0-0.1-0.1-0.2-0.1-0.4c0-0.2,0.1-0.4,0.2-0.6c0.1-0.1,0.3-0.3,0.5-0.4c0.1-0.1,0.3-0.1,0.6-0.2
			C457.2,461.4,457.5,461.4,457.8,461.3 M457.8,462.7v-0.5c0-0.2,0-0.4,0-0.6c-0.1,0-0.2,0-0.3,0.1c-0.1,0-0.2,0-0.4,0.1
			c-0.1,0-0.2,0.1-0.3,0.1c-0.1,0-0.2,0.1-0.3,0.2c-0.1,0.1-0.2,0.2-0.2,0.4c0,0.2,0,0.4,0.1,0.5c0.1,0.1,0.2,0.2,0.4,0.2
			c0.1,0,0.3,0,0.4-0.1C457.5,462.9,457.7,462.9,457.8,462.7"/>
		<path class="st5" d="M465.9,463.5h-0.5c-0.2,0-0.4,0-0.6,0c-0.2,0-0.3,0-0.5,0H464l0-0.2c0.1,0,0.3,0,0.3-0.1
			c0.1,0,0.2-0.1,0.2-0.1c0,0,0.1-0.1,0.1-0.2v-0.4v-1.7v-0.3c0-0.1-0.1-0.1-0.1-0.2c-0.1,0-0.1-0.1-0.2-0.1c-0.1,0-0.2,0-0.3-0.1
			l0-0.2c0.1,0,0.2-0.1,0.3-0.1c0.1,0,0.2-0.1,0.3-0.1c0.1,0,0.2-0.1,0.3-0.1c0.1,0,0.2-0.1,0.2-0.1l0.1,0c0,0.1,0,0.2,0,0.3
			c0,0.1,0,0.2,0,0.3c0.3-0.2,0.5-0.3,0.7-0.4c0.3-0.1,0.5-0.2,0.7-0.2c0.2,0,0.3,0,0.4,0.1c0.2,0.1,0.3,0.1,0.4,0.2
			c0.1,0.1,0.2,0.3,0.2,0.4c0.1,0.2,0.1,0.4,0.1,0.6v1.8c0,0.1,0,0.2,0,0.2c0,0.1,0,0.1,0.1,0.2c0,0,0.1,0.1,0.2,0.1
			c0.1,0,0.2,0,0.3,0l0,0.3h-0.4c-0.2,0-0.4,0-0.6,0c-0.2,0-0.3,0-0.5,0h-0.4l0-0.2c0.1,0,0.2,0,0.3-0.1c0.1,0,0.1-0.1,0.2-0.1
			c0-0.1,0.1-0.1,0.1-0.2c0-0.1,0-0.2,0-0.4v-1.4c0-0.4-0.1-0.6-0.2-0.8c-0.1-0.2-0.3-0.2-0.6-0.2c-0.2,0-0.3,0-0.5,0.1
			c-0.2,0.1-0.4,0.2-0.6,0.3v2.2c0,0.1,0,0.2,0,0.2c0,0.1,0,0.1,0.1,0.2c0,0,0.1,0.1,0.2,0.1c0.1,0,0.2,0,0.3,0L465.9,463.5z"/>
		<path class="st5" d="M474.7,458.3c0,0.1,0,0.2,0,0.4c0,0.1,0,0.3,0,0.4v0.4c0,0.1,0,0.2,0,0.3l1.1,0l0.1,0.1l0,0.3h-1.1v2.1
			c0,0.2,0,0.3,0,0.4c0,0.1,0.1,0.2,0.1,0.3c0.1,0.1,0.1,0.1,0.2,0.2c0.1,0,0.2,0,0.3,0c0.1,0,0.2,0,0.3,0c0.1,0,0.2,0,0.3-0.1
			l0,0.3c-0.2,0.1-0.3,0.1-0.5,0.2c-0.2,0-0.4,0.1-0.6,0.1c-0.1,0-0.2,0-0.4-0.1c-0.1,0-0.2-0.1-0.3-0.2c-0.1-0.1-0.1-0.2-0.2-0.3
			c0-0.1-0.1-0.3-0.1-0.5v-0.2V462v-0.7v-1.1h-0.6l0,0l0-0.3l0.6-0.1v-0.5v-0.4v-0.3c0.1,0,0.1-0.1,0.2-0.1c0.1-0.1,0.1-0.1,0.2-0.1
			c0.1,0,0.1,0,0.2,0C474.5,458.3,474.6,458.3,474.7,458.3L474.7,458.3z"/>
		<polygon class="st5" points="480.6,461.6 480.7,461.7 483,461.4 483,461.2 480.7,461.2 		"/>
		<path class="st5" d="M488.1,457.1h0.2h0.3c0.1,0,0.2,0,0.3,0h0.3c0.2,0,0.4,0,0.6,0c0.2,0,0.4,0,0.7,0c0.3,0,0.5,0,0.8,0.1
			c0.2,0,0.5,0.1,0.7,0.3c0.2,0.1,0.3,0.3,0.4,0.4c0.1,0.2,0.2,0.4,0.2,0.7c0,0.2,0,0.4-0.1,0.6c-0.1,0.1-0.2,0.3-0.3,0.4
			c-0.1,0.1-0.3,0.2-0.4,0.2c-0.1,0.1-0.3,0.1-0.4,0.2c0.5,0.1,0.8,0.2,1.1,0.5c0.3,0.3,0.4,0.7,0.4,1.1c0,0.3-0.1,0.6-0.2,0.9
			c-0.1,0.2-0.3,0.4-0.6,0.6c-0.2,0.1-0.5,0.3-0.8,0.3c-0.3,0-0.6,0.1-0.9,0.1c-0.2,0-0.4,0-0.6,0c-0.2,0-0.4,0-0.6,0h-0.3
			c-0.1,0-0.2,0-0.3,0h-0.3h-0.2l0-0.2c0.2,0,0.3,0,0.4-0.1c0.1,0,0.2-0.1,0.3-0.1c0.1-0.1,0.1-0.1,0.1-0.3c0-0.1,0-0.2,0-0.4v-4.5
			c0-0.1,0-0.2,0-0.3c0-0.1-0.1-0.1-0.1-0.2c-0.1,0-0.2-0.1-0.3-0.1c-0.1,0-0.3-0.1-0.4-0.1L488.1,457.1z M489.6,459.9h0.5
			c0.5,0,0.9-0.1,1.2-0.3c0.3-0.2,0.4-0.5,0.4-0.9c0-0.2,0-0.3-0.1-0.4c-0.1-0.2-0.1-0.3-0.2-0.4c-0.1-0.1-0.3-0.2-0.4-0.3
			c-0.2-0.1-0.4-0.1-0.7-0.1c-0.1,0-0.3,0-0.4,0c-0.1,0-0.1,0-0.2,0.1c0,0.1-0.1,0.1-0.1,0.2v0.2V459.9z M489.6,462.5
			c0,0.2,0,0.3,0,0.4c0,0.1,0,0.2,0.1,0.2c0.1,0.1,0.1,0.1,0.3,0.1c0.1,0,0.3,0,0.5,0c0.4,0,0.8-0.1,1.1-0.3
			c0.3-0.3,0.4-0.6,0.4-1.1c0-0.3,0-0.5-0.1-0.7c-0.1-0.2-0.2-0.4-0.4-0.5c-0.2-0.1-0.4-0.2-0.6-0.3c-0.2,0-0.5-0.1-0.8-0.1h-0.5
			V462.5z"/>
		<path class="st5" d="M500.1,461.3L500.1,461.3v-0.6c0-0.2-0.1-0.4-0.2-0.6c-0.1-0.1-0.3-0.2-0.5-0.2c-0.1,0-0.2,0-0.3,0.1
			c-0.1,0.1-0.2,0.1-0.2,0.2c-0.1,0.1-0.1,0.1-0.1,0.2c0,0.1,0,0.2,0,0.3c-0.1,0.1-0.2,0.1-0.3,0.1c-0.1,0-0.2,0-0.3-0.1
			c-0.1-0.1-0.1-0.1-0.1-0.2c0-0.1,0-0.1,0.1-0.2c0.1-0.1,0.1-0.1,0.2-0.2c0.1-0.1,0.1-0.2,0.3-0.2c0.1-0.1,0.2-0.1,0.3-0.2
			c0.3-0.1,0.6-0.2,0.9-0.2c0.1,0,0.3,0,0.4,0c0.1,0,0.2,0.1,0.3,0.2c0.1,0.1,0.1,0.2,0.2,0.3c0,0.1,0.1,0.3,0.1,0.4
			c0,0.3,0,0.6,0,0.9c0,0.4,0,0.7,0,1.2c0,0.2,0,0.3,0.1,0.4c0.1,0.1,0.2,0.1,0.3,0.1c0.1,0,0.2,0,0.3-0.1l0.1,0.2
			c-0.1,0.1-0.2,0.2-0.4,0.2c-0.1,0.1-0.3,0.1-0.4,0.1c-0.1,0-0.3-0.1-0.4-0.1c-0.1-0.1-0.2-0.2-0.3-0.4c0,0-0.1,0.1-0.2,0.1
			c-0.1,0.1-0.2,0.1-0.3,0.2c-0.1,0-0.2,0.1-0.4,0.2c-0.1,0.1-0.3,0.1-0.4,0.1c-0.2,0-0.3,0-0.4-0.1c-0.1-0.1-0.2-0.1-0.3-0.2
			c-0.1-0.1-0.1-0.2-0.2-0.3c0-0.1-0.1-0.2-0.1-0.4c0-0.2,0.1-0.4,0.2-0.6c0.1-0.1,0.3-0.3,0.5-0.4c0.2-0.1,0.4-0.1,0.6-0.2
			C499.5,461.4,499.8,461.4,500.1,461.3 M500.1,462.7c0-0.2,0-0.4,0-0.5v-0.6c-0.1,0-0.2,0-0.3,0.1c-0.1,0-0.2,0-0.4,0.1
			c-0.1,0-0.2,0.1-0.3,0.1c-0.1,0-0.2,0.1-0.2,0.2c-0.1,0.1-0.2,0.2-0.2,0.4c0,0.2,0,0.4,0.1,0.5c0.1,0.1,0.2,0.2,0.4,0.2
			c0.1,0,0.3,0,0.4-0.1C499.8,462.9,500,462.9,500.1,462.7"/>
		<path class="st5" d="M508.5,463.5h-0.2h-0.3c-0.1,0-0.2,0-0.3,0h-0.3c-0.2,0-0.3,0-0.5,0h-0.4l0-0.2c0.1,0,0.2,0,0.3-0.1
			c0.1,0,0.1-0.1,0.2-0.1c0-0.1,0.1-0.1,0.1-0.3c0-0.1,0-0.2,0-0.4v-1.7c0-0.1,0-0.2,0-0.3c0-0.1,0-0.1-0.1-0.2c0,0-0.1-0.1-0.2-0.1
			c-0.1,0-0.2,0-0.3-0.1l0-0.2c0.1,0,0.2-0.1,0.4-0.1c0.1,0,0.2-0.1,0.4-0.1c0.1,0,0.2-0.1,0.3-0.1c0.1,0,0.2-0.1,0.2-0.1l0.1,0
			c0,0.1-0.1,0.3-0.1,0.4v0.4c0.2-0.2,0.3-0.3,0.4-0.4c0.1-0.1,0.2-0.2,0.3-0.3c0.1-0.1,0.2-0.1,0.3-0.1c0.1,0,0.2,0,0.2,0
			c0.1,0,0.2,0,0.3,0.1c0.1,0.1,0.1,0.2,0.1,0.3c0,0.1,0,0.2-0.1,0.3c-0.1,0.1-0.2,0.2-0.3,0.3c-0.1-0.1-0.2-0.1-0.2-0.2
			c-0.1,0-0.2,0-0.3,0c-0.1,0-0.2,0-0.3,0.1c-0.1,0.1-0.2,0.2-0.3,0.4c0,0-0.1,0.1-0.1,0.1v0.1v1.6c0,0.1,0,0.2,0,0.2
			c0,0.1,0,0.1,0.1,0.2c0.1,0,0.1,0.1,0.2,0.1c0.1,0,0.3,0,0.4,0L508.5,463.5z"/>
		<polygon class="st5" points="514,461.6 514,461.7 516.4,461.4 516.4,461.2 514,461.2 		"/>
		<path class="st5" d="M523.8,457.3c-0.2,0-0.3,0-0.4,0.1c-0.1,0-0.2,0.1-0.2,0.1c-0.1,0.1-0.1,0.1-0.1,0.3c0,0.1,0,0.2,0,0.4v4.2
			c0,0.1,0,0.3,0,0.4c0,0.1,0,0.2,0.1,0.2c0,0.1,0.1,0.1,0.2,0.1c0.1,0,0.2,0,0.4,0h0.4c0.2,0,0.4,0,0.6-0.1c0.2,0,0.3-0.1,0.4-0.2
			c0.1-0.1,0.2-0.2,0.3-0.4c0.1-0.2,0.2-0.4,0.3-0.6l0.2,0.1c0,0.1-0.1,0.3-0.1,0.4c0,0.1-0.1,0.3-0.1,0.4c0,0.2-0.1,0.3-0.1,0.4
			c0,0.1-0.1,0.2-0.1,0.3h-1h-0.7h-0.5c-0.1,0-0.3,0-0.4,0h-0.3h-0.2h-0.3c-0.1,0-0.2,0-0.3,0h-0.3h-0.2l0-0.2c0.2,0,0.3,0,0.4-0.1
			c0.1,0,0.2-0.1,0.3-0.1c0-0.1,0.1-0.1,0.1-0.3c0-0.1,0-0.2,0-0.4v-4.5c0-0.1,0-0.2,0-0.3c0-0.1-0.1-0.1-0.1-0.2
			c-0.1,0-0.1-0.1-0.3-0.1c-0.1,0-0.3-0.1-0.4-0.1l0-0.2h0.2h0.3c0.1,0,0.2,0,0.4,0h0.3h0.3c0.1,0,0.2,0,0.3,0h0.3h0.2L523.8,457.3z
			"/>
		<path class="st5" d="M530.8,461.6c0-0.3,0.1-0.5,0.2-0.8c0.1-0.2,0.2-0.5,0.4-0.6c0.2-0.2,0.4-0.3,0.6-0.4
			c0.2-0.1,0.5-0.2,0.8-0.2c0.3,0,0.6,0,0.8,0.2c0.3,0.1,0.5,0.2,0.6,0.4c0.2,0.2,0.3,0.4,0.4,0.6c0.1,0.2,0.2,0.5,0.2,0.8
			c0,0.3-0.1,0.5-0.2,0.8c-0.1,0.2-0.2,0.5-0.4,0.6c-0.2,0.2-0.4,0.3-0.6,0.5c-0.2,0.1-0.5,0.2-0.8,0.2c-0.3,0-0.6-0.1-0.8-0.2
			c-0.2-0.1-0.4-0.2-0.6-0.4c-0.2-0.2-0.3-0.4-0.4-0.6C530.9,462.2,530.8,461.9,530.8,461.6 M532.9,463.3c0.2,0,0.3-0.1,0.5-0.1
			c0.1-0.1,0.2-0.2,0.3-0.4c0.1-0.1,0.2-0.3,0.2-0.5c0-0.2,0.1-0.4,0.1-0.5c0-0.2,0-0.4-0.1-0.7c0-0.2-0.1-0.4-0.2-0.6
			c-0.1-0.2-0.2-0.3-0.4-0.4c-0.1-0.1-0.4-0.2-0.6-0.2c-0.2,0-0.4,0-0.5,0.1c-0.1,0.1-0.2,0.2-0.3,0.4c-0.1,0.1-0.1,0.3-0.2,0.5
			c0,0.2-0.1,0.4-0.1,0.5c0,0.2,0,0.4,0.1,0.6c0.1,0.2,0.1,0.4,0.2,0.6c0.1,0.2,0.2,0.3,0.4,0.5
			C532.5,463.2,532.7,463.3,532.9,463.3"/>
		<path class="st5" d="M542.8,463.5c0-0.1,0-0.2,0-0.3V463c-0.2,0.2-0.5,0.4-0.7,0.5c-0.2,0.1-0.5,0.2-0.7,0.2c-0.2,0-0.3,0-0.4-0.1
			c-0.1-0.1-0.3-0.1-0.4-0.2c-0.1-0.1-0.2-0.3-0.2-0.4c0-0.2-0.1-0.4-0.1-0.7v-1.6c0-0.1,0-0.2,0-0.3c0-0.1,0-0.1-0.1-0.2
			c-0.1,0-0.1-0.1-0.2-0.1c-0.1,0-0.2-0.1-0.3-0.1v-0.2c0.1,0,0.3-0.1,0.4-0.1c0.1,0,0.3,0,0.4-0.1c0.1,0,0.2,0,0.3-0.1
			c0.1,0,0.2,0,0.2-0.1l0.1,0.1c0,0.1,0,0.2,0,0.4c0,0.1,0,0.3,0,0.4c0,0.1,0,0.2,0,0.3c0,0.1,0,0.2,0,0.3v1c0,0.2,0,0.4,0.1,0.5
			c0,0.1,0.1,0.3,0.1,0.4c0.1,0.1,0.2,0.1,0.3,0.2c0.1,0,0.2,0,0.3,0c0.2,0,0.4,0,0.5-0.1c0.2-0.1,0.4-0.2,0.5-0.3v-2
			c0-0.1,0-0.2,0-0.3c0-0.1,0-0.1-0.1-0.2c0,0-0.1-0.1-0.2-0.1c-0.1,0-0.2-0.1-0.4-0.1v-0.2c0.1,0,0.3-0.1,0.4-0.1
			c0.1,0,0.3,0,0.4-0.1c0.1,0,0.2-0.1,0.3-0.1c0.1,0,0.2,0,0.2-0.1l0.1,0.1c0,0.1,0,0.2,0,0.4c0,0.1,0,0.3,0,0.4c0,0.1,0,0.2,0,0.3
			c0,0.1,0,0.2,0,0.3v1.6c0,0.1,0,0.2,0,0.3c0,0.1,0,0.1,0.1,0.2c0.1,0,0.1,0.1,0.2,0.1c0.1,0,0.2,0.1,0.3,0.1l0,0.2
			c-0.1,0-0.2,0-0.4,0.1c-0.1,0-0.2,0-0.4,0c-0.1,0-0.2,0.1-0.3,0.1C543,463.5,542.9,463.6,542.8,463.5L542.8,463.5z"/>
		<path class="st5" d="M551.1,463.5h-0.4c-0.2,0-0.4,0-0.6,0c-0.2,0-0.3,0-0.5,0h-0.4l0-0.2c0.1,0,0.3,0,0.4-0.1
			c0.1,0,0.2-0.1,0.2-0.1c0.1,0,0.1-0.1,0.1-0.2c0-0.1,0-0.2,0-0.4v-1.7c0-0.1,0-0.2,0-0.3c0-0.1,0-0.1-0.1-0.2
			c-0.1,0-0.1-0.1-0.2-0.1c-0.1,0-0.2,0-0.3-0.1l0-0.2c0.1,0,0.2-0.1,0.3-0.1c0.1,0,0.2-0.1,0.4-0.1c0.1,0,0.2-0.1,0.3-0.1
			c0.1,0,0.2-0.1,0.2-0.1l0.1,0c0,0.1,0,0.2,0,0.3c0,0.1,0,0.2,0,0.3c0.2-0.2,0.5-0.3,0.7-0.4c0.3-0.1,0.5-0.2,0.7-0.2
			c0.2,0,0.3,0,0.4,0.1c0.1,0.1,0.3,0.1,0.4,0.2c0.1,0.1,0.2,0.3,0.2,0.4c0,0.2,0.1,0.4,0.1,0.6v1.8c0,0.1,0,0.2,0,0.2
			c0,0.1,0,0.1,0.1,0.2c0,0,0.1,0.1,0.2,0.1c0.1,0,0.2,0,0.3,0l0,0.3h-0.4c-0.2,0-0.4,0-0.6,0c-0.2,0-0.3,0-0.5,0h-0.4l0-0.2
			c0.1,0,0.3,0,0.3-0.1c0.1,0,0.1-0.1,0.2-0.1c0-0.1,0-0.1,0.1-0.2c0-0.1,0-0.2,0-0.4v-1.4c0-0.4-0.1-0.6-0.2-0.8
			c-0.1-0.2-0.3-0.2-0.6-0.2c-0.2,0-0.3,0-0.5,0.1c-0.2,0.1-0.4,0.2-0.6,0.3v2.2c0,0.1,0,0.2,0,0.2c0,0.1,0.1,0.1,0.1,0.2
			c0.1,0,0.1,0.1,0.2,0.1c0.1,0,0.2,0,0.3,0L551.1,463.5z"/>
		<path class="st5" d="M558.7,461.1c0-0.2,0.1-0.4,0.1-0.6c0.1-0.2,0.2-0.3,0.4-0.5c0.1-0.2,0.3-0.3,0.5-0.3
			c0.2-0.1,0.4-0.1,0.6-0.1c0.4,0,0.6,0.1,0.9,0.2c0,0.1,0.1,0.1,0.1,0.1c0.1,0,0.1,0,0.1,0c0.1,0,0.1,0,0.1,0l1-0.1l0,0.1l0,0.4
			h-0.9c0.2,0.2,0.2,0.5,0.2,0.8c0,0.3,0,0.5-0.1,0.7c-0.1,0.2-0.2,0.4-0.4,0.5c-0.2,0.1-0.3,0.2-0.5,0.3c-0.2,0.1-0.4,0.1-0.6,0.1
			c-0.2,0-0.3,0-0.5,0c-0.1,0-0.2,0.1-0.3,0.2c-0.1,0.1-0.1,0.2-0.1,0.3c0,0.1,0,0.1,0.1,0.2c0,0,0.1,0.1,0.2,0.1
			c0.1,0,0.1,0.1,0.2,0.1c0.1,0,0.1,0,0.2,0h0.5c0.2,0,0.4,0,0.5,0c0.2,0,0.4,0,0.5,0c0.2,0.1,0.3,0.1,0.5,0.2
			c0.1,0.1,0.3,0.2,0.3,0.4c0.1,0.1,0.1,0.3,0.1,0.6c0,0.3,0,0.5-0.2,0.8c-0.1,0.2-0.3,0.5-0.5,0.6c-0.2,0.2-0.5,0.3-0.8,0.4
			c-0.3,0.1-0.6,0.2-1,0.2c-0.2,0-0.4,0-0.6-0.1c-0.2,0-0.4-0.1-0.5-0.2c-0.2-0.1-0.3-0.2-0.4-0.4c-0.1-0.1-0.2-0.3-0.2-0.5
			c0-0.2,0-0.3,0.1-0.4c0-0.1,0.1-0.2,0.2-0.3c0.1-0.1,0.2-0.2,0.3-0.3c0.1-0.1,0.2-0.2,0.3-0.2c-0.2-0.1-0.3-0.2-0.4-0.3
			c-0.1-0.1-0.2-0.2-0.2-0.4c0-0.1,0-0.2,0.1-0.3c0.1-0.1,0.1-0.2,0.2-0.2c0.1-0.1,0.1-0.1,0.2-0.2c0.1-0.1,0.1-0.1,0.2-0.2
			C559,462.2,558.7,461.7,558.7,461.1 M560.4,464h-0.3c-0.1,0-0.2,0-0.2,0c-0.1,0-0.1,0-0.2,0.1c0,0-0.1,0.1-0.1,0.1
			c-0.1,0.1-0.2,0.2-0.3,0.4c-0.1,0.2-0.1,0.3-0.1,0.5c0,0.2,0,0.3,0.1,0.5c0.1,0.1,0.2,0.2,0.3,0.3c0.1,0.1,0.3,0.1,0.4,0.2
			c0.2,0.1,0.3,0.1,0.5,0.1c0.2,0,0.4,0,0.5-0.1c0.2,0,0.3-0.1,0.4-0.2c0.1-0.1,0.2-0.2,0.3-0.4c0.1-0.1,0.1-0.3,0.1-0.5
			c0-0.2,0-0.3-0.1-0.4c-0.1-0.1-0.2-0.2-0.3-0.3c-0.1-0.1-0.3-0.1-0.4-0.1c-0.1,0-0.3,0-0.5,0H560.4z M560.4,462.3
			c0.2,0,0.3,0,0.4-0.1c0.1-0.1,0.2-0.1,0.2-0.2c0.1-0.1,0.1-0.2,0.2-0.4c0-0.1,0-0.3,0-0.4c0-0.2,0-0.3,0-0.5
			c0-0.2-0.1-0.3-0.2-0.4c-0.1-0.1-0.1-0.2-0.3-0.3c-0.1-0.1-0.3-0.1-0.4-0.1c-0.1,0-0.3,0-0.4,0.1c-0.1,0.1-0.2,0.1-0.2,0.3
			c-0.1,0.1-0.1,0.2-0.1,0.4c0,0.1,0,0.2,0,0.4c0,0.1,0,0.3,0.1,0.5c0,0.1,0.1,0.3,0.1,0.4c0.1,0.1,0.2,0.2,0.3,0.3
			C560.1,462.3,560.3,462.3,560.4,462.3"/>
		<path class="st5" d="M570.7,462.7c-0.1,0.2-0.3,0.3-0.4,0.4c-0.1,0.1-0.3,0.2-0.4,0.3c-0.1,0.1-0.2,0.1-0.4,0.1
			c-0.1,0-0.2,0-0.2,0c-0.3,0-0.5-0.1-0.8-0.2c-0.2-0.1-0.4-0.2-0.6-0.4c-0.2-0.2-0.3-0.4-0.4-0.6c-0.1-0.2-0.1-0.5-0.1-0.8
			c0-0.3,0.1-0.6,0.2-0.8c0.1-0.2,0.3-0.5,0.4-0.7c0.2-0.2,0.4-0.3,0.6-0.4c0.2-0.1,0.5-0.2,0.7-0.2c0.2,0,0.4,0,0.5,0.1
			c0.2,0.1,0.3,0.2,0.5,0.3c0.1,0.1,0.2,0.3,0.3,0.4c0.1,0.2,0.1,0.4,0.1,0.6v0.1v0.1c0,0.1-0.1,0.2-0.2,0.2h-2.4
			c0,0.3,0,0.6,0.1,0.8c0.1,0.2,0.2,0.4,0.3,0.5c0.1,0.1,0.3,0.2,0.5,0.3c0.2,0.1,0.3,0.1,0.5,0.1c0.2,0,0.3,0,0.5-0.1
			c0.2-0.1,0.3-0.2,0.5-0.4L570.7,462.7z M569.8,461c0.1,0,0.1,0,0.2,0c0,0,0.1-0.1,0.1-0.2c0-0.1,0-0.2-0.1-0.3
			c0-0.1-0.1-0.2-0.2-0.3c-0.1-0.1-0.1-0.1-0.3-0.2c-0.1,0-0.2-0.1-0.4-0.1c-0.1,0-0.2,0-0.3,0.1c-0.1,0.1-0.2,0.1-0.3,0.2
			c-0.1,0.1-0.2,0.2-0.2,0.3c-0.1,0.1-0.1,0.3-0.1,0.4H569.8z"/>
		<path class="st5" d="M545.3,438h9.1c0.3,0,0.6-0.1,0.8-0.3c0.2-0.2,0.3-0.4,0.3-0.7V435c0-0.3-0.1-0.5-0.3-0.7
			c-0.2-0.2-0.5-0.3-0.8-0.3H545c-1.4,0-2.7,0.1-3.7,0.3c-1,0.2-1.8,0.6-2.4,1.1c-0.6,0.5-1.1,1.2-1.4,2c-0.3,0.8-0.4,1.9-0.4,3.1
			v5.6h-3.9v-24.1h-4.9v28h14.4l1.3-1v-9.7c0-0.6,0.1-1,0.2-1.2C544.4,438.1,544.7,438,545.3,438"/>
		<path class="st5" d="M576,446h-8v-15.3c0-1.3-0.1-2.3-0.4-3.1c-0.3-0.8-0.7-1.5-1.3-2c-0.6-0.5-1.4-0.9-2.4-1.1
			c-1-0.2-2.3-0.3-3.7-0.3h-21c-0.3,0-0.6,0.1-0.8,0.3c-0.2,0.1-0.3,0.4-0.3,0.6v2.1c0,0.3,0.1,0.5,0.3,0.7c0.2,0.2,0.5,0.3,0.8,0.3
			h20.8c0.5,0,0.8,0.1,1,0.3c0.1,0.2,0.2,0.6,0.2,1.1v19.6c0,0.2,0.1,0.4,0.3,0.7c0.2,0.2,0.5,0.3,0.8,0.3H576
			c0.3,0,0.6-0.1,0.8-0.3c0.2-0.2,0.3-0.4,0.3-0.7V447c0-0.2-0.1-0.5-0.3-0.6C576.6,446.1,576.3,446,576,446"/>
		<rect x="472.8" y="421.9" class="st5" width="4.9" height="33"/>
		<path class="st5" d="M513,421.4c-1.2,0-2.4,0.3-3.7,0.9c-0.6,0.3-1.3,0.8-2.1,1.5c-0.7,0.7-1.6,1.6-2.5,2.7c-1.1-3.4-3.6-5-7.6-5
			c-2.8,0-5.3,1.4-7.6,4.2V422h-4.8v28.1h4.8V430c2.2-3,4.5-4.5,6.9-4.5c1.5,0,2.6,0.5,3.2,1.5c0.7,1,1,2.6,1,5v18.1h4.8V430
			c2.2-3,4.5-4.5,6.9-4.5c1.5,0,2.6,0.5,3.3,1.5c0.6,1,1,2.6,1,5v18.1h4.8v-18.3C521.4,424.8,518.6,421.4,513,421.4"/>
		<rect x="528.3" y="411.2" class="st5" width="4.9" height="5.4"/>
		<polygon class="st5" points="457.7,432.5 468,422 461.9,422 451.5,433.3 451.5,416.6 451.5,416.6 451.5,411.4 451.5,411.4 
			450.1,411.4 446.6,411.4 446.6,450.1 451.5,450.1 451.5,438.9 454.5,435.8 463.3,450.1 469,450.1 		"/>
		<rect x="477.6" y="411.2" class="st5" width="46.7" height="5.3"/>
		<path class="st5" d="M416.4,433.5h-9.6c-1.5,0-2.7,0.1-3.8,0.3c-1,0.2-1.9,0.6-2.5,1.1c-0.6,0.5-1.1,1.2-1.4,2.1
			c-0.3,0.8-0.4,1.9-0.4,3.2v5.8h-7.4c-0.3,0-0.6,0.1-0.8,0.3c-0.2,0.2-0.3,0.4-0.3,0.7v2.2c0,0.3,0.1,0.5,0.3,0.7
			c0.2,0.2,0.5,0.3,0.8,0.3h13.2l1.3-1v-9.9c0-0.6,0.1-1,0.2-1.2c0.2-0.2,0.5-0.3,1.1-0.3h9.4c0.3,0,0.6-0.1,0.8-0.3
			c0.2-0.2,0.3-0.4,0.3-0.7v-2.2c0-0.3-0.1-0.5-0.3-0.7C417,433.6,416.8,433.5,416.4,433.5"/>
		<path class="st5" d="M434.7,411.2v34.7h-4.3v-15.5c0-1.3-0.1-2.4-0.4-3.2c-0.3-0.8-0.7-1.5-1.4-2c-0.6-0.5-1.5-0.9-2.5-1.1
			c-1-0.2-2.3-0.3-3.8-0.3h-21.4c-0.3,0-0.6,0.1-0.8,0.3c-0.2,0.2-0.3,0.4-0.3,0.6v2.2c0,0.3,0.1,0.5,0.3,0.7
			c0.2,0.2,0.5,0.3,0.8,0.3h21.2c0.5,0,0.8,0.1,1,0.3c0.2,0.2,0.3,0.6,0.3,1.1v20c0,0.2,0.1,0.5,0.3,0.7c0.2,0.2,0.5,0.3,0.8,0.3
			h15.1v-38.8H434.7z"/>
	</g>
	<g>
		<path class="st5" d="M365.1,787.9H602V542.5H365.1V787.9z M369.3,546.8h228.6v236.9H369.3V546.8z"/>
		<polygon class="st5" points="385.8,740.4 380.4,740.4 380.4,730.9 379,730.9 379,741.7 385.8,741.7 		"/>
		<path class="st5" d="M396,736.4h1.2c0.1-1,0.7-1.4,1.7-1.4c1.2,0,1.7,0.4,1.7,1.3c0,0.4-0.1,0.6-0.3,0.7c-0.2,0.1-0.8,0.2-1.8,0.3
			l-0.7,0.1l-0.6,0.1c-0.5,0.2-0.9,0.4-1.2,0.8c-0.2,0.4-0.4,0.8-0.4,1.3c0,0.7,0.2,1.2,0.7,1.6c0.4,0.4,1.1,0.6,1.8,0.6
			c0.5,0,0.9-0.1,1.3-0.3c0.4-0.2,0.8-0.5,1.3-1c0,0.8,0.4,1.1,1.2,1.1l0.4,0l0.5-0.1v-0.9l-0.4,0.1c-0.3,0-0.4-0.1-0.4-0.4V736
			c0-0.7-0.3-1.2-0.8-1.5c-0.5-0.4-1.2-0.6-2.1-0.6c-1,0-1.7,0.2-2.2,0.6C396.3,735,396,735.6,396,736.4 M400.6,738.6v0.1v0.3
			c0,0.3,0,0.5-0.1,0.6c-0.2,0.4-0.5,0.6-0.9,0.8c-0.4,0.2-0.8,0.3-1.3,0.3c-0.9,0-1.3-0.4-1.3-1.3c0-0.6,0.5-1.1,1.5-1.2l1.3-0.2
			c0.4-0.1,0.7-0.1,0.7-0.2l0.1-0.1V738.6z"/>
		<polygon class="st5" points="427.1,741.7 429.4,741.7 429.4,737.2 434.1,737.2 434.1,735.3 429.4,735.3 429.4,732.9 434.8,732.9 
			434.8,731 427.1,731 		"/>
		<path class="st5" d="M449.3,733.2c-1.3,0-2.3,0.4-3,1.2c-0.8,0.7-1.1,1.8-1.1,3.1c0,1.3,0.4,2.3,1.1,3.1c0.7,0.8,1.8,1.1,3,1.1
			c1.3,0,2.3-0.4,3.1-1.2c0.8-0.8,1.1-1.8,1.1-3.1c0-1.3-0.4-2.3-1.1-3.1C451.6,733.6,450.6,733.2,449.3,733.2 M450.7,739.3
			c-0.4,0.4-0.8,0.6-1.5,0.6c-0.6,0-1.1-0.2-1.4-0.7c-0.3-0.4-0.5-1-0.5-1.8c0-0.8,0.1-1.3,0.4-1.8c0.3-0.4,0.7-0.6,1.3-0.6h0.1
			c1.3,0,2,0.9,2,2.6C451.3,738.3,451.1,738.9,450.7,739.3"/>
		<path class="st5" d="M469.4,738.1v0.1c0,0.4-0.2,0.8-0.5,1.1c-0.3,0.3-0.7,0.4-1.2,0.4c-0.9,0-1.3-0.5-1.3-1.5v-5.1h-2.2v5.4v0.1
			c0,0.5,0.1,1.1,0.4,1.6c0.2,0.4,0.5,0.7,0.9,0.9c0.4,0.2,0.9,0.3,1.4,0.3c1.2,0,2-0.5,2.5-1.4v1.2h2.1v-8.2h-2.2V738.1z"/>
		<path class="st5" d="M484.9,734.8v-1.4h-2.1v8.2h2.2v-4.4c0-1.2,0.7-1.8,2-1.8l0.6,0v-2.2H487
			C486.1,733.2,485.4,733.7,484.9,734.8"/>
		<path class="st5" d="M501.1,734.7c0.8,0,1.2,0.4,1.4,1.3h2.2c0-1-0.4-1.7-1-2.3c-0.7-0.6-1.6-0.9-2.7-0.9c-1.3,0-2.2,0.4-2.9,1.2
			c-0.7,0.8-1,1.9-1,3.3c0,1.3,0.3,2.3,1,3c0.7,0.7,1.6,1.1,2.8,1.1c1,0,1.9-0.3,2.6-0.9c0.7-0.6,1.1-1.3,1.1-2.3h-2.2
			c0,0.4-0.2,0.8-0.5,1c-0.3,0.2-0.6,0.4-1,0.4c-1.1,0-1.6-0.8-1.6-2.5c0-0.8,0.1-1.4,0.4-1.9C500.1,734.9,500.5,734.7,501.1,734.7"
			/>
		<path class="st5" d="M519.8,741.4h2.2v-5.7v-0.2c0-0.7-0.3-1.3-0.8-1.8c-0.5-0.5-1.2-0.7-2-0.7c-1.2,0-2,0.4-2.4,1.3v-3.9h-2.2v11
			h2.2v-4.8c0-0.5,0.2-0.9,0.5-1.2c0.3-0.3,0.7-0.5,1.2-0.5c0.4,0,0.8,0.1,1,0.3c0.2,0.2,0.4,0.5,0.4,0.9v0.3V741.4z"/>
		<path class="st5" d="M536.5,732.9c-1.3,0-2.2,0.4-2.9,1.1c-0.7,0.7-1,1.8-1,3.2c0,1.4,0.4,2.4,1,3.2c0.7,0.8,1.7,1.1,2.9,1.1
			c1,0,1.8-0.2,2.4-0.7c0.7-0.5,1.1-1.1,1.3-1.9H538c-0.2,0.6-0.7,0.9-1.4,0.9c-1.1,0-1.7-0.6-1.8-1.8l-0.1-0.2h5.6v-0.3
			c0-1.5-0.3-2.6-1-3.4C538.7,733.3,537.8,732.9,536.5,732.9 M534.8,736.4c0.1-1.1,0.7-1.7,1.6-1.7c1,0,1.5,0.6,1.7,1.7H534.8z"/>
		<path class="st5" d="M554.9,734.7v-1.6h-1.4v-2.2h-2.2v2.2h-1.1v1.6h1.1v5v0.2c0,1,0.8,1.5,2.3,1.5l1.2-0.1v-1.6h-0.6
			c-0.5,0-0.7-0.2-0.7-0.6v-4.5H554.9z"/>
		<path class="st5" d="M569.9,739.8h-0.6c-0.5,0-0.7-0.2-0.7-0.6v-4.5h1.3v-1.6h-1.3v-2.2h-2.2v2.2h-1.1v1.6h1.1v5v0.2
			c0,1,0.8,1.4,2.3,1.4l1.2,0V739.8z"/>
		<path class="st5" d="M584.3,741.5c1,0,1.8-0.2,2.4-0.7c0.6-0.5,1.1-1.1,1.3-1.9h-2.2c-0.2,0.6-0.7,0.9-1.4,0.9
			c-1.1,0-1.6-0.6-1.8-1.8l-0.1-0.2h5.6v-0.3c0-1.5-0.3-2.6-1-3.4c-0.7-0.8-1.6-1.2-2.9-1.2c-1.3,0-2.2,0.4-2.9,1.1
			c-0.7,0.7-1,1.8-1,3.2c0,1.4,0.3,2.4,1,3.2C582,741.1,583,741.5,584.3,741.5 M584.2,734.7c1,0,1.5,0.6,1.7,1.7h-3.3
			C582.7,735.2,583.3,734.7,584.2,734.7"/>
		<path class="st5" d="M574.3,641.6h2.6c1.8,0,3.3-1.5,3.3-3.3c0-1.8-1.5-3.3-3.3-3.3h-2.6c-1.8,0-3.3,1.5-3.3,3.3
			C571,640.1,572.5,641.6,574.3,641.6"/>
		<path class="st5" d="M388.7,641.6h5.8c1.8,0,3.3-1.5,3.3-3.3c0-1.8-1.5-3.3-3.3-3.3h-5.8c-1.8,0-3.3,1.5-3.3,3.3
			C385.4,640.1,386.9,641.6,388.7,641.6"/>
		<path class="st5" d="M408.1,641.6h12.2v0.1H543v-0.1h17.3c1.8,0,3.3-1.5,3.3-3.3s-1.5-3.3-3.3-3.3h-17.4
			c-1.7-31-26.8-55.9-58-57.6v-5.1c0-1.8-1.5-3.3-3.3-3.3c-1.8,0-3.3,1.5-3.3,3.3v5.1c-31.2,1.6-56.3,26.6-58,57.6h-12.3
			c-1.8,0-3.3,1.5-3.3,3.3S406.2,641.6,408.1,641.6 M481.6,583.9c29.1,0,52.9,22.6,54.7,51.1H426.9
			C428.7,606.6,452.5,583.9,481.6,583.9"/>
		<path class="st5" d="M497.5,678.1l16.8-14.8c4.6-4,11.3-3.9,15.8,0.3l42.3,39.9c0.6,0.6,1.5,0.9,2.3,0.9c0.9,0,1.7-0.3,2.4-1
			c1.2-1.3,1.2-3.4-0.1-4.6l-42.3-39.9c-3.9-3.7-9-5.3-13.9-5H483c-1.8,0-3.3,1.5-3.3,3.3c0,1.8,1.5,3.3,3.3,3.3h24.7l-14.5,12.8
			c-3.9,3.4-9.5,3.9-13.8,1.2l-32-19.8c-1.5-1-3.6-0.5-4.5,1.1c-1,1.5-0.5,3.5,1,4.5l32,19.8C482.7,684.2,491.4,683.5,497.5,678.1"
			/>
		<path class="st5" d="M518,749.1h-10.7c-0.1,0-0.2,0-0.3,0.1c-0.1,0.1-0.1,0.2-0.1,0.3v1.1c0,0.1,0,0.2,0.1,0.3
			c0.1,0.1,0.1,0.1,0.3,0.1h4.1c0.1,0,0.2,0,0.3,0.1c0.1,0.1,0.1,0.1,0.1,0.3v18.6c0,0.1,0,0.2,0.1,0.3c0.1,0.1,0.2,0.1,0.3,0.1h1.1
			c0.1,0,0.2,0,0.3-0.1c0.1-0.1,0.1-0.1,0.1-0.3v-18.6c0-0.1,0-0.2,0.1-0.3c0.1-0.1,0.2-0.1,0.3-0.1h4.1c0.1,0,0.2,0,0.3-0.1
			c0.1-0.1,0.1-0.1,0.1-0.3v-1.1c0-0.1-0.1-0.2-0.1-0.3C518.2,749.1,518.1,749.1,518,749.1"/>
		<path class="st5" d="M525.9,757.9L525.9,757.9c-1.6,0.1-2.9,0.8-3.9,2c-1,1.1-1.6,2.5-1.6,4.1v5.8c0,0.1,0,0.1,0.1,0.2
			c0.1,0.1,0.1,0.1,0.2,0.1h1.2c0.1,0,0.1,0,0.2-0.1c0.1-0.1,0.1-0.1,0.1-0.2v-1.5h0v-0.7V766v-1.1V764c0-1.1,0.4-2.1,1.1-2.9
			c0.7-0.8,1.6-1.3,2.7-1.5c0.1,0,0.1,0,0.2-0.1c0-0.1,0.1-0.1,0.1-0.2v-1.2c0-0.1,0-0.1-0.1-0.2C526,758,526,757.9,525.9,757.9"/>
		<path class="st5" d="M534.5,758h-0.3c-0.5,0-1,0.1-1.5,0.2c-0.6,0.2-1.1,0.4-1.6,0.7c-0.9,0.5-1.6,1.3-2.2,2.3
			c-0.5,0.9-0.7,1.9-0.7,2.9v0.2c0.1,1.6,0.7,3,1.9,4.1c1.2,1.1,2.6,1.7,4.2,1.7h5.7c0.1,0,0.1,0,0.2-0.1c0.1,0,0.1-0.1,0.1-0.2
			v-5.7c0-1.6-0.6-3-1.7-4.2C537.4,758.7,536.1,758.1,534.5,758 M538.6,768.2c0,0.1,0,0.1-0.1,0.2c-0.1,0.1-0.1,0.1-0.2,0.1h-4
			c-1.2,0-2.2-0.4-3.1-1.2c-0.9-0.8-1.3-1.8-1.3-3v-0.1c0-1.2,0.4-2.2,1.3-3.1c0.9-0.9,1.9-1.3,3.1-1.3h0.1c1.2,0,2.2,0.5,3,1.4
			c0.8,0.9,1.2,1.9,1.2,3V768.2z"/>
		<path class="st5" d="M543.9,753.8c-0.3,0-0.6,0.1-0.9,0.3c-0.2,0.2-0.3,0.5-0.3,0.9v0.6v0.6h0.5h0.7c0.3,0,0.6-0.1,0.9-0.4
			c0.2-0.2,0.3-0.5,0.3-0.8s-0.1-0.6-0.3-0.9C544.5,753.9,544.3,753.8,543.9,753.8"/>
		<path class="st5" d="M544.3,757.8h-1.2c-0.1,0-0.1,0-0.2,0.1c-0.1,0.1-0.1,0.1-0.1,0.2v5.9v5.8c0,0.1,0,0.1,0.1,0.2
			c0.1,0,0.1,0.1,0.2,0.1h1.2c0.1,0,0.1,0,0.2-0.1c0.1-0.1,0.1-0.1,0.1-0.2v-2.6V761v0v-0.3v-2.7c0-0.1,0-0.1-0.1-0.2
			C544.4,757.8,544.4,757.8,544.3,757.8"/>
		<path class="st5" d="M555,768.4c-1.2,0-2.2-0.4-3-1.3c-0.8-0.8-1.3-1.8-1.3-3v-3v0v-0.3v-2.9h2.4c0.2,0,0.5-0.1,0.7-0.3
			c0.2-0.2,0.3-0.4,0.3-0.7v-0.5V756h-0.4h-0.5h-0.1c0,0-0.1,0-0.1,0h-2.2v-6.1c0-0.2-0.1-0.4-0.3-0.6c-0.2-0.2-0.4-0.3-0.6-0.3H549
			v0.9v0.1v6h-1.9c-0.1,0-0.2,0-0.3,0c-0.1,0-0.2,0-0.3,0.1c-0.2,0.1-0.3,0.2-0.4,0.4c-0.1,0.2-0.1,0.4-0.1,0.5v0.9h0.3h0.5h0.2h2.1
			v6.3c0,1.7,0.6,3.1,1.8,4.2c1.2,1.2,2.6,1.8,4.2,1.8h0.6c0.1,0,0.1,0,0.2-0.1c0.1-0.1,0.1-0.1,0.1-0.2v-0.6c0-0.2-0.1-0.5-0.3-0.6
			C555.5,768.5,555.3,768.4,555,768.4"/>
		<path class="st5" d="M567.3,759.8c-0.1-0.1-0.2-0.2-0.3-0.3c-0.1-0.1-0.3-0.3-0.4-0.4l-0.2-0.1c-1.1-0.7-2.2-1.1-3.4-1.1
			c-0.3,0-0.6,0-0.9,0.1c-1.6,0.2-2.9,0.9-3.9,2.2c-0.9,1.1-1.4,2.4-1.4,3.9v0.5c0.1,1.7,0.8,3,2,4.1c1.1,1,2.4,1.5,3.9,1.6h0.2
			c1.4,0,2.7-0.4,3.8-1.3c0.1-0.1,0.1-0.1,0.1-0.2c0-0.1,0-0.2-0.1-0.2c-0.2-0.1-0.3-0.3-0.4-0.4c-0.1-0.1-0.3-0.2-0.5-0.4l0,0l0,0
			c-0.1-0.1-0.1-0.1-0.2-0.1c-0.1,0-0.1,0-0.2,0.1c-0.8,0.5-1.6,0.8-2.6,0.8c-1,0-1.8-0.3-2.6-0.9c3.2-3.2,5.6-5.6,7.2-7.2
			c0,0,0.1-0.1,0.1-0.1v0c0-0.1,0-0.1-0.1-0.2L567.3,759.8z M564.9,760.3c0,0.1,0,0.1-0.1,0.2c-2.4,2.4-4.3,4.3-5.5,5.5
			c-0.1,0.1-0.1,0.1-0.2,0.1h-0.1c-0.1,0-0.2-0.1-0.2-0.1c-0.3-0.6-0.4-1.2-0.4-1.9c0-0.2,0-0.4,0-0.6c0.1-0.9,0.5-1.7,1.1-2.3
			c0.7-0.7,1.5-1.2,2.4-1.4c0.3-0.1,0.6-0.1,0.9-0.1c0.6,0,1.2,0.1,1.8,0.4C564.9,760,564.9,760.1,564.9,760.3
			C564.9,760.2,564.9,760.2,564.9,760.3"/>
		<path class="st5" d="M580,757.9h-1c-0.1,0-0.1,0-0.1,0.1c-0.1,0-0.1,0.1-0.1,0.1v1.5v0.7v1.6v1.2v0.9c0,1.2-0.4,2.3-1.1,3.1
			c-0.8,0.9-1.7,1.3-2.8,1.3c-1.1,0-2-0.4-2.8-1.3c-0.8-0.9-1.1-1.9-1.1-3.1v-0.2v-0.1v0v0v-3.9v-1.6c0-0.1,0-0.1-0.1-0.2
			c-0.1-0.1-0.1-0.1-0.2-0.1c-0.4,0-0.8,0-1,0c-0.1,0-0.2,0-0.2,0.1c0,0.1-0.1,0.1-0.1,0.2v5.8c0,1.7,0.5,3.1,1.6,4.3
			c1.1,1.2,2.4,1.8,3.9,1.8c1.5,0,2.8-0.6,3.9-1.8c1.1-1.2,1.6-2.6,1.6-4.3v-5.8c0-0.1,0-0.1-0.1-0.2
			C580.2,757.9,580.1,757.9,580,757.9"/>
		<path class="st5" d="M587.8,757.9L587.8,757.9c-1.6,0.1-2.9,0.8-3.9,2c-1,1.1-1.6,2.5-1.6,4.1v5.8c0,0.1,0,0.1,0.1,0.2
			c0.1,0.1,0.1,0.1,0.2,0.1h1.2c0.1,0,0.1,0,0.2-0.1c0.1-0.1,0.1-0.1,0.1-0.2v-1.5h0v-0.7V766v-1.1V764c0-1.1,0.4-2.1,1.1-2.9
			c0.7-0.8,1.6-1.3,2.7-1.5c0.1,0,0.1,0,0.2-0.1c0-0.1,0.1-0.1,0.1-0.2v-1.2c0-0.1,0-0.1-0.1-0.2C587.9,758,587.9,757.9,587.8,757.9
			"/>
	</g>
	<g>
		<path class="st5" d="M99.6,787.9h236.9V542.5H99.6V787.9z M103.7,546.8h228.6v236.9H103.7V546.8z"/>
		<path class="st5" d="M179.6,690.7c-16.1-14.4-20-33.3-20-49c0-11.1,3.8-30.5,18.5-45.2c9.9-9.9,25-17.7,50.5-17.7
			c6.6,0,15.9,0.5,24,2c6.3,1.2,11.6,2.1,16.9,2.5c1.8,0.2,2.1,0.8,2.1,1.8c0,1.3-0.5,3.3-0.8,9.3c-0.3,5.5-0.3,14.6-0.5,17
			c-0.2,2.5-0.5,3.5-1.5,3.5c-1.2,0-1.3-1.2-1.3-3.5c0-6.5-2.6-13.2-6.9-16.9c-5.8-5-18.5-9.4-33.1-9.4c-22,0-32.3,6.5-38.1,12.1
			c-12.1,11.6-14.9,26.3-14.9,43.2c0,31.6,24.3,60.6,59.7,60.6c12.4,0,22.2-1.5,28.8-8.3c3.5-3.6,5.6-10.9,6.1-13.9
			c0.3-1.8,0.7-2.5,1.7-2.5c0.8,0,1.2,1.2,1.2,2.5c0,1.2-2,15.6-3.6,21.2c-1,3.1-1.3,3.5-4.3,4.8c-6.6,2.7-19.2,3.8-29.8,3.8
			C209.4,708.5,192.7,702.4,179.6,690.7"/>
		<path class="st5" d="M245.2,614.8c0,3.9-3.2,7.1-7.1,7.1h-19.9c-3.9,0-7.1-3.2-7.1-7.1c0-3.9,3.2-7.1,7.1-7.1h19.9
			C242,607.7,245.2,610.9,245.2,614.8"/>
		<path class="st5" d="M244.5,634c0,3.9-3.2,7.1-7.1,7.1h-19.9c-3.9,0-7.1-3.2-7.1-7.1c0-3.9,3.2-7.1,7.1-7.1h19.9
			C241.3,626.9,244.5,630.1,244.5,634"/>
		<path class="st5" d="M243.8,653.3c0,3.9-3.2,7.1-7.1,7.1h-20c-3.9,0-7.1-3.2-7.1-7.1c0-3.9,3.2-7.1,7.1-7.1h20
			C240.6,646.1,243.8,649.3,243.8,653.3"/>
		<path class="st5" d="M238.8,672.5c0,3.9-3.2,7.1-7.1,7.1h-19.9c-3.9,0-7.1-3.2-7.1-7.1c0-3.9,3.2-7.1,7.1-7.1h19.9
			C235.6,665.3,238.8,668.5,238.8,672.5"/>
		<path class="st5" d="M139.9,764.9h-0.8v-0.7h0c-0.4,0.7-0.9,0.8-1.4,0.8c-1.7,0-2.2-1.6-2.2-2.8c0-1.4,0.8-2.5,2.1-2.5
			c0.9,0,1.3,0.6,1.5,0.9l0-0.1V758h0.8V764.9z M137.7,764.3c0.5,0,1.4-0.4,1.4-1.7c0-0.8-0.1-2.1-1.3-2.1c-1.3,0-1.4,1.2-1.4,1.9
			C136.4,763.5,136.8,764.3,137.7,764.3"/>
		<path class="st5" d="M149.2,763.3c0,0.2-0.3,0.9-0.9,1.4c-0.2,0.2-0.6,0.3-1.4,0.3c-1.4,0-2.2-1.1-2.2-2.5c0-1.5,0.7-2.8,2.4-2.8
			c1.4,0,2.1,1.1,2.1,2.9h-3.7c0,1,0.5,1.6,1.5,1.6c0.8,0,1.3-0.6,1.3-1H149.2z M148.4,762c0-0.8-0.4-1.5-1.4-1.5
			c-0.8,0-1.4,0.7-1.4,1.5H148.4z"/>
		<polygon class="st5" points="162.4,758 162.4,764.9 166.9,764.9 166.9,764.1 163.4,764.1 163.4,758 		"/>
		<path class="st5" d="M172.8,761.4c0-1.2,0.8-1.7,2.1-1.7c0.4,0,1.9,0.1,1.9,1.4v2.9c0,0.2,0.1,0.3,0.3,0.3c0.1,0,0.2,0,0.3,0v0.6
			c-0.1,0-0.3,0.1-0.5,0.1c-0.7,0-0.9-0.4-0.9-0.8c-0.3,0.4-0.8,0.8-1.8,0.8c-0.9,0-1.6-0.6-1.6-1.4c0-0.4,0.1-1.4,1.5-1.6l1.4-0.2
			c0.2,0,0.4-0.1,0.4-0.6c0-0.5-0.4-0.8-1.2-0.8c-1,0-1.1,0.6-1.1,1H172.8z M175.9,762.4c-0.1,0.1-0.3,0.2-1.4,0.3
			c-0.4,0.1-1.1,0.2-1.1,0.8c0,0.5,0.3,0.9,0.9,0.9c0.8,0,1.5-0.5,1.5-1.2V762.4z"/>
		<polygon class="st5" points="193.8,758 193.8,764.9 195.2,764.9 195.2,762 198.3,762 198.3,760.8 195.2,760.8 195.2,759.3 
			198.7,759.3 198.7,758 		"/>
		<path class="st5" d="M208.1,765c-1.4,0-2.6-0.8-2.6-2.7c0-1.8,1.2-2.7,2.6-2.7c1.4,0,2.6,0.8,2.6,2.7
			C210.7,764.2,209.5,765,208.1,765 M208.1,760.8c-1,0-1.2,0.9-1.2,1.5c0,0.7,0.2,1.5,1.2,1.5c1,0,1.2-0.9,1.2-1.5
			C209.4,761.7,209.2,760.8,208.1,760.8"/>
		<path class="st5" d="M222.8,764.9h-1.3v-0.7h0c-0.3,0.5-0.8,0.8-1.5,0.8c-1,0-1.7-0.6-1.7-1.9v-3.4h1.3v3.2c0,0.8,0.5,0.9,0.9,0.9
			c0.4,0,1-0.2,1-1.2v-2.9h1.3V764.9z"/>
		<path class="st5" d="M230.6,759.8h1.3v0.9h0c0.3-0.5,0.6-1,1.4-1c0.1,0,0.2,0,0.3,0v1.4c-0.1,0-0.3,0-0.4,0c-1,0-1.2,0.7-1.2,1.2
			v2.7h-1.3V759.8z"/>
		<path class="st5" d="M245.1,763.1c-0.1,0.5-0.5,2-2.3,2c-1.9,0-2.4-1.5-2.4-2.5c0-1.6,0.7-2.8,2.4-2.8c0.8,0,2.1,0.4,2.3,2h-1.4
			c-0.1-0.3-0.3-0.8-0.8-0.8h-0.1c-0.8,0-1.1,0.8-1.1,1.5c0,0.6,0,1.7,1,1.7c0.7,0,0.9-0.7,0.9-0.9H245.1z"/>
		<path class="st5" d="M257.1,764.9h-1.3v-3.1c0-0.4,0-1-0.9-1c-0.6,0-1,0.4-1,1.2v2.9h-1.3V758h1.3v2.4h0c0.2-0.4,0.7-0.8,1.5-0.8
			c1,0,1.8,0.6,1.8,1.7V764.9z"/>
		<path class="st5" d="M269.3,763.4c-0.4,1.2-1.4,1.6-2.2,1.6c-1.4,0-2.5-0.7-2.5-2.8c0-0.6,0.2-2.6,2.4-2.6c1,0,2.4,0.5,2.4,2.8
			v0.2h-3.5c0,0.4,0.1,1.2,1.2,1.2c0.4,0,0.8-0.2,0.9-0.6H269.3z M268,761.9c-0.1-0.8-0.6-1.1-1-1.1c-0.6,0-1,0.4-1,1.1H268z"/>
		<path class="st5" d="M278.3,759.8h0.8v1h-0.8v2.8c0,0.3,0,0.4,0.6,0.4c0.1,0,0.2,0,0.3,0v1c-0.2,0-0.4,0-0.6,0h-0.2
			c-1.2,0-1.4-0.4-1.4-1.1v-3.1h-0.7v-1h0.7v-1.4h1.3V759.8z"/>
		<path class="st5" d="M287.8,759.8h0.8v1h-0.8v2.8c0,0.3,0,0.4,0.6,0.4c0.1,0,0.2,0,0.3,0v1c-0.2,0-0.4,0-0.6,0h-0.2
			c-1.2,0-1.4-0.4-1.4-1.1v-3.1h-0.7v-1h0.7v-1.4h1.3V759.8z"/>
		<path class="st5" d="M300.3,763.4c-0.4,1.2-1.4,1.6-2.2,1.6c-1.4,0-2.5-0.7-2.5-2.8c0-0.6,0.2-2.6,2.4-2.6c1,0,2.4,0.5,2.4,2.8
			v0.2h-3.5c0,0.4,0.1,1.2,1.2,1.2c0.4,0,0.8-0.2,0.9-0.6H300.3z M299,761.9c-0.1-0.8-0.6-1.1-1-1.1c-0.6,0-1,0.4-1,1.1H299z"/>
		<path class="st5" d="M134.8,750.6l8.3-17.3h1l8.3,17.3h-4.6l-1.3-2.6h-6l-1.3,2.6H134.8z M142.5,744.5h2.2l-1.1-2.3L142.5,744.5z"
			/>
		<path class="st5" d="M163.6,743.6v-10.2h4.2v10.4c0,1.9-0.7,3.6-2.2,5c-1.4,1.4-3.3,2.1-5.6,2.1c-2.3,0-4.2-0.7-5.6-2.1
			c-1.4-1.4-2.2-3.1-2.2-5v-10.4h4.2v10.2c0,0.8,0.3,1.5,1,2.1c0.7,0.6,1.5,0.9,2.5,0.9C161.8,746.5,163.6,745.2,163.6,743.6"/>
		<path class="st5" d="M185.9,733.2c2.7,0.1,4.8,1.2,6.3,2.7l0.3,0.3l-3,3l-0.3-0.3c-1-1-2.3-1.4-3.7-1.4c-1.5,0-2.7,0.4-3.7,1.3
			c-1,0.9-1.5,2-1.5,3.2c0,1.3,0.5,2.3,1.5,3.2c1,0.9,2.2,1.3,3.7,1.3c1.5,0,2.7-0.5,3.7-1.4l0.3-0.3l3,3l-0.3,0.3
			c-0.8,0.8-1.8,1.5-3,2c-1.2,0.5-2.4,0.7-3.8,0.7c-2.7,0-5-0.9-6.9-2.5c-1.8-1.7-2.7-3.8-2.7-6.2c0-2.4,0.9-4.5,2.7-6.2
			c1.9-1.7,4.2-2.6,6.9-2.6L185.9,733.2L185.9,733.2z"/>
		<path class="st5" d="M201.1,733.2c2.6,0,4.6,0.9,6.5,2.6c1.8,1.7,2.7,3.8,2.7,6.2c0,2.4-0.9,4.5-2.7,6.2c-1.9,1.7-3.9,2.6-6.5,2.6
			c-2.7,0-4.6-0.9-6.5-2.6c-1.8-1.7-2.7-3.8-2.7-6.2c0-2.4,0.9-4.5,2.7-6.2C196.5,734,198.5,733.2,201.1,733.2 M201.1,737.4
			c-1.5,0-2.3,0.4-3.3,1.3c-1,0.9-1.5,2-1.5,3.2c0,1.3,0.5,2.3,1.5,3.2c1,0.9,1.9,1.3,3.3,1.3c1.4,0,2.3-0.4,3.3-1.3
			c1-0.9,1.5-1.9,1.5-3.2c0-1.2-0.5-2.3-1.5-3.2C203.4,737.9,202.6,737.4,201.1,737.4"/>
		<polygon class="st5" points="212.7,733.3 221,744.2 229.4,733.3 230.3,733.3 230.3,750.6 226,750.6 226,744.2 221.1,750.6 
			216.1,744.2 216.1,750.6 211.8,750.6 211.8,733.3 		"/>
		<path class="st5" d="M232.4,750.6v-17.3h6.8c1.9,0,3.6,0.6,4.9,1.8c1.3,1.2,1.9,2.7,1.9,4.4c0,1.7-0.6,3.2-1.9,4.4
			c-1.3,1.2-3,1.8-5,1.8h-2.5v4.8H232.4z M239.2,737.5h-2.4v4.1l2.4,0c1.2,0,2.4-0.9,2.4-2C241.7,738.4,240.5,737.5,239.2,737.5"/>
		<polygon class="st5" points="246.9,733.3 260.4,733.3 260.4,737.5 256,737.5 256.1,750.6 251.4,750.6 251.3,737.5 246.9,737.5 		
			"/>
		<path class="st5" d="M268.8,733.2c2.6,0,4.6,0.9,6.5,2.6c1.8,1.7,2.7,3.8,2.7,6.2c0,2.4-0.9,4.5-2.7,6.2c-1.9,1.7-3.9,2.6-6.5,2.6
			c-2.7,0-4.6-0.9-6.5-2.6c-1.8-1.7-2.7-3.8-2.7-6.2c0-2.4,0.9-4.5,2.7-6.2C264.2,734,266.1,733.2,268.8,733.2 M268.8,737.4
			c-1.5,0-2.3,0.4-3.3,1.3c-1,0.9-1.5,2-1.5,3.2c0,1.3,0.5,2.3,1.5,3.2c1,0.9,1.9,1.3,3.3,1.3c1.4,0,2.3-0.4,3.3-1.3
			c1-0.9,1.5-1.9,1.5-3.2c0-1.2-0.5-2.3-1.5-3.2C271.1,737.9,270.2,737.4,268.8,737.4"/>
		<rect x="279.5" y="733.3" class="st5" width="4.2" height="17.3"/>
		<path class="st5" d="M285.9,750.6l0-17.3h6.3c1,0,2,0.1,3,0.4c0.8,0.3,1.6,0.7,2.2,1.4c1.1,1,1.8,2.1,1.8,4v0.4
			c0,1.2-0.4,2.3-1.2,3.4c-0.6,0.7-1,1.1-1.8,1.5l4.2,6.2h-5.1l-5.1-6.8v6.8H285.9z M294.8,739.5c0-0.5-0.2-1-0.7-1.4
			c-0.4-0.4-1.4-0.6-2.2-0.6h-1.8v4h1.6v0h0.9C293.7,741.5,294.8,740.7,294.8,739.5"/>
	</g>
</g>
</svg>
