<?xml version="1.0" encoding="utf-8"?>
<!-- Generator: Adobe Illustrator 22.0.0, SVG Export Plug-In . SVG Version: 6.00 Build 0)  -->
<svg version="1.1" id="Calque_1" xmlns="http://www.w3.org/2000/svg" xmlns:xlink="http://www.w3.org/1999/xlink" x="0px" y="0px"
	 viewBox="0 0 996.8 1080" style="enable-background:new 0 0 996.8 1080;" xml:space="preserve">
<style type="text/css">
	.st0{filter:url(#Adobe_OpacityMaskFilter);}
	.st1{mask:url(#SVGID_1_);}
	.st2{fill:#B3B3B3;}
	.st3{fill:#A5A7AA;}
	.st4{filter:url(#Adobe_OpacityMaskFilter_1_);}
	.st5{mask:url(#SVGID_2_);}
	.st6{fill:#5E5F5F;}
	.st7{fill:#554B49;}
	.st8{filter:url(#Adobe_OpacityMaskFilter_2_);}
	.st9{mask:url(#SVGID_3_);}
	.st10{fill:#302B29;}
	.st11{fill:#0590B5;}
</style>
<g>
	<g>
		<defs>
			<filter id="Adobe_OpacityMaskFilter" filterUnits="userSpaceOnUse" x="142" y="0" width="872.9" height="1080">
				<feFlood  style="flood-color:white;flood-opacity:1" result="back"/>
				<feBlend  in="SourceGraphic" in2="back" mode="normal"/>
			</filter>
		</defs>
		<mask maskUnits="userSpaceOnUse" x="142" y="0" width="872.9" height="1080" id="SVGID_1_">
			<g class="st0">
				
					<image style="overflow:visible;" width="3655" height="4518" xlink:href="7306173693C4F1DC.jpg"  transform="matrix(0.24 0 0 0.24 139.8 -2.16)">
				</image>
			</g>
		</mask>
		<g class="st1">
			<path class="st2" d="M1014.9,0c-3.7,2.2-7.4,4.6-10.9,7.2C864.3,108.8,883.8,455.4,883.8,455.4
				c-16.7,406.9-161.7,564.1-252.5,623c-0.8,0.5-1.5,1-2.3,1.5l-13.7,0.2h-80H142V0H1014.9z"/>
		</g>
	</g>
	<path class="st3" d="M995.9,0c-3.7,2.2-7.4,4.6-10.9,7.2C845.3,108.8,864.7,455.4,864.7,455.4c-16.7,406.9-161.7,564.1-252.5,623
		c-0.8,0.5-1.5,1-2.3,1.5l-13.7,0.2h-80H123V0H995.9z"/>
	<g>
		<defs>
			<filter id="Adobe_OpacityMaskFilter_1_" filterUnits="userSpaceOnUse" x="90" y="0" width="872.9" height="1080">
				<feFlood  style="flood-color:white;flood-opacity:1" result="back"/>
				<feBlend  in="SourceGraphic" in2="back" mode="normal"/>
			</filter>
		</defs>
		<mask maskUnits="userSpaceOnUse" x="90" y="0" width="872.9" height="1080" id="SVGID_2_">
			<g class="st4">
				
					<image style="overflow:visible;" width="3654" height="4518" xlink:href="7306173693C4F1DD.jpg"  transform="matrix(0.24 0 0 0.24 87.96 -2.16)">
				</image>
			</g>
		</mask>
		<g class="st5">
			<path class="st6" d="M962.9,0c-3.7,2.2-7.4,4.6-10.9,7.2C812.3,108.8,831.8,455.4,831.8,455.4c-16.7,406.9-161.7,564.1-252.5,623
				c-0.8,0.5-1.5,1-2.3,1.5l-13.7,0.2h-80H90V0H962.9z"/>
		</g>
	</g>
	<path class="st7" d="M942.9,0c-3.7,2.2-7.4,4.6-10.9,7.2C792.3,108.8,811.7,455.4,811.7,455.4c-16.7,406.9-161.7,564.1-252.5,623
		c-0.8,0.5-1.5,1-2.3,1.5l-13.7,0.2h-80H70V0H942.9z"/>
	<g>
		<defs>
			<filter id="Adobe_OpacityMaskFilter_2_" filterUnits="userSpaceOnUse" x="20" y="0" width="872.9" height="1080">
				<feFlood  style="flood-color:white;flood-opacity:1" result="back"/>
				<feBlend  in="SourceGraphic" in2="back" mode="normal"/>
			</filter>
		</defs>
		<mask maskUnits="userSpaceOnUse" x="20" y="0" width="872.9" height="1080" id="SVGID_3_">
			<g class="st8">
				
					<image style="overflow:visible;" width="3655" height="4518" xlink:href="7306173693C4F1DB.jpg"  transform="matrix(0.24 0 0 0.24 17.88 -2.16)">
				</image>
			</g>
		</mask>
		<g class="st9">
			<path class="st10" d="M892.9,0c-3.7,2.2-7.4,4.6-10.9,7.2C742.3,108.8,761.8,455.4,761.8,455.4
				c-16.7,406.9-161.7,564.1-252.5,623c-0.8,0.5-1.5,1-2.3,1.5l-13.7,0.2h-80H20V0H892.9z"/>
		</g>
	</g>
	<path class="st11" d="M872.9,0c-3.7,2.2-7.4,4.6-10.9,7.2C722.3,108.8,741.8,455.4,741.8,455.4c-16.7,406.9-161.7,564.1-252.5,623
		c-0.8,0.5-1.5,1-2.3,1.5l-13.7,0.2h-80H0V0H872.9z"/>
</g>
</svg>
