<?xml version="1.0" standalone="no"?>
<!DOCTYPE svg PUBLIC "-//W3C//DTD SVG 20010904//EN"
 "http://www.w3.org/TR/2001/REC-SVG-20010904/DTD/svg10.dtd">
<svg version="1.0" xmlns="http://www.w3.org/2000/svg"
 width="960.000000pt" height="542.000000pt" viewBox="0 0 960.000000 542.000000"
 preserveAspectRatio="xMidYMid meet">

<g transform="translate(0.000000,542.000000) scale(0.100000,-0.100000)"
fill="#000000" stroke="none">
<path d="M0 2710 l0 -2710 1895 0 c1831 0 1895 1 1895 18 0 10 -3 22 -7 26 -5
4 -8 11 -9 14 0 4 -4 14 -7 22 -42 103 -83 232 -73 235 36 10 317 37 331 31 9
-3 60 3 113 14 200 40 578 103 611 101 19 -1 65 -10 101 -21 37 -11 79 -21 94
-22 14 -1 26 -6 26 -9 0 -4 17 -13 38 -19 88 -27 192 -103 192 -141 0 -10 4
-20 9 -23 5 -3 8 -14 6 -24 -13 -61 -17 -72 -25 -67 -6 3 -10 30 -10 59 0 38
-6 61 -20 79 -23 29 -90 71 -90 57 0 -6 4 -10 9 -10 10 0 27 -42 35 -89 6 -35
-19 -106 -45 -128 -8 -6 -41 -17 -74 -23 -206 -41 -314 -59 -375 -60 -30 -1
-75 -5 -100 -9 -25 -5 1108 -9 2518 -10 l2562 -1 0 1564 c0 1242 -3 1565 -12
1569 -10 3 -10 9 -1 26 10 16 13 263 13 1141 l0 1120 -4800 0 -4800 0 0 -2710z
m6361 2683 c1 -10 1 -21 0 -25 0 -5 9 -8 22 -9 21 0 21 -1 2 -9 -19 -8 -19 -9
3 -9 12 -1 22 4 22 9 0 22 29 8 38 -17 7 -18 11 -22 11 -10 1 9 5 17 10 17 5
0 12 10 16 23 7 21 8 20 12 -8 6 -41 19 -52 27 -21 8 34 26 33 26 -1 l1 -28
14 30 c12 27 13 28 14 8 1 -30 21 -30 21 -1 0 25 15 14 23 -17 4 -15 5 -13 6
8 0 15 5 27 10 27 4 0 6 -22 3 -50 -3 -33 -1 -50 7 -50 7 0 12 24 13 63 1 56
2 58 5 14 4 -52 22 -55 25 -4 1 21 4 12 8 -23 l7 -55 2 55 c1 40 4 51 11 40 8
-12 10 -11 10 6 0 26 48 40 57 17 5 -12 7 -12 14 -1 6 8 9 2 9 -20 0 -20 4
-31 10 -27 6 4 10 -18 11 -57 1 -62 1 -62 10 -23 6 22 7 50 4 62 -7 29 4 53
21 46 8 -3 14 -9 14 -15 0 -5 -4 -7 -9 -4 -5 4 -12 -20 -14 -51 -3 -32 -9 -75
-12 -95 -4 -21 -4 -46 1 -55 6 -14 9 -11 15 17 7 33 7 33 6 -10 -1 -29 -6 -44
-14 -43 -6 2 -15 -7 -20 -20 -5 -15 -10 15 -14 88 -4 97 -5 89 -5 -60 0 -93 2
-150 5 -125 l5 45 6 -50 7 -50 1 58 c1 31 7 57 12 57 6 0 10 9 10 21 0 11 5
17 10 14 6 -4 11 16 12 52 l2 58 6 -70 6 -70 3 60 c2 47 5 54 11 35 6 -19 9
-12 11 35 l3 60 6 -80 6 -80 4 95 4 95 6 -95 6 -95 4 120 4 120 6 -110 c5 -97
6 -101 8 -37 1 46 6 71 12 67 6 -3 10 1 10 9 0 27 18 17 23 -11 2 -16 6 4 7
42 l4 70 6 -90 6 -90 4 85 c2 47 5 69 7 50 3 -19 9 -39 15 -45 8 -7 9 -6 4 2
-4 7 -2 21 3 30 8 13 11 -22 13 -127 l2 -145 6 185 c3 102 7 156 8 121 2 -72
8 -75 21 -10 7 35 9 17 10 -85 1 -71 4 -127 7 -124 3 4 6 69 6 145 0 93 2 128
8 108 11 -37 18 -675 8 -668 -5 2 -8 78 -8 168 0 90 -3 166 -8 169 -4 2 -6
-48 -4 -112 2 -78 -1 -113 -7 -107 -6 6 -12 87 -14 190 -1 99 -4 18 -5 -179
-1 -198 -4 -357 -7 -355 -2 3 -5 112 -6 242 0 140 -4 235 -10 231 -5 -3 -10
-17 -11 -32 -1 -15 -4 -2 -8 28 -5 42 -8 21 -10 -90 l-4 -145 -5 100 c-5 78
-8 95 -15 75 -8 -19 -11 6 -16 100 l-6 125 -1 -160 c-1 -144 0 -157 12 -125
12 32 13 20 12 -120 -1 -106 -2 -124 -4 -57 -3 62 -8 97 -15 97 -7 0 -9 -28
-4 -95 5 -65 4 -95 -3 -95 -8 0 -12 80 -13 243 l-2 242 -6 -265 -6 -265 -4
180 -4 180 -6 -260 -6 -260 -2 225 c-2 161 -6 218 -13 200 -8 -20 -12 -22 -19
-10 -8 12 -10 10 -12 -10 -1 -14 -5 25 -8 85 -6 105 -6 103 -6 -50 -1 -88 1
-142 3 -121 4 35 21 66 37 66 3 0 5 -91 4 -202 l-2 -203 -6 157 c-3 86 -9 160
-13 165 -5 4 -6 -6 -3 -22 3 -17 3 -24 0 -17 -8 18 -24 5 -25 -21 0 -21 -1
-21 -9 -2 -7 17 -9 16 -10 -10 -2 -30 -2 -30 -10 -5 -8 25 -8 25 -9 2 -1 -13
-5 -21 -9 -18 -9 5 -9 5 -18 -64 -4 -33 -2 -41 5 -30 8 12 11 7 11 -21 0 -19
-4 -39 -10 -45 -5 -5 -11 -45 -13 -89 -2 -67 -3 -61 -5 36 -1 81 -7 126 -17
145 -14 27 -15 17 -17 -136 -2 -127 -4 -99 -8 125 l-5 290 -3 -294 c-1 -162
-5 -291 -8 -288 -4 3 -7 71 -7 149 0 130 0 134 -6 51 -10 -140 -20 -121 -17
31 2 75 -1 136 -5 136 -5 0 -10 -37 -11 -82 -2 -58 -4 -38 -8 67 -5 129 -6
111 -8 -129 -1 -154 -4 -277 -6 -275 -3 2 -7 58 -10 123 -4 66 -9 122 -11 125
-3 2 -5 -60 -5 -138 0 -78 -3 -140 -7 -138 -5 3 -8 93 -8 200 0 108 -2 193 -5
190 -3 -2 -7 -100 -10 -216 l-6 -212 -2 264 c-1 145 -4 262 -6 260 -2 -2 -7
-101 -10 -219 -4 -118 -9 -216 -11 -219 -6 -5 -8 29 -6 89 1 25 -3 52 -9 60
-7 11 -10 -16 -10 -89 0 -57 -3 -102 -6 -99 -3 4 -7 90 -8 192 -1 102 -6 189
-9 193 -4 3 -7 -55 -7 -130 0 -115 -2 -137 -15 -137 -18 0 -19 23 -5 130 6 44
6 78 1 83 -12 12 -23 -96 -25 -246 -2 -188 -19 -183 -32 8 l-11 160 -1 -107
c-1 -64 -6 -108 -12 -108 -5 0 -10 -18 -10 -40 0 -22 5 -40 10 -40 11 0 13
-80 4 -129 -4 -17 -13 -31 -20 -31 -8 0 -14 -4 -14 -10 0 -5 -6 -10 -13 -10
-29 0 -52 -62 -52 -145 0 -199 -9 -552 -12 -477 -4 77 -9 93 -27 75 -4 -4 -15
-8 -23 -8 -9 0 -18 -6 -21 -14 -3 -10 1 -12 17 -8 11 3 23 1 26 -3 7 -11 -51
-24 -65 -15 -6 3 -8 10 -6 13 2 4 1 35 -3 70 -5 41 -4 63 3 65 8 3 8 8 0 18
-7 8 -11 56 -11 114 0 166 -15 415 -24 409 -5 -3 -9 -31 -10 -62 -1 -41 -3
-50 -8 -32 -6 19 -9 8 -13 -41 -7 -79 -17 -103 -30 -70 -4 13 -5 29 -1 36 5 7
6 43 5 79 -3 49 -7 66 -18 66 -8 0 -14 -5 -14 -11 0 -6 -6 -9 -14 -6 -17 7
-22 -12 -22 -71 1 -35 -3 -44 -20 -48 -18 -5 -21 -14 -22 -71 -1 -36 -5 -69
-8 -74 -12 -21 -15 -89 -2 -89 9 0 9 -3 1 -11 -9 -9 -16 -8 -27 4 -11 11 -13
18 -5 22 8 5 8 10 0 18 -15 15 -14 47 2 47 6 0 3 6 -7 12 -15 8 -21 8 -24 0
-2 -7 -9 -12 -16 -12 -13 0 -26 81 -26 166 0 54 -18 104 -29 85 -5 -8 -13 -11
-18 -8 -5 3 -9 -2 -9 -11 0 -9 -2 -30 -3 -47 -3 -30 -3 -30 -11 -5 -5 17 -9
-8 -10 -75 -4 -173 -7 -216 -16 -225 -5 -4 -39 -10 -75 -13 l-65 -6 -1 167
c-1 92 -2 202 -2 245 -1 54 -4 76 -12 71 -6 -3 -9 -15 -6 -25 6 -22 3 -23 -24
-9 -22 12 -26 35 -4 27 8 -4 17 -2 21 4 3 6 -3 13 -15 16 -13 3 -21 13 -21 25
0 17 3 18 15 8 8 -7 15 -9 15 -5 0 4 7 2 15 -5 12 -10 15 -10 15 3 0 10 -11
17 -27 19 -18 2 -29 10 -31 22 -3 14 0 17 12 13 9 -4 16 -2 16 3 0 6 -7 10
-15 10 -9 0 -15 9 -15 21 0 15 5 19 15 15 8 -3 15 -1 15 4 0 6 -7 10 -15 10
-10 0 -15 11 -16 33 0 17 -2 47 -3 65 -2 18 0 35 5 38 5 3 3 11 -4 18 -16 18
-29 9 -22 -15 4 -11 2 -26 -5 -34 -7 -9 -8 -15 0 -20 15 -9 12 -38 -4 -32 -10
4 -12 0 -9 -14 3 -10 10 -19 15 -19 7 0 6 -5 -1 -14 -6 -7 -10 -22 -10 -32 5
-48 0 -54 -35 -50 -19 2 -43 9 -54 15 -11 6 -28 8 -36 5 -12 -4 -16 0 -16 15
0 23 20 27 50 11 11 -6 21 -6 24 -1 4 5 -12 12 -34 16 -25 4 -40 12 -40 21 0
8 -5 14 -11 14 -7 0 -8 -11 -4 -31 6 -28 5 -30 -14 -24 -12 4 -21 2 -21 -4 0
-6 6 -11 14 -11 18 0 40 -27 28 -34 -5 -3 -7 -17 -4 -31 4 -22 1 -25 -19 -23
-13 2 -27 7 -31 13 -11 15 2 26 23 20 14 -5 17 -3 13 10 -4 10 -13 13 -25 10
-11 -4 -19 -2 -19 4 0 6 -8 11 -17 11 -17 -1 -17 -1 0 -14 18 -14 14 -46 -6
-46 -6 0 -3 -6 7 -13 16 -12 17 -15 3 -29 -11 -11 -13 -18 -5 -26 11 -11 3
-32 -13 -32 -5 0 -9 25 -9 56 0 37 -4 53 -11 48 -6 -3 -8 -17 -4 -31 6 -24 4
-25 -24 -20 -18 4 -31 2 -31 -3 0 -6 -4 -10 -9 -10 -15 0 -81 63 -81 77 0 8
13 2 33 -16 38 -36 47 -39 40 -10 -4 12 0 25 8 29 7 5 10 12 6 17 -5 4 -12 2
-16 -5 -12 -19 -40 -4 -34 19 3 10 0 19 -6 19 -6 0 -11 -6 -11 -14 0 -8 -15 0
-37 20 -20 19 -45 34 -55 34 -11 0 -18 7 -18 20 0 13 -5 18 -15 14 -8 -4 -30
11 -55 36 -22 22 -45 38 -50 35 -5 -3 -29 9 -52 27 -49 38 -59 49 -52 60 3 4
-4 8 -15 8 -15 0 -19 4 -14 17 5 12 2 15 -10 10 -8 -3 -17 -3 -19 1 -2 4 -30
25 -63 47 -100 67 -190 91 -229 62 -16 -11 -22 -9 -49 16 -28 26 -35 28 -76
22 -54 -8 -119 -32 -144 -53 -10 -9 -27 -16 -37 -17 -18 -2 -20 4 -17 69 l2
71 -28 3 c-59 7 -195 -96 -346 -263 -39 -43 -60 -59 -80 -60 -22 0 -26 -5 -29
-33 -2 -18 -8 -30 -13 -27 -5 4 -9 0 -9 -7 0 -8 -13 -35 -30 -61 -26 -41 -34
-47 -57 -43 -16 2 -31 5 -35 5 -20 2 -5 21 17 21 17 0 25 5 24 18 0 10 -3 12
-6 5 -2 -7 -14 -13 -24 -13 -13 0 -18 4 -13 12 5 8 2 9 -10 5 -13 -5 -21 1
-31 26 -9 20 -14 25 -15 14 0 -11 -5 -15 -11 -11 -6 3 -9 15 -6 25 3 11 0 19
-5 19 -6 0 -8 12 -4 30 7 37 -11 40 -25 3 -7 -20 -6 -28 3 -35 8 -5 0 -8 -22
-8 -20 0 -47 8 -60 17 -14 10 -25 18 -26 18 0 0 -8 -6 -18 -14 -14 -12 -16
-12 -11 3 17 53 16 51 25 36 11 -18 24 -6 16 15 -4 12 -12 14 -27 10 -19 -6
-20 -5 -8 8 9 10 27 14 52 11 20 -2 37 1 37 6 0 6 -9 10 -20 10 -29 0 -70 21
-70 37 0 15 -16 17 -25 3 -3 -6 -20 -8 -37 -5 -19 4 -36 0 -47 -9 -13 -12 -23
-12 -53 -3 -33 10 -36 14 -32 42 2 16 2 25 -1 19 -3 -6 -20 -8 -37 -6 -22 3
-35 0 -45 -14 -13 -17 -13 -17 -13 1 0 10 -3 15 -7 12 -3 -4 -6 -21 -5 -39 0
-18 -5 -39 -11 -47 -9 -11 -9 -15 1 -18 7 -3 12 -21 12 -44 0 -32 3 -39 20
-39 18 0 19 5 13 45 -4 31 -2 45 6 45 6 0 11 -7 11 -15 0 -8 5 -24 10 -35 6
-11 14 -28 19 -39 6 -10 7 -29 4 -42 l-6 -23 -9 23 c-10 27 -54 26 -52 -1 1
-9 -5 -19 -12 -22 -9 -4 -14 2 -14 16 l0 21 -24 -22 c-14 -13 -29 -20 -35 -16
-6 3 -11 1 -11 -4 0 -6 -7 -11 -15 -11 -17 0 -56 -20 -67 -35 -20 -26 -25 42
-27 373 -2 355 -5 422 -22 422 -5 0 -9 24 -9 53 -1 51 -1 51 -16 27 l-15 -25
5 27 c7 33 -2 58 -20 58 -7 0 -28 9 -46 20 -18 11 -41 20 -50 20 -10 0 -22 9
-28 21 -11 20 -12 20 -26 2 -13 -16 -14 -15 -12 21 3 37 1 39 -37 52 l-40 14
38 -5 c31 -3 37 -1 37 16 0 10 5 19 10 19 6 0 10 -6 10 -14 0 -8 4 -17 9 -20
11 -7 2 34 -10 50 -5 6 -6 14 -2 17 3 4 0 7 -7 7 -7 0 -10 3 -7 6 4 4 14 1 22
-6 12 -10 19 -10 27 -2 9 9 9 12 0 12 -7 0 -12 10 -12 23 1 21 1 21 15 3 22
-29 28 -13 11 28 -16 39 -8 50 10 13 98 -198 115 -227 140 -227 13 0 24 2 24
4 0 2 -14 35 -31 73 -45 100 -80 195 -74 202 3 3 8 -5 12 -17 3 -12 12 -22 20
-22 12 0 14 7 10 30 l-6 30 1789 0 c1698 0 1790 -1 1791 -17z m980 7 c17 0 19
-8 21 -72 l2 -73 5 74 c5 62 9 75 25 77 40 6 45 -5 49 -99 l3 -92 2 96 2 96
35 -1 35 -1 0 -54 c0 -30 3 -51 7 -47 4 4 7 28 8 53 0 45 1 46 33 47 30 1 32
-1 33 -34 1 -19 5 -48 9 -65 8 -30 8 -30 9 8 1 29 6 40 24 47 l22 9 -22 0
c-28 1 -30 21 -3 28 37 10 35 15 53 -107 10 -67 12 -71 18 -40 3 19 7 29 8 23
2 -18 21 -16 21 2 0 8 6 12 14 9 9 -3 16 -22 18 -45 4 -48 20 -55 28 -14 8 35
39 96 40 77 0 -7 5 -10 10 -7 11 7 12 3 14 -152 1 -100 7 -135 21 -122 2 3 5
23 6 44 2 22 8 43 13 48 7 4 6 11 -4 18 -11 8 -12 12 -2 16 18 7 15 33 -4 33
-13 0 -15 7 -10 31 3 17 6 42 6 56 0 14 4 21 10 18 6 -3 10 0 11 7 0 7 6 -3
11 -22 11 -34 11 -34 18 -10 8 25 8 25 11 -5 1 -16 3 -40 4 -52 0 -12 4 -25 8
-29 4 -4 7 35 8 87 1 52 5 105 9 119 4 14 8 19 9 13 1 -7 11 -13 24 -12 21 0
21 1 2 9 -16 7 -17 9 -3 9 15 1 31 -14 33 -29 18 -125 32 -1630 16 -1630 -6 0
-11 9 -11 21 0 16 -5 20 -27 17 -26 -3 -28 0 -31 35 -3 31 1 39 20 46 l23 10
-23 0 c-23 1 -23 3 -22 104 3 196 -13 891 -20 872 -4 -10 -6 -33 -4 -49 2 -32
6 -781 4 -826 -1 -23 -2 -23 -10 -5 -8 19 -9 19 -9 1 -1 -19 -1 -19 -14 -1 -8
10 -19 15 -25 11 -8 -5 -12 0 -12 13 0 19 20 27 53 22 4 0 7 6 7 14 0 8 -6 14
-12 12 -8 -1 -12 7 -11 21 2 13 -1 21 -6 18 -5 -3 -11 7 -14 22 -3 15 -9 39
-12 53 -6 24 -4 28 24 34 38 8 41 25 4 25 -28 0 -28 1 -31 69 -1 43 2 72 9 77
8 4 7 9 -2 15 -10 6 -14 57 -15 221 0 117 -2 219 -3 226 -3 28 -21 -1 -21 -34
0 -22 -5 -34 -14 -34 -8 0 -16 -6 -19 -14 -4 -9 0 -12 13 -9 15 4 20 -3 25
-42 5 -30 4 -50 -4 -58 -6 -6 -10 -22 -10 -36 1 -25 2 -24 9 4 6 22 8 11 9
-45 1 -99 -5 -120 -35 -120 -29 0 -44 30 -39 81 2 18 4 40 4 48 1 8 8 11 21 8
22 -6 23 -5 14 17 -3 9 -12 16 -19 16 -18 0 -28 50 -20 104 4 24 4 59 0 76
-14 62 -22 9 -19 -128 2 -152 -5 -272 -16 -272 -4 0 -6 12 -4 28 l4 27 -15
-30 c-13 -27 -14 -28 -15 -7 0 14 -4 21 -11 17 -7 -5 -9 12 -7 50 2 34 8 59
16 62 6 3 12 17 11 32 l-1 26 -8 -25 c-8 -25 -8 -25 -11 5 -1 17 -2 36 -2 43
1 6 -3 12 -8 12 -6 0 -9 -125 -9 -301 1 -226 -2 -304 -11 -316 -10 -12 -10
-16 2 -24 18 -11 29 -11 29 0 0 5 16 11 35 13 28 3 35 1 35 -14 0 -10 -10 -20
-25 -24 -14 -3 -25 -11 -25 -17 0 -6 -6 -3 -13 7 -10 14 -17 15 -40 7 -16 -6
-35 -11 -43 -11 -22 0 -16 30 9 41 l22 10 -22 -5 c-20 -4 -23 0 -23 27 0 43
-8 30 -13 -23 -3 -25 -6 -47 -6 -50 -1 -3 -14 -7 -30 -8 -26 -2 -28 1 -30 35
0 21 -3 52 -4 68 -2 17 -5 104 -7 195 -2 91 -5 146 -7 123 -2 -24 -9 -43 -16
-43 -7 0 -23 -3 -36 -7 -19 -5 -23 -3 -19 9 9 21 -33 65 -56 60 -11 -2 -23 3
-28 13 -6 10 -14 13 -21 7 -11 -8 -69 -20 -122 -25 -11 -1 -21 5 -23 16 -3 13
4 17 30 18 18 1 39 1 46 0 6 -1 12 5 12 14 0 13 -6 15 -32 9 -65 -14 -63 -17
-65 81 -8 461 -11 557 -18 563 -4 4 -6 -7 -3 -25 2 -18 1 -30 -4 -27 -4 3 -8
48 -8 100 0 61 4 93 10 89 6 -3 10 3 10 15 0 12 -4 18 -10 15 -6 -4 -9 17 -8
57 l1 63 7 -55 7 -55 1 62 c3 81 8 93 43 93 34 0 38 -10 42 -130 3 -76 3 -73
5 29 2 99 4 112 18 107 9 -3 24 -6 35 -6z m-514 -47 c-3 -10 -5 -2 -5 17 0 19
2 27 5 18 2 -10 2 -26 0 -35z m-4500 -25 c-2 -13 -4 -5 -4 17 -1 22 1 32 4 23
2 -10 2 -28 0 -40z m4757 -3 c-4 -8 -8 -15 -10 -15 -2 0 -4 7 -4 15 0 8 4 15
10 15 5 0 7 -7 4 -15z m-4693 -38 c11 -3 19 -14 20 -29 0 -12 3 -17 6 -10 11
27 23 9 23 -35 l0 -48 -20 25 c-11 14 -20 29 -20 33 0 5 -9 20 -20 34 -11 14
-19 37 -19 52 2 22 2 23 6 5 2 -12 13 -24 24 -27z m4596 -19 c-2 -13 -4 -5 -4
17 -1 22 1 32 4 23 2 -10 2 -28 0 -40z m-5257 22 c0 -5 -2 -10 -4 -10 -3 0 -8
5 -11 10 -3 6 -1 10 4 10 6 0 11 -4 11 -10z m-176 -86 c26 -10 18 -24 -14 -24
-29 0 -38 9 -23 23 8 9 17 9 37 1z m775 -151 c-1 -112 -4 -146 -10 -118 -13
67 -8 275 7 275 2 0 3 -71 3 -157z m5871 140 c0 -10 17 -45 37 -78 32 -51 37
-70 41 -132 5 -85 -2 -123 -23 -123 -20 0 -19 -25 2 -57 16 -24 18 -82 25
-652 4 -344 4 -629 0 -632 -14 -12 -61 -19 -67 -10 -7 12 -12 195 -19 721 -4
217 -9 527 -12 688 -4 205 -2 292 5 292 6 0 11 -8 11 -17z m-7690 -13 c0 -5
-2 -10 -4 -10 -3 0 -8 5 -11 10 -3 6 -1 10 4 10 6 0 11 -4 11 -10z m1060 -30
c0 -5 -11 -10 -24 -10 -14 0 -28 5 -31 10 -4 6 7 10 24 10 17 0 31 -4 31 -10z
m799 -58 c-1 -31 -5 -84 -9 -117 -6 -51 -7 -42 -9 63 0 80 3 121 9 117 6 -3
10 -32 9 -63z m30 -72 c-1 -61 -5 -113 -10 -116 -5 -3 -9 45 -9 110 0 74 4
116 10 116 7 0 10 -40 9 -110z m30 33 c0 -32 -4 -76 -8 -98 -7 -32 -9 -21 -10
58 -1 59 3 97 9 97 6 0 10 -25 9 -57z m88 0 c-3 -10 -5 -2 -5 17 0 19 2 27 5
18 2 -10 2 -26 0 -35z m-30 -50 c-4 -17 -4 -17 -12 0 -4 9 -4 25 0 35 8 16 8
16 12 0 3 -10 3 -26 0 -35z m-759 -41 c3 -9 -3 -13 -19 -10 -12 1 -24 9 -27
16 -3 9 3 13 19 10 12 -1 24 -9 27 -16z m5459 -54 c-2 -13 -4 -3 -4 22 0 25 2
35 4 23 2 -13 2 -33 0 -45z m-4710 -20 c-3 -7 -5 -2 -5 12 0 14 2 19 5 13 2
-7 2 -19 0 -25z m40 0 c-3 -7 -5 -2 -5 12 0 14 2 19 5 13 2 -7 2 -19 0 -25z
m-955 -18 c7 0 6 -5 -1 -14 -11 -14 -51 -11 -51 3 0 14 14 22 28 16 7 -3 18
-5 24 -5z m5538 -157 c0 -80 -2 -144 -4 -142 -9 11 -15 289 -6 289 6 0 10 -57
10 -147z m-5540 102 c0 -15 -43 -12 -48 3 -3 10 4 13 22 10 15 -2 26 -7 26
-13z m5579 -139 c-9 -8 -10 -5 -5 14 3 14 7 41 8 60 1 27 3 23 5 -14 3 -30 0
-53 -8 -60z m-4819 -131 l-7 -190 -1 200 c-1 112 2 195 7 190 4 -6 5 -95 1
-200z m40 34 c0 -77 -4 -118 -10 -114 -14 9 -8 235 6 235 2 0 4 -54 4 -121z
m-660 107 c0 -3 -4 -8 -10 -11 -5 -3 -10 -1 -10 4 0 6 5 11 10 11 6 0 10 -2
10 -4z m5367 -88 c-2 -18 -4 -4 -4 32 0 36 2 50 4 33 2 -18 2 -48 0 -65z m111
-60 l-4 -33 -8 37 c-5 21 -5 50 0 65 l8 28 4 -32 c2 -18 2 -48 0 -65z m19 50
c-3 -7 -5 -2 -5 12 0 14 2 19 5 13 2 -7 2 -19 0 -25z m-100 -105 c-2 -16 -4
-3 -4 27 0 30 2 43 4 28 2 -16 2 -40 0 -55z m-192 -19 c-6 -59 -8 -65 -22 -51
-11 11 -13 25 -8 56 4 23 11 39 16 35 5 -3 9 5 9 17 0 12 3 20 6 16 4 -3 3
-36 -1 -73z m33 -46 l-1 -123 -8 105 c-6 96 -4 140 7 140 2 0 3 -55 2 -122z
m129 40 c-2 -18 -4 -6 -4 27 0 33 2 48 4 33 2 -15 2 -42 0 -60z m-20 -5 c-2
-16 -4 -5 -4 22 0 28 2 40 4 28 2 -13 2 -35 0 -50z m-19 -15 c-1 -61 -1 -61
-7 -18 -4 25 -5 53 -3 63 8 34 12 16 10 -45z m169 10 c-2 -13 -4 -5 -4 17 -1
22 1 32 4 23 2 -10 2 -28 0 -40z m-200 -40 c-2 -18 -4 -6 -4 27 0 33 2 48 4
33 2 -15 2 -42 0 -60z m-180 -135 c-2 -37 -3 -9 -3 62 0 72 1 102 3 68 2 -34
2 -93 0 -130z m300 115 c-3 -8 -6 -5 -6 6 -1 11 2 17 5 13 3 -3 4 -12 1 -19z
m753 0 c0 -5 0 -11 0 -15 0 -4 -8 -8 -17 -8 -9 0 -18 -6 -21 -14 -3 -11 2 -12
22 -7 26 6 27 5 23 -26 -2 -23 -9 -34 -23 -37 -10 -2 -22 -8 -26 -15 -5 -6 -8
-1 -9 14 -4 58 -5 96 -2 105 4 11 53 14 53 3z m-973 -75 c-2 -16 -4 -5 -4 22
0 28 2 40 4 28 2 -13 2 -35 0 -50z m20 20 c-3 -10 -5 -2 -5 17 0 19 2 27 5 18
2 -10 2 -26 0 -35z m150 0 c-3 -10 -5 -2 -5 17 0 19 2 27 5 18 2 -10 2 -26 0
-35z m-2963 2 c-21 -19 -42 -34 -45 -35 -3 0 -35 -27 -70 -59 -35 -33 -66 -55
-68 -49 -2 7 9 23 25 36 94 80 112 95 143 117 51 37 60 30 15 -10z m3676 25
c0 -5 -11 -10 -25 -10 -14 0 -25 5 -25 10 0 6 11 10 25 10 14 0 25 -4 25 -10z
m-1053 -182 c-2 -35 -3 -7 -3 62 0 69 1 97 3 63 2 -35 2 -91 0 -125z m320 120
c-2 -13 -4 -3 -4 22 0 25 2 35 4 23 2 -13 2 -33 0 -45z m50 40 c-3 -8 -6 -5
-6 6 -1 11 2 17 5 13 3 -3 4 -12 1 -19z m-3794 -2 c21 -16 22 -32 2 -40 -8 -3
-14 0 -12 6 1 7 -3 12 -10 13 -17 0 -26 12 -18 24 8 14 16 13 38 -3z m-71 -19
c10 -16 -1 -34 -23 -40 -18 -5 -19 -2 -14 25 5 21 4 28 -4 24 -6 -4 -11 -2
-11 4 0 13 41 3 52 -13z m3645 -29 c-2 -13 -4 -5 -4 17 -1 22 1 32 4 23 2 -10
2 -28 0 -40z m120 20 c-3 -8 -6 -5 -6 6 -1 11 2 17 5 13 3 -3 4 -12 1 -19z
m795 -7 c-3 -30 0 -27 -39 -34 -32 -6 -33 -6 -33 29 0 35 1 35 38 32 33 -3 37
-6 34 -27z m-4645 3 c-3 -3 -12 -4 -19 -1 -8 3 -5 6 6 6 11 1 17 -2 13 -5z
m32 -31 c-5 -21 -9 -53 -9 -72 0 -28 -2 -32 -15 -21 -11 9 -12 17 -5 30 6 10
10 34 10 54 0 19 6 37 13 39 6 3 13 6 13 6 1 1 -2 -16 -7 -36z m3678 0 c-3
-10 -5 -4 -5 12 0 17 2 24 5 18 2 -7 2 -21 0 -30z m-2074 1 c21 -14 36 -28 34
-31 -3 -2 -24 9 -48 26 -51 37 -39 42 14 5z m2194 -41 c-2 -16 -4 -5 -4 22 0
28 2 40 4 28 2 -13 2 -35 0 -50z m50 30 c-3 -10 -5 -4 -5 12 0 17 2 24 5 18 2
-7 2 -21 0 -30z m406 30 c-7 -2 -19 -2 -25 0 -7 3 -2 5 12 5 14 0 19 -2 13 -5z
m107 -23 c0 -11 -6 -20 -12 -20 -7 0 -23 -3 -35 -6 -18 -5 -23 -2 -23 14 0 15
8 22 28 25 15 2 30 5 35 6 4 0 7 -8 7 -19z m-4212 -8 c-4 -21 -52 -23 -56 -2
-2 10 7 16 28 17 25 2 31 -1 28 -15z m3629 -149 c-2 -32 -3 -6 -3 57 0 63 1
89 3 58 2 -32 2 -84 0 -115z m-2032 127 c12 -19 -12 -10 -31 11 -19 22 -19 22
3 10 12 -6 25 -16 28 -21z m2535 16 c0 -7 -14 -16 -32 -20 -36 -7 -43 -3 -35
19 8 19 67 21 67 1z m-3333 -61 c-47 -30 -97 -65 -112 -79 -22 -21 -30 -23
-45 -14 -31 19 -32 50 -5 78 23 22 25 23 25 6 0 -11 -7 -28 -17 -38 -12 -14
-13 -18 -3 -18 13 0 43 18 137 82 47 32 84 48 96 41 4 -3 -30 -29 -76 -58z
m3252 41 c-2 -2 -19 -7 -38 -11 -26 -5 -32 -4 -29 6 6 17 50 29 62 18 5 -5 8
-10 5 -13z m-3624 4 c-3 -5 -11 -10 -16 -10 -6 0 -7 5 -4 10 3 6 11 10 16 10
6 0 7 -4 4 -10z m3539 -9 c3 -5 -1 -12 -10 -15 -24 -9 -64 -7 -64 3 0 17 65
27 74 12z m-2392 -33 c45 -29 49 -35 46 -65 -4 -30 -1 -33 41 -49 25 -10 54
-26 65 -36 20 -18 20 -18 -2 -18 -11 0 -24 5 -27 10 -3 6 -13 10 -20 10 -10 0
-8 -10 10 -36 26 -39 32 -69 15 -79 -5 -3 -16 -3 -22 2 -7 4 -17 8 -23 9 -30
4 -53 18 -49 29 3 7 1 16 -5 20 -6 3 -11 15 -11 25 0 44 -63 68 -75 29 -6 -17
-9 -18 -16 -8 -4 8 -3 19 4 28 10 12 8 13 -15 8 -15 -4 -30 -3 -33 3 -3 5 -15
10 -25 10 -10 0 -22 5 -26 12 -5 8 10 9 59 4 37 -3 67 -4 67 -1 0 2 -23 16
-51 31 -74 37 -53 42 24 5 36 -17 73 -31 82 -31 17 0 17 1 0 20 -14 15 -15 20
-4 20 17 0 -31 46 -69 66 -21 11 -23 14 -8 14 10 0 41 -15 68 -32z m1845 -30
c-2 -13 -4 -3 -4 22 0 25 2 35 4 23 2 -13 2 -33 0 -45z m-3514 45 c-7 -2 -21
-2 -30 0 -10 3 -4 5 12 5 17 0 24 -2 18 -5z m3684 -25 c-3 -7 -5 -2 -5 12 0
14 2 19 5 13 2 -7 2 -19 0 -25z m20 10 c-3 -8 -6 -5 -6 6 -1 11 2 17 5 13 3
-3 4 -12 1 -19z m160 -15 c-3 -10 -5 -4 -5 12 0 17 2 24 5 18 2 -7 2 -21 0
-30z m643 5 c0 -5 -4 -8 -10 -8 -5 0 -10 10 -10 23 0 18 2 19 10 7 5 -8 10
-18 10 -22z m94 11 c-7 -12 -54 -12 -54 0 0 11 30 19 47 13 7 -2 10 -8 7 -13z
m-3099 -15 c11 -8 14 -14 8 -14 -14 0 -83 29 -83 35 0 9 54 -7 75 -21z m-1415
12 c0 -11 -19 -15 -25 -6 -3 5 1 10 9 10 9 0 16 -2 16 -4z m3239 -68 l-1 -73
-9 60 c-9 56 -7 85 6 85 3 0 4 -33 4 -72z m-3259 46 c19 -3 42 -8 50 -11 23
-9 74 -2 82 11 5 6 8 2 8 -11 0 -19 7 -22 55 -28 30 -4 57 -11 60 -15 6 -10
-24 -22 -35 -15 -7 4 -304 65 -317 65 -2 0 -3 5 -3 11 0 8 11 9 33 5 17 -4 48
-10 67 -12z m80 6 c0 -5 -4 -10 -10 -10 -5 0 -10 5 -10 10 0 6 5 10 10 10 6 0
10 -4 10 -10z m3497 -27 c-3 -10 -5 -4 -5 12 0 17 2 24 5 18 2 -7 2 -21 0 -30z
m993 -13 c-20 -12 -55 -6 -55 10 0 20 59 31 63 11 2 -7 -1 -17 -8 -21z m-4390
20 c0 -5 -7 -10 -15 -10 -8 0 -15 5 -15 10 0 6 7 10 15 10 8 0 15 -4 15 -10z
m4320 -13 c0 -7 -9 -20 -20 -30 -11 -9 -20 -13 -20 -8 0 5 -8 8 -17 7 -11 0
-19 7 -21 21 -3 18 2 22 30 25 39 4 48 1 48 -15z m-1003 -19 c-3 -7 -5 -2 -5
12 0 14 2 19 5 13 2 -7 2 -19 0 -25z m20 -45 c-2 -16 -4 -3 -4 27 0 30 2 43 4
28 2 -16 2 -40 0 -55z m20 -75 c-2 -29 -3 -6 -3 52 0 58 1 81 3 53 2 -29 2
-77 0 -105z m504 119 c-1 -12 -15 -9 -19 4 -3 6 1 10 8 8 6 -3 11 -8 11 -12z
m96 7 c-3 -3 -12 -4 -19 -1 -8 3 -5 6 6 6 11 1 17 -2 13 -5z m-2320 -19 c3 -9
20 -23 37 -32 19 -10 26 -18 17 -21 -7 -2 -16 0 -20 6 -3 5 -20 13 -37 16 -25
6 -31 11 -27 27 6 23 21 25 30 4z m1660 -17 c-3 -7 -5 -2 -5 12 0 14 2 19 5
13 2 -7 2 -19 0 -25z m160 -5 c-3 -10 -5 -4 -5 12 0 17 2 24 5 18 2 -7 2 -21
0 -30z m-320 -20 c-3 -10 -5 -2 -5 17 0 19 2 27 5 18 2 -10 2 -26 0 -35z m922
10 c-1 -23 -3 -29 -6 -16 -4 19 -9 21 -34 16 -22 -4 -29 -2 -29 10 0 17 14 25
48 26 19 1 22 -4 21 -36z m-4302 21 c-3 -3 -12 -4 -19 -1 -8 3 -5 6 6 6 11 1
17 -2 13 -5z m3560 -31 c-3 -10 -5 -4 -5 12 0 17 2 24 5 18 2 -7 2 -21 0 -30z
m663 22 c0 -8 -6 -15 -12 -15 -7 0 -23 -3 -35 -6 -17 -5 -23 -2 -23 9 0 17 14
25 48 26 13 1 22 -5 22 -14z m-4520 -5 c0 -5 -5 -10 -11 -10 -5 0 -7 5 -4 10
3 6 8 10 11 10 2 0 4 -4 4 -10z m1315 1 c-6 -5 -32 -17 -60 -26 -27 -9 -54
-20 -60 -25 -5 -4 -29 -13 -53 -20 -24 -6 -49 -13 -56 -16 -8 -3 -16 2 -20 11
-4 12 -1 15 12 13 9 -2 58 13 107 33 85 35 151 50 130 30z m3125 -5 c0 -13
-28 -26 -57 -26 -23 0 -14 28 10 33 41 8 47 7 47 -7z m-3590 -11 c0 -8 -4 -15
-10 -15 -5 0 -7 7 -4 15 4 8 8 15 10 15 2 0 4 -7 4 -15z m230 11 c0 -3 -4 -8
-10 -11 -5 -3 -10 -1 -10 4 0 6 5 11 10 11 6 0 10 -2 10 -4z m1572 -40 c9 -14
-1 -28 -15 -19 -6 4 -23 8 -36 9 -14 2 -31 10 -37 19 -9 11 -14 13 -19 5 -5
-8 -11 -8 -17 -2 -6 6 -7 15 -4 20 7 12 117 -16 128 -32z m-2199 27 c-7 -2
-19 -2 -25 0 -7 3 -2 5 12 5 14 0 19 -2 13 -5z m3907 -2 c0 -9 -34 -21 -62
-21 -10 0 -18 4 -18 9 0 5 8 12 18 14 31 8 62 7 62 -2z m-3863 -7 c-3 -3 -12
-4 -19 -1 -8 3 -5 6 6 6 11 1 17 -2 13 -5z m4400 -20 c-9 -9 -28 6 -21 18 4 6
10 6 17 -1 6 -6 8 -13 4 -17z m-4282 6 l30 -8 -30 0 c-16 0 -41 4 -55 8 l-25
8 25 0 c14 0 39 -4 55 -8z m975 -19 c22 -8 26 -15 28 -56 2 -60 30 -122 78
-174 22 -25 34 -45 27 -49 -5 -4 -13 -20 -17 -35 -6 -24 -9 -27 -21 -17 -12
10 -15 9 -15 -4 0 -19 -5 -20 -31 -6 -23 13 -25 30 -3 30 8 0 12 4 9 10 -4 6
6 7 25 4 19 -4 30 -2 30 5 0 15 -73 14 -87 0 -9 -9 -20 -9 -43 1 -17 7 -51 10
-80 8 -28 -3 -50 -1 -50 3 0 5 7 9 15 9 12 0 15 16 15 84 0 62 4 89 15 100 8
8 15 22 15 31 0 9 7 32 16 51 13 26 19 31 32 24 10 -6 28 -14 42 -19z m240 11
c0 -5 -15 -8 -34 -8 -19 1 -32 4 -29 8 6 11 63 10 63 0z m2047 -59 c-2 -16 -4
-5 -4 22 0 28 2 40 4 28 2 -13 2 -35 0 -50z m-3477 47 c0 -5 -4 -10 -10 -10
-5 0 -10 5 -10 10 0 6 5 10 10 10 6 0 10 -4 10 -10z m2183 -15 c20 -4 37 -12
37 -17 0 -6 6 -5 15 2 12 10 15 10 15 -4 0 -10 -9 -16 -25 -16 -14 0 -25 5
-25 11 0 5 -5 7 -10 4 -6 -4 -17 -1 -25 5 -8 6 -18 9 -24 6 -5 -3 -11 0 -14 8
-7 16 4 31 12 17 3 -5 23 -12 44 -16z m1037 10 c0 -8 -4 -15 -10 -15 -5 0 -10
7 -10 15 0 8 5 15 10 15 6 0 10 -7 10 -15z m-3523 -92 c-2 -21 -4 -6 -4 32 0
39 2 55 4 38 2 -18 2 -50 0 -70z m133 42 c0 -30 -4 -55 -8 -55 -5 0 -8 19 -7
43 2 56 4 67 10 67 3 0 5 -25 5 -55z m4367 18 c-3 -10 -5 -4 -5 12 0 17 2 24
5 18 2 -7 2 -21 0 -30z m243 33 c0 -9 -40 -13 -46 -5 -3 5 6 9 20 9 14 0 26
-2 26 -4z m-4660 -46 c0 -22 -4 -40 -10 -40 -11 0 -14 63 -3 73 11 12 13 8 13
-33z m-53 -7 c-3 -10 -5 -4 -5 12 0 17 2 24 5 18 2 -7 2 -21 0 -30z m1770 10
c14 -16 31 -37 39 -47 10 -15 16 -17 28 -7 12 10 18 5 37 -29 12 -22 26 -40
31 -40 4 0 8 -9 8 -20 0 -11 5 -20 10 -20 6 0 10 -11 10 -25 0 -14 7 -28 15
-31 18 -7 20 -24 3 -24 -6 0 -20 -7 -30 -17 -10 -9 -20 -14 -22 -12 -8 7 -10
94 -3 106 3 5 -7 23 -23 38 -17 16 -30 35 -30 42 0 9 -8 13 -22 11 -16 -2 -29
8 -49 37 -15 22 -33 40 -41 41 -26 2 -29 4 -23 14 11 18 35 11 62 -17z m593 6
c0 7 5 9 10 6 16 -10 1 -25 -25 -25 -19 0 -22 4 -18 21 6 21 7 21 20 4 7 -11
13 -13 13 -6z m2460 -4 c0 -15 -16 -22 -50 -21 -15 1 -25 7 -25 16 0 15 41 30
63 22 6 -2 12 -10 12 -17z m-540 -16 c0 -5 -4 -9 -10 -9 -5 0 -10 7 -10 16 0
8 5 12 10 9 6 -3 10 -10 10 -16z m-1873 -11 c-3 -8 -6 -5 -6 6 -1 11 2 17 5
13 3 -3 4 -12 1 -19z m1320 -10 c-3 -7 -5 -2 -5 12 0 14 2 19 5 13 2 -7 2 -19
0 -25z m-1277 12 c0 -5 -4 -10 -10 -10 -5 0 -10 5 -10 10 0 6 5 10 10 10 6 0
10 -4 10 -10z m80 -9 c3 -1 -1 -5 -8 -10 -15 -9 -64 -2 -58 8 4 6 49 7 66 2z
m1940 -5 c0 -17 -49 -31 -63 -17 -7 7 -6 12 4 15 8 2 21 7 29 9 25 9 30 8 30
-7z m-3333 -2 c-3 -3 -12 -4 -19 -1 -8 3 -5 6 6 6 11 1 17 -2 13 -5z m1217 -3
c3 -5 -1 -11 -9 -15 -15 -6 -29 7 -18 18 9 9 21 8 27 -3z m2026 -21 c-8 -5
-25 -10 -38 -10 -30 0 -24 22 9 31 29 7 50 -8 29 -21z m-3325 0 c-65 -24 -93
-24 -35 0 25 10 54 18 65 18 11 0 -2 -8 -30 -18z m1555 5 c0 -9 -6 -12 -16 -8
-13 5 -13 7 -2 14 17 11 18 11 18 -6z m1699 -10 c-3 -3 -20 -8 -39 -11 -25 -6
-32 -4 -28 7 5 16 49 29 62 18 5 -5 7 -11 5 -14z m-1902 -7 c-3 -8 -6 -5 -6 6
-1 11 2 17 5 13 3 -3 4 -12 1 -19z m1823 7 c0 -15 -66 -33 -78 -21 -10 11 18
24 44 21 13 -1 24 2 24 6 0 5 2 9 5 9 3 0 5 -7 5 -15z m-1780 -5 c0 -5 -4 -10
-10 -10 -5 0 -10 5 -10 10 0 6 5 10 10 10 6 0 10 -4 10 -10z m-85 -21 c11 -17
-1 -21 -15 -4 -8 9 -8 15 -2 15 6 0 14 -5 17 -11z m162 5 c-3 -3 -12 -4 -19
-1 -8 3 -5 6 6 6 11 1 17 -2 13 -5z m2379 -81 c0 0 -16 -3 -35 -5 -45 -4 -55
20 -12 28 31 7 44 34 15 34 -8 0 -12 5 -9 10 4 6 11 8 16 5 5 -4 10 0 10 7 1
7 5 -7 9 -32 4 -25 7 -46 6 -47z m-3803 54 c15 -9 37 -17 51 -17 14 0 28 -5
32 -11 5 -8 -6 -10 -37 -5 -75 10 -127 13 -137 7 -7 -5 -32 -65 -32 -78 0 -2
15 -10 33 -18 l32 -14 -29 2 c-15 1 -31 7 -33 14 -3 7 -11 13 -19 13 -20 0
-17 30 6 68 23 38 24 42 9 42 -16 0 -50 -41 -43 -51 6 -10 -27 -58 -40 -59 -5
0 -6 13 -3 30 4 17 2 32 -5 36 -8 5 -9 2 -5 -9 3 -10 2 -17 -3 -17 -5 0 -16
-7 -24 -16 -21 -21 -21 -2 1 47 9 20 25 41 35 46 35 15 183 8 211 -10z m724
-17 c12 0 13 -3 4 -14 -6 -7 -22 -11 -36 -8 -30 5 -30 5 -7 40 17 26 17 26 20
4 2 -12 10 -22 19 -22z m220 18 c-3 -8 -6 -5 -6 6 -1 11 2 17 5 13 3 -3 4 -12
1 -19z m363 2 c0 -5 -4 -10 -10 -10 -5 0 -10 5 -10 10 0 6 5 10 10 10 6 0 10
-4 10 -10z m40 -16 c0 -8 -5 -12 -10 -9 -6 4 -8 11 -5 16 9 14 15 11 15 -7z
m-1735 -3 c3 -6 -1 -13 -9 -18 -21 -12 -67 -71 -71 -90 -2 -10 -4 -20 -4 -22
-1 -2 -8 2 -16 9 -17 14 -36 4 -99 -55 -21 -20 -41 -34 -43 -31 -10 9 38 66
80 95 23 16 64 50 92 75 52 48 60 52 70 37z m3012 -28 c-3 -10 -5 -4 -5 12 0
17 2 24 5 18 2 -7 2 -21 0 -30z m-1680 -3 c2 -11 -2 -20 -7 -20 -6 0 -10 12
-10 27 0 29 12 24 17 -7z m2763 -15 c-13 -15 -60 -7 -60 10 0 17 40 24 58 12
8 -7 9 -13 2 -22z m-1743 19 c-3 -3 -12 -4 -19 -1 -8 3 -5 6 6 6 11 1 17 -2
13 -5z m1210 0 c-3 -3 -12 -4 -19 -1 -8 3 -5 6 6 6 11 1 17 -2 13 -5z m-1827
-14 c0 -5 -5 -10 -11 -10 -5 0 -7 5 -4 10 3 6 8 10 11 10 2 0 4 -4 4 -10z
m2278 -2 c-5 -15 -56 -29 -64 -17 -10 16 7 29 37 29 19 0 29 -4 27 -12z
m-3518 -8 c0 -5 -11 -10 -24 -10 -14 0 -28 5 -31 10 -4 6 7 10 24 10 17 0 31
-4 31 -10z m767 -12 c-3 -8 -6 -5 -6 6 -1 11 2 17 5 13 3 -3 4 -12 1 -19z
m2667 13 c7 -11 -17 -21 -50 -21 -23 0 -31 10 -17 23 10 10 61 8 67 -2z m-98
-16 c-21 -16 -56 -20 -56 -7 0 16 13 22 44 22 29 -1 30 -1 12 -15z m-2699 -35
c0 -22 -3 -40 -7 -40 -15 0 -18 -39 -4 -44 20 -7 18 -36 -2 -36 -9 0 -23 -8
-30 -17 -13 -17 -13 -17 -14 0 0 10 -4 15 -10 12 -6 -4 -10 8 -10 29 0 19 -3
42 -7 52 -5 13 -3 16 10 11 12 -4 22 5 38 33 13 22 26 40 29 40 4 0 7 -18 7
-40z m1170 8 c-3 -7 -5 -2 -5 12 0 14 2 19 5 13 2 -7 2 -19 0 -25z m1453 17
c0 -10 -10 -15 -30 -15 -47 0 -35 27 13 29 9 1 17 -6 17 -14z m-80 -5 c0 -12
-49 -25 -58 -16 -3 4 -1 10 5 14 18 11 53 12 53 2z m-86 -9 c3 -5 -1 -12 -10
-15 -27 -10 -44 -7 -44 9 0 16 45 21 54 6z m-74 -11 c0 -10 -33 -19 -62 -18
-21 1 -24 14 -5 21 22 9 67 7 67 -3z m-1870 -32 c28 -29 34 -48 11 -34 -13 8
-54 66 -47 66 3 0 19 -14 36 -32z m747 -15 c-3 -10 -5 -4 -5 12 0 17 2 24 5
18 2 -7 2 -21 0 -30z m1687 22 c-4 -8 -10 -12 -15 -9 -14 8 -10 24 6 24 9 0
12 -6 9 -15z m-3184 -17 c0 -16 -3 -19 -11 -11 -6 6 -8 16 -5 22 11 17 16 13
16 -11z m601 -15 c0 -21 3 -32 6 -26 8 22 33 -12 33 -46 0 -17 -2 -31 -4 -31
-16 0 -36 14 -36 25 0 8 -7 21 -15 29 -12 11 -14 25 -9 51 8 46 24 45 25 -2z
m-1352 -33 c0 -11 -3 -10 -14 4 -8 11 -15 29 -15 40 1 19 2 19 15 -4 8 -14 14
-32 14 -40z m156 30 c-5 -16 -10 -19 -18 -11 -7 7 -6 15 3 26 7 8 15 13 17 11
3 -2 2 -14 -2 -26z m50 1 c-19 -38 -35 -48 -35 -22 0 33 11 51 31 51 18 0 19
-2 4 -29z m216 -18 c-10 -17 -10 -16 -11 3 0 23 13 41 18 25 2 -6 -1 -18 -7
-28z m879 10 c0 -13 -3 -13 -15 -3 -8 7 -12 16 -9 21 8 13 24 1 24 -18z m2830
2 c0 -7 -8 -12 -17 -11 -10 2 -17 6 -15 9 1 4 2 11 2 17 0 5 7 7 15 4 8 -4 15
-12 15 -19z m-4187 -14 c4 -17 2 -18 -14 -8 -22 14 -25 27 -5 27 7 0 16 -9 19
-19z m191 -36 c-4 -16 1 -25 18 -33 21 -11 21 -11 -7 -5 -37 7 -32 3 -41 37
-5 19 -3 27 4 22 6 -4 8 2 5 16 -4 22 -4 22 11 4 9 -11 13 -29 10 -41z m146
-18 c0 -10 6 -28 14 -40 8 -12 20 -48 27 -80 10 -48 10 -60 -1 -67 -7 -4 -9
-13 -5 -20 5 -9 4 -11 -3 -6 -7 4 -12 18 -12 31 0 35 -21 77 -37 71 -7 -3 -13
1 -13 9 0 8 9 15 20 15 24 0 26 14 4 32 -8 7 -23 21 -32 31 -9 9 -26 17 -37
17 -18 0 -17 2 5 13 14 7 27 23 28 37 l4 24 19 -25 c10 -13 19 -32 19 -42z
m1377 21 c-3 -8 -6 -5 -6 6 -1 11 2 17 5 13 3 -3 4 -12 1 -19z m2478 -18 c-4
-13 -10 -19 -14 -14 -3 5 -16 9 -28 8 -35 -2 -31 34 5 38 35 5 46 -5 37 -32z
m-3415 15 c-7 -14 -53 -11 -58 4 -3 9 6 11 29 9 19 -2 32 -7 29 -13z m3320
-10 c0 -5 -13 -10 -30 -11 -29 -1 -37 6 -23 20 10 10 54 3 53 -9z m-171 -19
c-9 -9 -58 -10 -59 -1 -2 13 42 24 54 14 5 -5 8 -11 5 -13z m86 9 c0 -5 -15
-11 -32 -13 -25 -3 -33 1 -33 13 0 12 8 16 33 13 17 -2 32 -7 32 -13z m-257
-22 c2 -9 -8 -13 -32 -13 -34 0 -44 8 -29 24 11 11 56 2 61 -11z m87 8 c-6 -5
-22 -13 -37 -16 -22 -6 -28 -4 -28 9 0 12 10 16 37 16 23 0 33 -4 28 -9z
m-175 -16 c0 -6 -13 -12 -30 -13 -27 -2 -38 7 -25 19 9 10 55 5 55 -6z m-3371
-43 c0 -30 -2 -33 -9 -17 -12 28 -12 67 0 60 6 -3 10 -23 9 -43z m991 38 c0
-5 -5 -10 -11 -10 -5 0 -7 5 -4 10 3 6 8 10 11 10 2 0 4 -4 4 -10z m2295 0 c3
-5 -6 -12 -20 -16 -29 -7 -41 -1 -30 15 8 14 42 14 50 1z m-2935 -170 c7 -91
16 -173 22 -183 9 -18 -13 -53 -26 -40 -3 4 -6 63 -7 132 0 69 -4 151 -8 181
-7 47 -5 88 4 78 2 -2 8 -77 15 -168z m370 111 c-1 -13 -30 34 -30 48 0 9 7 3
15 -13 8 -15 15 -31 15 -35z m2396 37 c-9 -5 -24 -7 -34 -5 -14 3 -12 6 8 14
29 12 50 5 26 -9z m90 11 c3 -5 -9 -9 -25 -9 -17 0 -31 4 -31 9 0 5 11 9 25 9
14 0 28 -4 31 -9z m-1903 -42 c17 -26 8 -58 -10 -35 -16 20 -26 58 -15 58 5 0
17 -10 25 -23z m-1399 4 c3 -5 -1 -11 -9 -15 -9 -3 -15 0 -15 9 0 16 16 20 24
6z m-204 -31 c0 -5 -2 -10 -4 -10 -3 0 -8 5 -11 10 -3 6 -1 10 4 10 6 0 11 -4
11 -10z m206 -46 c21 8 17 -22 -5 -33 -16 -9 -19 -6 -24 26 -4 20 -3 41 1 47
4 6 8 -2 10 -17 2 -20 8 -27 18 -23z m4194 26 c0 -5 -7 -10 -15 -10 -8 0 -15
5 -15 10 0 6 7 10 15 10 8 0 15 -4 15 -10z m-3653 -47 c-3 -10 -5 -2 -5 17 0
19 2 27 5 18 2 -10 2 -26 0 -35z m3671 -20 c3 -38 0 -43 -22 -49 -55 -14 -78
12 -58 67 8 19 17 24 43 24 33 0 34 -2 37 -42z m-4075 0 c-8 -21 -22 -5 -16
18 4 15 8 17 13 8 5 -7 6 -18 3 -26z m3851 13 c-1 -9 2 -16 7 -16 14 0 11 -40
-3 -45 -7 -2 -67 -6 -133 -9 -66 -2 -127 -7 -135 -9 -16 -6 -433 -27 -517 -27
-29 0 -53 4 -53 9 0 5 20 6 44 4 40 -5 44 -3 50 21 4 15 11 24 16 21 5 -3 12
0 16 7 5 8 12 0 20 -23 l12 -34 12 33 c13 35 43 43 58 16 10 -18 32 -11 32 10
0 8 11 16 25 18 19 4 25 1 25 -13 0 -25 21 -24 27 1 6 24 51 28 59 5 8 -20 21
-19 26 3 7 26 58 28 58 2 0 -29 17 -33 24 -5 8 30 49 35 65 8 10 -18 26 -11
26 10 0 7 13 13 28 15 22 3 30 -1 34 -17 7 -28 23 -27 23 2 0 19 5 23 33 22
24 -1 31 -5 29 -18 -2 -10 4 -17 13 -17 8 0 15 9 15 19 0 22 15 30 45 26 11
-1 19 -9 19 -19z m-3768 -83 c-12 -12 -26 11 -25 40 l1 32 14 -34 c8 -18 13
-36 10 -38z m64 27 c0 -11 -4 -20 -10 -20 -5 0 -10 9 -10 20 0 11 5 20 10 20
6 0 10 -9 10 -20z m2923 -10 c-3 -11 -7 -20 -9 -20 -2 0 -4 9 -4 20 0 11 4 20
9 20 5 0 7 -9 4 -20z m-2627 -12 c10 -12 13 -18 6 -14 -20 12 -26 -22 -8 -49
9 -14 23 -25 31 -25 8 0 15 -7 15 -16 0 -11 -6 -13 -19 -9 -14 4 -21 0 -23
-12 -3 -10 -10 9 -17 42 -7 33 -15 70 -18 83 -7 28 8 28 33 0z m-276 -58 c0
-30 -13 -37 -39 -21 -10 7 -11 13 -2 30 17 32 41 27 41 -9z m625 -10 c3 -5 1
-10 -4 -10 -6 0 -11 5 -11 10 0 6 2 10 4 10 3 0 8 -4 11 -10z m-25 -35 c0 -8
-4 -15 -10 -15 -5 0 -10 7 -10 15 0 8 5 15 10 15 6 0 10 -7 10 -15z m-13 -77
c-3 -7 -5 -2 -5 12 0 14 2 19 5 13 2 -7 2 -19 0 -25z m-887 -8 c0 -5 -5 -10
-12 -10 -9 0 -9 -3 0 -12 17 -17 15 -28 -7 -28 -26 0 -31 10 -20 38 8 22 39
31 39 12z m40 -4 c0 -16 -18 -31 -27 -22 -8 8 5 36 17 36 5 0 10 -6 10 -14z
m26 -144 c11 -11 12 -17 3 -28 -8 -10 -8 -14 0 -14 7 0 11 -22 11 -58 0 -70 8
-81 31 -45 17 25 19 26 24 8 4 -11 12 -33 18 -49 9 -24 8 -31 -6 -41 -9 -7
-17 -25 -17 -40 0 -39 -7 -28 -14 22 -3 23 -1 45 4 48 6 3 10 14 10 23 -1 15
-2 15 -15 -2 -21 -28 -18 -85 5 -124 15 -25 18 -37 10 -52 -12 -23 -13 -93 -1
-86 4 3 17 -4 27 -15 16 -18 16 -19 1 -13 -9 3 -17 2 -17 -4 0 -14 55 -35 77
-29 16 3 15 5 -6 14 -19 8 -21 11 -8 16 10 4 14 13 10 26 -10 40 25 22 46 -24
l14 -30 7 25 c6 24 7 24 20 -12 8 -21 17 -38 21 -38 4 0 9 -13 11 -30 3 -16 2
-30 -2 -30 -3 0 -25 16 -48 36 -55 47 -60 31 -21 -76 16 -47 39 -116 51 -155
11 -38 24 -74 29 -80 5 -5 9 -22 9 -37 0 -15 4 -28 10 -28 5 0 7 7 3 16 -6 17
20 44 43 44 26 0 44 -32 44 -77 l0 -46 25 23 c21 19 25 33 25 78 0 58 24 112
50 112 12 0 12 2 2 9 -11 7 -10 16 7 52 12 23 21 48 21 55 0 6 6 17 14 23 8 6
16 21 19 31 5 19 4 19 -24 -1 -16 -11 -36 -18 -45 -15 -12 5 -12 11 6 46 11
22 25 40 30 40 6 0 10 7 10 15 0 8 7 15 15 15 8 0 15 -9 15 -20 0 -17 4 -19
28 -14 15 4 29 11 30 16 2 4 12 8 22 8 10 0 20 4 22 9 2 5 12 11 23 13 26 4
32 -32 12 -81 -18 -44 -77 -260 -77 -282 0 -8 -14 -36 -30 -61 -18 -27 -28
-52 -24 -62 8 -22 44 -29 78 -17 45 18 56 14 56 -18 0 -18 -7 -32 -17 -37 -19
-8 -213 -22 -213 -15 0 2 7 9 15 15 13 10 11 16 -15 44 -29 32 -55 36 -43 7 3
-10 -1 -15 -11 -15 -9 0 -20 -10 -25 -22 -5 -13 -10 -17 -15 -10 -3 6 -2 13 4
17 14 8 13 25 -2 25 -6 0 -26 -12 -45 -26 -27 -21 -32 -29 -22 -40 6 -8 9 -26
6 -41 -4 -16 -12 -56 -18 -91 -13 -69 -34 -91 -69 -72 -24 13 -26 39 -5 66 8
10 15 33 15 51 0 42 9 63 26 63 8 0 14 5 14 10 0 6 -8 10 -17 10 -21 0 -78 20
-111 38 -30 17 -26 56 6 60 12 2 22 -1 22 -7 0 -6 9 -11 20 -11 29 0 25 13
-20 65 -22 25 -40 52 -40 59 0 7 -16 64 -36 125 -29 89 -42 116 -65 133 -16
12 -29 27 -29 34 0 7 -5 14 -12 16 -7 3 -5 13 7 31 15 23 16 43 12 134 -3 60
-12 158 -21 218 -14 95 -21 283 -9 216 3 -13 11 -31 19 -39z m144 22 c0 -16
-23 -44 -35 -44 -18 0 -20 21 -3 38 12 12 38 17 38 6z m620 -21 c-1 -24 -2
-26 -11 -10 -5 9 -7 22 -4 27 10 17 15 11 15 -17z m-290 -30 c-1 -13 -27 -43
-37 -43 -5 0 -19 -19 -30 -42 -21 -42 -22 -42 -22 -13 -1 20 -4 26 -12 18 -5
-5 -7 -22 -3 -37 8 -34 34 -31 52 7 7 15 17 27 22 27 5 0 17 9 28 20 16 18 20
18 46 4 41 -21 54 -43 54 -91 0 -23 3 -47 6 -52 12 -19 23 -101 15 -107 -5 -3
-9 -14 -9 -24 0 -37 -22 -68 -51 -72 -15 -3 -26 -1 -23 4 3 4 2 13 -2 19 -8
14 -24 -8 -24 -33 0 -9 -11 -28 -24 -41 -12 -13 -25 -29 -28 -37 -3 -10 -8
-10 -26 -1 -16 9 -27 9 -42 1 -25 -14 -40 -5 -40 22 0 12 -7 30 -17 40 -9 11
-11 18 -5 18 7 0 12 6 12 14 0 8 -6 13 -12 13 -31 -1 -78 17 -99 39 -42 45
-35 179 9 172 13 -2 18 6 20 37 2 25 13 53 27 70 20 25 27 28 42 19 15 -9 25
-9 44 2 13 7 39 13 57 14 21 0 32 5 32 14 0 8 6 17 13 19 19 8 27 8 27 0z
m-391 -33 c-6 -16 -15 -30 -20 -30 -13 0 -11 13 7 38 21 30 25 28 13 -8z m717
-29 c-3 -27 -13 -63 -22 -80 -13 -26 -19 -30 -30 -20 -19 16 -18 59 2 59 11 0
14 -6 10 -22 -4 -15 -1 -12 9 7 8 17 14 47 15 68 0 20 5 37 11 37 8 0 10 -15
5 -49z m-3811 -21 c3 -5 -1 -10 -10 -10 -9 0 -13 5 -10 10 3 6 8 10 10 10 2 0
7 -4 10 -10z m210 0 c3 -5 1 -10 -4 -10 -6 0 -11 5 -11 10 0 6 2 10 4 10 3 0
8 -4 11 -10z m1155 -20 c0 -5 -9 -10 -20 -10 -11 0 -23 0 -27 -1 -4 0 -9 4
-11 10 -2 6 10 11 27 11 17 0 31 -4 31 -10z m750 -20 c0 -5 -16 -10 -35 -10
-19 0 -35 5 -35 10 0 6 16 10 35 10 19 0 35 -4 35 -10z m-840 -20 c0 -5 -11
-10 -25 -10 -14 0 -25 5 -25 10 0 6 11 10 25 10 14 0 25 -4 25 -10z m1285 1
c3 -5 1 -12 -5 -16 -5 -3 -10 1 -10 9 0 18 6 21 15 7z m-45 -11 c0 -5 -7 -10
-15 -10 -8 0 -18 0 -22 -1 -4 0 -9 4 -11 10 -2 6 8 11 22 11 14 0 26 -4 26
-10z m275 0 c3 -5 1 -10 -4 -10 -6 0 -11 5 -11 10 0 6 2 10 4 10 3 0 8 -4 11
-10z m-2800 -10 c3 -5 1 -10 -4 -10 -6 0 -11 5 -11 10 0 6 2 10 4 10 3 0 8 -4
11 -10z m1505 0 c0 -5 -4 -10 -9 -10 -5 0 -16 -3 -25 -6 -11 -4 -16 -1 -16 10
0 10 9 16 25 16 14 0 25 -4 25 -10z m820 -33 c0 -20 -5 -24 -30 -25 -16 0 -30
4 -30 9 0 5 11 9 25 9 16 0 25 6 25 15 0 8 2 15 5 15 3 0 5 -11 5 -23z m235
13 c-3 -5 -15 -10 -26 -10 -10 0 -19 5 -19 10 0 6 12 10 26 10 14 0 23 -4 19
-10z m-3485 -15 c0 -16 -17 -19 -45 -9 -13 5 -14 8 -3 15 21 14 48 10 48 -6z
m2599 -1 c2 -2 2 -7 -1 -10 -9 -9 -78 7 -78 18 0 9 69 2 79 -8z m2238 10 c-3
-3 -12 -4 -19 -1 -8 3 -5 6 6 6 11 1 17 -2 13 -5z m-2957 -19 c0 -8 -7 -15
-15 -15 -16 0 -20 12 -8 23 11 12 23 8 23 -8z m808 3 c-3 -7 -20 -14 -39 -15
-19 -1 -25 1 -14 4 11 3 24 9 30 14 13 13 27 11 23 -3z m52 3 c0 -11 -26 -22
-34 -14 -12 12 -5 23 14 23 11 0 20 -4 20 -9z m790 -6 c0 -8 -3 -15 -6 -15 -3
0 -12 7 -20 15 -14 13 -13 15 5 15 12 0 21 -6 21 -15z m68 -5 c21 0 43 -4 50
-9 24 -15 -8 -18 -59 -7 -34 8 -44 15 -41 26 4 11 7 11 10 3 2 -7 20 -13 40
-13z m92 -10 c0 -5 -4 -10 -10 -10 -5 0 -10 5 -10 10 0 6 5 10 10 10 6 0 10
-4 10 -10z m-890 -20 c0 -5 -9 -10 -20 -10 -11 0 -20 5 -20 10 0 6 9 10 20 10
11 0 20 -4 20 -10z m950 -6 c0 -2 -12 -4 -26 -4 -14 0 -23 4 -20 9 6 8 46 4
46 -5z m925 6 c-3 -5 -10 -10 -16 -10 -5 0 -9 5 -9 10 0 6 7 10 16 10 8 0 12
-4 9 -10z m-855 -30 c17 -6 9 -7 -25 -3 -27 3 -52 7 -54 9 -8 7 54 2 79 -6z
m824 -18 c-6 -4 -14 -16 -18 -27 -6 -14 -10 -16 -13 -7 -5 14 27 56 36 47 3
-4 1 -9 -5 -13z m596 8 c0 -5 -5 -10 -11 -10 -5 0 -7 5 -4 10 3 6 8 10 11 10
2 0 4 -4 4 -10z m-1204 -97 c-11 -11 -17 4 -9 23 7 18 8 18 11 1 2 -10 1 -21
-2 -24z m611 -55 c-3 -8 -6 -5 -6 6 -1 11 2 17 5 13 3 -3 4 -12 1 -19z m-2467
-34 c0 -9 -5 -14 -12 -12 -18 6 -21 28 -4 28 9 0 16 -7 16 -16z m2185 -71 c28
-31 15 -45 -16 -17 -18 17 -21 17 -55 0 -40 -19 -60 -12 -29 9 11 8 25 19 30
24 18 18 44 12 70 -16z m-1772 10 c-7 -2 -21 -2 -30 0 -10 3 -4 5 12 5 17 0
24 -2 18 -5z m5680 -240 c-7 -2 -21 -2 -30 0 -10 3 -4 5 12 5 17 0 24 -2 18
-5z m-3820 -330 c4 -27 9 -59 12 -73 9 -35 -28 -79 -53 -63 -10 6 -16 22 -15
39 1 16 3 46 4 67 1 20 5 37 11 37 5 0 4 9 -2 20 -9 17 -8 20 13 20 22 0 25
-6 30 -47z m-48 -239 c-9 -9 -19 -13 -23 -9 -4 4 -2 10 5 12 7 2 16 21 20 41
l8 37 3 -33 c2 -20 -3 -38 -13 -48z m544 -1389 c0 -5 -6 -1 -14 9 -8 11 -15
24 -15 30 0 5 7 1 15 -10 8 -10 14 -23 14 -29z m16 -25 c-3 -5 -12 -10 -18
-10 -7 0 -6 4 3 10 19 12 23 12 15 0z m15 -124 c0 -3 -4 -8 -10 -11 -5 -3 -10
-1 -10 4 0 6 5 11 10 11 6 0 10 -2 10 -4z"/>
<path d="M6792 5133 c-1 -84 -6 -133 -12 -133 -6 0 -15 -10 -20 -22 -7 -19 -9
-14 -11 27 -1 28 -3 42 -6 32 -2 -9 -8 -15 -12 -13 -4 3 -4 -17 -1 -44 3 -27
3 -47 -2 -44 -4 3 -8 -1 -8 -10 0 -8 -5 -16 -10 -18 -6 -2 -13 -21 -15 -43 -3
-22 -2 -33 1 -25 4 8 13 19 20 23 8 4 15 16 15 25 1 9 5 1 9 -18 7 -34 7 -34
9 13 0 27 5 46 9 43 4 -3 16 10 25 27 15 27 17 55 14 172 l-3 140 -2 -132z"/>
<path d="M6764 5207 c-6 -18 1 -125 9 -133 4 -4 7 27 7 69 0 73 -5 93 -16 64z"/>
<path d="M6991 5204 c0 -11 3 -14 6 -6 3 7 2 16 -1 19 -3 4 -6 -2 -5 -13z"/>
<path d="M6723 5165 c0 -22 2 -30 4 -17 2 12 2 30 0 40 -3 9 -5 -1 -4 -23z"/>
<path d="M7023 5145 c0 -27 2 -38 4 -22 2 15 2 37 0 50 -2 12 -4 0 -4 -28z"/>
<path d="M7043 5070 c0 -41 2 -58 4 -37 2 20 2 54 0 75 -2 20 -4 3 -4 -38z"/>
<path d="M7073 5065 c0 -27 2 -38 4 -22 2 15 2 37 0 50 -2 12 -4 0 -4 -28z"/>
<path d="M6912 5070 c0 -19 2 -27 5 -17 2 9 2 25 0 35 -3 9 -5 1 -5 -18z"/>
<path d="M6670 5049 c0 -11 -4 -18 -9 -15 -5 3 -11 -1 -15 -9 -3 -8 -1 -17 4
-20 13 -8 13 -116 0 -135 -7 -11 -10 5 -10 51 0 52 -3 66 -15 66 -18 0 -18 6
-1 -91 17 -94 13 -111 -24 -108 -3 0 -5 -11 -4 -26 3 -53 5 -58 14 -34 5 12
14 22 19 22 5 0 12 14 16 30 4 17 11 28 16 24 5 -3 9 7 10 23 0 15 2 76 5 136
3 59 2 107 -1 107 -3 0 -5 -9 -5 -21z"/>
<path d="M6871 5034 c0 -11 3 -14 6 -6 3 7 2 16 -1 19 -3 4 -6 -2 -5 -13z"/>
<path d="M6695 4989 c7 -70 15 -75 15 -11 0 28 -4 54 -10 57 -6 4 -8 -13 -5
-46z"/>
<path d="M6852 4995 c0 -16 2 -22 5 -12 2 9 2 23 0 30 -3 6 -5 -1 -5 -18z"/>
<path d="M6933 4900 c0 -25 2 -35 4 -22 2 12 2 32 0 45 -2 12 -4 2 -4 -23z"/>
<path d="M6894 4765 c0 -82 2 -115 3 -72 2 43 2 110 0 150 -1 40 -3 5 -3 -78z"/>
<path d="M6572 4867 c-1 -16 -6 -25 -12 -22 -6 4 -10 -9 -9 -32 0 -21 3 -31 6
-23 3 8 10 18 15 21 5 3 8 24 5 45 -2 28 -4 31 -5 11z"/>
<path d="M6874 4790 c0 -52 1 -74 3 -47 2 26 2 68 0 95 -2 26 -3 4 -3 -48z"/>
<path d="M6533 4820 c0 -25 2 -35 4 -22 2 12 2 32 0 45 -2 12 -4 2 -4 -23z"/>
<path d="M6853 4775 c0 -44 2 -61 4 -37 2 23 2 59 0 80 -2 20 -4 1 -4 -43z"/>
<path d="M3280 4801 c0 -5 15 -11 33 -14 17 -3 49 -8 71 -11 21 -4 43 -9 47
-12 5 -3 9 -1 9 5 0 5 -18 12 -40 16 -22 4 -40 11 -40 16 0 5 -18 9 -40 9 -22
0 -40 -4 -40 -9z"/>
<path d="M6470 4702 c0 -56 4 -79 13 -79 8 0 12 19 11 61 -2 87 -3 96 -14 96
-6 0 -10 -33 -10 -78z"/>
<path d="M6532 4725 c0 -16 2 -22 5 -12 2 9 2 23 0 30 -3 6 -5 -1 -5 -18z"/>
<path d="M6452 4720 c0 -14 2 -19 5 -12 2 6 2 18 0 25 -3 6 -5 1 -5 -13z"/>
<path d="M6763 4675 c0 -33 2 -45 4 -27 2 18 2 45 0 60 -2 15 -4 0 -4 -33z"/>
<path d="M6560 4694 c0 -14 4 -23 10 -19 6 3 10 15 10 26 0 10 -4 19 -10 19
-5 0 -10 -12 -10 -26z"/>
<path d="M6743 4670 c0 -30 2 -43 4 -27 2 15 2 39 0 55 -2 15 -4 2 -4 -28z"/>
<path d="M6533 4671 c-16 -25 -17 -51 -3 -51 14 0 22 23 18 50 -3 21 -3 21
-15 1z"/>
<path d="M6873 4655 c0 -22 2 -30 4 -17 2 12 2 30 0 40 -3 9 -5 -1 -4 -23z"/>
<path d="M6840 4626 c0 -8 5 -18 10 -21 6 -3 10 3 10 14 0 12 -4 21 -10 21 -5
0 -10 -6 -10 -14z"/>
<path d="M6803 4585 c0 -22 2 -30 4 -17 2 12 2 30 0 40 -3 9 -5 -1 -4 -23z"/>
<path d="M6763 4545 c0 -38 2 -53 4 -32 2 20 2 52 0 70 -2 17 -4 1 -4 -38z"/>
<path d="M6470 4585 c-13 -16 -6 -50 9 -41 12 8 21 45 11 51 -4 3 -13 -2 -20
-10z"/>
<path d="M6661 4554 c0 -11 3 -14 6 -6 3 7 2 16 -1 19 -3 4 -6 -2 -5 -13z"/>
<path d="M6598 4506 c-7 -39 -4 -55 8 -44 3 3 4 23 2 44 l-3 39 -7 -39z"/>
<path d="M3361 4494 c0 -11 3 -14 6 -6 3 7 2 16 -1 19 -3 4 -6 -2 -5 -13z"/>
<path d="M3246 4461 c-4 -5 3 -7 14 -4 23 6 26 13 6 13 -8 0 -17 -4 -20 -9z"/>
<path d="M3355 4450 c3 -5 8 -10 11 -10 2 0 4 5 4 10 0 6 -5 10 -11 10 -5 0
-7 -4 -4 -10z"/>
<path d="M6682 4430 c0 -19 2 -27 5 -17 2 9 2 25 0 35 -3 9 -5 1 -5 -18z"/>
<path d="M3172 4405 c0 -16 2 -22 5 -12 2 9 2 23 0 30 -3 6 -5 -1 -5 -18z"/>
<path d="M3243 4405 c-9 -20 -8 -25 2 -25 7 0 16 8 19 17 6 15 8 15 17 3 8
-12 9 -11 7 5 -5 29 -31 29 -45 0z"/>
<path d="M6590 4386 c0 -25 5 -46 10 -46 6 0 10 18 10 39 0 22 -4 43 -10 46
-6 4 -10 -12 -10 -39z"/>
<path d="M3310 4413 c0 -8 48 -33 63 -33 5 0 4 7 -3 15 -7 8 -16 13 -20 10 -5
-3 -11 -1 -15 5 -7 12 -25 14 -25 3z"/>
<path d="M5620 4404 c0 -8 5 -12 10 -9 6 3 10 10 10 16 0 5 -4 9 -10 9 -5 0
-10 -7 -10 -16z"/>
<path d="M3395 4390 c-3 -5 -1 -10 4 -10 6 0 11 5 11 10 0 6 -2 10 -4 10 -3 0
-8 -4 -11 -10z"/>
<path d="M5622 4360 c0 -14 2 -19 5 -12 2 6 2 18 0 25 -3 6 -5 1 -5 -13z"/>
<path d="M3436 4297 c-5 -15 -6 -31 -2 -34 11 -11 18 5 14 34 l-4 28 -8 -28z"/>
<path d="M3470 4309 c0 -5 5 -7 10 -4 6 3 10 8 10 11 0 2 -4 4 -10 4 -5 0 -10
-5 -10 -11z"/>
<path d="M4900 4310 c0 -5 5 -10 10 -10 6 0 10 5 10 10 0 6 -4 10 -10 10 -5 0
-10 -4 -10 -10z"/>
<path d="M3400 4281 c0 -11 5 -23 10 -26 6 -3 10 3 10 14 0 11 -4 23 -10 26
-5 3 -10 -3 -10 -14z"/>
<path d="M5450 4261 c0 -5 5 -13 10 -16 6 -3 10 -2 10 4 0 5 -4 13 -10 16 -5
3 -10 2 -10 -4z"/>
<path d="M5370 4240 c0 -5 5 -10 10 -10 6 0 10 5 10 10 0 6 -4 10 -10 10 -5 0
-10 -4 -10 -10z"/>
<path d="M5516 4237 c3 -10 9 -15 12 -12 3 3 0 11 -7 18 -10 9 -11 8 -5 -6z"/>
<path d="M5401 4227 c2 -2 18 -11 36 -19 23 -12 30 -12 27 -3 -3 7 -15 16 -27
19 -25 6 -42 8 -36 3z"/>
<path d="M5510 4190 c0 -6 7 -10 15 -10 8 0 15 2 15 4 0 2 -7 6 -15 10 -8 3
-15 1 -15 -4z"/>
<path d="M5330 4179 c0 -5 5 -7 10 -4 6 3 10 8 10 11 0 2 -4 4 -10 4 -5 0 -10
-5 -10 -11z"/>
<path d="M5561 4174 c0 -11 3 -14 6 -6 3 7 2 16 -1 19 -3 4 -6 -2 -5 -13z"/>
<path d="M5415 4170 c3 -5 8 -10 11 -10 2 0 4 5 4 10 0 6 -5 10 -11 10 -5 0
-7 -4 -4 -10z"/>
<path d="M5370 4140 c-9 -6 -10 -10 -3 -10 6 0 15 5 18 10 8 12 4 12 -15 0z"/>
<path d="M5550 4131 c0 -5 5 -13 10 -16 6 -3 10 -2 10 4 0 5 -4 13 -10 16 -5
3 -10 2 -10 -4z"/>
<path d="M5255 4110 c-3 -5 -1 -10 4 -10 6 0 11 5 11 10 0 6 -2 10 -4 10 -3 0
-8 -4 -11 -10z"/>
<path d="M5290 4109 c0 -5 5 -7 10 -4 6 3 10 8 10 11 0 2 -4 4 -10 4 -5 0 -10
-5 -10 -11z"/>
<path d="M5691 4094 c0 -11 3 -14 6 -6 3 7 2 16 -1 19 -3 4 -6 -2 -5 -13z"/>
<path d="M6107 4068 c-8 -26 5 -46 29 -44 13 0 24 6 24 13 0 7 -7 10 -15 7 -8
-4 -15 -1 -15 5 0 6 8 11 18 11 14 0 15 2 2 10 -21 13 -38 12 -43 -2z"/>
<path d="M6400 4039 c0 -24 23 -21 28 4 2 10 -3 17 -12 17 -10 0 -16 -9 -16
-21z"/>
<path d="M6392 3990 c0 -14 2 -19 5 -12 2 6 2 18 0 25 -3 6 -5 1 -5 -13z"/>
<path d="M6110 3980 c-12 -8 -12 -10 5 -10 11 0 27 5 35 10 12 8 12 10 -5 10
-11 0 -27 -5 -35 -10z"/>
<path d="M6060 3930 c0 -5 5 -10 10 -10 6 0 10 5 10 10 0 6 -4 10 -10 10 -5 0
-10 -4 -10 -10z"/>
<path d="M6397 3920 c-3 -11 -1 -20 4 -20 5 0 9 9 9 20 0 11 -2 20 -4 20 -2 0
-6 -9 -9 -20z"/>
<path d="M6055 3890 c4 -6 11 -8 16 -5 14 9 11 15 -7 15 -8 0 -12 -5 -9 -10z"/>
<path d="M6056 3854 c-9 -22 -8 -24 9 -24 8 0 15 9 15 20 0 24 -15 27 -24 4z"/>
<path d="M6320 3480 c0 -5 5 -10 11 -10 5 0 7 5 4 10 -3 6 -8 10 -11 10 -2 0
-4 -4 -4 -10z"/>
<path d="M7521 5274 c0 -11 3 -14 6 -6 3 7 2 16 -1 19 -3 4 -6 -2 -5 -13z"/>
<path d="M7361 5234 c0 -11 3 -14 6 -6 3 7 2 16 -1 19 -3 4 -6 -2 -5 -13z"/>
<path d="M7779 5140 c-1 -25 -1 -58 0 -75 1 -16 2 -38 2 -48 0 -10 5 -17 12
-14 13 4 12 123 -2 159 -8 20 -10 17 -12 -22z"/>
<path d="M7193 5125 c0 -22 2 -30 4 -17 2 12 2 30 0 40 -3 9 -5 -1 -4 -23z"/>
<path d="M7963 5085 c0 -38 2 -53 4 -32 2 20 2 52 0 70 -2 17 -4 1 -4 -38z"/>
<path d="M7533 4950 c0 -30 2 -43 4 -27 2 15 2 39 0 55 -2 15 -4 2 -4 -28z"/>
<path d="M7870 4920 c0 -40 4 -70 10 -70 6 0 10 30 10 70 0 40 -4 70 -10 70
-6 0 -10 -30 -10 -70z"/>
<path d="M7780 4960 c0 -5 5 -10 10 -10 6 0 10 5 10 10 0 6 -4 10 -10 10 -5 0
-10 -4 -10 -10z"/>
<path d="M7703 4920 c0 -25 2 -35 4 -22 2 12 2 32 0 45 -2 12 -4 2 -4 -23z"/>
<path d="M7780 4891 c0 -28 4 -52 9 -55 13 -9 17 8 13 59 -5 61 -22 57 -22 -4z"/>
<path d="M7965 4920 c3 -5 8 -10 11 -10 2 0 4 5 4 10 0 6 -5 10 -11 10 -5 0
-7 -4 -4 -10z"/>
<path d="M7960 4885 c0 -8 5 -15 10 -15 6 0 10 7 10 15 0 8 -4 15 -10 15 -5 0
-10 -7 -10 -15z"/>
<path d="M7533 4830 c0 -30 2 -43 4 -27 2 15 2 39 0 55 -2 15 -4 2 -4 -28z"/>
<path d="M7700 4782 c0 -44 4 -83 8 -86 8 -5 4 155 -4 163 -2 2 -4 -32 -4 -77z"/>
<path d="M7453 4770 c0 -36 2 -50 4 -32 2 17 2 47 0 65 -2 17 -4 3 -4 -33z"/>
<path d="M7373 4745 c0 -27 2 -38 4 -22 2 15 2 37 0 50 -2 12 -4 0 -4 -28z"/>
<path d="M7293 4720 c0 -25 2 -35 4 -22 2 12 2 32 0 45 -2 12 -4 2 -4 -23z"/>
<path d="M7742 4725 c0 -16 2 -22 5 -12 2 9 2 23 0 30 -3 6 -5 -1 -5 -18z"/>
<path d="M7453 4660 c0 -25 2 -35 4 -22 2 12 2 32 0 45 -2 12 -4 2 -4 -23z"/>
<path d="M7700 4671 c0 -6 5 -13 10 -16 6 -3 10 1 10 9 0 9 -4 16 -10 16 -5 0
-10 -4 -10 -9z"/>
<path d="M7372 4640 c0 -19 2 -27 5 -17 2 9 2 25 0 35 -3 9 -5 1 -5 -18z"/>
<path d="M7910 4614 c0 -17 17 -36 24 -26 3 5 -1 15 -9 22 -8 7 -15 9 -15 4z"/>
<path d="M7372 4570 c0 -14 2 -19 5 -12 2 6 2 18 0 25 -3 6 -5 1 -5 -13z"/>
<path d="M7291 4554 c0 -11 3 -14 6 -6 3 7 2 16 -1 19 -3 4 -6 -2 -5 -13z"/>
<path d="M7830 4520 c0 -5 5 -10 10 -10 6 0 10 5 10 10 0 6 -4 10 -10 10 -5 0
-10 -4 -10 -10z"/>
<path d="M7624 4400 c0 -69 1 -97 3 -62 2 34 2 90 0 125 -2 34 -3 6 -3 -63z"/>
<path d="M7951 4454 c0 -11 3 -14 6 -6 3 7 2 16 -1 19 -3 4 -6 -2 -5 -13z"/>
<path d="M7542 4435 c0 -16 2 -22 5 -12 2 9 2 23 0 30 -3 6 -5 -1 -5 -18z"/>
<path d="M7631 4124 c0 -11 3 -14 6 -6 3 7 2 16 -1 19 -3 4 -6 -2 -5 -13z"/>
<path d="M8001 3914 c0 -11 3 -14 6 -6 3 7 2 16 -1 19 -3 4 -6 -2 -5 -13z"/>
<path d="M4950 4034 c0 -16 24 -64 33 -64 4 0 0 15 -9 33 -20 38 -24 44 -24
31z"/>
<path d="M4494 3875 c0 -60 1 -84 3 -52 2 32 2 81 0 110 -2 29 -3 3 -3 -58z"/>
<path d="M4464 3855 c0 -49 1 -71 3 -48 2 23 2 64 0 90 -2 26 -3 8 -3 -42z"/>
<path d="M4428 3850 c-2 -44 0 -80 5 -80 4 0 7 36 7 80 0 44 -2 80 -4 80 -3 0
-6 -36 -8 -80z"/>
<path d="M3977 3853 c-4 -3 -7 -11 -7 -17 0 -6 5 -5 12 2 6 6 9 14 7 17 -3 3
-9 2 -12 -2z"/>
<path d="M4880 3718 c0 -12 1 -19 3 -17 1 2 9 12 16 22 12 14 11 17 -3 17 -10
0 -16 -8 -16 -22z"/>
<path d="M4657 2254 c-4 -4 -2 -13 4 -20 7 -9 7 -19 -1 -34 -15 -28 4 -55 21
-30 20 32 -1 107 -24 84z"/>
<path d="M4505 2820 c-3 -5 -1 -10 4 -10 6 0 11 5 11 10 0 6 -2 10 -4 10 -3 0
-8 -4 -11 -10z"/>
<path d="M4506 2711 c-4 -5 0 -12 6 -14 8 -3 6 -6 -4 -6 -20 -1 -22 -9 -8 -31
5 -9 5 -19 -1 -26 -7 -9 -6 -15 5 -21 8 -4 16 -21 18 -38 l3 -29 19 28 c10 16
13 25 7 22 -6 -4 -11 -1 -11 7 0 17 26 41 32 30 3 -4 2 -1 -1 7 -2 8 -5 30 -5
48 -1 28 -4 32 -28 32 -15 0 -29 -4 -32 -9z"/>
<path d="M4570 2669 c0 -5 5 -7 10 -4 6 3 10 8 10 11 0 2 -4 4 -10 4 -5 0 -10
-5 -10 -11z"/>
<path d="M4638 2643 c7 -3 16 -2 19 1 4 3 -2 6 -13 5 -11 0 -14 -3 -6 -6z"/>
<path d="M4406 2632 c-3 -5 1 -9 9 -9 8 0 15 4 15 9 0 4 -4 8 -9 8 -6 0 -12
-4 -15 -8z"/>
<path d="M4560 413 c0 -4 -12 -9 -26 -10 -42 -2 -51 -19 -26 -46 12 -13 22
-29 22 -35 0 -7 7 -12 15 -12 8 0 15 6 15 13 0 8 3 7 10 -3 6 -9 5 -17 -3 -23
-7 -5 1 -7 20 -5 39 3 45 -16 7 -20 -20 -3 -24 -6 -14 -12 11 -7 11 -11 1 -24
-11 -13 -9 -16 13 -22 14 -3 26 -12 26 -20 0 -14 9 -17 40 -15 10 0 11 -1 3
-5 -16 -7 -17 -30 -3 -37 6 -3 5 -4 -2 -3 -7 2 -21 -13 -30 -32 -20 -41 -15
-56 8 -24 12 17 19 20 34 12 11 -6 29 -15 40 -20 13 -7 20 -7 20 0 0 5 16 10
35 10 42 0 47 21 13 57 l-21 23 21 0 c14 0 22 6 22 16 0 14 -7 15 -41 10 -31
-5 -40 -3 -37 6 3 7 -2 18 -11 25 -14 11 -12 12 12 13 15 0 27 5 27 11 0 7
-10 9 -24 5 -14 -3 -28 -2 -31 4 -3 5 -15 10 -26 10 -11 0 -17 5 -14 10 7 12
-4 54 -13 46 -3 -3 -10 4 -17 17 -8 17 -19 22 -48 22 -41 0 -50 11 -14 18 18
3 16 5 -8 6 l-30 2 30 13 c19 8 25 15 17 20 -7 4 -12 4 -12 -1z m100 -173 c0
-5 -9 -10 -20 -10 -11 0 -20 5 -20 10 0 6 9 10 20 10 11 0 20 -4 20 -10z m90
-110 c0 -5 -12 -10 -27 -10 -22 0 -25 2 -13 10 20 13 40 13 40 0z"/>
<path d="M4484 329 c-3 -6 -1 -16 6 -22 10 -9 11 -9 5 2 -4 8 -2 17 6 22 9 6
10 9 2 9 -6 0 -15 -5 -19 -11z"/>
<path d="M4420 260 c0 -10 9 -24 20 -30 11 -6 20 -21 20 -33 1 -28 23 -57 44
-57 9 0 16 2 16 3 0 12 -34 68 -55 91 -14 15 -23 32 -20 37 4 5 -1 9 -9 9 -9
0 -16 -9 -16 -20z"/>
<path d="M4096 201 c-4 -6 -12 -9 -17 -6 -18 12 -28 -5 -17 -30 14 -32 66 -34
93 -5 10 11 24 20 32 20 7 0 13 7 13 15 0 19 -66 21 -73 3 -4 -10 -8 -10 -15
1 -7 9 -12 10 -16 2z"/>
<path d="M4585 190 c-3 -5 -1 -10 4 -10 6 0 11 5 11 10 0 6 -2 10 -4 10 -3 0
-8 -4 -11 -10z"/>
<path d="M4550 178 c0 -12 49 -88 57 -88 2 0 2 12 1 28 -2 21 1 27 15 26 20
-2 23 12 3 19 -7 3 -24 -2 -37 -11 -18 -12 -21 -13 -17 -1 3 8 -1 20 -8 27
-11 10 -14 10 -14 0z"/>
<path d="M4645 70 c3 -5 8 -10 11 -10 2 0 4 5 4 10 0 6 -5 10 -11 10 -5 0 -7
-4 -4 -10z"/>
<path d="M4177 35 c9 -19 21 -35 26 -35 5 0 6 6 3 13 -3 6 -9 20 -12 29 -3 9
-12 19 -20 22 -10 4 -10 -3 3 -29z"/>
</g>
</svg>
