<?xml version="1.0" standalone="no"?>
<!DOCTYPE svg PUBLIC "-//W3C//DTD SVG 20010904//EN"
 "http://www.w3.org/TR/2001/REC-SVG-20010904/DTD/svg10.dtd">
<svg version="1.0" xmlns="http://www.w3.org/2000/svg"
 width="200.000000pt" height="200.000000pt" viewBox="0 0 200.000000 200.000000"
 preserveAspectRatio="xMidYMid meet">

<g transform="translate(0.000000,200.000000) scale(0.100000,-0.100000)"
fill="#253141" stroke="none">
<path d="M865 1804 c-122 -30 -200 -78 -322 -201 -62 -61 -123 -119 -138 -129
-31 -20 -109 -123 -140 -184 -56 -111 -79 -238 -65 -363 16 -137 71 -260 163
-364 24 -26 56 -71 72 -100 90 -167 292 -297 496 -318 75 -8 199 8 274 35 27
10 86 26 130 35 239 51 426 227 485 461 26 100 29 415 5 509 -37 147 -136 293
-252 371 -32 21 -88 67 -125 100 -77 70 -182 126 -278 148 -81 19 -225 19
-305 0z m365 -531 l5 32 65 0 65 0 3 -66 c3 -64 4 -66 37 -82 32 -15 35 -20
35 -63 0 -37 -4 -47 -20 -51 -19 -5 -20 -14 -20 -218 0 -204 1 -213 20 -218
11 -3 20 -12 20 -21 0 -14 -44 -16 -440 -16 -388 0 -440 2 -440 15 0 9 7 18
15 21 13 5 15 43 15 255 0 218 -2 249 -16 249 -12 0 -14 10 -12 52 l3 52 163
92 164 92 166 -78 167 -78 5 31z"/>
<path d="M745 1270 c-122 -69 -165 -100 -140 -100 4 0 67 34 140 75 73 41 140
75 148 75 8 0 101 -41 208 -91 290 -136 299 -140 299 -125 0 11 -486 247 -507
246 -5 -1 -71 -37 -148 -80z"/>
<path d="M758 1207 l-128 -72 0 -262 0 -263 365 0 365 0 0 228 0 228 -231 107
c-127 59 -234 107 -237 106 -4 0 -64 -33 -134 -72z m182 17 l41 -16 -3 -137
-3 -136 -144 -3 c-97 -2 -148 1 -157 9 -19 15 -19 152 -1 167 11 9 217 130
224 131 2 1 21 -6 43 -15z m283 -133 l108 -51 -3 -52 -3 -53 -144 -3 c-97 -2
-148 1 -157 9 -18 14 -20 209 -3 226 13 13 22 9 202 -76z m-243 -321 l0 -131
-157 3 -158 3 -3 114 c-1 63 0 121 2 128 4 10 42 13 161 13 l155 0 0 -130z
m350 0 l0 -131 -157 3 -158 3 -3 114 c-1 63 0 121 2 128 4 10 42 13 161 13
l155 0 0 -130z"/>
<path d="M862 1172 c-21 -16 -23 -24 -20 -107 l3 -90 48 -3 48 -3 -3 108 c-3
107 -3 108 -28 111 -14 1 -35 -6 -48 -16z"/>
<path d="M745 1107 c-39 -22 -40 -24 -40 -77 l0 -55 48 -3 47 -3 0 80 c0 45
-3 81 -7 81 -5 0 -26 -11 -48 -23z"/>
<path d="M1052 1048 l3 -73 48 -3 47 -3 0 55 c0 55 -1 56 -40 76 -21 11 -44
20 -50 20 -7 0 -10 -25 -8 -72z"/>
<path d="M1192 1018 l3 -43 48 -3 c44 -3 47 -1 47 20 0 18 -11 29 -45 46 -25
12 -48 22 -51 22 -3 0 -4 -19 -2 -42z"/>
<path d="M700 770 l0 -90 50 0 50 0 0 90 0 90 -50 0 -50 0 0 -90z"/>
<path d="M840 770 l0 -90 50 0 50 0 0 90 0 90 -50 0 -50 0 0 -90z"/>
<path d="M1050 770 l0 -90 50 0 50 0 0 90 0 90 -50 0 -50 0 0 -90z"/>
<path d="M1190 770 l0 -90 50 0 50 0 0 90 0 90 -50 0 -50 0 0 -90z"/>
<path d="M1270 1245 c0 -23 24 -45 49 -45 6 0 11 16 11 35 0 32 -2 35 -30 35
-25 0 -30 -4 -30 -25z"/>
</g>
</svg>
