<?xml version="1.0" encoding="utf-8"?>
<!-- Generator: Adobe Illustrator 22.0.0, SVG Export Plug-In . SVG Version: 6.00 Build 0)  -->
<svg version="1.1" id="Calque_1" xmlns="http://www.w3.org/2000/svg" xmlns:xlink="http://www.w3.org/1999/xlink" x="0px" y="0px"
	 viewBox="0 0 661.3 151.9" style="enable-background:new 0 0 661.3 151.9;" xml:space="preserve">
<style type="text/css">
	.st0{fill:#C09473;}
	.st1{fill:#5F504D;}
</style>
<g>
	<path class="st0" d="M39.5,15.7c-1.2-0.3-2.1-0.4-2.9-0.4c-1,0-1.7,0.3-2.1,0.9c-0.8,1.3,0.3,3.6,2.1,7.3c2.9,5.7,7.2,14.4,5.6,24
		c-1.4,8.4,0.6,14.7,2.3,20.3c1.3,4.2,2.5,7.9,1.9,11.6c-1,6.6-3.4,8.9-5.4,10.9c-1.7,1.7-3.3,3.2-3.4,6.8c0,2,0.9,4.1,2.7,5.9
		c1.9,1.9,4.4,3.3,7,4h8.1c2.9-0.8,6.1-2.7,9-6.7c6.1-8.4,1.7-36.1-5.9-56.8C52.7,27.4,45.8,17.2,39.5,15.7 M63.5,99.7
		c-4,5.5-8.8,6.7-12,6.7c-3.8,0-7.7-1.6-10.2-4.2c-1.6-1.6-2.4-3.4-2.4-5c0.1-3.1,1.3-4.3,3-6c2.1-2,4.7-4.6,5.8-11.6
		c0.6-4-0.6-8-1.9-12.2c-1.7-5.5-3.6-11.6-2.3-19.7c1.7-9.9-2.8-18.9-5.7-24.7c-1.4-2.7-2.6-5.3-2.2-6.1c0.2-0.3,0.7-0.3,1.1-0.3
		c0.6,0,1.5,0.1,2.6,0.4C45,18.3,51.8,28.4,57.5,44C65,64.5,69.4,91.6,63.5,99.7"/>
	<path class="st0" d="M236.3,28.9c1,0,2.2-0.3,3.8-0.8c3.6-1.2,5.9-1.5,7.3-1.5c1.4,0,2,0.3,2,0.3l0.1,0c0.3,0.1,0.6,0.1,0.9,0.1
		c1.5,0,2.8-1.2,3.1-2.9c0.4-2.1-0.8-5.1-5.3-6.7c-1.2-0.4-2.4-0.6-3.5-0.6c-6,0-10.2,5.5-10.9,8.6c-0.3,1.2-0.1,2.1,0.4,2.7
		C234.6,28.6,235.3,28.9,236.3,28.9 M235,25.7c0.6-2.7,4.4-7.6,9.7-7.6c1,0,2.1,0.2,3.1,0.5c3.8,1.3,4.8,3.7,4.5,5.3
		c-0.2,1.3-1.3,2.1-2.4,1.8c-0.2-0.1-1-0.3-2.4-0.3c-2.1,0-4.7,0.5-7.7,1.6c-2.5,0.9-4.1,1-4.6,0.4C234.8,26.9,234.8,26.2,235,25.7"
		/>
	<path class="st0" d="M385.1,7.2c-0.7-1.6-1.5-3.1-2.3-4.5h-1.5c1,1.5,1.8,3.1,2.6,5l0,0.1c0.1,0.2,10,18-0.9,42.5
		c-2.5,5.5-5.2,10.9-7.9,16c-7,13.6-13.7,26.6-13.9,40.8h1.2c0.2-13.9,6.8-26.8,13.7-40.2c2.7-5.2,5.4-10.5,7.9-16.1
		C395.2,26.2,385.6,8.1,385.1,7.2"/>
	<path class="st0" d="M438.5,17.6c-4.1,2.5-7.5,3.1-9.2,1.8c-1.7-1.3-1.9-4.6-0.5-9.6c0.7-2.5,1.2-4.8,1.4-7.1h-1.2
		c-0.2,2.2-0.7,4.4-1.3,6.8c-1.6,5.6-1.2,9.3,1,10.9c2.2,1.7,6,1.1,10.6-1.7c5.3-3.2,11.5-9.3,15.2-16h-1.4
		C449.4,8.9,443.5,14.6,438.5,17.6"/>
	<path class="st0" d="M398.7,58.5L398.7,58.5c0.3-0.3,21.6-28.8,11.1-55.8h-1.3c10.5,26.1-9.9,53.9-10.7,54.9
		c-13.1,13.7-17.9,30.2-14.2,49.4h1.3C381.2,88.2,385.9,71.9,398.7,58.5"/>
	<path class="st0" d="M583.5,35c-20.1-10.4-28.8-21.8-32.3-32.4H550c3.5,10.9,12.4,22.9,32.9,33.5c0.1,0.1,11.9,6.1,22.4,17.8
		c9.6,10.8,19.9,28.7,14.8,53l0.5,0.1h0.8c5.1-24.7-5.4-42.9-15.2-53.9C595.6,41.2,583.6,35.1,583.5,35"/>
	<path class="st0" d="M506.9,7.4c-2.4,4.1-4.9,8.4-9.2,8.4c-0.5,0-1-0.1-1.5-0.2c-6.3-1.3-11-6.5-12.1-12.9h-1.2
		c1.1,7,6.2,12.7,13.1,14.1c0.6,0.1,1.2,0.2,1.8,0.2c5,0,7.7-4.6,10.3-9c0.9-1.6,1.8-3.1,2.8-4.4c0.3-0.3,0.5-0.6,0.7-0.9H510
		c-0.1,0.1-0.1,0.1-0.1,0.2C508.8,4.2,507.9,5.8,506.9,7.4"/>
	<path class="st0" d="M599.4,16.1c-13.9-3.2-23.2-7.5-28.6-13.4h-1.5c5.5,6.5,15.3,11.3,29.8,14.6c13.1,3,24.7,12.3,32.7,26
		c8.6,14.8,11.4,32.5,7.3,46.1l1.2,0.4c4.2-13.9,1.4-32-7.4-47.1C624.7,28.6,612.8,19.2,599.4,16.1"/>
	<path class="st0" d="M526.8,64.6c-9.9-2.4-20.2-4.8-28.5-8.9c-4.3-2.1-8.6-3.2-12.8-3.2c-16.1,0-27.9,15.6-39.2,30.7
		c-2.4,3.2-4.7,6.3-7.1,9.2c-3.6,4.5-5.7,9.6-6.6,14.7h1.3c1-4.9,2.9-9.7,6.4-13.9c2.4-2.9,4.7-6,7.1-9.2
		c11.2-14.8,22.7-30.2,38.2-30.2c3.9,0,8.1,1,12.2,3.1c8.4,4.1,18.7,6.6,28.7,9c21.3,5.1,41.4,9.9,40.1,29.5
		c-0.3,4-0.3,7.9-0.2,11.8h1.2c-0.1-3.8-0.1-7.7,0.2-11.7C569.2,74.7,548.6,69.8,526.8,64.6"/>
	<path class="st0" d="M551.9,98.5c0.7-17.9-30.5-24.2-47.3-27.5c-2-0.4-3.8-0.6-5.5-0.6c-6.3,0-9.4,3-12.6,6.3
		c-3.7,3.7-7.8,7.9-18,9.1c-13.4,1.6-17.4,8.6-18.5,14.3c-0.4,2.3-0.5,4.7-0.4,7.1h1.2c-0.1-2.3,0-4.6,0.4-6.9
		c0.9-5.2,4.7-11.8,17.4-13.2c10.6-1.2,14.9-5.6,18.7-9.4c3.1-3.2,5.9-5.9,11.7-5.9c1.6,0,3.3,0.2,5.2,0.6
		c15.2,3,46.9,9.4,46.3,26.3c-0.1,2.8,0.1,5.7,0.3,8.6h1.2C551.9,104.2,551.8,101.3,551.9,98.5"/>
	<path class="st0" d="M523.8,89.3c-5.8,0-11,0.9-11.1,0.9l-0.1,0c-5.3,1.7-8.1,4.7-7.6,8.1c0.5,3.1,3.7,5.4,7.6,5.4
		c0.5,0,1.1,0,1.6-0.1c0.4-0.1,0.9-0.1,1.3-0.1c2.7,0,4.2,1.5,6,3.5h1.6c0,0-0.1-0.1-0.1-0.1c-2-2.4-4-4.7-7.5-4.7
		c-0.5,0-1,0-1.5,0.1c-0.5,0.1-0.9,0.1-1.4,0.1c-3.2,0-6-1.9-6.3-4.3c-0.4-2.7,2.1-5.3,6.7-6.7c0.5-0.1,5.4-0.9,10.8-0.9
		c5.7,0,12.8,0.9,14.7,5c1.6,3.5,2.9,7.9,2.9,11.5h1.2c-0.1-3.8-1.3-8.3-3-12C537.9,91.3,532.5,89.3,523.8,89.3"/>
	<path class="st0" d="M79.8,19.1c7.2,19.8,17.9,48.8,36.5,48.8c1.8,0,3.7-0.3,5.6-0.8c21.9-6.5,21.8-25.7,21.7-46.1
		c0-5.3,0-10.9,0.3-16.2c0.1-0.7,0.1-1.4,0.2-2.1h-1.2c-0.1,0.6-0.1,1.3-0.2,2c-0.4,5.4-0.4,10.9-0.3,16.3
		c0.1,19.9,0.2,38.7-20.8,44.9c-21,6.2-32.8-25.9-40.6-47.2C78.9,12.9,77.1,8,75.4,4.4c-0.3-0.6-0.6-1.2-0.9-1.7h-1.4
		c0.4,0.7,0.8,1.5,1.1,2.3C75.9,8.4,77.7,13.4,79.8,19.1"/>
	<path class="st0" d="M164.7,2.7c-5.5,9.2-7.5,19.1-7.7,19.9c0,0.1-1.9,15-1.9,27.9c0,12.8-2.7,36.5-21,51.1
		c-4.3,3.4-10,4.1-16.5,1.9c-18.3-6.2-42.7-35.2-52-72.9c-2.8-11.3-6-20.5-9.9-27.9h-1.3c3.8,7.1,7.1,16.3,10,28.1
		c9.3,38.1,34.2,67.4,52.8,73.8c6.9,2.4,13.1,1.6,17.7-2.1c18.7-15,21.5-39.1,21.5-52.1c0-12.8,1.8-27.6,1.8-27.7
		c0-0.2,2.2-10.6,8-20.1H164.7z"/>
	<path class="st0" d="M366.3,39.6c5.2-11.3,4.9-21.7-0.8-28.5c-5.1-6-13.8-8.2-22.8-5.7c-11.8,3.2-29.7,1.7-43.5-2.7h-3.7
		c14.5,5.3,34.7,7.4,47.6,3.8c8.5-2.3,16.7-0.3,21.5,5.4c5.4,6.4,5.7,16.3,0.6,27.1c-11,23.8-16.4,35.9-16.5,36.1
		c-0.1,0.2-5.5,16-1,31.9h1.3c-4.5-15.6,0.8-31.4,0.8-31.5C349.9,75.5,355.3,63.4,366.3,39.6"/>
	<path class="st0" d="M560,48.5c-20.9-13.9-23.1-29.4-25.2-44.3c-0.1-0.5-0.2-1.1-0.2-1.6h-1.2c0.1,0.6,0.2,1.2,0.3,1.8
		c2.2,15.2,4.4,30.9,25.7,45.1c14.5,9.6,38.4,28.3,35.8,45c-0.4,2.6-1.9,4.9-3.4,7.3c-0.7,1.1-1.5,2.3-2.1,3.5
		c-0.3,0.5-0.6,1.1-0.8,1.8h1.3c0.2-0.4,0.4-0.8,0.6-1.2c0.6-1.1,1.3-2.3,2-3.4c1.6-2.4,3.2-4.9,3.6-7.8
		C599,77.4,574.7,58.4,560,48.5"/>
	<path class="st0" d="M419.7,67.6c0.3-0.3,35-26,46.7-51.3c2.3-4.9,4-9.4,5.1-13.6h-1.3c-1.1,4-2.8,8.4-5,13.1
		c-11.6,25-45.9,50.6-46.3,50.8c-14.6,9.2-21.4,22.7-20.4,40.5h1.3C398.9,89.7,405.5,76.5,419.7,67.6"/>
	<path class="st0" d="M19.1,46.9v2.7c0.5,1,1,1.9,1.4,2.9c6.1,13.7,6.4,27.1,1,36.8c-1.2,2.2-1.9,4.7-2.4,7.2v10.5h0.4
		c0-0.4,0-0.8,0.1-1.3c0.2-5.6,0.4-11.4,3-15.9c5.6-10,5.3-23.8-0.9-37.9C20.8,50.3,20,48.6,19.1,46.9"/>
	<path class="st0" d="M115.3,26.6c2.7,1.3,6.5,1.8,9.2-0.5c2.6-2.2,4.1-5.9,4.7-11.4l0-0.1c0-2.5-0.1-5-0.3-7.4
		c-0.1-1.5-0.2-3-0.2-4.4h-1.2c0.1,1.5,0.1,3,0.2,4.5c0.1,2.4,0.3,4.9,0.3,7.3c-0.6,5.1-2,8.5-4.3,10.5c-2.3,2-5.5,1.5-7.9,0.4
		c-8.6-4.1-13-13.4-16.9-22.8h-1.3C101.6,12.5,106.1,22.2,115.3,26.6"/>
	<path class="st0" d="M283.5,50.6c-7.4-1.9-16.2,0.5-26.2,7.1c-12.8,8.6-13.3,21.1-13.8,33.2c-0.2,5.4-0.5,10.9-1.8,16.1h1.3
		c1.3-5.2,1.5-10.7,1.7-16.1c0.5-12.4,1-24,13.3-32.3c9.7-6.5,18.2-8.8,25.2-7c8.5,2.2,12.3,10,13.6,12.5c6.1,12.3,5.3,26.9,4.4,41
		c0,0.6-0.1,1.2-0.1,1.8h1.2c0-0.6,0.1-1.1,0.1-1.7c0.8-14.3,1.7-29.1-4.6-41.6C296.6,61,292.6,52.9,283.5,50.6"/>
	<path class="st0" d="M267,69.3c-6.1,3.1-6.1,19.5-4.5,37.8h1.3c-1.4-17.3-1.6-33.9,3.8-36.7c2.3-1.2,5.6,0.2,10,4.2
		c5.5,5,6.1,17.2,5.4,32.5h1.2c0.8-15.7,0.1-28.1-5.8-33.5C273.6,69.3,269.9,67.8,267,69.3"/>
	<path class="st0" d="M527.6,44.8c-9.7-3.6-19-7-24.9-10.9c-21.4-14.1-31.1-1.7-38.8,8.3c-1,1.2-1.9,2.4-2.8,3.5
		c-8.5,10.3-34.2,26.2-34.5,26.4l-0.1,0c-0.2,0.1-17.4,14-14.1,35h1.3c-3.2-19.9,12.8-33.4,13.6-34c1.5-0.9,26.2-16.3,34.7-26.6
		c0.9-1.1,1.9-2.3,2.8-3.6c7.8-10.1,16.7-21.5,37.1-8c6.1,4,15.4,7.4,25.2,11.1c28.1,10.4,63.2,23.4,50.5,59.9c0,0-0.2,0.5-0.4,1.2
		h1.3c0.2-0.5,0.3-0.8,0.3-0.8C591.9,68.5,556.3,55.3,527.6,44.8"/>
	<path class="st0" d="M343.5,31c-5.9-9.6-20.4-11.3-34.3-12.9c-15.4-1.8-30-3.5-34.2-14.8c-0.1-0.2-0.2-0.4-0.2-0.6h-1.3
		c0.1,0.4,0.3,0.7,0.4,1.1c4.5,11.9,20.1,13.8,35.2,15.5c13.7,1.6,27.8,3.3,33.4,12.4c7.1,11.5-1.1,23.5-9.3,31.6
		c-7,6.9-10.9,13.6-11.9,20.4c-1.1,7.2-1.9,16.3-0.8,23.4h1.2c-1.1-6.9-0.3-16,0.8-23.2c1-6.5,4.8-13,11.6-19.7
		C342.5,55.8,351,43.2,343.5,31"/>
	<path class="st0" d="M193.4,2.7h-2.7c-13.3,6.9-20.8,16.2-15,39.9c5.4,22.4,2.3,44.5-8.5,59c-1.5,2-3.1,3.8-4.8,5.5h1.8
		c1.4-1.5,2.8-3,4.1-4.7c11-14.8,14.2-37.2,8.7-60C170.9,18.1,178.9,9.6,193.4,2.7"/>
	<path class="st0" d="M253.4,46.6c14.1-2.4,28.6-4.8,26.5-17.9c-2-11.8-10.4-21.7-21.1-26H255c11.8,3.3,21.6,13.6,23.7,26.2
		c2,11.9-12,14.3-25.4,16.5c-2.5,0.4-5,0.8-7.4,1.3c-8.5,1.7-11,11.4-13.7,21.7c-2.3,9-4.7,18.2-11.2,22.2
		c-7.6,4.6-14.8,7.3-19.9,7.3c-2.8,0-4.8-0.8-6.2-2.3c-1.7-2-2.2-5.3-1.5-9.9c3.3-20.8-1.3-30.5-4.8-37.5c-2.4-4.9-4.1-8.4-2.7-13.7
		c3.4-12.4,13.3-21.6,29.5-27.4c6.6-2.3,13.1-3.7,18.5-4.4h-7.1c-3.8,0.8-7.8,1.9-11.8,3.3c-16.6,5.9-26.9,15.4-30.3,28.2
		c-1.5,5.7,0.3,9.6,2.7,14.5c3.4,6.9,7.9,16.4,4.7,36.8c-0.8,4.9-0.2,8.6,1.8,10.9c1.6,1.8,3.9,2.8,7.1,2.8c5.3,0,12.7-2.7,20.5-7.4
		c7-4.2,9.4-13.8,11.8-23c2.6-9.9,5-19.3,12.7-20.8C248.4,47.5,251,47,253.4,46.6"/>
	<path class="st0" d="M205,26c-4.5,6-3.7,10.7-2.3,13.6c2.6,5.3,9.9,9.1,17.4,9.1c4.9,0,9-1.7,11.4-4.7c4.7-5.8,14.3-8.4,22-10.5
		c7.3-2,13.1-3.6,13.4-7.2c0.3-3.1-0.7-5.9-2.7-8.3c-3.9-4.5-11.6-7.2-22.8-7.8c-0.8,0-1.6-0.1-2.3-0.1
		C218.7,10.2,205.2,25.8,205,26 M239,11.4c0.7,0,1.5,0,2.2,0.1c10.7,0.6,18.3,3.2,22,7.4c1.9,2.1,2.7,4.6,2.4,7.4
		c-0.2,2.7-5.9,4.3-12.5,6.1c-7.9,2.1-17.7,4.8-22.6,10.9c-2.2,2.7-6,4.2-10.5,4.2c-7,0-13.8-3.5-16.3-8.4c-1.9-3.7-1.1-8,2.1-12.3
		C206.1,26.6,219.2,11.4,239,11.4"/>
	<rect x="288" y="64.2" class="st1" width="85" height="85"/>
	<path class="st0" d="M325.1,96.6c-0.5,0-0.8,0.1-1,0.3c-0.2,0.2-0.2,0.6-0.2,1.1v9.2l-1.3,1l-12.2,0c-0.3,0-0.6-0.1-0.8-0.3
		c-0.2-0.2-0.3-0.4-0.3-0.6v-2c0-0.2,0.1-0.4,0.3-0.6c0.2-0.2,0.4-0.3,0.8-0.3h6.9V99c0-1.2,0.1-2.2,0.4-3c0.3-0.8,0.7-1.4,1.3-1.9
		c0.6-0.5,1.4-0.8,2.3-1c1-0.2,2.1-0.3,3.5-0.3h9c0.3,0,0.6,0.1,0.8,0.3c0.2,0.2,0.3,0.4,0.3,0.6v2c0,0.2-0.1,0.4-0.3,0.6
		c-0.2,0.2-0.5,0.3-0.8,0.3H325.1z"/>
	<path class="st0" d="M337.5,108.2c-0.3,0-0.5-0.1-0.8-0.2c-0.2-0.2-0.3-0.5-0.3-0.7V90.2c0-0.5-0.1-0.8-0.2-1
		c-0.2-0.2-0.5-0.2-1-0.2h-19.8c-0.3,0-0.6-0.1-0.8-0.2c-0.2-0.2-0.3-0.4-0.3-0.6v-1.9c0-0.2,0.1-0.4,0.3-0.5
		c0.2-0.1,0.5-0.2,0.7-0.2h20.1c1.4,0,2.6,0.1,3.5,0.3c1,0.2,1.7,0.5,2.3,1c0.6,0.4,1,1,1.3,1.8c0.3,0.7,0.4,1.7,0.4,2.8v13.4h7.6
		c0.3,0,0.6,0.1,0.8,0.2c0.2,0.2,0.3,0.3,0.3,0.6v1.9c0,0.2-0.1,0.4-0.3,0.6c-0.2,0.2-0.5,0.2-0.8,0.2L337.5,108.2z"/>
	<path class="st0" d="M304.5,127.2L304.5,127.2C304.5,127.2,304.5,127.2,304.5,127.2l0.1,0c0.1,0,0.3,0,0.4-0.1
		c0.1-0.1,0.1-0.2,0.1-0.3c0-0.1,0-0.2-0.1-0.3c-0.1-0.1-0.2-0.1-0.3-0.1c0,0-0.1,0-0.1,0c0,0,0,0,0,0c0,0,0,0,0,0.1c0,0,0,0,0,0.1
		V127.2z M304.5,127.9C304.5,127.9,304.5,128,304.5,127.9c0,0.1,0,0.1,0,0.1c0,0,0,0,0.1,0c0,0,0.1,0,0.1,0l0,0.1h-0.2
		c-0.1,0-0.1,0-0.2,0h-0.1c0,0-0.1,0-0.1,0h-0.1H304l0-0.1c0.1,0,0.1,0,0.1,0c0,0,0.1,0,0.1,0c0,0,0,0,0-0.1c0,0,0-0.1,0-0.1v-1.3
		c0,0,0-0.1,0-0.1c0,0,0,0,0,0c0,0,0,0-0.1,0c0,0-0.1,0-0.1,0l0-0.1h0.1h0.1c0,0,0.1,0,0.1,0h0.1c0,0,0.1,0,0.2,0c0.1,0,0.1,0,0.2,0
		c0.1,0,0.2,0,0.2,0c0.1,0,0.1,0,0.2,0.1c0.1,0,0.1,0.1,0.2,0.1c0,0.1,0.1,0.1,0.1,0.2c0,0.1,0,0.1,0,0.2c0,0.1-0.1,0.1-0.1,0.1
		c0,0.1-0.1,0.1-0.1,0.1c0,0-0.1,0.1-0.2,0.1c0,0.1,0.1,0.2,0.1,0.2c0,0.1,0.1,0.1,0.1,0.2c0,0.1,0.1,0.1,0.1,0.2
		c0,0,0.1,0.1,0.1,0.1c0,0,0,0.1,0.1,0.1c0,0,0,0,0.1,0.1c0,0,0.1,0,0.1,0c0,0,0.1,0,0.1,0l0,0.1h-0.2c-0.1,0-0.1,0-0.2,0h-0.1
		c0,0,0,0-0.1,0c0,0,0-0.1-0.1-0.1c0-0.1-0.1-0.1-0.1-0.2c0-0.1-0.1-0.1-0.1-0.2c0-0.1-0.1-0.2-0.1-0.3c0,0,0,0,0,0l0,0c0,0,0,0,0,0
		c0,0,0,0-0.1,0h-0.1h0c0,0,0,0-0.1,0V127.9z"/>
	<path class="st0" d="M307.8,127.4C307.8,127.4,307.9,127.4,307.8,127.4C307.9,127.4,307.9,127.4,307.8,127.4c0.1-0.1,0.1-0.1,0-0.2
		c0,0,0-0.1-0.1-0.1c0,0,0,0-0.1-0.1c0,0-0.1,0-0.1,0c0,0-0.1,0-0.1,0c0,0-0.1,0-0.1,0.1c0,0-0.1,0.1-0.1,0.1c0,0,0,0.1,0,0.1H307.8
		z M308.1,127.9c0,0.1-0.1,0.1-0.1,0.1c0,0-0.1,0.1-0.1,0.1c0,0-0.1,0-0.1,0c0,0-0.1,0-0.1,0c-0.1,0-0.2,0-0.2,0
		c-0.1,0-0.1-0.1-0.2-0.1c0-0.1-0.1-0.1-0.1-0.2c0-0.1,0-0.1,0-0.2c0-0.1,0-0.2,0-0.3c0-0.1,0.1-0.1,0.1-0.2c0-0.1,0.1-0.1,0.2-0.1
		c0.1,0,0.1-0.1,0.2-0.1c0.1,0,0.1,0,0.2,0c0.1,0,0.1,0.1,0.1,0.1c0,0,0.1,0.1,0.1,0.1c0,0.1,0,0.1,0,0.2v0l0,0c0,0,0,0.1-0.1,0.1
		h-0.7c0,0.1,0,0.2,0,0.2c0,0.1,0.1,0.1,0.1,0.2c0,0,0.1,0.1,0.1,0.1c0.1,0,0.1,0,0.2,0c0.1,0,0.1,0,0.2,0
		C307.9,128,308,127.9,308.1,127.9L308.1,127.9z"/>
	<path class="st0" d="M310.3,127.4c0,0,0-0.1,0-0.1c0,0,0-0.1-0.1-0.1c0,0-0.1,0-0.1-0.1c0,0-0.1,0-0.1,0c0,0,0,0-0.1,0
		c0,0,0,0-0.1,0c0,0,0,0,0,0.1c0,0,0,0,0,0.1c0,0,0,0.1,0,0.1c0,0,0,0,0.1,0.1c0,0,0.1,0,0.1,0c0,0,0.1,0,0.1,0c0,0,0.1,0,0.1,0.1
		c0,0,0.1,0,0.1,0.1c0,0,0.1,0.1,0.1,0.1c0,0,0,0.1,0,0.1c0,0.1,0,0.1,0,0.2c0,0.1-0.1,0.1-0.1,0.1c0,0-0.1,0.1-0.1,0.1
		c-0.1,0-0.1,0-0.2,0c0,0-0.1,0-0.1,0c0,0-0.1,0-0.1,0c0,0-0.1,0-0.1,0c0,0-0.1,0-0.1,0c0,0,0-0.1,0-0.1c0,0,0-0.1,0-0.1
		c0,0,0-0.1,0-0.1c0,0,0-0.1,0-0.1l0.1,0c0,0,0,0.1,0.1,0.1c0,0,0.1,0.1,0.1,0.1c0,0,0.1,0.1,0.1,0.1c0,0,0.1,0,0.1,0
		c0,0,0.1,0,0.1,0c0,0,0.1-0.1,0.1-0.1c0,0,0-0.1,0-0.1c0,0,0,0-0.1-0.1c0,0,0,0-0.1-0.1c0,0-0.1,0-0.1,0c0,0-0.1,0-0.1-0.1
		c0,0-0.1,0-0.1-0.1c0,0-0.1-0.1-0.1-0.1c0,0,0-0.1,0-0.1c0-0.1,0-0.1,0-0.2c0,0,0.1-0.1,0.1-0.1c0,0,0.1,0,0.1-0.1c0,0,0.1,0,0.2,0
		c0.1,0,0.1,0,0.2,0c0.1,0,0.1,0,0.2,0c0,0,0,0.1,0,0.1C310.4,127.2,310.4,127.2,310.3,127.4L310.3,127.4L310.3,127.4z"/>
	<path class="st0" d="M312.4,126.6c0,0,0,0.1,0,0.1c0,0,0,0.1,0,0.1v0.1v0.1l0.3,0l0,0l0,0.1h-0.3v0.6c0,0,0,0.1,0,0.1
		c0,0,0,0.1,0,0.1c0,0,0,0,0.1,0c0,0,0,0,0.1,0c0,0,0.1,0,0.1,0c0,0,0.1,0,0.1,0l0,0.1c-0.1,0-0.1,0-0.2,0.1c-0.1,0-0.1,0-0.2,0
		c0,0-0.1,0-0.1,0c0,0-0.1,0-0.1-0.1c0,0,0-0.1-0.1-0.1c0,0,0-0.1,0-0.1v-0.1v-0.1v-0.2v-0.3H312l0,0l0-0.1l0.2,0v-0.2v-0.1v-0.1
		c0,0,0,0,0.1,0c0,0,0,0,0.1,0C312.3,126.6,312.3,126.6,312.4,126.6C312.3,126.6,312.3,126.6,312.4,126.6L312.4,126.6z"/>
	<path class="st0" d="M314.9,127.9c0-0.1,0-0.1,0-0.2c0-0.1,0-0.1,0-0.2c0,0-0.1,0-0.1,0c0,0-0.1,0-0.1,0c0,0-0.1,0-0.1,0
		c0,0-0.1,0-0.1,0c0,0,0,0.1,0,0.1c0,0.1,0,0.1,0,0.1c0,0,0.1,0.1,0.1,0.1c0,0,0.1,0,0.1,0C314.8,128,314.8,128,314.9,127.9
		 M314.9,127.5L314.9,127.5v-0.2c0-0.1,0-0.1,0-0.2c0,0-0.1-0.1-0.2-0.1c0,0-0.1,0-0.1,0c0,0,0,0-0.1,0.1c0,0,0,0,0,0.1
		c0,0,0,0.1,0,0.1c0,0,0,0-0.1,0c0,0-0.1,0-0.1,0c0,0,0,0,0-0.1c0,0,0,0,0-0.1c0,0,0,0,0.1-0.1c0,0,0.1,0,0.1-0.1c0,0,0.1,0,0.1,0
		c0.1,0,0.2-0.1,0.2-0.1c0,0,0.1,0,0.1,0c0,0,0.1,0,0.1,0.1c0,0,0,0.1,0.1,0.1c0,0,0,0.1,0,0.1c0,0.1,0,0.2,0,0.3c0,0.1,0,0.2,0,0.4
		c0,0.1,0,0.1,0,0.1c0,0,0,0,0.1,0c0,0,0.1,0,0.1,0l0,0c0,0-0.1,0.1-0.1,0.1c0,0-0.1,0-0.1,0s-0.1,0-0.1,0c0,0-0.1-0.1-0.1-0.1
		c0,0,0,0-0.1,0c0,0-0.1,0-0.1,0.1c0,0-0.1,0-0.1,0c0,0-0.1,0-0.1,0c0,0-0.1,0-0.1,0c0,0-0.1,0-0.1-0.1c0,0,0-0.1-0.1-0.1
		c0,0,0-0.1,0-0.1c0-0.1,0-0.1,0.1-0.2c0,0,0.1-0.1,0.1-0.1c0,0,0.1,0,0.2-0.1C314.7,127.5,314.8,127.5,314.9,127.5"/>
	<path class="st0" d="M317.6,128.2C317.6,128.2,317.6,128.1,317.6,128.2c0-0.1,0-0.1,0-0.2c-0.1,0.1-0.1,0.1-0.2,0.1
		c-0.1,0-0.2,0.1-0.2,0.1c0,0-0.1,0-0.1,0c0,0-0.1,0-0.1-0.1c0,0-0.1-0.1-0.1-0.1c0-0.1,0-0.1,0-0.2v-0.5c0,0,0-0.1,0-0.1
		c0,0,0,0,0-0.1c0,0,0,0-0.1,0c0,0-0.1,0-0.1,0v-0.1c0,0,0.1,0,0.1,0c0,0,0.1,0,0.1,0c0,0,0.1,0,0.1,0c0,0,0,0,0.1,0l0,0
		c0,0,0,0.1,0,0.1c0,0,0,0.1,0,0.1v0.1v0.1v0.3c0,0.1,0,0.1,0,0.2c0,0,0,0.1,0.1,0.1c0,0,0,0,0.1,0.1c0,0,0.1,0,0.1,0
		c0.1,0,0.1,0,0.2,0c0.1,0,0.1-0.1,0.2-0.1v-0.6c0,0,0-0.1,0-0.1c0,0,0,0,0-0.1c0,0,0,0-0.1,0c0,0-0.1,0-0.1,0v-0.1c0,0,0.1,0,0.1,0
		c0,0,0.1,0,0.1,0c0,0,0.1,0,0.1,0c0,0,0,0,0.1,0l0,0c0,0,0,0.1,0,0.1c0,0,0,0.1,0,0.1c0,0,0,0.1,0,0.1v0.1v0.5c0,0,0,0.1,0,0.1
		c0,0,0,0,0,0c0,0,0,0,0.1,0c0,0,0.1,0,0.1,0l0,0.1c0,0-0.1,0-0.1,0c0,0-0.1,0-0.1,0C317.8,128.2,317.8,128.2,317.6,128.2
		C317.7,128.2,317.7,128.2,317.6,128.2L317.6,128.2z"/>
	<path class="st0" d="M320.2,128.2L320.2,128.2H320c0,0-0.1,0-0.1,0h-0.1c-0.1,0-0.1,0-0.2,0h-0.1v-0.1c0,0,0.1,0,0.1,0
		c0,0,0.1,0,0.1,0c0,0,0,0,0-0.1c0,0,0-0.1,0-0.1v-0.5c0,0,0-0.1,0-0.1c0,0,0,0,0,0c0,0,0,0-0.1,0c0,0-0.1,0-0.1,0l0-0.1
		c0,0,0.1,0,0.1,0c0,0,0.1,0,0.1,0c0,0,0.1,0,0.1,0c0,0,0,0,0.1,0l0,0c0,0,0,0.1,0,0.1c0,0,0,0.1,0,0.1c0-0.1,0.1-0.1,0.1-0.1
		c0,0,0.1-0.1,0.1-0.1c0,0,0.1,0,0.1,0c0,0,0,0,0.1,0c0,0,0.1,0,0.1,0c0,0,0,0.1,0,0.1c0,0,0,0.1,0,0.1c0,0-0.1,0.1-0.1,0.1
		c0,0,0,0-0.1-0.1c0,0-0.1,0-0.1,0c0,0-0.1,0-0.1,0c0,0-0.1,0.1-0.1,0.1c0,0,0,0,0,0c0,0,0,0,0,0v0.5c0,0,0,0.1,0,0.1c0,0,0,0,0,0
		c0,0,0,0,0.1,0C320.1,128.1,320.2,128.1,320.2,128.2L320.2,128.2z"/>
	<path class="st0" d="M322.6,127.9v-0.2c0-0.1,0-0.1,0-0.2c0,0-0.1,0-0.1,0c0,0-0.1,0-0.1,0c0,0-0.1,0-0.1,0c0,0-0.1,0-0.1,0
		c0,0,0,0.1,0,0.1c0,0.1,0,0.1,0,0.1c0,0,0.1,0.1,0.1,0.1c0,0,0.1,0,0.1,0C322.5,128,322.5,128,322.6,127.9 M322.6,127.5
		L322.6,127.5v-0.2c0-0.1,0-0.1,0-0.2c0,0-0.1-0.1-0.1-0.1c0,0-0.1,0-0.1,0c0,0,0,0-0.1,0.1c0,0,0,0,0,0.1c0,0,0,0.1,0,0.1
		c0,0-0.1,0-0.1,0c0,0-0.1,0-0.1,0c0,0,0,0,0-0.1c0,0,0,0,0-0.1c0,0,0,0,0.1-0.1c0,0,0.1,0,0.1-0.1c0,0,0.1,0,0.1,0
		c0.1,0,0.2-0.1,0.3-0.1c0,0,0.1,0,0.1,0c0,0,0.1,0,0.1,0.1c0,0,0.1,0.1,0.1,0.1c0,0,0,0.1,0,0.1c0,0.1,0,0.2,0,0.3v0.4
		c0,0.1,0,0.1,0,0.1c0,0,0,0,0.1,0c0,0,0.1,0,0.1,0l0,0c0,0-0.1,0.1-0.1,0.1c0,0-0.1,0-0.1,0c0,0-0.1,0-0.1,0c0,0-0.1-0.1-0.1-0.1
		c0,0,0,0-0.1,0c0,0-0.1,0-0.1,0.1c0,0-0.1,0-0.1,0c0,0-0.1,0-0.1,0c0,0-0.1,0-0.1,0c0,0-0.1,0-0.1-0.1c0,0,0-0.1-0.1-0.1
		c0,0,0-0.1,0-0.1c0-0.1,0-0.1,0.1-0.2c0,0,0.1-0.1,0.1-0.1c0,0,0.1,0,0.2-0.1C322.4,127.5,322.5,127.5,322.6,127.5"/>
	<path class="st0" d="M325,128.2h-0.1c-0.1,0-0.1,0-0.2,0c0,0-0.1,0-0.2,0h-0.1l0-0.1c0,0,0.1,0,0.1,0c0,0,0,0,0.1,0c0,0,0,0,0-0.1
		v-0.1v-0.5v-0.1c0,0,0,0,0,0c0,0,0,0-0.1,0c0,0-0.1,0-0.1,0l0-0.1c0,0,0.1,0,0.1,0c0,0,0.1,0,0.1,0c0,0,0.1,0,0.1,0
		c0,0,0.1,0,0.1,0l0,0c0,0,0,0.1,0,0.1c0,0,0,0.1,0,0.1c0.1-0.1,0.1-0.1,0.2-0.1c0.1,0,0.2-0.1,0.2-0.1c0,0,0.1,0,0.1,0
		c0,0,0.1,0,0.1,0.1c0,0,0.1,0.1,0.1,0.1c0,0,0,0.1,0,0.2v0.5c0,0,0,0.1,0,0.1c0,0,0,0,0,0c0,0,0,0,0.1,0c0,0,0.1,0,0.1,0l0,0.1
		h-0.1c-0.1,0-0.1,0-0.2,0c0,0-0.1,0-0.1,0h-0.1l0-0.1c0,0,0.1,0,0.1,0c0,0,0,0,0.1,0c0,0,0,0,0-0.1c0,0,0-0.1,0-0.1v-0.4
		c0-0.1,0-0.2-0.1-0.2c0,0-0.1-0.1-0.2-0.1c-0.1,0-0.1,0-0.2,0c-0.1,0-0.1,0-0.2,0.1v0.7c0,0,0,0.1,0,0.1c0,0,0,0,0,0
		C324.9,128.1,324.9,128.1,325,128.2C325,128.1,325,128.1,325,128.2L325,128.2z"/>
	<path class="st0" d="M327.7,126.6c0,0,0,0.1,0,0.1c0,0,0,0.1,0,0.1v0.1c0,0,0,0.1,0,0.1l0.3,0l0,0l0,0.1h-0.3v0.6c0,0,0,0.1,0,0.1
		c0,0,0,0.1,0,0.1c0,0,0,0,0.1,0c0,0,0,0,0.1,0c0,0,0.1,0,0.1,0c0,0,0.1,0,0.1,0l0,0.1c0,0-0.1,0-0.2,0.1c-0.1,0-0.1,0-0.2,0
		c0,0-0.1,0-0.1,0c0,0-0.1,0-0.1-0.1c0,0,0-0.1-0.1-0.1c0,0,0-0.1,0-0.1v-0.1v-0.1v-0.2v-0.3h-0.2l0,0l0-0.1l0.2,0v-0.2v-0.1v-0.1
		c0,0,0,0,0.1,0c0,0,0,0,0.1,0C327.6,126.6,327.6,126.6,327.7,126.6C327.6,126.6,327.7,126.6,327.7,126.6L327.7,126.6z"/>
	<polygon class="st0" points="329.5,127.6 329.5,127.6 330.2,127.5 330.2,127.5 329.5,127.5 	"/>
	<path class="st0" d="M332.2,127.9c0,0,0,0.1,0,0.1c0,0,0,0.1,0,0.1c0,0,0,0,0.1,0c0,0,0.1,0,0.1,0c0.1,0,0.2,0,0.3-0.1
		c0.1-0.1,0.1-0.2,0.1-0.3c0-0.1,0-0.2,0-0.2c0-0.1-0.1-0.1-0.1-0.1c-0.1,0-0.1-0.1-0.2-0.1c-0.1,0-0.1,0-0.2,0h-0.2V127.9z
		 M332.2,127.1h0.2c0.2,0,0.3,0,0.4-0.1c0.1-0.1,0.1-0.2,0.1-0.3c0,0,0-0.1,0-0.1c0,0,0-0.1-0.1-0.1c0,0-0.1-0.1-0.1-0.1
		c-0.1,0-0.1,0-0.2,0c0,0-0.1,0-0.1,0c0,0,0,0-0.1,0c0,0,0,0,0,0v0.1V127.1z M331.7,126.2L331.7,126.2h0.2c0,0,0.1,0,0.1,0h0.1
		c0.1,0,0.1,0,0.2,0c0.1,0,0.1,0,0.2,0c0.1,0,0.2,0,0.2,0c0.1,0,0.1,0,0.2,0.1c0.1,0,0.1,0.1,0.1,0.1c0,0.1,0.1,0.1,0.1,0.2
		c0,0.1,0,0.1,0,0.2c0,0-0.1,0.1-0.1,0.1c0,0-0.1,0.1-0.1,0.1c0,0-0.1,0-0.1,0.1c0.1,0,0.3,0.1,0.3,0.2c0.1,0.1,0.1,0.2,0.1,0.3
		c0,0.1,0,0.2-0.1,0.3c0,0.1-0.1,0.1-0.2,0.2c-0.1,0-0.1,0.1-0.2,0.1c-0.1,0-0.2,0-0.3,0c-0.1,0-0.1,0-0.2,0c-0.1,0-0.1,0-0.2,0H332
		c0,0-0.1,0-0.1,0h-0.1h-0.1l0-0.1c0.1,0,0.1,0,0.1,0c0,0,0.1,0,0.1,0c0,0,0,0,0-0.1c0,0,0-0.1,0-0.1v-1.3c0,0,0-0.1,0-0.1
		c0,0,0,0,0,0c0,0-0.1,0-0.1,0C331.8,126.3,331.8,126.3,331.7,126.2L331.7,126.2z"/>
	<path class="st0" d="M335.4,127.9c0-0.1,0-0.1,0-0.2v-0.2c0,0-0.1,0-0.1,0c0,0-0.1,0-0.1,0c0,0-0.1,0-0.1,0c0,0,0,0-0.1,0
		c0,0,0,0.1,0,0.1c0,0.1,0,0.1,0,0.1c0,0,0.1,0.1,0.1,0.1c0,0,0.1,0,0.1,0C335.3,128,335.3,128,335.4,127.9 M335.4,127.5
		L335.4,127.5v-0.2c0-0.1,0-0.1,0-0.2c0,0-0.1-0.1-0.1-0.1c0,0-0.1,0-0.1,0c0,0,0,0-0.1,0.1c0,0,0,0,0,0.1c0,0,0,0.1,0,0.1
		c0,0,0,0-0.1,0c0,0-0.1,0-0.1,0c0,0,0,0,0-0.1c0,0,0,0,0-0.1c0,0,0,0,0.1-0.1c0,0,0,0,0.1-0.1c0,0,0.1,0,0.1,0
		c0.1,0,0.2-0.1,0.3-0.1c0,0,0.1,0,0.1,0c0,0,0.1,0,0.1,0.1c0,0,0,0.1,0.1,0.1c0,0,0,0.1,0,0.1c0,0.1,0,0.2,0,0.3c0,0.1,0,0.2,0,0.4
		c0,0.1,0,0.1,0,0.1c0,0,0.1,0,0.1,0c0,0,0.1,0,0.1,0l0,0c0,0-0.1,0.1-0.1,0.1c0,0-0.1,0-0.1,0c0,0-0.1,0-0.1,0c0,0-0.1-0.1-0.1-0.1
		c0,0,0,0-0.1,0c0,0-0.1,0-0.1,0.1c0,0-0.1,0-0.1,0c0,0-0.1,0-0.1,0c0,0-0.1,0-0.1,0c0,0-0.1,0-0.1-0.1c0,0,0-0.1-0.1-0.1
		c0,0,0-0.1,0-0.1c0-0.1,0-0.1,0.1-0.2c0,0,0.1-0.1,0.1-0.1c0,0,0.1,0,0.2-0.1C335.2,127.5,335.3,127.5,335.4,127.5"/>
	<path class="st0" d="M337.9,128.2L337.9,128.2h-0.2c0,0-0.1,0-0.1,0h-0.1c-0.1,0-0.1,0-0.1,0h-0.1l0-0.1c0,0,0.1,0,0.1,0
		c0,0,0,0,0.1,0c0,0,0,0,0-0.1c0,0,0-0.1,0-0.1v-0.5c0,0,0-0.1,0-0.1c0,0,0,0,0,0c0,0,0,0-0.1,0c0,0-0.1,0-0.1,0l0-0.1
		c0,0,0.1,0,0.1,0c0,0,0.1,0,0.1,0c0,0,0.1,0,0.1,0c0,0,0.1,0,0.1,0l0,0c0,0,0,0.1,0,0.1v0.1c0-0.1,0.1-0.1,0.1-0.1
		c0,0,0.1-0.1,0.1-0.1c0,0,0.1,0,0.1,0c0,0,0,0,0.1,0c0,0,0.1,0,0.1,0c0,0,0,0.1,0,0.1c0,0,0,0.1,0,0.1c0,0-0.1,0.1-0.1,0.1
		c0,0,0,0-0.1-0.1c0,0-0.1,0-0.1,0c0,0-0.1,0-0.1,0c0,0-0.1,0.1-0.1,0.1c0,0,0,0,0,0v0v0.5c0,0,0,0.1,0,0.1c0,0,0,0,0,0
		c0,0,0,0,0.1,0C337.8,128.1,337.9,128.1,337.9,128.2L337.9,128.2z"/>
	<polygon class="st0" points="339.6,127.6 339.6,127.6 340.3,127.5 340.3,127.5 339.6,127.5 	"/>
	<path class="st0" d="M342.5,126.3c-0.1,0-0.1,0-0.1,0c0,0-0.1,0-0.1,0c0,0,0,0,0,0.1c0,0,0,0.1,0,0.1v1.3c0,0,0,0.1,0,0.1
		c0,0,0,0.1,0,0.1c0,0,0,0,0.1,0c0,0,0.1,0,0.1,0h0.1c0.1,0,0.1,0,0.2,0c0.1,0,0.1,0,0.1-0.1c0,0,0.1-0.1,0.1-0.1c0,0,0-0.1,0.1-0.2
		l0.1,0c0,0,0,0.1,0,0.1c0,0,0,0.1,0,0.1c0,0,0,0.1,0,0.1c0,0,0,0.1,0,0.1h-0.3h-0.2h-0.2c0,0-0.1,0-0.1,0h-0.1h-0.1h-0.1
		c0,0-0.1,0-0.1,0h-0.1h-0.1l0-0.1c0.1,0,0.1,0,0.1,0c0,0,0.1,0,0.1,0c0,0,0,0,0-0.1c0,0,0-0.1,0-0.1v-1.3c0,0,0-0.1,0-0.1
		c0,0,0,0,0,0c0,0,0,0-0.1,0c0,0-0.1,0-0.1,0l0-0.1h0.1h0.1c0,0,0.1,0,0.1,0h0.1h0.1c0,0,0.1,0,0.1,0L342.5,126.3L342.5,126.3
		L342.5,126.3z"/>
	<path class="st0" d="M345.3,128.1c0.1,0,0.1,0,0.1,0c0,0,0.1-0.1,0.1-0.1c0,0,0.1-0.1,0.1-0.1c0-0.1,0-0.1,0-0.2c0-0.1,0-0.1,0-0.2
		c0-0.1,0-0.1-0.1-0.2c0-0.1-0.1-0.1-0.1-0.1c0,0-0.1-0.1-0.2-0.1c-0.1,0-0.1,0-0.2,0c0,0-0.1,0.1-0.1,0.1c0,0,0,0.1-0.1,0.1
		c0,0.1,0,0.1,0,0.2c0,0.1,0,0.1,0,0.2c0,0.1,0,0.1,0.1,0.2c0,0.1,0.1,0.1,0.1,0.1C345.2,128.1,345.2,128.1,345.3,128.1
		 M344.7,127.6c0-0.1,0-0.2,0.1-0.2c0-0.1,0.1-0.1,0.1-0.2c0.1-0.1,0.1-0.1,0.2-0.1c0.1,0,0.1,0,0.2,0c0.1,0,0.2,0,0.2,0
		c0.1,0,0.1,0.1,0.2,0.1c0.1,0.1,0.1,0.1,0.1,0.2c0,0.1,0,0.2,0,0.2c0,0.1,0,0.2,0,0.2c0,0.1-0.1,0.1-0.1,0.2
		c-0.1,0.1-0.1,0.1-0.2,0.1c-0.1,0-0.2,0-0.2,0c-0.1,0-0.2,0-0.2,0c-0.1,0-0.1-0.1-0.2-0.1c0-0.1-0.1-0.1-0.1-0.2
		C344.7,127.8,344.7,127.7,344.7,127.6"/>
	<path class="st0" d="M348.3,128.2C348.3,128.2,348.3,128.1,348.3,128.2l0-0.2c-0.1,0.1-0.1,0.1-0.2,0.1c-0.1,0-0.1,0.1-0.2,0.1
		c0,0-0.1,0-0.1,0c0,0-0.1,0-0.1-0.1c0,0-0.1-0.1-0.1-0.1c0-0.1,0-0.1,0-0.2v-0.5c0,0,0-0.1,0-0.1c0,0,0,0,0-0.1c0,0,0,0-0.1,0
		c0,0-0.1,0-0.1,0v-0.1c0,0,0.1,0,0.1,0c0,0,0.1,0,0.1,0c0,0,0.1,0,0.1,0c0,0,0,0,0.1,0l0,0c0,0,0,0.1,0,0.1c0,0,0,0.1,0,0.1
		c0,0,0,0.1,0,0.1c0,0,0,0.1,0,0.1v0.3c0,0.1,0,0.1,0,0.2c0,0,0,0.1,0,0.1c0,0,0,0,0.1,0.1c0,0,0.1,0,0.1,0c0.1,0,0.1,0,0.2,0
		c0.1,0,0.1-0.1,0.2-0.1v-0.6c0,0,0-0.1,0-0.1c0,0,0,0,0-0.1c0,0,0,0-0.1,0c0,0-0.1,0-0.1,0v-0.1c0,0,0.1,0,0.1,0c0,0,0.1,0,0.1,0
		c0,0,0.1,0,0.1,0c0,0,0.1,0,0.1,0l0,0c0,0,0,0.1,0,0.1c0,0,0,0.1,0,0.1c0,0,0,0.1,0,0.1c0,0,0,0.1,0,0.1v0.5c0,0,0,0.1,0,0.1
		c0,0,0,0,0,0c0,0,0,0,0.1,0c0,0,0.1,0,0.1,0l0,0.1c0,0-0.1,0-0.1,0c0,0-0.1,0-0.1,0C348.5,128.2,348.4,128.2,348.3,128.2
		C348.4,128.2,348.3,128.2,348.3,128.2L348.3,128.2z"/>
	<path class="st0" d="M350.8,128.2h-0.1c-0.1,0-0.1,0-0.2,0c0,0-0.1,0-0.2,0h-0.1l0-0.1c0,0,0.1,0,0.1,0c0,0,0,0,0.1,0
		c0,0,0,0,0-0.1c0,0,0-0.1,0-0.1v-0.5c0,0,0-0.1,0-0.1c0,0,0,0,0,0c0,0,0,0-0.1,0c0,0-0.1,0-0.1,0l0-0.1c0,0,0.1,0,0.1,0
		c0,0,0.1,0,0.1,0c0,0,0.1,0,0.1,0c0,0,0.1,0,0.1,0l0,0c0,0,0,0.1,0,0.1c0,0,0,0.1,0,0.1c0.1-0.1,0.1-0.1,0.2-0.1
		c0.1,0,0.2-0.1,0.2-0.1c0,0,0.1,0,0.1,0c0,0,0.1,0,0.1,0.1c0,0,0.1,0.1,0.1,0.1c0,0,0,0.1,0,0.2v0.5c0,0,0,0.1,0,0.1c0,0,0,0,0,0
		c0,0,0,0,0.1,0c0,0,0.1,0,0.1,0l0,0.1h-0.1c-0.1,0-0.1,0-0.2,0c-0.1,0-0.1,0-0.1,0H351l0-0.1c0,0,0.1,0,0.1,0c0,0,0,0,0.1,0
		c0,0,0,0,0-0.1c0,0,0-0.1,0-0.1v-0.4c0-0.1,0-0.2-0.1-0.2c0,0-0.1-0.1-0.2-0.1c0,0-0.1,0-0.2,0c-0.1,0-0.1,0-0.2,0.1v0.7
		c0,0,0,0.1,0,0.1c0,0,0,0,0,0C350.7,128.1,350.7,128.1,350.8,128.2C350.7,128.1,350.8,128.1,350.8,128.2L350.8,128.2z"/>
	<path class="st0" d="M353.6,127.8c0,0,0.1,0,0.1,0c0,0,0.1,0,0.1-0.1c0,0,0-0.1,0-0.1c0,0,0-0.1,0-0.1c0,0,0-0.1,0-0.1
		c0,0,0-0.1-0.1-0.1c0,0,0-0.1-0.1-0.1c0,0-0.1,0-0.1,0c0,0-0.1,0-0.1,0c0,0-0.1,0-0.1,0.1c0,0,0,0.1,0,0.1c0,0,0,0.1,0,0.1
		c0,0,0,0.1,0,0.1c0,0,0,0.1,0,0.1c0,0,0.1,0.1,0.1,0.1C353.5,127.8,353.6,127.8,353.6,127.8 M353.6,128.3h-0.1c0,0-0.1,0-0.1,0
		c0,0,0,0-0.1,0c0,0,0,0,0,0c0,0-0.1,0.1-0.1,0.1c0,0,0,0.1,0,0.1c0,0.1,0,0.1,0,0.1c0,0,0.1,0.1,0.1,0.1c0,0,0.1,0,0.1,0.1
		c0.1,0,0.1,0,0.1,0c0.1,0,0.1,0,0.2,0c0.1,0,0.1,0,0.1-0.1c0,0,0.1-0.1,0.1-0.1c0,0,0-0.1,0-0.2c0-0.1,0-0.1,0-0.1
		c0,0-0.1-0.1-0.1-0.1c0,0-0.1,0-0.1,0C353.8,128.3,353.7,128.3,353.6,128.3L353.6,128.3z M353.1,127.5c0-0.1,0-0.1,0-0.2
		c0-0.1,0.1-0.1,0.1-0.1c0,0,0.1-0.1,0.2-0.1c0.1,0,0.1,0,0.2,0c0.1,0,0.2,0,0.3,0.1c0,0,0,0,0,0c0,0,0,0,0,0c0,0,0,0,0,0l0.3,0l0,0
		l0,0.1H354c0.1,0.1,0.1,0.2,0.1,0.2c0,0.1,0,0.1,0,0.2c0,0.1-0.1,0.1-0.1,0.2c0,0-0.1,0.1-0.2,0.1c-0.1,0-0.1,0-0.2,0
		c0,0-0.1,0-0.2,0c0,0-0.1,0-0.1,0.1c0,0,0,0.1,0,0.1c0,0,0,0,0,0.1c0,0,0,0,0,0c0,0,0,0,0.1,0c0,0,0,0,0.1,0h0.2c0,0,0.1,0,0.1,0
		c0.1,0,0.1,0,0.2,0c0.1,0,0.1,0,0.1,0.1c0,0,0.1,0.1,0.1,0.1c0,0,0,0.1,0,0.2c0,0.1,0,0.2-0.1,0.2c0,0.1-0.1,0.1-0.1,0.2
		c-0.1,0.1-0.1,0.1-0.2,0.1c-0.1,0-0.2,0-0.3,0c-0.1,0-0.1,0-0.2,0c-0.1,0-0.1,0-0.2-0.1c-0.1,0-0.1-0.1-0.1-0.1
		c0,0-0.1-0.1-0.1-0.2c0,0,0-0.1,0-0.1c0,0,0-0.1,0.1-0.1c0,0,0.1-0.1,0.1-0.1c0,0,0.1-0.1,0.1-0.1c-0.1,0-0.1,0-0.1-0.1
		c0,0-0.1-0.1-0.1-0.1c0,0,0-0.1,0-0.1c0,0,0,0,0.1-0.1c0,0,0,0,0.1-0.1c0,0,0,0,0.1-0.1C353.2,127.8,353.1,127.6,353.1,127.5"/>
	<path class="st0" d="M356.5,127.4C356.5,127.4,356.5,127.4,356.5,127.4C356.5,127.4,356.5,127.4,356.5,127.4c0.1-0.1,0.1-0.1,0-0.2
		c0,0,0-0.1-0.1-0.1c0,0,0,0-0.1-0.1c0,0-0.1,0-0.1,0c0,0-0.1,0-0.1,0c0,0-0.1,0-0.1,0.1c0,0,0,0.1-0.1,0.1c0,0,0,0.1,0,0.1H356.5z
		 M356.8,127.9c0,0.1-0.1,0.1-0.1,0.1c0,0-0.1,0.1-0.1,0.1c0,0-0.1,0-0.1,0c0,0-0.1,0-0.1,0c-0.1,0-0.2,0-0.2,0
		c-0.1,0-0.1-0.1-0.2-0.1c-0.1-0.1-0.1-0.1-0.1-0.2c0-0.1,0-0.1,0-0.2c0-0.1,0-0.2,0-0.3c0-0.1,0.1-0.1,0.1-0.2
		c0.1-0.1,0.1-0.1,0.2-0.1c0.1,0,0.1-0.1,0.2-0.1c0.1,0,0.1,0,0.2,0c0.1,0,0.1,0.1,0.1,0.1c0,0,0.1,0.1,0.1,0.1c0,0.1,0,0.1,0,0.2v0
		v0c0,0,0,0.1-0.1,0.1H356c0,0.1,0,0.2,0,0.2c0,0.1,0.1,0.1,0.1,0.2c0,0,0.1,0.1,0.1,0.1c0,0,0.1,0,0.1,0c0,0,0.1,0,0.1,0
		C356.6,128,356.6,127.9,356.8,127.9L356.8,127.9z"/>
	<path class="st0" d="M349.1,120.7h2.8c0.1,0,0.2,0,0.2-0.1c0.1-0.1,0.1-0.1,0.1-0.2v-0.6c0-0.1,0-0.1-0.1-0.2
		c-0.1-0.1-0.1-0.1-0.2-0.1h-2.8c-0.4,0-0.8,0-1.1,0.1c-0.3,0.1-0.6,0.2-0.7,0.3c-0.2,0.2-0.3,0.4-0.4,0.6c-0.1,0.2-0.1,0.6-0.1,0.9
		v1.7h-1.2v-7.3H344v8.5h4.4l0.4-0.3v-2.9c0-0.2,0-0.3,0.1-0.4C348.9,120.7,349,120.7,349.1,120.7"/>
	<path class="st0" d="M358.4,123.2H356v-4.6c0-0.4,0-0.7-0.1-0.9c-0.1-0.3-0.2-0.5-0.4-0.6c-0.2-0.2-0.4-0.3-0.7-0.3
		c-0.3-0.1-0.7-0.1-1.1-0.1h-6.4c-0.1,0-0.2,0-0.2,0.1c-0.1,0-0.1,0.1-0.1,0.2v0.6c0,0.1,0,0.2,0.1,0.2c0.1,0.1,0.1,0.1,0.2,0.1h6.3
		c0.1,0,0.2,0,0.3,0.1c0,0.1,0.1,0.2,0.1,0.3v5.9c0,0.1,0,0.1,0.1,0.2c0.1,0.1,0.1,0.1,0.2,0.1h4.2c0.1,0,0.2,0,0.2-0.1
		c0.1-0.1,0.1-0.1,0.1-0.2v-0.7c0-0.1,0-0.1-0.1-0.2C358.6,123.2,358.5,123.2,358.4,123.2"/>
	<rect x="327.2" y="115.9" class="st0" width="1.5" height="10"/>
	<path class="st0" d="M339.4,115.7c-0.4,0-0.7,0.1-1.1,0.3c-0.2,0.1-0.4,0.2-0.6,0.4c-0.2,0.2-0.5,0.5-0.8,0.8
		c-0.3-1-1.1-1.5-2.3-1.5c-0.8,0-1.6,0.4-2.3,1.3v-1.1h-1.5v8.5h1.5v-6.1c0.7-0.9,1.4-1.4,2.1-1.4c0.5,0,0.8,0.1,1,0.4
		c0.2,0.3,0.3,0.8,0.3,1.5v5.5h1.5v-6.1c0.7-0.9,1.4-1.4,2.1-1.4c0.5,0,0.8,0.1,1,0.4c0.2,0.3,0.3,0.8,0.3,1.5v5.5h1.5v-5.5
		C341.9,116.7,341.1,115.7,339.4,115.7"/>
	<rect x="344" y="112.6" class="st0" width="1.5" height="1.6"/>
	<polygon class="st0" points="322.7,119.1 325.8,115.9 323.9,115.9 320.8,119.3 320.8,112.7 320.8,112.6 319.3,112.6 319.3,124.4 
		320.8,124.4 320.8,121 321.7,120.1 324.3,124.4 326.1,124.4 	"/>
	<rect x="328.7" y="112.6" class="st0" width="14.1" height="1.6"/>
	<path class="st0" d="M310.2,119.4h-2.9c-0.4,0-0.8,0-1.1,0.1c-0.3,0.1-0.6,0.2-0.8,0.3c-0.2,0.2-0.3,0.4-0.4,0.6
		c-0.1,0.3-0.1,0.6-0.1,1v1.7h-2.3c-0.1,0-0.2,0-0.2,0.1c-0.1,0.1-0.1,0.1-0.1,0.2v0.7c0,0.1,0,0.2,0.1,0.2c0.1,0.1,0.1,0.1,0.2,0.1
		h4l0.4-0.3v-3c0-0.2,0-0.3,0.1-0.4c0.1-0.1,0.2-0.1,0.3-0.1h2.8c0.1,0,0.2,0,0.2-0.1c0.1-0.1,0.1-0.1,0.1-0.2v-0.7
		c0-0.1,0-0.1-0.1-0.2C310.3,119.4,310.3,119.4,310.2,119.4"/>
	<path class="st0" d="M315.7,112.6v10.5h-1.3v-4.7c0-0.4,0-0.7-0.1-1c-0.1-0.3-0.2-0.5-0.4-0.6c-0.2-0.2-0.4-0.3-0.7-0.3
		c-0.3-0.1-0.7-0.1-1.1-0.1h-6.5c-0.1,0-0.2,0-0.2,0.1c-0.1,0.1-0.1,0.1-0.1,0.2v0.7c0,0.1,0,0.2,0.1,0.2c0.1,0.1,0.1,0.1,0.2,0.1
		h6.4c0.1,0,0.3,0,0.3,0.1c0,0.1,0.1,0.2,0.1,0.3v6.1c0,0.1,0,0.1,0.1,0.2c0.1,0.1,0.1,0.1,0.2,0.1h4.6v-11.7H315.7z"/>
</g>
</svg>
