<?xml version="1.0" encoding="utf-8"?>
<!-- Generator: Adobe Illustrator 22.0.0, SVG Export Plug-In . SVG Version: 6.00 Build 0)  -->
<svg version="1.1" id="Calque_1" xmlns="http://www.w3.org/2000/svg" xmlns:xlink="http://www.w3.org/1999/xlink" x="0px" y="0px"
	 viewBox="0 0 500 430" style="enable-background:new 0 0 500 430;" xml:space="preserve">
<style type="text/css">
	.st0{fill:#F3F7FA;}
	.st1{fill:#7D8390;}
	.st2{font-family:'Avenir-Heavy';}
	.st3{font-size:35.575px;}
	.st4{opacity:0.35;fill:#7D8390;}
	.st5{opacity:0.8;fill:#989494;}
	.st6{fill:#263238;stroke:#263238;stroke-linecap:round;stroke-linejoin:round;stroke-miterlimit:10;}
	.st7{fill:#582119;}
	.st8{opacity:0.3;clip-path:url(#SVGID_2_);fill:#582119;}
	.st9{fill:#FFFFFF;stroke:#263238;stroke-linecap:round;stroke-linejoin:round;stroke-miterlimit:10;}
	.st10{fill:#989494;stroke:#273339;stroke-miterlimit:10;}
</style>
<g>
	<g>
		<g>

				<image style="overflow:visible;opacity:8.000000e-02;" width="2068" height="390" xlink:href="EA7FE1DC1C525F4D.png"  transform="matrix(0.24 0 0 0.24 20.76 301.64)">
			</image>
			<g>
				<path class="st0" d="M481.9,373h-453l19.1-63.2h433.9c7.2,0,13,5.9,13,13V360C494.9,367.2,489,373,481.9,373z"/>
			</g>
		</g>
		<text transform="matrix(1 0 0 1 161.192 354.6112)" class="st1 st2 st3">SUR PLACE</text>
		<polygon class="st1" points="30.6,384.1 5.1,384.1 64.2,274 89.7,274 		"/>
		<polygon class="st4" points="37.4,419.6 21.4,419.6 58.5,350.6 74.5,350.6 		"/>
	</g>
	<g>
		<ellipse class="st5" cx="250" cy="196.8" rx="199.7" ry="21.5"/>
		<g>
			<g>
				<g>
					<rect x="244.1" y="94.8" class="st6" width="15.8" height="102.8"/>
					<rect x="221.7" y="193.6" class="st7" width="59.9" height="4.9"/>
				</g>
				<g>
					<defs>
						<polygon id="SVGID_1_" points="259.9,193.6 259.9,94.8 244.1,94.8 244.1,193.6 221.7,193.6 221.7,198.4 281.6,198.4
							281.6,193.6 						"/>
					</defs>
					<use xlink:href="#SVGID_1_"  style="overflow:visible;fill:#263238;"/>
					<clipPath id="SVGID_2_">
						<use xlink:href="#SVGID_1_"  style="overflow:visible;"/>
					</clipPath>
					<path class="st8" d="M321.1,110.1c0,19.8-15.8,30.5-51.4,26.1c-37.4-4.6-77.4-23-77.4-42.8c0-19.8,28-19.1,63.9-19.1
						S321.1,90.3,321.1,110.1z"/>

						<use xlink:href="#SVGID_1_"  style="overflow:visible;fill:none;stroke:#263238;stroke-linecap:round;stroke-linejoin:round;stroke-miterlimit:10;"/>
				</g>
			</g>
			<g>
				<path class="st9" d="M149,55.9c0,0,0.4,15.6-5.1,30.5c0,0,99.9,23.6,215.4-1.7c-6.2-12.2-7.9-29.3-7.9-29.3S244.6,76.6,149,55.9
					z"/>
				<path class="st9" d="M351.6,55.6c0,5.6-45.4,10.1-101.3,10.1c-55.9,0-101.3-4.5-101.3-10.1c0-5.6,45.4-10.1,101.3-10.1
					C306.3,45.5,351.6,50,351.6,55.6z"/>
			</g>
		</g>
		<g>
			<g>
				<polygon class="st6" points="63,10.9 63.2,36 117,31.6 117.3,10.4 				"/>
				<polygon class="st6" points="72.2,58.7 73.5,69.9 111.9,63.8 111.2,54.3 				"/>
				<polygon class="st6" points="75.9,191.4 67.5,190.7 67.5,33.8 75.7,33.8 				"/>
				<polygon class="st6" points="113.3,187.7 106.4,186.8 106.4,29.9 113.4,29.9 				"/>
				<polygon class="st6" points="133.9,199.5 125.9,198.4 125.9,117.1 134.1,117.1 				"/>
				<polygon class="st6" points="177.6,188.4 170.5,188.1 170.5,107.2 177.9,107.2 				"/>
				<polygon class="st6" points="70.2,109.6 110,101.9 181.2,107.4 133.7,119 				"/>
				<polygon class="st6" points="133.7,119 181.2,107.4 180.8,119.6 133.8,129.9 				"/>
				<polygon class="st6" points="74.6,110.2 74.6,123.7 127.1,130.3 126.4,117.8 				"/>
				<polygon class="st6" points="74.8,137.7 74.5,145.4 126.8,151.3 126.4,144.2 				"/>
				<polygon class="st6" points="112,129.2 111.6,136.8 177,143.7 176.5,136.6 				"/>
				<polygon class="st10" points="65.6,12.6 65.9,34.7 118,30.7 118.1,11.9 				"/>
				<polygon class="st10" points="68.3,12.6 68.4,34.5 118.1,30.7 118.2,11.9 				"/>
				<polygon class="st10" points="134,118.3 134,116.4 181.6,106.7 181.6,108.5 				"/>
				<polygon class="st10" points="74.2,108.9 110.4,102 181.6,106.7 134.1,116.3 				"/>
				<polygon class="st10" points="74.2,109 74.3,111.3 134.1,118.3 134.2,116.3 				"/>
			</g>
			<g>
				<defs>
					<path id="SVGID_3_" d="M181.6,106.7l-2.8,0.6h0L181.6,106.7l-62.9-4.1l-5.4-0.4l0.2-70.2l3.6-0.3l0-0.8l1.1-0.1l0.1-18.8
						l-0.1,0v0l-0.8,0l0-1.5L63,10.9L63.2,36l4.3-0.4v155l8.3-2l0-43.2l29.4,3.3v38l7.9-2.5l0.1-34.6l12.8,1.5v47.2l8.1-2.1
						l0.1-57.2l37.1,3.9v44.9l6.4-1.7l0.3-66.1l3-0.6l0.3-11l0.4-0.1V106.7z M113.2,128.6l12.8,1.6v0.6l-12.8-1.5L113.2,128.6z
						 M75.7,69.5l29.4-4.7v38l-29.4,5.7L75.7,69.5z M105.2,32.6V55l-29.4,3.3l0-23.3L105.2,32.6z M75.8,137.8l0-14l29.4,3.7v13.9
						L75.8,137.8z M125.9,144.1l-12.8-1.6l0-5.5l12.8,1.4V144.1z M171.2,136l-37.1-4.3l0-1.9l37.1-8.1V136z"/>
				</defs>
				<clipPath id="SVGID_4_">
					<use xlink:href="#SVGID_3_"  style="overflow:visible;"/>
				</clipPath>
			</g>
		</g>
		<g>
			<g>
				<polygon class="st6" points="431.2,10.9 431,36 377.2,31.6 376.8,10.4 				"/>
				<polygon class="st6" points="422,58.7 420.7,69.9 382.2,63.8 383,54.3 				"/>
				<polygon class="st6" points="418.5,191.1 426.7,190.7 426.7,33.8 418.5,33.8 				"/>
				<polygon class="st6" points="381,187 387.8,186.8 387.8,29.9 380.8,29.9 				"/>
				<polygon class="st6" points="360.1,198 368.2,198.4 368.2,117.1 360,117.1 				"/>
				<polygon class="st6" points="316.8,188 323.3,188.1 323.3,107.2 316.3,107.2 				"/>
				<polygon class="st6" points="424,109.6 384.2,101.9 313,107.4 360.5,119 				"/>
				<polygon class="st6" points="360.5,119 313,107.4 313.3,119.6 360.4,129.9 				"/>
				<polygon class="st6" points="419.6,110.2 419.6,123.7 367.1,130.3 367.8,117.8 				"/>
				<polygon class="st6" points="419.3,137.7 419.7,145.4 367.4,151.3 367.7,144.2 				"/>
				<polygon class="st6" points="382.2,129.2 382.5,136.8 317.2,143.7 317.6,136.6 				"/>
				<polygon class="st10" points="428.6,12.6 428.3,34.7 376.1,30.7 376.1,11.9 				"/>
				<polygon class="st10" points="425.9,12.6 425.7,34.5 376.1,30.7 376,11.9 				"/>
				<polygon class="st10" points="360.2,118.3 360.2,116.4 312.6,106.7 312.6,108.5 				"/>
				<polygon class="st10" points="419.9,108.9 383.8,102 312.6,106.7 360.1,116.3 				"/>
				<polygon class="st10" points="419.9,109 419.9,111.3 360.1,118.3 360,116.3 				"/>
			</g>
			<g>
				<defs>
					<path id="SVGID_5_" d="M312.6,108.5l0.4,0.1l0.3,11l3,0.6l0.3,66.1l6.4,1.7v-44.9l37.1-3.9l0.1,57.2l8.1,2.1v-47.2l12.8-1.5
						l0.1,34.6l7.9,2.5v-38l29.4-3.3l0,43.2l8.3,2v-155L431,36l0.2-25.1l-54.4-0.5l0,1.5l-0.8,0v0l-0.1,0l0.1,18.8l1.1,0.1l0,0.8
						l3.6,0.3l0.2,70.2l-5.4,0.4l-62.9,4.1l2.8,0.6h0l-2.8-0.6V108.5z M381,129.3l-12.8,1.5v-0.6l12.8-1.6L381,129.3z M418.4,108.5
						l-29.4-5.7v-38l29.4,4.7L418.4,108.5z M418.5,35l0,23.3L389,55V32.6L418.5,35z M389,141.5v-13.9l29.4-3.7l0,14L389,141.5z
						 M368.2,138.3L381,137l0,5.5l-12.8,1.6V138.3z M323,121.7l37.1,8.1l0,1.9L323,136V121.7z"/>
				</defs>
				<clipPath id="SVGID_6_">
					<use xlink:href="#SVGID_5_"  style="overflow:visible;"/>
				</clipPath>
			</g>
		</g>
	</g>
</g>
</svg>
