<?xml version="1.0" encoding="utf-8"?>
<!-- Generator: Adobe Illustrator 22.0.0, SVG Export Plug-In . SVG Version: 6.00 Build 0)  -->
<svg version="1.1" id="Calque_1" xmlns="http://www.w3.org/2000/svg" xmlns:xlink="http://www.w3.org/1999/xlink" x="0px" y="0px"
	 viewBox="0 0 500 430" style="enable-background:new 0 0 500 430;" xml:space="preserve">
<style type="text/css">
	.st0{fill:#F3F7FA;}
	.st1{fill:#7D8390;}
	.st2{font-family:'Avenir-Heavy';}
	.st3{font-size:34.3754px;}
	.st4{opacity:0.35;fill:#7D8390;}
	.st5{opacity:0.8;fill:#989494;}
	.st6{fill:#FFFFFF;stroke:#263238;stroke-linecap:round;stroke-linejoin:round;stroke-miterlimit:10;}
	.st7{fill:#263238;}
	.st8{fill:#2C3B40;}
	.st9{fill:#FFFFFF;}
	.st10{fill:#492A4F;}
	.st11{fill:#324045;}
	.st12{fill:#43557A;}
	.st13{fill:#C5D5D9;}
	.st14{fill:#989494;}
	.st15{fill:#989494;}
	.st16{fill:#989494;stroke:#273339;stroke-miterlimit:10;}
	.st17{fill:#989494;stroke:#273339;stroke-miterlimit:10;}
	.st18{fill:#989494;}
	.st19{opacity:0.3;fill:#989494;}
	.st20{fill:#989494;}
	.st21{fill:#E0DDDA;}
	.st22{fill:#989494;}
	.st23{fill:#989494;}
	.st24{fill:#989494;}
	.st25{fill:#989494;}
	.st26{fill:#989494;}
	.st27{fill:#989494;}
	.st28{fill:#989494;}
	.st29{fill:#989494;}
	.st30{fill:#989494;}
	.st31{fill:#989494;}
	.st32{fill:#989494;}
	.st33{fill:#989494;}
	.st34{fill:#989494;}
</style>
<g>
	<g>
		<g>

				<image style="overflow:visible;opacity:8.000000e-02;" width="2002" height="380" xlink:href="F78002BE8D46E43E.png"  transform="matrix(0.24 0 0 0.24 28.2 303.8)">
			</image>
			<g>
				<path class="st0" d="M474,372.9H36.3l18.4-61.1H474c6.9,0,12.6,5.7,12.6,12.6v35.9C486.6,367.2,481,372.9,474,372.9z"/>
			</g>
		</g>
		<text transform="matrix(1 0 0 1 181.6675 355.1133)" class="st1 st2 st3">A LIVRER</text>
		<polygon class="st1" points="38,383.6 13.4,383.6 70.5,277.2 95.1,277.2 		"/>
		<polygon class="st4" points="44.6,417.9 29.1,417.9 64.9,351.2 80.4,351.2 		"/>
	</g>
	<g>
		<g>
			<ellipse class="st5" cx="222.3" cy="229.6" rx="127.9" ry="4.3"/>
			<g>
				<g>
					<g>
						<g>
							<path class="st6" d="M162.4,92.8h-8.1c-1.5,0-2.7,1.2-2.7,2.7v5.1c0,1.5,1.2,2.7,2.7,2.7h6.6v-2l0,0c2,0,3.9-0.8,5.3-2.2l1-1
								L162.4,92.8z"/>
							<polygon class="st6" points="162.4,92.8 167.1,98.1 187.3,93.4 184.5,85.9 							"/>
							<polygon class="st6" points="184.5,85.9 183.5,86.2 183.2,94.4 187.3,93.4 							"/>
							<path class="st7" d="M223.3,56.9L223.3,56.9c-2.7-2.1-6.5-1.7-8.7,0.9l-21,24.4l-3.8,1.3l3.5,9.4l2-0.4
								c3.2-0.7,6-2.3,8.3-4.6L224,66.3C226.6,63.6,226.3,59.2,223.3,56.9z"/>
							<path class="st8" d="M193.4,93.2l-0.1-0.3l-3.5-9.4l-0.3-0.9c-0.2-0.5-0.8-0.8-1.3-0.6l-3.5,1.3c-0.5,0.2-0.8,0.8-0.6,1.3
								l0.3,0.8l3.3,8.8l0.4,1.1c0.2,0.5,0.8,0.8,1.3,0.6l3.5-1.3C193.3,94.3,193.6,93.7,193.4,93.2z"/>
							<path class="st8" d="M215.9,58.8c2-2.3,5.2-2.9,7.9-1.5c-0.1-0.1-0.3-0.3-0.5-0.4h0c-2.7-2.1-6.5-1.7-8.7,0.9l-21,24.4
								l-3.8,1.3l0.6,1.5l4.3-1.4L215.9,58.8z"/>
						</g>
						<g>
							<path class="st7" d="M216,107.6l-43.8,11.7c-7.6,2-11.1,10.7-7.1,17.4l25.5,42.6l14.2-6.3l-20.4-38.9l41.6-8.7
								c8.1-1.7,12.8-10.1,10.1-17.8l0,0H216z"/>
							<g>
								<path class="st6" d="M203.1,175.9l-1.1-1.6l-8.1,3.6l1.9,3.5l9-2.5C204.3,177.9,203.7,176.9,203.1,175.9z"/>
								<path class="st9" d="M200.8,182.9l-0.8,1.9l1-0.7c0.4-0.3,0.9-0.4,1.4-0.4h4.7c-0.7-1.7-1.5-3.3-2.3-4.8l-9,2.5l0.5,1h4.1
									C200.7,182.4,200.9,182.7,200.8,182.9z"/>
								<path class="st10" d="M190.5,191.2h19.1l-0.3-1.3c-0.5-2.1-1.2-4.1-2.1-6.1h-4.7c-0.5,0-1,0.2-1.4,0.4l-1,0.7l0.8-1.9
									c0.1-0.3-0.1-0.6-0.4-0.6h-4.1l-3,2.9c-1.4,1.3-3.2,2-5.1,2h-2.1c-2,0-3.8,1.1-4.7,2.8l3.9,0.7
									C187.1,191,188.8,191.2,190.5,191.2z"/>
								<path class="st9" d="M190.5,191.2c-1.7,0-3.4-0.1-5.1-0.4l-3.9-0.7c-0.4,0.7-0.6,1.5-0.7,2.4l6,0.5c1,0.1,1.9,0.1,2.9,0.1
									h20.4l-0.5-1.9H190.5z"/>
								<polygon class="st7" points="202,174.3 193.9,177.9 194.8,179.5 203.6,176.8 								"/>
							</g>
						</g>
					</g>
					<g>
						<g>
							<path class="st11" d="M148.4,103.7h-2.1l-5.3,18.8c-4.2,14.7-2.5,30.5,4.7,44l2.6,1L148.4,103.7z"/>
							<path class="st7" d="M141,122.6l5.3-18.8h-1.9l-10.9,40.6c-1,3.7-4.3,6.2-8.1,6.2c-0.3,0-0.5,0.2-0.5,0.5v7.7l20.8,7.8
								C138.5,153.1,136.9,137.3,141,122.6z"/>
						</g>
						<g>
							<circle class="st10" cx="123.5" cy="199.5" r="29.1"/>
							<circle class="st12" cx="123.5" cy="199.5" r="20.9"/>
							<circle class="st13" cx="123.5" cy="199.5" r="17.1"/>
							<path class="st14" d="M123.5,182.4c-3.2,0-6.2,0.9-8.8,2.5c1.2-0.3,2.4-0.5,3.7-0.5c8.3,0,15.1,6.8,15.1,15.1
								c0,8.3-6.8,15.1-15.1,15.1c-1.3,0-2.5-0.2-3.7-0.5c2.6,1.6,5.6,2.5,8.8,2.5c9.4,0,17.1-7.7,17.1-17.1
								C140.6,190,132.9,182.4,123.5,182.4z"/>
							<circle class="st14" cx="123.5" cy="199.5" r="7.5"/>

								<ellipse transform="matrix(0.7071 -0.7071 0.7071 0.7071 -104.8828 145.7251)" class="st7" cx="123.5" cy="199.5" rx="5.1" ry="5.1"/>
						</g>
						<g>
							<circle class="st10" cx="272.9" cy="199.5" r="29.1"/>
							<circle class="st12" cx="272.9" cy="199.5" r="20.9"/>
							<circle class="st13" cx="272.9" cy="199.5" r="17.1"/>
							<path class="st14" d="M272.9,182.4c-3.2,0-6.2,0.9-8.8,2.5c1.2-0.3,2.4-0.5,3.7-0.5c8.3,0,15.1,6.8,15.1,15.1
								c0,8.3-6.8,15.1-15.1,15.1c-1.3,0-2.5-0.2-3.7-0.5c2.6,1.6,5.6,2.5,8.8,2.5c9.4,0,17.1-7.7,17.1-17.1
								C290,190,282.3,182.4,272.9,182.4z"/>
							<circle class="st14" cx="272.9" cy="199.5" r="7.5"/>

								<ellipse transform="matrix(0.7071 -0.7071 0.7071 0.7071 -61.1171 251.385)" class="st7" cx="272.9" cy="199.5" rx="5.1" ry="5.1"/>
						</g>
						<g>
							<g>
								<path class="st9" d="M124.9,160.9c15,0.5,27.8,11,31.8,25.4l0.6,2.3l0.7,0.3l-1.4-4.9c-4-14.5-16.8-24.9-31.8-25.4
									c-0.4,0-0.8,0-1.2,0c-6.4,0-12.6,1.7-18.1,4.8l1,1.7c5.2-2.8,11-4.3,17.1-4.3C124.1,160.9,124.5,160.9,124.9,160.9z"/>
								<path class="st11" d="M127.6,174.1l29.7,14.6l-0.6-2.3c-4-14.5-16.8-24.9-31.8-25.4c-0.4,0-0.8,0-1.2,0
									c-6.1,0-11.9,1.5-17.1,4.3l5.3,8.9H127.6z"/>
							</g>
							<path class="st7" d="M159.4,191.2h-13.9c-6.2,0-12.2-2.5-16.6-6.9l0,0c-4.4-4.4-10.4-6.9-16.6-6.9H95.8l5.2-5.2
								c6-6,14.2-9.4,22.7-9.4h0c11,0,21.2,5.6,27.1,14.8L159.4,191.2z"/>
						</g>
						<path class="st7" d="M148.4,103.7l-5.3,18.8c-4.3,15.1-2.4,31.3,5.2,45l2.7,4.8c7.5,13.6,21.8,22,37.3,22h131l-4.7-17
							c-4.6-16.8-15.4-31.2-30.3-40.4l-8.5-5.3H203v3.2c0,2.1,1.3,4,3.4,4.7l0,0c7.8,2.6,13.4,9.5,14.4,17.7l0,0
							c1.6,12.7-8.4,24-21.2,24h-10.7c-10.2,0-19.7-5.2-25.2-13.9l-4.9-7.8c-5.4-8.6-7.3-19-5.2-28.9l5.7-26.9H148.4z"/>
						<path class="st10" d="M275.9,131.7h-78.8v-9.4h62.8c4.4,0,8.6,1.8,11.6,4.9L275.9,131.7z"/>
						<g>
							<path class="st11" d="M230.1,195.7h-35.4c-16,0-30.7-8.7-38.5-22.7l-2.7-4.8c-7.8-14.1-9.7-30.4-5.3-46
								c1.4-5,0.8-10.5-1.8-15c-0.4-0.6-0.1-1.4,0.5-1.8c0.6-0.4,1.4-0.1,1.8,0.5c2.9,5.1,3.6,11.3,2,17c-4.2,14.9-2.4,30.5,5.1,44
								l2.7,4.8c7.3,13.2,21.2,21.3,36.2,21.3h35.4c0.7,0,1.3,0.6,1.3,1.3C231.4,195.1,230.8,195.7,230.1,195.7z"/>
						</g>
						<path class="st11" d="M231.4,189.3h81l-1.2,1.2c-2,2-4.7,3.1-7.5,3.1h-63.8C236.5,193.6,233.4,192,231.4,189.3L231.4,189.3z"
							/>
						<g>
							<circle class="st14" cx="266.8" cy="185.1" r="17.5"/>
							<g>
								<path class="st12" d="M266.8,198.6c-7.4,0-13.5-6-13.5-13.5s6-13.5,13.5-13.5c7.4,0,13.5,6,13.5,13.5
									S274.2,198.6,266.8,198.6z M266.8,173c-6.6,0-12,5.4-12,12c0,6.6,5.4,12,12,12s12-5.4,12-12
									C278.8,178.4,273.4,173,266.8,173z"/>
							</g>
							<g>
								<g>
									<path class="st12" d="M275.5,185.8H258c-0.4,0-0.7-0.3-0.7-0.7c0-0.4,0.3-0.7,0.7-0.7h17.5c0.4,0,0.7,0.3,0.7,0.7
										C276.2,185.5,275.9,185.8,275.5,185.8z"/>
								</g>
								<g>
									<path class="st12" d="M274,182.9h-14.5c-0.4,0-0.7-0.3-0.7-0.7c0-0.4,0.3-0.7,0.7-0.7H274c0.4,0,0.7,0.3,0.7,0.7
										C274.7,182.6,274.4,182.9,274,182.9z"/>
								</g>
								<g>
									<path class="st12" d="M272,180.1h-10.4c-0.4,0-0.7-0.3-0.7-0.7c0-0.4,0.3-0.7,0.7-0.7H272c0.4,0,0.7,0.3,0.7,0.7
										C272.7,179.7,272.4,180.1,272,180.1z"/>
								</g>
								<g>
									<path class="st12" d="M269.6,177.2H264c-0.4,0-0.7-0.3-0.7-0.7c0-0.4,0.3-0.7,0.7-0.7h5.6c0.4,0,0.7,0.3,0.7,0.7
										C270.3,176.9,270,177.2,269.6,177.2z"/>
								</g>
								<g>
									<path class="st12" d="M274,188.7h-14.5c-0.4,0-0.7-0.3-0.7-0.7c0-0.4,0.3-0.7,0.7-0.7H274c0.4,0,0.7,0.3,0.7,0.7
										C274.7,188.3,274.4,188.7,274,188.7z"/>
								</g>
								<g>
									<path class="st12" d="M272,191.5h-10.4c-0.4,0-0.7-0.3-0.7-0.7c0-0.4,0.3-0.7,0.7-0.7H272c0.4,0,0.7,0.3,0.7,0.7
										C272.7,191.2,272.4,191.5,272,191.5z"/>
								</g>
								<g>
									<path class="st12" d="M269.6,194.4H264c-0.4,0-0.7-0.3-0.7-0.7c0-0.4,0.3-0.7,0.7-0.7h5.6c0.4,0,0.7,0.3,0.7,0.7
										C270.3,194.1,270,194.4,269.6,194.4z"/>
								</g>
							</g>
						</g>
						<g>
							<path class="st11" d="M285.7,147.1L285.7,147.1c-8.3-5.1-17.9-7.7-27.7-7.7h-3.3c-16.6,0-30.7,13.6-30.7,30.2
								c0,7.5,2.8,14.4,7.3,19.7h22.9h22.9h35.3l-3.1-11.1C305.7,165.2,297.2,154.1,285.7,147.1z"/>
							<path class="st7" d="M281,158.4L281,158.4c-6.1-3.7-13.1-5.7-20.3-5.7h-2.4c-12.2,0-22.5,10-22.5,22.1c0,5.5,2,10.6,5.4,14.4
								H258h16.7h25.9l-2.3-8.1C295.6,171.7,289.5,163.5,281,158.4z"/>
						</g>
						<g>
							<g>
								<path class="st11" d="M281.4,184.8h-27.3c-0.4,0-0.8-0.3-0.8-0.8c0-0.4,0.3-0.8,0.8-0.8h27.3c0.4,0,0.8,0.3,0.8,0.8
									C282.2,184.5,281.8,184.8,281.4,184.8z"/>
							</g>
							<g>
								<path class="st11" d="M280.5,181.8h-27.3c-0.4,0-0.8-0.3-0.8-0.8c0-0.4,0.3-0.8,0.8-0.8h27.3c0.4,0,0.8,0.3,0.8,0.8
									C281.3,181.4,281,181.8,280.5,181.8z"/>
							</g>
							<g>
								<path class="st11" d="M279.7,178.7h-27.3c-0.4,0-0.8-0.3-0.8-0.8c0-0.4,0.3-0.8,0.8-0.8h27.3c0.4,0,0.8,0.3,0.8,0.8
									C280.5,178.3,280.1,178.7,279.7,178.7z"/>
							</g>
							<g>
								<path class="st11" d="M278.9,175.6h-27.3c-0.4,0-0.8-0.3-0.8-0.8s0.3-0.8,0.8-0.8h27.3c0.4,0,0.8,0.3,0.8,0.8
									S279.3,175.6,278.9,175.6z"/>
							</g>
							<g>
								<path class="st11" d="M278,172.5h-27.3c-0.4,0-0.8-0.3-0.8-0.8c0-0.4,0.3-0.8,0.8-0.8H278c0.4,0,0.8,0.3,0.8,0.8
									C278.8,172.2,278.5,172.5,278,172.5z"/>
							</g>
						</g>
						<path class="st11" d="M203,131.7h72.9l0,0c-1.6,1.6-3.8,2.5-6.1,2.5h-60.1C207.3,134.2,204.9,133.3,203,131.7L203,131.7z"/>
						<path class="st7" d="M159.3,103.7h-14.9h-6.9V89.8h4.7c4,0,8,0.9,11.7,2.6l3.5,1.6c2.2,1,3.4,3.5,2.8,5.9L159.3,103.7z"/>
						<g>
							<rect x="135.3" y="89.8" class="st15" width="2.3" height="13.9"/>
							<rect x="134.1" y="89.8" class="st9" width="1.2" height="13.9"/>
						</g>
						<g>
							<g>
								<path class="st13" d="M310.2,129.7c0.3-0.3,0.3-0.8,0-1.1c-0.3-0.3-0.8-0.3-1.1,0l-6.5,6.5h2.2L310.2,129.7z"/>
								<path class="st9" d="M302.6,135.1l-10.5,10.5c-0.3,0.3-0.3,0.8,0,1.1c0.2,0.2,0.3,0.2,0.5,0.2c0.2,0,0.4-0.1,0.5-0.2
									l11.6-11.6H302.6z"/>
							</g>
							<g>
								<path class="st9" d="M270.9,138h-43.7c-0.7,0-1.3-0.6-1.3-1.3c0-0.7,0.6-1.3,1.3-1.3h43.7c3.1,0,6.1-1.2,8.3-3.4
									c2.7-2.7,6.3-4.2,10.1-4.2h42.5c0.7,0,1.3,0.6,1.3,1.3c0,0.7-0.6,1.3-1.3,1.3h-42.5c-3.1,0-6.1,1.2-8.3,3.4
									C278.3,136.5,274.7,138,270.9,138z"/>
							</g>
						</g>
					</g>
					<polygon class="st11" points="148.4,103.7 159.3,103.7 159,104.9 148.1,104.9 					"/>
					<g>
						<rect x="273.8" y="71.3" class="st16" width="76.4" height="56.5"/>
						<rect x="271.6" y="62" class="st16" width="80.8" height="9.2"/>
						<rect x="273.8" y="71.3" class="st17" width="76.4" height="4.5"/>
					</g>
					<g>
						<g>
							<path class="st8" d="M216,107.6l-36.5,10.9c-8.1,2.4-11.7,11.8-7.4,19l25,41.7l14.2-6.3l-20.4-38.9l41.6-8.7
								c8.1-1.7,12.8-10.1,10.1-17.8l0,0H216z"/>
							<g>
								<path class="st6" d="M209.5,175.9l-1.1-1.6l-8.1,3.6l1.9,3.5l9-2.5C210.7,177.9,210.1,176.9,209.5,175.9z"/>
								<path class="st9" d="M207.3,182.9l-0.8,1.9l1-0.7c0.4-0.3,0.9-0.4,1.4-0.4h4.7c-0.7-1.7-1.5-3.3-2.3-4.8l-9,2.5l0.5,1h4.1
									C207.2,182.4,207.4,182.7,207.3,182.9z"/>
								<path class="st10" d="M196.9,191.2H216l-0.3-1.3c-0.5-2.1-1.2-4.1-2.1-6.1h-4.7c-0.5,0-1,0.2-1.4,0.4l-1,0.7l0.8-1.9
									c0.1-0.3-0.1-0.6-0.4-0.6h-4.1l-3,2.9c-1.4,1.3-3.2,2-5.1,2h-2.1c-2,0-3.8,1.1-4.7,2.8l3.9,0.7
									C193.5,191,195.2,191.2,196.9,191.2z"/>
								<path class="st9" d="M196.9,191.2c-1.7,0-3.4-0.1-5.1-0.4l-3.9-0.7c-0.4,0.7-0.6,1.5-0.7,2.4l6,0.5c1,0.1,1.9,0.1,2.9,0.1
									h20.4l-0.5-1.9H196.9z"/>
								<polygon class="st7" points="208.4,174.3 200.4,177.9 201.2,179.5 210,176.8 								"/>
							</g>
						</g>
						<g>
							<path class="st6" d="M207.9,43l-1.1-6.3c-0.4-2.1-2.2-3.6-4.3-3.6h-6.3l0.6,3c0.4,2.2,0.4,4.4-0.1,6.5l-0.3,1.2
								c-0.1,0.5,0.3,1,0.8,1h1.3c1.6,5.9,8.8,8.4,13.7,4.6l7.8-6l-4.1,2.9C212.8,48.4,208.6,46.7,207.9,43z"/>
							<path class="st6" d="M195.8,30.9l0.4,2.2l0,0h6.3c2.1,0,4,1.5,4.3,3.6l1.1,6.3c0.6,3.7,4.9,5.4,7.9,3.3l4.1-2.9l0,0l0,0V30.9
								H195.8z"/>
							<g>
								<polygon class="st10" points="220,43.4 212.2,49.4 213.2,52.4 220,43.4 								"/>
								<polygon class="st6" points="225.5,51.7 220,43.4 213.2,52.4 215,57.5 								"/>
							</g>
							<path class="st7" d="M200.9,38c0.1,0.7-0.1,1.4-0.5,1.4c-0.4,0.1-0.8-0.5-0.9-1.2c-0.1-0.7,0.1-1.4,0.5-1.4
								C200.4,36.8,200.8,37.3,200.9,38z"/>
							<g>
								<path class="st7" d="M199,35.5c0.6-0.4,1.4-0.3,2,0.1c0.6,0.4,1.2-0.6,0.6-1c-0.9-0.6-2.1-0.6-3.1-0.1
									C197.8,34.9,198.4,35.9,199,35.5L199,35.5z"/>
							</g>
							<g>
								<g>
									<path class="st9" d="M200.6,42.4l1.3,0.4c1.8,0.6,3.8,0.7,5.7,0.2l3.1-0.9l-0.7-1.5l-2.4,0.7c-1.9,0.5-3.9,0.5-5.7-0.2
										l-1.3-0.4c-1.1-0.4-2.3-0.7-3.4-0.9l-0.5-0.1l-0.4,1.6l0.9,0.1C198.3,41.7,199.4,42,200.6,42.4z"/>
									<path class="st18" d="M210.7,42.1l-3.1,0.9c-1.9,0.5-3.9,0.5-5.7-0.2l-1.3-0.4c-1.1-0.4-2.3-0.7-3.4-0.9l-0.9-0.1l-0.1,0.5
										c-0.2,0.9-0.2,1.9,0.1,2.8l0.7,1.9c1.2,3.4,4.4,5.8,8,6h0c2.3,0.1,4.5-0.6,6.2-2l2.6-2.1L210.7,42.1z"/>
								</g>
								<path class="st19" d="M207.6,41.3l0.3,1.7c0.5,2.7,2.9,4.3,5.3,4.2l-3.3-6.5L207.6,41.3z"/>
							</g>
							<g>
								<path class="st20" d="M212.2,44.8l-2.4,6.8c-0.1,0.2,0.1,0.5,0.3,0.4l0,0c1.8-0.2,3.4-1.3,4.3-2.8l3-5.2L212.2,44.8z"/>
								<g>
									<path class="st16" d="M209.8,34.4l1.3,7.4c0.2,1.3,1.5,2,2.8,1.6l12.9-4.8v-9.3c0-9.5-7.7-17.2-17.2-17.2l0,0
										c-9.3,0-17,7.4-17.2,16.7h10.8C206.5,28.8,209.3,31.2,209.8,34.4z"/>
									<g>
										<g>
											<path class="st9" d="M220.3,26.1c-0.8,0-1.6-0.5-2.1-1.3c-1.7-3.2-5-5.3-8.6-5.3c-1.3,0-2.3-1-2.3-2.3
												c0-1.3,1-2.3,2.3-2.3c5.4,0,10.3,3,12.8,7.7c0.6,1.1,0.2,2.5-1,3.1C221.1,26,220.7,26.1,220.3,26.1z"/>
										</g>
										<g>
											<path class="st9" d="M202.5,21.9c-0.7,0-1.4-0.3-1.9-1c-0.8-1-0.5-2.5,0.5-3.3l0.1-0.1c1-0.7,2.5-0.5,3.2,0.5
												c0.7,1,0.5,2.5-0.5,3.2l-0.1,0.1C203.5,21.8,203,21.9,202.5,21.9z"/>
										</g>
									</g>
									<path class="st17" d="M213.9,43.4c-1.2,0.4-2.5-0.3-2.8-1.6l-1.3-7.4c-0.6-3.2-3.4-5.6-6.6-5.6h-10.8c0,0.2,0,0.3,0,0.5
										v1.6h10.3c2.5,0,4.7,1.8,5.1,4.3l1.3,7.4c0.5,2.6,3.3,4.1,5.7,3.1l10.8-4.8c0.8-0.3,1.2-1.1,1.2-1.9v-0.4L213.9,43.4z"/>
								</g>
							</g>
						</g>
						<g>
							<g>
								<path class="st7" d="M212.9,103.7l3.2-13.9l-4.6-24.9c-0.5-3,0.9-6,3.5-7.4l10.5-5.8c1.4-0.8,3.1-0.6,4.3,0.4v0
									c8.6,7.4,14,17.9,15,29.2l2,21.9c0.2,2.4-1.7,4.5-4.1,4.5l0,0H216l0,0C213.9,107.6,212.4,105.7,212.9,103.7z"/>
								<path class="st7" d="M228.6,62l0.1,0.3c1.1,4.2,0.3,8.7-2.2,12.3L216,89.8l-2.1-11.7L228.6,62z"/>
							</g>
							<g>
								<g>
									<polygon class="st7" points="214,54.6 211.1,56.1 214,59.2 215,57.5 									"/>
									<polygon class="st8" points="211.1,56.1 210.5,61.4 213.4,58.6 									"/>
								</g>
								<polygon class="st8" points="227.1,51.2 224.1,48.5 213.2,54.5 214.7,60.8 								"/>
							</g>
						</g>
						<g>
							<g>
								<path class="st6" d="M165.7,95.4h-8.1c-1.5,0-2.7,1.2-2.7,2.7v5.1c0,1.5,1.2,2.7,2.7,2.7h6.6v-2l0,0c2,0,3.9-0.8,5.3-2.2
									l1-1L165.7,95.4z"/>
								<polygon class="st6" points="165.7,95.4 170.4,100.7 190.7,96 187.9,88.5 								"/>
								<polygon class="st6" points="187.9,88.5 186.9,88.8 186.6,97 190.7,96 								"/>
								<path class="st8" d="M226.7,59.5L226.7,59.5c-2.7-2.1-6.5-1.7-8.7,0.9l-21,24.4l-3.8,1.3l3.5,9.4l2-0.4
									c3.2-0.7,6-2.3,8.3-4.6l20.5-21.5C230,66.2,229.6,61.8,226.7,59.5z"/>
								<path class="st7" d="M196.8,95.8l-0.1-0.3l-3.5-9.4l-0.3-0.9c-0.2-0.5-0.8-0.8-1.3-0.6l-3.5,1.3c-0.5,0.2-0.8,0.8-0.6,1.3
									l0.3,0.8l3.3,8.8l0.4,1.1c0.2,0.5,0.8,0.8,1.3,0.6l3.5-1.3C196.7,96.9,197,96.3,196.8,95.8z"/>
								<path class="st7" d="M219.3,61.4c2-2.3,5.2-2.9,7.9-1.5c-0.1-0.1-0.3-0.3-0.5-0.4l0,0c-2.7-2.1-6.5-1.7-8.7,0.9l-21,24.4
									l-3.8,1.3l0.6,1.5l4.3-1.4L219.3,61.4z"/>
							</g>
							<g>
								<path class="st10" d="M166.8,103.9c0.6-1.1,2-1.5,3.2-0.9l0,0c0,0-0.1-0.1-0.1-0.1l-5.2-2.9c-1.1-0.6-2.5-0.2-3.2,0.9
									c-0.6,1.1-0.2,2.5,0.9,3.2l5.2,2.8C166.6,106.3,166.2,104.9,166.8,103.9z"/>
								<path class="st12" d="M168.7,107.2c0.8,0,1.6-0.4,2-1.2c0.6-1.1,0.2-2.4-0.8-3.1l0,0c-1.1-0.6-2.5-0.2-3.2,0.9
									c-0.6,1.1-0.2,2.4,0.8,3.1l0,0C168,107.1,168.4,107.2,168.7,107.2z"/>
							</g>
						</g>
					</g>
				</g>
				<g>
					<path class="st21" d="M314.6,218.3c1.1-3.5,1.6-4.9,8.8-5.5c2-0.2,3.9,0.5,5.9,0.3c1.9-0.2,4-1.6,4-3.5c0-2.1-2.3-4-1.6-5.9
						c0.5-1.5,2.3-2,3.9-1.9c1.5,0.1,3.1,0.5,4.6,0c1.8-0.6,2.9-2.5,3.1-4.4c0.2-1.9-0.4-3.8-1.1-5.5c-0.7-1.8-1.4-3.6-1.6-5.4
						c-0.4-4,1.9-7.9,5-10.6c4.2-3.7,9.8-5.6,15.4-5.3c5.4,0.3,12.1,2.4,15.2,7.2c1.8,2.8,2.5,6.3,1.8,9.6c-0.3,1.4-0.8,2.8-0.4,4.2
						c0.6,2,2.7,3,4.7,3.7c1.9,0.8,4.1,1.8,4.5,3.9c0.4,1.8-0.9,3.6-2.6,4.6s-3.5,1.2-5.3,1.8c-1.8,0.6-3.6,1.5-4.4,3.2
						c-0.7,1.4-0.5,3.2-1.1,4.7c-1,2.5-4,3.7-6.7,3.4c-2.7-0.3-5.1-1.8-7.3-3.3c-1.1-0.7-2.2-1.5-3.5-1.9s-2.8-0.4-3.9,0.3
						c-1.4,0.9-2.2,2.9-3.8,3.2c-1.6,0.3-3-1-4.2-2.1c-1.2-1.1-3.2-2-4.3-0.9c-0.5,0.5-0.7,1.2-1,1.9c-1.3,2.5-4.5,3.3-7.3,3
						c-2.8-0.3-5.4-1.5-8.2-1.7C320.2,214.8,315.3,216.1,314.6,218.3z"/>
					<path class="st21" d="M383.3,211c2.4-0.8,5.2-0.1,7,1.8c1.1,1.2,1.7,3.1,0.8,4.4c-0.8,1.1-2.4,1.4-3.7,1.1
						c-1.3-0.3-2.5-1-3.8-1.4c-1.3-0.4-2.8-0.5-3.9,0.3c-0.3,0.2-0.5,0.5-0.8,0.6c-1.9,0.9,0.2-2.7,0.4-3.2
						C380.1,212.9,381.5,211.5,383.3,211z"/>
					<path class="st21" d="M402,191c1.2-0.3,2.7,0.1,3.3,1.1c0.8,1.3,0.1,3-1.1,3.8c-1.5,1.1-6.7,2.2-7.8-0.1
						C395.5,194,400.4,191.3,402,191z"/>
					<path class="st21" d="M384.2,187.8c0.3,0.5,0.8,0.8,1.4,0.9c0.6,0.1,1.1,0,1.7,0c1-0.1,2-0.2,2.9-0.7c0.9-0.5,1.5-1.5,1.3-2.5
						C390.8,181.7,382.4,184.5,384.2,187.8z"/>
					<path class="st21" d="M335.2,167.5c-0.9,0.4-1.7,1.3-1.6,2.2c0,0.7,0.6,1.4,1.2,1.7c0.6,0.4,1.4,0.5,2.1,0.5
						c0.9,0.1,1.9,0,2.6-0.7c0.4-0.4,0.7-1,1-1.4c0.6-0.9,1.5-1.5,2.5-1.8c0.6-0.2,1.5-0.3,1.5-1.1c0-0.8-1-1.3-1.7-1.5
						c-0.6-0.1-1.2,0.1-1.7,0.3c-0.9,0.4-1.7,0.7-2.6,1C337.4,167,336.2,167.1,335.2,167.5z"/>
				</g>
			</g>
		</g>
		<g>
			<linearGradient id="SVGID_1_" gradientUnits="userSpaceOnUse" x1="204.9405" y1="21.0628" x2="289.8484" y2="21.0628">
				<stop  offset="0" style="stop-color:#80CACF;stop-opacity:0"/>
				<stop  offset="0.5443" style="stop-color:#80CACF"/>
				<stop  offset="0.9884" style="stop-color:#80CACF;stop-opacity:0"/>
			</linearGradient>
			<rect x="204.9" y="20.2" class="st22" width="84.9" height="1.7"/>
			<linearGradient id="SVGID_2_" gradientUnits="userSpaceOnUse" x1="214.9731" y1="24.3935" x2="299.881" y2="24.3935">
				<stop  offset="0" style="stop-color:#80CACF;stop-opacity:0"/>
				<stop  offset="0.5443" style="stop-color:#80CACF"/>
				<stop  offset="0.9884" style="stop-color:#80CACF;stop-opacity:0"/>
			</linearGradient>
			<rect x="215" y="23.6" class="st23" width="84.9" height="1.7"/>
			<linearGradient id="SVGID_3_" gradientUnits="userSpaceOnUse" x1="145.6606" y1="151.0674" x2="230.5685" y2="151.0674">
				<stop  offset="0" style="stop-color:#80CACF;stop-opacity:0"/>
				<stop  offset="0.5443" style="stop-color:#80CACF"/>
				<stop  offset="0.9884" style="stop-color:#80CACF;stop-opacity:0"/>
			</linearGradient>
			<rect x="145.7" y="150.2" class="st24" width="84.9" height="1.7"/>
			<linearGradient id="SVGID_4_" gradientUnits="userSpaceOnUse" x1="155.6932" y1="154.3981" x2="240.6011" y2="154.3981">
				<stop  offset="0" style="stop-color:#80CACF;stop-opacity:0"/>
				<stop  offset="0.5443" style="stop-color:#80CACF"/>
				<stop  offset="0.9884" style="stop-color:#80CACF;stop-opacity:0"/>
			</linearGradient>
			<rect x="155.7" y="153.6" class="st25" width="84.9" height="1.7"/>
			<linearGradient id="SVGID_5_" gradientUnits="userSpaceOnUse" x1="216.0797" y1="60.7571" x2="300.9876" y2="60.7571">
				<stop  offset="0" style="stop-color:#80CACF;stop-opacity:0"/>
				<stop  offset="0.5443" style="stop-color:#80CACF"/>
				<stop  offset="0.9884" style="stop-color:#80CACF;stop-opacity:0"/>
			</linearGradient>
			<rect x="216.1" y="59.9" class="st26" width="84.9" height="1.7"/>
			<linearGradient id="SVGID_6_" gradientUnits="userSpaceOnUse" x1="220.7857" y1="57.4525" x2="337.306" y2="57.4525">
				<stop  offset="0" style="stop-color:#80CACF;stop-opacity:0"/>
				<stop  offset="0.5443" style="stop-color:#80CACF"/>
				<stop  offset="0.9884" style="stop-color:#80CACF;stop-opacity:0"/>
			</linearGradient>
			<rect x="220.8" y="56.6" class="st27" width="116.5" height="1.7"/>
			<linearGradient id="SVGID_7_" gradientUnits="userSpaceOnUse" x1="207.7742" y1="53.8011" x2="324.2945" y2="53.8011">
				<stop  offset="0" style="stop-color:#80CACF;stop-opacity:0"/>
				<stop  offset="0.5443" style="stop-color:#80CACF"/>
				<stop  offset="0.9884" style="stop-color:#80CACF;stop-opacity:0"/>
			</linearGradient>
			<rect x="207.8" y="53" class="st28" width="116.5" height="1.7"/>
			<linearGradient id="SVGID_8_" gradientUnits="userSpaceOnUse" x1="156.5973" y1="100.2426" x2="241.5052" y2="100.2426">
				<stop  offset="0" style="stop-color:#80CACF;stop-opacity:0"/>
				<stop  offset="0.5443" style="stop-color:#80CACF"/>
				<stop  offset="0.9884" style="stop-color:#80CACF;stop-opacity:0"/>
			</linearGradient>
			<rect x="156.6" y="99.4" class="st29" width="84.9" height="1.7"/>
			<linearGradient id="SVGID_9_" gradientUnits="userSpaceOnUse" x1="161.3032" y1="96.938" x2="277.8235" y2="96.938">
				<stop  offset="0" style="stop-color:#80CACF;stop-opacity:0"/>
				<stop  offset="0.5443" style="stop-color:#80CACF"/>
				<stop  offset="0.9884" style="stop-color:#80CACF;stop-opacity:0"/>
			</linearGradient>
			<rect x="161.3" y="96.1" class="st30" width="116.5" height="1.7"/>
			<linearGradient id="SVGID_10_" gradientUnits="userSpaceOnUse" x1="148.2918" y1="93.2866" x2="264.812" y2="93.2866">
				<stop  offset="0" style="stop-color:#80CACF;stop-opacity:0"/>
				<stop  offset="0.5443" style="stop-color:#80CACF"/>
				<stop  offset="0.9884" style="stop-color:#80CACF;stop-opacity:0"/>
			</linearGradient>
			<rect x="148.3" y="92.5" class="st31" width="116.5" height="1.7"/>
			<linearGradient id="SVGID_11_" gradientUnits="userSpaceOnUse" x1="290.5909" y1="150.3815" x2="375.4987" y2="150.3815">
				<stop  offset="0" style="stop-color:#80CACF;stop-opacity:0"/>
				<stop  offset="0.5443" style="stop-color:#80CACF"/>
				<stop  offset="0.9884" style="stop-color:#80CACF;stop-opacity:0"/>
			</linearGradient>
			<rect x="290.6" y="149.5" class="st32" width="84.9" height="1.7"/>
			<linearGradient id="SVGID_12_" gradientUnits="userSpaceOnUse" x1="270.6172" y1="147.0769" x2="387.1375" y2="147.0769">
				<stop  offset="0" style="stop-color:#80CACF;stop-opacity:0"/>
				<stop  offset="0.5443" style="stop-color:#80CACF"/>
				<stop  offset="0.9884" style="stop-color:#80CACF;stop-opacity:0"/>
			</linearGradient>
			<rect x="270.6" y="146.2" class="st33" width="116.5" height="1.7"/>
			<linearGradient id="SVGID_13_" gradientUnits="userSpaceOnUse" x1="257.6057" y1="143.4255" x2="374.126" y2="143.4255">
				<stop  offset="0" style="stop-color:#80CACF;stop-opacity:0"/>
				<stop  offset="0.5443" style="stop-color:#80CACF"/>
				<stop  offset="0.9884" style="stop-color:#80CACF;stop-opacity:0"/>
			</linearGradient>
			<rect x="257.6" y="142.6" class="st34" width="116.5" height="1.7"/>
		</g>
	</g>
</g>
</svg>
